<svg width="216" height="305" viewBox="0 0 216 305" fill="none" xmlns="http://www.w3.org/2000/svg">
<rect x="2" y="2" width="212" height="301" rx="18" fill="url(#paint0_linear)" stroke="#3C0300" stroke-width="4"/>
<rect x="5" y="5" width="206" height="295" rx="14" fill="url(#paint1_linear)" stroke="#FF531D" stroke-width="2"/>
<path d="M80.4732 118.416C79.1412 122.124 77.3412 126.3 76.0092 128.784L76.4052 129.072C79.2132 127.2 82.2012 124.5 84.7572 121.584C85.5492 121.692 86.0532 121.404 86.2332 121.008L80.4732 118.416ZM57.6852 118.956C59.4492 121.44 61.1052 124.932 61.3572 128.064C65.6052 131.664 69.5652 122.808 58.0092 118.74L57.6852 118.956ZM86.9172 139.044H86.5212C85.8012 141.6 85.1892 143.76 84.7932 144.516C84.5412 144.912 84.3612 145.02 83.8932 145.056C83.3892 145.092 82.4892 145.128 81.4092 145.128H78.4572C77.3772 145.128 77.1612 144.912 77.1612 144.336V132.276V131.7H87.3132C87.8172 131.7 88.2132 131.52 88.3212 131.124C86.6652 129.648 83.9652 127.596 83.9652 127.596L81.5172 130.656H73.4532V117.912C74.4252 117.768 74.7132 117.408 74.7852 116.904L69.0612 116.4V130.656H54.4452L54.7332 131.7H64.2372C64.0212 139.476 62.1132 145.524 54.3372 149.772L54.5172 150.168C65.2092 147.072 68.3772 140.736 69.0612 131.7H72.8772V145.416C72.8772 148.404 73.7412 149.196 77.4132 149.196H80.9772C86.9172 149.196 88.4652 148.368 88.4652 146.604C88.4652 145.74 88.2132 145.236 87.0612 144.768L86.9172 139.044ZM122.916 139.584H127.668V116.94H122.916V122.808H116.904V126.66H122.916V139.584ZM119.748 131.916C114.564 130.224 112.296 126.156 112.296 122.088V118.632H107.508V121.764C107.508 126.228 105.24 130.656 99.7324 132.492L102.216 136.236C105.96 134.94 108.516 132.384 109.956 129.144C111.36 132.096 113.772 134.4 117.264 135.588L119.748 131.916ZM119.028 137.676H114.168V138.396C114.168 141.528 110.64 145.344 103.656 146.316L105.42 149.988C110.748 149.268 114.564 146.892 116.544 143.796C118.524 146.928 122.34 149.232 127.74 149.988L129.468 146.316C122.412 145.344 119.028 141.744 119.028 138.396V137.676ZM139.078 123.852H149.806V120H134.362V142.212H137.17C142.93 142.212 147.466 142.032 152.47 141.132L152.002 137.208C147.718 137.928 143.794 138.18 139.078 138.252V123.852ZM163.846 129.18H159.022V116.94H154.27V150.168H159.022V133.104H163.846V129.18ZM87.0656 173.692C91.2776 173.692 93.2936 175.96 93.2936 180.208C93.2936 184.168 91.3496 186.904 86.8136 186.904H85.0496V184.78C85.0496 181.036 85.0496 177.328 85.1576 173.692H87.0656ZM86.7416 188.308C95.0576 188.308 98.0816 184.672 98.0816 180.208C98.0816 175.312 94.8776 172.288 87.2816 172.288H76.5536V173.584L79.9736 173.908C80.0456 177.544 80.0456 181.18 80.0456 184.78V186.544C80.0456 190.216 80.0456 193.852 79.9736 197.416L76.5536 197.74V199H89.0096V197.74L85.1576 197.38C85.0496 194.212 85.0496 191.116 85.0496 188.308H86.7416ZM119.993 179.74H112.865V180.892L115.817 181.288L111.389 194.356L106.637 181.216L109.517 180.892V179.74H99.1847V180.892L101.489 181.18L108.653 199.108H110.741L117.509 181.288L119.993 180.892V179.74ZM131.046 173.692C135.258 173.692 137.274 175.96 137.274 180.208C137.274 184.168 135.33 186.904 130.794 186.904H129.03V184.78C129.03 181.036 129.03 177.328 129.138 173.692H131.046ZM130.722 188.308C139.038 188.308 142.062 184.672 142.062 180.208C142.062 175.312 138.858 172.288 131.262 172.288H120.534V173.584L123.954 173.908C124.026 177.544 124.026 181.18 124.026 184.78V186.544C124.026 190.216 124.026 193.852 123.954 197.416L120.534 197.74V199H132.99V197.74L129.138 197.38C129.03 194.212 129.03 191.116 129.03 188.308H130.722Z" fill="#1D0000"/>
<path d="M64.1534 263.84C67.7774 263.552 70.9694 262.448 72.2894 260.456C73.6094 262.448 76.7774 263.552 80.3774 263.84L80.9774 262.352C76.9694 262.088 73.7294 260.768 73.3934 258.632H80.0174V257.144H73.2734V255.104H71.3054V257.144H64.5374V258.632H71.1854C70.8494 260.768 67.5614 262.088 63.5774 262.352L64.1534 263.84ZM81.9854 266.312V264.8H62.5694V266.312H71.2814V268.304H64.8734V269.768H77.5694V271.592H64.9454V276.536H80.1614V275.048H66.8654V273.008H79.5134V268.304H73.2734V266.312H81.9854ZM92.2556 257.12H90.3116V260.984C90.3116 265.064 87.6956 269.192 84.5276 270.704L85.7276 272.312C88.2476 271.016 90.3116 268.328 91.2956 265.088C92.3276 268.16 94.3916 270.704 96.8396 271.904L98.0156 270.32C94.8236 268.88 92.2556 264.92 92.2556 260.984V257.12ZM100.272 255.248V276.824H102.24V255.248H100.272ZM122.106 267.008C122.226 266.24 122.298 265.448 122.298 264.536C122.298 263.624 122.226 262.832 122.106 262.064H125.034V267.008H122.106ZM117.69 270.224C115.986 270.224 114.882 268.04 114.882 264.536C114.882 261.056 115.986 258.872 117.69 258.872C119.418 258.872 120.498 261.056 120.498 264.536C120.498 268.04 119.418 270.224 117.69 270.224ZM125.034 260.456H121.698C120.954 258.296 119.562 257.048 117.69 257.048C114.906 257.048 113.106 259.928 113.106 264.536C113.106 269.168 114.906 272.048 117.69 272.048C119.562 272.048 120.93 270.8 121.698 268.64H125.034V275.72H126.906V255.728H125.034V260.456ZM129.258 255.248V276.776H131.13V255.248H129.258ZM146.416 260.84V262.448H150.664V268.088H152.656V255.272H150.664V260.84H146.416ZM147.616 265.736C144.496 264.632 142.384 261.92 142.384 259.16V258.416H147.112V256.832H135.616V258.416H140.416V259.16C140.416 262.256 138.208 265.16 134.992 266.336L136.024 267.896C138.544 266.936 140.536 264.92 141.448 262.424C142.384 264.632 144.232 266.408 146.632 267.272L147.616 265.736ZM145.552 275.24C142.312 275.24 140.344 274.328 140.344 272.768C140.344 271.208 142.312 270.272 145.552 270.272C148.792 270.272 150.76 271.208 150.76 272.768C150.76 274.328 148.792 275.24 145.552 275.24ZM145.552 268.76C141.136 268.76 138.376 270.224 138.376 272.768C138.376 275.312 141.136 276.776 145.552 276.776C149.968 276.776 152.728 275.312 152.728 272.768C152.728 270.224 149.968 268.76 145.552 268.76Z" fill="white"/>
<defs>
<linearGradient id="paint0_linear" x1="108" y1="0" x2="108" y2="305" gradientUnits="userSpaceOnUse">
<stop stop-color="#DA241C"/>
<stop offset="1" stop-color="#560501"/>
</linearGradient>
<linearGradient id="paint1_linear" x1="108" y1="4" x2="108" y2="301" gradientUnits="userSpaceOnUse">
<stop stop-color="#DA241C"/>
<stop offset="1" stop-color="#560501"/>
</linearGradient>
</defs>
</svg>
