<svg width="216" height="305" viewBox="0 0 216 305" fill="none" xmlns="http://www.w3.org/2000/svg">
<rect x="2" y="2" width="212" height="301" rx="18" fill="url(#paint0_linear)" stroke="#3C0300" stroke-width="4"/>
<rect x="5" y="5" width="206" height="295" rx="14" fill="url(#paint1_linear)" stroke="#FF531D" stroke-width="2"/>
<path d="M53.9537 118.416C52.6217 122.124 50.8217 126.3 49.4897 128.784L49.8857 129.072C52.6937 127.2 55.6817 124.5 58.2377 121.584C59.0297 121.692 59.5337 121.404 59.7137 121.008L53.9537 118.416ZM31.1657 118.956C32.9297 121.44 34.5857 124.932 34.8377 128.064C39.0857 131.664 43.0457 122.808 31.4897 118.74L31.1657 118.956ZM60.3977 139.044H60.0017C59.2817 141.6 58.6697 143.76 58.2737 144.516C58.0217 144.912 57.8417 145.02 57.3737 145.056C56.8697 145.092 55.9697 145.128 54.8897 145.128H51.9377C50.8577 145.128 50.6417 144.912 50.6417 144.336V132.276V131.7H60.7937C61.2977 131.7 61.6937 131.52 61.8017 131.124C60.1457 129.648 57.4457 127.596 57.4457 127.596L54.9977 130.656H46.9337V117.912C47.9057 117.768 48.1937 117.408 48.2657 116.904L42.5417 116.4V130.656H27.9257L28.2137 131.7H37.7177C37.5017 139.476 35.5937 145.524 27.8177 149.772L27.9977 150.168C38.6897 147.072 41.8577 140.736 42.5417 131.7H46.3577V145.416C46.3577 148.404 47.2217 149.196 50.8937 149.196H54.4577C60.3977 149.196 61.9457 148.368 61.9457 146.604C61.9457 145.74 61.6937 145.236 60.5417 144.768L60.3977 139.044ZM82.6449 130.728C79.9809 129.576 78.5049 128.172 78.5049 125.652C78.5049 122.808 80.7009 121.224 83.8689 121.224C84.9129 121.224 85.7409 121.368 86.5689 121.764L88.0809 127.308H90.0969L90.3489 121.656C88.4769 120.432 86.1729 119.64 83.3649 119.64C77.9289 119.64 74.0409 122.34 74.0409 127.092C74.0409 131.232 76.6329 133.572 81.1689 135.552L82.8249 136.272C85.9929 137.604 87.2169 138.864 87.2169 141.384C87.2169 144.372 84.9849 146.1 81.3129 146.1C79.8009 146.1 78.6489 145.92 77.4249 145.38L75.9129 139.584H73.8969L73.6809 145.56C75.6969 146.856 78.7929 147.684 81.7809 147.684C88.0089 147.684 91.7169 144.552 91.7169 139.836C91.7169 135.948 89.7729 133.788 84.4449 131.484L82.6449 130.728ZM99.6655 135.948C99.8815 130.692 101.862 128.496 104.13 128.496C106.326 128.496 107.874 130.368 107.874 133.284C107.874 135.12 107.478 135.948 105.822 135.948H99.6655ZM112.122 137.28C112.302 136.668 112.374 135.984 112.374 135.048C112.374 130.512 109.386 127.164 104.454 127.164C99.4135 127.164 94.6615 130.872 94.6615 137.352C94.6615 143.904 98.7655 147.576 104.418 147.576C107.982 147.576 110.718 145.884 112.158 142.932L111.438 142.428C110.178 144.12 108.63 145.2 106.038 145.2C102.546 145.2 99.8095 142.788 99.6655 137.28H112.122ZM125.018 147.576C130.526 147.576 134.738 143.796 134.738 137.316C134.738 130.836 130.238 127.164 125.018 127.164C119.762 127.164 115.298 130.872 115.298 137.316C115.298 143.76 119.438 147.576 125.018 147.576ZM125.018 146.244C122.03 146.244 120.374 143.328 120.374 137.352C120.374 131.412 122.03 128.496 125.018 128.496C127.934 128.496 129.662 131.412 129.662 137.352C129.662 143.328 127.934 146.244 125.018 146.244ZM149.288 144.336C148.316 145.056 147.668 145.416 146.732 145.416C145.292 145.416 144.392 144.588 144.392 142.572V129.252H149.18V127.74H144.428L144.536 122.052H141.44L139.892 127.704L136.544 128.064V129.252H139.64V138.684C139.64 140.124 139.604 141.132 139.604 142.284C139.604 145.956 141.44 147.576 144.752 147.576C147.2 147.576 148.892 146.64 149.936 145.02L149.288 144.336ZM165.155 143.832C164.039 144.876 162.959 145.272 161.663 145.272C158.675 145.272 156.479 143.076 156.479 137.352C156.479 131.448 158.891 129.432 161.735 129.432C162.851 129.432 163.967 129.792 165.155 130.8V143.832ZM169.907 145.668V123.528L170.015 117.84L169.511 117.516L162.239 119.064V120.072L165.335 120.324V129.684C163.859 127.92 162.131 127.164 160.151 127.164C155.219 127.164 151.439 131.052 151.439 137.568C151.439 143.76 154.967 147.576 159.683 147.576C161.987 147.576 163.823 146.64 165.263 144.984L165.515 147.396L172.607 147V145.884L169.907 145.668ZM185.909 143.328C184.253 144.696 183.353 145.236 182.165 145.236C180.437 145.236 179.285 144.228 179.285 142.104C179.285 139.872 180.365 138.216 183.209 137.1C183.821 136.848 184.829 136.56 185.909 136.236V143.328ZM193.433 144.516C192.785 145.38 192.353 145.704 191.813 145.704C191.021 145.704 190.517 145.164 190.517 143.544V134.256C190.517 129.216 188.537 127.164 183.821 127.164C178.817 127.164 175.829 129.18 175.361 132.42C175.577 133.5 176.333 134.076 177.521 134.076C178.745 134.076 179.717 133.284 179.861 131.304L180.365 128.712C181.013 128.568 181.625 128.496 182.237 128.496C184.937 128.496 185.909 129.54 185.909 133.356V135.192C184.505 135.516 183.065 135.912 181.985 136.272C176.441 138 174.785 139.764 174.785 142.752C174.785 145.776 176.981 147.576 180.005 147.576C182.669 147.576 184.073 146.46 186.053 144.372C186.521 146.316 187.781 147.54 189.977 147.54C191.885 147.54 193.145 146.856 194.081 145.056L193.433 144.516ZM111.847 172.288H103.099V173.584L106.591 174.052L101.587 193.276L95.9713 174.016L99.8593 173.584V172.288H88.6273V173.584L92.2273 174.016L86.5393 193.132L81.4993 173.944L84.9913 173.584V172.288H73.5073V173.584L76.2793 173.872L83.6233 199.144H86.2513L92.4433 178.588L98.8513 199.144H101.443L108.463 174.052L111.847 173.584V172.288ZM121.749 195.328C120.093 196.696 119.193 197.236 118.005 197.236C116.277 197.236 115.125 196.228 115.125 194.104C115.125 191.872 116.205 190.216 119.049 189.1C119.661 188.848 120.669 188.56 121.749 188.236V195.328ZM129.273 196.516C128.625 197.38 128.193 197.704 127.653 197.704C126.861 197.704 126.357 197.164 126.357 195.544V186.256C126.357 181.216 124.377 179.164 119.661 179.164C114.657 179.164 111.669 181.18 111.201 184.42C111.417 185.5 112.173 186.076 113.361 186.076C114.585 186.076 115.557 185.284 115.701 183.304L116.205 180.712C116.853 180.568 117.465 180.496 118.077 180.496C120.777 180.496 121.749 181.54 121.749 185.356V187.192C120.345 187.516 118.905 187.912 117.825 188.272C112.281 190 110.625 191.764 110.625 194.752C110.625 197.776 112.821 199.576 115.845 199.576C118.509 199.576 119.913 198.46 121.893 196.372C122.361 198.316 123.621 199.54 125.817 199.54C127.725 199.54 128.985 198.856 129.921 197.056L129.273 196.516ZM138.454 179.524L137.95 179.2L131.038 181.396V182.296L133.882 182.584C133.99 184.312 134.026 185.608 134.026 187.948V190.54C134.026 192.52 133.99 195.508 133.954 197.56L131.326 197.884V199H142.162V197.884L138.85 197.452C138.814 195.4 138.778 192.484 138.778 190.54V187.336C139.534 184.816 140.506 183.232 142.018 182.044L142.414 182.476C143.314 183.52 144.07 184.204 145.258 184.204C146.95 184.204 147.634 183.088 147.742 181.468C147.31 179.776 146.014 179.164 144.502 179.164C142.342 179.164 139.93 181.072 138.778 184.528L138.454 179.524Z" fill="#1D0000"/>
<path d="M32.1023 269.558H30.7103L29.6543 273.614C28.8623 273.926 28.1183 274.07 27.3023 274.07C23.7023 274.07 21.0623 271.382 21.0623 265.718C21.0623 260.102 23.7503 257.342 27.3023 257.342C28.0703 257.342 28.7663 257.462 29.4623 257.75L30.5183 261.854H31.8863L31.9343 257.702C30.3263 256.79 28.7663 256.358 26.8703 256.358C21.7343 256.358 17.4863 259.694 17.4863 265.694C17.4863 271.67 21.4463 275.054 26.7743 275.054C28.8623 275.054 30.5903 274.55 32.1263 273.686L32.1023 269.558ZM37.7967 265.694C37.7967 261.086 39.2847 257.342 42.5007 257.342C45.7167 257.342 47.2287 261.086 47.2287 265.694C47.2287 270.374 45.7167 274.07 42.5007 274.07C39.2847 274.07 37.7967 270.374 37.7967 265.694ZM42.5007 256.358C38.1567 256.358 34.1967 259.694 34.1967 265.694C34.1967 271.814 38.1327 275.054 42.5007 275.054C46.8687 275.054 50.7807 271.718 50.7807 265.694C50.7807 259.622 46.8687 256.358 42.5007 256.358ZM74.5054 257.654V256.79H68.7454L63.5614 270.326L58.2334 256.79H52.3774V257.654L54.8974 257.966L54.8014 273.47L52.2574 273.758V274.598H58.4974V273.758L55.9774 273.47V265.814C55.9774 264.806 55.9294 261.614 55.8574 259.214L61.8814 274.598H63.0574L68.9134 259.118L68.8654 266.678C68.8174 268.766 68.8654 271.166 68.7934 273.542L66.5854 273.758V274.598H74.5054V273.758L72.2014 273.542C72.1774 271.142 72.1774 268.718 72.1774 266.294V265.118C72.1774 262.718 72.1774 260.294 72.2014 257.87L74.5054 257.654ZM84.6803 257.654V256.79H76.6643V257.654L78.9443 257.87C78.9923 260.294 78.9923 262.718 78.9923 265.118V266.294C78.9923 268.742 78.9923 271.166 78.9443 273.542L76.6643 273.758V274.598H84.6803V273.758L82.4003 273.542C82.3283 271.142 82.3283 268.694 82.3283 266.294V265.118C82.3283 262.67 82.3283 260.27 82.4003 257.87L84.6803 257.654ZM104.429 256.79H97.9487V257.654L101.045 257.99L101.117 269.846L91.7087 256.79H86.6447V257.654L88.4687 257.87L88.8527 258.374L88.7327 273.47L86.5007 273.758V274.598H92.9807V273.758L89.9087 273.446L89.8367 259.766L100.445 274.694H102.101L102.221 257.966L104.429 257.654V256.79ZM122.713 265.958H115.177V266.798L117.817 267.062C117.865 268.79 117.889 270.47 117.889 272.222V273.782C117.193 273.974 116.497 274.07 115.705 274.07C112.153 274.07 109.609 270.926 109.609 265.694C109.609 260.174 112.249 257.342 115.849 257.342C116.713 257.342 117.457 257.486 118.177 257.846L119.185 261.83H120.601L120.649 257.678C119.161 256.814 117.529 256.358 115.417 256.358C109.849 256.358 106.033 260.03 106.033 265.67C106.033 271.406 109.753 275.054 115.273 275.054C117.505 275.054 119.233 274.526 121.081 273.47V272.294C121.081 270.398 121.105 268.67 121.129 266.99L122.713 266.798V265.958ZM136.245 263.75C134.469 262.982 133.485 262.046 133.485 260.366C133.485 258.47 134.949 257.414 137.061 257.414C137.757 257.414 138.309 257.51 138.861 257.774L139.869 261.47H141.213L141.381 257.702C140.133 256.886 138.597 256.358 136.725 256.358C133.101 256.358 130.509 258.158 130.509 261.326C130.509 264.086 132.237 265.646 135.261 266.966L136.365 267.446C138.477 268.334 139.293 269.174 139.293 270.854C139.293 272.846 137.805 273.998 135.357 273.998C134.349 273.998 133.581 273.878 132.765 273.518L131.757 269.654H130.413L130.269 273.638C131.613 274.502 133.677 275.054 135.669 275.054C139.821 275.054 142.293 272.966 142.293 269.822C142.293 267.23 140.997 265.79 137.445 264.254L136.245 263.75ZM148 265.694C148 261.086 149.488 257.342 152.704 257.342C155.92 257.342 157.432 261.086 157.432 265.694C157.432 270.374 155.92 274.07 152.704 274.07C149.488 274.07 148 270.374 148 265.694ZM152.704 256.358C148.36 256.358 144.4 259.694 144.4 265.694C144.4 271.814 148.336 275.054 152.704 275.054C157.072 275.054 160.984 271.718 160.984 265.694C160.984 259.622 157.072 256.358 152.704 256.358ZM167.219 265.694C167.219 261.086 168.707 257.342 171.923 257.342C175.139 257.342 176.651 261.086 176.651 265.694C176.651 270.374 175.139 274.07 171.923 274.07C168.707 274.07 167.219 270.374 167.219 265.694ZM171.923 256.358C167.579 256.358 163.619 259.694 163.619 265.694C163.619 271.814 167.555 275.054 171.923 275.054C176.291 275.054 180.203 271.718 180.203 265.694C180.203 259.622 176.291 256.358 171.923 256.358ZM199.655 256.79H193.175V257.654L196.271 257.99L196.343 269.846L186.935 256.79H181.871V257.654L183.695 257.87L184.079 258.374L183.959 273.47L181.727 273.758V274.598H188.207V273.758L185.135 273.446L185.063 259.766L195.671 274.694H197.327L197.447 257.966L199.655 257.654V256.79Z" fill="white"/>
<defs>
<linearGradient id="paint0_linear" x1="108" y1="0" x2="108" y2="305" gradientUnits="userSpaceOnUse">
<stop stop-color="#DA241C"/>
<stop offset="1" stop-color="#560501"/>
</linearGradient>
<linearGradient id="paint1_linear" x1="108" y1="4" x2="108" y2="301" gradientUnits="userSpaceOnUse">
<stop stop-color="#DA241C"/>
<stop offset="1" stop-color="#560501"/>
</linearGradient>
</defs>
</svg>
