<svg width="216" height="305" viewBox="0 0 216 305" fill="none" xmlns="http://www.w3.org/2000/svg">
<rect x="2" y="2" width="212" height="301" rx="18" fill="url(#paint0_linear)" stroke="#3C0300" stroke-width="4"/>
<rect x="5" y="5" width="206" height="295" rx="14" fill="url(#paint1_linear)" stroke="#FF531D" stroke-width="2"/>
<path d="M53.9537 118.416C52.6217 122.124 50.8217 126.3 49.4897 128.784L49.8857 129.072C52.6937 127.2 55.6817 124.5 58.2377 121.584C59.0297 121.692 59.5337 121.404 59.7137 121.008L53.9537 118.416ZM31.1657 118.956C32.9297 121.44 34.5857 124.932 34.8377 128.064C39.0857 131.664 43.0457 122.808 31.4897 118.74L31.1657 118.956ZM60.3977 139.044H60.0017C59.2817 141.6 58.6697 143.76 58.2737 144.516C58.0217 144.912 57.8417 145.02 57.3737 145.056C56.8697 145.092 55.9697 145.128 54.8897 145.128H51.9377C50.8577 145.128 50.6417 144.912 50.6417 144.336V132.276V131.7H60.7937C61.2977 131.7 61.6937 131.52 61.8017 131.124C60.1457 129.648 57.4457 127.596 57.4457 127.596L54.9977 130.656H46.9337V117.912C47.9057 117.768 48.1937 117.408 48.2657 116.904L42.5417 116.4V130.656H27.9257L28.2137 131.7H37.7177C37.5017 139.476 35.5937 145.524 27.8177 149.772L27.9977 150.168C38.6897 147.072 41.8577 140.736 42.5417 131.7H46.3577V145.416C46.3577 148.404 47.2217 149.196 50.8937 149.196H54.4577C60.3977 149.196 61.9457 148.368 61.9457 146.604C61.9457 145.74 61.6937 145.236 60.5417 144.768L60.3977 139.044ZM82.6449 130.728C79.9809 129.576 78.5049 128.172 78.5049 125.652C78.5049 122.808 80.7009 121.224 83.8689 121.224C84.9129 121.224 85.7409 121.368 86.5689 121.764L88.0809 127.308H90.0969L90.3489 121.656C88.4769 120.432 86.1729 119.64 83.3649 119.64C77.9289 119.64 74.0409 122.34 74.0409 127.092C74.0409 131.232 76.6329 133.572 81.1689 135.552L82.8249 136.272C85.9929 137.604 87.2169 138.864 87.2169 141.384C87.2169 144.372 84.9849 146.1 81.3129 146.1C79.8009 146.1 78.6489 145.92 77.4249 145.38L75.9129 139.584H73.8969L73.6809 145.56C75.6969 146.856 78.7929 147.684 81.7809 147.684C88.0089 147.684 91.7169 144.552 91.7169 139.836C91.7169 135.948 89.7729 133.788 84.4449 131.484L82.6449 130.728ZM99.6655 135.948C99.8815 130.692 101.862 128.496 104.13 128.496C106.326 128.496 107.874 130.368 107.874 133.284C107.874 135.12 107.478 135.948 105.822 135.948H99.6655ZM112.122 137.28C112.302 136.668 112.374 135.984 112.374 135.048C112.374 130.512 109.386 127.164 104.454 127.164C99.4135 127.164 94.6615 130.872 94.6615 137.352C94.6615 143.904 98.7655 147.576 104.418 147.576C107.982 147.576 110.718 145.884 112.158 142.932L111.438 142.428C110.178 144.12 108.63 145.2 106.038 145.2C102.546 145.2 99.8095 142.788 99.6655 137.28H112.122ZM125.018 147.576C130.526 147.576 134.738 143.796 134.738 137.316C134.738 130.836 130.238 127.164 125.018 127.164C119.762 127.164 115.298 130.872 115.298 137.316C115.298 143.76 119.438 147.576 125.018 147.576ZM125.018 146.244C122.03 146.244 120.374 143.328 120.374 137.352C120.374 131.412 122.03 128.496 125.018 128.496C127.934 128.496 129.662 131.412 129.662 137.352C129.662 143.328 127.934 146.244 125.018 146.244ZM149.288 144.336C148.316 145.056 147.668 145.416 146.732 145.416C145.292 145.416 144.392 144.588 144.392 142.572V129.252H149.18V127.74H144.428L144.536 122.052H141.44L139.892 127.704L136.544 128.064V129.252H139.64V138.684C139.64 140.124 139.604 141.132 139.604 142.284C139.604 145.956 141.44 147.576 144.752 147.576C147.2 147.576 148.892 146.64 149.936 145.02L149.288 144.336ZM165.155 143.832C164.039 144.876 162.959 145.272 161.663 145.272C158.675 145.272 156.479 143.076 156.479 137.352C156.479 131.448 158.891 129.432 161.735 129.432C162.851 129.432 163.967 129.792 165.155 130.8V143.832ZM169.907 145.668V123.528L170.015 117.84L169.511 117.516L162.239 119.064V120.072L165.335 120.324V129.684C163.859 127.92 162.131 127.164 160.151 127.164C155.219 127.164 151.439 131.052 151.439 137.568C151.439 143.76 154.967 147.576 159.683 147.576C161.987 147.576 163.823 146.64 165.263 144.984L165.515 147.396L172.607 147V145.884L169.907 145.668ZM185.909 143.328C184.253 144.696 183.353 145.236 182.165 145.236C180.437 145.236 179.285 144.228 179.285 142.104C179.285 139.872 180.365 138.216 183.209 137.1C183.821 136.848 184.829 136.56 185.909 136.236V143.328ZM193.433 144.516C192.785 145.38 192.353 145.704 191.813 145.704C191.021 145.704 190.517 145.164 190.517 143.544V134.256C190.517 129.216 188.537 127.164 183.821 127.164C178.817 127.164 175.829 129.18 175.361 132.42C175.577 133.5 176.333 134.076 177.521 134.076C178.745 134.076 179.717 133.284 179.861 131.304L180.365 128.712C181.013 128.568 181.625 128.496 182.237 128.496C184.937 128.496 185.909 129.54 185.909 133.356V135.192C184.505 135.516 183.065 135.912 181.985 136.272C176.441 138 174.785 139.764 174.785 142.752C174.785 145.776 176.981 147.576 180.005 147.576C182.669 147.576 184.073 146.46 186.053 144.372C186.521 146.316 187.781 147.54 189.977 147.54C191.885 147.54 193.145 146.856 194.081 145.056L193.433 144.516ZM111.847 172.288H103.099V173.584L106.591 174.052L101.587 193.276L95.9713 174.016L99.8593 173.584V172.288H88.6273V173.584L92.2273 174.016L86.5393 193.132L81.4993 173.944L84.9913 173.584V172.288H73.5073V173.584L76.2793 173.872L83.6233 199.144H86.2513L92.4433 178.588L98.8513 199.144H101.443L108.463 174.052L111.847 173.584V172.288ZM121.749 195.328C120.093 196.696 119.193 197.236 118.005 197.236C116.277 197.236 115.125 196.228 115.125 194.104C115.125 191.872 116.205 190.216 119.049 189.1C119.661 188.848 120.669 188.56 121.749 188.236V195.328ZM129.273 196.516C128.625 197.38 128.193 197.704 127.653 197.704C126.861 197.704 126.357 197.164 126.357 195.544V186.256C126.357 181.216 124.377 179.164 119.661 179.164C114.657 179.164 111.669 181.18 111.201 184.42C111.417 185.5 112.173 186.076 113.361 186.076C114.585 186.076 115.557 185.284 115.701 183.304L116.205 180.712C116.853 180.568 117.465 180.496 118.077 180.496C120.777 180.496 121.749 181.54 121.749 185.356V187.192C120.345 187.516 118.905 187.912 117.825 188.272C112.281 190 110.625 191.764 110.625 194.752C110.625 197.776 112.821 199.576 115.845 199.576C118.509 199.576 119.913 198.46 121.893 196.372C122.361 198.316 123.621 199.54 125.817 199.54C127.725 199.54 128.985 198.856 129.921 197.056L129.273 196.516ZM138.454 179.524L137.95 179.2L131.038 181.396V182.296L133.882 182.584C133.99 184.312 134.026 185.608 134.026 187.948V190.54C134.026 192.52 133.99 195.508 133.954 197.56L131.326 197.884V199H142.162V197.884L138.85 197.452C138.814 195.4 138.778 192.484 138.778 190.54V187.336C139.534 184.816 140.506 183.232 142.018 182.044L142.414 182.476C143.314 183.52 144.07 184.204 145.258 184.204C146.95 184.204 147.634 183.088 147.742 181.468C147.31 179.776 146.014 179.164 144.502 179.164C142.342 179.164 139.93 181.072 138.778 184.528L138.454 179.524Z" fill="#1D0000"/>
<path d="M75.6 262.526C75.576 269.534 76.008 273.662 69.144 276.494L69.36 276.854C73.704 275.726 75.888 274.19 77.016 272.126C78.528 273.23 80.4 275.006 81.336 276.47C84.264 277.574 85.176 272.198 77.232 271.742C78.216 269.558 78.216 266.87 78.288 263.486C78.816 263.414 79.032 263.198 79.104 262.838L75.6 262.526ZM74.16 260.462L71.544 259.382V263.246L69.72 261.518L68.448 262.814H66.768C67.56 262.502 67.896 261.374 67.08 260.318C68.376 259.406 69.72 258.278 70.56 257.366C71.064 257.318 71.328 257.246 71.544 257.054L71.208 256.742H75.312C75.264 257.966 75.192 259.43 75.12 260.462H74.16ZM79.536 256.046H70.896L71.04 256.574L69.048 254.678L67.584 256.118H61.8L62.016 256.79H67.632C67.296 257.654 66.816 258.686 66.312 259.622C65.592 259.142 64.512 258.734 62.952 258.59L62.736 258.782C63.912 259.646 65.136 261.254 65.448 262.622C65.592 262.718 65.712 262.766 65.856 262.814H61.416L61.632 263.486H64.608V273.254C64.608 273.542 64.512 273.686 64.152 273.686C63.672 273.686 61.632 273.542 61.632 273.542V273.878C62.688 274.046 63.168 274.358 63.456 274.742C63.792 275.15 63.888 275.822 63.912 276.662C66.84 276.422 67.248 275.15 67.248 273.326V263.486H68.592C68.4 264.494 68.112 265.862 67.896 266.678L68.16 266.846C69.096 266.102 70.344 264.83 71.064 263.966C71.256 263.942 71.424 263.942 71.544 263.918V272.006H71.928C72.984 272.006 74.04 271.43 74.04 271.166V261.134H79.92V271.334H80.304C81.144 271.334 82.392 270.806 82.416 270.638V261.47C82.824 261.398 83.112 261.206 83.256 261.038L80.856 259.214L79.704 260.462H75.912C76.728 259.43 77.616 258.014 78.312 256.742H82.968C83.304 256.742 83.568 256.622 83.616 256.358C82.632 255.446 80.976 254.222 80.976 254.222L79.536 256.046ZM87.384 254.582C88.488 255.686 89.856 257.486 90.384 258.974C93.144 260.558 94.872 255.254 87.6 254.414L87.384 254.582ZM91.512 261.974C92.04 261.878 92.304 261.686 92.424 261.518L90.096 259.574L88.824 260.846H85.224L85.44 261.542H88.8V271.382C88.8 271.91 88.632 272.15 87.624 272.726L89.616 275.702C89.88 275.534 90.168 275.198 90.36 274.718C92.736 272.726 94.56 270.902 95.544 269.87L95.424 269.63C94.056 270.23 92.712 270.83 91.512 271.334V261.974ZM103.584 263.054H101.544V255.398C102.216 255.302 102.384 255.062 102.432 254.726L98.664 254.342V263.054H93.12L93.288 263.75H98.664V276.638H99.216C100.296 276.638 101.544 275.942 101.544 275.63V263.75H107.256C107.616 263.75 107.88 263.63 107.952 263.366C106.896 262.382 105.12 260.99 105.12 260.99L103.584 263.054ZM126.84 274.766H121.2V264.302H129.288C129.624 264.302 129.864 264.182 129.936 263.918C128.784 262.886 126.864 261.422 126.864 261.422L125.136 263.63H121.2V255.59C121.848 255.494 122.016 255.254 122.088 254.918L118.104 254.534V274.766H109.176L109.368 275.438H131.04C131.4 275.438 131.664 275.318 131.736 275.054C130.536 274.046 128.592 272.534 128.592 272.534L126.84 274.766ZM141.552 254.318C142.368 255.182 143.328 256.526 143.616 257.822C146.448 259.55 148.704 254.246 141.72 254.174L141.552 254.318ZM151.104 258.278H133.2L133.392 258.95H142.944V262.166H139.2L136.176 260.942V273.422H136.584C137.784 273.422 139.008 272.798 139.008 272.486V262.838H142.944V276.782H143.496C145.008 276.782 145.896 276.182 145.92 275.99V262.838H149.832V270.134C149.832 270.422 149.712 270.566 149.352 270.566C148.776 270.566 146.832 270.446 146.832 270.446V270.782C147.888 270.95 148.32 271.286 148.656 271.67C148.968 272.102 149.088 272.75 149.136 273.638C152.28 273.35 152.688 272.27 152.688 270.422V263.318C153.192 263.222 153.504 263.006 153.672 262.814L150.864 260.702L149.592 262.166H145.92V258.95H155.136C155.496 258.95 155.736 258.83 155.784 258.566C154.68 257.558 152.784 256.142 152.784 256.142L151.104 258.278Z" fill="white"/>
<defs>
<linearGradient id="paint0_linear" x1="108" y1="0" x2="108" y2="305" gradientUnits="userSpaceOnUse">
<stop stop-color="#DA241C"/>
<stop offset="1" stop-color="#560501"/>
</linearGradient>
<linearGradient id="paint1_linear" x1="108" y1="4" x2="108" y2="301" gradientUnits="userSpaceOnUse">
<stop stop-color="#DA241C"/>
<stop offset="1" stop-color="#560501"/>
</linearGradient>
</defs>
</svg>
