<svg width="216" height="305" viewBox="0 0 216 305" fill="none" xmlns="http://www.w3.org/2000/svg">
<rect x="2" y="2" width="212" height="301" rx="18" fill="url(#paint0_linear)" stroke="#3C0300" stroke-width="4"/>
<rect x="5" y="5" width="206" height="295" rx="14" fill="url(#paint1_linear)" stroke="#FF531D" stroke-width="2"/>
<path d="M58.4185 113.416C57.0865 117.124 55.2865 121.3 53.9545 123.784L54.3505 124.072C57.1585 122.2 60.1465 119.5 62.7025 116.584C63.4945 116.692 63.9985 116.404 64.1785 116.008L58.4185 113.416ZM35.6305 113.956C37.3945 116.44 39.0505 119.932 39.3025 123.064C43.5505 126.664 47.5105 117.808 35.9545 113.74L35.6305 113.956ZM64.8625 134.044H64.4665C63.7465 136.6 63.1345 138.76 62.7385 139.516C62.4865 139.912 62.3065 140.02 61.8385 140.056C61.3345 140.092 60.4345 140.128 59.3545 140.128H56.4025C55.3225 140.128 55.1065 139.912 55.1065 139.336V127.276V126.7H65.2585C65.7625 126.7 66.1585 126.52 66.2665 126.124C64.6105 124.648 61.9105 122.596 61.9105 122.596L59.4625 125.656H51.3985V112.912C52.3705 112.768 52.6585 112.408 52.7305 111.904L47.0065 111.4V125.656H32.3905L32.6785 126.7H42.1825C41.9665 134.476 40.0585 140.524 32.2825 144.772L32.4625 145.168C43.1545 142.072 46.3225 135.736 47.0065 126.7H50.8225V140.416C50.8225 143.404 51.6865 144.196 55.3585 144.196H58.9225C64.8625 144.196 66.4105 143.368 66.4105 141.604C66.4105 140.74 66.1585 140.236 65.0065 139.768L64.8625 134.044ZM110.798 116.584V115.288H102.158L94.3817 135.592L86.3897 115.288H77.6057V116.584L81.3857 117.052L81.2417 140.308L77.4257 140.74V142H86.7857V140.74L83.0057 140.308V128.824C83.0057 127.312 82.9337 122.524 82.8257 118.924L91.8617 142H93.6257L102.41 118.78L102.338 130.12C102.266 133.252 102.338 136.852 102.23 140.416L98.9177 140.74V142H110.798V140.74L107.342 140.416C107.306 136.816 107.306 133.18 107.306 129.544V127.78C107.306 124.18 107.306 120.544 107.342 116.908L110.798 116.584ZM124.315 138.328C122.659 139.696 121.759 140.236 120.571 140.236C118.843 140.236 117.691 139.228 117.691 137.104C117.691 134.872 118.771 133.216 121.615 132.1C122.227 131.848 123.235 131.56 124.315 131.236V138.328ZM131.839 139.516C131.191 140.38 130.759 140.704 130.219 140.704C129.427 140.704 128.923 140.164 128.923 138.544V129.256C128.923 124.216 126.943 122.164 122.227 122.164C117.223 122.164 114.235 124.18 113.767 127.42C113.983 128.5 114.739 129.076 115.927 129.076C117.151 129.076 118.123 128.284 118.267 126.304L118.771 123.712C119.419 123.568 120.031 123.496 120.643 123.496C123.343 123.496 124.315 124.54 124.315 128.356V130.192C122.911 130.516 121.471 130.912 120.391 131.272C114.847 133 113.191 134.764 113.191 137.752C113.191 140.776 115.387 142.576 118.411 142.576C121.075 142.576 122.479 141.46 124.459 139.372C124.927 141.316 126.187 142.54 128.383 142.54C130.291 142.54 131.551 141.856 132.487 140.056L131.839 139.516ZM145.773 139.336C144.801 140.056 144.153 140.416 143.217 140.416C141.777 140.416 140.877 139.588 140.877 137.572V124.252H145.665V122.74H140.913L141.021 117.052H137.925L136.377 122.704L133.029 123.064V124.252H136.125V133.684C136.125 135.124 136.089 136.132 136.089 137.284C136.089 140.956 137.925 142.576 141.237 142.576C143.685 142.576 145.377 141.64 146.421 140.02L145.773 139.336ZM156.167 134.188C153.935 134.188 152.711 132.1 152.711 128.788C152.711 125.44 154.043 123.352 156.275 123.352C158.471 123.352 159.803 125.404 159.803 128.68C159.803 132.064 158.471 134.188 156.167 134.188ZM159.515 142.972C162.107 142.972 162.971 144.34 162.971 145.996C162.971 148.192 160.631 149.848 155.987 149.848C152.711 149.848 150.659 148.444 150.659 145.78C150.659 144.52 151.055 143.656 151.883 142.684C152.783 142.9 153.683 142.972 155.339 142.972H159.515ZM167.075 122.56L166.463 122.164L161.891 123.856C160.595 122.776 158.687 122.164 156.275 122.164C151.199 122.164 148.427 124.828 148.427 128.716C148.427 131.2 149.507 133.18 151.523 134.332C149.435 136.168 148.607 137.464 148.607 139.12C148.607 140.776 149.579 141.748 151.199 142.36C148.679 143.44 147.527 144.844 147.527 146.5C147.527 149.2 149.831 151.36 155.987 151.36C163.079 151.36 166.787 148.048 166.787 144.268C166.787 141.028 164.699 138.976 159.551 138.976H154.259C152.243 138.976 151.523 138.292 151.523 136.996C151.523 136.168 151.775 135.484 152.315 134.728C153.395 135.16 154.691 135.412 156.203 135.412C161.243 135.412 164.051 132.64 164.051 128.716C164.051 127.24 163.655 125.908 162.863 124.864L167.075 125.188V122.56ZM178.526 142.576C184.034 142.576 188.246 138.796 188.246 132.316C188.246 125.836 183.746 122.164 178.526 122.164C173.27 122.164 168.806 125.872 168.806 132.316C168.806 138.76 172.946 142.576 178.526 142.576ZM178.526 141.244C175.538 141.244 173.882 138.328 173.882 132.352C173.882 126.412 175.538 123.496 178.526 123.496C181.442 123.496 183.17 126.412 183.17 132.352C183.17 138.328 181.442 141.244 178.526 141.244ZM70.3122 192.236C70.2402 190.004 70.2042 187.772 70.2042 185.54V173.084L70.3482 167.288L69.8442 166.892L60.7722 169.052V170.384L65.4522 169.916V185.54C65.4522 187.772 65.4162 190.004 65.3442 192.236L60.0162 192.884V194H75.4602V192.884L70.3122 192.236ZM98.2468 194.576C103.755 194.576 107.967 190.796 107.967 184.316C107.967 177.836 103.467 174.164 98.2468 174.164C92.9908 174.164 88.5268 177.872 88.5268 184.316C88.5268 190.76 92.6668 194.576 98.2468 194.576ZM98.2468 193.244C95.2588 193.244 93.6028 190.328 93.6028 184.352C93.6028 178.412 95.2588 175.496 98.2468 175.496C101.163 175.496 102.891 178.412 102.891 184.352C102.891 190.328 101.163 193.244 98.2468 193.244ZM130.542 192.596C130.506 190.544 130.47 187.592 130.47 185.54V181.148C130.47 176.324 128.346 174.164 124.962 174.164C122.622 174.164 120.39 175.172 118.122 177.8L117.87 174.524L117.366 174.2L110.454 176.396V177.296L113.298 177.584C113.406 179.312 113.442 180.608 113.442 182.948V185.54C113.442 187.52 113.406 190.508 113.37 192.56L110.742 192.884V194H120.606V192.884L118.266 192.596C118.23 190.544 118.194 187.52 118.194 185.54V179.06C119.958 177.44 121.578 176.72 122.91 176.72C124.854 176.72 125.754 177.8 125.754 180.932V185.54C125.754 187.592 125.718 190.544 125.646 192.56L123.126 192.884V194H132.99V192.884L130.542 192.596ZM156.304 192.236C156.232 190.004 156.196 187.772 156.196 185.54V173.084L156.34 167.288L155.836 166.892L146.764 169.052V170.384L151.444 169.916V185.54C151.444 187.772 151.408 190.004 151.336 192.236L146.008 192.884V194H161.452V192.884L156.304 192.236Z" fill="#1D0000"/>
<path d="M32.1023 265.274H30.7103L29.6543 269.33C28.8623 269.642 28.1183 269.786 27.3023 269.786C23.7023 269.786 21.0623 267.098 21.0623 261.434C21.0623 255.818 23.7503 253.058 27.3023 253.058C28.0703 253.058 28.7663 253.178 29.4623 253.466L30.5183 257.57H31.8863L31.9343 253.418C30.3263 252.506 28.7663 252.074 26.8703 252.074C21.7343 252.074 17.4863 255.41 17.4863 261.41C17.4863 267.386 21.4463 270.77 26.7743 270.77C28.8623 270.77 30.5903 270.266 32.1263 269.402L32.1023 265.274ZM37.7967 261.41C37.7967 256.802 39.2847 253.058 42.5007 253.058C45.7167 253.058 47.2287 256.802 47.2287 261.41C47.2287 266.09 45.7167 269.786 42.5007 269.786C39.2847 269.786 37.7967 266.09 37.7967 261.41ZM42.5007 252.074C38.1567 252.074 34.1967 255.41 34.1967 261.41C34.1967 267.53 38.1327 270.77 42.5007 270.77C46.8687 270.77 50.7807 267.434 50.7807 261.41C50.7807 255.338 46.8687 252.074 42.5007 252.074ZM74.5054 253.37V252.506H68.7454L63.5614 266.042L58.2334 252.506H52.3774V253.37L54.8974 253.682L54.8014 269.186L52.2574 269.474V270.314H58.4974V269.474L55.9774 269.186V261.53C55.9774 260.522 55.9294 257.33 55.8574 254.93L61.8814 270.314H63.0574L68.9134 254.834L68.8654 262.394C68.8174 264.482 68.8654 266.882 68.7934 269.258L66.5854 269.474V270.314H74.5054V269.474L72.2014 269.258C72.1774 266.858 72.1774 264.434 72.1774 262.01V260.834C72.1774 258.434 72.1774 256.01 72.2014 253.586L74.5054 253.37ZM84.6803 253.37V252.506H76.6643V253.37L78.9443 253.586C78.9923 256.01 78.9923 258.434 78.9923 260.834V262.01C78.9923 264.458 78.9923 266.882 78.9443 269.258L76.6643 269.474V270.314H84.6803V269.474L82.4003 269.258C82.3283 266.858 82.3283 264.41 82.3283 262.01V260.834C82.3283 258.386 82.3283 255.986 82.4003 253.586L84.6803 253.37ZM104.429 252.506H97.9487V253.37L101.045 253.706L101.117 265.562L91.7087 252.506H86.6447V253.37L88.4687 253.586L88.8527 254.09L88.7327 269.186L86.5007 269.474V270.314H92.9807V269.474L89.9087 269.162L89.8367 255.482L100.445 270.41H102.101L102.221 253.682L104.429 253.37V252.506ZM122.713 261.674H115.177V262.514L117.817 262.778C117.865 264.506 117.889 266.186 117.889 267.938V269.498C117.193 269.69 116.497 269.786 115.705 269.786C112.153 269.786 109.609 266.642 109.609 261.41C109.609 255.89 112.249 253.058 115.849 253.058C116.713 253.058 117.457 253.202 118.177 253.562L119.185 257.546H120.601L120.649 253.394C119.161 252.53 117.529 252.074 115.417 252.074C109.849 252.074 106.033 255.746 106.033 261.386C106.033 267.122 109.753 270.77 115.273 270.77C117.505 270.77 119.233 270.242 121.081 269.186V268.01C121.081 266.114 121.105 264.386 121.129 262.706L122.713 262.514V261.674ZM136.245 259.466C134.469 258.698 133.485 257.762 133.485 256.082C133.485 254.186 134.949 253.13 137.061 253.13C137.757 253.13 138.309 253.226 138.861 253.49L139.869 257.186H141.213L141.381 253.418C140.133 252.602 138.597 252.074 136.725 252.074C133.101 252.074 130.509 253.874 130.509 257.042C130.509 259.802 132.237 261.362 135.261 262.682L136.365 263.162C138.477 264.05 139.293 264.89 139.293 266.57C139.293 268.562 137.805 269.714 135.357 269.714C134.349 269.714 133.581 269.594 132.765 269.234L131.757 265.37H130.413L130.269 269.354C131.613 270.218 133.677 270.77 135.669 270.77C139.821 270.77 142.293 268.682 142.293 265.538C142.293 262.946 140.997 261.506 137.445 259.97L136.245 259.466ZM148 261.41C148 256.802 149.488 253.058 152.704 253.058C155.92 253.058 157.432 256.802 157.432 261.41C157.432 266.09 155.92 269.786 152.704 269.786C149.488 269.786 148 266.09 148 261.41ZM152.704 252.074C148.36 252.074 144.4 255.41 144.4 261.41C144.4 267.53 148.336 270.77 152.704 270.77C157.072 270.77 160.984 267.434 160.984 261.41C160.984 255.338 157.072 252.074 152.704 252.074ZM167.219 261.41C167.219 256.802 168.707 253.058 171.923 253.058C175.139 253.058 176.651 256.802 176.651 261.41C176.651 266.09 175.139 269.786 171.923 269.786C168.707 269.786 167.219 266.09 167.219 261.41ZM171.923 252.074C167.579 252.074 163.619 255.41 163.619 261.41C163.619 267.53 167.555 270.77 171.923 270.77C176.291 270.77 180.203 267.434 180.203 261.41C180.203 255.338 176.291 252.074 171.923 252.074ZM199.655 252.506H193.175V253.37L196.271 253.706L196.343 265.562L186.935 252.506H181.871V253.37L183.695 253.586L184.079 254.09L183.959 269.186L181.727 269.474V270.314H188.207V269.474L185.135 269.162L185.063 255.482L195.671 270.41H197.327L197.447 253.682L199.655 253.37V252.506Z" fill="white"/>
<defs>
<linearGradient id="paint0_linear" x1="108" y1="0" x2="108" y2="305" gradientUnits="userSpaceOnUse">
<stop stop-color="#DA241C"/>
<stop offset="1" stop-color="#560501"/>
</linearGradient>
<linearGradient id="paint1_linear" x1="108" y1="4" x2="108" y2="301" gradientUnits="userSpaceOnUse">
<stop stop-color="#DA241C"/>
<stop offset="1" stop-color="#560501"/>
</linearGradient>
</defs>
</svg>
