<svg width="216" height="305" viewBox="0 0 216 305" fill="none" xmlns="http://www.w3.org/2000/svg">
<rect x="2" y="2" width="212" height="301" rx="18" fill="url(#paint0_linear)" stroke="#3C0300" stroke-width="4"/>
<rect x="5" y="5" width="206" height="295" rx="14" fill="url(#paint1_linear)" stroke="#FF531D" stroke-width="2"/>
<path d="M58.4185 113.416C57.0865 117.124 55.2865 121.3 53.9545 123.784L54.3505 124.072C57.1585 122.2 60.1465 119.5 62.7025 116.584C63.4945 116.692 63.9985 116.404 64.1785 116.008L58.4185 113.416ZM35.6305 113.956C37.3945 116.44 39.0505 119.932 39.3025 123.064C43.5505 126.664 47.5105 117.808 35.9545 113.74L35.6305 113.956ZM64.8625 134.044H64.4665C63.7465 136.6 63.1345 138.76 62.7385 139.516C62.4865 139.912 62.3065 140.02 61.8385 140.056C61.3345 140.092 60.4345 140.128 59.3545 140.128H56.4025C55.3225 140.128 55.1065 139.912 55.1065 139.336V127.276V126.7H65.2585C65.7625 126.7 66.1585 126.52 66.2665 126.124C64.6105 124.648 61.9105 122.596 61.9105 122.596L59.4625 125.656H51.3985V112.912C52.3705 112.768 52.6585 112.408 52.7305 111.904L47.0065 111.4V125.656H32.3905L32.6785 126.7H42.1825C41.9665 134.476 40.0585 140.524 32.2825 144.772L32.4625 145.168C43.1545 142.072 46.3225 135.736 47.0065 126.7H50.8225V140.416C50.8225 143.404 51.6865 144.196 55.3585 144.196H58.9225C64.8625 144.196 66.4105 143.368 66.4105 141.604C66.4105 140.74 66.1585 140.236 65.0065 139.768L64.8625 134.044ZM110.798 116.584V115.288H102.158L94.3817 135.592L86.3897 115.288H77.6057V116.584L81.3857 117.052L81.2417 140.308L77.4257 140.74V142H86.7857V140.74L83.0057 140.308V128.824C83.0057 127.312 82.9337 122.524 82.8257 118.924L91.8617 142H93.6257L102.41 118.78L102.338 130.12C102.266 133.252 102.338 136.852 102.23 140.416L98.9177 140.74V142H110.798V140.74L107.342 140.416C107.306 136.816 107.306 133.18 107.306 129.544V127.78C107.306 124.18 107.306 120.544 107.342 116.908L110.798 116.584ZM124.315 138.328C122.659 139.696 121.759 140.236 120.571 140.236C118.843 140.236 117.691 139.228 117.691 137.104C117.691 134.872 118.771 133.216 121.615 132.1C122.227 131.848 123.235 131.56 124.315 131.236V138.328ZM131.839 139.516C131.191 140.38 130.759 140.704 130.219 140.704C129.427 140.704 128.923 140.164 128.923 138.544V129.256C128.923 124.216 126.943 122.164 122.227 122.164C117.223 122.164 114.235 124.18 113.767 127.42C113.983 128.5 114.739 129.076 115.927 129.076C117.151 129.076 118.123 128.284 118.267 126.304L118.771 123.712C119.419 123.568 120.031 123.496 120.643 123.496C123.343 123.496 124.315 124.54 124.315 128.356V130.192C122.911 130.516 121.471 130.912 120.391 131.272C114.847 133 113.191 134.764 113.191 137.752C113.191 140.776 115.387 142.576 118.411 142.576C121.075 142.576 122.479 141.46 124.459 139.372C124.927 141.316 126.187 142.54 128.383 142.54C130.291 142.54 131.551 141.856 132.487 140.056L131.839 139.516ZM145.773 139.336C144.801 140.056 144.153 140.416 143.217 140.416C141.777 140.416 140.877 139.588 140.877 137.572V124.252H145.665V122.74H140.913L141.021 117.052H137.925L136.377 122.704L133.029 123.064V124.252H136.125V133.684C136.125 135.124 136.089 136.132 136.089 137.284C136.089 140.956 137.925 142.576 141.237 142.576C143.685 142.576 145.377 141.64 146.421 140.02L145.773 139.336ZM156.167 134.188C153.935 134.188 152.711 132.1 152.711 128.788C152.711 125.44 154.043 123.352 156.275 123.352C158.471 123.352 159.803 125.404 159.803 128.68C159.803 132.064 158.471 134.188 156.167 134.188ZM159.515 142.972C162.107 142.972 162.971 144.34 162.971 145.996C162.971 148.192 160.631 149.848 155.987 149.848C152.711 149.848 150.659 148.444 150.659 145.78C150.659 144.52 151.055 143.656 151.883 142.684C152.783 142.9 153.683 142.972 155.339 142.972H159.515ZM167.075 122.56L166.463 122.164L161.891 123.856C160.595 122.776 158.687 122.164 156.275 122.164C151.199 122.164 148.427 124.828 148.427 128.716C148.427 131.2 149.507 133.18 151.523 134.332C149.435 136.168 148.607 137.464 148.607 139.12C148.607 140.776 149.579 141.748 151.199 142.36C148.679 143.44 147.527 144.844 147.527 146.5C147.527 149.2 149.831 151.36 155.987 151.36C163.079 151.36 166.787 148.048 166.787 144.268C166.787 141.028 164.699 138.976 159.551 138.976H154.259C152.243 138.976 151.523 138.292 151.523 136.996C151.523 136.168 151.775 135.484 152.315 134.728C153.395 135.16 154.691 135.412 156.203 135.412C161.243 135.412 164.051 132.64 164.051 128.716C164.051 127.24 163.655 125.908 162.863 124.864L167.075 125.188V122.56ZM178.526 142.576C184.034 142.576 188.246 138.796 188.246 132.316C188.246 125.836 183.746 122.164 178.526 122.164C173.27 122.164 168.806 125.872 168.806 132.316C168.806 138.76 172.946 142.576 178.526 142.576ZM178.526 141.244C175.538 141.244 173.882 138.328 173.882 132.352C173.882 126.412 175.538 123.496 178.526 123.496C181.442 123.496 183.17 126.412 183.17 132.352C183.17 138.328 181.442 141.244 178.526 141.244ZM70.3122 192.236C70.2402 190.004 70.2042 187.772 70.2042 185.54V173.084L70.3482 167.288L69.8442 166.892L60.7722 169.052V170.384L65.4522 169.916V185.54C65.4522 187.772 65.4162 190.004 65.3442 192.236L60.0162 192.884V194H75.4602V192.884L70.3122 192.236ZM98.2468 194.576C103.755 194.576 107.967 190.796 107.967 184.316C107.967 177.836 103.467 174.164 98.2468 174.164C92.9908 174.164 88.5268 177.872 88.5268 184.316C88.5268 190.76 92.6668 194.576 98.2468 194.576ZM98.2468 193.244C95.2588 193.244 93.6028 190.328 93.6028 184.352C93.6028 178.412 95.2588 175.496 98.2468 175.496C101.163 175.496 102.891 178.412 102.891 184.352C102.891 190.328 101.163 193.244 98.2468 193.244ZM130.542 192.596C130.506 190.544 130.47 187.592 130.47 185.54V181.148C130.47 176.324 128.346 174.164 124.962 174.164C122.622 174.164 120.39 175.172 118.122 177.8L117.87 174.524L117.366 174.2L110.454 176.396V177.296L113.298 177.584C113.406 179.312 113.442 180.608 113.442 182.948V185.54C113.442 187.52 113.406 190.508 113.37 192.56L110.742 192.884V194H120.606V192.884L118.266 192.596C118.23 190.544 118.194 187.52 118.194 185.54V179.06C119.958 177.44 121.578 176.72 122.91 176.72C124.854 176.72 125.754 177.8 125.754 180.932V185.54C125.754 187.592 125.718 190.544 125.646 192.56L123.126 192.884V194H132.99V192.884L130.542 192.596ZM156.304 192.236C156.232 190.004 156.196 187.772 156.196 185.54V173.084L156.34 167.288L155.836 166.892L146.764 169.052V170.384L151.444 169.916V185.54C151.444 187.772 151.408 190.004 151.336 192.236L146.008 192.884V194H161.452V192.884L156.304 192.236Z" fill="#1D0000"/>
<path d="M75.6 258.242C75.576 265.25 76.008 269.378 69.144 272.21L69.36 272.57C73.704 271.442 75.888 269.906 77.016 267.842C78.528 268.946 80.4 270.722 81.336 272.186C84.264 273.29 85.176 267.914 77.232 267.458C78.216 265.274 78.216 262.586 78.288 259.202C78.816 259.13 79.032 258.914 79.104 258.554L75.6 258.242ZM74.16 256.178L71.544 255.098V258.962L69.72 257.234L68.448 258.53H66.768C67.56 258.218 67.896 257.09 67.08 256.034C68.376 255.122 69.72 253.994 70.56 253.082C71.064 253.034 71.328 252.962 71.544 252.77L71.208 252.458H75.312C75.264 253.682 75.192 255.146 75.12 256.178H74.16ZM79.536 251.762H70.896L71.04 252.29L69.048 250.394L67.584 251.834H61.8L62.016 252.506H67.632C67.296 253.37 66.816 254.402 66.312 255.338C65.592 254.858 64.512 254.45 62.952 254.306L62.736 254.498C63.912 255.362 65.136 256.97 65.448 258.338C65.592 258.434 65.712 258.482 65.856 258.53H61.416L61.632 259.202H64.608V268.97C64.608 269.258 64.512 269.402 64.152 269.402C63.672 269.402 61.632 269.258 61.632 269.258V269.594C62.688 269.762 63.168 270.074 63.456 270.458C63.792 270.866 63.888 271.538 63.912 272.378C66.84 272.138 67.248 270.866 67.248 269.042V259.202H68.592C68.4 260.21 68.112 261.578 67.896 262.394L68.16 262.562C69.096 261.818 70.344 260.546 71.064 259.682C71.256 259.658 71.424 259.658 71.544 259.634V267.722H71.928C72.984 267.722 74.04 267.146 74.04 266.882V256.85H79.92V267.05H80.304C81.144 267.05 82.392 266.522 82.416 266.354V257.186C82.824 257.114 83.112 256.922 83.256 256.754L80.856 254.93L79.704 256.178H75.912C76.728 255.146 77.616 253.73 78.312 252.458H82.968C83.304 252.458 83.568 252.338 83.616 252.074C82.632 251.162 80.976 249.938 80.976 249.938L79.536 251.762ZM87.384 250.298C88.488 251.402 89.856 253.202 90.384 254.69C93.144 256.274 94.872 250.97 87.6 250.13L87.384 250.298ZM91.512 257.69C92.04 257.594 92.304 257.402 92.424 257.234L90.096 255.29L88.824 256.562H85.224L85.44 257.258H88.8V267.098C88.8 267.626 88.632 267.866 87.624 268.442L89.616 271.418C89.88 271.25 90.168 270.914 90.36 270.434C92.736 268.442 94.56 266.618 95.544 265.586L95.424 265.346C94.056 265.946 92.712 266.546 91.512 267.05V257.69ZM103.584 258.77H101.544V251.114C102.216 251.018 102.384 250.778 102.432 250.442L98.664 250.058V258.77H93.12L93.288 259.466H98.664V272.354H99.216C100.296 272.354 101.544 271.658 101.544 271.346V259.466H107.256C107.616 259.466 107.88 259.346 107.952 259.082C106.896 258.098 105.12 256.706 105.12 256.706L103.584 258.77ZM126.84 270.482H121.2V260.018H129.288C129.624 260.018 129.864 259.898 129.936 259.634C128.784 258.602 126.864 257.138 126.864 257.138L125.136 259.346H121.2V251.306C121.848 251.21 122.016 250.97 122.088 250.634L118.104 250.25V270.482H109.176L109.368 271.154H131.04C131.4 271.154 131.664 271.034 131.736 270.77C130.536 269.762 128.592 268.25 128.592 268.25L126.84 270.482ZM141.552 250.034C142.368 250.898 143.328 252.242 143.616 253.538C146.448 255.266 148.704 249.962 141.72 249.89L141.552 250.034ZM151.104 253.994H133.2L133.392 254.666H142.944V257.882H139.2L136.176 256.658V269.138H136.584C137.784 269.138 139.008 268.514 139.008 268.202V258.554H142.944V272.498H143.496C145.008 272.498 145.896 271.898 145.92 271.706V258.554H149.832V265.85C149.832 266.138 149.712 266.282 149.352 266.282C148.776 266.282 146.832 266.162 146.832 266.162V266.498C147.888 266.666 148.32 267.002 148.656 267.386C148.968 267.818 149.088 268.466 149.136 269.354C152.28 269.066 152.688 267.986 152.688 266.138V259.034C153.192 258.938 153.504 258.722 153.672 258.53L150.864 256.418L149.592 257.882H145.92V254.666H155.136C155.496 254.666 155.736 254.546 155.784 254.282C154.68 253.274 152.784 251.858 152.784 251.858L151.104 253.994Z" fill="white"/>
<defs>
<linearGradient id="paint0_linear" x1="108" y1="0" x2="108" y2="305" gradientUnits="userSpaceOnUse">
<stop stop-color="#DA241C"/>
<stop offset="1" stop-color="#560501"/>
</linearGradient>
<linearGradient id="paint1_linear" x1="108" y1="4" x2="108" y2="301" gradientUnits="userSpaceOnUse">
<stop stop-color="#DA241C"/>
<stop offset="1" stop-color="#560501"/>
</linearGradient>
</defs>
</svg>
