<?xml version="1.0" encoding="utf-8"?>
<!-- Generator: Adobe Illustrator 22.0.1, SVG Export Plug-In . SVG Version: 6.00 Build 0)  -->
<svg version="1.1" id="레이어_1" xmlns="http://www.w3.org/2000/svg" xmlns:xlink="http://www.w3.org/1999/xlink" x="0px"
	 y="0px" viewBox="0 0 216 305" style="enable-background:new 0 0 216 305;" xml:space="preserve">
<style type="text/css">
	.st0{fill:#DA241C;}
	.st1{fill:none;stroke:#000000;stroke-width:3;}
	.st2{fill:#FFFFFF;stroke:#000000;stroke-width:2;}
	.st3{fill:#FFFFFF;}
</style>
<g>
	<path class="st0" d="M20,0h176c11,0,20,9,20,20v265c0,11-9,20-20,20H20c-11,0-20-9-20-20V20C0,9,9,0,20,0z"/>
	<path class="st1" d="M26.9,8.4h162.2c10.2,0,18.5,8.3,18.5,18.5v251.3c0,10.2-8.3,18.5-18.5,18.5H26.9c-10.2,0-18.5-8.3-18.5-18.5
		V26.9C8.4,16.6,16.7,8.4,26.9,8.4z"/>
	<path class="st2" d="M181.3,99.8c0,40.4-33,73.1-73.7,73.1c-40.7,0-73.7-32.7-73.7-73.1s33-73.1,73.7-73.1
		C148.3,26.7,181.3,59.4,181.3,99.8z"/>
	<path d="M110.6,181.2c-64.4-6-102.8,11.1-102.8,11.1v89.5l3,7.7l6,6H194l6.5-2.6l4-3.4l2.9-10.3v-70.7
		C207.4,208.6,175,187.2,110.6,181.2z"/>
	<path class="st3" d="M50,239.4l0.4,2h0.7l-0.1-2.7h-8.3l-0.1,2.7h0.7l0.4-2h2.6c0,1.3,0,2.7,0,4.1v0.8c0,1.4,0,2.7,0,4.1l-1.6,0.2
		v0.5H49v-0.5l-1.6-0.2c0-1.3,0-2.7,0-4.1v-0.8c0-1.4,0-2.8,0-4.1H50z M59,248.4c0-0.8,0-1.8,0-2.6v-1.5c0-2-0.6-2.7-1.9-2.7
		c-1,0-2,0.6-2.8,1.5V240l0.1-2.2l-0.2-0.1l-2.1,0.6v0.4l1.3,0.1v7c0,0.7,0,1.8,0,2.6l-1.2,0.2v0.4h3.4v-0.4l-1.1-0.2
		c0-0.8,0-1.9,0-2.6v-2.2c0.9-0.9,1.6-1.1,2.3-1.1c0.9,0,1.3,0.5,1.3,1.9v1.4c0,0.7,0,1.8,0,2.6l-1.2,0.2v0.4h3.4v-0.4L59,248.4z
		 M62.9,239.7c0.5,0,0.9-0.4,0.9-0.9c0-0.5-0.4-0.9-0.9-0.9c-0.5,0-0.9,0.3-0.9,0.9C62,239.4,62.4,239.7,62.9,239.7z M63.4,248.4
		c0-0.8,0-1.8,0-2.6v-2.1l0-2l-0.2-0.1l-2.2,0.7v0.5l1.3,0.1c0,0.7,0,1.3,0,2.1v0.8c0,0.7,0,1.8,0,2.6l-1.2,0.2v0.4h3.4v-0.4
		L63.4,248.4z M68.4,244.7c-1-0.4-1.4-0.7-1.4-1.4c0-0.7,0.5-1.2,1.5-1.2c0.4,0,0.8,0.1,1.2,0.3l0.3,1.2h0.6l0.1-1.5
		c-0.7-0.4-1.3-0.6-2.1-0.6c-1.7,0-2.6,1-2.6,2c0,1,0.7,1.6,1.8,2l0.7,0.3c1,0.4,1.5,0.7,1.5,1.4c0,0.8-0.6,1.3-1.8,1.3
		c-0.5,0-0.9-0.1-1.3-0.3l-0.3-1.4h-0.7l0.1,1.6c0.7,0.4,1.4,0.5,2.2,0.5c1.9,0,2.9-1,2.9-2.1c0-0.9-0.6-1.6-2-2.2L68.4,244.7z
		 M77.6,239.7c0.5,0,0.9-0.4,0.9-0.9c0-0.5-0.4-0.9-0.9-0.9c-0.5,0-0.9,0.3-0.9,0.9C76.7,239.4,77.1,239.7,77.6,239.7z M78.2,248.4
		c0-0.8,0-1.8,0-2.6v-2.1l0-2l-0.2-0.1l-2.2,0.7v0.5l1.3,0.1c0,0.7,0,1.3,0,2.1v0.8c0,0.7,0,1.8,0,2.6l-1.2,0.2v0.4h3.4v-0.4
		L78.2,248.4z M83.2,244.7c-1-0.4-1.4-0.7-1.4-1.4c0-0.7,0.5-1.2,1.5-1.2c0.4,0,0.8,0.1,1.2,0.3l0.3,1.2h0.6l0.1-1.5
		c-0.7-0.4-1.3-0.6-2.1-0.6c-1.7,0-2.6,1-2.6,2c0,1,0.7,1.6,1.8,2l0.7,0.3c1,0.4,1.5,0.7,1.5,1.4c0,0.8-0.6,1.3-1.8,1.3
		c-0.5,0-0.9-0.1-1.3-0.3l-0.3-1.4h-0.7l0.1,1.6c0.7,0.4,1.4,0.5,2.2,0.5c1.9,0,2.9-1,2.9-2.1c0-0.9-0.6-1.6-2-2.2L83.2,244.7z
		 M95.1,247.4c-0.9,0.7-1.3,1-1.9,1c-0.8,0-1.3-0.4-1.3-1.2c0-0.6,0.3-1.1,1.6-1.7c0.4-0.2,1-0.3,1.6-0.5V247.4z M97.4,248.2
		c-0.2,0.2-0.4,0.3-0.6,0.3c-0.4,0-0.6-0.3-0.6-1.1v-3.3c0-1.8-0.8-2.5-2.3-2.5c-1.5,0-2.6,0.7-2.9,1.8c0,0.3,0.3,0.5,0.6,0.5
		c0.4,0,0.6-0.2,0.7-0.6l0.3-1c0.4-0.1,0.7-0.2,1-0.2c1.1,0,1.5,0.4,1.5,1.9v0.4c-0.6,0.1-1.3,0.3-1.9,0.5c-1.9,0.7-2.5,1.4-2.5,2.3
		c0,1.2,0.9,1.8,2,1.8c0.9,0,1.5-0.4,2.3-1.3c0.1,0.8,0.6,1.2,1.3,1.2c0.5,0,0.9-0.2,1.2-0.7L97.4,248.2z M105.9,248.1
		c-0.4,0.3-0.7,0.4-1.1,0.4c-0.6,0-0.9-0.4-0.9-1.2v-4.9h2.1v-0.6H104l0.1-2.1h-0.8l-0.3,2.1l-1.4,0.2v0.5h1.4v3.8
		c0,0.5,0,0.9,0,1.2c0,1.2,0.6,1.8,1.7,1.8c0.7,0,1.3-0.3,1.7-0.7L105.9,248.1z M109.1,241.8l-0.2-0.1l-2,0.7v0.4l1.2,0.1
		c0,0.7,0.1,1.2,0.1,2.1v0.8c0,0.7,0,1.8,0,2.6l-1.1,0.2v0.4h3.6v-0.4l-1.3-0.2c0-0.8,0-1.8,0-2.6v-1.3c0.3-1,0.8-1.6,1.5-2l0.2,0.2
		c0.3,0.2,0.5,0.4,0.9,0.4c0.5,0,0.8-0.3,0.8-1c-0.2-0.3-0.6-0.5-1.1-0.5c-0.9,0-1.8,0.8-2.3,2L109.1,241.8z M117.6,247.4
		c-0.9,0.7-1.3,1-1.9,1c-0.8,0-1.3-0.4-1.3-1.2c0-0.6,0.3-1.1,1.6-1.7c0.4-0.2,1-0.3,1.6-0.5V247.4z M119.9,248.2
		c-0.2,0.2-0.4,0.3-0.6,0.3c-0.4,0-0.6-0.3-0.6-1.1v-3.3c0-1.8-0.8-2.5-2.3-2.5c-1.5,0-2.6,0.7-2.9,1.8c0,0.3,0.3,0.5,0.6,0.5
		c0.4,0,0.6-0.2,0.7-0.6l0.3-1c0.4-0.1,0.7-0.2,1-0.2c1.1,0,1.5,0.4,1.5,1.9v0.4c-0.6,0.1-1.3,0.3-1.9,0.5c-1.9,0.7-2.4,1.4-2.4,2.3
		c0,1.2,0.9,1.8,2,1.8c0.9,0,1.5-0.4,2.3-1.3c0.1,0.8,0.6,1.2,1.3,1.2c0.5,0,0.9-0.2,1.2-0.7L119.9,248.2z M126.2,247.5
		c-0.6,0.7-1.2,1-1.9,1c-1.3,0-2.2-0.9-2.2-3.1c0-2.2,1.1-3.1,2.3-3.1c0.6,0,1.1,0.2,1.8,0.9V247.5z M127.3,248.4V240l0-2.1
		l-0.2-0.1l-2.2,0.6v0.4l1.3,0.1v3.8c-0.7-0.8-1.4-1-2-1c-1.9,0-3.2,1.5-3.2,3.9c0,2.2,1.3,3.7,3.1,3.7c0.9,0,1.6-0.4,2.2-1.1
		l0.1,1.1l2.3-0.1v-0.4L127.3,248.4z M131.2,239.7c0.5,0,0.9-0.4,0.9-0.9c0-0.5-0.4-0.9-0.9-0.9c-0.5,0-0.9,0.3-0.9,0.9
		C130.3,239.4,130.7,239.7,131.2,239.7z M131.8,248.4c0-0.8,0-1.8,0-2.6v-2.1l0-2l-0.2-0.1l-2.2,0.7v0.5l1.3,0.1c0,0.7,0,1.3,0,2.1
		v0.8c0,0.7,0,1.8,0,2.6l-1.2,0.2v0.4h3.4v-0.4L131.8,248.4z M138,248.1c-0.4,0.3-0.7,0.4-1.1,0.4c-0.6,0-0.9-0.4-0.9-1.2v-4.9h2.1
		v-0.6h-2.1l0.1-2.1h-0.8l-0.3,2.1l-1.4,0.2v0.5h1.4v3.8c0,0.5,0,0.9,0,1.2c0,1.2,0.6,1.8,1.7,1.8c0.7,0,1.3-0.3,1.7-0.7L138,248.1z
		 M140.7,239.7c0.5,0,0.9-0.4,0.9-0.9c0-0.5-0.4-0.9-0.9-0.9c-0.5,0-0.9,0.3-0.9,0.9C139.8,239.4,140.2,239.7,140.7,239.7z
		 M141.3,248.4c0-0.8,0-1.8,0-2.6v-2.1l0-2l-0.2-0.1l-2.2,0.7v0.5l1.3,0.1c0,0.7,0,1.3,0,2.1v0.8c0,0.7,0,1.8,0,2.6l-1.2,0.2v0.4
		h3.4v-0.4L141.3,248.4z M147.1,249.2c1.7,0,3.4-1.2,3.4-3.8c0-2.5-1.7-3.8-3.4-3.8c-1.7,0-3.4,1.3-3.4,3.8
		C143.7,248,145.4,249.2,147.1,249.2z M147.1,248.6c-1.4,0-2.3-1.1-2.3-3.2c0-2.1,0.8-3.3,2.3-3.3c1.4,0,2.3,1.2,2.3,3.3
		C149.4,247.5,148.5,248.6,147.1,248.6z M158.9,248.4c0-0.8,0-1.8,0-2.6v-1.5c0-2-0.6-2.7-1.9-2.7c-0.9,0-2,0.5-2.8,1.4l-0.1-1.3
		l-0.2-0.1l-2,0.7v0.4l1.2,0.1c0,0.7,0.1,1.2,0.1,2.1v0.8c0,0.7,0,1.8,0,2.6l-1.2,0.2v0.4h3.4v-0.4l-1.1-0.2c0-0.8,0-1.8,0-2.6v-2.2
		c0.9-0.8,1.6-1.1,2.3-1.1c0.9,0,1.3,0.5,1.3,1.9v1.4c0,0.7,0,1.8,0,2.6l-1.2,0.2v0.4h3.4v-0.4L158.9,248.4z M165.5,247.4
		c-0.9,0.7-1.3,1-1.9,1c-0.8,0-1.3-0.4-1.3-1.2c0-0.6,0.3-1.1,1.6-1.7c0.4-0.2,1-0.3,1.6-0.5V247.4z M167.8,248.2
		c-0.2,0.2-0.4,0.3-0.6,0.3c-0.4,0-0.6-0.3-0.6-1.1v-3.3c0-1.8-0.8-2.5-2.3-2.5c-1.5,0-2.6,0.7-2.9,1.8c0,0.3,0.3,0.5,0.6,0.5
		c0.4,0,0.6-0.2,0.7-0.6l0.3-1c0.4-0.1,0.7-0.2,1-0.2c1.1,0,1.5,0.4,1.5,1.9v0.4c-0.6,0.1-1.3,0.3-1.9,0.5c-1.9,0.7-2.4,1.4-2.4,2.3
		c0,1.2,0.9,1.8,2,1.8c0.9,0,1.5-0.4,2.3-1.3c0.1,0.8,0.6,1.2,1.3,1.2c0.5,0,0.9-0.2,1.2-0.7L167.8,248.2z M171.1,248.4
		c0-0.8,0-1.7,0-2.6V240l0-2.2l-0.2-0.1l-2.2,0.6v0.4l1.3,0.1v7c0,0.8,0,1.7,0,2.6l-1.3,0.2v0.4h3.7v-0.4L171.1,248.4z M19.7,261.1
		c-1.1-0.4-1.8-1-1.8-2.1c0-1.2,0.9-1.8,2.2-1.8c0.5,0,0.9,0.1,1.3,0.4l0.3,1.8h0.7l0.1-2c-0.7-0.5-1.4-0.8-2.5-0.8
		c-1.8,0-3.3,1-3.3,2.7c0,1.5,1,2.4,2.6,3l0.6,0.2c1.5,0.6,2,1.1,2,2.1c0,1.3-1,2-2.5,2c-0.7,0-1.2-0.1-1.7-0.4l-0.3-1.8h-0.7
		l-0.1,2.1c0.7,0.4,1.8,0.8,2.9,0.8c2,0,3.5-1.1,3.5-2.9c0-1.4-0.7-2.3-2.8-3.1L19.7,261.1z M26.1,257.7c0.5,0,0.9-0.3,0.9-0.9
		c0-0.5-0.4-0.9-0.9-0.9c-0.5,0-0.9,0.3-0.9,0.9C25.2,257.4,25.6,257.7,26.1,257.7z M26.7,266.4c0-0.8,0-1.8,0-2.6v-2.1l0-2
		l-0.2-0.1l-2.2,0.7v0.5l1.3,0.1c0,0.7,0,1.3,0,2.1v0.8c0,0.7,0,1.8,0,2.6l-1.2,0.2v0.4h3.4v-0.4L26.7,266.4z M34.9,265.3
		c-0.5,0.7-1.3,1.1-2.2,1.1c-1.5,0-2.6-1.1-2.6-3.1c0-2,1-3.1,2.4-3.1c0.3,0,0.6,0.1,1,0.2l0.3,1c0.1,0.4,0.3,0.6,0.7,0.6
		c0.3,0,0.6-0.2,0.6-0.5c-0.3-1.1-1.3-1.9-2.6-1.9c-1.8,0-3.5,1.4-3.5,3.8c0,2.3,1.3,3.8,3.4,3.8c1.4,0,2.3-0.7,2.8-1.8L34.9,265.3z
		 M38.4,261.2c0.9-0.8,1.5-0.9,2-0.9c1.2,0,2.1,1.1,2.1,3.1c0,2.2-1,3.1-2.2,3.1c-0.6,0-1.3-0.3-1.9-0.9V261.2z M38.4,258l0.1-2.2
		l-0.2-0.1l-2.1,0.6v0.4l1.3,0.1v7c0,0.7,0,1.8,0,2.6l-1.2,0.2v0.4l2.2,0.1l0.1-1.1c0.7,0.9,1.5,1.1,2.2,1.1c1.8,0,3.1-1.6,3.1-3.9
		c0-2.3-1.2-3.7-2.9-3.7c-0.8,0-1.6,0.3-2.4,1.2V258z M48.5,267.2c1.7,0,3.4-1.2,3.4-3.8c0-2.5-1.7-3.8-3.4-3.8
		c-1.7,0-3.4,1.3-3.4,3.8C45.1,266,46.8,267.2,48.5,267.2z M48.5,266.6c-1.4,0-2.3-1.1-2.3-3.2c0-2.1,0.8-3.3,2.3-3.3
		c1.4,0,2.3,1.2,2.3,3.3C50.8,265.5,49.9,266.6,48.5,266.6z M59.9,264.1c-1,0-1.6-0.8-1.6-2c0-1.2,0.6-2,1.7-2s1.6,0.8,1.6,2
		C61.6,263.3,60.9,264.1,59.9,264.1z M61.2,267.2c1.1,0,1.5,0.5,1.5,1.2c0,0.9-0.9,1.7-2.7,1.7c-1.3,0-2.1-0.5-2.1-1.5
		c0-0.6,0.2-1,0.7-1.4c0.2,0,0.5,0,0.7,0H61.2z M63.8,259.8l-0.2-0.2l-1.7,0.5c-0.5-0.4-1.1-0.6-1.8-0.6c-1.6,0-2.7,0.9-2.7,2.5
		c0,1,0.4,1.8,1.2,2.2c-0.7,0.7-1,1.2-1,1.7c0,0.6,0.4,1,1,1.1c-1,0.5-1.5,1.1-1.5,1.7c0,1.1,1,1.9,3.1,1.9c2.4,0,3.6-1.3,3.6-2.6
		c0-1.2-0.8-1.9-2.3-1.9h-2.1c-0.8,0-1-0.3-1-0.7c0-0.4,0.2-0.7,0.5-1.1c0.4,0.1,0.7,0.2,1.2,0.2c1.5,0,2.7-0.9,2.7-2.5
		c0-0.6-0.2-1.1-0.4-1.5l1.6,0V259.8z M68.9,265.4c-0.9,0.7-1.3,1-1.9,1c-0.8,0-1.3-0.4-1.3-1.2c0-0.6,0.3-1.1,1.6-1.7
		c0.4-0.2,1-0.4,1.6-0.5V265.4z M71.2,266.2c-0.2,0.2-0.4,0.3-0.6,0.3c-0.4,0-0.6-0.3-0.6-1.1v-3.3c0-1.8-0.8-2.5-2.3-2.5
		c-1.5,0-2.6,0.7-2.9,1.8c0,0.3,0.3,0.5,0.6,0.5c0.4,0,0.6-0.2,0.7-0.6l0.3-1c0.4-0.1,0.7-0.2,1-0.2c1.1,0,1.5,0.4,1.5,1.9v0.4
		c-0.6,0.1-1.3,0.3-1.9,0.5c-1.9,0.7-2.5,1.4-2.5,2.3c0,1.2,0.9,1.8,2,1.8c0.9,0,1.5-0.4,2.3-1.3c0.1,0.8,0.6,1.2,1.3,1.2
		c0.5,0,0.9-0.2,1.2-0.7L71.2,266.2z M83.6,266.4c0-0.8,0-1.8,0-2.6v-1.6c0-1.9-0.7-2.6-1.9-2.6c-1,0-2,0.5-2.8,1.5
		c-0.2-1-0.8-1.5-1.8-1.5c-0.9,0-1.9,0.6-2.7,1.4l-0.1-1.3l-0.2-0.1l-2,0.7v0.4l1.2,0.1c0,0.6,0.1,1.2,0.1,2.1v0.8
		c0,0.7,0,1.8,0,2.6l-1.2,0.2v0.4h3.4v-0.4l-1.1-0.2c0-0.8,0-1.8,0-2.6v-2.2c0.9-0.8,1.5-1.1,2.2-1.1c0.9,0,1.3,0.5,1.3,1.9v1.4
		c0,0.7,0,1.8,0,2.6l-1.2,0.2v0.4h3.4v-0.4l-1.1-0.2c0-0.8,0-1.8,0-2.6v-1.5c0-0.3,0-0.5,0-0.7c0.9-0.9,1.6-1.1,2.2-1.1
		c0.9,0,1.3,0.4,1.3,1.9v1.4c0,0.7,0,1.8,0,2.6l-1.2,0.2v0.4h3.4v-0.4L83.6,266.4z M87.1,262.8c0.2-1.8,1.2-2.6,2.2-2.6
		c1.1,0,1.8,0.9,1.8,1.9c0,0.4-0.1,0.8-0.8,0.8H87.1z M92,263.3c0.1-0.2,0.1-0.5,0.1-0.9c0-1.8-1.2-2.9-2.8-2.9
		c-1.8,0-3.4,1.5-3.4,3.8c0,2.4,1.4,3.8,3.4,3.8c1.3,0,2.3-0.6,2.8-1.7l-0.3-0.2c-0.5,0.7-1.2,1.1-2.2,1.1c-1.5,0-2.6-1-2.6-3.1
		L92,263.3z M99.3,261.2c0.9-0.8,1.5-0.9,2-0.9c1.2,0,2.1,1.1,2.1,3.1c0,2.2-1,3.1-2.2,3.1c-0.6,0-1.3-0.3-1.9-0.9V261.2z M99.3,258
		l0.1-2.2l-0.2-0.1l-2.1,0.6v0.4l1.3,0.1v7c0,0.7,0,1.8,0,2.6l-1.2,0.2v0.4l2.2,0.1l0.1-1.1c0.7,0.9,1.5,1.1,2.2,1.1
		c1.8,0,3.1-1.6,3.1-3.9c0-2.3-1.2-3.7-2.9-3.7c-0.8,0-1.6,0.3-2.4,1.2V258z M112.5,266.4V262l0.1-2.1l-0.2-0.2l-2.1,0.2v0.4
		l1.1,0.2l0,4.6c-0.7,0.7-1.5,1.1-2.3,1.1c-0.9,0-1.4-0.5-1.4-2V262l0.1-2.1l-0.1-0.2l-2.1,0.2v0.4l1.2,0.2l0,3.9
		c0,2.1,0.7,2.8,2,2.8c1,0,1.9-0.5,2.7-1.5l0.1,1.4l2-0.1v-0.4L112.5,266.4z M118.7,266.1c-0.4,0.3-0.7,0.4-1.1,0.4
		c-0.6,0-0.9-0.4-0.9-1.2v-4.9h2.1v-0.6h-2.1l0.1-2.1H116l-0.3,2.1l-1.4,0.2v0.5h1.4v3.8c0,0.5,0,0.9,0,1.2c0,1.2,0.6,1.8,1.7,1.8
		c0.7,0,1.3-0.3,1.7-0.7L118.7,266.1z M130,266.4V262l0.1-2.1l-0.2-0.2l-2.1,0.2v0.4l1.1,0.2l0,4.6c-0.7,0.7-1.5,1.1-2.3,1.1
		c-0.9,0-1.4-0.5-1.4-2V262l0.1-2.1l-0.1-0.2l-2.1,0.2v0.4l1.2,0.2l0,3.9c0,2.1,0.7,2.8,2,2.8c1,0,1.9-0.5,2.7-1.5l0.1,1.4l2-0.1
		v-0.4L130,266.4z M134.9,262.7c-1-0.4-1.4-0.7-1.4-1.4c0-0.7,0.5-1.2,1.5-1.2c0.4,0,0.8,0.1,1.2,0.3l0.3,1.2h0.6l0.1-1.5
		c-0.7-0.4-1.3-0.6-2.1-0.6c-1.7,0-2.6,1-2.6,2c0,1,0.7,1.6,1.8,2l0.7,0.3c1,0.4,1.5,0.7,1.5,1.4c0,0.8-0.6,1.3-1.8,1.3
		c-0.5,0-0.9-0.1-1.3-0.3L133,265h-0.7l0.1,1.6c0.7,0.4,1.4,0.5,2.2,0.5c1.9,0,2.9-1,2.9-2.1c0-0.9-0.6-1.6-2-2.2L134.9,262.7z
		 M140.1,262.8c0.2-1.8,1.2-2.6,2.2-2.6c1.1,0,1.8,0.9,1.8,1.9c0,0.4-0.1,0.8-0.8,0.8H140.1z M145,263.3c0.1-0.2,0.1-0.5,0.1-0.9
		c0-1.8-1.2-2.9-2.8-2.9c-1.8,0-3.4,1.5-3.4,3.8c0,2.4,1.4,3.8,3.4,3.8c1.3,0,2.3-0.6,2.8-1.7l-0.3-0.2c-0.5,0.7-1.2,1.1-2.2,1.1
		c-1.5,0-2.6-1-2.6-3.1L145,263.3z M149.2,262.7c-1-0.4-1.4-0.7-1.4-1.4c0-0.7,0.5-1.2,1.5-1.2c0.4,0,0.8,0.1,1.2,0.3l0.3,1.2h0.6
		l0.1-1.5c-0.7-0.4-1.3-0.6-2.1-0.6c-1.7,0-2.6,1-2.6,2c0,1,0.7,1.6,1.8,2l0.7,0.3c1,0.4,1.5,0.7,1.5,1.4c0,0.8-0.6,1.3-1.8,1.3
		c-0.5,0-0.9-0.1-1.3-0.3l-0.3-1.4h-0.7l0.1,1.6c0.7,0.4,1.4,0.5,2.2,0.5c1.9,0,2.9-1,2.9-2.1c0-0.9-0.6-1.6-2-2.2L149.2,262.7z
		 M163.6,266.4c0-0.8,0-1.7,0-2.6V258l0-2.2l-0.2-0.1l-0.5,0.2c-0.3-0.3-0.9-0.4-1.5-0.4c-0.7,0-1.5,0.2-2.3,0.8
		c-0.8,0.7-1.2,1.7-1.3,3.4l-1.4,0.2v0.5h1.3v3.4c0,0.9,0,1.7,0,2.6l-1.3,0.2l0,0.4h3.8v-0.4l-1.4-0.2c0-0.9,0-1.7,0-2.6v-3.4h2.2
		v-0.6H159c0-1.5,0.2-2.4,0.8-3.1c0.3-0.3,0.7-0.5,1.1-0.6l0.2,0.1c0.5,0.4,1.1,0.6,1.5,0.7v6.9c0,0.8,0,1.7,0,2.6l-1.3,0.2v0.4h3.7
		v-0.4L163.6,266.4z M169.5,267.2c1.7,0,3.4-1.2,3.4-3.8c0-2.5-1.7-3.8-3.4-3.8c-1.7,0-3.4,1.3-3.4,3.8
		C166,266,167.7,267.2,169.5,267.2z M169.5,266.6c-1.4,0-2.3-1.1-2.3-3.2c0-2.1,0.8-3.3,2.3-3.3c1.4,0,2.3,1.2,2.3,3.3
		C171.7,265.5,170.9,266.6,169.5,266.6z M185.1,259.8h-2.8v0.5l1.2,0.2l-1.5,5.1l-1.9-5.1l1.2-0.2v-0.5h-3.2v0.5l1.2,0.2l-1.8,5.1
		l-1.7-5.1l1.2-0.2v-0.5h-3.3v0.5l0.9,0.1l2.4,6.7h0.5l2.1-5.7c0.4,1.2,0.8,2.5,2,5.7h0.5l2.2-6.6l0.9-0.2V259.8z M186.8,262.8
		c0.2-1.8,1.2-2.6,2.2-2.6c1.1,0,1.8,0.9,1.8,1.9c0,0.4-0.1,0.8-0.8,0.8H186.8z M191.8,263.3c0.1-0.2,0.1-0.5,0.1-0.9
		c0-1.8-1.2-2.9-2.8-2.9c-1.8,0-3.4,1.5-3.4,3.8c0,2.4,1.4,3.8,3.4,3.8c1.3,0,2.3-0.6,2.8-1.7l-0.3-0.2c-0.5,0.7-1.2,1.1-2.2,1.1
		c-1.5,0-2.6-1-2.6-3.1L191.8,263.3z M195.4,259.8l-0.2-0.1l-2,0.7v0.4l1.2,0.1c0,0.7,0.1,1.2,0.1,2.1v0.8c0,0.7,0,1.8,0,2.6
		l-1.1,0.2v0.4h3.6v-0.4l-1.3-0.2c0-0.8,0-1.8,0-2.6v-1.3c0.3-1,0.8-1.6,1.5-2l0.2,0.2c0.3,0.2,0.5,0.4,0.9,0.4c0.5,0,0.8-0.4,0.8-1
		c-0.2-0.3-0.6-0.5-1.1-0.5c-0.9,0-1.8,0.8-2.3,2L195.4,259.8z M39.4,283.3c-0.5,0.7-1.3,1.1-2.2,1.1c-1.5,0-2.6-1.1-2.6-3.1
		c0-2,1-3.1,2.4-3.1c0.3,0,0.6,0.1,1,0.2l0.3,1c0.1,0.4,0.3,0.6,0.7,0.6c0.3,0,0.6-0.2,0.6-0.5c-0.3-1.1-1.3-1.9-2.6-1.9
		c-1.8,0-3.5,1.4-3.5,3.8c0,2.3,1.3,3.8,3.4,3.8c1.4,0,2.3-0.7,2.8-1.8L39.4,283.3z M45.3,283.4c-0.9,0.7-1.3,1-1.9,1
		c-0.8,0-1.3-0.4-1.3-1.2c0-0.6,0.3-1.1,1.6-1.7c0.4-0.2,1-0.4,1.6-0.5V283.4z M47.6,284.2c-0.2,0.2-0.4,0.3-0.6,0.3
		c-0.4,0-0.6-0.3-0.6-1.1v-3.3c0-1.8-0.8-2.5-2.3-2.5c-1.5,0-2.6,0.7-2.9,1.8c0,0.3,0.3,0.5,0.6,0.5c0.4,0,0.6-0.2,0.7-0.6l0.3-1
		c0.4-0.1,0.7-0.2,1-0.2c1.1,0,1.5,0.4,1.5,1.9v0.4c-0.6,0.1-1.3,0.3-1.9,0.5c-1.9,0.7-2.5,1.4-2.5,2.3c0,1.2,0.9,1.8,2,1.8
		c0.9,0,1.5-0.4,2.3-1.3c0.1,0.8,0.6,1.2,1.3,1.2c0.5,0,0.9-0.2,1.2-0.7L47.6,284.2z M50.7,277.8l-0.2-0.1l-2,0.7v0.4l1.2,0.1
		c0,0.7,0.1,1.2,0.1,2.1v0.8c0,0.7,0,1.8,0,2.6l-1.1,0.2v0.4h3.6v-0.4l-1.3-0.2c0-0.8,0-1.8,0-2.6v-1.3c0.3-1,0.8-1.6,1.5-2l0.2,0.2
		c0.3,0.2,0.5,0.4,0.9,0.4c0.5,0,0.8-0.4,0.8-1c-0.2-0.3-0.6-0.5-1.1-0.5c-0.9,0-1.8,0.8-2.3,2L50.7,277.8z M60,283.5
		c-0.6,0.7-1.2,1-1.9,1c-1.3,0-2.2-0.9-2.2-3.1c0-2.2,1.1-3.1,2.3-3.1c0.6,0,1.1,0.2,1.8,0.9V283.5z M61.1,284.4V276l0-2.1l-0.2-0.1
		l-2.2,0.6v0.4l1.3,0.1v3.8c-0.7-0.8-1.4-1-2-1c-1.9,0-3.2,1.5-3.2,3.9c0,2.2,1.3,3.7,3.1,3.7c0.9,0,1.6-0.4,2.2-1.1l0.1,1.1
		l2.3-0.1v-0.4L61.1,284.4z M66,280.7c-1-0.4-1.4-0.7-1.4-1.4c0-0.7,0.5-1.2,1.5-1.2c0.4,0,0.8,0.1,1.2,0.3l0.3,1.2h0.6l0.1-1.5
		c-0.7-0.4-1.3-0.6-2.1-0.6c-1.7,0-2.6,1-2.6,2c0,1,0.7,1.6,1.8,2l0.7,0.3c1,0.4,1.5,0.7,1.5,1.4c0,0.8-0.6,1.3-1.8,1.3
		c-0.5,0-0.9-0.1-1.3-0.3l-0.3-1.4h-0.7l0.1,1.6c0.7,0.4,1.4,0.5,2.2,0.5c1.9,0,2.9-1,2.9-2.1c0-0.9-0.6-1.6-2-2.2L66,280.7z
		 M75.2,275.7c0.5,0,0.9-0.3,0.9-0.9c0-0.5-0.4-0.9-0.9-0.9c-0.5,0-0.9,0.3-0.9,0.9C74.3,275.4,74.7,275.7,75.2,275.7z M75.8,284.4
		c0-0.8,0-1.8,0-2.6v-2.1l0-2l-0.2-0.1l-2.2,0.7v0.5l1.3,0.1c0,0.7,0,1.3,0,2.1v0.8c0,0.7,0,1.8,0,2.6l-1.2,0.2v0.4h3.4v-0.4
		L75.8,284.4z M85.1,284.4c0-0.8,0-1.8,0-2.6v-1.5c0-2-0.6-2.7-1.9-2.7c-0.9,0-2,0.5-2.8,1.4l-0.1-1.3l-0.2-0.1l-2,0.7v0.4l1.2,0.1
		c0,0.7,0.1,1.2,0.1,2.1v0.8c0,0.7,0,1.8,0,2.6l-1.2,0.2v0.4h3.4v-0.4l-1.1-0.2c0-0.8,0-1.8,0-2.6v-2.2c0.9-0.8,1.6-1.1,2.3-1.1
		c0.9,0,1.3,0.5,1.3,1.9v1.4c0,0.7,0,1.8,0,2.6l-1.2,0.2v0.4h3.4v-0.4L85.1,284.4z M90,280.7c-1-0.4-1.4-0.7-1.4-1.4
		c0-0.7,0.5-1.2,1.5-1.2c0.4,0,0.8,0.1,1.2,0.3l0.3,1.2h0.6l0.1-1.5c-0.7-0.4-1.3-0.6-2.1-0.6c-1.7,0-2.6,1-2.6,2c0,1,0.7,1.6,1.8,2
		l0.7,0.3c1,0.4,1.5,0.7,1.5,1.4c0,0.8-0.6,1.3-1.8,1.3c-0.5,0-0.9-0.1-1.3-0.3l-0.3-1.4h-0.7l0.1,1.6c0.7,0.4,1.4,0.5,2.2,0.5
		c1.9,0,2.9-1,2.9-2.1c0-0.9-0.6-1.6-2-2.2L90,280.7z M97.8,284.1c-0.4,0.3-0.7,0.4-1.1,0.4c-0.6,0-0.9-0.4-0.9-1.2v-4.9H98v-0.6
		h-2.1l0.1-2.1h-0.8l-0.3,2.1l-1.4,0.2v0.5h1.4v3.8c0,0.5,0,0.9,0,1.2c0,1.2,0.6,1.8,1.7,1.8c0.7,0,1.3-0.3,1.7-0.7L97.8,284.1z
		 M100.1,280.8c0.2-1.8,1.2-2.6,2.2-2.6c1.1,0,1.8,0.9,1.8,1.9c0,0.4-0.1,0.8-0.8,0.8H100.1z M105,281.3c0.1-0.2,0.1-0.5,0.1-0.9
		c0-1.8-1.2-2.9-2.8-2.9c-1.8,0-3.4,1.5-3.4,3.8c0,2.4,1.4,3.8,3.4,3.8c1.3,0,2.3-0.6,2.8-1.7l-0.3-0.2c-0.5,0.7-1.2,1.1-2.2,1.1
		c-1.5,0-2.6-1-2.6-3.1L105,281.3z M110.8,283.4c-0.9,0.7-1.3,1-1.9,1c-0.8,0-1.3-0.4-1.3-1.2c0-0.6,0.3-1.1,1.6-1.7
		c0.4-0.2,1-0.4,1.6-0.5V283.4z M113.1,284.2c-0.2,0.2-0.4,0.3-0.6,0.3c-0.4,0-0.6-0.3-0.6-1.1v-3.3c0-1.8-0.8-2.5-2.3-2.5
		c-1.5,0-2.6,0.7-2.9,1.8c0,0.3,0.3,0.5,0.6,0.5c0.4,0,0.6-0.2,0.7-0.6l0.3-1c0.4-0.1,0.7-0.2,1-0.2c1.1,0,1.5,0.4,1.5,1.9v0.4
		c-0.6,0.1-1.3,0.3-1.9,0.5c-1.9,0.7-2.4,1.4-2.4,2.3c0,1.2,0.9,1.8,2,1.8c0.9,0,1.5-0.4,2.3-1.3c0.1,0.8,0.6,1.2,1.3,1.2
		c0.5,0,0.9-0.2,1.2-0.7L113.1,284.2z M119.5,283.5c-0.6,0.7-1.2,1-1.9,1c-1.3,0-2.2-0.9-2.2-3.1c0-2.2,1-3.1,2.3-3.1
		c0.6,0,1.1,0.2,1.8,0.9V283.5z M120.5,284.4V276l0-2.1l-0.2-0.1l-2.2,0.6v0.4l1.3,0.1v3.8c-0.7-0.8-1.4-1-2-1
		c-1.9,0-3.2,1.5-3.2,3.9c0,2.2,1.3,3.7,3.1,3.7c0.9,0,1.6-0.4,2.2-1.1l0.1,1.1l2.3-0.1v-0.4L120.5,284.4z M129.9,285.2
		c1.7,0,3.4-1.2,3.4-3.8c0-2.5-1.7-3.8-3.4-3.8c-1.7,0-3.4,1.3-3.4,3.8C126.5,284,128.2,285.2,129.9,285.2z M129.9,284.6
		c-1.4,0-2.3-1.1-2.3-3.2c0-2.1,0.8-3.3,2.3-3.3c1.4,0,2.3,1.2,2.3,3.3C132.2,283.5,131.3,284.6,129.9,284.6z M134.6,277.9v0.5h1.3
		v3.4c0,0.9,0,1.7,0,2.6l-1.3,0.2v0.4h3.9v-0.4l-1.4-0.2c0-0.9,0-1.7,0-2.6v-3.4h2.2v-0.6H137c0-1.6,0.2-2.5,0.6-3.1
		c0.2-0.3,0.4-0.5,0.7-0.6l0.4,0.3c0.4,0.3,0.7,0.4,1.1,0.4c0.5,0,0.8-0.3,0.8-0.6c-0.2-0.5-0.7-0.7-1.4-0.7c-0.7,0-1.4,0.2-2,0.9
		c-0.7,0.7-1,1.7-1.1,3.3L134.6,277.9z M149,283.5c-0.6,0.7-1.2,1-1.9,1c-1.3,0-2.2-0.9-2.2-3.1c0-2.2,1.1-3.1,2.3-3.1
		c0.6,0,1.1,0.2,1.8,0.9V283.5z M150.1,284.4V276l0-2.1l-0.2-0.1l-2.2,0.6v0.4l1.3,0.1v3.8c-0.7-0.8-1.4-1-2-1
		c-1.9,0-3.2,1.5-3.2,3.9c0,2.2,1.3,3.7,3.1,3.7c0.9,0,1.6-0.4,2.2-1.1l0.1,1.1l2.3-0.1v-0.4L150.1,284.4z M154,275.7
		c0.5,0,0.9-0.3,0.9-0.9c0-0.5-0.4-0.9-0.9-0.9c-0.5,0-0.9,0.3-0.9,0.9C153.1,275.4,153.5,275.7,154,275.7z M154.6,284.4
		c0-0.8,0-1.8,0-2.6v-2.1l0-2l-0.2-0.1l-2.2,0.7v0.5l1.3,0.1c0,0.7,0,1.3,0,2.1v0.8c0,0.7,0,1.8,0,2.6l-1.2,0.2v0.4h3.4v-0.4
		L154.6,284.4z M162.8,283.3c-0.5,0.7-1.3,1.1-2.2,1.1c-1.5,0-2.6-1.1-2.6-3.1c0-2,1-3.1,2.4-3.1c0.3,0,0.6,0.1,1,0.2l0.3,1
		c0.1,0.4,0.3,0.6,0.7,0.6c0.3,0,0.6-0.2,0.6-0.5c-0.3-1.1-1.3-1.9-2.6-1.9c-1.8,0-3.5,1.4-3.5,3.8c0,2.3,1.3,3.8,3.4,3.8
		c1.4,0,2.3-0.7,2.8-1.8L162.8,283.3z M165.5,280.8c0.2-1.8,1.2-2.6,2.2-2.6c1.1,0,1.8,0.9,1.8,1.9c0,0.4-0.1,0.8-0.8,0.8H165.5z
		 M170.5,281.3c0.1-0.2,0.1-0.5,0.1-0.9c0-1.8-1.2-2.9-2.8-2.9c-1.8,0-3.4,1.5-3.4,3.8c0,2.4,1.4,3.8,3.4,3.8c1.3,0,2.3-0.6,2.8-1.7
		l-0.3-0.2c-0.5,0.7-1.2,1.1-2.2,1.1c-1.5,0-2.6-1-2.6-3.1L170.5,281.3z M174.7,280.7c-1-0.4-1.4-0.7-1.4-1.4c0-0.7,0.5-1.2,1.5-1.2
		c0.4,0,0.8,0.1,1.2,0.3l0.3,1.2h0.6l0.1-1.5c-0.7-0.4-1.3-0.6-2.1-0.6c-1.7,0-2.6,1-2.6,2c0,1,0.7,1.6,1.8,2l0.7,0.3
		c1,0.4,1.5,0.7,1.5,1.4c0,0.8-0.6,1.3-1.8,1.3c-0.5,0-0.9-0.1-1.3-0.3l-0.3-1.4h-0.7l0.1,1.6c0.7,0.4,1.4,0.5,2.2,0.5
		c1.9,0,2.9-1,2.9-2.1c0-0.9-0.6-1.6-2-2.2L174.7,280.7z M179.9,285.2c0.5,0,0.9-0.4,0.9-0.9c0-0.5-0.4-1-0.9-1
		c-0.5,0-0.9,0.4-0.9,1C179,284.8,179.4,285.2,179.9,285.2z"/>
	<path d="M117.2,131.9c2.5-1,3.3-3.1,3.3-4.9c0-1.4-0.8-2.2-1.8-2.2s-1.7,0.7-1.7,1.6c0,1.3,1.1,1.9,2.1,2.1
		c-0.1,0.7-0.8,1.9-2.3,2.7L117.2,131.9z"/>
	<path d="M70,137.9l2.3-7.5l2.4,7.5H70z M79.5,143l-5.3-15.4h-1.9l-5,15.4l-1.9,0.3v0.8h5.1v-0.8l-2.2-0.3l1.3-4.2H75l1.4,4.3
		l-2.1,0.2v0.8h7.1v-0.8L79.5,143z M97.4,127.7h-5.9v0.8l2.6,0.3l0.1,8.2c0,4.1-1.4,5.7-4.1,5.7c-2.5,0-4-1.5-4-5.5v-2
		c0-2.2,0-4.4,0.1-6.5l2.2-0.2v-0.8H81v0.8l1.9,0.2c0.1,2.2,0.1,4.4,0.1,6.5v2.4c0,4.9,2.5,6.8,6.2,6.8c3.7,0,5.9-2.2,5.9-7.1
		l0.1-8.5l2.2-0.3V127.7z M113.8,136.1h-6.9v0.8l2.4,0.2c0,1.6,0.1,3.1,0.1,4.7v1.4c-0.6,0.2-1.3,0.3-2,0.3c-3.3,0-5.6-2.9-5.6-7.7
		c0-5.1,2.4-7.7,5.7-7.7c0.8,0,1.5,0.1,2.1,0.5l0.9,3.7h1.3l0-3.8c-1.4-0.8-2.9-1.2-4.8-1.2c-5.1,0-8.6,3.4-8.6,8.5
		c0,5.3,3.4,8.6,8.5,8.6c2,0,3.6-0.5,5.3-1.5v-1.1c0-1.7,0-3.3,0-4.9l1.5-0.2V136.1z M133.3,142.9c0-1.4-0.1-2.7-0.1-4.1v-7l0.1-3.5
		l-0.3-0.2l-5.5,1.3v0.8l2.9-0.3v8.9c0,1.4,0,2.7-0.1,4.1l-3.3,0.4v0.7h9.4v-0.7L133.3,142.9z M144.7,136.8c-1.8,0-3-1.5-3-4.1
		c0-2.7,1.2-3.9,2.6-3.9c1.6,0,2.6,1.5,2.6,5.6c0,0.6,0,1.2-0.1,1.7C146.2,136.5,145.5,136.8,144.7,136.8z M140.3,144.5
		c6-1.3,9.5-5.1,9.5-9.9c0-4.1-2.1-6.6-5.6-6.6c-3,0-5.5,1.8-5.5,5.1c0,3,2.1,4.8,4.8,4.8c1.3,0,2.3-0.4,3.1-1
		c-0.6,3.4-2.6,5.6-6.6,7L140.3,144.5z"/>
	<path class="st3" d="M74,79.4c-1.3,3-3.2,6.2-4.6,8.1l0.4,0.3c2-1.6,4.3-4.1,6.1-6.6c0.6,0.1,1-0.1,1.2-0.4L74,79.4z M54.3,79.9
		c1.6,1.9,3.6,5,3.9,7.4c2.3,1.9,4-3.3-3.5-7.6L54.3,79.9z M78.4,97.1H78c-0.4,2.2-0.8,4.4-1,5c-0.1,0.3-0.2,0.5-0.6,0.5
		c-0.5,0.1-1.5,0.1-2.9,0.1h-3c-1.2,0-1.3-0.2-1.3-0.7V90.7v-0.4h9.1c0.5,0,0.7-0.2,0.8-0.5c-1-1-2.8-2.3-2.8-2.3l-1.5,1.9h-8.5V79
		c0.7-0.1,1-0.4,1.1-0.8l-3.1-0.3v11.5H51.6l0.2,0.9h9c-0.4,7.1-2.3,11.4-9.5,14.6l0.2,0.4c8.4-2.7,10.9-7.1,11.5-15.1h4.2v12.1
		c0,1.6,0.5,2.1,3,2.1h3.3c4.9,0,5.8-0.3,5.8-1.3c0-0.4-0.2-0.7-0.8-0.9L78.4,97.1z M96,90.3c-2.4-0.9-3.8-2.2-3.8-4.4
		c0-2.6,2-3.9,4.7-3.9c1.1,0,2,0.2,2.9,0.8l0.7,3.8h1.6l0.2-4.2c-1.4-1.1-3.1-1.7-5.3-1.7c-4,0-7.1,2.1-7.1,5.9c0,3.2,2.1,5,5.5,6.4
		l1.2,0.5c3.1,1.3,4.4,2.3,4.4,4.5c0,2.8-2.2,4.3-5.5,4.3c-1.5,0-2.6-0.3-3.7-0.9l-0.7-4h-1.5l-0.1,4.5c1.4,0.9,3.8,1.7,6.2,1.7
		c4.4,0,7.6-2.3,7.6-6.1c0-3-1.6-4.8-6-6.6L96,90.3z M109.7,83.1c1.1,0,1.9-0.8,1.9-1.8c0-1.1-0.8-1.8-1.9-1.8c-1,0-1.9,0.7-1.9,1.8
		C107.8,82.4,108.6,83.1,109.7,83.1z M110.9,101.7c0-1.7-0.1-4-0.1-5.5v-4.4l0.1-4.3l-0.4-0.3l-4.7,1.6v1l2.8,0.2
		c0.1,1.5,0.1,2.7,0.1,4.6v1.7c0,1.5,0,3.8-0.1,5.5L106,102v1h7.3v-1L110.9,101.7z M128.5,99.3c-1.1,1.6-2.8,2.5-4.7,2.5
		c-3.2,0-5.5-2.5-5.5-6.7c0-4.2,2.2-6.7,5.2-6.7c0.6,0,1.3,0.1,2,0.4l0.7,2.3c0.2,0.8,0.6,1.3,1.5,1.3c0.7,0,1.2-0.4,1.3-1.1
		c-0.6-2.4-2.9-4-5.6-4c-3.9,0-7.5,3-7.5,8.1c0,5,2.9,8.1,7.3,8.1c2.9,0,4.9-1.4,5.9-3.8L128.5,99.3z M136.1,90.7
		c1.9-1.7,3.2-2,4.3-2c2.6,0,4.5,2.3,4.5,6.6c0,4.7-2.2,6.6-4.7,6.6c-1.3,0-2.8-0.5-4.2-1.9V90.7z M136,83.7l0.1-4.6l-0.4-0.3
		l-4.6,1.3V81l2.7,0.3v14.9c0,1.5,0,3.8-0.1,5.5l-2.6,0.4v1l4.6,0.3l0.2-2.3c1.5,1.8,3.2,2.4,4.7,2.4c3.9,0,6.6-3.4,6.6-8.3
		c0-4.9-2.7-7.9-6.2-7.9c-1.7,0-3.5,0.7-5.1,2.5V83.7z M157.8,103.4c3.7,0,7.3-2.6,7.3-8.1c0-5.5-3.7-8.2-7.3-8.2
		c-3.7,0-7.4,2.7-7.4,8.2C150.4,100.8,154.1,103.4,157.8,103.4z M157.8,102.2c-3,0-4.8-2.4-4.8-6.9c0-4.5,1.8-7,4.8-7
		c3,0,4.8,2.5,4.8,7C162.6,99.8,160.8,102.2,157.8,102.2z"/>
	<g>
		<path d="M76.7,101.2c1,0.4,1.2,0.8,1.2,1.5c0,1.5-1.3,2.2-6.2,2.2h-3c-3.1,0-3.8-0.7-3.8-3.1V90.3h-3.2
			c-0.6,7.5-3.2,12.8-12.1,15.4l-0.1-0.3c6.5-3.5,8.1-8.6,8.2-15.1h-7.9l-0.2-0.9h12.2V77.6l4.8,0.4c-0.1,0.4-0.3,0.7-1.1,0.8v10.6
			h6.7l2-2.5c0,0,2.3,1.7,3.6,2.9c-0.1,0.3-0.4,0.5-0.8,0.5h-8.5v0.5v10c0,0.5,0.2,0.7,1.1,0.7H72c0.9,0,1.6,0,2.1-0.1
			c0.4,0,0.5-0.1,0.8-0.4c0.3-0.6,0.8-2.4,1.4-4.6h0.3L76.7,101.2z M52.5,79.5c9.6,3.4,6.3,10.8,2.8,7.8c-0.2-2.6-1.6-5.5-3.1-7.6
			L52.5,79.5z M76,81.4c-0.1,0.3-0.6,0.6-1.2,0.5c-2.1,2.4-4.6,4.7-7,6.2l-0.3-0.2c1.1-2.1,2.6-5.5,3.7-8.6L76,81.4z"/>
		<path d="M96.6,90.2c4.4,1.9,6.1,3.7,6.1,7c0,3.9-3.1,6.5-8.3,6.5c-2.5,0-5.1-0.7-6.7-1.8l0.2-5h1.7l1.3,4.8c1,0.5,2,0.6,3.2,0.6
			c3.1,0,4.9-1.4,4.9-3.9c0-2.1-1-3.1-3.7-4.3l-1.4-0.6c-3.8-1.6-5.9-3.6-5.9-7c0-4,3.2-6.2,7.8-6.2c2.3,0,4.3,0.7,5.8,1.7l-0.2,4.7
			h-1.7l-1.3-4.6c-0.7-0.3-1.4-0.4-2.3-0.4c-2.6,0-4.5,1.3-4.5,3.7c0,2.1,1.2,3.3,3.4,4.2L96.6,90.2z"/>
		<path d="M113.3,102.2v0.9h-8.3v-0.9l2.2-0.3c0-1.7,0.1-4.2,0.1-5.8v-2.1c0-1.9,0-3.1-0.1-4.6l-2.4-0.2v-0.8l6.1-1.7l0.4,0.3
			l-0.1,4.7V96c0,1.6,0,4.2,0.1,5.9L113.3,102.2z M106.8,81c0-1.4,1.1-2.3,2.4-2.3c1.3,0,2.4,0.9,2.4,2.3c0,1.3-1.1,2.2-2.4,2.2
			C107.9,83.2,106.8,82.3,106.8,81z"/>
		<path d="M125.6,87.8c-0.4-0.1-0.8-0.1-1.2-0.1c-2.8,0-4.9,2.6-4.9,7c0,4.3,2.2,6.9,5.4,6.9c1.8,0,3.2-0.8,4.3-2.3l0.6,0.3
			c-1.2,2.5-3.4,3.9-6.5,3.9c-4.5,0-8-3.1-8-8.5c0-5.4,3.9-8.5,8.5-8.5c3.2,0,5.5,1.9,6,4.5c-0.3,1-0.8,1.4-1.7,1.4
			c-1.1,0-2-0.6-2.2-2.3L125.6,87.8z"/>
		<path d="M137.7,88.8c1.5-1.6,3.3-2.3,5.1-2.3c3.7,0,6.5,3,6.5,8.4c0,5-2.8,8.6-6.8,8.6c-1.7,0-3.4-0.6-4.8-2.2l-0.5,2.1l-5.5-0.4
			v-0.9l2.2-0.2c0-1.7,0.1-4.2,0.1-5.9V80.9l-2.4-0.2v-0.8l5.9-1.3l0.4,0.3l-0.1,4.8V88.8z M137.8,100.4c1,0.9,2,1.3,3.1,1.3
			c2.3,0,4.2-1.5,4.2-6.7c0-4.6-1.7-6.6-4.1-6.6c-1,0-2,0.2-3.2,1.3V100.4z"/>
		<path d="M151.9,95c0-5.4,3.7-8.5,8.1-8.5c4.3,0,8.1,3.1,8.1,8.5c0,5.4-3.5,8.5-8.1,8.5C155.3,103.6,151.9,100.4,151.9,95z
			 M163.8,95.1c0-4.9-1.4-7.4-3.9-7.4c-2.5,0-3.9,2.4-3.9,7.4c0,5,1.4,7.4,3.9,7.4C162.4,102.5,163.8,100,163.8,95.1z"/>
	</g>
</g>
</svg>
