<svg width="216" height="305" viewBox="0 0 216 305" fill="none" xmlns="http://www.w3.org/2000/svg">
<rect x="2" y="2" width="212" height="301" rx="18" fill="url(#paint0_linear)" stroke="#3C0300" stroke-width="4"/>
<rect x="5" y="5" width="206" height="295" rx="14" fill="url(#paint1_linear)" stroke="#FF531D" stroke-width="2"/>
<path d="M81.9732 118.416C80.6412 122.124 78.8412 126.3 77.5092 128.784L77.9052 129.072C80.7132 127.2 83.7012 124.5 86.2572 121.584C87.0492 121.692 87.5532 121.404 87.7332 121.008L81.9732 118.416ZM59.1852 118.956C60.9492 121.44 62.6052 124.932 62.8572 128.064C67.1052 131.664 71.0652 122.808 59.5092 118.74L59.1852 118.956ZM88.4172 139.044H88.0212C87.3012 141.6 86.6892 143.76 86.2932 144.516C86.0412 144.912 85.8612 145.02 85.3932 145.056C84.8892 145.092 83.9892 145.128 82.9092 145.128H79.9572C78.8772 145.128 78.6612 144.912 78.6612 144.336V132.276V131.7H88.8132C89.3172 131.7 89.7132 131.52 89.8212 131.124C88.1652 129.648 85.4652 127.596 85.4652 127.596L83.0172 130.656H74.9532V117.912C75.9252 117.768 76.2132 117.408 76.2852 116.904L70.5612 116.4V130.656H55.9452L56.2332 131.7H65.7372C65.5212 139.476 63.6132 145.524 55.8372 149.772L56.0172 150.168C66.7092 147.072 69.8772 140.736 70.5612 131.7H74.3772V145.416C74.3772 148.404 75.2412 149.196 78.9132 149.196H82.4772C88.4172 149.196 89.9652 148.368 89.9652 146.604C89.9652 145.74 89.7132 145.236 88.5612 144.768L88.4172 139.044ZM124.416 139.584H129.168V116.94H124.416V122.808H118.404V126.66H124.416V139.584ZM121.248 131.916C116.064 130.224 113.796 126.156 113.796 122.088V118.632H109.008V121.764C109.008 126.228 106.74 130.656 101.232 132.492L103.716 136.236C107.46 134.94 110.016 132.384 111.456 129.144C112.86 132.096 115.272 134.4 118.764 135.588L121.248 131.916ZM120.528 137.676H115.668V138.396C115.668 141.528 112.14 145.344 105.156 146.316L106.92 149.988C112.248 149.268 116.064 146.892 118.044 143.796C120.024 146.928 123.84 149.232 129.24 149.988L130.968 146.316C123.912 145.344 120.528 141.744 120.528 138.396V137.676ZM140.578 123.852H151.306V120H135.862V142.212H138.67C144.43 142.212 148.966 142.032 153.97 141.132L153.502 137.208C149.218 137.928 145.294 138.18 140.578 138.252V123.852ZM165.346 129.18H160.522V116.94H155.77V150.168H160.522V133.104H165.346V129.18ZM111.847 172.288H103.099V173.584L106.591 174.052L101.587 193.276L95.9713 174.016L99.8593 173.584V172.288H88.6273V173.584L92.2273 174.016L86.5393 193.132L81.4993 173.944L84.9913 173.584V172.288H73.5073V173.584L76.2793 173.872L83.6233 199.144H86.2513L92.4433 178.588L98.8513 199.144H101.443L108.463 174.052L111.847 173.584V172.288ZM121.749 195.328C120.093 196.696 119.193 197.236 118.005 197.236C116.277 197.236 115.125 196.228 115.125 194.104C115.125 191.872 116.205 190.216 119.049 189.1C119.661 188.848 120.669 188.56 121.749 188.236V195.328ZM129.273 196.516C128.625 197.38 128.193 197.704 127.653 197.704C126.861 197.704 126.357 197.164 126.357 195.544V186.256C126.357 181.216 124.377 179.164 119.661 179.164C114.657 179.164 111.669 181.18 111.201 184.42C111.417 185.5 112.173 186.076 113.361 186.076C114.585 186.076 115.557 185.284 115.701 183.304L116.205 180.712C116.853 180.568 117.465 180.496 118.077 180.496C120.777 180.496 121.749 181.54 121.749 185.356V187.192C120.345 187.516 118.905 187.912 117.825 188.272C112.281 190 110.625 191.764 110.625 194.752C110.625 197.776 112.821 199.576 115.845 199.576C118.509 199.576 119.913 198.46 121.893 196.372C122.361 198.316 123.621 199.54 125.817 199.54C127.725 199.54 128.985 198.856 129.921 197.056L129.273 196.516ZM138.454 179.524L137.95 179.2L131.038 181.396V182.296L133.882 182.584C133.99 184.312 134.026 185.608 134.026 187.948V190.54C134.026 192.52 133.99 195.508 133.954 197.56L131.326 197.884V199H142.162V197.884L138.85 197.452C138.814 195.4 138.778 192.484 138.778 190.54V187.336C139.534 184.816 140.506 183.232 142.018 182.044L142.414 182.476C143.314 183.52 144.07 184.204 145.258 184.204C146.95 184.204 147.634 183.088 147.742 181.468C147.31 179.776 146.014 179.164 144.502 179.164C142.342 179.164 139.93 181.072 138.778 184.528L138.454 179.524Z" fill="#1D0000"/>
<path d="M64.0854 263.438C67.7094 263.15 70.9014 262.046 72.2214 260.054C73.5414 262.046 76.7094 263.15 80.3094 263.438L80.9094 261.95C76.9014 261.686 73.6614 260.366 73.3254 258.23H79.9494V256.742H73.2054V254.702H71.2374V256.742H64.4694V258.23H71.1174C70.7814 260.366 67.4934 261.686 63.5094 261.95L64.0854 263.438ZM81.9174 265.91V264.398H62.5014V265.91H71.2134V267.902H64.8054V269.366H77.5014V271.19H64.8774V276.134H80.0934V274.646H66.7974V272.606H79.4454V267.902H73.2054V265.91H81.9174ZM92.1875 256.718H90.2435V260.582C90.2435 264.662 87.6275 268.79 84.4595 270.302L85.6595 271.91C88.1795 270.614 90.2435 267.926 91.2275 264.686C92.2595 267.758 94.3235 270.302 96.7715 271.502L97.9475 269.918C94.7555 268.478 92.1875 264.518 92.1875 260.582V256.718ZM100.204 254.846V276.422H102.172V254.846H100.204ZM122.038 266.606C122.158 265.838 122.23 265.046 122.23 264.134C122.23 263.222 122.158 262.43 122.038 261.662H124.966V266.606H122.038ZM117.622 269.822C115.918 269.822 114.814 267.638 114.814 264.134C114.814 260.654 115.918 258.47 117.622 258.47C119.35 258.47 120.43 260.654 120.43 264.134C120.43 267.638 119.35 269.822 117.622 269.822ZM124.966 260.054H121.63C120.886 257.894 119.494 256.646 117.622 256.646C114.838 256.646 113.038 259.526 113.038 264.134C113.038 268.766 114.838 271.646 117.622 271.646C119.494 271.646 120.862 270.398 121.63 268.238H124.966V275.318H126.838V255.326H124.966V260.054ZM129.19 254.846V276.374H131.062V254.846H129.19ZM146.348 260.438V262.046H150.596V267.686H152.588V254.87H150.596V260.438H146.348ZM147.548 265.334C144.428 264.23 142.316 261.518 142.316 258.758V258.014H147.044V256.43H135.548V258.014H140.348V258.758C140.348 261.854 138.14 264.758 134.924 265.934L135.956 267.494C138.476 266.534 140.468 264.518 141.38 262.022C142.316 264.23 144.164 266.006 146.564 266.87L147.548 265.334ZM145.484 274.838C142.244 274.838 140.276 273.926 140.276 272.366C140.276 270.806 142.244 269.87 145.484 269.87C148.724 269.87 150.692 270.806 150.692 272.366C150.692 273.926 148.724 274.838 145.484 274.838ZM145.484 268.358C141.068 268.358 138.308 269.822 138.308 272.366C138.308 274.91 141.068 276.374 145.484 276.374C149.9 276.374 152.66 274.91 152.66 272.366C152.66 269.822 149.9 268.358 145.484 268.358Z" fill="white"/>
<defs>
<linearGradient id="paint0_linear" x1="108" y1="0" x2="108" y2="305" gradientUnits="userSpaceOnUse">
<stop stop-color="#DA241C"/>
<stop offset="1" stop-color="#560501"/>
</linearGradient>
<linearGradient id="paint1_linear" x1="108" y1="4" x2="108" y2="301" gradientUnits="userSpaceOnUse">
<stop stop-color="#DA241C"/>
<stop offset="1" stop-color="#560501"/>
</linearGradient>
</defs>
</svg>
