<svg width="216" height="305" viewBox="0 0 216 305" fill="none" xmlns="http://www.w3.org/2000/svg">
<rect x="2" y="2" width="212" height="301" rx="18" fill="url(#paint0_linear)" stroke="#3C0300" stroke-width="4"/>
<rect x="5" y="5" width="206" height="295" rx="14" fill="url(#paint1_linear)" stroke="#FF531D" stroke-width="2"/>
<path d="M78.9732 113.416C77.6412 117.124 75.8412 121.3 74.5092 123.784L74.9052 124.072C77.7132 122.2 80.7012 119.5 83.2572 116.584C84.0492 116.692 84.5532 116.404 84.7332 116.008L78.9732 113.416ZM56.1852 113.956C57.9492 116.44 59.6052 119.932 59.8572 123.064C64.1052 126.664 68.0652 117.808 56.5092 113.74L56.1852 113.956ZM85.4172 134.044H85.0212C84.3012 136.6 83.6892 138.76 83.2932 139.516C83.0412 139.912 82.8612 140.02 82.3932 140.056C81.8892 140.092 80.9892 140.128 79.9092 140.128H76.9572C75.8772 140.128 75.6612 139.912 75.6612 139.336V127.276V126.7H85.8132C86.3172 126.7 86.7132 126.52 86.8212 126.124C85.1652 124.648 82.4652 122.596 82.4652 122.596L80.0172 125.656H71.9532V112.912C72.9252 112.768 73.2132 112.408 73.2852 111.904L67.5612 111.4V125.656H52.9452L53.2332 126.7H62.7372C62.5212 134.476 60.6132 140.524 52.8372 144.772L53.0172 145.168C63.7092 142.072 66.8772 135.736 67.5612 126.7H71.3772V140.416C71.3772 143.404 72.2412 144.196 75.9132 144.196H79.4772C85.4172 144.196 86.9652 143.368 86.9652 141.604C86.9652 140.74 86.7132 140.236 85.5612 139.768L85.4172 134.044ZM110.544 124.9H104.064V117.808H110.544V124.9ZM115.224 114.064H99.4204V128.68H115.224V114.064ZM124.98 135.772V132.064H102.768V135.772H111.156C110.472 138.292 107.304 140.704 101.328 141.388L103.056 144.988C108.348 144.304 112.02 142.216 113.892 139.444C115.8 142.216 119.436 144.376 124.692 145.024L126.42 141.424C120.516 140.704 117.348 138.22 116.592 135.772H124.98ZM124.548 119.14V111.94H119.796V130.48H124.548V123.028H128.94V119.14H124.548ZM157.378 133.828C158.71 126.772 158.71 122.092 158.71 117.952V114.784H134.626V118.564H153.958C153.958 122.416 153.886 127.024 152.626 133.288L157.378 133.828ZM146.938 137.284V125.872H142.186V137.284H131.602V141.1H161.59V137.284H146.938ZM67.3122 192.236C67.2402 190.004 67.2042 187.772 67.2042 185.54V174.092L67.3482 168.296L66.8442 167.9L57.7722 170.06V171.392L62.4522 170.924V185.54C62.4522 187.772 62.4162 190.004 62.3442 192.236L57.0162 192.884V194H72.4602V192.884L67.3122 192.236ZM95.2468 194.576C100.755 194.576 104.967 190.796 104.967 184.316C104.967 177.836 100.467 174.164 95.2468 174.164C89.9908 174.164 85.5268 177.872 85.5268 184.316C85.5268 190.76 89.6668 194.576 95.2468 194.576ZM95.2468 193.244C92.2588 193.244 90.6028 190.328 90.6028 184.352C90.6028 178.412 92.2588 175.496 95.2468 175.496C98.1628 175.496 99.8908 178.412 99.8908 184.352C99.8908 190.328 98.1628 193.244 95.2468 193.244ZM127.542 192.596C127.506 190.544 127.47 187.592 127.47 185.54V181.148C127.47 176.324 125.346 174.164 121.962 174.164C119.622 174.164 117.39 175.172 115.122 177.8L114.87 174.524L114.366 174.2L107.454 176.396V177.296L110.298 177.584C110.406 179.312 110.442 180.608 110.442 182.948V185.54C110.442 187.52 110.406 190.508 110.37 192.56L107.742 192.884V194H117.606V192.884L115.266 192.596C115.23 190.544 115.194 187.52 115.194 185.54V179.06C116.958 177.44 118.578 176.72 119.91 176.72C121.854 176.72 122.754 177.8 122.754 180.932V185.54C122.754 187.592 122.718 190.544 122.646 192.56L120.126 192.884V194H129.99V192.884L127.542 192.596ZM153.304 192.236C153.232 190.004 153.196 187.772 153.196 185.54V174.092L153.34 168.296L152.836 167.9L143.764 170.06V171.392L148.444 170.924V185.54C148.444 187.772 148.408 190.004 148.336 192.236L143.008 192.884V194H158.452V192.884L153.304 192.236Z" fill="#1D0000"/>
<path d="M64.0854 259.154C67.7094 258.866 70.9014 257.762 72.2214 255.77C73.5414 257.762 76.7094 258.866 80.3094 259.154L80.9094 257.666C76.9014 257.402 73.6614 256.082 73.3254 253.946H79.9494V252.458H73.2054V250.418H71.2374V252.458H64.4694V253.946H71.1174C70.7814 256.082 67.4934 257.402 63.5094 257.666L64.0854 259.154ZM81.9174 261.626V260.114H62.5014V261.626H71.2134V263.618H64.8054V265.082H77.5014V266.906H64.8774V271.85H80.0934V270.362H66.7974V268.322H79.4454V263.618H73.2054V261.626H81.9174ZM92.1875 252.434H90.2435V256.298C90.2435 260.378 87.6275 264.506 84.4595 266.018L85.6595 267.626C88.1795 266.33 90.2435 263.642 91.2275 260.402C92.2595 263.474 94.3235 266.018 96.7715 267.218L97.9475 265.634C94.7555 264.194 92.1875 260.234 92.1875 256.298V252.434ZM100.204 250.562V272.138H102.172V250.562H100.204ZM122.038 262.322C122.158 261.554 122.23 260.762 122.23 259.85C122.23 258.938 122.158 258.146 122.038 257.378H124.966V262.322H122.038ZM117.622 265.538C115.918 265.538 114.814 263.354 114.814 259.85C114.814 256.37 115.918 254.186 117.622 254.186C119.35 254.186 120.43 256.37 120.43 259.85C120.43 263.354 119.35 265.538 117.622 265.538ZM124.966 255.77H121.63C120.886 253.61 119.494 252.362 117.622 252.362C114.838 252.362 113.038 255.242 113.038 259.85C113.038 264.482 114.838 267.362 117.622 267.362C119.494 267.362 120.862 266.114 121.63 263.954H124.966V271.034H126.838V251.042H124.966V255.77ZM129.19 250.562V272.09H131.062V250.562H129.19ZM146.348 256.154V257.762H150.596V263.402H152.588V250.586H150.596V256.154H146.348ZM147.548 261.05C144.428 259.946 142.316 257.234 142.316 254.474V253.73H147.044V252.146H135.548V253.73H140.348V254.474C140.348 257.57 138.14 260.474 134.924 261.65L135.956 263.21C138.476 262.25 140.468 260.234 141.38 257.738C142.316 259.946 144.164 261.722 146.564 262.586L147.548 261.05ZM145.484 270.554C142.244 270.554 140.276 269.642 140.276 268.082C140.276 266.522 142.244 265.586 145.484 265.586C148.724 265.586 150.692 266.522 150.692 268.082C150.692 269.642 148.724 270.554 145.484 270.554ZM145.484 264.074C141.068 264.074 138.308 265.538 138.308 268.082C138.308 270.626 141.068 272.09 145.484 272.09C149.9 272.09 152.66 270.626 152.66 268.082C152.66 265.538 149.9 264.074 145.484 264.074Z" fill="white"/>
<defs>
<linearGradient id="paint0_linear" x1="108" y1="0" x2="108" y2="305" gradientUnits="userSpaceOnUse">
<stop stop-color="#DA241C"/>
<stop offset="1" stop-color="#560501"/>
</linearGradient>
<linearGradient id="paint1_linear" x1="108" y1="4" x2="108" y2="301" gradientUnits="userSpaceOnUse">
<stop stop-color="#DA241C"/>
<stop offset="1" stop-color="#560501"/>
</linearGradient>
</defs>
</svg>
