<?xml version="1.0" encoding="utf-8"?>
<!-- Generator: Adobe Illustrator 22.0.1, SVG Export Plug-In . SVG Version: 6.00 Build 0)  -->
<svg version="1.1" id="레이어_1" xmlns="http://www.w3.org/2000/svg" xmlns:xlink="http://www.w3.org/1999/xlink" x="0px"
	 y="0px" viewBox="0 0 216 305" style="enable-background:new 0 0 216 305;" xml:space="preserve">
<style type="text/css">
	.st0{fill:#DA241C;}
	.st1{fill:none;stroke:#000000;stroke-width:3;}
	.st2{fill:#FFFFFF;stroke:#000000;stroke-width:2;}
	.st3{fill:#FFFFFF;}
</style>
<g>
	<path class="st0" d="M20,0h176c11,0,20,9,20,20v265c0,11-9,20-20,20H20c-11,0-20-9-20-20V20C0,9,9,0,20,0z"/>
	<path class="st1" d="M26.9,8.4h162.2c10.2,0,18.5,8.3,18.5,18.5v251.3c0,10.2-8.3,18.5-18.5,18.5H26.9c-10.2,0-18.5-8.3-18.5-18.5
		V26.9C8.4,16.6,16.7,8.4,26.9,8.4z"/>
	<path class="st2" d="M181.3,99.8c0,40.4-33,73.1-73.7,73.1c-40.7,0-73.7-32.7-73.7-73.1s33-73.1,73.7-73.1
		C148.3,26.7,181.3,59.4,181.3,99.8z"/>
	<path d="M110.6,181.2c-64.4-6-102.8,11.1-102.8,11.1v89.5l3,7.7l6,6H194l6.5-2.6l4-3.4l2.9-10.3v-70.7
		C207.4,208.6,175,187.2,110.6,181.2z"/>
	<path class="st3" d="M19.3,253.9v0.9h2.5v4.8H23v-9.2h-1.2v3.5H19.3z M20.1,256.9c-1.8-0.6-3.1-2.2-3.1-3.8v-0.6h2.8v-0.9h-6.7v0.9
		h2.8v0.6c0,1.8-1.3,3.4-3.2,4.1l0.6,0.9c1.5-0.5,2.6-1.7,3.2-3.1c0.5,1.3,1.6,2.3,3,2.8L20.1,256.9z M16.1,261.8v-2.9H15v3.9h8.4
		v-0.9H16.1z M31.2,262.2c-2,0-3.2-0.4-3.2-1.1c0-0.7,1.1-1.1,3.2-1.1c2,0,3.1,0.4,3.1,1.1C34.4,261.8,33.3,262.2,31.2,262.2z
		 M31.2,259c-2.7,0-4.3,0.7-4.3,2c0,1.3,1.6,2,4.3,2c2.7,0,4.3-0.7,4.3-2C35.5,259.7,34,259,31.2,259z M31.8,257.1v-1.2h3.8V255
		h-7.4v-1.2h7v-0.9h-7v-1.2h7.3v-0.9H27v5.1h3.6v1.2h-5.1v0.9h11.4v-0.9H31.8z M45.8,256.6c-1.8-0.6-3.1-2.2-3.1-3.8v-0.5h2.8v-0.9
		h-6.7v0.9h2.8v0.5c0,1.8-1.3,3.5-3.2,4.1l0.6,0.9c1.5-0.5,2.6-1.7,3.2-3.1c0.6,1.3,1.6,2.3,3,2.8L45.8,256.6z M40.4,259.6h7.2v3.4
		h1.2v-4.4h-8.4V259.6z M47.6,250.5v3.3h-2.5v0.9h2.5v3.3h1.2v-7.5H47.6z M61.6,250.5h-1.1v9.2h1.1V250.5z M52.7,254.4
		c0-1.2,0.9-2.1,2.1-2.1c1.2,0,2.2,0.9,2.2,2.1c0,1.2-0.9,2.1-2.2,2.1C53.7,256.6,52.7,255.7,52.7,254.4z M58.2,254.4
		c0-1.8-1.4-3.1-3.3-3.1c-1.9,0-3.3,1.3-3.3,3.1c0,1.8,1.4,3.1,3.3,3.1C56.7,257.5,58.2,256.3,58.2,254.4z M54.7,261.8v-3.1h-1.1v4
		H62v-0.9H54.7z M75.4,256.4c-1.9-0.6-3.2-2.3-3.2-4.1v-1.2h-1.1v1.2c0,1.9-1.3,3.6-3.2,4.3l0.6,0.9c1.5-0.6,2.6-1.7,3.2-3.2
		c0.6,1.4,1.7,2.5,3.1,3L75.4,256.4z M69.7,259.6H77v3.4h1.1v-4.4h-8.4V259.6z M77,250.5v7.5h1.1v-7.5H77z M83.2,254.6h6.4v2.3h-6.4
		V254.6z M86.9,260.5v-2.7h3.8v-6.4h-1.1v2.2h-6.4v-2.2H82v6.4h3.8v2.7h-5.1v0.9h11.4v-0.9H86.9z M104.1,255.6H102
		c0.4-1.1,0.6-2.3,0.6-3.5h-4.8v0.9h3.7c-0.2,2.6-1.6,4.9-4.2,6.5l0.7,0.8c1.7-1,2.9-2.3,3.7-3.8h2.6v5.9h1.1v-11.6h-1.1V255.6z
		 M106.7,250.5V263h1.1v-12.6H106.7z M119.2,250.5v7.2h1.1v-7.2H119.2z M112.2,258.3v4.5h8.1v-4.5H112.2z M119.2,259.3v2.7h-5.9
		v-2.7H119.2z M113.6,251.1c-1.9,0-3.3,1.2-3.3,2.9c0,1.7,1.4,2.9,3.3,2.9c1.9,0,3.3-1.2,3.3-2.9
		C116.9,252.3,115.5,251.1,113.6,251.1z M113.6,252.1c1.3,0,2.2,0.8,2.2,2c0,1.2-0.9,2-2.2,2c-1.2,0-2.1-0.8-2.1-2
		C111.5,252.9,112.4,252.1,113.6,252.1z M132.1,250.5v12.6h1.1v-12.6H132.1z M126.6,251.4c-1.9,0-3.2,1.7-3.2,4.4
		c0,2.7,1.3,4.4,3.2,4.4s3.2-1.7,3.2-4.4C129.8,253.2,128.4,251.4,126.6,251.4z M126.6,252.5c1.2,0,2.1,1.3,2.1,3.3
		c0,2-0.9,3.4-2.1,3.4c-1.2,0-2.1-1.3-2.1-3.4C124.5,253.8,125.3,252.5,126.6,252.5z M140.3,252.7h3v-1h-7v1h2.9v1.6
		c0,2.2-1.5,4.5-3.3,5.4l0.7,0.9c1.4-0.7,2.7-2.3,3.2-4.1c0.6,1.7,1.8,3.2,3.3,3.8l0.6-0.9c-1.8-0.8-3.4-3-3.4-5.1V252.7z
		 M144.9,250.5V263h1.1v-12.5H144.9z M153.8,256.5h-3.5v-4h3.5V256.5z M155,251.6h-5.8v5.8h5.8V251.6z M151.8,258.8h-1.1v3.9h8.4
		v-0.9h-7.2V258.8z M158.4,254.3v-3.8h-1.1v9.2h1.1v-4.4h1.8v-1H158.4z M166.3,256.6c1.9-0.3,3.8-1.4,4.6-2.9
		c0.8,1.5,2.6,2.5,4.6,2.9l0.4-0.9c-2.2-0.3-4.4-1.8-4.4-3.4v-0.1h3.9v-0.9h-9.2v0.9h4v0.1c0,1.7-2.2,3.1-4.4,3.4L166.3,256.6z
		 M176.5,257.6h-11.3v0.9h5.1v4.5h1.1v-4.5h5.1L176.5,257.6z M182.3,251.6h-1.1v2.3c0,2.3-1.4,4.7-3.2,5.6l0.7,0.9
		c1.4-0.8,2.6-2.3,3.1-4.2c0.6,1.7,1.7,3.2,3,3.9l0.7-0.9c-1.8-0.9-3.2-3.2-3.2-5.4V251.6z M189.8,255.6h-2.1v-5.1h-1.1V263h1.1
		v-6.5h2.1V255.6z M195,252c1.2,0,2.1,0.7,2.1,1.6c0,1-0.9,1.6-2.1,1.6c-1.2,0-2.1-0.7-2.1-1.6C192.9,252.7,193.8,252,195,252z
		 M195,256.2c1.9,0,3.2-1,3.2-2.6c0-1.5-1.3-2.6-3.2-2.6c-1.9,0-3.2,1.1-3.2,2.6C191.8,255.2,193.2,256.2,195,256.2z M199.2,256.8
		c-2.8,0.4-5.9,0.4-8.3,0.4l0.2,1c1,0,2.2,0,3.5-0.1v4.5h1.1v-4.5c1.2-0.1,2.4-0.2,3.6-0.4L199.2,256.8z M200.1,250.5V263h1.1v-12.6
		H200.1z M24.9,270.9h3.5V270h-4.7v7.9h0.8c1.9,0,3.1-0.1,4.6-0.4l-0.1-1c-1.4,0.3-2.6,0.4-4.2,0.4V270.9z M32.8,268.5v5h-1.8v-4.8
		H30v11.6h1.1v-6h1.8v6.6h1.1v-12.6H32.8z M46.5,268.5h-1.1v9.2h1.1V268.5z M43.7,274.7c-1.9-0.7-3.1-2.4-3.1-4.3v-1.3h-1.1v1.3
		c0,2-1.3,3.8-3.2,4.5l0.6,0.9c1.5-0.6,2.6-1.8,3.1-3.4c0.6,1.4,1.7,2.6,3.1,3.1L43.7,274.7z M39.5,279.8v-3h-1.1v3.9h8.5v-0.9H39.5
		z M60.2,270H57v-1.5h-1.1v1.5h-3.2v0.9h7.5V270z M54.6,274c0-0.9,0.8-1.4,1.9-1.4c1.1,0,1.9,0.6,1.9,1.4c0,0.9-0.8,1.4-1.9,1.4
		C55.4,275.4,54.6,274.8,54.6,274z M57,276.3c1.4-0.2,2.4-1,2.4-2.3c0-1.4-1.2-2.3-3-2.3s-3,0.9-3,2.3c0,1.2,1,2.1,2.4,2.3v1.4
		c-1.2,0-2.4,0-3.4,0l0.2,1c2.2,0,5.2,0,7.8-0.5l-0.1-0.9c-1.1,0.2-2.2,0.3-3.4,0.3V276.3z M64.3,273.8h-2v-5.3h-1.1V281h1.1v-6.3h2
		V273.8z M75.6,273.9h-7.5v-1.5h7v-0.9h-7V270h7.3v-0.9H67v5.7h8.6V273.9z M76.9,276.1H65.5v0.9h5.1v4h1.1v-4h5.1V276.1z
		 M82.8,269.8v0.9h4.5c0,0.8-0.2,1.5-0.4,2.2l-4.8,0.3l0.2,1l4.2-0.4c-0.8,1.7-2.2,3.1-4.5,4.3l0.6,0.9c4.5-2.2,5.7-5.6,5.7-9.2
		H82.8z M93.7,273.6h-2v-5.1h-1.1V281h1.1v-6.5h2V273.6z M105,274.5h-7.5v-3.9h7.4v-1h-8.5v5.8h8.6V274.5z M94.9,278.4v1h11.4v-1
		H94.9z M116.6,270.7h-7.3v2.7h8.7v-0.8h-7.6v-1.1h7.3v-2.6h-8.5v0.8h7.4V270.7z M110.3,278.9h7.4v-2.7h-8.6v0.8h7.5v1h-7.4v2.8h9
		V280h-7.8V278.9z M107.8,274.3v0.9h11.4v-0.9H107.8z M128.5,269.6h-1.1v2.3c0,2.3-1.4,4.7-3.2,5.6l0.7,0.9c1.4-0.8,2.6-2.3,3.1-4.2
		c0.6,1.7,1.7,3.2,3,3.9l0.7-0.9c-1.8-0.9-3.2-3.2-3.2-5.4V269.6z M136,273.6h-2.1v-5.1h-1.1V281h1.1v-6.5h2.1V273.6z M142.8,280.1
		c-2,0-3.1-0.5-3.1-1.3s1.2-1.3,3.1-1.3c2,0,3.1,0.5,3.1,1.3S144.8,280.1,142.8,280.1z M142.8,276.6c-2.7,0-4.3,0.8-4.3,2.2
		c0,1.4,1.6,2.2,4.3,2.2c2.7,0,4.3-0.8,4.3-2.2C147.1,277.4,145.5,276.6,142.8,276.6z M141.1,273.2c0.5,0.1,1.1,0.1,1.7,0.1
		c0.6,0,1.2-0.1,1.8-0.1v1.5h-3.5V273.2z M139.6,271c0-0.9,1.2-1.4,3.2-1.4s3.2,0.5,3.2,1.4c0,0.9-1.2,1.4-3.2,1.4
		S139.6,271.9,139.6,271z M145.7,274.7v-1.8c1-0.4,1.5-1,1.5-1.9c0-1.5-1.7-2.3-4.4-2.3c-2.7,0-4.4,0.9-4.4,2.3
		c0,0.9,0.5,1.5,1.5,1.9v1.8h-2.8v0.9h11.4v-0.9H145.7z M157.5,269.8h-3.1v-1.4h-1.1v1.4h-3.1v0.9h7.4V269.8z M151.8,273.5
		c0-0.8,0.8-1.3,1.9-1.3s1.9,0.5,1.9,1.3c0,0.8-0.8,1.3-1.9,1.3S151.8,274.3,151.8,273.5z M156.8,273.5c0-1.3-1.2-2.2-3-2.2
		c-1.8,0-3,0.9-3,2.2c0,1.3,1.2,2.2,3,2.2C155.5,275.7,156.8,274.8,156.8,273.5z M158.6,279.9H153v-1.4h5.6V279.9z M158.6,277.7H153
		v-1.3h-1.1v4.5h7.9v-4.5h-1.1V277.7z M161.6,271.7h-1.9v-3.2h-1.1v7.3h1.1v-3.1h1.9V271.7z M164.8,269.7h-1.1v8.1h1
		c2,0,4-0.1,6.2-0.6l-0.1-1c-2.1,0.4-4,0.6-5.9,0.6V269.7z M172,268.5V281h1.1v-12.5H172z M177.4,270.6h4.7v-1h-5.8v8.2h1
		c2.4,0,4-0.1,5.9-0.4l-0.1-1c-1.8,0.3-3.4,0.4-5.7,0.4V270.6z M187.5,273.4h-2.1v-5h-1.1v12.6h1.1v-6.7h2.1V273.4z M190.2,280.2
		c0.5,0,0.9-0.4,0.9-0.9c0-0.5-0.4-1-0.9-1s-0.9,0.4-0.9,1C189.3,279.8,189.7,280.2,190.2,280.2z"/>
	<path d="M60.5,138.9c1-0.9,2-1.8,2.6-2.4c3.5-3.1,5.1-4.6,5.1-6.6c0-2.3-1.4-4-4.4-4c-2.5,0-4.6,1.2-4.8,3.4
		c0.2,0.5,0.6,0.8,1.2,0.8c0.6,0,1.1-0.3,1.3-1.5l0.5-1.8c0.3-0.1,0.6-0.1,0.9-0.1c1.6,0,2.6,1.2,2.6,3.2c0,2-1,3.4-3.1,5.9
		c-1,1.1-2.1,2.4-3.3,3.8v1.6h9.6v-2.1H60.5z M73,133.5c0-5.5,1.1-6.9,2.4-6.9c1.2,0,2.4,1.5,2.4,6.9c0,5.5-1.1,7-2.4,7
		C74.2,140.6,73,139.1,73,133.5z M75.4,125.9c-2.6,0-5,2.2-5,7.7c0,5.5,2.4,7.8,5,7.8c2.6,0,4.9-2.3,4.9-7.8
		C80.4,128.1,78,125.9,75.4,125.9z M88.7,140c0-1.2-0.1-2.5-0.1-3.7v-6.9l0.1-3.2l-0.3-0.2l-5,1.2v0.7l2.6-0.3v8.7
		c0,1.2,0,2.5-0.1,3.7l-3,0.4v0.6h8.6v-0.6L88.7,140z M99.1,134.2c-1.7,0-2.7-1.3-2.7-3.7c0-2.6,1-3.8,2.3-3.8
		c1.4,0,2.4,1.4,2.4,5.2c0,0.6,0,1.2-0.1,1.7C100.4,134,99.8,134.2,99.1,134.2z M95.1,141.4c5.5-1.1,8.7-4.8,8.7-9.4
		c0-3.8-1.9-6.2-5.1-6.2c-2.8,0-5,1.8-5,4.9c0,2.8,1.9,4.4,4.4,4.4c1.1,0,2.1-0.3,2.8-0.9c-0.6,3.2-2.4,5.3-5.9,6.6L95.1,141.4z
		 M118.2,137.8h2.6v-13.5h-2.6v2h-4.5v2.1h4.5v1.4h-4.5v2.1h4.5V137.8z M115.6,132.7c-2.3,0.4-4.3,0.5-6.5,0.6v-7.9h-2.6v10h1.5
		c2.8,0,5.2-0.1,7.9-0.6L115.6,132.7z M111.4,140.3v-3.7h-2.6v5.8h12.6v-2.1H111.4z M133.9,140.6c-1.6,0-2.6-1.1-2.6-3.1
		c0-1.4,0.5-2.3,1.5-3.2c2.7,1.2,3.5,2.3,3.5,3.8C136.3,139.6,135.4,140.6,133.9,140.6z M133.9,126.6c1.4,0,2.1,1.1,2.1,2.6
		c0,1.4-0.3,2.4-1.3,3.4c-2.5-1.2-3.1-2.4-3.1-3.6C131.6,127.5,132.7,126.6,133.9,126.6z M135.3,132.8c2.1-1,2.9-2.3,2.9-3.5
		c0-1.9-1.4-3.4-4.2-3.4c-2.6,0-4.6,1.5-4.6,3.9c0,1.8,0.9,3.3,2.9,4.3c-2.1,0.8-3.3,2.1-3.3,3.8c0,2.1,1.6,3.5,4.7,3.5
		c3.1,0,5-1.6,5-4.1C138.7,135.3,137.6,133.9,135.3,132.8z M150.2,132.8v1.6h3.3v0.5h2.6v-10.7h-2.6v8.5H150.2z M146.4,126.3
		c1.3,0,2.1,0.3,2.1,1c0,0.7-0.8,1-2.1,1c-1.3,0-2.2-0.3-2.2-1C144.3,126.6,145.1,126.3,146.4,126.3z M146.4,130.1
		c2.7,0,4.6-1.1,4.6-2.7c0-1.7-1.9-2.8-4.6-2.8c-2.8,0-4.6,1.1-4.6,2.8C141.8,129,143.7,130.1,146.4,130.1z M145,135h2.6v-2.5
		c1.6-0.1,3.2-0.2,4.8-0.4l-0.2-1.6c-3.9,0.4-8.2,0.4-11.8,0.4l0.3,1.8c1.3,0,2.7,0,4.2,0V135z M145.8,140.8v-0.9h10.2v-4.3h-12.9
		v1.8h10.3v0.9h-10.2v4.4h13.3v-1.8H145.8z"/>
	<path class="st3" d="M84.8,79.4c-1.3,3-3.2,6.2-4.6,8.1l0.4,0.3c2-1.6,4.3-4.1,6.1-6.6c0.6,0.1,1-0.1,1.2-0.4L84.8,79.4z
		 M65.1,79.9c1.6,1.9,3.6,5,3.9,7.4c2.3,1.9,4-3.3-3.5-7.6L65.1,79.9z M89.1,97.1h-0.4c-0.4,2.2-0.8,4.4-1,5
		c-0.1,0.3-0.2,0.5-0.6,0.5c-0.4,0.1-1.5,0.1-2.9,0.1h-3c-1.2,0-1.4-0.2-1.4-0.7V90.7v-0.4H89c0.4,0,0.7-0.2,0.8-0.5
		c-1-1-2.8-2.3-2.8-2.3l-1.5,1.9H77V79c0.7-0.1,1-0.4,1.1-0.8L75,77.9v11.5H62.3l0.2,0.9h9c-0.4,7.1-2.3,11.4-9.5,14.6l0.2,0.4
		c8.4-2.7,10.9-7.1,11.5-15.1h4.2v12.1c0,1.6,0.5,2.1,3,2.1h3.3c4.9,0,5.8-0.3,5.8-1.3c0-0.4-0.1-0.7-0.8-0.9L89.1,97.1z M116.6,91
		c-4-1.4-6.8-4.9-6.8-8.8v-2.6h-2.5v2.6c0,4-2.7,7.8-6.8,9.2l1.3,2c3.2-1.2,5.6-3.7,6.8-6.9c1.2,3,3.6,5.3,6.7,6.4L116.6,91z
		 M104.4,97.9H120v7.4h2.5v-9.4h-18V97.9z M120,78.3v16.2h2.5V78.3H120z M133.3,87H147V92h-13.7V87z M141.4,99.8V94h8V80.2H147V85
		h-13.7v-4.8h-2.4V94h8v5.8H128v2h24.4v-2H141.4z"/>
	<g>
		<path d="M88.8,99.8c1,0.4,1.2,0.8,1.2,1.5c0,1.5-1.3,2.2-6.2,2.2h-3c-3.1,0-3.8-0.7-3.8-3.1V89h-3.2c-0.6,7.5-3.2,12.8-12.1,15.4
			l-0.1-0.3c6.5-3.5,8.1-8.6,8.2-15.1h-7.9l-0.2-0.9h12.2V76.2l4.8,0.4c-0.1,0.4-0.3,0.7-1.1,0.8v10.6h6.7l2-2.5
			c0,0,2.3,1.7,3.6,2.9C89.7,88.8,89.4,89,89,89h-8.5v0.5v10c0,0.5,0.2,0.7,1.1,0.7h2.5c0.9,0,1.6,0,2.1-0.1c0.4,0,0.5-0.1,0.8-0.4
			c0.3-0.6,0.8-2.4,1.4-4.6h0.3L88.8,99.8z M64.6,78.2c9.6,3.4,6.3,10.8,2.8,7.8c-0.2-2.6-1.6-5.5-3.1-7.6L64.6,78.2z M88.1,80
			c-0.1,0.3-0.6,0.6-1.2,0.5c-2.1,2.4-4.6,4.7-7,6.2l-0.3-0.2c1.1-2.1,2.6-5.5,3.7-8.6L88.1,80z"/>
		<path d="M110,77.8c0.1,0.1,0.1,0.3-0.1,0.7c-0.1,0.2-0.1,0.4-0.2,0.5c-0.1,0.2-0.1,0.4-0.1,0.6c0,1.6,0.5,3.2,1.6,5
			c1.2,2.1,2.8,3.6,4.8,4.6c-0.5,0.4-1,0.9-1.5,1.5c-0.5,0.5-0.9,1.1-1.3,1.6c-1.1-0.8-2.2-1.7-3.2-2.9c-1-1.2-1.7-2.4-2.1-3.4
			c-0.3,1.2-1,2.4-2,3.7c-1.1,1.4-2.3,2.5-3.7,3.3c-0.4-0.4-0.8-0.9-1.4-1.5c-0.6-0.5-1.1-1-1.6-1.4c2.2-1.2,3.8-2.7,4.9-4.6
			c1.2-2.1,1.8-4.8,1.8-8.1h2.4C109.3,77.6,109.9,77.6,110,77.8z M122.6,94.5V105h-3.9v-6.9h-16.5v-3.6H122.6z M122.8,77
			c0.1,0.1,0.1,0.3,0,0.6c-0.1,0.2-0.1,0.4-0.1,0.5c-0.1,0.2-0.1,0.5-0.1,0.7v14h-3.9V76.9h2.3C122,76.9,122.6,76.9,122.8,77z"/>
		<path d="M149,78.8c0.1,0.1,0.2,0.3,0.1,0.6c-0.1,0.1-0.1,0.3-0.1,0.4c0,0.1,0,0.3,0,0.4v12.9h-8c0,0,0,0.1-0.1,0.2
			c0,0.1-0.1,0.1-0.1,0.3c-0.1,0.2-0.1,0.4-0.2,0.6c-0.1,0.2-0.1,0.5-0.1,0.7v3h11v3.8h-25.3v-3.8h10.4v-4.8h-7.6V78.6h2.3
			c0.9,0,1.5,0.1,1.7,0.2c0.1,0.1,0.1,0.3,0,0.6c0,0.1-0.1,0.3-0.1,0.4c0,0.1,0,0.3,0,0.4v2.5h12.1v-4h2.2
			C148.2,78.6,148.8,78.7,149,78.8z M132.9,89.6h12.1v-3.5h-12.1V89.6z"/>
	</g>
</g>
</svg>
