<svg width="216" height="305" viewBox="0 0 216 305" fill="none" xmlns="http://www.w3.org/2000/svg">
<rect x="2" y="2" width="212" height="301" rx="18" fill="url(#paint0_linear)" stroke="#3C0300" stroke-width="4"/>
<rect x="5" y="5" width="206" height="295" rx="14" fill="url(#paint1_linear)" stroke="#FF531D" stroke-width="2"/>
<path d="M52.4537 118.416C51.1217 122.124 49.3217 126.3 47.9897 128.784L48.3857 129.072C51.1937 127.2 54.1817 124.5 56.7377 121.584C57.5297 121.692 58.0337 121.404 58.2137 121.008L52.4537 118.416ZM29.6657 118.956C31.4297 121.44 33.0857 124.932 33.3377 128.064C37.5857 131.664 41.5457 122.808 29.9897 118.74L29.6657 118.956ZM58.8977 139.044H58.5017C57.7817 141.6 57.1697 143.76 56.7737 144.516C56.5217 144.912 56.3417 145.02 55.8737 145.056C55.3697 145.092 54.4697 145.128 53.3897 145.128H50.4377C49.3577 145.128 49.1417 144.912 49.1417 144.336V132.276V131.7H59.2937C59.7977 131.7 60.1937 131.52 60.3017 131.124C58.6457 129.648 55.9457 127.596 55.9457 127.596L53.4977 130.656H45.4337V117.912C46.4057 117.768 46.6937 117.408 46.7657 116.904L41.0417 116.4V130.656H26.4257L26.7137 131.7H36.2177C36.0017 139.476 34.0937 145.524 26.3177 149.772L26.4977 150.168C37.1897 147.072 40.3577 140.736 41.0417 131.7H44.8577V145.416C44.8577 148.404 45.7217 149.196 49.3937 149.196H52.9577C58.8977 149.196 60.4457 148.368 60.4457 146.604C60.4457 145.74 60.1937 145.236 59.0417 144.768L58.8977 139.044ZM81.1449 130.728C78.4809 129.576 77.0049 128.172 77.0049 125.652C77.0049 122.808 79.2009 121.224 82.3689 121.224C83.4129 121.224 84.2409 121.368 85.0689 121.764L86.5809 127.308H88.5969L88.8489 121.656C86.9769 120.432 84.6729 119.64 81.8649 119.64C76.4289 119.64 72.5409 122.34 72.5409 127.092C72.5409 131.232 75.1329 133.572 79.6689 135.552L81.3249 136.272C84.4929 137.604 85.7169 138.864 85.7169 141.384C85.7169 144.372 83.4849 146.1 79.8129 146.1C78.3009 146.1 77.1489 145.92 75.9249 145.38L74.4129 139.584H72.3969L72.1809 145.56C74.1969 146.856 77.2929 147.684 80.2809 147.684C86.5089 147.684 90.2169 144.552 90.2169 139.836C90.2169 135.948 88.2729 133.788 82.9449 131.484L81.1449 130.728ZM98.1655 135.948C98.3815 130.692 100.362 128.496 102.63 128.496C104.826 128.496 106.374 130.368 106.374 133.284C106.374 135.12 105.978 135.948 104.322 135.948H98.1655ZM110.622 137.28C110.802 136.668 110.874 135.984 110.874 135.048C110.874 130.512 107.886 127.164 102.954 127.164C97.9135 127.164 93.1615 130.872 93.1615 137.352C93.1615 143.904 97.2655 147.576 102.918 147.576C106.482 147.576 109.218 145.884 110.658 142.932L109.938 142.428C108.678 144.12 107.13 145.2 104.538 145.2C101.046 145.2 98.3095 142.788 98.1655 137.28H110.622ZM123.518 147.576C129.026 147.576 133.238 143.796 133.238 137.316C133.238 130.836 128.738 127.164 123.518 127.164C118.262 127.164 113.798 130.872 113.798 137.316C113.798 143.76 117.938 147.576 123.518 147.576ZM123.518 146.244C120.53 146.244 118.874 143.328 118.874 137.352C118.874 131.412 120.53 128.496 123.518 128.496C126.434 128.496 128.162 131.412 128.162 137.352C128.162 143.328 126.434 146.244 123.518 146.244ZM147.788 144.336C146.816 145.056 146.168 145.416 145.232 145.416C143.792 145.416 142.892 144.588 142.892 142.572V129.252H147.68V127.74H142.928L143.036 122.052H139.94L138.392 127.704L135.044 128.064V129.252H138.14V138.684C138.14 140.124 138.104 141.132 138.104 142.284C138.104 145.956 139.94 147.576 143.252 147.576C145.7 147.576 147.392 146.64 148.436 145.02L147.788 144.336ZM163.655 143.832C162.539 144.876 161.459 145.272 160.163 145.272C157.175 145.272 154.979 143.076 154.979 137.352C154.979 131.448 157.391 129.432 160.235 129.432C161.351 129.432 162.467 129.792 163.655 130.8V143.832ZM168.407 145.668V123.528L168.515 117.84L168.011 117.516L160.739 119.064V120.072L163.835 120.324V129.684C162.359 127.92 160.631 127.164 158.651 127.164C153.719 127.164 149.939 131.052 149.939 137.568C149.939 143.76 153.467 147.576 158.183 147.576C160.487 147.576 162.323 146.64 163.763 144.984L164.015 147.396L171.107 147V145.884L168.407 145.668ZM184.409 143.328C182.753 144.696 181.853 145.236 180.665 145.236C178.937 145.236 177.785 144.228 177.785 142.104C177.785 139.872 178.865 138.216 181.709 137.1C182.321 136.848 183.329 136.56 184.409 136.236V143.328ZM191.933 144.516C191.285 145.38 190.853 145.704 190.313 145.704C189.521 145.704 189.017 145.164 189.017 143.544V134.256C189.017 129.216 187.037 127.164 182.321 127.164C177.317 127.164 174.329 129.18 173.861 132.42C174.077 133.5 174.833 134.076 176.021 134.076C177.245 134.076 178.217 133.284 178.361 131.304L178.865 128.712C179.513 128.568 180.125 128.496 180.737 128.496C183.437 128.496 184.409 129.54 184.409 133.356V135.192C183.005 135.516 181.565 135.912 180.485 136.272C174.941 138 173.285 139.764 173.285 142.752C173.285 145.776 175.481 147.576 178.505 147.576C181.169 147.576 182.573 146.46 184.553 144.372C185.021 146.316 186.281 147.54 188.477 147.54C190.385 147.54 191.645 146.856 192.581 145.056L191.933 144.516ZM87.0656 173.692C91.2776 173.692 93.2936 175.96 93.2936 180.208C93.2936 184.168 91.3496 186.904 86.8136 186.904H85.0496V184.78C85.0496 181.036 85.0496 177.328 85.1576 173.692H87.0656ZM86.7416 188.308C95.0576 188.308 98.0816 184.672 98.0816 180.208C98.0816 175.312 94.8776 172.288 87.2816 172.288H76.5536V173.584L79.9736 173.908C80.0456 177.544 80.0456 181.18 80.0456 184.78V186.544C80.0456 190.216 80.0456 193.852 79.9736 197.416L76.5536 197.74V199H89.0096V197.74L85.1576 197.38C85.0496 194.212 85.0496 191.116 85.0496 188.308H86.7416ZM119.993 179.74H112.865V180.892L115.817 181.288L111.389 194.356L106.637 181.216L109.517 180.892V179.74H99.1847V180.892L101.489 181.18L108.653 199.108H110.741L117.509 181.288L119.993 180.892V179.74ZM131.046 173.692C135.258 173.692 137.274 175.96 137.274 180.208C137.274 184.168 135.33 186.904 130.794 186.904H129.03V184.78C129.03 181.036 129.03 177.328 129.138 173.692H131.046ZM130.722 188.308C139.038 188.308 142.062 184.672 142.062 180.208C142.062 175.312 138.858 172.288 131.262 172.288H120.534V173.584L123.954 173.908C124.026 177.544 124.026 181.18 124.026 184.78V186.544C124.026 190.216 124.026 193.852 123.954 197.416L120.534 197.74V199H132.99V197.74L129.138 197.38C129.03 194.212 129.03 191.116 129.03 188.308H130.722Z" fill="#1D0000"/>
<path d="M32.1703 269.96H30.7783L29.7223 274.016C28.9303 274.328 28.1863 274.472 27.3703 274.472C23.7703 274.472 21.1303 271.784 21.1303 266.12C21.1303 260.504 23.8183 257.744 27.3703 257.744C28.1383 257.744 28.8343 257.864 29.5303 258.152L30.5863 262.256H31.9543L32.0023 258.104C30.3943 257.192 28.8343 256.76 26.9383 256.76C21.8023 256.76 17.5543 260.096 17.5543 266.096C17.5543 272.072 21.5143 275.456 26.8423 275.456C28.9303 275.456 30.6583 274.952 32.1943 274.088L32.1703 269.96ZM37.8647 266.096C37.8647 261.488 39.3527 257.744 42.5687 257.744C45.7847 257.744 47.2967 261.488 47.2967 266.096C47.2967 270.776 45.7847 274.472 42.5687 274.472C39.3527 274.472 37.8647 270.776 37.8647 266.096ZM42.5687 256.76C38.2247 256.76 34.2647 260.096 34.2647 266.096C34.2647 272.216 38.2007 275.456 42.5687 275.456C46.9367 275.456 50.8487 272.12 50.8487 266.096C50.8487 260.024 46.9367 256.76 42.5687 256.76ZM74.5735 258.056V257.192H68.8135L63.6295 270.728L58.3015 257.192H52.4455V258.056L54.9655 258.368L54.8695 273.872L52.3255 274.16V275H58.5655V274.16L56.0455 273.872V266.216C56.0455 265.208 55.9975 262.016 55.9255 259.616L61.9495 275H63.1255L68.9815 259.52L68.9335 267.08C68.8855 269.168 68.9335 271.568 68.8615 273.944L66.6535 274.16V275H74.5735V274.16L72.2695 273.944C72.2455 271.544 72.2455 269.12 72.2455 266.696V265.52C72.2455 263.12 72.2455 260.696 72.2695 258.272L74.5735 258.056ZM84.7483 258.056V257.192H76.7323V258.056L79.0123 258.272C79.0603 260.696 79.0603 263.12 79.0603 265.52V266.696C79.0603 269.144 79.0603 271.568 79.0123 273.944L76.7323 274.16V275H84.7483V274.16L82.4683 273.944C82.3963 271.544 82.3963 269.096 82.3963 266.696V265.52C82.3963 263.072 82.3963 260.672 82.4683 258.272L84.7483 258.056ZM104.497 257.192H98.0168V258.056L101.113 258.392L101.185 270.248L91.7768 257.192H86.7128V258.056L88.5368 258.272L88.9208 258.776L88.8008 273.872L86.5688 274.16V275H93.0488V274.16L89.9768 273.848L89.9048 260.168L100.513 275.096H102.169L102.289 258.368L104.497 258.056V257.192ZM122.781 266.36H115.245V267.2L117.885 267.464C117.933 269.192 117.957 270.872 117.957 272.624V274.184C117.261 274.376 116.565 274.472 115.773 274.472C112.221 274.472 109.677 271.328 109.677 266.096C109.677 260.576 112.317 257.744 115.917 257.744C116.781 257.744 117.525 257.888 118.245 258.248L119.253 262.232H120.669L120.717 258.08C119.229 257.216 117.597 256.76 115.485 256.76C109.917 256.76 106.101 260.432 106.101 266.072C106.101 271.808 109.821 275.456 115.341 275.456C117.573 275.456 119.301 274.928 121.149 273.872V272.696C121.149 270.8 121.173 269.072 121.197 267.392L122.781 267.2V266.36ZM136.313 264.152C134.537 263.384 133.553 262.448 133.553 260.768C133.553 258.872 135.017 257.816 137.129 257.816C137.825 257.816 138.377 257.912 138.929 258.176L139.937 261.872H141.281L141.449 258.104C140.201 257.288 138.665 256.76 136.793 256.76C133.169 256.76 130.577 258.56 130.577 261.728C130.577 264.488 132.305 266.048 135.329 267.368L136.433 267.848C138.545 268.736 139.361 269.576 139.361 271.256C139.361 273.248 137.873 274.4 135.425 274.4C134.417 274.4 133.649 274.28 132.833 273.92L131.825 270.056H130.481L130.337 274.04C131.681 274.904 133.745 275.456 135.737 275.456C139.889 275.456 142.361 273.368 142.361 270.224C142.361 267.632 141.065 266.192 137.513 264.656L136.313 264.152ZM148.068 266.096C148.068 261.488 149.556 257.744 152.772 257.744C155.988 257.744 157.5 261.488 157.5 266.096C157.5 270.776 155.988 274.472 152.772 274.472C149.556 274.472 148.068 270.776 148.068 266.096ZM152.772 256.76C148.428 256.76 144.468 260.096 144.468 266.096C144.468 272.216 148.404 275.456 152.772 275.456C157.14 275.456 161.052 272.12 161.052 266.096C161.052 260.024 157.14 256.76 152.772 256.76ZM167.287 266.096C167.287 261.488 168.775 257.744 171.991 257.744C175.207 257.744 176.719 261.488 176.719 266.096C176.719 270.776 175.207 274.472 171.991 274.472C168.775 274.472 167.287 270.776 167.287 266.096ZM171.991 256.76C167.647 256.76 163.687 260.096 163.687 266.096C163.687 272.216 167.623 275.456 171.991 275.456C176.359 275.456 180.271 272.12 180.271 266.096C180.271 260.024 176.359 256.76 171.991 256.76ZM199.723 257.192H193.243V258.056L196.339 258.392L196.411 270.248L187.003 257.192H181.939V258.056L183.763 258.272L184.147 258.776L184.027 273.872L181.795 274.16V275H188.275V274.16L185.203 273.848L185.131 260.168L195.739 275.096H197.395L197.515 258.368L199.723 258.056V257.192Z" fill="white"/>
<defs>
<linearGradient id="paint0_linear" x1="108" y1="0" x2="108" y2="305" gradientUnits="userSpaceOnUse">
<stop stop-color="#DA241C"/>
<stop offset="1" stop-color="#560501"/>
</linearGradient>
<linearGradient id="paint1_linear" x1="108" y1="4" x2="108" y2="301" gradientUnits="userSpaceOnUse">
<stop stop-color="#DA241C"/>
<stop offset="1" stop-color="#560501"/>
</linearGradient>
</defs>
</svg>
