<svg width="216" height="305" viewBox="0 0 216 305" fill="none" xmlns="http://www.w3.org/2000/svg">
<rect x="2" y="2" width="212" height="301" rx="18" fill="url(#paint0_linear)" stroke="#3C0300" stroke-width="4"/>
<rect x="5" y="5" width="206" height="295" rx="14" fill="url(#paint1_linear)" stroke="#FF531D" stroke-width="2"/>
<path d="M80.11 114.416C78.778 118.124 76.978 122.3 75.646 124.784L76.042 125.072C78.85 123.2 81.838 120.5 84.394 117.584C85.186 117.692 85.69 117.404 85.87 117.008L80.11 114.416ZM57.322 114.956C59.086 117.44 60.742 120.932 60.994 124.064C65.242 127.664 69.202 118.808 57.646 114.74L57.322 114.956ZM86.554 135.044H86.158C85.438 137.6 84.826 139.76 84.43 140.516C84.178 140.912 83.998 141.02 83.53 141.056C83.026 141.092 82.126 141.128 81.046 141.128H78.094C77.014 141.128 76.798 140.912 76.798 140.336V128.276V127.7H86.95C87.454 127.7 87.85 127.52 87.958 127.124C86.302 125.648 83.602 123.596 83.602 123.596L81.154 126.656H73.09V113.912C74.062 113.768 74.35 113.408 74.422 112.904L68.698 112.4V126.656H54.082L54.37 127.7H63.874C63.658 135.476 61.75 141.524 53.974 145.772L54.154 146.168C64.846 143.072 68.014 136.736 68.698 127.7H72.514V141.416C72.514 144.404 73.378 145.196 77.05 145.196H80.614C86.554 145.196 88.102 144.368 88.102 142.604C88.102 141.74 87.85 141.236 86.698 140.768L86.554 135.044ZM108.801 126.728C106.137 125.576 104.661 124.172 104.661 121.652C104.661 118.808 106.857 117.224 110.025 117.224C111.069 117.224 111.897 117.368 112.725 117.764L114.237 123.308H116.253L116.505 117.656C114.633 116.432 112.329 115.64 109.521 115.64C104.085 115.64 100.197 118.34 100.197 123.092C100.197 127.232 102.789 129.572 107.325 131.552L108.981 132.272C112.149 133.604 113.373 134.864 113.373 137.384C113.373 140.372 111.141 142.1 107.469 142.1C105.957 142.1 104.805 141.92 103.581 141.38L102.069 135.584H100.053L99.8371 141.56C101.853 142.856 104.949 143.684 107.937 143.684C114.165 143.684 117.873 140.552 117.873 135.836C117.873 131.948 115.929 129.788 110.601 127.484L108.801 126.728ZM128.056 141.596C127.984 139.292 127.948 136.808 127.948 134.54V119.564L128.092 113.84L127.588 113.516L120.352 115.064V116.072L123.268 116.288V134.54C123.268 136.808 123.232 139.292 123.16 141.56L120.388 141.884V143H130.828V141.884L128.056 141.596ZM143.053 143.576C148.561 143.576 152.773 139.796 152.773 133.316C152.773 126.836 148.273 123.164 143.053 123.164C137.797 123.164 133.333 126.872 133.333 133.316C133.333 139.76 137.473 143.576 143.053 143.576ZM143.053 142.244C140.065 142.244 138.409 139.328 138.409 133.352C138.409 127.412 140.065 124.496 143.053 124.496C145.969 124.496 147.697 127.412 147.697 133.352C147.697 139.328 145.969 142.244 143.053 142.244ZM167.323 140.336C166.351 141.056 165.703 141.416 164.767 141.416C163.327 141.416 162.427 140.588 162.427 138.572V125.252H167.215V123.74H162.463L162.571 118.052H159.475L157.927 123.704L154.579 124.064V125.252H157.675V134.684C157.675 136.124 157.639 137.132 157.639 138.284C157.639 141.956 159.475 143.576 162.787 143.576C165.235 143.576 166.927 142.64 167.971 141.02L167.323 140.336ZM66.0086 169.584V168.288H57.3686L49.5926 188.592L41.6006 168.288H32.8166V169.584L36.5966 170.052L36.4526 193.308L32.6366 193.74V195H41.9966V193.74L38.2166 193.308V181.824C38.2166 180.312 38.1446 175.524 38.0366 171.924L47.0726 195H48.8366L57.6206 171.78L57.5486 183.12C57.4766 186.252 57.5486 189.852 57.4406 193.416L54.1286 193.74V195H66.0086V193.74L62.5526 193.416C62.5166 189.816 62.5166 186.18 62.5166 182.544V180.78C62.5166 177.18 62.5166 173.544 62.5526 169.908L66.0086 169.584ZM79.5264 191.328C77.8704 192.696 76.9704 193.236 75.7824 193.236C74.0544 193.236 72.9024 192.228 72.9024 190.104C72.9024 187.872 73.9824 186.216 76.8264 185.1C77.4384 184.848 78.4464 184.56 79.5264 184.236V191.328ZM87.0504 192.516C86.4024 193.38 85.9704 193.704 85.4304 193.704C84.6384 193.704 84.1344 193.164 84.1344 191.544V182.256C84.1344 177.216 82.1544 175.164 77.4384 175.164C72.4344 175.164 69.4464 177.18 68.9784 180.42C69.1944 181.5 69.9504 182.076 71.1384 182.076C72.3624 182.076 73.3344 181.284 73.4784 179.304L73.9824 176.712C74.6304 176.568 75.2424 176.496 75.8544 176.496C78.5544 176.496 79.5264 177.54 79.5264 181.356V183.192C78.1224 183.516 76.6824 183.912 75.6024 184.272C70.0584 186 68.4024 187.764 68.4024 190.752C68.4024 193.776 70.5984 195.576 73.6224 195.576C76.2864 195.576 77.6904 194.46 79.6704 192.372C80.1384 194.316 81.3984 195.54 83.5944 195.54C85.5024 195.54 86.7624 194.856 87.6984 193.056L87.0504 192.516ZM101.955 179.484C102.171 181.5 103.179 182.256 104.547 182.256C105.627 182.256 106.311 181.716 106.635 180.564C106.095 177.468 103.251 175.164 99.4355 175.164C93.8915 175.164 89.2115 178.908 89.2115 185.424C89.2115 191.832 93.3515 195.576 98.7875 195.576C102.567 195.576 105.159 193.884 106.635 190.896L105.879 190.5C104.583 192.228 102.855 193.2 100.695 193.2C96.8075 193.2 94.1795 190.176 94.1795 184.956C94.1795 179.592 96.5915 176.496 100.011 176.496C100.479 176.496 100.947 176.532 101.415 176.676L101.955 179.484ZM128.345 193.596C128.309 191.544 128.273 188.592 128.273 186.54V182.22C128.273 177.216 126.185 175.164 122.765 175.164C120.137 175.164 118.013 176.388 115.853 178.872V171.564L115.997 165.84L115.457 165.516L108.329 167.064V168.072L111.245 168.288V186.54C111.245 188.52 111.209 191.508 111.173 193.56L108.545 193.884V195H118.337V193.884L116.033 193.596C115.961 191.544 115.925 188.52 115.925 186.54V180.06C117.689 178.44 119.237 177.72 120.677 177.72C122.549 177.72 123.593 178.8 123.593 181.932V186.54C123.593 188.592 123.557 191.544 123.521 193.56L120.929 193.884V195H130.793V193.884L128.345 193.596ZM138.158 171.168C139.706 171.168 141.002 170.052 141.002 168.504C141.002 166.884 139.706 165.804 138.158 165.804C136.61 165.804 135.314 166.884 135.314 168.504C135.314 170.052 136.61 171.168 138.158 171.168ZM140.714 193.596C140.678 191.544 140.642 188.52 140.642 186.54V181.14L140.714 175.524L140.21 175.2L132.902 177.252V178.224L135.818 178.512C135.89 180.312 135.926 181.68 135.926 183.984V186.54C135.926 188.52 135.89 191.508 135.854 193.56L133.226 193.884V195H143.126V193.884L140.714 193.596ZM165.4 193.596C165.364 191.544 165.328 188.592 165.328 186.54V182.148C165.328 177.324 163.204 175.164 159.82 175.164C157.48 175.164 155.248 176.172 152.98 178.8L152.728 175.524L152.224 175.2L145.312 177.396V178.296L148.156 178.584C148.264 180.312 148.3 181.608 148.3 183.948V186.54C148.3 188.52 148.264 191.508 148.228 193.56L145.6 193.884V195H155.464V193.884L153.124 193.596C153.088 191.544 153.052 188.52 153.052 186.54V180.06C154.816 178.44 156.436 177.72 157.768 177.72C159.712 177.72 160.612 178.8 160.612 181.932V186.54C160.612 188.592 160.576 191.544 160.504 193.56L157.984 193.884V195H167.848V193.884L165.4 193.596ZM175.287 183.948C175.503 178.692 177.483 176.496 179.751 176.496C181.947 176.496 183.495 178.368 183.495 181.284C183.495 183.12 183.099 183.948 181.443 183.948H175.287ZM187.743 185.28C187.923 184.668 187.995 183.984 187.995 183.048C187.995 178.512 185.007 175.164 180.075 175.164C175.035 175.164 170.283 178.872 170.283 185.352C170.283 191.904 174.387 195.576 180.039 195.576C183.603 195.576 186.339 193.884 187.779 190.932L187.059 190.428C185.799 192.12 184.251 193.2 181.659 193.2C178.167 193.2 175.431 190.788 175.287 185.28H187.743Z" fill="#1D0000"/>
<path d="M32.1023 265.274H30.7103L29.6543 269.33C28.8623 269.642 28.1183 269.786 27.3023 269.786C23.7023 269.786 21.0623 267.098 21.0623 261.434C21.0623 255.818 23.7503 253.058 27.3023 253.058C28.0703 253.058 28.7663 253.178 29.4623 253.466L30.5183 257.57H31.8863L31.9343 253.418C30.3263 252.506 28.7663 252.074 26.8703 252.074C21.7343 252.074 17.4863 255.41 17.4863 261.41C17.4863 267.386 21.4463 270.77 26.7743 270.77C28.8623 270.77 30.5903 270.266 32.1263 269.402L32.1023 265.274ZM37.7967 261.41C37.7967 256.802 39.2847 253.058 42.5007 253.058C45.7167 253.058 47.2287 256.802 47.2287 261.41C47.2287 266.09 45.7167 269.786 42.5007 269.786C39.2847 269.786 37.7967 266.09 37.7967 261.41ZM42.5007 252.074C38.1567 252.074 34.1967 255.41 34.1967 261.41C34.1967 267.53 38.1327 270.77 42.5007 270.77C46.8687 270.77 50.7807 267.434 50.7807 261.41C50.7807 255.338 46.8687 252.074 42.5007 252.074ZM74.5054 253.37V252.506H68.7454L63.5614 266.042L58.2334 252.506H52.3774V253.37L54.8974 253.682L54.8014 269.186L52.2574 269.474V270.314H58.4974V269.474L55.9774 269.186V261.53C55.9774 260.522 55.9294 257.33 55.8574 254.93L61.8814 270.314H63.0574L68.9134 254.834L68.8654 262.394C68.8174 264.482 68.8654 266.882 68.7934 269.258L66.5854 269.474V270.314H74.5054V269.474L72.2014 269.258C72.1774 266.858 72.1774 264.434 72.1774 262.01V260.834C72.1774 258.434 72.1774 256.01 72.2014 253.586L74.5054 253.37ZM84.6803 253.37V252.506H76.6643V253.37L78.9443 253.586C78.9923 256.01 78.9923 258.434 78.9923 260.834V262.01C78.9923 264.458 78.9923 266.882 78.9443 269.258L76.6643 269.474V270.314H84.6803V269.474L82.4003 269.258C82.3283 266.858 82.3283 264.41 82.3283 262.01V260.834C82.3283 258.386 82.3283 255.986 82.4003 253.586L84.6803 253.37ZM104.429 252.506H97.9487V253.37L101.045 253.706L101.117 265.562L91.7087 252.506H86.6447V253.37L88.4687 253.586L88.8527 254.09L88.7327 269.186L86.5007 269.474V270.314H92.9807V269.474L89.9087 269.162L89.8367 255.482L100.445 270.41H102.101L102.221 253.682L104.429 253.37V252.506ZM122.713 261.674H115.177V262.514L117.817 262.778C117.865 264.506 117.889 266.186 117.889 267.938V269.498C117.193 269.69 116.497 269.786 115.705 269.786C112.153 269.786 109.609 266.642 109.609 261.41C109.609 255.89 112.249 253.058 115.849 253.058C116.713 253.058 117.457 253.202 118.177 253.562L119.185 257.546H120.601L120.649 253.394C119.161 252.53 117.529 252.074 115.417 252.074C109.849 252.074 106.033 255.746 106.033 261.386C106.033 267.122 109.753 270.77 115.273 270.77C117.505 270.77 119.233 270.242 121.081 269.186V268.01C121.081 266.114 121.105 264.386 121.129 262.706L122.713 262.514V261.674ZM136.245 259.466C134.469 258.698 133.485 257.762 133.485 256.082C133.485 254.186 134.949 253.13 137.061 253.13C137.757 253.13 138.309 253.226 138.861 253.49L139.869 257.186H141.213L141.381 253.418C140.133 252.602 138.597 252.074 136.725 252.074C133.101 252.074 130.509 253.874 130.509 257.042C130.509 259.802 132.237 261.362 135.261 262.682L136.365 263.162C138.477 264.05 139.293 264.89 139.293 266.57C139.293 268.562 137.805 269.714 135.357 269.714C134.349 269.714 133.581 269.594 132.765 269.234L131.757 265.37H130.413L130.269 269.354C131.613 270.218 133.677 270.77 135.669 270.77C139.821 270.77 142.293 268.682 142.293 265.538C142.293 262.946 140.997 261.506 137.445 259.97L136.245 259.466ZM148 261.41C148 256.802 149.488 253.058 152.704 253.058C155.92 253.058 157.432 256.802 157.432 261.41C157.432 266.09 155.92 269.786 152.704 269.786C149.488 269.786 148 266.09 148 261.41ZM152.704 252.074C148.36 252.074 144.4 255.41 144.4 261.41C144.4 267.53 148.336 270.77 152.704 270.77C157.072 270.77 160.984 267.434 160.984 261.41C160.984 255.338 157.072 252.074 152.704 252.074ZM167.219 261.41C167.219 256.802 168.707 253.058 171.923 253.058C175.139 253.058 176.651 256.802 176.651 261.41C176.651 266.09 175.139 269.786 171.923 269.786C168.707 269.786 167.219 266.09 167.219 261.41ZM171.923 252.074C167.579 252.074 163.619 255.41 163.619 261.41C163.619 267.53 167.555 270.77 171.923 270.77C176.291 270.77 180.203 267.434 180.203 261.41C180.203 255.338 176.291 252.074 171.923 252.074ZM199.655 252.506H193.175V253.37L196.271 253.706L196.343 265.562L186.935 252.506H181.871V253.37L183.695 253.586L184.079 254.09L183.959 269.186L181.727 269.474V270.314H188.207V269.474L185.135 269.162L185.063 255.482L195.671 270.41H197.327L197.447 253.682L199.655 253.37V252.506Z" fill="white"/>
<defs>
<linearGradient id="paint0_linear" x1="108" y1="0" x2="108" y2="305" gradientUnits="userSpaceOnUse">
<stop stop-color="#DA241C"/>
<stop offset="1" stop-color="#560501"/>
</linearGradient>
<linearGradient id="paint1_linear" x1="108" y1="4" x2="108" y2="301" gradientUnits="userSpaceOnUse">
<stop stop-color="#DA241C"/>
<stop offset="1" stop-color="#560501"/>
</linearGradient>
</defs>
</svg>
