<svg width="216" height="305" viewBox="0 0 216 305" fill="none" xmlns="http://www.w3.org/2000/svg">
<rect x="2" y="2" width="212" height="301" rx="18" fill="url(#paint0_linear)" stroke="#3C0300" stroke-width="4"/>
<rect x="5" y="5" width="206" height="295" rx="14" fill="url(#paint1_linear)" stroke="#FF531D" stroke-width="2"/>
<path d="M80.11 114.416C78.778 118.124 76.978 122.3 75.646 124.784L76.042 125.072C78.85 123.2 81.838 120.5 84.394 117.584C85.186 117.692 85.69 117.404 85.87 117.008L80.11 114.416ZM57.322 114.956C59.086 117.44 60.742 120.932 60.994 124.064C65.242 127.664 69.202 118.808 57.646 114.74L57.322 114.956ZM86.554 135.044H86.158C85.438 137.6 84.826 139.76 84.43 140.516C84.178 140.912 83.998 141.02 83.53 141.056C83.026 141.092 82.126 141.128 81.046 141.128H78.094C77.014 141.128 76.798 140.912 76.798 140.336V128.276V127.7H86.95C87.454 127.7 87.85 127.52 87.958 127.124C86.302 125.648 83.602 123.596 83.602 123.596L81.154 126.656H73.09V113.912C74.062 113.768 74.35 113.408 74.422 112.904L68.698 112.4V126.656H54.082L54.37 127.7H63.874C63.658 135.476 61.75 141.524 53.974 145.772L54.154 146.168C64.846 143.072 68.014 136.736 68.698 127.7H72.514V141.416C72.514 144.404 73.378 145.196 77.05 145.196H80.614C86.554 145.196 88.102 144.368 88.102 142.604C88.102 141.74 87.85 141.236 86.698 140.768L86.554 135.044ZM108.801 126.728C106.137 125.576 104.661 124.172 104.661 121.652C104.661 118.808 106.857 117.224 110.025 117.224C111.069 117.224 111.897 117.368 112.725 117.764L114.237 123.308H116.253L116.505 117.656C114.633 116.432 112.329 115.64 109.521 115.64C104.085 115.64 100.197 118.34 100.197 123.092C100.197 127.232 102.789 129.572 107.325 131.552L108.981 132.272C112.149 133.604 113.373 134.864 113.373 137.384C113.373 140.372 111.141 142.1 107.469 142.1C105.957 142.1 104.805 141.92 103.581 141.38L102.069 135.584H100.053L99.8371 141.56C101.853 142.856 104.949 143.684 107.937 143.684C114.165 143.684 117.873 140.552 117.873 135.836C117.873 131.948 115.929 129.788 110.601 127.484L108.801 126.728ZM128.056 141.596C127.984 139.292 127.948 136.808 127.948 134.54V119.564L128.092 113.84L127.588 113.516L120.352 115.064V116.072L123.268 116.288V134.54C123.268 136.808 123.232 139.292 123.16 141.56L120.388 141.884V143H130.828V141.884L128.056 141.596ZM143.053 143.576C148.561 143.576 152.773 139.796 152.773 133.316C152.773 126.836 148.273 123.164 143.053 123.164C137.797 123.164 133.333 126.872 133.333 133.316C133.333 139.76 137.473 143.576 143.053 143.576ZM143.053 142.244C140.065 142.244 138.409 139.328 138.409 133.352C138.409 127.412 140.065 124.496 143.053 124.496C145.969 124.496 147.697 127.412 147.697 133.352C147.697 139.328 145.969 142.244 143.053 142.244ZM167.323 140.336C166.351 141.056 165.703 141.416 164.767 141.416C163.327 141.416 162.427 140.588 162.427 138.572V125.252H167.215V123.74H162.463L162.571 118.052H159.475L157.927 123.704L154.579 124.064V125.252H157.675V134.684C157.675 136.124 157.639 137.132 157.639 138.284C157.639 141.956 159.475 143.576 162.787 143.576C165.235 143.576 166.927 142.64 167.971 141.02L167.323 140.336ZM66.0086 169.584V168.288H57.3686L49.5926 188.592L41.6006 168.288H32.8166V169.584L36.5966 170.052L36.4526 193.308L32.6366 193.74V195H41.9966V193.74L38.2166 193.308V181.824C38.2166 180.312 38.1446 175.524 38.0366 171.924L47.0726 195H48.8366L57.6206 171.78L57.5486 183.12C57.4766 186.252 57.5486 189.852 57.4406 193.416L54.1286 193.74V195H66.0086V193.74L62.5526 193.416C62.5166 189.816 62.5166 186.18 62.5166 182.544V180.78C62.5166 177.18 62.5166 173.544 62.5526 169.908L66.0086 169.584ZM79.5264 191.328C77.8704 192.696 76.9704 193.236 75.7824 193.236C74.0544 193.236 72.9024 192.228 72.9024 190.104C72.9024 187.872 73.9824 186.216 76.8264 185.1C77.4384 184.848 78.4464 184.56 79.5264 184.236V191.328ZM87.0504 192.516C86.4024 193.38 85.9704 193.704 85.4304 193.704C84.6384 193.704 84.1344 193.164 84.1344 191.544V182.256C84.1344 177.216 82.1544 175.164 77.4384 175.164C72.4344 175.164 69.4464 177.18 68.9784 180.42C69.1944 181.5 69.9504 182.076 71.1384 182.076C72.3624 182.076 73.3344 181.284 73.4784 179.304L73.9824 176.712C74.6304 176.568 75.2424 176.496 75.8544 176.496C78.5544 176.496 79.5264 177.54 79.5264 181.356V183.192C78.1224 183.516 76.6824 183.912 75.6024 184.272C70.0584 186 68.4024 187.764 68.4024 190.752C68.4024 193.776 70.5984 195.576 73.6224 195.576C76.2864 195.576 77.6904 194.46 79.6704 192.372C80.1384 194.316 81.3984 195.54 83.5944 195.54C85.5024 195.54 86.7624 194.856 87.6984 193.056L87.0504 192.516ZM101.955 179.484C102.171 181.5 103.179 182.256 104.547 182.256C105.627 182.256 106.311 181.716 106.635 180.564C106.095 177.468 103.251 175.164 99.4355 175.164C93.8915 175.164 89.2115 178.908 89.2115 185.424C89.2115 191.832 93.3515 195.576 98.7875 195.576C102.567 195.576 105.159 193.884 106.635 190.896L105.879 190.5C104.583 192.228 102.855 193.2 100.695 193.2C96.8075 193.2 94.1795 190.176 94.1795 184.956C94.1795 179.592 96.5915 176.496 100.011 176.496C100.479 176.496 100.947 176.532 101.415 176.676L101.955 179.484ZM128.345 193.596C128.309 191.544 128.273 188.592 128.273 186.54V182.22C128.273 177.216 126.185 175.164 122.765 175.164C120.137 175.164 118.013 176.388 115.853 178.872V171.564L115.997 165.84L115.457 165.516L108.329 167.064V168.072L111.245 168.288V186.54C111.245 188.52 111.209 191.508 111.173 193.56L108.545 193.884V195H118.337V193.884L116.033 193.596C115.961 191.544 115.925 188.52 115.925 186.54V180.06C117.689 178.44 119.237 177.72 120.677 177.72C122.549 177.72 123.593 178.8 123.593 181.932V186.54C123.593 188.592 123.557 191.544 123.521 193.56L120.929 193.884V195H130.793V193.884L128.345 193.596ZM138.158 171.168C139.706 171.168 141.002 170.052 141.002 168.504C141.002 166.884 139.706 165.804 138.158 165.804C136.61 165.804 135.314 166.884 135.314 168.504C135.314 170.052 136.61 171.168 138.158 171.168ZM140.714 193.596C140.678 191.544 140.642 188.52 140.642 186.54V181.14L140.714 175.524L140.21 175.2L132.902 177.252V178.224L135.818 178.512C135.89 180.312 135.926 181.68 135.926 183.984V186.54C135.926 188.52 135.89 191.508 135.854 193.56L133.226 193.884V195H143.126V193.884L140.714 193.596ZM165.4 193.596C165.364 191.544 165.328 188.592 165.328 186.54V182.148C165.328 177.324 163.204 175.164 159.82 175.164C157.48 175.164 155.248 176.172 152.98 178.8L152.728 175.524L152.224 175.2L145.312 177.396V178.296L148.156 178.584C148.264 180.312 148.3 181.608 148.3 183.948V186.54C148.3 188.52 148.264 191.508 148.228 193.56L145.6 193.884V195H155.464V193.884L153.124 193.596C153.088 191.544 153.052 188.52 153.052 186.54V180.06C154.816 178.44 156.436 177.72 157.768 177.72C159.712 177.72 160.612 178.8 160.612 181.932V186.54C160.612 188.592 160.576 191.544 160.504 193.56L157.984 193.884V195H167.848V193.884L165.4 193.596ZM175.287 183.948C175.503 178.692 177.483 176.496 179.751 176.496C181.947 176.496 183.495 178.368 183.495 181.284C183.495 183.12 183.099 183.948 181.443 183.948H175.287ZM187.743 185.28C187.923 184.668 187.995 183.984 187.995 183.048C187.995 178.512 185.007 175.164 180.075 175.164C175.035 175.164 170.283 178.872 170.283 185.352C170.283 191.904 174.387 195.576 180.039 195.576C183.603 195.576 186.339 193.884 187.779 190.932L187.059 190.428C185.799 192.12 184.251 193.2 181.659 193.2C178.167 193.2 175.431 190.788 175.287 185.28H187.743Z" fill="#1D0000"/>
<path d="M75.6 258.242C75.576 265.25 76.008 269.378 69.144 272.21L69.36 272.57C73.704 271.442 75.888 269.906 77.016 267.842C78.528 268.946 80.4 270.722 81.336 272.186C84.264 273.29 85.176 267.914 77.232 267.458C78.216 265.274 78.216 262.586 78.288 259.202C78.816 259.13 79.032 258.914 79.104 258.554L75.6 258.242ZM74.16 256.178L71.544 255.098V258.962L69.72 257.234L68.448 258.53H66.768C67.56 258.218 67.896 257.09 67.08 256.034C68.376 255.122 69.72 253.994 70.56 253.082C71.064 253.034 71.328 252.962 71.544 252.77L71.208 252.458H75.312C75.264 253.682 75.192 255.146 75.12 256.178H74.16ZM79.536 251.762H70.896L71.04 252.29L69.048 250.394L67.584 251.834H61.8L62.016 252.506H67.632C67.296 253.37 66.816 254.402 66.312 255.338C65.592 254.858 64.512 254.45 62.952 254.306L62.736 254.498C63.912 255.362 65.136 256.97 65.448 258.338C65.592 258.434 65.712 258.482 65.856 258.53H61.416L61.632 259.202H64.608V268.97C64.608 269.258 64.512 269.402 64.152 269.402C63.672 269.402 61.632 269.258 61.632 269.258V269.594C62.688 269.762 63.168 270.074 63.456 270.458C63.792 270.866 63.888 271.538 63.912 272.378C66.84 272.138 67.248 270.866 67.248 269.042V259.202H68.592C68.4 260.21 68.112 261.578 67.896 262.394L68.16 262.562C69.096 261.818 70.344 260.546 71.064 259.682C71.256 259.658 71.424 259.658 71.544 259.634V267.722H71.928C72.984 267.722 74.04 267.146 74.04 266.882V256.85H79.92V267.05H80.304C81.144 267.05 82.392 266.522 82.416 266.354V257.186C82.824 257.114 83.112 256.922 83.256 256.754L80.856 254.93L79.704 256.178H75.912C76.728 255.146 77.616 253.73 78.312 252.458H82.968C83.304 252.458 83.568 252.338 83.616 252.074C82.632 251.162 80.976 249.938 80.976 249.938L79.536 251.762ZM87.384 250.298C88.488 251.402 89.856 253.202 90.384 254.69C93.144 256.274 94.872 250.97 87.6 250.13L87.384 250.298ZM91.512 257.69C92.04 257.594 92.304 257.402 92.424 257.234L90.096 255.29L88.824 256.562H85.224L85.44 257.258H88.8V267.098C88.8 267.626 88.632 267.866 87.624 268.442L89.616 271.418C89.88 271.25 90.168 270.914 90.36 270.434C92.736 268.442 94.56 266.618 95.544 265.586L95.424 265.346C94.056 265.946 92.712 266.546 91.512 267.05V257.69ZM103.584 258.77H101.544V251.114C102.216 251.018 102.384 250.778 102.432 250.442L98.664 250.058V258.77H93.12L93.288 259.466H98.664V272.354H99.216C100.296 272.354 101.544 271.658 101.544 271.346V259.466H107.256C107.616 259.466 107.88 259.346 107.952 259.082C106.896 258.098 105.12 256.706 105.12 256.706L103.584 258.77ZM126.84 270.482H121.2V260.018H129.288C129.624 260.018 129.864 259.898 129.936 259.634C128.784 258.602 126.864 257.138 126.864 257.138L125.136 259.346H121.2V251.306C121.848 251.21 122.016 250.97 122.088 250.634L118.104 250.25V270.482H109.176L109.368 271.154H131.04C131.4 271.154 131.664 271.034 131.736 270.77C130.536 269.762 128.592 268.25 128.592 268.25L126.84 270.482ZM141.552 250.034C142.368 250.898 143.328 252.242 143.616 253.538C146.448 255.266 148.704 249.962 141.72 249.89L141.552 250.034ZM151.104 253.994H133.2L133.392 254.666H142.944V257.882H139.2L136.176 256.658V269.138H136.584C137.784 269.138 139.008 268.514 139.008 268.202V258.554H142.944V272.498H143.496C145.008 272.498 145.896 271.898 145.92 271.706V258.554H149.832V265.85C149.832 266.138 149.712 266.282 149.352 266.282C148.776 266.282 146.832 266.162 146.832 266.162V266.498C147.888 266.666 148.32 267.002 148.656 267.386C148.968 267.818 149.088 268.466 149.136 269.354C152.28 269.066 152.688 267.986 152.688 266.138V259.034C153.192 258.938 153.504 258.722 153.672 258.53L150.864 256.418L149.592 257.882H145.92V254.666H155.136C155.496 254.666 155.736 254.546 155.784 254.282C154.68 253.274 152.784 251.858 152.784 251.858L151.104 253.994Z" fill="white"/>
<defs>
<linearGradient id="paint0_linear" x1="108" y1="0" x2="108" y2="305" gradientUnits="userSpaceOnUse">
<stop stop-color="#DA241C"/>
<stop offset="1" stop-color="#560501"/>
</linearGradient>
<linearGradient id="paint1_linear" x1="108" y1="4" x2="108" y2="301" gradientUnits="userSpaceOnUse">
<stop stop-color="#DA241C"/>
<stop offset="1" stop-color="#560501"/>
</linearGradient>
</defs>
</svg>
