<svg width="216" height="305" viewBox="0 0 216 305" fill="none" xmlns="http://www.w3.org/2000/svg">
<rect x="2" y="2" width="212" height="301" rx="18" fill="url(#paint0_linear)" stroke="#3C0300" stroke-width="4"/>
<rect x="5" y="5" width="206" height="295" rx="14" fill="url(#paint1_linear)" stroke="#FF531D" stroke-width="2"/>
<path d="M52.4537 118.416C51.1217 122.124 49.3217 126.3 47.9897 128.784L48.3857 129.072C51.1937 127.2 54.1817 124.5 56.7377 121.584C57.5297 121.692 58.0337 121.404 58.2137 121.008L52.4537 118.416ZM29.6657 118.956C31.4297 121.44 33.0857 124.932 33.3377 128.064C37.5857 131.664 41.5457 122.808 29.9897 118.74L29.6657 118.956ZM58.8977 139.044H58.5017C57.7817 141.6 57.1697 143.76 56.7737 144.516C56.5217 144.912 56.3417 145.02 55.8737 145.056C55.3697 145.092 54.4697 145.128 53.3897 145.128H50.4377C49.3577 145.128 49.1417 144.912 49.1417 144.336V132.276V131.7H59.2937C59.7977 131.7 60.1937 131.52 60.3017 131.124C58.6457 129.648 55.9457 127.596 55.9457 127.596L53.4977 130.656H45.4337V117.912C46.4057 117.768 46.6937 117.408 46.7657 116.904L41.0417 116.4V130.656H26.4257L26.7137 131.7H36.2177C36.0017 139.476 34.0937 145.524 26.3177 149.772L26.4977 150.168C37.1897 147.072 40.3577 140.736 41.0417 131.7H44.8577V145.416C44.8577 148.404 45.7217 149.196 49.3937 149.196H52.9577C58.8977 149.196 60.4457 148.368 60.4457 146.604C60.4457 145.74 60.1937 145.236 59.0417 144.768L58.8977 139.044ZM81.1449 130.728C78.4809 129.576 77.0049 128.172 77.0049 125.652C77.0049 122.808 79.2009 121.224 82.3689 121.224C83.4129 121.224 84.2409 121.368 85.0689 121.764L86.5809 127.308H88.5969L88.8489 121.656C86.9769 120.432 84.6729 119.64 81.8649 119.64C76.4289 119.64 72.5409 122.34 72.5409 127.092C72.5409 131.232 75.1329 133.572 79.6689 135.552L81.3249 136.272C84.4929 137.604 85.7169 138.864 85.7169 141.384C85.7169 144.372 83.4849 146.1 79.8129 146.1C78.3009 146.1 77.1489 145.92 75.9249 145.38L74.4129 139.584H72.3969L72.1809 145.56C74.1969 146.856 77.2929 147.684 80.2809 147.684C86.5089 147.684 90.2169 144.552 90.2169 139.836C90.2169 135.948 88.2729 133.788 82.9449 131.484L81.1449 130.728ZM98.1655 135.948C98.3815 130.692 100.362 128.496 102.63 128.496C104.826 128.496 106.374 130.368 106.374 133.284C106.374 135.12 105.978 135.948 104.322 135.948H98.1655ZM110.622 137.28C110.802 136.668 110.874 135.984 110.874 135.048C110.874 130.512 107.886 127.164 102.954 127.164C97.9135 127.164 93.1615 130.872 93.1615 137.352C93.1615 143.904 97.2655 147.576 102.918 147.576C106.482 147.576 109.218 145.884 110.658 142.932L109.938 142.428C108.678 144.12 107.13 145.2 104.538 145.2C101.046 145.2 98.3095 142.788 98.1655 137.28H110.622ZM123.518 147.576C129.026 147.576 133.238 143.796 133.238 137.316C133.238 130.836 128.738 127.164 123.518 127.164C118.262 127.164 113.798 130.872 113.798 137.316C113.798 143.76 117.938 147.576 123.518 147.576ZM123.518 146.244C120.53 146.244 118.874 143.328 118.874 137.352C118.874 131.412 120.53 128.496 123.518 128.496C126.434 128.496 128.162 131.412 128.162 137.352C128.162 143.328 126.434 146.244 123.518 146.244ZM147.788 144.336C146.816 145.056 146.168 145.416 145.232 145.416C143.792 145.416 142.892 144.588 142.892 142.572V129.252H147.68V127.74H142.928L143.036 122.052H139.94L138.392 127.704L135.044 128.064V129.252H138.14V138.684C138.14 140.124 138.104 141.132 138.104 142.284C138.104 145.956 139.94 147.576 143.252 147.576C145.7 147.576 147.392 146.64 148.436 145.02L147.788 144.336ZM163.655 143.832C162.539 144.876 161.459 145.272 160.163 145.272C157.175 145.272 154.979 143.076 154.979 137.352C154.979 131.448 157.391 129.432 160.235 129.432C161.351 129.432 162.467 129.792 163.655 130.8V143.832ZM168.407 145.668V123.528L168.515 117.84L168.011 117.516L160.739 119.064V120.072L163.835 120.324V129.684C162.359 127.92 160.631 127.164 158.651 127.164C153.719 127.164 149.939 131.052 149.939 137.568C149.939 143.76 153.467 147.576 158.183 147.576C160.487 147.576 162.323 146.64 163.763 144.984L164.015 147.396L171.107 147V145.884L168.407 145.668ZM184.409 143.328C182.753 144.696 181.853 145.236 180.665 145.236C178.937 145.236 177.785 144.228 177.785 142.104C177.785 139.872 178.865 138.216 181.709 137.1C182.321 136.848 183.329 136.56 184.409 136.236V143.328ZM191.933 144.516C191.285 145.38 190.853 145.704 190.313 145.704C189.521 145.704 189.017 145.164 189.017 143.544V134.256C189.017 129.216 187.037 127.164 182.321 127.164C177.317 127.164 174.329 129.18 173.861 132.42C174.077 133.5 174.833 134.076 176.021 134.076C177.245 134.076 178.217 133.284 178.361 131.304L178.865 128.712C179.513 128.568 180.125 128.496 180.737 128.496C183.437 128.496 184.409 129.54 184.409 133.356V135.192C183.005 135.516 181.565 135.912 180.485 136.272C174.941 138 173.285 139.764 173.285 142.752C173.285 145.776 175.481 147.576 178.505 147.576C181.169 147.576 182.573 146.46 184.553 144.372C185.021 146.316 186.281 147.54 188.477 147.54C190.385 147.54 191.645 146.856 192.581 145.056L191.933 144.516ZM87.0656 173.692C91.2776 173.692 93.2936 175.96 93.2936 180.208C93.2936 184.168 91.3496 186.904 86.8136 186.904H85.0496V184.78C85.0496 181.036 85.0496 177.328 85.1576 173.692H87.0656ZM86.7416 188.308C95.0576 188.308 98.0816 184.672 98.0816 180.208C98.0816 175.312 94.8776 172.288 87.2816 172.288H76.5536V173.584L79.9736 173.908C80.0456 177.544 80.0456 181.18 80.0456 184.78V186.544C80.0456 190.216 80.0456 193.852 79.9736 197.416L76.5536 197.74V199H89.0096V197.74L85.1576 197.38C85.0496 194.212 85.0496 191.116 85.0496 188.308H86.7416ZM119.993 179.74H112.865V180.892L115.817 181.288L111.389 194.356L106.637 181.216L109.517 180.892V179.74H99.1847V180.892L101.489 181.18L108.653 199.108H110.741L117.509 181.288L119.993 180.892V179.74ZM131.046 173.692C135.258 173.692 137.274 175.96 137.274 180.208C137.274 184.168 135.33 186.904 130.794 186.904H129.03V184.78C129.03 181.036 129.03 177.328 129.138 173.692H131.046ZM130.722 188.308C139.038 188.308 142.062 184.672 142.062 180.208C142.062 175.312 138.858 172.288 131.262 172.288H120.534V173.584L123.954 173.908C124.026 177.544 124.026 181.18 124.026 184.78V186.544C124.026 190.216 124.026 193.852 123.954 197.416L120.534 197.74V199H132.99V197.74L129.138 197.38C129.03 194.212 129.03 191.116 129.03 188.308H130.722Z" fill="#1D0000"/>
<path d="M75.668 262.928C75.644 269.936 76.076 274.064 69.212 276.896L69.428 277.256C73.772 276.128 75.956 274.592 77.084 272.528C78.596 273.632 80.468 275.408 81.404 276.872C84.332 277.976 85.244 272.6 77.3 272.144C78.284 269.96 78.284 267.272 78.356 263.888C78.884 263.816 79.1 263.6 79.172 263.24L75.668 262.928ZM74.228 260.864L71.612 259.784V263.648L69.788 261.92L68.516 263.216H66.836C67.628 262.904 67.964 261.776 67.148 260.72C68.444 259.808 69.788 258.68 70.628 257.768C71.132 257.72 71.396 257.648 71.612 257.456L71.276 257.144H75.38C75.332 258.368 75.26 259.832 75.188 260.864H74.228ZM79.604 256.448H70.964L71.108 256.976L69.116 255.08L67.652 256.52H61.868L62.084 257.192H67.7C67.364 258.056 66.884 259.088 66.38 260.024C65.66 259.544 64.58 259.136 63.02 258.992L62.804 259.184C63.98 260.048 65.204 261.656 65.516 263.024C65.66 263.12 65.78 263.168 65.924 263.216H61.484L61.7 263.888H64.676V273.656C64.676 273.944 64.58 274.088 64.22 274.088C63.74 274.088 61.7 273.944 61.7 273.944V274.28C62.756 274.448 63.236 274.76 63.524 275.144C63.86 275.552 63.956 276.224 63.98 277.064C66.908 276.824 67.316 275.552 67.316 273.728V263.888H68.66C68.468 264.896 68.18 266.264 67.964 267.08L68.228 267.248C69.164 266.504 70.412 265.232 71.132 264.368C71.324 264.344 71.492 264.344 71.612 264.32V272.408H71.996C73.052 272.408 74.108 271.832 74.108 271.568V261.536H79.988V271.736H80.372C81.212 271.736 82.46 271.208 82.484 271.04V261.872C82.892 261.8 83.18 261.608 83.324 261.44L80.924 259.616L79.772 260.864H75.98C76.796 259.832 77.684 258.416 78.38 257.144H83.036C83.372 257.144 83.636 257.024 83.684 256.76C82.7 255.848 81.044 254.624 81.044 254.624L79.604 256.448ZM87.452 254.984C88.556 256.088 89.924 257.888 90.452 259.376C93.212 260.96 94.94 255.656 87.668 254.816L87.452 254.984ZM91.58 262.376C92.108 262.28 92.372 262.088 92.492 261.92L90.164 259.976L88.892 261.248H85.292L85.508 261.944H88.868V271.784C88.868 272.312 88.7 272.552 87.692 273.128L89.684 276.104C89.948 275.936 90.236 275.6 90.428 275.12C92.804 273.128 94.628 271.304 95.612 270.272L95.492 270.032C94.124 270.632 92.78 271.232 91.58 271.736V262.376ZM103.652 263.456H101.612V255.8C102.284 255.704 102.452 255.464 102.5 255.128L98.732 254.744V263.456H93.188L93.356 264.152H98.732V277.04H99.284C100.364 277.04 101.612 276.344 101.612 276.032V264.152H107.324C107.684 264.152 107.948 264.032 108.02 263.768C106.964 262.784 105.188 261.392 105.188 261.392L103.652 263.456ZM126.908 275.168H121.268V264.704H129.356C129.692 264.704 129.932 264.584 130.004 264.32C128.852 263.288 126.932 261.824 126.932 261.824L125.204 264.032H121.268V255.992C121.916 255.896 122.084 255.656 122.156 255.32L118.172 254.936V275.168H109.244L109.436 275.84H131.108C131.468 275.84 131.732 275.72 131.804 275.456C130.604 274.448 128.66 272.936 128.66 272.936L126.908 275.168ZM141.62 254.72C142.436 255.584 143.396 256.928 143.684 258.224C146.516 259.952 148.772 254.648 141.788 254.576L141.62 254.72ZM151.172 258.68H133.268L133.46 259.352H143.012V262.568H139.268L136.244 261.344V273.824H136.652C137.852 273.824 139.076 273.2 139.076 272.888V263.24H143.012V277.184H143.564C145.076 277.184 145.964 276.584 145.988 276.392V263.24H149.9V270.536C149.9 270.824 149.78 270.968 149.42 270.968C148.844 270.968 146.9 270.848 146.9 270.848V271.184C147.956 271.352 148.388 271.688 148.724 272.072C149.036 272.504 149.156 273.152 149.204 274.04C152.348 273.752 152.756 272.672 152.756 270.824V263.72C153.26 263.624 153.572 263.408 153.74 263.216L150.932 261.104L149.66 262.568H145.988V259.352H155.204C155.564 259.352 155.804 259.232 155.852 258.968C154.748 257.96 152.852 256.544 152.852 256.544L151.172 258.68Z" fill="white"/>
<defs>
<linearGradient id="paint0_linear" x1="108" y1="0" x2="108" y2="305" gradientUnits="userSpaceOnUse">
<stop stop-color="#DA241C"/>
<stop offset="1" stop-color="#560501"/>
</linearGradient>
<linearGradient id="paint1_linear" x1="108" y1="4" x2="108" y2="301" gradientUnits="userSpaceOnUse">
<stop stop-color="#DA241C"/>
<stop offset="1" stop-color="#560501"/>
</linearGradient>
</defs>
</svg>
