<svg width="120" height="126" viewBox="0 0 120 126" fill="none" xmlns="http://www.w3.org/2000/svg">
<path d="M104.826 84.663C105 86.8831 105.553 87.95 107.995 89.8242C109.246 90.9487 110.351 91.6983 110.729 92.448C111.34 93.659 110.962 96.1099 109.275 98.1282C107.676 99.6564 106.949 100.406 103.691 101.04C99.2419 101.704 95.025 102.223 90.3138 102.569C83.8867 102.799 77.4306 102.77 71.0035 102.453C63.4713 102.05 61.1739 99.3969 61.1448 91.8425C61.1157 79.5306 61.1448 67.2475 61.1157 54.9356C61.1157 53.9265 61.0575 52.9173 60.9703 51.9081C60.5341 47.4966 58.353 45.0169 53.6417 44.9016C52.682 44.8439 51.8096 44.8728 50.7335 44.8151C49.1922 44.6998 48.407 43.9213 48.4361 42.4219C48.4652 28.8413 48.5233 15.2319 48.5524 1.65137C48.5524 0.613362 48.9886 0.123192 49.9774 0.0655255C50.5009 0.036692 51.0534 -0.0209752 51.5769 0.00785833C55.5029 0.296193 59.3999 0.613362 63.2968 0.93053C63.5586 0.959364 63.8494 1.01703 64.431 1.13236C62.279 2.57404 62.7443 4.56355 62.7443 6.43773C62.7443 27.9475 62.7443 29.2162 62.7443 40.6054C62.7443 42.1912 62.7443 42.5661 62.7443 43.4023C62.7734 44.3826 63.2096 45.3918 65.0417 45.4206C68.1535 45.4783 71.2362 45.4494 74.3479 45.4783C74.9005 45.4783 76.6163 45.4783 76.878 45.4494C76.6454 45.6801 76.1219 46.1126 75.802 46.6604C75.2494 47.5543 75.1913 48.9094 75.1622 49.7744C75.1331 61.5385 75.1331 73.3026 75.1331 85.0955C75.1331 88.3825 76.3255 89.7088 79.6117 89.7665C84.4974 89.8242 89.4123 89.7377 94.298 89.7377C97.2062 89.7377 99.2128 88.4113 100.347 85.8451C101.481 83.3078 102.499 80.7128 103.575 78.1466C103.779 77.6564 104.302 76.4454 104.535 75.9553C104.593 75.9553 104.651 82.0103 104.826 84.663Z" fill="white"/>
<path d="M8.27393 103.088C9.93158 101.617 11.6474 100.233 13.2469 98.7053C22.2041 90.1417 27.5551 79.6175 29.7362 67.5939C30.8123 61.7407 31.4521 55.9164 32.0919 49.9767C32.2664 48.362 31.1322 47.0933 29.6781 46.4301C29.2128 46.1995 28.4566 45.9111 27.6133 45.4786C28.1077 45.4498 29.1837 45.4786 29.6781 45.4786C34.5638 45.4786 39.4786 45.4786 44.3644 45.4786C47.3307 45.4786 47.9414 45.94 47.5633 48.9963C46.9235 54.1287 46.2547 59.2899 45.0623 64.3357C43.0848 72.7551 39.3623 80.4537 33.6041 87.0565C27.4097 94.1784 19.6158 98.9648 10.9204 102.482C10.077 102.828 9.23362 103.117 8.39025 103.405C8.36117 103.29 8.30301 103.174 8.27393 103.088Z" fill="white"/>
<path d="M14.2935 8.36972C14.6134 8.34089 14.7588 8.28322 14.8751 8.31206C21.9129 10.6187 28.4563 13.7039 33.1675 19.6725C35.5522 22.7288 36.89 26.16 36.4247 30.1102C35.6685 36.6265 29.5323 39.5387 24.0358 35.9057C23.396 35.4732 22.7562 34.6082 22.669 33.8874C21.6511 25.0355 18.8593 16.7891 14.4679 9.03289C14.3516 8.85989 14.3516 8.65806 14.2935 8.36972Z" fill="white"/>
<path d="M101.655 14.2227C100.027 14.7128 99.7941 14.8282 99.5033 15.0588C99.1543 15.3183 97.8747 16.3275 97.1768 16.9907C89.5864 24.8622 85.0497 28.8412 75.3073 35.2423C74.9002 35.5018 73.9405 36.0785 74.0859 35.992C74.144 35.9631 73.9114 36.0208 73.6497 36.0496C73.766 35.646 73.9114 35.3288 73.9986 34.9539C77.1395 26.2751 80.1931 17.625 83.3339 8.94614C83.8864 7.38914 84.5553 6.98547 86.0385 7.59097C90.9533 9.66698 95.8099 11.8295 100.725 13.8767C101.335 14.1073 101.306 14.1073 101.655 14.2227Z" fill="white"/>
<path d="M85.8931 45.3919C86.0966 45.2765 87.289 44.844 87.638 44.5269C89.3829 42.9699 92.3492 39.5387 93.4252 38.1258C96.4788 34.5505 95.5482 34.8677 98.9799 37.4338C101.917 39.7117 108.053 44.6422 108.839 45.3342C108.868 45.363 108.868 45.363 108.868 45.363C108.868 45.363 108.868 45.363 108.839 45.363C101.365 45.3919 93.4543 45.3919 85.8931 45.3919Z" fill="white"/>
<path d="M2.6032 112.43C3.82463 111.824 5.07515 111.68 6.41291 111.997C6.93638 112.257 7.45985 112.314 7.98332 112.141C8.3323 111.997 8.56495 111.939 8.59404 111.968L9.35016 114.073C9.49557 114.477 9.52465 114.736 9.49557 114.794C9.14659 115.169 8.82669 115.169 8.56496 114.852C7.69251 113.641 6.76189 112.977 5.83127 112.891C4.69708 112.66 3.73739 113.064 2.9231 114.102C2.13789 115.544 1.81799 117.129 1.99248 118.859C2.10881 119.84 2.48687 120.762 3.06851 121.57C3.85371 122.492 4.81341 122.81 5.97668 122.579C7.08179 122.204 7.57618 121.512 7.43077 120.503C7.54709 120.042 7.3726 119.638 6.90729 119.292C6.47107 119.234 6.29658 119.032 6.38383 118.715C6.38383 118.456 6.41291 118.34 6.44199 118.283C6.50015 118.254 6.70372 118.225 7.0527 118.225H9.69914C10.1935 118.11 10.3971 118.283 10.3099 118.744C10.2808 118.975 10.1063 119.177 9.78639 119.35C9.35016 119.609 9.17567 120.128 9.26292 120.907V122.377C9.26292 122.723 9.23384 122.925 9.20475 122.954C9.14659 123.011 8.94302 123.04 8.59404 123.04C7.80883 123.098 6.93638 123.3 6.00576 123.588C5.27872 123.79 4.31902 123.703 3.18484 123.329C1.58534 122.492 0.625642 121.31 0.24758 119.753C-0.0432378 118.831 -0.0723178 117.735 0.131254 116.466C0.305745 114.794 1.12003 113.468 2.6032 112.43Z" fill="white"/>
<path d="M15.7483 115.514C16.0973 115.37 16.3008 115.457 16.3008 115.774V120.733C16.1263 121.396 16.359 121.944 16.9697 122.348C17.9876 122.809 18.8891 122.492 19.6743 121.396C19.8197 121.195 19.907 120.964 19.9361 120.676C19.9361 119.58 19.9361 118.484 19.907 117.36C19.7906 117.1 19.6452 116.956 19.3835 116.898C19.0054 116.841 18.8019 116.783 18.7437 116.754C18.7146 116.697 18.6855 116.581 18.6855 116.379C18.6855 116.178 18.6855 116.062 18.7146 116.033C18.7728 115.976 18.9473 115.918 19.2963 115.889C19.8779 115.832 20.4595 115.716 21.0121 115.486C21.3901 115.341 21.5646 115.428 21.5646 115.745V121.396C21.5065 122.06 21.7391 122.434 22.2917 122.492C22.8151 122.434 22.9606 122.752 22.757 123.357C22.6988 123.415 22.4952 123.415 22.1463 123.415H20.1978C19.9651 123.386 19.8488 123.271 19.907 123.069C19.9651 122.867 19.8779 122.723 19.7325 122.723C19.6743 122.723 19.5289 122.809 19.3253 122.982C18.2202 123.761 17.086 123.847 15.9228 123.328C15.1376 122.867 14.7013 122.233 14.6141 121.425C14.6141 120.243 14.6141 119.061 14.6432 117.85C14.7595 117.389 14.5269 117.071 13.9743 116.87C13.6253 116.812 13.4508 116.754 13.3927 116.725C13.3345 116.495 13.3345 116.264 13.3636 116.005C13.4217 115.947 13.6253 115.918 14.0034 115.889C14.4687 115.918 15.0503 115.774 15.7483 115.514Z" fill="white"/>
<path d="M28.3109 115.255C29.5323 114.909 30.5793 114.909 31.5099 115.284C32.3242 115.659 32.7604 116.235 32.8185 117.072L32.8767 122.031C32.9349 122.463 33.1384 122.608 33.4874 122.406C33.6037 122.348 33.691 122.406 33.7782 122.608C33.9818 123.069 33.691 123.415 32.9058 123.646C32.2951 123.905 31.7716 123.646 31.3354 122.896C31.2481 122.723 31.1027 122.665 30.9573 122.723L29.6777 123.415C29.1833 123.617 28.6889 123.703 28.1655 123.674C27.1767 123.617 26.5369 123.127 26.2461 122.146C26.0425 121.195 26.4496 120.33 27.4966 119.551C28.4272 118.975 29.4451 118.6 30.5502 118.456C31.0736 118.398 31.3063 118.138 31.19 117.677C31.19 117.245 31.0736 116.841 30.8991 116.495C30.4629 115.976 29.9685 115.774 29.3869 115.889C29.1833 115.889 29.0088 115.976 28.8053 116.149C28.6017 116.408 28.4563 116.668 28.4272 116.927C28.4563 117.331 28.2818 117.648 27.9619 117.908C27.4384 118.225 27.0022 118.167 26.6241 117.706C26.3042 117.129 26.4206 116.581 26.944 116.005C27.2639 115.688 27.7292 115.428 28.3109 115.255ZM30.4338 119.378L30.0849 119.465C29.2706 119.667 28.6017 120.128 28.0782 120.878C27.6711 122.06 28.0491 122.636 29.2997 122.608C29.7068 122.55 30.1721 122.348 30.6665 121.944C31.1027 121.57 31.2772 121.195 31.19 120.82C31.19 120.186 31.19 119.724 31.2481 119.494C31.3354 119.176 31.0446 119.148 30.4338 119.378Z" fill="white"/>
<path d="M41.6888 115.111C42.5613 114.851 43.4919 115.024 44.4516 115.63C45.1496 116.264 45.4695 117.014 45.4113 117.85C45.3822 118.859 45.3531 119.868 45.3822 120.878C45.2659 121.685 45.4985 122.204 46.1093 122.463C46.4001 122.435 46.5164 122.608 46.4582 122.954C46.4582 123.213 46.4292 123.328 46.4001 123.386C46.3419 123.415 46.1383 123.444 45.7894 123.444H43.3465C42.9684 123.444 42.7939 123.415 42.7358 123.386C42.7067 123.328 42.6776 123.184 42.6776 122.982L42.7067 122.608C42.7358 122.55 42.9394 122.463 43.3174 122.348C43.5792 122.175 43.7246 121.973 43.7536 121.714L43.7246 117.418C43.4047 116.437 42.8521 115.976 42.0669 116.062C40.9036 116.351 40.1766 117.158 39.8858 118.456V121.771C39.9439 122.06 40.1766 122.29 40.5256 122.435C40.9036 122.463 41.049 122.665 40.9618 123.04C40.9618 123.271 40.9327 123.415 40.8746 123.415C39.8567 123.444 38.8388 123.473 37.85 123.444C37.5011 123.444 37.2975 123.415 37.2393 123.386C37.0648 122.838 37.1521 122.521 37.5011 122.463C38.0536 122.29 38.3154 121.916 38.2281 121.339C38.2281 120.07 38.2281 118.802 38.2572 117.475C38.1409 117.072 37.85 116.841 37.4138 116.812C36.9776 116.812 36.8613 116.553 37.0358 116.005C37.0648 115.947 37.2684 115.918 37.6465 115.889C38.1409 115.861 38.7225 115.716 39.3623 115.457C39.7113 115.284 39.9149 115.342 39.9149 115.63C39.9439 115.889 40.0021 116.034 40.0603 116.091C40.1184 116.12 40.2929 116.005 40.5256 115.745C40.8745 115.428 41.2817 115.197 41.6888 115.111Z" fill="white"/>
<path d="M52.042 115.284C53.1762 114.88 54.2232 114.909 55.1538 115.37C55.4737 115.572 55.7063 115.659 55.8227 115.63C55.9972 115.63 56.2298 115.515 56.4916 115.284C56.9569 114.996 57.3931 114.938 57.8584 115.053C58.44 115.313 58.6727 115.688 58.6145 116.207C58.4982 116.61 58.2074 116.783 57.7711 116.754C57.5676 116.697 57.364 116.524 57.2186 116.207C56.8405 115.947 56.5788 115.976 56.4043 116.322C56.4043 116.38 56.4334 116.524 56.5206 116.754C56.9278 117.735 56.8696 118.629 56.3752 119.465C56.0262 120.013 55.59 120.359 55.1247 120.532C54.3977 120.849 53.6125 120.935 52.7691 120.849C52.5364 120.762 52.3329 120.82 52.1584 121.022C52.1293 121.108 52.1875 121.195 52.2747 121.281C52.4201 121.425 52.6819 121.512 53.089 121.541C53.9614 121.685 55.1247 121.973 56.4916 122.377C57.8002 122.982 58.0911 123.79 57.3931 124.799C57.0732 125.203 56.6079 125.491 56.0553 125.606C54.165 126.154 52.2747 126.125 50.3553 125.549C49.6864 125.289 49.3665 124.799 49.4247 124.078C49.5701 123.559 49.9191 123.155 50.4426 122.838C51.0242 122.665 51.1114 122.406 50.7334 122.002C50.3844 121.598 50.4716 121.166 51.0533 120.705C51.1987 120.589 51.2278 120.445 51.1987 120.301C50.3553 119.58 50.0354 118.715 50.2099 117.677C50.3553 116.61 50.966 115.803 52.042 115.284ZM53.0308 122.925C52.3619 122.925 51.7222 123.242 51.1987 123.876C51.0824 124.251 51.2278 124.539 51.6349 124.741C52.3329 124.943 53.3216 125.001 54.6303 124.885C55.212 124.828 55.6482 124.626 55.9972 124.28C56.0844 124.078 56.0553 123.905 55.8808 123.761C55.241 123.415 54.3104 123.155 53.0308 122.925ZM53.6415 116.034C52.7109 116.005 52.1293 116.524 51.8966 117.648C51.8966 117.908 51.8966 118.167 51.9257 118.456C51.9548 118.975 52.2456 119.378 52.7691 119.695C53.8742 120.041 54.6012 119.667 54.9502 118.6C55.0084 118.167 55.0084 117.735 54.9211 117.245C54.7467 116.466 54.3104 116.091 53.6415 116.034Z" fill="white"/>
<path d="M74.6679 112.43C75.8893 111.824 77.1398 111.68 78.4776 111.997C79.0011 112.257 79.5245 112.314 80.048 112.141C80.4261 111.997 80.6296 111.939 80.6587 111.968L81.4149 114.073C81.5603 114.477 81.5893 114.736 81.5603 114.794C81.2113 115.169 80.8914 115.169 80.6296 114.852C79.7572 113.641 78.8266 112.977 77.896 112.891C76.7618 112.66 75.8021 113.064 74.9878 114.102C74.2026 115.544 73.8827 117.129 74.0572 118.859C74.1735 119.84 74.5516 120.762 75.1332 121.57C75.9184 122.492 76.8781 122.81 78.0414 122.579C79.1465 122.204 79.6409 121.512 79.4955 120.503C79.6118 120.042 79.4373 119.638 78.972 119.292C78.5358 119.234 78.3613 119.032 78.4485 118.715C78.4485 118.456 78.4776 118.34 78.5067 118.283C78.5648 118.254 78.7684 118.225 79.1174 118.225H81.7638C82.2582 118.11 82.4618 118.283 82.3746 118.744C82.3455 118.975 82.171 119.177 81.8511 119.35C81.4149 119.609 81.2404 120.128 81.3276 120.907V122.377C81.3276 122.723 81.2985 122.925 81.2694 122.954C81.2113 123.011 81.0077 123.04 80.6587 123.04C79.8735 123.098 79.0011 123.3 78.0705 123.588C77.3434 123.79 76.3837 123.703 75.2495 123.329C73.65 122.492 72.6903 121.31 72.3123 119.753C72.0215 118.831 71.9924 117.735 72.196 116.466C72.3414 114.794 73.1556 113.468 74.6679 112.43Z" fill="white"/>
<path d="M87.4635 115.255C88.6849 114.909 89.7318 114.909 90.6625 115.284C91.4767 115.659 91.913 116.235 91.9711 117.072L92.0293 122.031C92.0875 122.463 92.291 122.608 92.64 122.406C92.7563 122.348 92.8436 122.406 92.9308 122.608C93.1344 123.069 92.8436 123.415 92.0584 123.646C91.4477 123.905 90.9242 123.646 90.488 122.896C90.4007 122.723 90.2553 122.665 90.1099 122.723L88.8303 123.415C88.3359 123.617 87.8415 123.703 87.3181 123.674C86.3293 123.617 85.6895 123.127 85.3987 122.146C85.1951 121.195 85.6022 120.33 86.6492 119.551C87.5798 118.975 88.5977 118.6 89.7028 118.456C90.2262 118.398 90.4589 118.138 90.3426 117.677C90.3426 117.245 90.2262 116.841 90.0517 116.495C89.6155 115.976 89.1211 115.774 88.5395 115.889C88.3359 115.889 88.1614 115.976 87.9579 116.149C87.7543 116.408 87.6089 116.668 87.5798 116.927C87.6089 117.331 87.4344 117.648 87.1145 117.908C86.591 118.225 86.1548 118.167 85.7767 117.706C85.4568 117.129 85.5732 116.581 86.0966 116.005C86.4456 115.688 86.8818 115.428 87.4635 115.255ZM89.5864 119.378L89.2375 119.465C88.4232 119.667 87.7543 120.128 87.2308 120.878C86.8237 122.06 87.2017 122.636 88.4522 122.608C88.8594 122.55 89.3247 122.348 89.8191 121.944C90.2553 121.57 90.4298 121.195 90.3426 120.82C90.3426 120.186 90.3426 119.724 90.4007 119.494C90.488 119.176 90.2262 119.148 89.5864 119.378Z" fill="white"/>
<path d="M99.474 115.717C100.521 114.938 101.568 114.794 102.673 115.255C102.935 115.371 103.196 115.63 103.487 116.034C103.604 116.178 103.72 116.207 103.865 116.178C105.058 114.996 106.337 114.707 107.617 115.313C108.46 116.005 108.838 116.812 108.78 117.735C108.751 119.032 108.722 120.301 108.751 121.599C108.78 122.031 109.042 122.348 109.565 122.521C109.798 122.521 109.885 122.694 109.827 123.04C109.827 123.3 109.798 123.415 109.769 123.415C109.711 123.444 109.507 123.473 109.158 123.473H106.541C106.192 123.444 106.017 123.271 106.017 122.925C105.959 122.665 106.076 122.55 106.279 122.55C106.832 122.377 107.093 122.031 107.035 121.541L107.064 117.562C107.006 116.87 106.715 116.409 106.192 116.12C105.523 115.976 104.912 116.207 104.36 116.812C103.894 117.274 103.72 117.793 103.836 118.369V121.57C103.865 122.002 104.098 122.319 104.592 122.492C104.941 122.521 105.029 122.81 104.854 123.386C104.825 123.444 104.621 123.444 104.243 123.444H101.713C101.335 123.444 101.161 123.3 101.103 123.011C101.103 122.694 101.19 122.521 101.393 122.492C101.83 122.377 102.091 122.06 102.179 121.483C102.12 120.33 102.12 119.177 102.179 118.023C102.237 117.533 102.12 117.043 101.83 116.61C101.481 116.149 101.161 115.947 100.841 116.034C100.376 116.034 99.9393 116.293 99.5031 116.783C99.1251 117.216 98.9215 117.648 98.9506 118.139C98.9506 119.234 98.9506 120.33 98.9796 121.426C98.9215 121.945 99.1541 122.319 99.7358 122.521C99.9393 122.579 100.027 122.694 100.027 122.954C100.027 123.242 99.9975 123.386 99.9684 123.415C99.9103 123.444 99.7067 123.473 99.3577 123.473H96.9149C96.5368 123.473 96.3623 123.444 96.3041 123.415C96.275 123.357 96.246 123.213 96.246 123.011L96.2751 122.637C96.3041 122.579 96.5077 122.521 96.8276 122.406C97.2929 122.118 97.4383 121.743 97.322 121.253V117.706C97.2929 117.245 97.0603 116.956 96.5659 116.841C96.1006 116.956 95.9261 116.697 96.1006 116.063C96.1296 116.005 96.3332 115.976 96.6531 115.918C97.2057 115.861 97.7873 115.745 98.398 115.515C98.747 115.371 98.9215 115.371 98.9506 115.515C99.0378 115.861 99.1832 115.918 99.474 115.717Z" fill="white"/>
<path d="M115.76 115.14C116.574 114.909 117.331 114.967 118.029 115.284C119.017 115.803 119.628 116.61 119.861 117.735C119.977 118.283 120.035 118.715 119.977 119.004C119.919 119.061 119.715 119.09 119.366 119.09C117.97 119.09 116.574 119.09 115.149 119.119C114.888 119.234 114.8 119.465 114.859 119.84C114.859 120.215 114.946 120.647 115.179 121.137C115.644 121.973 116.138 122.377 116.691 122.406C117.389 122.55 118.116 122.233 118.93 121.397C119.25 121.108 119.483 121.022 119.686 121.08C119.89 121.195 119.919 121.426 119.715 121.772C118.639 123.386 117.389 123.992 115.964 123.559C114.917 123.357 114.132 122.694 113.608 121.627C113.026 120.272 112.997 118.831 113.55 117.331C114.102 116.091 114.859 115.342 115.76 115.14ZM117.476 116.322C116.691 115.832 115.993 116.034 115.382 116.927C115.149 117.389 115.062 117.764 115.12 118.023C115.237 118.167 115.44 118.196 115.789 118.167C116.516 118.167 117.272 118.167 118.029 118.138C118.174 117.994 118.232 117.792 118.174 117.533C118.087 117.072 117.883 116.668 117.476 116.322Z" fill="white"/>
<path d="M31.9177 113.323H27.2646V113.899H31.9177V113.323Z" fill="white"/>
</svg>
