<?xml version="1.0" encoding="utf-8"?>
<!-- Generator: Adobe Illustrator 22.0.1, SVG Export Plug-In . SVG Version: 6.00 Build 0)  -->
<svg version="1.1" id="레이어_1" xmlns="http://www.w3.org/2000/svg" xmlns:xlink="http://www.w3.org/1999/xlink" x="0px"
	 y="0px" viewBox="0 0 501.5 780" style="enable-background:new 0 0 501.5 780;" xml:space="preserve">
<style type="text/css">
	.st0{fill:url(#SVGID_1_);stroke:#EB1A21;stroke-miterlimit:10;}
	.st1{fill:#EB1A21;stroke:#EB1A21;stroke-miterlimit:10;}
	.st2{fill:#FFFFFF;}
	.st3{fill:#EC1D24;stroke:#000000;stroke-width:4;stroke-miterlimit:10;}
</style>
<g>
	<linearGradient id="SVGID_1_" gradientUnits="userSpaceOnUse" x1="250.9999" y1="0.5313" x2="250.9999" y2="779.5309">
		<stop  offset="0" style="stop-color:#EB1A21"/>
		<stop  offset="1" style="stop-color:#A51A21"/>
	</linearGradient>
	<path class="st0" d="M1,779.5c0-259.7,0-519.3,0-779c166.7,0,333.3,0,500,0c0,259.7,0,519.3,0,779C334.3,779.5,167.7,779.5,1,779.5
		z M25,389.3c0,113.8,0.2,227.7-0.3,341.5c-0.1,11.7,18.3,30,29.8,30c131.5-0.4,263-0.3,394.5-0.3c14.6,0,30-15.3,30-29.8
		c0-227.3,0-454.6,0-682c0-15-15.1-30.2-30-30.2c-131.3,0-262.7,0-394,0c-14.6,0-30,15.3-30,29.8C25,162,25,275.7,25,389.3z"/>
	<path d="M25,389.3c0-113.7,0-227.3,0-341c0-14.5,15.4-29.8,30-29.8c131.3,0,262.7,0,394,0c14.9,0,30,15.2,30,30.2
		c0,227.3,0,454.6,0,682c0,14.5-15.4,29.8-30,29.8c-131.5,0-263-0.2-394.5,0.3c-11.5,0-29.9-18.3-29.8-30
		C25.2,617,25,503.1,25,389.3z M29,465c1.3-0.5,2.1-0.7,2.8-1c49.1-23.9,101.1-35.8,155.4-38.7c56.7-3.1,112.1,3.7,165.8,22.4
		c46.1,16.1,87.5,39.8,120.4,76.8c0.3,0.3,0.7,0.4,1.6,0.9c0-2.1,0-3.7,0-5.3c0-156.7-0.1-313.3,0.2-470c0-11.9-15.8-27.7-27.8-27.7
		c-130.2,0.3-260.3,0.4-390.5,0c-12.3,0-28.1,16-28.1,27.9c0.4,136.3,0.2,272.7,0.2,409C29,461,29,462.8,29,465z"/>
	<path class="st1" d="M29,465c0-2.2,0-4,0-5.8c0-136.3,0.1-272.7-0.2-409c0-12,15.8-28,28.1-27.9c130.2,0.4,260.3,0.4,390.5,0
		c12,0,27.8,15.8,27.8,27.7c-0.3,156.7-0.2,313.3-0.2,470c0,1.6,0,3.2,0,5.3c-0.9-0.5-1.3-0.6-1.6-0.9
		c-32.9-37-74.3-60.7-120.4-76.8c-53.7-18.7-109.1-25.5-165.8-22.4c-54.3,3-106.4,14.9-155.4,38.7C31.1,464.4,30.3,464.6,29,465z
		 M393.8,310.5c0.2-0.1,0.5-0.1,0.7-0.2c0.3-1.5,1.2-3.2,0.8-4.4c-3.3-10.5-6.9-20.8-10.2-31.3c-1-3.2-1.5-6.7-1.4-10
		c0.3-10.1,0.9-20.3,1.4-30.4c0.3-5.3,0.1-10.5-2.4-15.5c-0.8-1.7,0.2-4.4,0.5-6.6c0.2-1.9,1.4-4,0.8-5.5c-3.1-7.3-6.6-14.4-10-21.6
		c2.2-0.7,4.8-1.2,7.2-2.3c16.9-8.1,20.8-13.1,18.8-28.8c-0.9-7.3-5.1-14.3-7.8-21.4c-0.4-1.1-1.1-2.2-1.4-3.4
		c-0.6-2.6-0.4-5.6-1.7-7.7c-8.2-13.5-20-20-36.1-17.8c-18.1,2.5-34.3,7.9-41.8,27.1c-5.9-1.9-12.4-4-18.8-6.1
		c0.6-1.2,1.1-2.1,1.6-3c-1-0.5-1.9-1.4-2.9-1.3c-3.8,0.2-7.6,0.7-11.9,1.1c-0.2-5.6-4.1-5.4-8.1-4.8c-5.1,0.8-10.1,1.9-15.2,2.8
		c-1.1,0.2-3,0.7-3.2,0.3c-2.7-4.8-6.1-1.1-9.2-0.9c-1.7,0.1-4.5,1.1-5,0.4c-2.1-3-4.3-1.6-6.7-1c-16.2,4-32.5,8-48.9,12.1
		c-0.6-7-4.9-11.8-10.5-15.8c-12.2-8.6-25.8-12.2-40.6-11.1c-6.8,0.5-13.3,2.9-17.7,8.2c-4.4,5.3-12.2,9.1-9.5,18.2
		c0.1,0.3-0.4,0.9-0.6,1.3c-2.7,5.9-6,11.5-7.8,17.6c-3.4,11.2-2.1,23.3,9.4,29.1c5.3,2.6,10.5,5.2,15.8,7.9
		c-6.6,10.6-13,21.8-15,34.7c-0.2,1.5-0.1,3.3,0.4,4.8c1,3.5,3,6.9,3.3,10.5c0.9,10.2,1.3,20.5,1.6,30.8c0.1,2.2-0.4,4.6-1.2,6.7
		c-3.3,9.8-6.8,19.4-10.2,29.2c-1.2,3.5-1,6.9,1.2,10.2c1.1,1.6,1.1,3.8,1.6,5.8c1.1,4.1,1.1,8.4,1.1,12.7c0,0.4,0.4,1.2,0.6,1.2
		c4.1,0.1,3.2,3.9,4.5,6c11.9,20.1,27.7,35.9,49.9,44c10.1,3.7,20.8,5.9,31.1,9.3c3.8,1.2,8.6,2.8,10.5,5.8c5,8,12.1,11.5,20.7,13.2
		c15.5,3,31.2,2.2,46.8,0.7c8.7-0.8,17.4-3.1,22.2-10.7c3.7-5.8,8.6-7.7,14.4-9.3c11.2-3.1,22.7-5.8,33.4-10
		c19.7-7.8,34-22.3,45.4-39.9c0.9-1.3,2-3.5,3.1-3.6c5.3-0.1,4.8-2.8,3.1-6.1c7.7-5.4-1.8-10.9,0.6-17.2c0.8,2.1,1.4,3.6,2,5.1
		c0.9-0.6,1.7-1.1,2.6-1.7C394.7,315.6,394.3,313,393.8,310.5z"/>
	<path d="M393.8,310.5c0.5,2.6,1,5.1,1.5,7.7c-0.9,0.6-1.7,1.1-2.6,1.7c-0.6-1.5-1.2-3-2-5.1c-2.4,6.3,7.2,11.8-0.6,17.2
		c1.7,3.3,2.1,6-3.1,6.1c-1.1,0-2.2,2.2-3.1,3.6c-11.4,17.6-25.7,32.1-45.4,39.9c-10.8,4.3-22.2,6.9-33.4,10
		c-5.9,1.6-10.7,3.5-14.4,9.3c-4.8,7.6-13.5,9.8-22.2,10.7c-15.6,1.5-31.2,2.3-46.8-0.7c-8.7-1.7-15.7-5.2-20.7-13.2
		c-1.9-3-6.7-4.6-10.5-5.8c-10.3-3.3-20.9-5.6-31.1-9.3c-22.2-8.1-38-23.9-49.9-44c-1.3-2.2-0.4-5.9-4.5-6c-0.2,0-0.6-0.8-0.6-1.2
		c0-4.3,0-8.6-1.1-12.7c-0.5-2-0.6-4.2-1.6-5.8c-2.2-3.3-2.4-6.7-1.2-10.2c3.3-9.7,6.9-19.4,10.2-29.2c0.7-2.1,1.2-4.5,1.2-6.7
		c-0.4-10.3-0.7-20.5-1.6-30.8c-0.3-3.6-2.3-6.9-3.3-10.5c-0.4-1.5-0.6-3.2-0.4-4.8c2-12.9,8.3-24.1,15-34.7
		c-5.3-2.7-10.6-5.3-15.8-7.9c-11.5-5.7-12.8-17.8-9.4-29.1c1.8-6.1,5.2-11.8,7.8-17.6c0.2-0.4,0.7-1,0.6-1.3
		c-2.7-9.1,5.1-13,9.5-18.2c4.4-5.3,10.8-7.7,17.7-8.2c14.8-1.1,28.4,2.5,40.6,11.1c5.7,4,9.9,8.8,10.5,15.8
		c16.4-4.1,32.7-8.1,48.9-12.1c2.3-0.6,4.6-2,6.7,1c0.5,0.7,3.3-0.2,5-0.4c3.1-0.2,6.5-3.9,9.2,0.9c0.2,0.4,2.1-0.1,3.2-0.3
		c5.1-0.9,10.1-1.9,15.2-2.8c4-0.7,7.9-0.9,8.1,4.8c4.3-0.4,8.1-0.9,11.9-1.1c0.9-0.1,1.9,0.9,2.9,1.3c-0.5,0.9-1,1.8-1.6,3
		c6.4,2.1,12.8,4.2,18.8,6.1c7.5-19.2,23.7-24.7,41.8-27.1c16.1-2.2,27.9,4.3,36.1,17.8c1.3,2.1,1.1,5.2,1.7,7.7
		c0.3,1.2,0.9,2.3,1.4,3.4c2.7,7.1,6.8,14,7.8,21.4c2,15.6-1.9,20.6-18.8,28.8c-2.3,1.1-5,1.6-7.2,2.3c3.4,7.3,7,14.4,10,21.6
		c0.6,1.5-0.5,3.6-0.8,5.5c-0.3,2.2-1.3,4.9-0.5,6.6c2.5,5,2.7,10.1,2.4,15.5c-0.5,10.1-1.2,20.2-1.4,30.4c-0.1,3.3,0.4,6.8,1.4,10
		c3.2,10.5,6.9,20.8,10.2,31.3c0.4,1.3-0.5,2.9-0.8,4.4C394.2,310.3,394,310.4,393.8,310.5z M305,388c8.2-2.5,16.5-5,24.7-7.6
		c21.9-7.1,38.3-21.1,50.5-40.3c1.6-2.6,3.2-5.2,4.1-6.7c0.6-3.7,1.2-6.5,1.4-9.2c0.1-2.2,0.1-4.7-0.7-6.7
		c-1.6-4.7,1.2-12.4,6.6-14.6c-3.5-9.1-7.1-18.2-10.4-27.4c-1-2.6-2.2-5.8-1.6-8.2c4-14.2-0.3-28.5,0.8-42.8c0-0.6-0.6-1.2-0.7-1.8
		c-0.4-2-1.5-4.2-1.1-6.1c2.3-11-1.7-20-8.5-28.2c-4.6-5.5-9.1-11-13.6-16.3c0.9-1.3,1.9-2.6,2.8-4c-1.4-1-2.8-2.2-4.3-3
		c-5.7-2.8-11.5-5.5-18.3-8.8c5.5-4,3.1-6.1,0-7.5c-13.8-6.2-27.5-12.5-41.5-18.2c-5-2-10.7-2.5-16-3.7c-2-0.5-3.9-1.3-5.8-2
		c-8.3,0.9-8.3,0.9-9.8-3.1c-3.3,0.8-6.7,1.8-10.1,2.5c-1.4,0.3-3.7,1-4.3,0.3c-3.6-3.9-7-0.7-10.4-0.2c-1.8,0.3-4.5,1.3-5.1,0.6
		c-2.7-3.1-5.4-1.2-8.2-0.9c-25.5,3.5-47.9,15.5-70.7,26.4c-1.2,0.6-2.7,3.3-2.3,4c2.1,4.1-0.7,5.5-3.3,7c-3,1.7-6.2,3.2-9.5,4.5
		c-4.1,1.7-6.6,3.7-2.7,7.9c-2.4,2.6-4.5,5-6.6,7.3c-8.9,9.8-14.7,21.3-18.9,33.7c-0.7,1.9-0.9,4.2-0.5,6.2
		c1.1,5.3,4.4,10.7,3.6,15.6c-1.8,10.8-0.1,21.2,1.1,31.8c0.2,1.9-0.4,4.1-1.3,5.9c-5.1,10-8.7,20.5-10.7,31.7
		c1.6,0.3,2.9,0.5,4,0.8c0.7,4.9,1.3,9.3,1.9,13.1c0.9,1.8,2.5,3.3,2.3,4.7c-0.9,8,2,14.4,6.5,20.8c16.3,23.4,40,34.4,66.5,40.8
		c1.3,0.3,2.7,0.2,4.2,0.3c-2.2-4.4-4.3-8.4-6.1-12.4c-0.6-1.4-0.2-4.2-1.1-4.6c-5.4-2.7-3.3-7.1-2.5-10.9c1.1-5.5,2.9-10.9,4.4-16
		c-5.8-2.3-11.5-4.5-17.2-6.7c-2.7-1.1-5.4-2.2-8.2-3.4c-5.9-2.4-12.7-3.4-15.7-10.4c-0.6-1.5-1.8-2.7-2.6-4
		c-1.5,0.8-2.8,1.5-3.8,2.1c-2.4-3.6-4.5-6.9-6.3-9.7c1.3-5.5,2.5-11,3.9-16.5c1.7-6.9,5.6-12,11.5-16.2c5.3-3.8,9.8-8.9,14.1-13.9
		c1.6-1.8,2.7-5,2.3-7.3c-0.6-4,1-5,3.6-4.8c0.5-1.8,0.5-4,1.4-4.4c9.7-4.9,19.6-7.9,29.8-1c4,2.7,8.5,4.7,12.4,7.4
		c8.4,6,15.8,12.9,16.7,23.8c14.4,0,28.4,0,42.7,0c0.2-7.8,4.3-13.8,9.9-18.3c6-4.9,12.9-8.8,19.4-13.1c8.9-5.9,17.8-4.2,26.9-0.1
		c2.8,1.2,3.1,4.2,5,5.2c2.5,1.4,2.8,2.7,2.3,5.1c-0.2,1.1,0.2,2.3,0.4,3.4c1.7,9.1,8.9,13.4,15.7,17.7c6.3,4,10.3,9.3,12,16.4
		c1.4,5.5,2.6,11,3.9,16.5c-1.8,2.7-3.9,6-6.3,9.6c-1.1-0.6-2.5-1.3-4.3-2.2c-2.3,8-8.6,11.6-15.4,14.2c-9.2,3.6-18.5,6.8-27.8,10.2
		c0,0-0.1,0.2-0.1,0.3c0.3,1,0.7,1.9,0.8,2.9c1.1,8.3,8.7,16,0.7,25.2C308,375.1,307.3,381.8,305,388z M246.5,281.3
		c0,0.1,0,0.2,0,0.3c-3.5,0-7,0.2-10.5,0c-8.6-0.5-15.5,2.9-21.6,8.6c-9.2,8.5-15.1,19-18.7,30.8c-1.8,5.9-2.5,12-4.4,17.8
		c-2.1,6.2-5.3,12.1-7.5,18.3c-1.2,3.3-3.1,7.2,1.7,9.9c0.8,0.4,0.8,2.4,1,3.7c2,10.6,7.5,18.5,17.7,22.3
		c12.2,4.5,24.1,3.2,35.9-2.2c5-2.3,4.6-6.3,4.5-10.5c-0.1-4.1-3.6-3.1-5.9-3.9c-2.5-0.9-5-1.9-7.5-2.8c-5.7-1.9-8.3-6.4-9.5-11.9
		c-0.3-1.4,0.5-3,0.8-4.5c1.4,0.3,2.8,0.4,4.1,0.9c2,0.8,3.9,2.7,5.8,2.7c10.3,0,20.9,2.7,30.6-3.4c2-1.3,4.3-1.3,4.3,1.6
		c-0.1,4.3-0.4,8.8-5,11.2c-3.5,1.9-7,3.7-10.5,5.6c-1.1,0.6-2.6,1.2-3.1,2.3c-2.1,4.1,0.5,11.1,4.7,13.1c9.5,4.5,19.6,4.7,29.8,3.3
		c10.7-1.5,17.5-7.7,22.2-17.2c2.1-4.3,0-10.4,5.6-13.1c0.2-0.1,0.2-1,0-1.4c-2.3-7.2-4.6-14.5-7-21.7c-0.9-2.6-2.6-5-3-7.7
		c-1.9-11.9-5.9-22.9-12.6-32.8c-8.6-12.6-19.5-21.4-36.2-19.4C250.5,281.5,248.5,281.3,246.5,281.3z M207.5,398.2
		c-0.3,0.7-0.5,1.3-0.8,2c4.3,2.1,8.5,5.2,13,6.1c18.1,3.6,36.4,3.2,54.5,0c4.5-0.8,8.6-4,12.9-6.1c-0.2-0.5-0.4-1.1-0.6-1.6
		c-14.1,1.6-27.9,1.7-40.2-6.7C234.3,398.9,221.4,401.7,207.5,398.2z M192.4,293c4.7-1.1,9.7-2.3,14.7-3.3c7.7-1.5,8.5-6.5,5.3-13.2
		c-1.6-3.4-5.4-6.6-8.9-7.9c-4.5-1.7-9.7-1.6-14.6-2c-6.9-0.6-11.3,3.4-14.6,8.7c-3.9,6.4-1.9,12.4,5,14.9
		C183.3,291.7,187.6,292,192.4,293z M300.7,266.6c-1.3,0-3-0.2-4.6,0c-6.8,0.8-12.5,3.3-15.8,9.8c-2.3,4.7-1.5,10.4,1.9,11.9
		c11.3,4.7,22.8,6.2,34.2,0.7c1.8-0.9,3.4-3.5,3.7-5.6C321.6,275.3,313.4,264.8,300.7,266.6z"/>
	<path class="st2" d="M305,388c2.3-6.2,3-12.9,6.6-17c8-9.2,0.4-16.9-0.7-25.2c-0.1-1-0.6-1.9-0.8-2.9c0-0.1,0.1-0.3,0.1-0.3
		c9.3-3.4,18.6-6.6,27.8-10.2c6.8-2.7,13-6.3,15.4-14.2c1.8,1,3.2,1.7,4.3,2.2c2.4-3.6,4.5-6.9,6.3-9.6c-1.3-5.5-2.5-11-3.9-16.5
		c-1.8-7.1-5.7-12.4-12-16.4c-6.8-4.3-14.1-8.7-15.7-17.7c-0.2-1.1-0.7-2.4-0.4-3.4c0.6-2.4,0.2-3.7-2.3-5.1c-1.9-1.1-2.2-4-5-5.2
		c-9.1-4.1-18-5.8-26.9,0.1c-6.5,4.3-13.4,8.2-19.4,13.1c-5.6,4.6-9.8,10.5-9.9,18.3c-14.3,0-28.4,0-42.7,0
		c-1-10.9-8.3-17.8-16.7-23.8c-3.9-2.8-8.4-4.8-12.4-7.4c-10.2-6.9-20.1-3.9-29.8,1c-0.9,0.4-0.8,2.6-1.4,4.4
		c-2.6-0.3-4.1,0.8-3.6,4.8c0.3,2.3-0.7,5.5-2.3,7.3c-4.3,5-8.8,10.1-14.1,13.9c-5.9,4.2-9.8,9.3-11.5,16.2
		c-1.4,5.5-2.6,11-3.9,16.5c1.8,2.8,4,6.1,6.3,9.7c1-0.6,2.3-1.2,3.8-2.1c0.9,1.3,2,2.6,2.6,4c3,6.9,9.8,7.9,15.7,10.4
		c2.7,1.1,5.4,2.3,8.2,3.4c5.7,2.2,11.3,4.4,17.2,6.7c-1.4,5.1-3.3,10.5-4.4,16c-0.8,3.7-2.9,8.2,2.5,10.9c0.9,0.4,0.4,3.2,1.1,4.6
		c1.8,4.1,3.9,8,6.1,12.4c-1.4-0.1-2.9,0-4.2-0.3c-26.6-6.4-50.3-17.4-66.5-40.8c-4.5-6.4-7.4-12.8-6.5-20.8
		c0.2-1.3-1.4-2.9-2.3-4.7c-0.6-3.9-1.2-8.3-1.9-13.1c-1.1-0.2-2.4-0.5-4-0.8c2-11.2,5.6-21.7,10.7-31.7c0.9-1.8,1.5-4,1.3-5.9
		c-1.2-10.6-2.9-20.9-1.1-31.8c0.8-4.8-2.5-10.3-3.6-15.6c-0.4-2-0.2-4.3,0.5-6.2c4.2-12.4,10-23.9,18.9-33.7
		c2.1-2.3,4.2-4.7,6.6-7.3c-3.9-4.2-1.4-6.3,2.7-7.9c3.2-1.3,6.4-2.8,9.5-4.5c2.5-1.4,5.4-2.9,3.3-7c-0.4-0.8,1.1-3.4,2.3-4
		c22.8-10.9,45.2-22.8,70.7-26.4c2.7-0.4,5.5-2.3,8.2,0.9c0.6,0.7,3.4-0.3,5.1-0.6c3.5-0.6,6.8-3.7,10.4,0.2c0.6,0.7,2.9,0,4.3-0.3
		c3.4-0.8,6.8-1.7,10.1-2.5c1.6,4,1.6,4,9.8,3.1c1.9,0.7,3.8,1.5,5.8,2c5.3,1.3,11,1.7,16,3.7c14,5.7,27.7,12,41.5,18.2
		c3.1,1.4,5.5,3.5,0,7.5c6.8,3.2,12.6,5.9,18.3,8.8c1.6,0.8,2.9,2,4.3,3c-0.9,1.3-1.9,2.7-2.8,4c4.4,5.3,9,10.8,13.6,16.3
		c6.8,8.2,10.8,17.2,8.5,28.2c-0.4,1.9,0.6,4,1.1,6.1c0.1,0.6,0.8,1.2,0.7,1.8c-1.1,14.2,3.2,28.5-0.8,42.8
		c-0.7,2.4,0.6,5.6,1.6,8.2c3.3,9.2,6.9,18.3,10.4,27.4c-5.4,2.3-8.2,9.9-6.6,14.6c0.7,2.1,0.8,4.5,0.7,6.7
		c-0.1,2.8-0.8,5.5-1.4,9.2c-0.9,1.5-2.5,4.1-4.1,6.7c-12.2,19.2-28.6,33.2-50.5,40.3C321.5,383,313.2,385.5,305,388z M219.2,256.1
		c2.7,4.6,5.4,9.2,8,13.9C229.1,264.3,224.8,256.9,219.2,256.1z M273.6,256.4c-5.8,0.3-6.8,4.3-8.5,7.2c-0.9,1.6-0.8,3.9-1.1,5.8
		c0.5,0.1,1.1,0.2,1.6,0.3C268,265.7,270.4,261.7,273.6,256.4z M263,256.7c-5.4,3.4-6.3,9.5-2.6,14.7C261.3,266.3,262,262,263,256.7
		z M228.7,256.9c0.8,4.6,1.5,8.4,2.2,12.6C235.2,265.5,234.2,259.7,228.7,256.9z"/>
	<path class="st2" d="M246.5,281.3c2,0,4,0.2,6,0c16.6-2,27.5,6.8,36.2,19.4c6.7,9.9,10.8,20.9,12.6,32.8c0.4,2.7,2.1,5.1,3,7.7
		c2.4,7.2,4.7,14.5,7,21.7c0.1,0.4,0.2,1.3,0,1.4c-5.6,2.7-3.5,8.8-5.6,13.1c-4.7,9.5-11.6,15.7-22.2,17.2
		c-10.2,1.4-20.3,1.3-29.8-3.3c-4.2-2-6.8-9-4.7-13.1c0.5-1,2-1.6,3.1-2.3c3.5-1.9,7-3.8,10.5-5.6c4.6-2.4,4.9-7,5-11.2
		c0.1-2.9-2.2-2.9-4.3-1.6c-9.6,6.1-20.3,3.4-30.6,3.4c-1.9,0-3.8-1.9-5.8-2.7c-1.3-0.5-2.7-0.6-4.1-0.9c-0.3,1.5-1.1,3.1-0.8,4.5
		c1.1,5.5,3.8,9.9,9.5,11.9c2.5,0.9,5,1.8,7.5,2.8c2.2,0.8,5.7-0.2,5.9,3.9c0.1,4.2,0.5,8.2-4.5,10.5c-11.7,5.4-23.7,6.7-35.9,2.2
		c-10.3-3.8-15.8-11.7-17.7-22.3c-0.2-1.3-0.2-3.3-1-3.7c-4.8-2.7-2.9-6.6-1.7-9.9c2.2-6.2,5.4-12.1,7.5-18.3
		c1.9-5.8,2.6-12,4.4-17.8c3.5-11.8,9.5-22.3,18.7-30.8c6.1-5.7,13-9.1,21.6-8.6c3.5,0.2,7,0,10.5,0
		C246.5,281.5,246.5,281.4,246.5,281.3z"/>
	<path class="st2" d="M207.5,398.2c13.9,3.5,26.8,0.7,39-6.4c12.3,8.4,26.1,8.3,40.2,6.7c0.2,0.5,0.4,1.1,0.6,1.6
		c-4.3,2.1-8.4,5.3-12.9,6.1c-18.1,3.3-36.4,3.6-54.5,0c-4.6-0.9-8.7-4-13-6.1C207,399.5,207.3,398.9,207.5,398.2z"/>
	<path class="st2" d="M192.4,293c-4.7-1-9.1-1.3-13.1-2.8c-6.9-2.5-8.9-8.6-5-14.9c3.2-5.3,7.7-9.3,14.6-8.7
		c4.9,0.4,10.1,0.3,14.6,2c3.5,1.3,7.3,4.5,8.9,7.9c3.2,6.7,2.4,11.7-5.3,13.2C202,290.7,197.1,291.9,192.4,293z M193.8,270.6
		c-10.2-0.1-16,3.7-16.7,10.4c-0.1,1.4,1.1,3.8,2.4,4.4c8.8,4.6,17.7,3,26.6,0.1c4.1-1.3,4.2-3.6,2.7-6.8
		C205.5,271.7,198.9,271.2,193.8,270.6z"/>
	<path class="st2" d="M300.7,266.6c12.7-1.8,20.8,8.7,19.4,16.8c-0.4,2-2,4.7-3.7,5.6c-11.4,5.6-22.9,4-34.2-0.7
		c-3.5-1.4-4.3-7.2-1.9-11.9c3.2-6.5,9-9,15.8-9.8C297.8,266.5,299.4,266.6,300.7,266.6z M301.1,270.6c-1.2,0-2.4-0.2-3.5,0
		c-6.1,1.1-12,2.6-13.8,9.6c-0.3,1.3,0.5,3.9,1.5,4.3c9.3,4,18.9,5.7,28.4,0.8c1.2-0.6,2.4-3,2.3-4.5
		C315.2,274.3,309.4,270.5,301.1,270.6z"/>
	<path d="M219.2,256.1c5.6,0.8,9.9,8.2,8,13.9C224.6,265.4,221.9,260.7,219.2,256.1z"/>
	<path d="M273.6,256.4c-3.2,5.3-5.6,9.3-8,13.3c-0.5-0.1-1.1-0.2-1.6-0.3c0.3-2,0.2-4.2,1.1-5.8
		C266.7,260.7,267.8,256.7,273.6,256.4z"/>
	<path d="M263,256.7c-1,5.4-1.7,9.6-2.6,14.7C256.6,266.2,257.6,260.1,263,256.7z"/>
	<path d="M228.7,256.9c5.5,2.8,6.5,8.6,2.2,12.6C230.2,265.3,229.5,261.5,228.7,256.9z"/>
	<path d="M193.8,270.6c5.1,0.6,11.7,1.1,15,8.1c1.5,3.2,1.4,5.4-2.7,6.8c-9,2.9-17.8,4.5-26.6-0.1c-1.3-0.7-2.5-3-2.4-4.4
		C177.8,274.3,183.6,270.5,193.8,270.6z"/>
	<path d="M301.1,270.6c8.4-0.1,14.1,3.7,14.8,10.2c0.2,1.4-1,3.8-2.3,4.5c-9.5,4.9-19.1,3.2-28.4-0.8c-1-0.4-1.8-3-1.5-4.3
		c1.8-7,7.8-8.5,13.8-9.6C298.7,270.5,299.9,270.6,301.1,270.6z"/>
	<g>
		<circle class="st3" cx="119.5" cy="665.5" r="84.7"/>
		<path class="st2" d="M107.3,649.1c-0.3,0-0.6,0-0.9-0.1c-1.6-0.1-3-0.5-3.6-2.1c-0.6-1.7,0.1-3,1.2-4.3c0.1-0.1,0.3-0.3,0.4-0.4
			c3.6-1.7,3.8-5,3.8-8.4c0-9.5,0-18.9-0.1-28.4c0-3.9-1.8-7.4-3.2-10.9c-0.4-1-0.3-2.2-0.5-3.3c1.1,0.2,2.3,0.2,3.3,0.7
			c2.5,1.2,4.9,2.5,7.2,4c5.1,3.2,7.3,7.8,6.5,13.9c-0.8,6.1-1.1,12.3-1.6,18.4c0,0.5,0,1,0,2.1c1.1-0.7,1.8-1.2,2.6-1.7
			c5.9-4.2,10.2-9.9,15-15.1c1.7-1.8,3.5-3.7,5.3-5.4c1.9-1.8,4.4-2.2,6.6-0.8c3.2,2.1,5.8,4.8,7.6,8.3c1.3,2.7,0.2,5.1-2.7,5.9
			c-2.8,0.7-5.1,2.2-7.4,3.7c-8.3,5.6-16.8,11.1-25.3,16.5c-1.8,1.2-2.4,2.7-2.5,4.6c0,1.2,0.6,1.5,1.6,1.2c5.2-1.6,10.1-3.8,14-7.8
			c2.3-2.3,4.4-2.8,7.1-1.3c1.8,1,3.5,2.1,5.1,3.3c2.3,1.8,2.6,4.1,0.7,6.3c-1,1.2-2.3,2.3-3.7,3c-5.7,2.8-10.4,6.9-14.8,11.3
			c-1.1,1.1-1.2,2.3-0.2,3.5c0.6,0.8,1.3,1.4,1.9,2.1c2.5,2.8,2.8,5.9,1,9.1c-4.4,7.8-5,16-2.5,24.5c1,3.5,3.9,4.8,7.1,5.5
			c9.5,1.9,18.6,0.3,27.5-2.9c1.8-0.6,2.1-1.3,1.3-3c-2.1-4.1-4.1-8.2-6.2-12.3c-0.4-0.8-0.7-1.5-1-2.3c-0.6-1.5-0.3-3,0.9-4.1
			c1.3-1.2,2.8-0.8,4.2-0.1c0.9,0.5,1.8,1.2,2.5,2c5.2,5.3,10.7,10.4,14.7,16.7c0.3,0.5,0.9,0.9,1.5,1.3c1.7,1.2,2.7,2.8,2.4,4.9
			c-0.3,2.2-1.7,3.6-3.8,4.4c-12.7,4.9-25.8,7.5-39.5,6.6c-5.8-0.4-11.5-1.2-16.4-4.5c-1.6-1.1-3.2-2.6-4.1-4.3
			c-4.5-7.8-4.9-16.4-3.5-25.1c0.4-2.6,1.2-5.1,1.7-7.7c0.2-1.2,0.3-2.3,0.5-3.5c-0.2-0.1-0.3-0.2-0.5-0.3c-0.8,0.8-1.7,1.7-2.5,2.5
			c-10.7,11-21.7,21.7-34.4,30.5c-2.7,1.9-5.5,3.5-8.3,5.3c-3.8,2.3-8.1,3.3-12.4,4c-0.6,0.1-1.5-0.3-1.8-0.7
			c-0.3-0.3-0.1-1.3,0.3-1.8c0.8-1,1.6-2.1,2.6-2.9c9.2-8,18.7-15.6,27.6-23.8c8.3-7.6,16.1-15.8,24.1-23.7c0.2-0.2,0.4-0.4,0.6-0.8
			c-4.3,1.3-8.4,2.7-12.6,3.7c-5.2,1.3-10.4,2.3-15.6,3.3c-1.2,0.2-2.6,0.1-3.7-0.2c-4.3-1.1-7.6-3.7-10.5-6.9
			c-0.6-0.6-1.2-2.2-0.9-2.6c0.6-0.8,1.9-0.9,2.8-1.4c0.1-0.1,0.4,0,0.5,0c8.1,1.4,15.7-1.1,23.3-3c2.4-0.6,4.9-1.3,7.3-2
			C106.8,651.8,107.1,651.4,107.3,649.1z"/>
		<path class="st2" d="M84.3,619.2c2.8,0,5.8,2.6,6.8,6c0.7,2.5,1.1,5.1,1.7,7.7c0.9,3.5,1.8,7.1,2.7,10.5c0.1,0.5,0.4,1,0.4,1.5
			c0,0.5-0.1,1.2-0.4,1.4s-1.1,0.3-1.5,0c-5.8-3.5-11.3-7.3-14.2-13.7c-1.4-2.9-1.6-6-1-9.1C79.3,620.9,81.4,619.2,84.3,619.2z"/>
	</g>
</g>
</svg>
