<svg width="101" height="167" viewBox="0 0 101 167" fill="none" xmlns="http://www.w3.org/2000/svg">
<mask id="path-1-inside-1" fill="white">
<path d="M0 83.5C0 129.616 25.4233 167 50 167C74.5767 167 101 129.616 101 83.5C101 59.4298 94.1989 38.5 88.5 28.5C82.8011 18.5 73.5 6 61.5 0L50 24.5L39.5 0C27.5 7 18.7688 17.5 12.5 28.5C4.5215 42.5 0 59.4298 0 83.5Z"/>
</mask>
<path d="M0 83.5C0 129.616 25.4233 167 50 167C74.5767 167 101 129.616 101 83.5C101 59.4298 94.1989 38.5 88.5 28.5C82.8011 18.5 73.5 6 61.5 0L50 24.5L39.5 0C27.5 7 18.7688 17.5 12.5 28.5C4.5215 42.5 0 59.4298 0 83.5Z" fill="url(#paint0_linear)"/>
<path d="M12.5 28.5L11.6312 28.0049L12.5 28.5ZM39.5 0L40.4191 -0.393919L39.9734 -1.43388L38.9961 -0.863779L39.5 0ZM50 24.5L49.0809 24.8939L49.9585 26.9418L50.9052 24.9249L50 24.5ZM61.5 0L61.9472 -0.894427L61.0303 -1.35287L60.5948 -0.424907L61.5 0ZM50 166C38.2194 166 25.9844 157.003 16.6322 142.014C7.30957 127.072 1 106.383 1 83.5H-1C-1 106.733 5.40209 127.793 14.9353 143.073C24.4389 158.305 37.204 168 50 168V166ZM1 83.5C1 59.5649 5.49356 42.814 13.3688 28.9951L11.6312 28.0049C3.54944 42.186 -1 59.2947 -1 83.5H1ZM13.3688 28.9951C19.5789 18.0983 28.1986 7.75018 40.0039 0.863779L38.9961 -0.863779C26.8014 6.24982 17.9588 16.9017 11.6312 28.0049L13.3688 28.9951ZM50.9191 24.1061L40.4191 -0.393919L38.5809 0.393919L49.0809 24.8939L50.9191 24.1061ZM50 168C62.7891 168 75.8038 158.313 85.5583 143.083C95.3437 127.804 102 106.741 102 83.5H100C100 106.375 93.4446 127.061 83.8742 142.004C74.2729 156.995 61.7876 166 50 166V168ZM102 83.5C102 59.2703 95.1605 38.1676 89.3688 28.0049L87.6312 28.9951C93.2374 38.8324 100 59.5893 100 83.5H102ZM89.3688 28.0049C83.6413 17.9546 74.2177 5.24081 61.9472 -0.894427L61.0528 0.894427C72.7823 6.75919 81.9609 19.0454 87.6312 28.9951L89.3688 28.0049ZM50.9052 24.9249L62.4052 0.424907L60.5948 -0.424907L49.0948 24.0751L50.9052 24.9249Z" fill="#FF8484" mask="url(#path-1-inside-1)"/>
<defs>
<linearGradient id="paint0_linear" x1="50.5" y1="0" x2="50.5" y2="167" gradientUnits="userSpaceOnUse">
<stop stop-color="#FFE8E8"/>
<stop offset="0.9999" stop-color="white"/>
<stop offset="1" stop-color="#FFE8E8" stop-opacity="0"/>
</linearGradient>
</defs>
</svg>
