<svg width="101" height="167" viewBox="0 0 101 167" fill="none" xmlns="http://www.w3.org/2000/svg">
<mask id="path-1-inside-1" fill="white">
<path d="M0 83.5C0 129.616 25.4233 167 50 167C74.5767 167 101 129.616 101 83.5C101 59.4298 94.1989 38.5 88.5 28.5C82.8011 18.5 73.5 6 61.5 0L50 24.5L39.5 0C27.5 7 18.7688 17.5 12.5 28.5C4.5215 42.5 0 59.4298 0 83.5Z"/>
</mask>
<path d="M0 83.5C0 129.616 25.4233 167 50 167C74.5767 167 101 129.616 101 83.5C101 59.4298 94.1989 38.5 88.5 28.5C82.8011 18.5 73.5 6 61.5 0L50 24.5L39.5 0C27.5 7 18.7688 17.5 12.5 28.5C4.5215 42.5 0 59.4298 0 83.5Z" fill="url(#paint0_linear)"/>
<path d="M12.5 28.5L10.7624 27.5097L12.5 28.5ZM39.5 0L41.3383 -0.787839L40.4469 -2.86776L38.4923 -1.72756L39.5 0ZM50 24.5L48.1617 25.2878L49.917 29.3836L51.8105 25.3498L50 24.5ZM61.5 0L62.3944 -1.78885L60.5607 -2.70573L59.6895 -0.849814L61.5 0ZM50 165C38.7271 165 26.7571 156.353 17.4806 141.485C8.26332 126.712 2 106.208 2 83.5H-2C-2 106.908 4.44835 128.154 14.0869 143.602C23.6662 158.955 36.6963 169 50 169V165ZM2 83.5C2 59.6999 6.46562 43.1279 14.2376 29.4903L10.7624 27.5097C2.57738 41.8721 -2 59.1597 -2 83.5H2ZM14.2376 29.4903C20.3889 18.6965 28.8972 8.50036 40.5077 1.72756L38.4923 -1.72756C26.1028 5.49964 17.1487 16.3035 10.7624 27.5097L14.2376 29.4903ZM51.8383 23.7122L41.3383 -0.787839L37.6617 0.787839L48.1617 25.2878L51.8383 23.7122ZM50 169C63.2899 169 76.5692 158.972 86.4004 143.622C96.2933 128.176 103 106.924 103 83.5H99C99 106.192 92.495 126.69 83.0321 141.465C73.5075 156.336 61.2868 165 50 165V169ZM103 83.5C103 59.1108 96.122 37.8351 90.2376 27.5097L86.7624 29.4903C92.2759 39.1649 99 59.7487 99 83.5H103ZM90.2376 27.5097C84.4815 17.4093 74.9354 4.48161 62.3944 -1.78885L60.6056 1.78885C72.0646 7.51839 81.1207 19.5907 86.7624 29.4903L90.2376 27.5097ZM51.8105 25.3498L63.3105 0.849814L59.6895 -0.849814L48.1895 23.6502L51.8105 25.3498Z" fill="#FF647F" mask="url(#path-1-inside-1)"/>
<defs>
<linearGradient id="paint0_linear" x1="50.5" y1="0" x2="50.5" y2="167" gradientUnits="userSpaceOnUse">
<stop stop-color="#FF9FB1"/>
<stop offset="0.9999" stop-color="#FFE4E4"/>
<stop offset="1" stop-color="#FF9E9E"/>
</linearGradient>
</defs>
</svg>
