<?xml version="1.0" encoding="utf-8"?>
<!-- Generator: Adobe Illustrator 22.0.1, SVG Export Plug-In . SVG Version: 6.00 Build 0)  -->
<svg version="1.1" id="레이어_1" xmlns="http://www.w3.org/2000/svg" xmlns:xlink="http://www.w3.org/1999/xlink" x="0px"
	 y="0px" viewBox="0 0 260.3 429.9" style="enable-background:new 0 0 260.3 429.9;" xml:space="preserve">
<style type="text/css">
	.st0{fill:#FFFFFF;}
	.st1{stroke:#000000;stroke-miterlimit:10;}
	.st2{fill:#0367B3;stroke:#0367B3;stroke-miterlimit:10;}
	.st3{fill:#FFEB15;stroke:#FFEB15;stroke-miterlimit:10;}
</style>
<path class="st0" d="M32.8,148.6c-0.3,1.5-0.5,3-0.9,4.4c-4.6,13.7-7.3,27.6-6.9,42.1c0.1,5.3,1.2,10.8-4.5,14.6
	c-1.4,0.9-1.6,3.8-2.3,5.8c-0.4,1.1-0.3,2.4-0.9,3.2C8.5,229.6,5.8,242.6,4.6,256c-1,11.5-3.6,23.2,1.4,34.5c0.4,1,0.1,2.3,0.1,3.5
	c-0.2,16.5-0.5,33-0.5,49.5c0,26.9,11.3,46.9,34.8,60.9c20.7,12.4,44.6,14.7,66.2,24c0.1,0.1,0.3,0.1,0.5,0.1
	c11.1,1.9,18.9-1.1,23.2-9.3c1.9-3.5,3-7.4,4.6-11c0.7-1.6,1.5-3.9,2.8-4.4c7.2-2.7,9.9-9.1,13-15.1c4.6-8.8,10.6-11.4,20.2-8.5
	c4.5,1.4,9,2.5,13.4,3.9c1.7,0.5,3.5,1.3,4.7,2.6c4.5,4.8,9.8,7.3,16.4,6.3c9.4-1.4,18.9-2.7,24.7-11.9c1.1-1.8,2.7-3.3,4.1-4.8
	c8.9-10,16-21,16.8-34.7c0.7-11.8-7.4-19.1-17.9-16.9c-3.5,0.7-6.8,2.5-9.8,3.7c-5.7-4.2-11-8.9-17-12.4c-6.1-3.6-12.9-6-19.3-9.3
	c-1.4-0.7-2.5-2.5-3.2-4c-3.7-8.3-7-16.9-11.1-25.1c-2.5-4.9-6.3-9.2-9.3-13.5c13.2-11,27-20.7,37.5-34c0.6-0.8,1.3-1.6,2.2-2
	c8-4.3,12.4-11.3,15.3-19.6c4.1-11.4-3.1-25.1-14.9-27.9c-3.2-0.7-4.3-2.3-5.1-5.1c-3.9-13.4-7.9-26.8-12-40.2
	c-1.5-4.9-0.3-9.3,2.1-13.5c7.1-12.3,16.1-22.4,29.7-28c3-1.2,5.7-3.4,8.4-5.4c11.1-7.8,21.2-16.6,28.4-28.3c2.4-3.8,2-7-0.4-10.5
	c-8.2-12.3-19.9-20.8-32.7-27.1c-22.7-11.2-47.1-15.3-72.4-11.1c-2.8,0.5-4.3-0.3-5.6-2.7c-1.3-2.3-3-4.4-4.5-6.6
	c-0.6,0.2-1.2,0.4-1.8,0.6c-0.2,2.5,0,5.1-0.6,7.5c-0.4,1.6-1.5,3.8-2.8,4.2c-23.3,8.6-42.6,22.5-57.1,42.8
	C67.8,70.3,60.3,84.2,59.6,101c-0.1,2.9,0.1,5.2,3.2,6.5c4.7,2,9.4,4.1,14,6.2c1.3,0.6,2.6,1.1,3.8,1.7c-0.1,0.4-0.2,0.7-0.3,1.1
	c-5,1.3-9.9,2.6-14.8,3.8c-3.5-8.1-9.1-12.2-17.3-12.7c-2.8-0.2-5.7-0.1-8.5,0c-11.9,0.3-17.2,6.7-20.2,16.8
	c-3.4,11.5,0,17.2,11,22.7C31.3,147.5,32,148,32.8,148.6z"/>
<path d="M32.8,148.6c-0.9-0.6-1.5-1.1-2.3-1.4c-11-5.5-14.4-11.3-11-22.7c3-10.2,8.2-16.5,20.2-16.8c2.8-0.1,5.7-0.1,8.5,0
	c8.1,0.5,13.8,4.7,17.3,12.7c4.9-1.3,9.8-2.6,14.8-3.8c0.1-0.4,0.2-0.7,0.3-1.1c-1.3-0.6-2.6-1.1-3.8-1.7c-4.7-2.1-9.3-4.2-14-6.2
	c-3-1.3-3.3-3.6-3.2-6.5c0.7-16.7,8.3-30.7,17.6-43.8c14.4-20.3,33.7-34.2,57.1-42.8c1.3-0.5,2.4-2.7,2.8-4.2c0.6-2.4,0.4-5,0.6-7.5
	c0.6-0.2,1.2-0.4,1.8-0.6c1.5,2.2,3.2,4.3,4.5,6.6c1.3,2.4,2.8,3.1,5.6,2.7c25.3-4.2,49.7-0.1,72.4,11.1
	c12.8,6.3,24.5,14.8,32.7,27.1c2.4,3.6,2.8,6.7,0.4,10.5c-7.2,11.8-17.4,20.5-28.4,28.3c-2.7,1.9-5.4,4.1-8.4,5.4
	c-13.5,5.5-22.6,15.7-29.7,28c-2.4,4.2-3.6,8.6-2.1,13.5c4.1,13.4,8.1,26.8,12,40.2c0.8,2.8,2,4.3,5.1,5.1
	c11.8,2.7,19,16.4,14.9,27.9c-2.9,8.2-7.3,15.3-15.3,19.6c-0.8,0.5-1.6,1.2-2.2,2c-10.5,13.3-24.3,23.1-37.5,34
	c3,4.3,6.8,8.6,9.3,13.5c4.1,8.1,7.3,16.7,11.1,25.1c0.7,1.5,1.8,3.3,3.2,4c6.4,3.2,13.2,5.6,19.3,9.3c6,3.5,11.3,8.2,17,12.4
	c3-1.2,6.3-3,9.8-3.7c10.5-2.2,18.6,5.2,17.9,16.9c-0.8,13.7-7.9,24.7-16.8,34.7c-1.4,1.6-3,3.1-4.1,4.8
	c-5.7,9.2-15.3,10.5-24.7,11.9c-6.6,1-11.9-1.5-16.4-6.3c-1.2-1.2-3-2-4.7-2.6c-4.4-1.4-9-2.6-13.4-3.9c-9.6-2.9-15.6-0.3-20.2,8.5
	c-3.1,6-5.8,12.4-13,15.1c-1.3,0.5-2.1,2.8-2.8,4.4c-1.6,3.6-2.8,7.5-4.6,11c-4.3,8.2-12.1,11.1-23.2,9.3c-0.2,0-0.3,0-0.5-0.1
	c-21.6-9.3-45.5-11.6-66.2-24c-23.4-14-34.8-34.1-34.8-60.9c0-16.5,0.4-33,0.5-49.5c0-1.2,0.3-2.5-0.1-3.5c-5-11.3-2.5-23-1.4-34.5
	c1.2-13.4,4-26.4,12.7-37.3c0.6-0.8,0.5-2.2,0.9-3.2c0.7-2,0.9-4.9,2.3-5.8c5.7-3.8,4.6-9.3,4.5-14.6c-0.3-14.5,2.3-28.5,6.9-42.1
	C32.4,151.5,32.5,150,32.8,148.6z M183.5,343.9c0.6-0.4,1.3-0.7,1.9-1.1c1-10,2.5-20-1.4-29.9c-3-7.6-6.2-15.1-9.2-22.7
	c-4.6-11.5-11.5-21.4-19.6-30.5c-1.2-1.4-3.8-1.8-5.8-2.4c-3.6-1-7.4-1.6-11-2.8c-4.2-1.5-8.2-3.5-12.9-5.5c-1.1,6.9-6.2,6-9.9,8
	c-6,3.3-8-2.5-13.4-3.5c0.8,3.4,0.6,6.7,2.2,8.7c8.1,10.7,13.3,22.7,17.3,35.3c4.3,13.7-2.6,22.6-16.7,21.7
	c-0.8-0.1-1.7-0.1-2.5-0.3c-17.9-3.7-33.9-11.5-48.7-21.9c-2.1-1.5-7.3-2.1-8.1-1c-2.9,4.2-6.1,2.7-9.3,1.7
	c-3.6-1.1-6.5-4.4-10.9-1.4c-0.9,0.6-4.3-2-6.2-3.6c-0.9-0.8-1-2.7-1.9-5.6c-2.4,3.3-4.1,5.6-5.8,8c-1-0.2-2.1-0.3-3.9-0.6
	c0.6,8.5,0.9,16.5,1.8,24.4c0.3,2.7,2.1,5.2,2.8,6.7c4.5-0.7,7.5-1.1,10.9-1.6c0.3-1.3,0.7-2.8,1-4.1c2.9,0.4,6.5,2.1,8.1,1
	c7.3-5.2,15.1-2.7,22.8-2.6c4,0,8.1,0.7,12.1,1c-6.8,0.9-13.4,0.4-20,1c-6.5,0.6-12.9,2.5-19.3,3.8c-1.9,1.4-4.1,2.2-6.3,3.2
	c-1.5,0.7-3,1.5-4.4,2.5c-1.2,0.9-2.2,2-3.5,3.2c-1.5-2.5-2.6-4.4-3.7-6.2c-0.6,0.1-1.1,0.2-1.7,0.3c0,6.4-0.2,12.9,0,19.3
	C9,358.1,12,368.9,18.2,379c8.2,13.3,19.8,22.3,34.3,27.5c16,5.7,32,10.9,48,16.4c17.4,6,23.7,3.3,30.7-13.7
	c1.7-4.2,3.4-8.2,8.4-9.8c1.4-0.4,2.8-2,3.5-3.4c2.9-6.5,5.8-13,8.2-19.6c1.1-2.9,0.9-6.3,1.8-9.3c2.1-7.2-2.3-13.5-9.8-13.4
	c-2.8,0-5.6,0.8-8.2,1.7c-2.8,1-5.1,0.8-7.3-1.3c-1.8-1.7-3.9-3.1-5.8-4.7c-13.5-11.9-28.4-21.5-45.8-26.7c-0.7-0.2-1.3-1-1.9-1.5
	c23.1,3.1,40.8,15.3,55.4,31.9c4.2-1.1,7.9-2.6,11.8-3.1c10-1.3,18,7.7,14.9,16.4c-1.2,3.4-1.2,7.3-1.9,12.2
	c7.6-3.4,14.8-4.9,17-13.3c0.3-1.2,2.1-1.9,3-3c1.1-1.3,2.7-2.6,3.1-4.2c0.5-2-0.1-4.1-0.1-6.2c0.4-0.3,0.7-0.6,1.1-0.9
	c0.5,1.4,1,2.8,1.5,4.3c0.7-0.3,1.4-0.7,2.1-1c-0.3-4.6-0.5-9.3-0.9-15.1C182.2,341.2,182.9,342.6,183.5,343.9z M21.6,213.6
	c10.4-3.6,11.3-3.4,13.1,2c2.4-0.4,4.8-0.9,7.3-1c1.6-0.1,3.2,0.2,4.8,0.7c2.1,0.6,4.2,1.4,6.1,2.4c1.6,0.9,3.8,1.9,4.4,3.4
	c1.3,3.3,2.6,5,6.6,3.6c2.5-0.8,6.1-1.5,8.2-0.4c4.3,2.3,9.7,2.8,12.4,7.9c0.9,1.6,3.5,2.3,5.9,3.8c0.5-5.2,3.1-4.5,6.3-3.1
	c2.1,0.9,4.5,1.2,6.8,1.7c5.3,1.2,11.3,0.1,15.4,4.9c0.1,0.2,0.6,0,1.2,0c3.7-6.2,10.3-4.2,15.5-5.8c1.4-2.1,3-4.3,5-4.9
	c2.6-0.8,5.6-0.4,9-0.6c-1.7-3.5-3.7-6,0.8-8.1c1.8-0.8,2.6-4.2,3.5-6.5c0.7-1.7,0.4-4,1.5-5.3c8.6-11.6,10.9-23.8,7.1-38
	c-3.7-14.2-8.2-27.8-16.7-39.7c-5.1-7.1-11-13.2-21.3-11.8c-5.7,0.8-11.6,0.4-17.4,0c-9.4-0.6-18.6-4.5-28.3,0.2
	c-6,2.9-13.3,3-18,8.7c-2.2,2.7-4.5,5.3-8.6,5.2c-0.7,0-1.6,1-2.2,1.7c-1.5,1.8-2.9,3.6-4.4,5.5c-1.9,1.9-3.5,3.9-5.2,5.8
	c-1.8,2.1-4.7,3.7-5.5,6.1c-5.1,15.6-8.1,31.6-6.8,48.1c0.3,3.5,2.1,7.6-3.5,9.1C23.6,209.3,23.1,211.3,21.6,213.6z M160.1,260.9
	c1.9-1.1,3.5-1.9,5-2.9c16.9-11.7,31.7-25.9,45.8-40.7c8.3-8.8,7-23-2.2-30.9c-4.2-3.6-12.3-4.7-15.9-2.1c-3.4,2.3-4.7,9.4-1.8,14.8
	c1.4,2.7,4.4,4.7,6.8,6.9c0.9,0.9,2.3,1.3,4.1,2.3c-6.7,1.7-10.5-0.4-14.2-6.5c-0.8-1.3-3.1-2.8-4.2-2.5c-6.7,1.9-13.5,3.8-19.9,6.6
	c-2.4,1-5.5,4.3-5.3,6.4c0.4,5.9-4,8.3-6.5,12.4c2.6,5.9,2.2,6.7-4.5,7.3c-2.4,0.2-4.9,0.4-7.5,0.6c-0.2,4.8-2.3,6.5-6.9,5.5
	c-1.3-0.3-3,0.8-4.5,1.3c-3.3,1.1-6.8,3.5-9.7,3c-7.8-1.6-15.4-4.4-23.5-6.9c-0.4,5.3-3.1,5.2-6,3.6c-3-1.7-6.1-3.5-8.6-5.8
	c-4.9-4.6-10.3-7.5-17.1-5.2c-3.8,1.3-6,0.2-7.7-3.2c-0.7-1.5-2.1-3.4-3.5-3.7c-6.3-1.2-12-6.1-19.1-3.4c-0.4,0.2-1.1-0.5-1.7-0.7
	c0.3-1.4,0.6-2.5,0.9-4.1c-9,1.7-14,7.3-17.6,14.7c-8.4,17.5-8.6,36.1-7.3,54.8c0.2,2.9,2.1,5.6,3.3,8.6c6.7-5.3,6.6-5.2,10.7,0.8
	c0.7,1.1,4.3,1.7,4.6,1.3c2.4-3.5,4.8-1.7,7.4-0.7c2.2,0.9,4.5,1.7,7,2.6c0.4-1.8,1.2-3.6,0.7-4c-2.5-2.4-5.3-4.5-8-6.7
	c0.1-0.1,0.2-0.2,0.3-0.3c12.6,5.5,25.2,10.9,38.3,16.6c-2.4,0.2-4.3,0.3-6.3,0.4c13.7,6.8,26.8,14.3,42.3,16c4.2,0.5,7.4-1,8.6-4.3
	c2.1-5.8,3.7-11.8,0.9-18.3c-7.9-18.5-18.2-35.3-32.6-49.6c0.3-0.3,0.6-0.6,0.9-0.9c4.6,4.1,9.2,8.1,13.8,12.3
	c4.2-11.2,8.5,1,12.9-0.5c0.5-1.2,1.1-2.4,1.9-4.4c5,5,7.7,2.3,10-2.3c0.3-0.6,1.3-1.3,1.9-1.3c4.4,0.1,8.7,0.4,12.6,0.6
	c0.5,1.5,0.6,3.9,1.5,4.3c2.9,1,6.3,2.3,9.1,1.7c3.8-0.9,5.6,0.2,7.4,3C157.7,258.3,158.9,259.5,160.1,260.9z M240.1,38.2
	c-50.3,47-108.5,57.3-173.2,45.2c-0.9,3-1.9,6.1-2.7,9.3c-2.7,12.2-1.5,13.8,10.7,16.8c27.7,6.8,55.4,7.9,83.7,3.2
	c31.8-5.3,58.8-19.6,82.5-40.7c4.3-3.8,7.7-8.7,10.9-13.5c1-1.5,0.9-4.8-0.1-6.3C248.2,47.2,243.9,42.6,240.1,38.2z M81.8,57.9
	c1.1,0.3,1.7,0.5,2.4,0.7c13.6,2.8,27.1,2.1,40.7,0c31.3-4.7,60.9-14,87.8-31.1c1.3-0.8,2.4-1.8,4-3C164.6,0.9,112.2,15.3,81.8,57.9
	z M168.5,376.4c9.5,3.2,20.7,3.4,28.2,12c6,0.1,12.1,0.9,18,0.1c6.5-0.9,10.1-6.2,14.5-11c7.2-7.8,12.6-16.2,16.7-25.7
	c2.7-6.2,2.3-12.8-0.3-18.9c-2.9-6.8-10-8.7-16-4.5c-2,1.4-4,2.8-6.4,4.4c-11.2-8.6-22.2-17.8-36.9-22.2c0.7,4,1.3,7.2,1.8,10.4
	c1.5,8.4,3.4,17.2-0.7,25c-3.6,6.8-3,16.7-12.8,19.7c-0.3,0.1-0.4,0.9-0.6,1.3C172.2,370,170.5,373,168.5,376.4z M164,201.2
	c7.2-2.2,13.4-3.9,19.5-6.1c1.2-0.4,2-2.6,2.6-4.1c1-2.6,0.9-6.4,2.7-7.7c4.5-3.1,3.5-6.4,2.1-10.3c-1.1-3.1-1.8-6.4-2.6-9.6
	c-2.8-10.4-5.5-20.8-8.3-31.2c-0.5,0.4-0.9,0.8-1.4,1.2c-2.2-1.5-4.2-3.5-6.6-4.5c-7.2-3-14.6-5.6-21.8-8.4c-1.2,2.1-2.3,4-3.4,6
	c7.6,10.4,14,21.4,16.8,33.9C166.5,173.6,171.6,186.9,164,201.2z M22.4,130.6c0,8.1,1.6,10.3,10,14.1c4,1.8,6.9,0.1,9-3.7
	c2-3.6,5.1-6.7,7.7-9.9c0.2-0.2,0.6-0.4,0.9-0.3c4.5,0.6,6.8-2.6,9.5-5.2c3.6-3.4,3.8-5.4,0.6-9c-5.1-5.6-18-7.7-26.8-4.4
	C26.9,114.5,22.4,122.1,22.4,130.6z M184.8,71.2c-2.5-5-4.3-9.7-7.1-13.7c-1.7-2.5-4.9-5.6-7.4-5.6c-4.2-0.1-8.3,2.2-12.9,3.5
	c4.1,6.5,7.7,12.4,11.5,18c0.7,1.1,2.8,2.1,3.9,1.8C176.7,74.3,180.6,72.7,184.8,71.2z M124,85.2c6.2-0.8,11.3-1.4,16.4-2.1
	c-1.8-8-3.3-15.1-4.9-22.7c-3.9,0.6-7.9,1.3-11.4,1.8C124,70,124,77.2,124,85.2z M175,49.9c3.9,6.8,7.8,13.5,11.8,20.5
	c4.1-1.9,8.3-3.9,12.9-6.1c-4.6-6.7-8.8-12.8-13-19C182.3,47,178.5,48.5,175,49.9z M121.7,62.6c-3.3,0.3-6.4,0.5-9.5,1
	c-0.8,0.1-2,1.3-2.1,2.1c-0.9,6.4-1.6,12.8-2.3,19.5c5.7,0,9.9,0,13.9,0C121.7,77.5,121.7,70.3,121.7,62.6z M225.9,47
	c-4.9-3.8-9.1-7.2-13.5-10.3c-1.5-1-3.8-2.1-5.3-1.6c-3.1,1.1-5.9,3.2-8.3,4.6c5.2,5.5,10.1,10.6,15.2,16
	C217.8,52.9,221.8,49.9,225.9,47z M107.3,63.7c-3.3-0.1-7.9-1.5-10.2,2.8c-2.9,5.4-4.8,11.4-7.4,17.8c6.4,0.5,11.4,0.8,15.5,1.1
	C106,77.7,106.6,70.9,107.3,63.7z M147.3,58.1c1.4,4,2.7,7.8,3.9,11.5c3.8,11.2,3.8,11.2,15.2,7.5c0.3-0.1,0.4-0.5,0.8-0.8
	c-3.2-5.7-6.7-11.3-9.6-17.3c-1.4-2.7-2.8-3.3-5.4-2.4C150.6,57.2,149,57.6,147.3,58.1z M96,62.9c-4.1,0.2-9-0.8-10.2,0.8
	C82,69.2,79.5,75.6,76,82.4c5.1,0.7,8.6,1.1,11.9,1.6c1.3-3.8,2.3-7.1,3.5-10.3C92.7,70.4,94.1,67.3,96,62.9z M201.6,63.3
	c3-1.8,6.2-3.7,9.9-5.9c-3.7-4.3-6.8-8.3-10.3-11.8c-5.2-5.2-6.4-5.2-12-0.8C193.2,50.8,197.2,56.8,201.6,63.3z M138,60.4
	c1.7,7.3,3.3,14.7,5.1,22.3c3.6-0.9,6.3-1.6,9.3-2.3c-2-5.9-3.7-11.3-5.5-16.6C144.9,57.8,144.8,57.8,138,60.4z M211.4,31.4
	c0,0.5,0,1-0.1,1.5c5.4,4.1,10.9,8.3,16.4,12.5c1.8-1.7,3.1-3,5.3-5c-5.7-3.5-10.6-6.9-15.9-9.6C215.8,30.1,213.4,31.2,211.4,31.4z
	 M84,61.3c-2.1,0.3-4.9-0.1-5.6,0.9c-3.7,5.7-7,11.8-10.8,18.4c3.2,0.6,5.1,1,5.9,1.1C77.1,74.7,80.3,68.5,84,61.3z M182.5,111.7
	c-5.2,1-9.6,1.8-15.4,2.9c4.4,3.9,7.9,6.9,12.1,10.6C180.5,120.1,181.4,116.3,182.5,111.7z M172.9,125.4
	c-9.2-10.9-10.9-11.5-19.6-7.4C160.1,120.5,166.5,122.9,172.9,125.4z M218.4,26.8c-0.2,0.5-0.3,1-0.5,1.5c5,3.5,9.9,7,15,10.2
	c0.7,0.5,2.4-0.6,3.7-1c0-0.5,0-0.9,0-1.4C230.7,32.7,226,26.7,218.4,26.8z M184.1,122c2.4-3.2,4.2-5.6,6-8c1.7-2.3,3.2-4.6,5.3-7.5
	C185.2,109.6,185.1,109.7,184.1,122z M147.2,118.8c-3.1,0-5.8,0-8.8,0C144.2,124.7,145.2,124.7,147.2,118.8z"/>
<path class="st0" d="M183.5,343.9c-0.6-1.3-1.2-2.6-2.2-4.6c0.3,5.9,0.6,10.5,0.9,15.1c-0.7,0.3-1.4,0.7-2.1,1
	c-0.5-1.4-1-2.8-1.5-4.3c-0.4,0.3-0.7,0.6-1.1,0.9c0.1,2.1,0.6,4.3,0.1,6.2c-0.4,1.5-1.9,2.9-3.1,4.2c-0.9,1.1-2.7,1.8-3,3
	c-2.2,8.4-9.4,9.9-17,13.3c0.7-4.9,0.7-8.8,1.9-12.2c3.1-8.8-4.9-17.7-14.9-16.4c-3.9,0.5-7.7,2-11.8,3.1
	c-14.6-16.6-32.3-28.9-55.4-31.9c0.6,0.5,1.2,1.3,1.9,1.5c17.4,5.2,32.3,14.8,45.8,26.7c1.9,1.6,4,3.1,5.8,4.7
	c2.2,2,4.5,2.3,7.3,1.3c2.6-0.9,5.5-1.7,8.2-1.7c7.5-0.1,11.9,6.2,9.8,13.4c-0.9,3-0.7,6.4-1.8,9.3c-2.5,6.6-5.3,13.2-8.2,19.6
	c-0.6,1.4-2.1,3-3.5,3.4c-5,1.6-6.6,5.6-8.4,9.8c-6.9,16.9-13.3,19.7-30.7,13.7c-16-5.5-32.1-10.8-48-16.4
	C38,401.3,26.4,392.4,18.2,379c-6.2-10.1-9.3-21-9.7-32.6c-0.2-6.4,0-12.9,0-19.3c0.6-0.1,1.1-0.2,1.7-0.3c1.1,1.9,2.2,3.7,3.7,6.2
	c1.3-1.2,2.3-2.3,3.5-3.2c1.4-1,2.8-1.8,4.4-2.5c2.1-1,4.3-1.8,6.3-3.2c6.4-1.3,12.8-3.1,19.3-3.8c6.6-0.7,13.3-0.1,20-1
	c-4-0.4-8.1-1-12.1-1c-7.6,0-15.5-2.6-22.8,2.6c-1.6,1.1-5.2-0.5-8.1-1c-0.3,1.2-0.7,2.8-1,4.1c-3.4,0.5-6.4,0.9-10.9,1.6
	c-0.7-1.6-2.5-4.1-2.8-6.7C8.7,311,8.4,303,7.8,294.4c1.7,0.3,2.9,0.5,3.9,0.6c1.7-2.4,3.4-4.7,5.8-8c0.9,2.9,0.9,4.8,1.9,5.6
	c1.8,1.6,5.3,4.2,6.2,3.6c4.4-3,7.4,0.3,10.9,1.4c3.2,1,6.4,2.4,9.3-1.7c0.7-1.1,6-0.4,8.1,1c14.9,10.5,30.9,18.2,48.7,21.9
	c0.8,0.2,1.7,0.2,2.5,0.3c14.1,1,21-8,16.7-21.7c-4-12.6-9.2-24.6-17.3-35.3c-1.5-2-1.4-5.3-2.2-8.7c5.4,1,7.4,6.8,13.4,3.5
	c3.6-2,8.8-1.1,9.9-8c4.7,2,8.7,4,12.9,5.5c3.6,1.2,7.3,1.8,11,2.8c2,0.6,4.5,1,5.8,2.4c8.1,9.1,15.1,19.1,19.6,30.5
	c3,7.6,6.2,15.1,9.2,22.7c3.9,9.8,2.4,19.9,1.4,29.9C184.8,343.2,184.1,343.5,183.5,343.9z"/>
<path class="st0" d="M21.6,213.6c1.4-2.2,2-4.2,3.1-4.5c5.5-1.5,3.8-5.6,3.5-9.1c-1.3-16.6,1.6-32.5,6.8-48.1c0.8-2.4,3.7-4,5.5-6.1
	c1.7-1.9,3.2-3.9,5.2-5.8c1.5-1.8,2.9-3.7,4.4-5.5c0.6-0.7,1.5-1.7,2.2-1.7c4.1,0.2,6.4-2.5,8.6-5.2c4.7-5.7,12-5.8,18-8.7
	c9.7-4.7,18.9-0.8,28.3-0.2c5.8,0.4,11.7,0.7,17.4,0c10.3-1.4,16.2,4.7,21.3,11.8c8.5,12,13,25.5,16.7,39.7
	c3.7,14.3,1.5,26.5-7.1,38c-1,1.4-0.8,3.6-1.5,5.3c-0.9,2.3-1.7,5.6-3.5,6.5c-4.5,2.1-2.5,4.6-0.8,8.1c-3.3,0.1-6.3-0.3-9,0.6
	c-2.1,0.7-3.6,2.9-5,4.9c-5.2,1.5-11.8-0.4-15.5,5.8c-0.6,0-1,0.1-1.2,0c-4.1-4.8-10.1-3.7-15.4-4.9c-2.3-0.5-4.6-0.8-6.8-1.7
	c-3.2-1.4-5.8-2.1-6.3,3.1c-2.4-1.5-5-2.2-5.9-3.8c-2.7-5.1-8.2-5.6-12.4-7.9c-2.1-1.1-5.6-0.5-8.2,0.4c-4,1.3-5.2-0.4-6.6-3.6
	c-0.6-1.5-2.8-2.5-4.4-3.4c-1.9-1-4-1.8-6.1-2.4c-1.5-0.5-3.2-0.8-4.8-0.7c-2.5,0.1-4.9,0.7-7.3,1C32.9,210.2,32,210,21.6,213.6z
	 M90.3,191.6c-10.4,1.5-19.7-2.1-28.4-6.9c-3.6-2-3.6-5.8-0.5-8.9c3.7-3.6,7.7-6.9,11.2-10.7c5-5.4,10.2-10.1,18.2-9.5
	c-0.7-2.3-0.7-2.3-15.1-0.8c0.9,8.5-7.1,5.8-12.8,9c2.4,0.9,3.6,1.3,5.5,2c-3.7,0.7-6,1.1-9.5,1.8c2.1,1.5,3,2.1,2.8,2
	c-1.3,2.1-3.2,3.9-3.4,5.8c-0.5,5.1-0.2,10.3-0.2,16.4c4.5-4.1,7.7-4.2,9.3,1.6c1.2-0.5,2.2-0.9,3.3-1.4c0.8,1.3,1.4,2.5,2.1,3.7
	c0.2-0.5,0.3-1.1,0.5-1.6c2.1,0,5.2-0.9,6.2,0.2c3.2,3.4,6.1,1.4,9.4,0.9c3.6-0.6,1.8-2.1,1.2-3.6c7.8-4.6,12.2-11.8,15.9-19.6
	c-0.3-0.3-0.7-0.5-1-0.8C100.1,178,95.2,184.8,90.3,191.6z M150.9,160.2c2.3-2,2.2-2.3-0.3-4.5c-1.7-1.5-3.1-3.3-4.6-5
	c0.1-0.6,0.3-1.2,0.4-1.8c-5.6,1.1-11.3,3.4-16.8,2.9c-4.3-0.4-4.3,2.1-5.3,4c-1.8,3.6-1.4,5.7,1,8.4c0.2-0.8,0.7-1.4,0.5-1.9
	c-1.4-5.4,3.3-7.3,6.1-9.8c2.9-2.7,8.8-1.9,10.9,1.4c4.8,7.5,9.3,15.3,13.4,23.2c0.9,1.8-0.2,4.6-0.4,7.8c-1.4-1.6-2.1-2.3-2.2-2.4
	c-3,2.5-5.6,4.6-8.5,7c-4-6.6-7.3-12-10.8-17.7c1.2,0.1,2.2,0.2,3.1,0.3c2.6,0.2,5.2-0.5,4.7-3.5c-0.3-1.6-2.5-3.8-4.2-4.1
	c-4.9-1.1-8.3,3.6-5.7,8.3c5.8,10.4,12.1,20.6,18.3,31.1c2.8-5.5-2-8.5-3.2-11.7c2.5-1.8,4.7-3.3,7-4.9c3.6,2.7,5.3-0.5,5.5-3.3
	c0.3-3.3-0.4-7-1.7-10.1C156.3,169.1,153.5,164.9,150.9,160.2z M142.2,210.2c0-0.8-0.1-1.6-0.1-2.4c-1.9-0.1-3.9,0-5.7-0.5
	c-2-0.5-4.7-1.1-5.6-2.6c-1.6-2.7,1.8-3.4,3.1-5.1c1.5-2.1,2.2-5.2,2.4-7.9c0-0.5-3.6-2-5.6-1.9c-2.9,0-5.9,0.8-8.8,1.6
	c-3.2,0.9-4,4.1-1.8,6.5c1,1.1,2.4,1.9,3.7,2.4c2.4,0.7,4.2,2,3.1,4.5c-0.7,1.6-2.6,3.3-4.3,3.7c-3.4,0.9-7,0.9-10.5,1.3
	c0,0.7,0.1,1.3,0.1,2C122.4,211.2,132.3,210.7,142.2,210.2z M107.1,158.5c-2.7,0-5,0-7.1,0c-0.8-1.8-1.5-3.3-2.3-4.9
	c-1.6,3.4-1.4,5.7,1.8,7.7c2.8,1.8,5,4.6,7.9,7.3c4.2-0.7,9.2-1.5,14.2-2.4c0-0.5-0.1-1-0.1-1.5c-4.5,0.3-8.9,0.6-13.6,0.9
	c-0.1-1-0.1-2.1-0.3-3.2C107.6,161.4,107.4,160.2,107.1,158.5z M87.6,179.1c5.3,0,8.8-2.7,8-5.8c-0.5-1.6-2.9-3.4-4.7-3.7
	c-4.3-0.7-5.6,3-6.2,6.2C84.6,176.9,87.1,178.5,87.6,179.1z M113.1,220.2c-9.5-1.6-17.3-5.8-22.9-13.9
	C92.2,216.5,103.8,223.6,113.1,220.2z M132.2,220.8c8.7,1.1,18.5-5.9,16.6-11.4C145.3,216.2,138.3,217.7,132.2,220.8z"/>
<path class="st1" d="M160.1,260.9c-1.2-1.4-2.4-2.5-3.2-3.9c-1.8-2.8-3.7-3.9-7.4-3c-2.8,0.7-6.2-0.6-9.1-1.7
	c-0.9-0.3-1-2.7-1.5-4.3c-3.9-0.2-8.3-0.5-12.6-0.6c-0.7,0-1.6,0.7-1.9,1.3c-2.2,4.6-5,7.3-10,2.3c-0.9,2-1.4,3.3-1.9,4.4
	c-4.3,1.5-8.7-10.7-12.9,0.5c-4.7-4.1-9.2-8.2-13.8-12.3c-0.3,0.3-0.6,0.6-0.9,0.9c14.3,14.3,24.6,31.1,32.6,49.6
	c2.8,6.6,1.2,12.5-0.9,18.3c-1.2,3.4-4.4,4.8-8.6,4.3c-15.4-1.7-28.6-9.3-42.3-16c2-0.1,3.9-0.3,6.3-0.4
	c-13.1-5.7-25.7-11.1-38.3-16.6c-0.1,0.1-0.2,0.2-0.3,0.3c2.7,2.2,5.5,4.3,8,6.7c0.4,0.4-0.4,2.2-0.7,4c-2.5-0.9-4.8-1.7-7-2.6
	c-2.6-1.1-5.1-2.9-7.4,0.7c-0.3,0.5-3.9-0.2-4.6-1.3c-4.2-6-4-6.1-10.7-0.8c-1.2-3-3.1-5.8-3.3-8.6c-1.3-18.7-1.1-37.3,7.3-54.8
	c3.5-7.4,8.5-12.9,17.6-14.7c-0.4,1.6-0.6,2.7-0.9,4.1c0.6,0.3,1.3,0.9,1.7,0.7c7-2.7,12.7,2.2,19.1,3.4c1.4,0.3,2.7,2.2,3.5,3.7
	c1.7,3.4,3.9,4.5,7.7,3.2c6.8-2.3,12.1,0.6,17.1,5.2c2.5,2.3,5.5,4.2,8.6,5.8c2.9,1.6,5.6,1.7,6-3.6c8.2,2.5,15.7,5.4,23.5,6.9
	c2.9,0.6,6.5-1.9,9.7-3c1.5-0.5,3.2-1.6,4.5-1.3c4.6,1,6.7-0.7,6.9-5.5c2.6-0.2,5-0.3,7.5-0.6c6.8-0.6,7.2-1.3,4.5-7.3
	c2.5-4.1,6.9-6.6,6.5-12.4c-0.2-2.1,3-5.4,5.3-6.4c6.4-2.7,13.1-4.7,19.9-6.6c1.1-0.3,3.4,1.3,4.2,2.5c3.7,6.1,7.6,8.2,14.2,6.5
	c-1.8-1-3.1-1.4-4.1-2.3c-2.4-2.2-5.3-4.2-6.8-6.9c-2.8-5.4-1.6-12.4,1.8-14.8c3.7-2.5,11.7-1.5,15.9,2.1
	c9.2,7.9,10.5,22.1,2.2,30.9c-14.1,14.9-28.9,29-45.8,40.7C163.6,259,162,259.8,160.1,260.9z"/>
<path class="st2" d="M240.1,38.2c3.8,4.4,8.2,9,11.9,14c1,1.4,1.1,4.8,0.1,6.3c-3.2,4.8-6.6,9.7-10.9,13.5
	c-23.7,21.2-50.7,35.4-82.5,40.7c-28.2,4.7-56,3.6-83.7-3.2c-12.2-3-13.4-4.6-10.7-16.8c0.7-3.2,1.8-6.4,2.7-9.3
	C131.5,95.5,189.8,85.2,240.1,38.2z"/>
<path class="st2" d="M81.6,57.9c30.4-42.6,82.8-57,134.9-33.4c-1.5,1.1-2.7,2.1-4,3c-26.9,17.1-56.5,26.4-87.8,31.1
	c-13.6,2.1-27.2,2.8-40.7,0C83.3,58.4,82.7,58.2,81.6,57.9z"/>
<path class="st1" d="M168.5,376.4c2-3.5,3.7-6.4,5.4-9.4c0.2-0.4,0.3-1.2,0.6-1.3c9.8-2.9,9.2-12.9,12.8-19.7
	c4.1-7.8,2.2-16.6,0.7-25c-0.6-3.2-1.1-6.5-1.8-10.4c14.8,4.4,25.7,13.6,36.9,22.2c2.3-1.6,4.3-3,6.4-4.4c6-4.1,13.2-2.3,16,4.5
	c2.6,6.2,3,12.7,0.3,18.9c-4.1,9.5-9.5,18-16.7,25.7c-4.4,4.8-8,10-14.5,11c-5.9,0.8-12,0-18-0.1C189.2,379.9,178,379.6,168.5,376.4
	z"/>
<path class="st0" d="M164,201.2c7.7-14.4,2.6-27.6-0.4-40.8c-2.8-12.5-9.2-23.5-16.8-33.9c1.1-2,2.2-3.9,3.4-6
	c7.3,2.8,14.6,5.4,21.8,8.4c2.4,1,4.4,3,6.6,4.5c0.5-0.4,0.9-0.8,1.4-1.2c2.8,10.4,5.5,20.8,8.3,31.2c0.9,3.2,1.5,6.5,2.6,9.6
	c1.4,4,2.3,7.2-2.1,10.3c-1.8,1.2-1.7,5.1-2.7,7.7c-0.6,1.5-1.4,3.7-2.6,4.1C177.4,197.3,171.2,199,164,201.2z"/>
<path class="st1" d="M22.4,130.6c0-8.5,4.6-16,11.1-18.5c8.8-3.3,21.7-1.2,26.8,4.4c3.2,3.5,3,5.6-0.6,9c-2.7,2.6-5.1,5.8-9.5,5.2
	c-0.3,0-0.7,0.1-0.9,0.3c-2.6,3.3-5.7,6.3-7.7,9.9c-2.1,3.8-5,5.5-9,3.7C24,140.9,22.4,138.6,22.4,130.6z"/>
<path class="st3" d="M184.8,71.2c-4.3,1.5-8.1,3-12,4c-1.1,0.3-3.2-0.8-3.9-1.8c-3.8-5.6-7.3-11.4-11.5-18c4.5-1.4,8.7-3.6,12.9-3.5
	c2.5,0,5.7,3.1,7.4,5.6C180.5,61.6,182.3,66.3,184.8,71.2z"/>
<path class="st3" d="M124,85.2c0-8,0-15.2,0-23c3.5-0.6,7.5-1.2,11.4-1.8c1.7,7.6,3.2,14.7,4.9,22.7C135.3,83.7,130.2,84.4,124,85.2
	z"/>
<path class="st3" d="M175,49.9c3.5-1.4,7.3-2.9,11.7-4.6c4.3,6.2,8.4,12.3,13,19c-4.6,2.2-8.8,4.2-12.9,6.1
	C182.8,63.4,178.9,56.8,175,49.9z"/>
<path class="st3" d="M121.7,62.6c0,7.7,0,14.9,0,22.5c-4,0-8.3,0-13.9,0c0.8-6.6,1.4-13.1,2.3-19.5c0.1-0.8,1.3-1.9,2.1-2.1
	C115.2,63.1,118.3,62.9,121.7,62.6z"/>
<path class="st3" d="M225.9,47c-4.1,3-8.1,5.9-12,8.8c-5.1-5.4-9.9-10.5-15.2-16c2.5-1.4,5.2-3.5,8.3-4.6c1.4-0.5,3.8,0.6,5.3,1.6
	C216.8,39.8,221,43.2,225.9,47z"/>
<path class="st3" d="M107.3,63.7c-0.7,7.1-1.3,13.9-2.1,21.7c-4.1-0.3-9.1-0.6-15.5-1.1c2.6-6.4,4.5-12.4,7.4-17.8
	C99.4,62.2,104,63.7,107.3,63.7z"/>
<path class="st3" d="M147.3,58.1c1.7-0.5,3.3-0.9,4.8-1.4c2.6-0.9,4.1-0.4,5.4,2.4c2.9,5.9,6.4,11.5,9.6,17.3
	c-0.3,0.4-0.5,0.7-0.8,0.8c-11.5,3.7-11.5,3.7-15.2-7.5C150,65.8,148.7,62.1,147.3,58.1z"/>
<path class="st3" d="M96,62.9c-1.9,4.4-3.3,7.5-4.5,10.8c-1.2,3.2-2.2,6.5-3.5,10.3c-3.3-0.4-6.8-0.9-11.9-1.6
	c3.4-6.8,6-13.3,9.8-18.8C87,62,91.9,63.1,96,62.9z"/>
<path class="st3" d="M201.6,63.3c-4.3-6.5-8.4-12.5-12.4-18.5c5.6-4.4,6.8-4.4,12,0.8c3.5,3.5,6.5,7.5,10.3,11.8
	C207.8,59.5,204.6,61.4,201.6,63.3z"/>
<path class="st3" d="M138,60.4c6.9-2.7,6.9-2.6,8.9,3.4c1.7,5.3,3.5,10.7,5.5,16.6c-2.9,0.7-5.7,1.4-9.3,2.3
	C141.3,75.1,139.6,67.7,138,60.4z"/>
<path class="st3" d="M211.4,31.4c2-0.2,4.4-1.3,5.8-0.5c5.2,2.7,10.1,6,15.9,9.6c-2.2,2-3.6,3.3-5.3,5c-5.5-4.2-11-8.4-16.4-12.5
	C211.4,32.4,211.4,31.9,211.4,31.4z"/>
<path class="st3" d="M84,61.3c-3.7,7.2-6.9,13.5-10.5,20.4c-0.9-0.2-2.7-0.5-5.9-1.1c3.8-6.7,7-12.7,10.8-18.4
	C79,61.2,81.8,61.6,84,61.3z"/>
<path class="st0" d="M182.5,111.7c-1.1,4.6-2,8.5-3.2,13.5c-4.2-3.7-7.7-6.8-12.1-10.6C172.9,113.5,177.3,112.7,182.5,111.7z"/>
<path class="st0" d="M172.9,125.4c-6.4-2.4-12.8-4.9-19.6-7.4C162,113.8,163.7,114.4,172.9,125.4z"/>
<path class="st3" d="M218.4,26.8c7.6-0.1,12.3,5.9,18.2,9.4c0,0.5,0,0.9,0,1.4c-1.3,0.4-3,1.4-3.7,1c-5.1-3.2-10.1-6.8-15-10.2
	C218,27.8,218.2,27.3,218.4,26.8z"/>
<path class="st0" d="M184.1,122c1-12.3,1.1-12.4,11.3-15.5c-2.1,3-3.7,5.3-5.3,7.5C188.4,116.4,186.6,118.8,184.1,122z"/>
<path d="M82,155.2c1.1,0,10.9,0,10.9,0l2,1l3.8,2.7l8.8,8.5l-4.3,6.1l-9.9,13.7l-3.4,5.4l-14.8-0.9l-7.8-2.6l-8-4.7l-1.4-3l1.3-5
	l5.8-6.8l8.5-6.3L82,155.2z"/>
<polygon points="125,161.1 132.8,171.2 144.8,190.7 153.4,184.6 156.8,186.7 157.9,177.4 146.7,157.2 141.5,150.3 134.7,151.6 
	128.5,152.5 125,156.6 "/>
<path class="st1" d="M147.2,118.8c-2,5.9-3,5.9-8.8,0C141.4,118.8,144.1,118.8,147.2,118.8z"/>
<path d="M150.9,160.2c2.6,4.8,5.4,9,7.3,13.6c1.3,3.1,1.9,6.8,1.7,10.1c-0.2,2.8-1.9,6.1-5.5,3.3c-2.3,1.6-4.4,3.1-7,4.9
	c1.2,3.2,6,6.2,3.2,11.7c-6.2-10.5-12.5-20.7-18.3-31.1c-2.6-4.7,0.7-9.4,5.7-8.3c1.7,0.4,3.9,2.5,4.2,4.1c0.5,3-2,3.7-4.7,3.5
	c-1-0.1-1.9-0.2-3.1-0.3c3.5,5.7,6.8,11.1,10.8,17.7c2.8-2.3,5.5-4.5,8.5-7c0.1,0.1,0.8,0.8,2.2,2.4c0.2-3.2,1.3-6,0.4-7.8
	c-4.1-7.9-8.6-15.6-13.4-23.2c-2.1-3.3-8-4-10.9-1.4c-2.8,2.6-7.5,4.4-6.1,9.8c0.1,0.5-0.3,1.2-0.5,1.9c-2.5-2.8-2.9-4.8-1-8.4
	c1-1.9,1-4.4,5.3-4c5.5,0.5,11.2-1.8,16.8-2.9c-0.1,0.6-0.3,1.2-0.4,1.8c1.5,1.7,2.9,3.5,4.6,5C153.1,157.9,153.2,158.2,150.9,160.2
	z"/>
<path d="M90.1,191.5c0.6,1.5,2.4,3.1-1.2,3.6c-3.3,0.5-6.2,2.5-9.4-0.9c-1-1.1-4.1-0.2-6.2-0.2c-0.2,0.5-0.3,1.1-0.5,1.6
	c-0.7-1.2-1.3-2.4-2.1-3.7c-1.1,0.4-2.1,0.9-3.3,1.4c-1.6-5.8-4.8-5.7-9.3-1.6c0-6.1-0.3-11.3,0.2-16.4c0.2-1.9,2.1-3.7,3.4-5.8
	c0.1,0.1-0.8-0.5-2.8-2c3.5-0.7,5.8-1.1,9.5-1.8c-1.9-0.7-3.1-1.2-5.5-2c5.7-3.3,13.7-0.6,12.8-9c14.4-1.5,14.4-1.5,15.1,0.8
	c-8.1-0.6-13.3,4.1-18.2,9.5c-3.5,3.8-7.5,7.1-11.2,10.7c-3.2,3.1-3.1,6.9,0.5,8.9c8.7,4.9,18,8.4,28.4,6.9L90.1,191.5z"/>
<path d="M142.2,210.2c-9.9,0.5-19.8,1-29.7,1.5c0-0.7-0.1-1.3-0.1-2c3.5-0.4,7.1-0.4,10.5-1.3c1.7-0.4,3.6-2.1,4.3-3.7
	c1.1-2.5-0.7-3.8-3.1-4.5c-1.4-0.4-2.8-1.3-3.7-2.4c-2.2-2.4-1.4-5.5,1.8-6.5c2.9-0.8,5.8-1.6,8.8-1.6c1.9,0,5.6,1.4,5.6,1.9
	c-0.2,2.7-0.9,5.7-2.4,7.9c-1.2,1.7-4.7,2.4-3.1,5.1c0.9,1.5,3.6,2.1,5.6,2.6c1.8,0.5,3.8,0.4,5.7,0.5
	C142.1,208.6,142.2,209.4,142.2,210.2z"/>
<path d="M107.1,158.5c0.3,1.7,0.5,2.8,0.6,4c0.1,1.1,0.2,2.2,0.3,3.2c4.7-0.3,9.1-0.6,13.6-0.9c0,0.5,0.1,1,0.1,1.5
	c-5,0.8-10.1,1.7-14.2,2.4c-2.9-2.8-5.1-5.6-7.9-7.3c-3.2-2-3.4-4.3-1.8-7.7c0.7,1.6,1.5,3.2,2.3,4.9
	C102.2,158.5,104.5,158.5,107.1,158.5z"/>
<path class="st0" d="M87.6,179.1c-0.6-0.6-3-2.2-2.9-3.3c0.5-3.2,1.9-6.9,6.2-6.2c1.8,0.3,4.2,2.1,4.7,3.7
	C96.5,176.4,93,179.1,87.6,179.1z"/>
<path d="M113.1,220.2c-9.3,3.5-20.9-3.7-22.9-13.9C95.8,214.4,103.7,218.6,113.1,220.2z"/>
<path d="M132.2,220.8c6.1-3.1,13.1-4.6,16.6-11.4C150.7,214.9,140.9,221.8,132.2,220.8z"/>
<path d="M90.3,191.6c4.9-6.8,9.8-13.6,14.7-20.4c0.3,0.3,0.7,0.5,1,0.8c-3.7,7.7-8,15-15.9,19.6C90.1,191.5,90.3,191.6,90.3,191.6z"
	/>
<polygon class="st1" points="88,325.2 71.5,320.4 62.3,319.7 50.3,318.9 35.6,321.1 24.8,325.2 14.1,329.6 9.1,324.2 6.9,327.9 
	7.8,356.9 12.6,370.1 20.3,384.9 31.3,396.4 45.3,405.2 63.3,412.6 85,419.2 104.6,425.9 118,426.7 124.8,423.2 130.1,415.9 
	133.8,407.1 137.3,401.7 142.6,399.6 146,394.9 152.5,379.2 154,369.6 155.3,361.9 151,353.7 141.6,351.9 134.3,354.9 129.8,354.6 
	123.5,349.8 115,341.4 100.8,331.6 "/>
<path class="st0" d="M136.8,164.2c-1.3,0-3,0.2-4.5,2.3c-0.6,0.8-1.1,2.6-0.8,3.8c0.1,0.4,0.6,1,1,1.1c0.9,0.3,2.8,0.4,2.8,0.4
	s2.4,0.3,3.2,0.2c0.6,0,1.6,0,2.5-0.5c0.4-0.2,0.9-0.5,1.2-1.3c0.2-0.4,0.2-1.5,0.1-1.9c-0.3-0.8-1.1-2.2-2-2.8
	C139,164.8,138.2,164.2,136.8,164.2z"/>
</svg>
