<svg width="216" height="305" viewBox="0 0 216 305" fill="none" xmlns="http://www.w3.org/2000/svg">
<rect x="2" y="2" width="212" height="301" rx="18" fill="url(#paint0_linear)" stroke="#3C0300" stroke-width="4"/>
<rect x="5" y="5" width="206" height="295" rx="14" fill="url(#paint1_linear)" stroke="#FF531D" stroke-width="2"/>
<path d="M47.856 115.416C46.524 119.124 44.724 123.3 43.392 125.784L43.788 126.072C46.596 124.2 49.584 121.5 52.14 118.584C52.932 118.692 53.436 118.404 53.616 118.008L47.856 115.416ZM25.068 115.956C26.832 118.44 28.488 121.932 28.74 125.064C32.988 128.664 36.948 119.808 25.392 115.74L25.068 115.956ZM54.3 136.044H53.904C53.184 138.6 52.572 140.76 52.176 141.516C51.924 141.912 51.744 142.02 51.276 142.056C50.772 142.092 49.872 142.128 48.792 142.128H45.84C44.76 142.128 44.544 141.912 44.544 141.336V129.276V128.7H54.696C55.2 128.7 55.596 128.52 55.704 128.124C54.048 126.648 51.348 124.596 51.348 124.596L48.9 127.656H40.836V114.912C41.808 114.768 42.096 114.408 42.168 113.904L36.444 113.4V127.656H21.828L22.116 128.7H31.62C31.404 136.476 29.496 142.524 21.72 146.772L21.9 147.168C32.592 144.072 35.76 137.736 36.444 128.7H40.26V142.416C40.26 145.404 41.124 146.196 44.796 146.196H48.36C54.3 146.196 55.848 145.368 55.848 143.604C55.848 142.74 55.596 142.236 54.444 141.768L54.3 136.044ZM95.8072 122.184C88.3552 121.464 84.7552 118.044 84.7552 114.804V114.192H79.8592V114.804C79.8592 118.044 76.2592 121.464 68.8072 122.184L70.3552 125.784C76.0792 125.136 80.2192 122.94 82.3072 119.88C84.3952 122.94 88.4992 125.136 94.2232 125.784L95.8072 122.184ZM75.5032 141.336H93.6472V132.732H70.7512V136.26H88.9672V138.096H70.7872V146.844H94.5112V143.28H75.5032V141.336ZM67.3312 127.08V130.824H97.2832V127.08H67.3312ZM117.908 136.368H113.084V136.8C113.084 139.824 109.952 142.704 102.5 143.388L104.084 146.988C109.592 146.376 113.48 144.54 115.496 141.804C117.512 144.54 121.4 146.376 126.908 146.988L128.492 143.388C121.04 142.704 117.908 139.824 117.908 136.8V136.368ZM117.836 131.292V129.06H127.448V125.46H108.872V123.552H126.8V114.732H104.12V118.332H122.12V120.204H104.192V129.06H113.084V131.292H100.448V135.036H130.472V131.292H117.836ZM145.878 135.288H139.47V120.564H145.878V135.288ZM156.642 113.94V125.352H150.558V116.856H134.79V139.032H150.558V129.168H156.642V147.168H161.394V113.94H156.642ZM194.223 113.976H189.435V138.132H194.223V113.976ZM186.987 129.348C181.587 127.62 179.283 123.372 179.283 118.98V115.776H174.459V118.98C174.459 123.408 172.083 128.052 166.575 129.924L168.987 133.704C172.839 132.372 175.431 129.672 176.943 126.324C178.383 129.42 180.903 131.868 184.575 133.128L186.987 129.348ZM176.907 142.74V135.828H172.155V146.52H195.051V142.74H176.907Z" fill="#1D0000"/>
<path d="M64.0854 259.154C67.7094 258.866 70.9014 257.762 72.2214 255.77C73.5414 257.762 76.7094 258.866 80.3094 259.154L80.9094 257.666C76.9014 257.402 73.6614 256.082 73.3254 253.946H79.9494V252.458H73.2054V250.418H71.2374V252.458H64.4694V253.946H71.1174C70.7814 256.082 67.4934 257.402 63.5094 257.666L64.0854 259.154ZM81.9174 261.626V260.114H62.5014V261.626H71.2134V263.618H64.8054V265.082H77.5014V266.906H64.8774V271.85H80.0934V270.362H66.7974V268.322H79.4454V263.618H73.2054V261.626H81.9174ZM92.1875 252.434H90.2435V256.298C90.2435 260.378 87.6275 264.506 84.4595 266.018L85.6595 267.626C88.1795 266.33 90.2435 263.642 91.2275 260.402C92.2595 263.474 94.3235 266.018 96.7715 267.218L97.9475 265.634C94.7555 264.194 92.1875 260.234 92.1875 256.298V252.434ZM100.204 250.562V272.138H102.172V250.562H100.204ZM122.038 262.322C122.158 261.554 122.23 260.762 122.23 259.85C122.23 258.938 122.158 258.146 122.038 257.378H124.966V262.322H122.038ZM117.622 265.538C115.918 265.538 114.814 263.354 114.814 259.85C114.814 256.37 115.918 254.186 117.622 254.186C119.35 254.186 120.43 256.37 120.43 259.85C120.43 263.354 119.35 265.538 117.622 265.538ZM124.966 255.77H121.63C120.886 253.61 119.494 252.362 117.622 252.362C114.838 252.362 113.038 255.242 113.038 259.85C113.038 264.482 114.838 267.362 117.622 267.362C119.494 267.362 120.862 266.114 121.63 263.954H124.966V271.034H126.838V251.042H124.966V255.77ZM129.19 250.562V272.09H131.062V250.562H129.19ZM146.348 256.154V257.762H150.596V263.402H152.588V250.586H150.596V256.154H146.348ZM147.548 261.05C144.428 259.946 142.316 257.234 142.316 254.474V253.73H147.044V252.146H135.548V253.73H140.348V254.474C140.348 257.57 138.14 260.474 134.924 261.65L135.956 263.21C138.476 262.25 140.468 260.234 141.38 257.738C142.316 259.946 144.164 261.722 146.564 262.586L147.548 261.05ZM145.484 270.554C142.244 270.554 140.276 269.642 140.276 268.082C140.276 266.522 142.244 265.586 145.484 265.586C148.724 265.586 150.692 266.522 150.692 268.082C150.692 269.642 148.724 270.554 145.484 270.554ZM145.484 264.074C141.068 264.074 138.308 265.538 138.308 268.082C138.308 270.626 141.068 272.09 145.484 272.09C149.9 272.09 152.66 270.626 152.66 268.082C152.66 265.538 149.9 264.074 145.484 264.074Z" fill="white"/>
<defs>
<linearGradient id="paint0_linear" x1="108" y1="0" x2="108" y2="305" gradientUnits="userSpaceOnUse">
<stop stop-color="#DA241C"/>
<stop offset="1" stop-color="#560501"/>
</linearGradient>
<linearGradient id="paint1_linear" x1="108" y1="4" x2="108" y2="301" gradientUnits="userSpaceOnUse">
<stop stop-color="#DA241C"/>
<stop offset="1" stop-color="#560501"/>
</linearGradient>
</defs>
</svg>
