<?xml version="1.0" encoding="utf-8"?>
<!-- Generator: Adobe Illustrator 22.0.1, SVG Export Plug-In . SVG Version: 6.00 Build 0)  -->
<svg version="1.1" id="레이어_1" xmlns="http://www.w3.org/2000/svg" xmlns:xlink="http://www.w3.org/1999/xlink" x="0px"
	 y="0px" viewBox="0 0 216 305" style="enable-background:new 0 0 216 305;" xml:space="preserve">
<style type="text/css">
	.st0{fill:#DA241C;}
	.st1{fill:none;stroke:#000000;stroke-width:3;}
	.st2{fill:#FFFFFF;stroke:#000000;stroke-width:2;}
	.st3{fill:#FFFFFF;}
</style>
<g>
	<path class="st0" d="M20,0h176c11,0,20,9,20,20v265c0,11-9,20-20,20H20c-11,0-20-9-20-20V20C0,9,9,0,20,0z"/>
	<path class="st1" d="M26.9,8.4h162.2c10.2,0,18.5,8.3,18.5,18.5v251.3c0,10.2-8.3,18.5-18.5,18.5H26.9c-10.2,0-18.5-8.3-18.5-18.5
		V26.9C8.4,16.6,16.7,8.4,26.9,8.4z"/>
	<path class="st2" d="M181.3,99.8c0,40.4-33,73.1-73.7,73.1c-40.7,0-73.7-32.7-73.7-73.1c0-40.4,33-73.1,73.7-73.1
		C148.3,26.7,181.3,59.4,181.3,99.8z"/>
	<path d="M110.6,181.2c-64.4-6-102.8,11.1-102.8,11.1v89.5l3,7.7l6,6H194l6.5-2.6l4-3.4l2.9-10.3v-70.7
		C207.4,208.6,175,187.2,110.6,181.2z"/>
	<path class="st3" d="M38.7,258.8v-2.4h3v2.4H38.7z M45.8,256.4v2.4h-2.9v-2.4H45.8z M39.5,251.5h5.6v2.3h-5.6V251.5z M44.6,259.9
		c0.5,0.4,1.1,0.9,1.6,1.5c-1.1,0-2.3,0.1-3.3,0.1v-2.4h2.9v0.6H46c0.4,0,0.9-0.2,0.9-0.3v-2.9c0.3-0.1,0.5-0.2,0.6-0.3l-1.2-1
		l-0.6,0.6h-2.8v-1.8h2.2v0.5h0.2c0.5,0,0.9-0.2,0.9-0.3v-2.9c0.3,0,0.4-0.1,0.5-0.2l-1.1-0.9l-0.5,0.6h-5.4l-1.2-0.5v4.4h0.2
		c0.5,0,0.9-0.2,0.9-0.3v-0.5h2.2v1.8h-2.9l-1.2-0.5v4.6h0.2c0.4,0,0.9-0.2,0.9-0.3v-0.5h3v2.4c-2.4,0.1-4.4,0.1-5.5,0.1l0.7,1.4
		c0.1,0,0.3-0.1,0.3-0.3c4.2-0.4,7.1-0.8,9.2-1.1c0.3,0.4,0.6,0.9,0.8,1.3c1.2,0.7,1.8-1.9-2.5-3.2L44.6,259.9z M59.4,251.3
		c0.4,0.4,0.9,1.1,1,1.7c0.9,0.7,1.9-1.2-0.9-1.8L59.4,251.3z M52,259.7c-0.1,1.1-0.9,2-1.7,2.3c-0.3,0.2-0.5,0.5-0.4,0.8
		c0.2,0.4,0.7,0.4,1.2,0.1c0.7-0.4,1.5-1.4,1.2-3.2L52,259.7z M54,259.9c0.3,0.8,0.5,1.9,0.4,2.8c0.9,1,2.1-1-0.2-2.9L54,259.9z
		 M56.7,259.9c0.5,0.8,1.1,2,1.2,2.9c1,0.9,2-1.4-1-3L56.7,259.9z M59.3,259.8c0.8,0.8,1.9,2.1,2.2,3.1c1.2,0.8,1.9-1.8-2.1-3.2
		L59.3,259.8z M62.3,254.3c0.2,0,0.3-0.1,0.4-0.2c-0.5-0.5-1.3-1.1-1.3-1.1l-0.7,0.9h-1.9c0.1-0.9,0.1-1.8,0.1-2.8
		c0.3,0,0.4-0.2,0.5-0.4l-1.5-0.2c0,1.2,0,2.3-0.1,3.3H56c0.1-0.4,0.3-0.8,0.4-1.2c0.3,0,0.5-0.1,0.6-0.2l-1.1-1l-0.6,0.6h-2
		c0.2-0.4,0.4-0.7,0.5-1.1c0.3,0,0.5-0.1,0.5-0.3l-1.5-0.5c-0.6,2.3-1.8,4.5-3,5.8l0.2,0.2c0.4-0.3,0.8-0.6,1.2-1
		c0.5,0.4,1,1.1,1.2,1.6c0.9,0.6,1.6-1.2-1-1.8c0.4-0.4,0.7-0.8,1-1.3c0.5,0.4,1,0.9,1.2,1.3c0.9,0.5,1.5-1.2-1-1.6
		c0.2-0.3,0.3-0.6,0.5-0.9h2.3c-0.8,3-2.5,5.8-5.4,7.5l0.2,0.2c3.2-1.4,5-3.7,6-6.3l0.1,0.3h1.7c-0.3,2.1-1.3,3.8-4.2,5.2l0.2,0.2
		c3.5-1.3,4.6-3,5-5.2c0.4,2.6,1.3,4.1,3,5.2c0.2-0.6,0.5-0.9,1-1l0-0.2c-1.9-0.7-3.3-2.1-3.8-4.3H62.3z M73.1,251.5v1.5h-5.7v-1.5
		H73.1z M67.4,254.9v-1.6h5.7v1.6H67.4z M67.4,255.3h5.7v0.6h0.2c0.4,0,1-0.2,1-0.3v-4c0.3-0.1,0.5-0.2,0.6-0.3l-1.3-1l-0.6,0.7
		h-5.5l-1.2-0.5v5.6h0.2c0.5,0,1-0.3,1-0.4V255.3z M70.8,259.3H75c0.2,0,0.3-0.1,0.4-0.2c-0.5-0.5-1.4-1.2-1.4-1.2l-0.7,1h-2.4V257
		h5.4c0.2,0,0.3-0.1,0.4-0.2c-0.5-0.5-1.3-1.1-1.3-1.1l-0.7,1H63.8l0.1,0.4h5.7v4.6c-1-0.2-1.8-0.7-2.3-1.8c0.3-0.5,0.4-1,0.6-1.5
		c0.3,0,0.5-0.1,0.5-0.3l-1.7-0.4c-0.3,1.8-1.2,4-3.1,5.3l0.1,0.2c1.7-0.7,2.7-1.8,3.4-3c0.9,2.2,2.3,2.7,4.9,2.7h4.1
		c0-0.4,0.2-0.8,0.6-0.8v-0.2c-1.1,0-3.6,0-4.6,0c-0.4,0-0.9,0-1.2,0V259.3z M80.4,254c0.5-0.9,1-1.9,1.3-3c0.3,0,0.5-0.1,0.6-0.3
		l-1.8-0.5c-0.6,2.7-1.8,5.4-2.9,7.2l0.2,0.1c0.6-0.5,1.1-1.2,1.7-1.9v7.5h0.2c0.4,0,0.9-0.3,0.9-0.4v-8.2c0.3-0.1,0.4-0.1,0.4-0.3
		L80.4,254z M88.7,255.4h-3.6c0.2-0.8,0.4-1.6,0.7-2.4h3.9c0.2,0,0.3-0.1,0.4-0.2c-0.5-0.4-1.3-1.1-1.3-1.1l-0.7,0.9h-2.3
		c0.2-0.7,0.3-1.2,0.4-1.7c0.3,0,0.5-0.1,0.5-0.3l-1.6-0.4c-0.1,0.6-0.3,1.5-0.5,2.4h-3l0.1,0.4h2.8c-0.2,0.8-0.4,1.6-0.7,2.4h-3
		l0.1,0.4h2.8c-0.2,0.7-0.4,1.3-0.6,1.8c-0.2,0.1-0.4,0.2-0.6,0.3l1.2,0.9l0.5-0.6h3.5c-0.4,0.7-0.9,1.7-1.4,2.5
		c-0.9-0.4-2-0.7-3.4-1l-0.1,0.2c1.7,0.6,4,2,4.9,3.2c1,0.3,1.2-1.1-1-2.2c0.9-0.7,1.9-1.7,2.4-2.4c0.3,0,0.5-0.1,0.6-0.2l-1.2-1.2
		l-0.7,0.7h-3.5c0.2-0.6,0.4-1.3,0.6-2h5.4c0.2,0,0.3-0.1,0.4-0.2c-0.5-0.5-1.3-1.1-1.3-1.1L88.7,255.4z M99,250.3
		c0.4,0.5,1,1.3,1.2,1.9c1,0.7,1.9-1.3-1-2L99,250.3z M92.4,259.3c0.1,0,0.2-0.1,0.3-0.3c1.7-0.5,3.2-1.1,4-1.4l0-0.2
		c-1.4,0.2-2.8,0.4-3.8,0.4c1.3-1.2,2.8-2.9,3.6-4.1c0.3,0,0.5-0.1,0.5-0.2l-1.4-0.8c-0.2,0.5-0.5,1.1-0.8,1.7c-0.8,0-1.6,0-2.2,0
		c1-0.9,2-2.3,2.6-3.3c0.3,0,0.4-0.1,0.5-0.2l-1.5-0.7c-0.3,1.1-1.3,3.1-2.1,3.9c-0.1,0.1-0.4,0.1-0.4,0.1l0.5,1.4
		c0.1,0,0.2-0.1,0.3-0.3c0.7-0.2,1.3-0.4,1.8-0.6c-0.7,1.1-1.5,2.2-2.2,2.8c-0.1,0.1-0.4,0.2-0.4,0.2L92.4,259.3z M96.8,259.6
		c-1.9,0.6-4,1.1-4.9,1.2l0.6,1.4c0.2-0.1,0.3-0.2,0.3-0.4c1.8-0.8,3.1-1.6,4-2.1L96.8,259.6z M104.4,259.9h-0.2
		c-0.2,0.7-0.3,1.5-0.4,1.7c-0.1,0.1-0.1,0.1-0.2,0.1c-0.1,0-0.3,0-0.6,0h-0.6c-0.3,0-0.3-0.1-0.3-0.3v-5.1v-0.2l0.8-0.2
		c0.2,0.4,0.4,0.7,0.4,1.1c1.1,0.8,2-1.7-1.7-3.1l-0.1,0.1c0.4,0.4,0.9,1,1.3,1.7c-2,0.1-3.9,0.2-5.1,0.2c1.1-0.6,2.2-1.5,2.9-2.2
		c0.3,0,0.5-0.1,0.5-0.2l-1.4-0.6h4.9c0.2,0,0.3-0.1,0.4-0.2c-0.5-0.5-1.3-1.1-1.3-1.1l-0.7,0.9h-6.6l0.1,0.4h3.1
		c-0.5,0.8-1.7,2.3-2.7,2.8c-0.1,0.1-0.4,0.1-0.4,0.1l0.7,1.4c0.1,0,0.2-0.2,0.3-0.3l0.9-0.2v0.9c0,1.8-0.6,3.9-3.3,5.4l0.1,0.2
		c3.8-1.3,4.4-3.7,4.4-5.6v-1.1c0.5-0.1,1-0.2,1.5-0.3v5.4c0,0.7,0.2,1,1.1,1h0.9c1.5,0,1.9-0.2,1.9-0.6c0-0.2-0.1-0.4-0.4-0.5
		L104.4,259.9z M107.4,260.8v-3.7h2.7v3.7H107.4z M110.2,253.2v3.5h-2.7v-3.5H110.2z M110.6,252.1l-0.6,0.7h-1.6
		c0.4-0.6,0.8-1.3,1.1-1.8c0.3,0,0.5-0.1,0.5-0.3l-1.7-0.4c-0.1,0.7-0.3,1.8-0.5,2.5h-0.4l-1.1-0.5v10.4h0.2c0.4,0,0.9-0.3,0.9-0.4
		v-1.1h2.7v1.1h0.2c0.4,0,0.9-0.3,0.9-0.4v-8.5c0.3-0.1,0.5-0.2,0.6-0.3L110.6,252.1z M117.4,252l-0.7,0.7h-2.8
		c0.3-0.6,0.5-1.1,0.7-1.8c0.3,0,0.5-0.1,0.5-0.3l-1.7-0.5c-0.4,2.1-1.3,4.3-2.1,5.7l0.2,0.1c0.8-0.8,1.5-1.8,2.1-2.9h3.2
		c-0.1,4.8-0.3,7.9-0.8,8.3c-0.1,0.2-0.2,0.2-0.5,0.2c-0.3,0-1.3-0.1-2-0.2l0,0.2c0.6,0.1,1.2,0.3,1.4,0.5c0.2,0.2,0.3,0.5,0.3,0.8
		c0.8,0,1.3-0.2,1.8-0.7c0.7-0.8,0.9-3.8,1-9.1c0.3,0,0.5-0.1,0.6-0.2L117.4,252z M112.6,255.7c0.7,0.7,1.4,1.9,1.6,2.9
		c1.1,0.9,2.1-1.6-1.4-3L112.6,255.7z M124.8,259.5c2,0.7,4.9,2.2,6.2,3.4c1.1,0.2,1.1-1.4-2.1-2.6c0.9-0.3,1.8-0.6,2.3-1
		c0.3,0.1,0.4,0,0.5-0.1l-1.3-0.9c-0.4,0.5-1.3,1.2-2,1.8c-0.9-0.3-2.1-0.6-3.5-0.8L124.8,259.5z M128.8,254.9v1.4h-5.1v-1.4H128.8z
		 M123.7,258.1v-1.4h5.1v1.4H123.7z M125.5,250.2c-0.7,1.6-3.5,3.9-5.7,5l0.1,0.2c0.9-0.3,1.8-0.8,2.7-1.3v7c0,0.3-0.1,0.4-0.7,0.7
		l0.7,1.1c0.1-0.1,0.2-0.1,0.3-0.3c1.7-0.7,3.3-1.3,4.2-1.7l-0.1-0.2c-1.2,0.2-2.4,0.5-3.3,0.6v-3h5.1v0.4h0.2
		c0.4,0,0.9-0.3,0.9-0.4v-3.5c0.2,0,0.4-0.1,0.5-0.2l-1.2-0.9l-0.6,0.6h-4.8l-1.1-0.4c0.8-0.5,1.6-1,2.3-1.6l-0.1,0.1
		c0.5,0.4,1,1.2,1.1,1.7c1,0.8,2-1.2-1-1.8c0.6-0.4,1.1-0.9,1.5-1.4c1,1.6,3.1,3,5.2,3.9c0.1-0.4,0.4-0.9,1-1l0-0.2
		c-2.2-0.6-4.6-1.5-5.9-2.8c0.4,0,0.5-0.1,0.6-0.3L125.5,250.2z M139.1,250.3c0.3,0.4,0.8,1.2,0.9,1.8c1,0.8,2-1.1-0.7-1.9
		L139.1,250.3z M134.6,250.4c0.5,0.6,1.1,1.5,1.3,2.3c1.1,0.8,1.9-1.4-1.1-2.3L134.6,250.4z M138.1,259.3c-0.5,0.4-1.1,0.7-1.6,1
		v-5.7c0.3-0.1,0.5-0.2,0.5-0.3l-1.1-0.9l-0.5,0.6h-1.8l0.1,0.4h1.7v6.1c0,0.3-0.1,0.4-0.6,0.6l0.8,1.3c0.1-0.1,0.3-0.3,0.4-0.5
		c0.9-1,1.8-2,2.2-2.4L138.1,259.3z M139.9,261.9v-1.7h4.1v1.7H139.9z M144,258.3v1.5h-4.1v-1.5H144z M143.9,257.9H140l-1.2-0.5v5.8
		h0.2c0.4,0,0.9-0.2,0.9-0.3v-0.4h4.1v0.7h0.2c0.4,0,0.9-0.3,0.9-0.3v-4.3c0.2,0,0.4-0.2,0.5-0.3l-1.2-0.9L143.9,257.9z
		 M141.3,252.9h1.2v3.5h-1.2V252.9z M144.8,256.3h-1.3v-3.5h2.4c0.2,0,0.3-0.1,0.4-0.2c-0.4-0.4-1.2-1-1.2-1l-0.7,0.8h-1.4
		c0.5-0.5,1.1-1.1,1.5-1.5c0.3,0,0.5-0.1,0.5-0.2l-1.5-0.5c-0.2,0.7-0.6,1.6-0.9,2.3h-5l0.1,0.4h2.5v3.5h-3l0.1,0.4h9
		c0.2,0,0.3-0.1,0.4-0.2c-0.5-0.4-1.2-1-1.2-1L144.8,256.3z M138.2,253.5c0.3,0.6,0.7,1.5,0.7,2.2c0.9,0.8,1.9-1-0.6-2.3
		L138.2,253.5z M144,255.9c0.7-0.5,1.4-1.3,1.8-1.7c0.3,0.1,0.4-0.1,0.5-0.2l-1.4-0.7c-0.2,0.6-0.6,1.8-1,2.5L144,255.9z M155.3,255
		c0.5-0.5,1-1.2,1.4-1.9h3.8c0.2,0,0.3-0.1,0.4-0.2c-0.5-0.4-1.2-1.1-1.2-1.1l-0.7,0.9h-2c0.3-0.6,0.6-1.2,0.8-1.8
		c0.3,0,0.4,0,0.5-0.2l-1.6-0.5c-0.2,1.3-0.8,3.2-1.5,4.6L155.3,255z M151.9,250.3c0.4,0.5,0.9,1.4,1,2.1c1,0.8,2-1.2-0.9-2.2
		L151.9,250.3z M148.4,250.4c0.5,0.4,1.2,1.2,1.4,1.9c1.1,0.7,1.9-1.5-1.3-2L148.4,250.4z M147.7,253.7c0.5,0.4,1.1,1.1,1.2,1.7
		c1,0.7,1.9-1.4-1.1-1.8L147.7,253.7z M150.9,253.5c-1.9,4.8-1.9,4.8-2.2,5.3c-0.1,0.3-0.2,0.3-0.4,0.3h-0.6v0.3
		c0.3,0,0.5,0.1,0.7,0.2c0.3,0.2,0.4,1.4,0.2,2.9c0,0.5,0.2,0.7,0.5,0.7c0.5,0,0.8-0.4,0.8-1c0.1-1.2-0.4-1.8-0.4-2.5
		c0-0.4,0.1-0.8,0.2-1.2c0.2-0.6,1-3.4,1.4-4.9L150.9,253.5z M154.6,254.8l-0.6,0.6h-1c0-0.3,0-0.5,0-0.7v-1.6h2.5
		c0.2,0,0.3-0.1,0.4-0.2c-0.4-0.4-1.1-1-1.1-1l-0.6,0.9h-3.4l0.1,0.4h1.2v1.6c0,2.3-0.2,5.6-1.8,8.3l0.2,0.2
		c2.1-2.2,2.5-5.1,2.6-7.4h1.1c-0.1,3.8-0.2,5.6-0.5,5.9c-0.1,0.1-0.2,0.2-0.4,0.2c-0.2,0-0.9,0-1.3-0.1v0.2
		c0.4,0.1,0.8,0.2,0.9,0.4c0.2,0.1,0.2,0.4,0.2,0.7c0.5,0,1-0.2,1.4-0.5c0.5-0.6,0.7-2.3,0.8-6.6c0.3,0,0.5-0.1,0.6-0.2L154.6,254.8
		z M159.1,258h-0.7v-1.2c0.3-0.1,0.4-0.2,0.5-0.4l-0.6-0.1c0.6-0.4,1.2-0.8,1.6-1.1c0.3,0,0.5,0,0.5-0.1l-1.1-1l-0.6,0.6H156
		l0.1,0.4h2.7c-0.3,0.4-0.5,0.8-0.8,1.2l-0.6-0.1v1.8h-1.9l0.1,0.4h1.8v3.3c0,0.2-0.1,0.2-0.3,0.2c-0.2,0-1.4-0.1-1.4-0.1v0.2
		c0.5,0.1,0.8,0.2,1,0.4c0.2,0.2,0.2,0.4,0.3,0.7c1.3-0.1,1.4-0.6,1.4-1.4v-3.3h2.1c0.2,0,0.3-0.1,0.3-0.2c-0.4-0.4-1.1-1-1.1-1
		L159.1,258z M171,250.9c0.6,0.5,1.3,1.3,1.6,2c1.1,0.6,1.8-1.5-1.5-2.1L171,250.9z M166.5,251.7l-0.6,0.7h-4l0.1,0.4h3.9
		c-0.2,1.3-0.5,2.7-0.9,3.9c-0.7-0.7-1.5-1.5-2.6-2.4l-0.2,0.1c0.8,0.9,1.7,2.2,2.4,3.4c-0.7,1.8-1.7,3.5-3,4.8l0.2,0.2
		c1.5-1,2.6-2.4,3.4-3.9c0.4,0.8,0.8,1.6,1,2.3c1.1,0.8,1.6-0.9-0.4-3.6c0.6-1.5,1-3.1,1.3-4.7c0.3,0,0.4-0.1,0.6-0.2L166.5,251.7z
		 M174.6,259.7l-0.2,0c-0.2,0.6-0.5,1.3-0.7,1.7c-0.1,0.3-0.2,0.3-0.5,0.1c-0.7-0.5-1.3-1-1.7-1.8c1-1.1,1.7-2.3,2.3-3.5
		c0.4,0,0.5,0,0.6-0.2l-1.6-0.6c-0.4,1.1-1,2.3-1.7,3.4c-0.5-1.1-0.8-2.4-0.9-3.8l4.2-0.5c0.2,0,0.3-0.1,0.3-0.3
		c-0.5-0.4-1.4-0.9-1.4-0.9l-0.6,1l-2.6,0.3c-0.1-1.1-0.1-2.4-0.1-3.6c0.4-0.1,0.5-0.2,0.5-0.4l-1.7-0.2c0,1.5,0.1,3,0.2,4.3l-2,0.2
		l0.2,0.4l1.9-0.2c0.2,1.8,0.6,3.3,1.2,4.7c-1.1,1.3-2.5,2.4-4.1,3.2l0.1,0.2c1.8-0.6,3.2-1.6,4.4-2.7c0.5,0.8,1.1,1.5,1.9,2.1
		c0.6,0.5,1.6,0.9,2,0.4c0.1-0.2,0.1-0.4-0.3-1L174.6,259.7z M177.6,262.5c-0.3,1.2-1.1,1.9-2.2,2.4l0.2,0.4c1.4-0.6,2.8-2,2.8-3.8
		c0-0.4,0-0.7-0.2-1.1c-0.3-0.3-0.6-0.4-0.9-0.4c-0.6,0-0.9,0.4-0.9,0.9c0,0.4,0.2,0.7,0.6,1L177.6,262.5z M55.4,269.9v3.4h-4.3
		v-3.4H55.4z M51.2,277.1v-3.3h4.3v3.3H51.2z M51.2,277.5h4.3v0.8h0.2c0.4,0,0.9-0.3,0.9-0.4v-7.8c0.3-0.1,0.5-0.2,0.6-0.3l-1.2-1
		l-0.6,0.7h-4.1l-1.2-0.5v9.6h0.2c0.5,0,0.9-0.3,0.9-0.4V277.5z M47.9,268.2c-0.7,2.7-1.8,5.5-3,7.3l0.2,0.1
		c0.6-0.6,1.2-1.3,1.7-2.1v7.6H47c0.4,0,0.9-0.3,0.9-0.4v-8.2c0.2,0,0.4-0.1,0.4-0.3l-0.6-0.2c0.5-0.9,1-1.9,1.4-3
		c0.3,0,0.5-0.1,0.5-0.3L47.9,268.2z M56,279.9h-7.3l0.1,0.4h9c0.2,0,0.4-0.1,0.4-0.2c-0.5-0.5-1.4-1.2-1.4-1.2L56,279.9z M70,279.8
		H61v-7.5c0.3-0.1,0.5-0.2,0.5-0.4l-1.6-0.2v7.9c-0.2,0.1-0.4,0.2-0.5,0.4l1.3,0.7l0.4-0.6H70v0.9h0.2c0.4,0,0.9-0.2,0.9-0.4v-8.5
		c0.3-0.1,0.5-0.2,0.5-0.4l-1.6-0.2V279.8z M66,277.5v-2.9h1.6v2.9H66z M63.4,274.7H65v2.9h-1.7V274.7z M65,271.7v2.6h-1.7v-2.6H65z
		 M67.6,271.7v2.6H66v-2.6H67.6z M67.8,278.5c0.3,0,0.8-0.2,0.8-0.3v-6.4c0.3-0.1,0.5-0.2,0.6-0.3l-1.2-0.9l-0.5,0.6h-4l-1.1-0.5v8
		h0.2c0.4,0,0.8-0.2,0.8-0.3v-0.5h4.3v0.6H67.8z M69.8,269.4H59l0.1,0.4h12.5c0.2,0,0.3-0.1,0.4-0.2c-0.5-0.5-1.5-1.2-1.5-1.2
		L69.8,269.4z M76.9,277.5c2,0.5,3.8,1.3,4.6,1.9c1.2,0.3,1.4-2.1-4.5-2.1L76.9,277.5z M78.2,275.7c1.1,0.4,1.9,0.9,2.3,1.3
		c1,0.3,1.3-1.6-2.2-1.5L78.2,275.7z M81.1,271.5c-0.4,0.7-0.9,1.3-1.5,1.9c-0.7-0.4-1.3-0.9-1.8-1.5c0.1-0.1,0.2-0.2,0.2-0.3H81.1z
		 M81.8,270.5l-0.7,0.6h-2.9c0.2-0.3,0.3-0.5,0.4-0.8c0.3,0,0.4,0,0.5-0.1l-1.4-0.6c-0.3,1.3-1.1,3-2.1,4.2l0.1,0.2
		c0.7-0.5,1.3-1.1,1.8-1.8c0.4,0.7,0.9,1.2,1.4,1.7c-1,0.8-2.3,1.5-3.6,2.1l0.1,0.2c1.6-0.4,2.9-1,4-1.8c0.9,0.7,2,1.2,3.2,1.5
		c0.1-0.5,0.4-0.8,0.9-0.9l0-0.2c-1.2-0.2-2.3-0.5-3.3-1c0.8-0.6,1.5-1.4,2-2.2c0.3,0,0.5,0,0.6-0.2L81.8,270.5z M75.1,279.7v-10.2
		h8.8v10.2H75.1z M84.3,268.4l-0.6,0.7h-8.5l-1.2-0.6v12.6h0.2c0.5,0,0.9-0.3,0.9-0.4v-0.6h8.8v0.9H84c0.4,0,0.9-0.3,1-0.4v-10.9
		c0.3-0.1,0.5-0.2,0.6-0.3L84.3,268.4z M95.4,270.3v1.8h-1.7v-1.8H95.4z M98.1,270.3v1.8h-1.7v-1.8H98.1z M96.1,274.4
		c0.2-0.6,0.3-1.2,0.3-1.8h1.7v1.8H96.1z M93.7,274.4v-1.8h1.7c0,0.6-0.1,1.3-0.3,1.8H93.7z M93.7,274.8H95
		c-0.4,0.8-1.1,1.6-2.5,2.3l0.1,0.2c1.9-0.6,2.9-1.5,3.3-2.5h2.1v0.5h0.2c0.3,0,0.9-0.2,0.9-0.3v-4.5c0.3,0,0.5-0.2,0.6-0.3
		l-1.2-0.9l-0.6,0.6h-2.3c0.3-0.3,0.7-0.7,0.9-1c0.3,0,0.5-0.1,0.5-0.3l-1.8-0.3c-0.1,0.5-0.2,1.2-0.3,1.7h-1.2l-1.1-0.5v6.1h0.2
		c0.4,0,0.9-0.2,0.9-0.3V274.8z M90.8,274.3l-0.5,0.6h-1.5v-2.2h3.5c0.2,0,0.3-0.1,0.3-0.2c-0.3-0.4-0.9-1-0.9-1l-0.5,0.8h-0.1v-3.5
		c0.3-0.1,0.5-0.2,0.5-0.4l-1.5-0.2v4h-1.4v-3.2c0.4-0.1,0.5-0.2,0.5-0.4l-1.5-0.2v6.9c0,2.3-0.1,3.9-0.8,5.4l0.2,0.1
		c1.2-1.5,1.6-3.2,1.6-5.6v-0.2h1.6v5.6h0.2c0.4,0,0.8-0.3,0.9-0.4v-5c0.3-0.1,0.5-0.2,0.6-0.3L90.8,274.3z M98,277.5h-1.1v-1.7
		c0.3-0.1,0.5-0.2,0.5-0.4l-1.6-0.2v2.2h-4.1l0.1,0.4h3.9v3.3h0.2c0.4,0,0.9-0.2,0.9-0.3v-3h2.7c0.2,0,0.3-0.1,0.4-0.2
		c-0.5-0.5-1.3-1.1-1.3-1.1L98,277.5z M110.1,268.8c0.6,0.5,1.2,1.2,1.5,1.9c1.1,0.6,1.8-1.5-1.4-2L110.1,268.8z M104.2,268.2
		c-0.7,2.7-2,5.5-3.2,7.2l0.2,0.1c0.7-0.6,1.4-1.4,2-2.2v7.8h0.2c0.4,0,0.9-0.3,0.9-0.4v-8.3c0.3,0,0.4-0.1,0.4-0.2L104,272
		c0.5-0.9,1-1.9,1.4-2.9c0.3,0,0.5-0.1,0.5-0.3L104.2,268.2z M113.9,277.7l-0.1,0c-0.2,0.6-0.5,1.3-0.7,1.6
		c-0.1,0.3-0.2,0.3-0.5,0.1c-1.9-1.3-2.8-3.6-3.2-6.2l4.3-0.5c0.2,0,0.3-0.1,0.3-0.3c-0.6-0.4-1.5-0.9-1.5-0.9l-0.6,1l-2.6,0.3
		c-0.2-1.2-0.2-2.4-0.2-3.7c0.3-0.1,0.5-0.2,0.5-0.4l-1.7-0.2c0,1.5,0.1,3,0.3,4.4l-3.3,0.4l0.2,0.4l3.2-0.4
		c0.5,3.1,1.6,5.7,3.8,7.3c0.7,0.5,1.7,0.9,2,0.4c0.2-0.2,0.1-0.4-0.3-1.1L113.9,277.7z M121.1,272.2c0.2,0,0.3-0.1,0.4-0.2
		c-0.4-0.4-1.2-1-1.2-1l-0.6,0.8h-0.8c0.1-0.4,0.1-0.9,0.2-1.4h2c0.2,0,0.3-0.1,0.4-0.2c-0.4-0.4-1.2-1-1.2-1l-0.6,0.8h-0.6
		c0-0.4,0-0.8,0-1.2c0.3,0,0.4-0.2,0.4-0.3l-1.5-0.2c0,0.6,0,1.2,0,1.7h-2.6l0.1,0.4h2.4c0,0.5-0.1,1-0.1,1.4h-2.5l0.1,0.4h2.4
		c-0.3,1.4-1,2.5-2.6,3.4l0.2,0.2c1.9-0.7,2.8-1.7,3.3-2.9c0.6,0.4,1.3,1.1,1.5,1.8c1.1,0.5,1.6-1.5-1.5-2c0.1-0.2,0.1-0.3,0.1-0.5
		H121.1z M118.7,279.8V278h5.6v1.8H118.7z M124.3,275.9v1.7h-5.6v-1.7H124.3z M124.2,275.5h-5.4l-1.2-0.5v6.1h0.2
		c0.4,0,0.9-0.3,0.9-0.4v-0.5h5.6v0.8h0.2c0.4,0,0.9-0.2,0.9-0.3v-4.6c0.3-0.1,0.5-0.2,0.6-0.3l-1.3-1L124.2,275.5z M127.5,272.2
		c0.2,0,0.3-0.1,0.4-0.2c-0.5-0.4-1.2-1-1.2-1l-0.7,0.9h-1.5c0.1-0.4,0.2-0.9,0.2-1.4h2.6c0.2,0,0.3-0.1,0.4-0.2
		c-0.5-0.4-1.2-1-1.2-1l-0.7,0.8h-1.1c0-0.4,0-0.8,0-1.2c0.3,0,0.4-0.2,0.4-0.4l-1.6-0.1c0,0.6,0,1.2,0,1.7h-2l0.1,0.4h1.9
		c0,0.5-0.1,1-0.1,1.4h-2l0.1,0.4h1.8c-0.3,1.2-1,2.1-2.5,2.9l0.2,0.2c2.1-0.7,3-1.7,3.4-3c0.5,1.5,1.5,2.5,2.8,3.2
		c0.1-0.5,0.4-0.8,0.8-0.9v-0.2c-1.3-0.4-2.6-1.1-3.3-2.2H127.5z M131.3,277.8v-1.2h2.2v1.2H131.3z M133.5,274.9v1.2h-2.2v-1.2
		H133.5z M131.2,271.2h0.9v1.7h-0.9V271.2z M133.6,269.5v3.3h-0.8v-1.6c0.3,0,0.5-0.2,0.5-0.3l-1-0.7l-0.4,0.5h-0.8v-1.2H133.6z
		 M134.6,275.1c0.3-0.1,0.5-0.2,0.6-0.3l-0.6-0.5c0.3-0.2,0.9-0.7,1.1-0.9l0.1,0c-0.1,0.2-0.3,0.5-0.4,0.7l0.1,0.2
		c1.7-1.1,1.8-2.9,1.8-4v-0.7h1.7v3.1c0,0.6,0.1,0.9,0.9,0.9h0.6c1.1,0,1.5-0.2,1.5-0.6c0-0.2-0.1-0.3-0.4-0.4l-0.1,0h-0.1
		c-0.1,0-0.2,0.1-0.3,0.1c0,0-0.1,0-0.2,0h-0.4h-0.4c-0.2,0-0.2-0.1-0.2-0.2v-2.6c0.2,0,0.4-0.1,0.5-0.2l-1.1-0.9l-0.6,0.6h-1.4
		l-1.2-0.5v1.6c0,0.9,0,1.8-0.4,2.8l-0.8-0.7l-0.6,0.6h0v-3.2c0.4,0,0.5-0.1,0.6-0.3l-1.2-0.9l-0.5,0.6h-2.1l-1-0.5v4.2h-0.2
		c0-0.2-0.1-0.3-0.1-0.5l-0.3,0c0,0.5-0.3,1.1-0.5,1.3c-0.3,0.2-0.4,0.5-0.3,0.7c0.2,0.3,0.6,0.2,0.8,0c0.2-0.2,0.4-0.6,0.4-1.2h4.4
		c-0.1,0.3-0.2,0.7-0.3,1l-0.4-0.3l-0.5,0.6h-2l-1.1-0.5v7.1h0.2c0.4,0,0.9-0.3,0.9-0.4v-2.5h2.2v1.4c0,0.2,0,0.3-0.2,0.3
		c-0.2,0-1-0.1-1-0.1v0.2c0.4,0.1,0.6,0.2,0.8,0.4c0.1,0.2,0.2,0.4,0.2,0.7c1.2-0.1,1.4-0.6,1.4-1.4V275.1z M139.6,274.7
		c-0.3,1-0.7,2-1.3,2.9c-0.7-0.8-1.3-1.8-1.7-2.9H139.6z M140.3,273.6l-0.7,0.7h-4.2l0.1,0.4h0.8c0.3,1.4,0.8,2.6,1.4,3.6
		c-0.9,1.1-2,2-3.5,2.7l0.1,0.2c1.6-0.5,2.8-1.3,3.8-2.2c0.8,0.9,1.7,1.6,2.9,2.2c0.2-0.5,0.6-0.9,1-0.9l0-0.2
		c-1.2-0.4-2.4-1-3.3-1.8c0.9-1,1.5-2.1,1.9-3.4c0.3,0,0.5-0.1,0.6-0.2L140.3,273.6z M153.6,274.4h-3.5v-1.8c0.3,0,0.4-0.2,0.5-0.3
		l-0.3,0c1.4-0.6,2.8-1.5,3.8-2.2c0.3,0,0.5-0.1,0.6-0.2l-1.3-1.1l-0.8,0.7h-8.2l0.1,0.4h7.9c-0.7,0.7-1.7,1.7-2.6,2.3l-1-0.1v2.3
		h-5.9l0.1,0.4h5.7v4.6c0,0.2-0.1,0.3-0.4,0.3c-0.4,0-2.5-0.2-2.5-0.2v0.2c0.9,0.1,1.4,0.3,1.7,0.4c0.3,0.2,0.4,0.4,0.4,0.8
		c1.8-0.2,2-0.7,2-1.6v-4.7h5.4c0.2,0,0.3-0.1,0.4-0.2c-0.6-0.5-1.5-1.2-1.5-1.2L153.6,274.4z M159.1,281.1c1.1,0,2-0.9,2-2
		c0-1.1-0.9-2-2-2c-1.1,0-2,0.9-2,2C157.1,280.3,158,281.1,159.1,281.1z M159.1,277.7c0.8,0,1.5,0.7,1.5,1.5c0,0.8-0.7,1.5-1.5,1.5
		c-0.8,0-1.5-0.7-1.5-1.5C157.6,278.4,158.2,277.7,159.1,277.7z"/>
	<path d="M58.9,138.9c1-0.9,2-1.8,2.6-2.4c3.5-3.1,5.1-4.6,5.1-6.6c0-2.3-1.4-4-4.4-4c-2.5,0-4.6,1.2-4.8,3.4
		c0.2,0.5,0.6,0.8,1.2,0.8c0.6,0,1.1-0.3,1.3-1.5l0.5-1.8c0.3-0.1,0.6-0.1,0.9-0.1c1.6,0,2.6,1.2,2.6,3.2c0,2-1,3.4-3.1,5.9
		c-1,1.1-2.1,2.4-3.3,3.8v1.6H67v-2.1H58.9z M71.4,133.5c0-5.5,1.1-6.9,2.4-6.9c1.2,0,2.4,1.5,2.4,6.9c0,5.5-1.1,7-2.4,7
		C72.6,140.6,71.4,139.1,71.4,133.5z M73.8,125.9c-2.6,0-5,2.2-5,7.7c0,5.5,2.4,7.8,5,7.8c2.6,0,4.9-2.3,4.9-7.8
		C78.8,128.1,76.4,125.9,73.8,125.9z M87.1,140c0-1.2-0.1-2.5-0.1-3.7v-6.9l0.1-3.2l-0.3-0.2l-5,1.2v0.7l2.6-0.3v8.7
		c0,1.2,0,2.5-0.1,3.7l-3,0.4v0.6h8.6v-0.6L87.1,140z M97.5,134.2c-1.7,0-2.7-1.3-2.7-3.7c0-2.6,1-3.8,2.3-3.8
		c1.4,0,2.4,1.4,2.4,5.2c0,0.6,0,1.2-0.1,1.7C98.8,134,98.2,134.2,97.5,134.2z M93.5,141.4c5.5-1.1,8.7-4.8,8.7-9.4
		c0-3.8-1.9-6.2-5.1-6.2c-2.8,0-5,1.8-5,4.9c0,2.8,1.9,4.4,4.4,4.4c1.1,0,2.1-0.3,2.8-0.9c-0.6,3.2-2.4,5.3-5.9,6.6L93.5,141.4z
		 M109.6,137.1v-4.9h3.5v4.9H109.6z M118.5,137.1h-2.9v-4.9h5.1c0.3,0,0.5-0.1,0.6-0.3c-0.9-0.8-2.4-1.9-2.4-1.9l-1.3,1.6h-2v-3.9
		h5.8c0.3,0,0.5-0.1,0.6-0.3c-1-0.8-2.5-2-2.5-2l-1.4,1.7h-8.3c0.4-0.6,0.8-1.2,1.2-1.8c0.5,0,0.7-0.1,0.8-0.4l-3.3-1.3
		c-1.1,3.4-3.1,6.7-4.9,8.7l0.2,0.2c2.1-1.1,3.9-2.8,5.6-4.9h3.7v3.9h-3.3l-2.8-1v6.5h-3.4l0.2,0.6h9.3v5.1h0.5
		c1.3,0,2.1-0.5,2.1-0.7v-4.4h6.2c0.3,0,0.5-0.1,0.6-0.3c-1-0.8-2.5-2-2.5-2L118.5,137.1z M133.9,140.6c-1.6,0-2.6-1.1-2.6-3.1
		c0-1.4,0.5-2.3,1.5-3.2c2.7,1.2,3.5,2.3,3.5,3.8C136.3,139.6,135.4,140.6,133.9,140.6z M133.9,126.6c1.4,0,2.1,1.1,2.1,2.6
		c0,1.4-0.3,2.4-1.3,3.4c-2.5-1.2-3.1-2.4-3.1-3.6C131.6,127.5,132.7,126.6,133.9,126.6z M135.3,132.8c2.1-1,2.9-2.3,2.9-3.5
		c0-1.9-1.4-3.4-4.2-3.4c-2.6,0-4.6,1.5-4.6,3.9c0,1.8,0.9,3.3,2.9,4.3c-2.1,0.8-3.3,2.1-3.3,3.8c0,2.1,1.6,3.5,4.7,3.5
		c3.1,0,5-1.6,5-4.1C138.7,135.3,137.6,133.9,135.3,132.8z M146.6,134.9c0.1-0.9,0.1-1.9,0.1-2.8v-1.2h6.4v4H146.6z M153.2,126.4
		v3.9h-6.4v-3.9H153.2z M154.1,124.5l-1.1,1.3h-5.9l-2.8-1v7.2c0,4-0.5,7.7-3.8,10.6l0.2,0.2c3.9-1.8,5.3-4.6,5.8-7.4h6.7v4.2
		c0,0.3-0.1,0.5-0.5,0.5c-0.5,0-3-0.2-3-0.2v0.3c1.2,0.2,1.7,0.5,2.1,0.9c0.4,0.4,0.5,0.9,0.6,1.7c2.9-0.3,3.3-1.2,3.3-2.9v-13.2
		c0.4-0.1,0.7-0.3,0.8-0.4L154.1,124.5z"/>
	<path class="st3" d="M86.2,79.4c-1.4,3-3.2,6.2-4.6,8.1l0.4,0.3c2-1.6,4.3-4.1,6.1-6.6c0.6,0.1,1-0.1,1.2-0.4L86.2,79.4z
		 M66.5,79.9c1.6,1.9,3.6,5,3.9,7.4c2.3,1.9,4-3.3-3.5-7.6L66.5,79.9z M90.6,97.1h-0.4c-0.4,2.2-0.8,4.4-1,5
		c-0.1,0.3-0.2,0.5-0.6,0.5c-0.4,0.1-1.5,0.1-2.9,0.1h-3c-1.2,0-1.3-0.2-1.3-0.7V90.7v-0.4h9.1c0.4,0,0.7-0.2,0.8-0.5
		c-1-1-2.8-2.3-2.8-2.3l-1.5,1.9h-8.5V79c0.7-0.1,1-0.4,1.1-0.8l-3.1-0.3v11.5H63.8l0.2,0.9h9c-0.4,7.1-2.3,11.4-9.5,14.6l0.2,0.4
		c8.4-2.7,10.9-7.1,11.5-15.1h4.2v12.1c0,1.6,0.5,2.1,3,2.1h3.3c4.9,0,5.8-0.3,5.8-1.3c0-0.4-0.2-0.7-0.8-0.9L90.6,97.1z M98.1,84.1
		h2.1v3.7h-2.1V84.1z M103.5,80.7v7.1h-1.9v-3.4c0.5-0.1,1-0.4,1.2-0.5l-2-1.5l-0.9,0.9h-1.9v-2.6H103.5z M105.5,88.7
		c-0.2,0.7-0.5,1.5-0.8,2l0.5,0.2c0.6-0.5,1.7-1.3,2.2-1.9c0.2,0,0.3,0,0.4,0c-0.2,0.5-0.6,0.9-0.9,1.4l0.3,0.4
		c3.4-2.4,3.7-6,3.7-8.5v-1.5h4v6.8c0,1.2,0.2,1.6,1.8,1.6h1.3c2.5,0,3.1-0.3,3.1-1.1c0-0.4-0.2-0.6-0.8-0.8l-0.1,0h-0.3
		c-0.2,0.1-0.3,0.1-0.5,0.1c-0.1,0-0.3,0-0.4,0h-0.9h-0.9c-0.5,0-0.5-0.1-0.5-0.5V81c0.5-0.1,0.9-0.2,1.1-0.4l-2.1-1.9l-1.1,1.1
		h-3.4l-2.2-1v3.4c0,1.9-0.1,4-1,6l-1.6-1.6l-1.1,1.1h-0.2v-6.9c0.8-0.1,1.1-0.2,1.4-0.5l-2.5-1.8l-1,1.3h-4.7l-2-0.9v8.9h-0.5
		c0-0.3-0.1-0.6-0.2-0.9l-0.6,0c0.1,1-0.5,2.4-1.1,2.8c-0.5,0.4-0.7,1-0.4,1.4c0.3,0.5,1.2,0.4,1.6-0.1c0.4-0.4,0.8-1.3,0.8-2.4
		H105.5z M98.2,98.3v-2.6h5.2v2.6H98.2z M103.4,92.2v2.6h-5.2v-2.6H103.4z M105.2,92.5c0.6-0.1,1-0.4,1.2-0.6l-2.4-1.7l-0.9,1.1
		h-4.8l-2-0.9v14.9h0.3c0.8,0,1.5-0.4,1.5-0.7v-5.5h5.2v3.4c0,0.4-0.1,0.5-0.5,0.5c-0.5,0-2.4-0.2-2.4-0.2v0.4
		c0.9,0.2,1.4,0.4,1.8,0.7c0.3,0.3,0.4,0.8,0.4,1.3c2.3-0.2,2.6-1.1,2.6-2.6V92.5z M116.6,91.7c-0.7,2.3-1.7,4.4-3.1,6.4
		c-1.6-1.8-2.8-3.9-3.6-6.4H116.6z M117.8,89.6l-1.3,1.2h-9.4l0.3,0.9h1.9c0.7,3,1.8,5.5,3.3,7.6c-1.9,2.3-4.4,4.2-7.6,5.6l0.3,0.4
		c3.4-1.2,6.1-2.8,8.2-4.9c1.7,2,3.9,3.7,6.4,4.8c0.3-0.9,1-1.4,1.9-1.6l0.1-0.3c-2.8-0.9-5.3-2.3-7.2-4.2c1.9-2.2,3.2-4.6,4.1-7.3
		c0.7,0,1-0.1,1.2-0.4L117.8,89.6z M135.9,77.8c0.6,0.6,1,1.6,0.9,2.4c1.7,1.5,3.8-1.9-0.6-2.6L135.9,77.8z M144,86.8h5.4
		c0.4,0,0.7-0.2,0.8-0.5c-0.8-0.7-2-1.5-2-1.5l-1,1.1H144v-1.7h3.5c0.4,0,0.7-0.2,0.7-0.5c-0.8-0.7-1.9-1.6-1.9-1.6l-1,1.1H140
		c0.2-0.3,0.4-0.5,0.6-0.8c0.6,0.1,0.9,0,1-0.3l-2.4-0.8c-0.4,1.1-1.1,2.8-1.9,3.8l0.4,0.3c0.5-0.4,1-0.8,1.5-1.2h3.1V86h-6l0.2,0.9
		h5.8v2.6H139v-1.2c0.5-0.1,0.7-0.3,0.7-0.6l-2.3-0.3v2c-0.3,0.2-0.7,0.4-0.9,0.6l2,1.2l0.7-0.8h7.5v0.9h0.3c0.6,0,1.3-0.4,1.3-0.6
		v-2.4c0.5-0.1,0.7-0.3,0.8-0.6l-2.4-0.3v2.1H144V86.8z M144.4,92.6v2h-13.9v-2H144.4z M130.6,97.5v-2h13.9v2H130.6z M130.6,100.5
		v-2.1h13.9v2.1H130.6z M149.4,79.4l-1.2,1.2h-20.9c-0.1-0.4-0.2-0.8-0.3-1.2l-0.5,0c0.2,1.5-0.7,3-1.7,3.5c-0.6,0.3-1,0.9-0.7,1.5
		c0.3,0.7,1.3,0.7,1.9,0.2c0.3-0.2,0.6-0.5,0.8-0.8l0.2,0.6h3.5v1.8h-3.6l0.2,0.9h3.4v2.1c-2.2,0.3-4.1,0.4-5.2,0.5l1.3,2.1
		c0.3-0.1,0.5-0.3,0.7-0.6l1.5-0.3v11.6h0.3c0.8,0,1.6-0.4,1.6-0.6v-0.4h3.4c-2,1.3-6,2.8-9.6,3.4l0.2,0.5c3.8-0.3,7.9-1.2,10.4-2.2
		c0.7,0.2,1.2,0.2,1.4-0.1l-2.1-1.6h10.1v0.7c-1.2-0.2-2.7-0.3-4.4-0.4l-0.1,0.5c3.8,0.8,6.7,1.8,8.4,2.9c2,1.2,4.7-1.7-3.6-3h0
		c0.7,0,1.6-0.4,1.6-0.7v-8.7c0.5-0.1,0.9-0.3,1-0.5l-2.2-1.7l-1,1.1h-13.4l-2-0.9c3.5-0.8,6.1-1.4,8-1.9l-0.1-0.5l-4.4,0.5v-1.9
		h3.2c0.4,0,0.6-0.2,0.7-0.5c-0.7-0.7-1.8-1.5-1.8-1.5l-1,1.1h-1.2v-1.8h3.7c0.4,0,0.7-0.2,0.8-0.5c-0.8-0.8-2-1.7-2-1.7l-1.1,1.3
		h-6.8c0.2-0.5,0.4-1.2,0.4-2h21c-0.2,0.6-0.4,1.2-0.6,1.7l0.4,0.2c0.7-0.4,1.7-1,2.3-1.6c0.5,0,0.9-0.1,1.1-0.3L149.4,79.4z"/>
	<g>
		<path d="M85.3,101.1c1,0.4,1.2,0.8,1.2,1.5c0,1.5-1.3,2.2-6.2,2.2h-3c-3.1,0-3.8-0.7-3.8-3.1V90.2h-3.2
			c-0.6,7.5-3.2,12.8-12.1,15.4l-0.1-0.3c6.5-3.5,8.1-8.6,8.2-15.1h-7.9l-0.2-0.9h12.2V77.5l4.8,0.4c-0.1,0.4-0.3,0.7-1.1,0.8v10.6
			h6.7l2-2.5c0,0,2.3,1.7,3.6,2.9c-0.1,0.3-0.4,0.5-0.8,0.5h-8.5v0.5v10c0,0.5,0.2,0.7,1.1,0.7h2.5c0.9,0,1.6,0,2.1-0.1
			c0.4,0,0.5-0.1,0.8-0.4c0.3-0.6,0.8-2.4,1.4-4.6h0.3L85.3,101.1z M61.1,79.4c9.6,3.4,6.3,10.8,2.8,7.8c-0.2-2.6-1.6-5.5-3.1-7.6
			L61.1,79.4z M84.6,81.3c-0.1,0.3-0.6,0.6-1.2,0.5c-2.1,2.4-4.6,4.7-7,6.2l-0.3-0.2c1.1-2.1,2.6-5.5,3.7-8.6L84.6,81.3z"/>
		<path d="M107.8,102.2c0,1.9-0.4,3-3.4,3.2c-0.1-0.8-0.2-1.4-0.5-1.8c-0.3-0.4-0.8-0.7-1.8-0.8v-0.4c0,0,1.9,0.1,2.4,0.1
			c0.4,0,0.5-0.2,0.5-0.5v-4.3c-0.7,0.7-1.6,1.6-2.6,2.6c-0.1,0.4-0.3,0.7-0.6,0.8l-0.9-1.9c-0.4,2.4-1.5,4.9-4.8,6.7l-0.3-0.3
			c2.3-2.6,2.4-5.9,2.4-9.1V90l3.3,1.3h3.2l1.3-1.5l0.9,0.7c0.1-0.6,0.2-1.4,0.2-2h-8.8c0.2,1.4-0.2,2.3-0.7,2.8
			c-0.6,0.5-1.7,0.4-2.1-0.4c-0.3-0.8,0.1-1.4,0.8-1.9c0.6-0.5,1.1-1.6,0.9-2.6l0.5,0c0.1,0.4,0.3,0.8,0.4,1.1h0.2v-9.1l2.7,1.1h3.7
			l1.2-1.5l2.9,2.1c-0.2,0.3-0.6,0.5-1.4,0.6V87l0.8-0.8l2,1.9c0.8-2.1,0.8-4.3,0.8-6.1v-3.7l3.6,1.3h2l1.5-1.6l2.9,2.3
			c-0.2,0.2-0.6,0.4-1.1,0.5v5c0,0.3,0.1,0.5,0.3,0.5h0.5c0.2,0,0.4,0,0.6,0c0.1,0,0.4,0,0.5,0c0.2,0,0.5-0.1,0.6-0.1h0.3l0.1,0.1
			c0.7,0.3,1,0.6,1,1.2c0,1.2-1,1.8-3.5,1.8h-1.2c-2.1,0-2.3-0.6-2.3-2.5v-6.2h-2.8v1.5c0,2.5-0.5,6.6-5.1,9l-0.2-0.3
			c0.5-0.6,0.9-1.3,1.1-1.9c-0.1,0-0.3,0.1-0.5,0.1c-0.5,0.6-1.4,1.4-2,2L109,92c-0.2,0.2-0.6,0.5-1.2,0.6V102.2z M100.8,87.6h1.2
			v-5.4l2.2,0.9h0.9v-2.6h-4.3V87.6z M101.1,96.3c0,0.5,0,1-0.1,1.6c1-0.3,2.5-0.8,4-1.3v-4.5h-3.9v1.5c4.9-0.7,4.3,3.1,2.1,2.5
			c-0.5-0.5-1.3-1.1-2.1-1.5V96.3z M103.8,87.6h1.3v-3.6h-1.3V87.6z M122.7,92.3c-0.2,0.3-0.5,0.4-1.2,0.5c-0.9,2.6-2.3,4.9-4.1,6.9
			c1.9,1.3,4.2,2.1,6.7,2.8l0,0.3c-1.3,0.3-2.3,1.3-2.8,2.8c-2.3-1-4.3-2.3-5.9-4c-2.1,1.7-4.7,3-7.9,4l-0.2-0.4
			c2.8-1.3,5-3.1,6.8-5.3c-1.4-2-2.4-4.4-3.1-7.6h-1.5l-0.3-0.9h8.6l1.8-1.8L122.7,92.3z M111.6,92.2c0.8,2.4,2.1,4.3,3.8,5.8
			c1.2-1.8,2-3.7,2.6-5.8H111.6z"/>
		<path d="M154.1,81.5c-0.2,0.2-0.5,0.3-1.1,0.3c-0.7,0.5-1.8,1-2.7,1.4l0.2,0.2c-0.1,0.3-0.4,0.5-0.8,0.5h-3v1.7h2.2l1.3-1.5
			c0,0,1.5,1.1,2.4,1.9c-0.1,0.3-0.4,0.5-0.8,0.5h-5.2v2.9h2v-2.3l3.4,0.3c-0.1,0.3-0.2,0.5-0.8,0.6v2.5c0,0.2-1.2,0.7-2.2,0.7h-0.3
			l1.4,1.1c-0.2,0.2-0.5,0.4-0.9,0.4v8.2c0,0.2-1.4,0.7-2.4,0.8c10,1,5.2,5.3,2.4,3.4c-1.5-1-4.1-2.4-7.8-3.2l0.1-0.4
			c1.6,0,3.1,0,4.3,0.1v-0.6h-9.3l3.1,2.2c-0.3,0.3-0.8,0.4-1.7,0.2c-2.8,1.2-7.4,2.1-11.8,2.2l-0.1-0.4c3.7-0.8,7.7-2.6,9.8-4.1
			h-1.9v0.2c0,0.3-1.5,1-2.9,1h-0.5V90.7l-1.2,0.3c-0.1,0.4-0.5,0.6-0.8,0.7l-1.5-3c1,0,2.8-0.1,4.8-0.3v-1.8h-2.7l-0.2-0.9h2.9V84
			h-2.7c-0.2,0.4-0.5,0.6-0.9,0.8c-0.9,0.5-2.3,0.2-2.5-0.9c-0.3-1,0.4-1.8,1.2-2.2c0.9-0.4,1.8-1.6,1.7-2.8h0.5
			c0.2,0.5,0.4,1,0.5,1.5h9.1c-0.1-0.1-0.2-0.1-0.3-0.2c0.1-1-0.2-2.1-0.9-2.6l0.2-0.2c4.6-0.2,4.6,2.1,3.4,3h8.6l1.6-1.7
			L154.1,81.5z M143.8,83.9h-2.4c-0.7,0.6-1.4,1.1-2.2,1.5l-0.4-0.2c0.7-1,1.3-2.7,1.7-3.9h-10.8c0.1,0.7,0,1.3-0.2,1.8h5.7l1.3-1.6
			c0,0,1.5,1.1,2.5,2c-0.1,0.3-0.4,0.5-0.8,0.5h-3.4v1.7h0.5l1.2-1.4c0,0,1.1,0.8,1.9,1.6l-0.1-0.3h5.6V83.9z M143.8,86.5l-5.3,0
			l-0.1-0.1c-0.1,0.2-0.4,0.3-0.7,0.3h-3v1.5c1.3-0.1,2.7-0.2,4-0.4l0,0.5c-1.7,0.6-4.2,1.4-7.5,2.3l2.7,1.1h6.8l-2.9-1.6
			c0.2-0.2,0.7-0.6,1-0.8V87l3.4,0.3c-0.1,0.3-0.2,0.5-0.7,0.6v1.5h2.2V86.5z M133.9,92.4v2h12v-2H133.9z M133.9,97.3h12v-2h-12
			V97.3z M145.9,100.2v-2h-12v2H145.9z M140.9,91.5h4.7l1.2-1.3h-5L140.9,91.5z M148.1,81.6c0,0,0.8,0.6,1.6,1.2
			c0.1-0.4,0.2-1,0.2-1.5h-8.8l2.9,0.9c-0.1,0.3-0.4,0.4-1,0.3c-0.2,0.2-0.4,0.4-0.6,0.6h4.5L148.1,81.6z M148.7,90.3h-1.1l1.1,0.8
			V90.3z"/>
	</g>
</g>
</svg>
