<svg width="180" height="40" viewBox="0 0 180 40" fill="none" xmlns="http://www.w3.org/2000/svg">
<path d="M29.1215 29.0232C29.1705 29.7273 29.3504 30.0708 30.0862 30.6719C30.4623 31.0326 30.8057 31.2731 30.9201 31.5135C31.1 31.8914 30.9855 32.6814 30.4786 33.334C30.0044 33.8321 29.7755 34.0554 28.7945 34.2615C27.4537 34.4848 26.1783 34.6393 24.7557 34.7596C22.8099 34.8283 20.8641 34.8283 18.9347 34.7252C16.6619 34.605 15.9751 33.7462 15.9587 31.3418C15.9424 27.4087 15.9587 23.4929 15.9587 19.5598C15.9587 19.2335 15.9424 18.9072 15.9097 18.598C15.7789 17.1897 15.1248 16.3996 13.7023 16.3653C13.408 16.3481 13.1463 16.3481 12.8193 16.3309C12.3615 16.2966 12.1162 16.039 12.1162 15.5581C12.1326 11.2128 12.1489 6.8676 12.1489 2.52236C12.1489 2.19604 12.2797 2.04146 12.574 2.02429C12.7376 2.00711 12.9011 1.98994 13.0482 2.00711C14.2255 2.11016 15.4028 2.19604 16.5801 2.29909C16.6619 2.29909 16.7436 2.33344 16.9235 2.36779C16.2694 2.83151 16.4166 3.46698 16.4166 4.0681C16.4166 10.938 16.4166 11.3502 16.4166 14.9741C16.4166 15.4722 16.4166 15.6096 16.4166 15.8672C16.4166 16.1764 16.5474 16.5027 17.1033 16.5199C18.0354 16.537 18.9674 16.5199 19.9157 16.537C20.0793 16.537 20.6025 16.537 20.6679 16.537C20.6025 16.6057 20.439 16.7431 20.3409 16.9149C20.1774 17.2069 20.1447 17.6362 20.1447 17.911C20.1283 21.6723 20.1447 25.4336 20.1447 29.1949C20.1447 30.2426 20.5044 30.6719 21.5018 30.6891C22.9734 30.7063 24.445 30.6719 25.933 30.6891C26.7996 30.6891 27.4046 30.2597 27.7643 29.4354C28.1077 28.6281 28.4184 27.7866 28.7454 26.9793C28.8108 26.8248 28.9743 26.4298 29.0234 26.2752C29.0397 26.258 29.0561 28.1816 29.1215 29.0232Z" fill="white"/>
<path d="M0 34.9141C0.506888 34.4504 1.01378 34.0039 1.50431 33.5058C4.20226 30.775 5.82104 27.4087 6.47509 23.5616C6.80211 21.6895 6.99832 19.8346 7.17819 17.9454C7.22724 17.4301 6.88387 17.0351 6.44238 16.8118C6.29522 16.7431 6.0663 16.6401 5.82104 16.5027C5.9682 16.4855 6.29522 16.5027 6.44238 16.5027C7.91399 16.5027 9.40195 16.5027 10.8736 16.5027C11.7729 16.5027 11.9527 16.6573 11.8383 17.6191C11.6421 19.2678 11.4459 20.9166 11.0861 22.5139C10.4811 25.2103 9.36925 27.6663 7.63602 29.7788C5.77198 32.0459 3.41741 33.5745 0.80121 34.708C0.555941 34.8111 0.294322 34.9141 0.0327026 35C0.0163513 34.9828 0.0163512 34.9485 0 34.9141Z" fill="white"/>
<path d="M1.81494 4.65204C1.91305 4.63486 1.9621 4.61769 1.99481 4.63486C4.12046 5.37338 6.09896 6.35235 7.50517 8.25875C8.22462 9.23772 8.6334 10.3369 8.48624 11.5907C8.25732 13.6688 6.40964 14.5963 4.75816 13.4456C4.56195 13.3082 4.36573 13.0334 4.34938 12.7929C4.03871 9.95906 3.2048 7.33131 1.88035 4.85813C1.83129 4.82378 1.83129 4.75509 1.81494 4.65204Z" fill="white"/>
<path d="M28.1567 6.5241C27.6662 6.67867 27.6008 6.71302 27.5027 6.78172C27.4046 6.86759 27.0121 7.19392 26.7996 7.40001C24.5104 9.90754 23.1369 11.1957 20.21 13.2395C20.0956 13.3253 19.8012 13.5143 19.8339 13.4799C19.8503 13.4627 19.7849 13.4799 19.7031 13.4971C19.7358 13.3597 19.7849 13.2566 19.8176 13.1364C20.766 10.3713 21.6816 7.60611 22.63 4.82379C22.7935 4.32572 23.0061 4.18832 23.4476 4.39442C24.9192 5.04706 26.3908 5.75123 27.8787 6.40387C28.0586 6.48975 28.0423 6.48975 28.1567 6.5241Z" fill="white"/>
<path d="M23.3984 16.4855C23.4638 16.4512 23.8236 16.3138 23.9217 16.2107C24.4449 15.7127 25.3442 14.6135 25.6713 14.1669C26.5869 13.0162 26.309 13.1192 27.3391 13.9436C28.2221 14.665 30.0697 16.2451 30.315 16.4683C30.315 16.4683 30.315 16.4683 30.315 16.4855C28.0585 16.4855 25.6876 16.4855 23.3984 16.4855Z" fill="white"/>
<path d="M121.345 13.9152C123.189 12.9882 125.099 12.7691 127.092 13.241C127.889 13.6624 128.669 13.7298 129.466 13.477C130.015 13.2579 130.33 13.1568 130.397 13.2073L131.559 16.4432C131.758 17.0837 131.841 17.4713 131.792 17.5724C131.26 18.1454 130.795 18.1791 130.397 17.6567C129.068 15.7691 127.689 14.7579 126.245 14.623C124.534 14.2523 123.056 14.8758 121.843 16.4769C120.648 18.7016 120.166 21.1622 120.432 23.8251C120.614 25.3588 121.163 26.7576 122.059 28.0048C123.239 29.4205 124.717 29.9261 126.46 29.5553C128.138 28.9992 128.869 27.9205 128.653 26.3363C128.819 25.6116 128.553 24.9711 127.856 24.4487C127.208 24.3644 126.942 24.061 127.058 23.5554C127.058 23.1678 127.092 22.9487 127.158 22.8981C127.258 22.8476 127.573 22.8139 128.088 22.8139H132.091C132.854 22.6285 133.153 22.8813 133.021 23.606C132.987 23.9768 132.722 24.2801 132.223 24.5161C131.559 24.9037 131.293 25.7127 131.443 26.943V29.2182C131.443 29.7576 131.41 30.0609 131.36 30.1115C131.277 30.1789 130.978 30.2295 130.463 30.2463C129.267 30.3474 127.955 30.634 126.544 31.1059C125.431 31.4261 124.002 31.2912 122.259 30.7182C119.851 29.4205 118.372 27.5834 117.824 25.1734C117.393 23.724 117.343 22.0386 117.675 20.1005C117.841 17.5724 119.07 15.5163 121.345 13.9152Z" fill="white"/>
<path d="M137.239 18.2803C139.083 17.7578 140.677 17.7578 142.055 18.314C143.284 18.8701 143.949 19.7802 144.048 21.0611L144.131 28.7463C144.198 29.4205 144.513 29.6227 145.061 29.3531C145.228 29.2519 145.377 29.3531 145.493 29.6733C145.809 30.3643 145.36 30.9036 144.181 31.2744C143.251 31.662 142.471 31.2744 141.806 30.1283C141.673 29.8587 141.474 29.7744 141.208 29.8587L139.282 30.9373C138.518 31.2744 137.771 31.3924 137.007 31.3249C135.512 31.2575 134.549 30.4654 134.1 28.9486C133.768 27.4655 134.416 26.134 136.01 24.9543C137.422 24.061 138.966 23.5049 140.644 23.2521C141.458 23.1678 141.773 22.7633 141.624 22.0555C141.607 21.3813 141.458 20.7577 141.192 20.2184C140.544 19.4095 139.78 19.1061 138.917 19.3083C138.618 19.2915 138.335 19.4263 138.036 19.696C137.704 20.1005 137.521 20.5049 137.472 20.8926C137.505 21.4993 137.272 22.0049 136.758 22.4094C135.96 22.8982 135.296 22.797 134.715 22.0892C134.25 21.2128 134.399 20.3533 135.18 19.4769C135.695 18.9544 136.376 18.5499 137.239 18.2803ZM140.461 24.6509L139.946 24.7858C138.734 25.0891 137.704 25.8138 136.907 26.9599C136.276 28.7969 136.874 29.6901 138.734 29.6564C139.348 29.589 140.046 29.2351 140.793 28.6115C141.458 28.0553 141.723 27.4655 141.59 26.8587C141.574 25.8644 141.607 25.1902 141.673 24.8195C141.806 24.3476 141.408 24.297 140.461 24.6509Z" fill="white"/>
<path d="M151.921 19.005C153.482 17.8252 155.093 17.5893 156.737 18.2971C157.119 18.4488 157.534 18.8533 157.966 19.4937C158.115 19.696 158.315 19.7802 158.531 19.696C160.357 17.8758 162.251 17.4376 164.227 18.3645C165.506 19.4432 166.087 20.7072 165.987 22.1229C165.938 24.1116 165.921 26.1003 165.938 28.0891C165.971 28.7632 166.386 29.2351 167.167 29.5048C167.532 29.5216 167.648 29.7913 167.549 30.2969C167.549 30.6845 167.515 30.8867 167.449 30.9036C167.366 30.9542 167.067 30.9879 166.552 30.9879H162.633C162.118 30.9542 161.852 30.6677 161.852 30.1452C161.786 29.7576 161.919 29.5553 162.267 29.5385C163.098 29.2519 163.48 28.7295 163.43 27.9711L163.463 21.8195C163.363 20.7577 162.915 20.0162 162.151 19.5948C161.155 19.3589 160.241 19.7128 159.394 20.6735C158.713 21.3982 158.447 22.2072 158.597 23.0835V28.0553C158.63 28.7295 159.012 29.2182 159.726 29.4879C160.241 29.5216 160.374 29.9767 160.141 30.8699C160.092 30.9373 159.793 30.971 159.245 30.971H155.408C154.86 30.971 154.561 30.7519 154.511 30.2969C154.511 29.8081 154.661 29.5385 154.943 29.4879C155.608 29.3194 156.006 28.7969 156.122 27.9374C156.056 26.1509 156.056 24.3644 156.122 22.5779C156.205 21.8027 156.023 21.078 155.574 20.387C155.043 19.6791 154.545 19.3758 154.08 19.4937C153.399 19.4937 152.718 19.8814 152.037 20.6398C151.456 21.2971 151.173 22.0049 151.206 22.7296C151.19 24.415 151.19 26.1172 151.24 27.8025C151.14 28.6115 151.522 29.1677 152.369 29.5048C152.668 29.5722 152.801 29.7913 152.801 30.162C152.801 30.6002 152.768 30.8362 152.701 30.8867C152.602 30.9373 152.286 30.971 151.771 30.971H148.068C147.519 30.971 147.221 30.9373 147.171 30.8699C147.121 30.7688 147.088 30.5497 147.088 30.2463L147.121 29.6733C147.171 29.6059 147.453 29.4879 147.968 29.3362C148.649 28.8812 148.898 28.2913 148.715 27.5497V22.0555C148.682 21.3308 148.3 20.8757 147.586 20.724C146.872 20.8757 146.639 20.4881 146.888 19.5274C146.938 19.46 147.221 19.3926 147.735 19.3252C148.582 19.2578 149.446 19.0387 150.359 18.7016C150.874 18.4825 151.157 18.4825 151.206 18.7016C151.289 19.2241 151.505 19.3252 151.921 19.005Z" fill="white"/>
<path d="M172.581 18.1117C173.81 17.7578 174.956 17.8252 176.002 18.314C177.48 19.1229 178.41 20.387 178.792 22.106C178.975 22.9656 179.041 23.6229 178.975 24.061C178.892 24.1453 178.593 24.1959 178.078 24.1959C175.969 24.179 173.843 24.1959 171.717 24.2464C171.318 24.3981 171.169 24.7858 171.285 25.3756C171.269 25.9655 171.418 26.6228 171.75 27.3644C172.431 28.6452 173.195 29.2857 174.026 29.3194C175.072 29.5722 176.201 29.0497 177.397 27.7688C177.862 27.3306 178.244 27.179 178.526 27.2969C178.858 27.4823 178.858 27.8531 178.56 28.3756C176.949 30.8699 175.055 31.7969 172.896 31.1564C171.335 30.8362 170.139 29.8418 169.342 28.1565C168.445 26.0666 168.429 23.842 169.259 21.4825C170.106 19.5611 171.219 18.432 172.581 18.1117ZM175.221 19.9319C174.026 19.1567 172.963 19.4769 172.049 20.8757C171.7 21.6004 171.584 22.1734 171.667 22.5779C171.817 22.7802 172.149 22.8644 172.68 22.8139C173.776 22.8307 174.906 22.8139 176.052 22.7633C176.284 22.5611 176.367 22.2409 176.251 21.8532C176.135 21.078 175.803 20.4544 175.221 19.9319Z" fill="white"/>
<path d="M75.8064 16.0387H69.9438V16.7803H75.8064V16.0387Z" fill="white"/>
<path d="M38.887 13.9664C40.7305 13.0394 42.6404 12.8203 44.6333 13.2922C45.4305 13.7135 46.2111 13.781 47.0082 13.5282C47.5563 13.3091 47.8719 13.2079 47.9383 13.2585L49.1008 16.4944C49.3001 17.1348 49.3832 17.5225 49.3334 17.6236C48.8019 18.1966 48.3369 18.2303 47.9383 17.7078C46.6097 15.8202 45.2312 14.809 43.7863 14.6742C42.0757 14.3034 40.5976 14.927 39.3852 16.5281C38.1894 18.7528 37.7078 21.2134 37.9735 23.8763C38.1562 25.4099 38.7043 26.8088 39.6011 28.056C40.7803 29.4717 42.2584 29.9773 44.0022 29.6065C45.6796 29.0503 46.4104 27.9717 46.1945 26.3874C46.3605 25.6627 46.0948 25.0223 45.3973 24.4998C44.7496 24.4156 44.4838 24.1122 44.6001 23.6066C44.6001 23.219 44.6333 22.9999 44.6997 22.9493C44.7994 22.8988 45.1149 22.865 45.6298 22.865H49.6323C50.3963 22.6797 50.6952 22.9325 50.5623 23.6572C50.5291 24.0279 50.2634 24.3313 49.7652 24.5673C49.1008 24.9549 48.8351 25.7639 48.9846 26.9942V29.2694C48.9846 29.8087 48.9514 30.1121 48.9015 30.1627C48.8185 30.2301 48.5196 30.2806 48.0047 30.2975C46.809 30.3986 45.4969 30.6851 44.0853 31.157C42.9725 31.4772 41.5442 31.3424 39.8004 30.7694C37.3923 29.4717 35.9142 27.6346 35.3661 25.2245C34.9343 23.7751 34.8845 22.0898 35.2166 20.1516C35.3827 17.6404 36.6117 15.5674 38.887 13.9664Z" fill="white"/>
<path d="M55.2957 18.7522C55.8438 18.5162 56.1261 18.651 56.1261 19.1735V26.8587C55.8438 27.8868 56.1925 28.7126 57.1558 29.3362C58.6837 30.0609 60.0456 29.589 61.2579 27.87C61.4572 27.5666 61.6067 27.2127 61.6731 26.7745C61.6897 25.106 61.6731 23.3869 61.6233 21.651C61.4738 21.2634 61.2081 21.0274 60.8427 20.9431C60.2781 20.8589 59.9459 20.7746 59.8629 20.7072C59.8131 20.6398 59.7798 20.4375 59.7798 20.1342C59.7798 19.8308 59.7964 19.6623 59.8297 19.578C59.8961 19.4937 60.195 19.4263 60.7099 19.3758C61.6067 19.3083 62.4703 19.0892 63.3173 18.7522C63.882 18.5331 64.1643 18.651 64.1643 19.1398V27.87C64.0813 28.9149 64.4467 29.4879 65.2771 29.5722C66.0576 29.5048 66.2901 29.9598 65.9746 30.9373C65.8916 31.0047 65.5926 31.0384 65.0778 31.0384H62.1216C61.7562 30.9879 61.6067 30.8025 61.6897 30.4823C61.7562 30.1452 61.6565 29.9598 61.4074 29.9261C61.3244 29.943 61.1085 30.0778 60.7929 30.3137C59.1487 31.4935 57.4215 31.6789 55.6445 30.8362C54.4653 30.1452 53.801 29.1677 53.6515 27.9037C53.6349 26.0666 53.6515 24.2296 53.7013 22.3925C53.8674 21.6847 53.5353 21.1791 52.6883 20.8757C52.1734 20.7915 51.8745 20.724 51.808 20.6735C51.7416 20.3027 51.725 19.9488 51.7748 19.578C51.8413 19.5106 52.1568 19.4432 52.7215 19.3926C53.3692 19.3589 54.2328 19.1398 55.2957 18.7522Z" fill="white"/>
<path d="M70.8075 18.3308C72.651 17.8084 74.2453 17.8084 75.6238 18.3645C76.8694 18.9207 77.5171 19.8308 77.6167 21.1117L77.6998 28.7969C77.7662 29.4711 78.0818 29.6733 78.6298 29.4036C78.7959 29.3025 78.9454 29.4036 79.0616 29.7239C79.3772 30.4149 78.9287 30.9542 77.7496 31.3249C76.8195 31.7126 76.039 31.325 75.3747 30.1789C75.2418 29.9092 75.0425 29.825 74.7768 29.9092L72.8503 30.9879C72.0863 31.3249 71.3389 31.4429 70.575 31.3755C69.0803 31.3081 68.117 30.516 67.6686 28.9992C67.3364 27.516 67.9841 26.1846 69.5785 25.0048C70.9902 24.1116 72.5347 23.5554 74.2121 23.3026C75.0259 23.2184 75.3414 22.8139 75.192 22.106C75.1754 21.4319 75.0259 20.8083 74.7602 20.269C74.1125 19.46 73.3485 19.1566 72.4849 19.3589C72.1859 19.342 71.9036 19.4769 71.6047 19.7465C71.2725 20.151 71.0898 20.5555 71.04 20.9431C71.0732 21.5499 70.8407 22.0555 70.3259 22.46C69.5287 22.9487 68.8644 22.8476 68.2831 22.1397C67.8181 21.2633 67.9675 20.4038 68.7481 19.5274C69.263 19.005 69.9439 18.6173 70.8075 18.3308ZM74.0294 24.7183L73.5146 24.8532C72.3022 25.1565 71.2725 25.8812 70.4753 27.0273C69.8442 28.8643 70.4421 29.7576 72.3022 29.7239C72.9167 29.6564 73.6142 29.3025 74.3616 28.6789C75.0259 28.1228 75.2916 27.5329 75.1588 26.9262C75.1422 25.9318 75.1754 25.2576 75.2418 24.8869C75.3747 24.3981 74.9761 24.3476 74.0294 24.7183Z" fill="white"/>
<path d="M87.5814 18.1286C88.91 17.7241 90.2885 17.9938 91.75 18.9376C92.8129 19.9151 93.2945 21.0611 93.1948 22.3925C93.145 23.9599 93.1284 25.5273 93.145 27.0947C92.9623 28.325 93.3111 29.1508 94.2245 29.5553C94.6729 29.5216 94.839 29.7744 94.7394 30.3137C94.7394 30.7013 94.7062 30.9204 94.6397 30.971C94.5401 31.0216 94.2245 31.0553 93.7097 31.0553H90.0227C89.4747 31.0553 89.1757 31.0216 89.1259 30.9541C89.0761 30.853 89.0429 30.6339 89.0429 30.3306L89.0761 29.7575C89.1259 29.6901 89.4415 29.5553 90.0061 29.3362C90.4213 29.0666 90.6372 28.7463 90.6538 28.3418L90.604 21.7015C90.139 20.1679 89.292 19.4769 88.0796 19.6117C86.3192 20.0499 85.2231 21.2802 84.7746 23.3195V28.443C84.8743 28.898 85.1898 29.2519 85.7213 29.4879C86.3026 29.5385 86.5185 29.8418 86.369 30.398C86.369 30.7688 86.3192 30.971 86.2361 31.0047C84.7082 31.0553 83.1803 31.0721 81.6523 31.0553C81.1375 31.0553 80.8386 31.0216 80.7555 30.971C80.4732 30.1115 80.6227 29.6396 81.1707 29.5553C82.0177 29.2856 82.3831 28.7126 82.2835 27.8362C82.2668 25.8812 82.2668 23.8925 82.3167 21.8701C82.134 21.2465 81.7022 20.9094 81.0545 20.842C80.4068 20.842 80.2075 20.4207 80.4566 19.5948C80.5064 19.5274 80.822 19.46 81.3866 19.4095C82.1506 19.3589 82.9976 19.1398 83.9608 18.7522C84.5089 18.4825 84.7912 18.5836 84.7912 19.0218C84.8411 19.4263 84.9075 19.6623 84.9905 19.7297C85.0902 19.7634 85.3393 19.5948 85.7047 19.2072C86.3524 18.6173 86.9835 18.2634 87.5814 18.1286Z" fill="white"/>
<path d="M99.7883 18.3814C101.532 17.7578 103.093 17.7915 104.472 18.5162C104.953 18.8364 105.302 18.9713 105.501 18.9376C105.784 18.9207 106.116 18.7353 106.531 18.3814C107.212 17.9432 107.91 17.8252 108.591 18.0443C109.454 18.4319 109.819 19.0218 109.72 19.8476C109.537 20.4712 109.105 20.7577 108.424 20.6903C108.092 20.6061 107.81 20.3195 107.577 19.8308C107.029 19.4263 106.614 19.4937 106.348 20.0162C106.348 20.1173 106.415 20.3533 106.531 20.6903C107.146 22.1903 107.079 23.5891 106.332 24.87C105.8 25.7296 105.169 26.2689 104.422 26.5217C103.326 26.9936 102.13 27.1452 100.835 26.9936C100.486 26.8756 100.187 26.9599 99.9378 27.2632C99.9045 27.3981 99.971 27.5497 100.12 27.6846C100.32 27.8868 100.735 28.0385 101.349 28.1059C102.695 28.325 104.405 28.7632 106.498 29.4205C108.458 30.3811 108.906 31.6283 107.86 33.162C107.362 33.8024 106.697 34.2238 105.85 34.3923C102.977 35.235 100.104 35.2013 97.2473 34.2912C96.2176 33.8698 95.7359 33.1114 95.8356 32.0159C96.0515 31.2238 96.5663 30.6002 97.3635 30.1115C98.2271 29.8418 98.3766 29.4205 97.7953 28.8306C97.2639 28.1902 97.4133 27.516 98.2603 26.8082C98.4596 26.6396 98.5427 26.4205 98.4596 26.1846C97.1974 25.0723 96.6992 23.724 96.9649 22.1229C97.2307 20.4375 98.1607 19.2072 99.7883 18.3814ZM101.266 30.2295C100.237 30.2295 99.3067 30.7182 98.4763 31.6957C98.2936 32.2687 98.5095 32.7238 99.1406 33.0272C100.187 33.3474 101.698 33.4148 103.658 33.2294C104.522 33.162 105.219 32.8418 105.751 32.2856C105.883 31.9822 105.834 31.7294 105.568 31.4935C104.638 30.971 103.21 30.5497 101.266 30.2295ZM102.213 19.5611C100.785 19.5106 99.9045 20.3364 99.589 22.0386C99.5724 22.4262 99.589 22.8307 99.6388 23.2689C99.6886 24.061 100.12 24.7015 100.934 25.2071C102.612 25.7464 103.724 25.1734 104.239 23.5049C104.322 22.8476 104.322 22.1397 104.206 21.415C103.874 20.2353 103.21 19.6117 102.213 19.5611Z" fill="white"/>
</svg>
