<?xml version="1.0" encoding="utf-8"?>
<!-- Generator: Adobe Illustrator 22.0.1, SVG Export Plug-In . SVG Version: 6.00 Build 0)  -->
<svg version="1.1" id="레이어_1" xmlns="http://www.w3.org/2000/svg" xmlns:xlink="http://www.w3.org/1999/xlink" x="0px"
	 y="0px" viewBox="0 0 499.7 779.1" style="enable-background:new 0 0 499.7 779.1;" xml:space="preserve">
<style type="text/css">
	.st0{fill:url(#SVGID_1_);}
	.st1{stroke:#000000;stroke-miterlimit:10;}
	.st2{fill:#EC1D24;stroke:#EC1D24;stroke-width:4;stroke-miterlimit:10;}
	.st3{fill:#FFFFFF;}
	.st4{fill:#EC1D24;stroke:#EC1D24;stroke-miterlimit:10;}
	.st5{fill:#F7A084;}
	.st6{fill:#005CA9;}
	.st7{fill:#EC1D24;stroke:#000000;stroke-width:4;stroke-miterlimit:10;}
</style>
<g>
	<linearGradient id="SVGID_1_" gradientUnits="userSpaceOnUse" x1="249.6667" y1="0.1667" x2="249.6667" y2="779.1667">
		<stop  offset="0" style="stop-color:#EB1A21"/>
		<stop  offset="1" style="stop-color:#A51A21"/>
	</linearGradient>
	<path class="st0" d="M499.7,779.2c-166.7,0-333.3,0-500,0c0-259.7,0-519.3,0-779c166.7,0,333.3,0,500,0
		C499.7,259.8,499.7,519.5,499.7,779.2z M477.7,389.7c0-113.8,0-227.7,0-341.5c0-14.9-15.2-30-30.3-30c-84.5,0-169,0-253.5,0
		c-47,0-94,0.4-141-0.3c-11.4-0.2-29.6,18.2-29.6,29.7c0.3,227.7,0.4,455.3,0,683c0,11.5,18.3,29.9,30,29.8
		c131.5-0.5,263-0.3,394.5-0.3c14.5,0,29.8-15.4,29.8-30C477.7,616.7,477.7,503.2,477.7,389.7z"/>
	<path d="M477.7,389.7c0,113.5,0,227,0,340.5c0,14.6-15.3,30-29.8,30c-131.5,0-263-0.2-394.5,0.3c-11.7,0-30-18.3-30-29.8
		c0.4-227.7,0.4-455.3,0-683c0-11.6,18.2-29.9,29.6-29.7c47,0.6,94,0.3,141,0.3c84.5,0,169,0,253.5,0c15,0,30.2,15.1,30.3,30
		C477.7,162,477.7,275.9,477.7,389.7z M47.2,412.7c0,0,0.1,0.1,0.1,0.1c-6.3-2.8-12.6-5.6-19.1-8.5c-0.3,1.2-0.5,1.6-0.5,2.1
		c0,60.5,0,121,0.1,181.5c0,1.3,1.4,3.2,2.6,3.9c72,41.6,150.2,63.8,232.3,73.5c53.8,6.3,107.7,7,161.7,3.8
		c16.3-1,32.5-2.5,48.9-3.7c0-68.5,0-136.5,0-205.3c-1.7,2-2.8,3.4-3.9,4.7c-6.3,7.1-14.2,9.9-23.4,7.5c-5.1-1.3-9.8-4.1-14.8-5.9
		c-2.5-0.9-5.3-1.8-7.9-1.6c-11.6,0.8-23.2,2.5-34.8,3c-6,0.3-10.4,2.1-14.8,6.4c-14,13.8-27.7,13-41.1-1.5
		c-1.5-1.6-4.1-2.8-6.3-2.9c-10.8-0.7-21.6-1.1-32.5-1.3c-2.1,0-4.5,1-6.2,2.3c-15.5,12.1-28.4,10.9-41.5-4
		c-1.6-1.8-4.2-3.2-6.6-3.6c-12.1-2.2-24.3-4.1-36.5-5.7c-2.5-0.3-5.6,0.4-7.7,1.7c-10.2,6.4-19.4,5.8-28.2-2.5
		c-1.6-1.5-2.8-3.4-4.4-4.7c-2.4-1.9-4.8-4-7.6-4.9c-12.4-3.7-25.1-6.9-37.5-10.5c-3.3-0.9-5.9-0.9-9,0.7c-12.5,6.2-23.6,4-33-6.3
		c-2.2-2.5-4-5.3-6-7.9c-1-1.3-2-2.9-3.4-3.5C60,417.2,53.6,415,47.2,412.7z M27.7,594.7c0,26.9-0.1,52.9,0.1,78.9
		c0,1.6,1.8,3.8,3.3,4.7c54.8,29.7,112,52.8,172.9,66.5c25,5.6,50.3,11,76,11.3c55.5,0.5,111,0,166.5,0.3
		c11.7,0.1,27.7-15.5,27.3-27.2c-0.6-16.3-0.1-32.7-0.1-49c0-3.6,0-7.2,0-11.3c-10.5,0.8-20.4,1.7-30.3,2.4
		c-71.9,5.4-143.5,4.4-214.8-7.3c-69.1-11.3-135-32.3-196.2-66.9C31.1,596.4,29.8,595.8,27.7,594.7z M413,288.3
		c-0.6-2.3-1.2-3.9-1.5-5.5c-2.5-12.5-1-24.3,7.5-34.4c7.9-9.4,19.6-8.2,25.5,2.5c2,3.7,3.4,8,4,12.2c1.7,11.5-1.1,22.1-8.5,31.4
		c1.1,0.7,1.8,1.1,2.6,1.5c6.8,3.9,6.9,3.9,1.8,10c-4.3,5.2-8.7,10.4-12.5,14.9c3.6,3.1,8.7,7.2,13.6,11.6c2.4,2.2,2.4,4.5-0.6,6.6
		c-4.5,3.1-8.9,6.3-13.6,9.7c9.5,8.7,14.8,20,18.8,32.1c1.8,5.4,1.6,5.6-3.9,5.7c-20.4,0.5-39.4-3.8-56-16.4c-2.1,1-4.1,2-5.8,2.9
		c5.6,13.2,18.8,15.5,28.5,22.3c9.6-8.2,21.8-8.6,32.8-1.6c5.5,3.5,10.6,7.7,12.1,14.1c1.1,4.7,0.2,9.8,0.2,15
		c4.6-0.8,10.1-1.7,15.5-2.6c0.1-1.2,0.2-1.9,0.2-2.5c0-123.3,0-246.6,0-370c0-11.4-14.5-25.6-25.9-25.6c-42.3-0.1-84.7,0-127,0
		c-1.2,0-2.4,0.3-3.3,0.4c2.7,5.8,5.3,11.2,8,16.9c1.6-2,3-3.9,4.6-5.5c1.6-1.6,3.4-3.2,5.3-4.5c5.2-3.4,6.1-3.2,9.5,2
		c4.8,7.4,9.3,15,14,22.4c4.7-3.1,8.6-5.8,12.6-8.5c3.8-2.5,6.1-1.5,7.2,2.9c1.3,5.1,2.8,10.1,4.3,15.3c4.2-1.3,8.1-2.3,11.8-3.8
		c1.3-0.5,2.3-2.2,3-3.6c2.1-4,3-9.3,6.1-12c12-10.7,26.2-13.6,41.4-8.4c12.2,4.2,14.5,16.2,4.7,24.7c-11.9,10.4-25.9,13-41.1,8.4
		c-1.9-0.6-4.1-1.4-5.2-2.8c-3.2-4.2-6.9-3.6-10.9-1.9c-1.2,0.5-2.5,0.8-3.8,1.2c-7,2.2-7.2,2.5-5.5,11c8.6,0,17.4-0.2,26.1,0
		c18,0.5,35.4,3.8,51.3,12.9c5.9,3.4,6,4.3,0.4,8.6c-8.6,6.6-18.5,11-29.2,12.2c-8,0.9-13.1,5.2-18.1,10.4c3.9,4.2,8.1,6.9,14.3,5.6
		c3.4-0.7,7.3,0,10.9,0.7c9.5,1.9,16.3,8,16.9,14.8c0.7,6.6-4.5,13.9-13.3,17.6c-5.3,2.2-11.1,3.3-16.8,4.9c0.1,0.3,0.3,1.1,0.7,1.8
		c8.9,17.5,10.8,36.2,9.5,55.5c-0.3,5.2-1.4,5.9-5.1,3.6c-18.9-11.4-35.4-25.5-47.6-44.1c-0.8-1.3-1.8-2.5-2.7-3.7
		c-0.9,1.7-0.7,2.9-0.7,4.2c0.4,8.6,0.8,17.3,1,25.9c0.1,4.7-2.5,6.8-7,5.8c-6-1.2-11.9-2.7-19.3-4.4c-1.2,7.6-2.4,15.4-3.7,23.5
		c1.5-0.4,2.4-0.7,3.4-1c17.1-6.2,34.7-7.8,52.7-6.8c1.4,0.1,2.8,0.8,4.1,1.2c-0.5,1.5-0.6,3.2-1.5,4.4c-4,5.5-8.1,11-12.5,16.2
		c-2.3,2.6-2.4,4.4-1,7.7c3.1,7.3,5.6,14.9,7.7,22.6c1,3.7,0.7,7.9,0.9,11.9C407.6,288.3,410,288.3,413,288.3z M378.5,210.5
		c-0.8-11.4-1.2-21.1-2.2-30.8c-0.4-3.8,0.6-5.3,4-6.6c6-2.3,12.1-4.8,17.6-8.1c8-4.7,8.1-7.1,1.8-14c-2.2-2.4-4.6-4.4-7.9-7.4
		c10.7-3,19.5-6.9,26.5-15.7c-5-2.8-9.4-6.2-14.3-7.7c-8.1-2.4-16.5-4-24.8-5.1c-4.3-0.6-5.6-1.7-5.2-6.1c0.9-10.9-0.7-21.6-4.1-32
		c-0.9-2.8-2.3-3.9-5.1-3c-5.3,1.8-10.8,3.3-15.9,5.6c-5.6,2.5-5.3,2.8-8-3c-1.4-3.1-3.1-6.1-5.5-10.6c-6.7,7.3-13.6,12.9-17.9,20.1
		c-4.4,7.3-8.9,8.5-16.9,7.6c-10.5-1.3-21.4-0.2-32.9-0.1c1.7,6.8,2.7,12.2,4.4,17.4c1.3,3.9,0.4,6.6-1.7,10
		c-5.2,8.6-9.6,17.8-14.2,26.8c-1.7,3.3-0.8,5.4,3.2,5.7c5.8,0.5,11.6,1.4,17.4,1.6c7.3,0.3,7.6,0.7,4.7,7.4
		c-3.4,7.8-6.4,15.9-9.9,24.9c8.6-0.8,16.3-2.4,17.2,8.6c5.9-5.7,11.3-10.9,17.7-17.1c1.9,8.3,3.5,15,5.2,21.9c3.7-2,7.2-4.2,11-5.9
		c9.7-4.5,10.5-4,10.9,6.5c0,0.7,0.1,1.3,0.1,2c-0.3,7.2,4,11.5,9.8,15.6c2.8-3.5,5.9-6.4,7.9-9.9c2.4-4.1,4.3-5.6,9.3-3.3
		C365.6,208.2,371.4,208.8,378.5,210.5z M159.6,250.2c4.3,2.6,8.6,5.3,13.2,8.1c1.3-1.8,2.4-3.6,3.8-5.2c1.5-1.8,3-3.6,4.8-5.1
		c7.3-6.1,9.6-5.6,13.4,3c1.6,3.7,2.8,7.5,4.2,11.5c3.5-4.1,6.7-7.7,9.9-11.3c2.9-3.3,6.3-3.5,9.8-1.3c2.5,1.6,4.9,3.3,7.4,5
		c-2.5-6-4.9-11.9-7.4-17.7c-1.9-4.2-0.3-6.3,3.8-7.1c5.3-1,10.7-1.8,16-2.8c-1.3-5.7-2.7-11.5-4.1-17.2c-1.2-4.6,0.7-6.4,5.2-6.7
		c11.5-0.8,22.7,0.6,33.3,4.9c5.5,2.3,8,1.3,10.8-3.8c2.5-4.4,2.5-8.2,0.4-12.2c-2.1-3.9-5.9-2-9-1.6c-6.6,0.7-7.3,0.2-5.4-6.2
		c2.5-8.5,5.6-16.9,8.5-25.3c-6.3-0.7-12.7-1.2-19.1-2.3c-7.6-1.3-8.5-2.8-6.1-10.1c1.9-5.9,4.4-11.6,6.9-17.9
		c-15,2.5-28,8.6-40.1,16.9c-4.6,3.2-5,3-5.9-2.6c-1.7-10.6-4.6-20.7-11.3-30.6c-2.5,3.4-4.8,6.2-6.6,9.3c-2,3.3-3.7,3.5-6.7,1.1
		c-3.4-2.7-7.3-4.8-11.9-7.8c-1.5,6-3.2,10.5-3.8,15.2c-1,7.4-1.3,14.9-1.7,22.4c-0.2,3.6-1.4,5-4.9,3.6c-1.7-0.6-3.5-1.3-5.2-1.6
		c-8.9-1.8-17.7-3.6-26.6-5.3c-0.4,0.5-0.9,1.1-1.3,1.6c0.8,4.5,1.6,9,2.5,13.4c0.8,3.7,0.1,5.2-4.2,4.7c-4.2-0.5-8.6-0.1-12.9,0.2
		c-1.1,0.1-2.6,1-3.1,2c-1.6,3,2.1,12.3,4.9,14.3c3.5,2.5,7.4,5,9.6,8.5c4.5,7,7.8,14.6,11.9,21.9c0.9,1.6,2.8,3.5,4.3,3.6
		c12,0.7,22,5.9,31.3,13c3.2,2.4,2.8,4.1-0.1,6C172,242.6,165.9,246.3,159.6,250.2z M147.8,318.7c1.2-10.5,1.3-19.5-1.4-28.2
		c-1.1-3.6-0.2-4.9,3-6.3c9.5-4.1,17.4-10.1,23.3-18.7c-4-7.3-10.8-10-17.6-12.9c-1.2-0.5-2.1-1.7-3.2-2.6c1.1-0.9,2.1-2,3.3-2.7
		c1.1-0.7,2.5-0.9,3.7-1.5c5.7-3,11.4-6.1,17.5-9.4c-9.7-8.4-18.8-12.4-30-12.9c-4.1-0.2-5.6-1.8-7.1-5.4
		c-2.6-6.5-5.3-13.1-9.2-18.8c-8-11.6-9.8-13.2-23.1-2.5c-1.9,1.6-3,4.3-4.4,6.4c-0.6-0.4-1.3-0.9-1.9-1.3
		c-3.5-5.7-7.1-11.4-10.9-17.6c-7,6.4-13.1,12.5-15.6,21.2c-0.9,3-2.2,3.8-5.3,3.6c-6.8-0.4-13.6-0.1-20.5-0.3
		c-4.3-0.1-5.8,1.6-4.6,5.7c1.3,4.6,2.6,9.2,3.9,14.1c-4.6,0.3-8.9,0.4-13.1,0.8c-3.2,0.3-4.4,1.8-3.4,5.4
		c3,10.8,8.6,19.8,16.7,27.4c3.1,2.9,2.8,5,0.4,7.9c-2.8,3.3-5.5,6.7-7.7,10.4c-4.1,6.7-6.7,14-6.2,23.5c8.6-1.1,16.6-2.1,25.3-3.1
		c0.3,8.2,0.9,17,6.1,25.2c2.6-1.3,5.4-2.1,7.5-3.8c5-4.1,10-8.3,14.4-13c2.9-3,4.4-3,6.9,0.2c7.3,9.1,16,16.5,26.3,21.9
		c1.5,0.8,3.1,1.4,5.6,2.4c0-6.1,0.2-11.2,0-16.3c-0.2-4.8,0.4-5.2,5-3.7C136.5,315.8,141.8,317,147.8,318.7z M51.9,342
		c-7.8,0-15.8,0-24.3,0c0,6.2,0.2,12.1-0.1,18.1c-0.1,2.9,0.9,4.5,3.5,5.7c10.9,5,21.6,10.5,32.6,15.3
		c89.8,39.2,184.1,54.4,281.7,52.1c0.6,0,1.1-0.2,1.8-0.4c-4.9-3.8-9.8-7-14-11c-4.3-4.1-7.8-8.9-11.7-13.6
		c-1.6,1.3-3.1,2.6-4.6,3.9c-8.3,6.9-17.9,10.7-28.7,11.8c-4.7,0.5-7.4-0.7-7.6-5.8c-0.2-4.1-0.5-8.2-0.8-12.1
		c-5.1,0.8-10.3,1.5-15.5,2.5c-3.7,0.7-4.6-0.8-3.7-4.1c2.6-10,5.2-20.1,8-30.6c-3.3-2.2-7.7-5-12.2-7.9c-2,12-2.2,12.5-13.1,7.6
		c-7.9-3.5-15.1-8.6-22.6-13c-1.2,3.4-2.2,8.1-4.3,12.1c-3.1,5.8-6.5,11.6-10.7,16.6c-3.7,4.5-6.5,4.1-10.5,0c-2.2-2.2-4-4.8-6-7.3
		c-2.4,3.5-4.7,7.1-7.2,10.6c-2,2.8-3.7,3.2-6-0.1c-7.4-10.3-12.5-21.6-14.3-34.2c-0.2-1.4-0.6-2.7-1-4.5
		c-9.7,5.8-19.7,8.4-30.3,9.5c-3.5,0.3-5.2-0.9-5.3-4.1c-0.2-5.8-0.3-11.6,0.1-17.4c0.2-2.7,0-4.2-2.7-5.4
		c-11.1-5-20.3-12.6-28.4-21.6c-0.9-1-2-1.9-4.3-4.1c0,4.5-0.2,7.5,0,10.5c1.2,19.5-3.8,36.9-17.4,51.5c-5.8,6.3-7.6,6.2-10.6-1.6
		C58,361.4,55.1,351.5,51.9,342z M409,347c-4.7-1.1-8.8-2.2-13-2.9c-3.5-0.5-4.4-1.8-2.4-4.9c2.1-3.3,4-6.7,6.2-10.4
		c-9.1-4.1-17.6-7-26.8-6.8c-4.2,0.1-6.1-1.3-7.4-5.4c-3.5-11.7-10.4-21.3-20.1-29.9c-1.5,3.3-3.4,5.9-3.9,8.7
		c-0.7,3.9-1.8,6.5-6.3,5.3c-0.7,4.3-1.4,8.3-2,12.2c-0.5,3.5-1.9,5.3-5.9,4.7c-4.7-0.7-9.5-0.8-14-1.1c-2,5.5-4,10.7-6,16
		c-1.2,3.2-3.1,4-6.1,2c-6.6-4.4-13.2-8.6-20.6-13.4c0.9,4,1.7,7.9,2.7,11.6c0.9,3.3,0.3,5.1-3.5,5.4c-10.2,0.8-18.1,6.2-25.4,12.7
		c-1.8,1.7-2.4,2.9-0.8,5.4c3.9,6.5,9.5,10.8,16,13.9c4.6,2.2,5.3,4.1,2.5,8.5c-4.9,7.8-7.5,16.5-7.7,26.9c5.3-1.4,9.9-2.6,14.5-3.7
		c1.6-0.4,3.4-0.4,5.1-0.6c0,1.6,0,3.2,0,4.8c0,4.7,0,9.4,0,14.4c14.3-0.1,25.3-5.3,34.4-14.6c3.1-3.2,4.6-3.3,6.9,0.8
		c5.1,9,12.3,16,21.3,21.3c3,1.8,5,1.4,6.3-1.7c1.7-4.1,3.5-8.3,4.7-12.6c1-3.7,2.2-4.7,5.9-3c6.9,3.3,14.3,4,22.3,2.6
		c-0.9-1.7-1.5-3.1-2.3-4.3c-2.1-3.2-1.6-4.9,2.5-5.1c2.2-0.1,4.5-0.4,7-0.6c-2.4-10.1-4.7-19.5-11.6-26.9c-2.8-3-2.3-5.2,1.6-6.7
		C394,365.3,401.9,357.4,409,347z M331,196.5c-0.6-0.4-1.2-0.8-1.7-1.2c-5.6,3.4-11.3,6.7-16.9,10.1c-1.2,0.7-2.3,1.5-3.4,2.3
		c-0.4-1.3-1-2.7-1.2-4c-0.9-5.8-1.7-11.5-2.7-18.2c-9.7,8.1-16.6,16.6-21.7,26.4c-1.7,3.1-2.9,3.5-6.1,2c-4.3-2-9-3.4-13.7-4.7
		c-8.4-2.3-16.9-3-26.7-1.5c1.9,6.5,3.5,12.6,5.6,18.5c1.8,5.2,1.4,5.6-4,5.7c-5.6,0.2-11.3,1-17.3,1.6c4,13.3,10,23.8,18.7,32.6
		c4.5,4.6,4.5,4.6-0.3,8.5c-9.4,7.6-16.3,16.9-20.9,28.5c7,2.5,14,2.4,20.9,1.1c3.4-0.6,4,0.3,3.7,3.6c-0.3,4.1,0,8.3,0.4,12.4
		c0.3,3.1,2.1,4.4,5.6,3.7c9.2-1.7,17.8-4.6,25.4-9.9c3.1-2.2,5-2.1,7.4,1.1c5.6,7.4,13.2,12.5,22.4,17c1.8-5.5,3.7-10.4,4.8-15.5
		c0.8-3.8,2-5.1,6-3.9c3.5,1,7.2,1,10.9,1.5c2.7,0.4,4.2-0.9,4.3-3.5c0.3-6.3,0.6-12.6,0.4-18.9c-0.1-3.3,0.6-5.2,3.5-6.9
		c5.1-3.1,10.4-6.1,14.8-10.1c10.8-9.9,12.9-9.3-1.6-19c-3.5-2.3-3.3-3.6-0.2-5.7c3.7-2.5,7.3-5,11.6-8c-9.1-4-18.1-6.3-27.4-6.9
		c-3.6-0.2-4.3-1.5-3.9-5C329,218.9,329.9,207.7,331,196.5z M220,350.7c7.9,12.8,18.8,18.5,31.4,21.9c1.8-6,1.4-11.2-1.8-15.8
		c-2-3-1.4-4.9,1-7.2c8.3-7.8,17.5-13.8,28.8-15.2c-0.8-6-1.6-11.5-2.4-17.3c-0.9,0.5-1.9,0.9-2.9,1.5c-8.3,5-17.2,7.7-26.7,9.2
		c-3.5,0.5-5.6-0.3-6.3-3.7c-1.1-5.1-1.9-10.3-2.9-15.4c-8.4-2.9-16.8,5.8-26.9,0.7c2.3-1.2,3.5-1.9,4.3-2.3c-0.2-2.5-0.3-4.9-0.4-7
		c-1.7,1.2-3.5,2.4-6.4,4.4c1.4-9.1,9.2-10.1,12.9-15c4.1-5.4,8.4-10.7,13.4-17c-5-5.7-10.2-11.9-15.8-17.7
		c-3.1-3.3-6.7-3.3-9.7,0.8c-2.9,3.9-5.9,7.7-8.9,11.4c-1,1.2-2.3,2-3.5,3c-0.6-1.4-1.4-2.8-1.9-4.3c-1.9-5.9-3.7-11.8-5.9-19.1
		c-3.8,3.1-6.6,4.7-8.5,7.1c-2.2,2.8-4.9,6.2-4.9,9.3c0,3.2-0.5,5.6-2.5,7.5c-5.3,4.8-10.7,9.4-16.3,13.8c-2.3,1.8-5.1,2.9-6.5,3.7
		c0.3,10,0.6,18.9,0.9,27.8c0.1,4.6-2.3,6.4-6.6,5.6c-4.9-0.8-9.7-1.9-15.3-3c2.5,13.9-4.4,27.3-1.1,41.5
		c11.4-0.7,21.7-3.3,30.8-9.7c3.2-2.2,4.8-2,4.9,2.3c0.1,2.8,0.5,5.6,1,8.4c2.1,10.9,6.3,20.8,13.6,29.9c1.7-2.4,3-4.3,4.3-6.3
		c1.7-2.7,3.4-5.5,5.1-8.2c2.1,2.5,4.3,5,6.3,7.6c4.6,6,7.3,6.6,11,0.1c4.8-8.3,7.9-17.4,11.7-26.2C218.4,355.9,218.9,354,220,350.7
		z M132,164.9c-0.4-4.6-0.8-9.4-1.2-14.2c-0.2-3,1.1-4.2,4.2-3.8c5.8,0.8,11.6,1.3,17.3,2.1c5.7,0.8,15.1-2.8,16.2-6.5
		c2-6.2-0.4-11.5-7.3-15.7c-2.7-1.6-5.8-2.4-8.6-3.9c-1.4-0.8-2.4-2.3-3.6-3.5c1.1-1,2.2-2.2,3.4-3.1c4.4-3,8.9-6,14.3-9.6
		c-2.5-1-3.4-1.7-4.3-1.7c-6.9-0.6-13.9-1.5-20.8-1.3c-4.1,0.1-5.5-0.9-5.6-4.7c0-1.2-0.1-2.3-0.3-3.5c-1.4-8.8-3.7-17.2-10.2-24
		c-3.1-3.3-5.9-4-9.1-0.3c-2.4,2.8-4.7,5.6-7.1,8.3c-0.9,1-2.2,1.7-3.3,2.5c-0.6-1.1-1.2-2.2-1.6-3.4c-1.3-3.8-2.5-7.7-3.8-12
		c-8.5,6-13.3,13.4-15.6,22.4c-1.4,5.5-1.8,5.7-6.6,2.9c-8.3-4.8-17.3-6.7-26.8-6.9c-3.6-0.1-5,1.3-4.5,4.6
		c0.9,6.4,1.7,12.9,3.1,19.2c0.8,3.9,0.3,5.3-4.1,5.4c-4.6,0-9.3,0.8-13.8,2c-5.3,1.4-6.8,6.1-3.6,10.7c1.4,2,3,4.2,5,5.6
		c5.6,3.8,11.5,7.3,17.4,10.7c4.3,2.5,4.6,3.7,1,6.8c-11.3,9.8-11.8,23.2-12.3,37c4.7-3.1,8.8-6.6,12.9-10.2
		c1.4-1.2,2.9-2.3,4.4-3.5c0.8,1.7,1.8,3.4,2.3,5.2c2.1,8.4,5.7,15.7,11.7,21c5.4-6,10.4-11.5,15.4-17.1c2.4-2.7,4.5-2.3,6.3,0.6
		c2.8,4.5,5.7,8.9,8.4,13.2c4.9-3.4,9.5-6.6,13.9-9.7c-0.9-4.4-2.1-8.9-2.8-13.5c-0.6-3.7,1.2-6.2,5-6.7
		C122.4,165.7,127.3,165.4,132,164.9z M27.7,680.5c0,16.9,0.5,32.7-0.2,48.5c-0.5,11.7,15.5,27.3,27.2,27.2
		c60.1-0.3,120.3-0.2,180.4-0.2c1.6,0,3.2,0,4.8,0C164.9,743.3,95.1,716.9,27.7,680.5z M191.4,120.3c4.8-4.9,9.7-8.8,13.1-13.8
		c10.1-14.8,24.5-24.8,38.4-35.3c2.3-1.8,3.7-0.9,4.1,1.8c0.2,1.5,0.3,3,0.4,4.5c0.9,17.8,1,35.6-7.4,52.8c6-1.6,11.2-3.1,16.5-4.3
		c10.5-2.3,13.7-7.5,11.1-17.9c-0.7-2.7-1.4-5.5-2-8.3c-2.1-8.9-2.1-8.9,7.3-9.6c2.4-0.2,4.7-0.5,8-0.8c-2.4-2.8-4-4.6-5.6-6.5
		c-13.1-15.6-23.8-32.5-29.4-52.3c-2.1-7.3-1.1-8.2,6.5-6.7c14.8,3,28.7,8.1,41.3,15.1c4.6-5.9,9-11.3,13.3-16.8
		c-34.1,0-68.4,0-102.7,0.1c-1,0-2.5,0.9-3.1,1.8c-2.9,4.6-5.5,9.3-8,13.6c4.4,2.5,9,4.8,13.3,7.4c2.5,1.5,3.1,4,1.3,6.5
		c-3.2,4.6-6.4,9.1-9.8,13.9c0.8,0.2,2.4,0.5,3.9,1.2c7.2,3.4,14.4,6.8,21.5,10.4c2.7,1.4,3.5,3.5,0.9,6
		c-11.8,10.6-24.4,19.7-40.1,23.6c-2.5,0.6-5.1,1.1-8.2,1.7C179.4,115.6,187.8,115,191.4,120.3z M345.6,282
		c11.2,9.4,19,20.2,23.6,33.2c0.5,1.3,2.2,2.6,3.6,3c9.1,2.4,18.3,4.7,27.4,6.8c3.8,0.9,3.8,3,2.3,5.9c-1.6,3-3.2,6-4.8,9.3
		c3.4,1,6.5,1.7,9.4,2.9c2.8,1.1,7.2,0.7,5.8,5.9c13-1.4,24.5-6.7,29.9-13.8c-3.2-5.3-8.3-8.3-13.8-10.8c-5.6-2.7-5.5-4.2-0.8-8.1
		c5.5-4.6,10.5-9.7,16-14.8c-10.9-7-21.8-9.6-38.1-9.1c-3.9,0.1-5.6-0.8-5.2-5c0.3-3,0.1-6-0.2-9c-1.1-9.1-3.7-17.7-8.8-24.9
		c-7.5,5.8-14.2,11.9-21.8,16.6C362.7,274.7,354.3,277.9,345.6,282z M110.2,45.3c-3.5-6.9-6.4-12.7-9.6-19.1
		c-7.1,6.5-11,13.6-13.8,21.3c-1.6,4.4-3.4,5.1-7.6,3.4c-7.4-3.1-15.3-4-24.1-3.4c0.8,4.4,1.3,8.1,2.3,11.8c0.7,2.6,2,5,3,7.5
		c-2.9,0.7-5.7,1.2-8.6,2c-14.9,3.8-13.4,4.6-9.1,16.4c0.1,0.3,0.4,0.4,0.7,0.6c-0.1-0.5-0.3-0.9-0.4-1.4c2.5-0.9,4.9-2.4,7.4-2.5
		c10.8-0.5,21.1,1.9,30.8,7.6c0.7-2,1.2-3.5,1.7-5c2.8-8.1,7.8-14.6,14.6-19.8c3-2.3,5.1-2,6.5,1.6c1.2,3,2.5,5.9,3.7,8.7
		c2.8-2.6,5.1-5,7.6-7.2c4.9-4.2,6.6-4.1,11.6,0.2c5.7,5,8.9,11.6,10.7,18.8c1.1,4.3,1.8,8.7,2.8,13.4c11.5-1.6,21.8-4.6,29.2-15.3
		c-3-1.8-5.3-3.2-7.7-4.7c-1.2-0.8-2.2-1.7-3.3-2.6c1.1-1.3,2-2.9,3.3-3.9c2.6-1.9,5.4-3.5,8.1-5.2c-0.1-0.6-0.1-1.2-0.2-1.8
		c-5.4-1.3-10.7-2.9-16.1-3.9c-3.8-0.7-9.2,0.9-11.4-1.2c-2.5-2.3-2.2-7.7-3.4-11.6c-2.4-8.6-6-16.5-12.4-22.8
		C118.3,30.6,115.1,38.4,110.2,45.3z M249,27.3c0.1,0.8,0.1,1.3,0.2,1.8c6.4,22.9,19.5,41.7,35.4,58.9c0.9,0.9,2.6,1.3,4,1.4
		c6,0.5,12,0.8,17.9,1c1.3,0,3.3-0.1,4-1c4.9-6.1,9.5-12.3,14.2-18.6C312,50.7,275.1,29.3,249,27.3z M145.1,58.5
		c13.4,1.6,26.7,3,40,5c5.8,0.9,10.3-1.1,13.9-5c8.5-9.4,7.8-11.5-3.6-15.6c-1.2-0.4-2.6-0.7-3.9-1c-4.8-1.1-5.1-2.2-2-6.3
		c3-4.1,5.8-8.3,9.1-13.1c-33.1,0-65,0-96.7,0c3.1,5,6.1,9.6,7.9,12.5c4-3.1,7.9-6.4,12.1-9.5c3.5-2.6,6.9-2.7,9.4,1.3
		c2.9,4.6,6.1,9.2,8.3,14.1C141.8,46.5,143.1,52.4,145.1,58.5z M345.1,76.5c7-2.2,13.5-4.2,20-6.1c4-1.2,6.7-0.1,7.8,4.4
		c1.1,5,3,9.9,3.7,15c1,7,1.2,14.2,1.7,20.6c8.8,2,17.7,3.2,25.9,6.1c5.7,2.1,8.9,0.2,13.2-3.6c-3.1-3.3-6-6.4-9-9.4
		c-1.2-1.3-2.5-2.4-3.7-3.7c1.6-1.1,3.1-2.1,4.7-3.2c3-2,6-4,9.9-6.6c-3.5-2-5.5-3.8-7.8-4.4c-8.6-2.2-17.3-4.4-26.1-5.8
		c-4.5-0.7-6.4-2.1-6.1-6.9c0.6-8.5-1-16.8-4.9-25.7c-4.6,3.6-8.8,6.7-12.7,10.2c-2.6,2.3-3.9,2.4-5.4-1c-1.6-3.4-3.9-6.5-5.9-9.8
		c-0.6,0-1.3,0.1-1.9,0.1c-3,4.7-6.2,9.3-8.9,14.2c-0.7,1.2-0.8,3.3-0.2,4.6C341,69.3,343.2,73,345.1,76.5z M97.7,22.2
		c-14.8,0-30.1,0-45.4,0c-0.9,0-1.9,0.3-2.8,0.6C31.9,29.5,25.7,42.2,27.8,59c0.5,4.2,8.1,10.4,12.2,9.5c5.1-1,10-3,14.5-4.5
		c-0.9-4.9-2-9.3-2.5-13.7c-0.6-5.5,0.4-6.9,5.9-6.5c8.2,0.6,16.3,2,24.1,3C87.1,38.9,92.4,30.6,97.7,22.2z M64.5,385.7
		c0,9.6-0.1,18.7,0.1,27.8c0,0.9,1.8,2.2,3,2.7c16.5,5.7,33.1,11.3,49.6,16.8c1.3,0.4,2.8,0.6,4.6,1c0-8-0.2-15.4,0.1-22.9
		c0.2-3.6-1.3-4.8-4.4-5.9c-16.1-5.8-32.2-11.9-48.2-17.8C68,386.9,66.6,386.4,64.5,385.7z M432.6,221.6c1.5-19.8-0.5-37.9-9.4-54.8
		c-0.8-1.6-2.3-3.4-3.9-4c-3.5-1.4-7.3-2.1-10.8-3c-5.5,8.7-14.9,11.7-23.8,16C396.6,195.3,412.9,209.6,432.6,221.6z M384.6,435.1
		c-18.3,0.8-36,1.5-53.8,2.2c0,9.7,0,19.1,0,29.3c18.2-0.6,36-1.1,53.8-1.7C384.6,454.4,384.6,444.9,384.6,435.1z M55,180.7
		c-3.6,2.7-7.9,6-12.4,9c-1.5,1-4.1,1.7-5.4,1.1c-1.1-0.6-1.5-3.4-1.4-5.2c1-14.2,2.9-28.1,13.7-38.4c-7.4-4.8-14.4-9.4-21.5-14.1
		c0,31.4,0,63,0,94.4c5-1,9.8-1.9,14.4-2.8c-0.9-4.9-1.7-9.7-2.8-14.4c-0.7-3.2,0.5-4.3,3.4-4.4c7.6-0.2,15.3-0.5,22.9-0.7
		c1.5,0,3,0,3.8,0C64.6,196.8,59.8,188.6,55,180.7z M423.2,461.4c17.2-2.6,33.8-5.2,50.2-7.7c0-10.3,0-19.8,0-29.5
		c-16.9,2.4-33.4,4.8-50.2,7.3C423.2,441.2,423.2,450.8,423.2,461.4z M218.7,141.9c4.5-2.5,9.6-5.3,14.6-8.1c0.7-0.4,1.3-1,1.7-1.6
		c9.9-17.6,10.1-36.7,8.5-57.7c-9.4,8-17.9,14.8-26,22.2c-3.8,3.4-6.7,7.8-9.8,11.9c-0.8,1.1-1.1,3.3-0.6,4.5
		C210.8,122.6,214.7,132,218.7,141.9z M241.8,432.5c0,9.1,0,18.1,0,27.8c17.4,1.6,34.4,3.2,51.7,4.9c0-10.1,0-19.3,0-28.5
		C276.1,435.2,259.1,433.9,241.8,432.5z M158.2,99.6c10.8,6.2,22.1,5.6,33.6,0.8c11.2-4.7,20.7-11.6,29.9-19.9
		c-0.9-0.9-1.5-1.5-2.1-1.9c-12.7-8.6-27.1-11.3-42.1-12.1c-0.9,0-2,0.4-2.6,1c-3.4,3.2-6.7,6.5-10.1,9.9c0.9,0.6,2,1.2,3.1,2
		c5.6,4,6.1,7.2,1.1,12.1C165.7,94.7,161.7,97.1,158.2,99.6z M387.4,407.6c0.4,1,0.6,1.7,0.9,2.2c3.5,6.4,3.3,7.1-3.7,7.1
		c-7.7,0-15.3-1-22.9-1.6c-2.5,5.4-5.2,11.4-8.3,18.1c25.3-2,50.2-4,75-6c0.1-0.4,0.1-0.9,0.2-1.3c-10.8-6.2-19.7-13.5-17.4-27.8
		c-5.9-3.3-11.6-6.4-18.3-10.1c0.9,3.3,1.5,5.5,2,7.7C397.6,406.1,397.6,406.1,387.4,407.6z M201.6,426.6
		c-15.4-3.3-30.4-6.6-46.1-9.9c0,8.4-0.1,16.6,0.1,24.7c0,1,1.8,2.6,3.1,2.9c7.1,1.8,14.2,3.5,21.4,5c7.1,1.5,14.1,2.9,21.5,4.4
		C201.6,444,201.6,435.3,201.6,426.6z M349.6,252.2c2.5,2,4.2,3.2,5.9,4.6c7.7,6.5,7.8,6.9,2.9,15.3c20.9-9.1,35.2-25.4,48.7-44.2
		c-19.1-1.1-36.6,0.9-54.2,7.7c3.4,1.5,6.1,2.4,8.6,3.7c1.2,0.6,2.4,1.8,2.8,3c0.2,0.5-1.4,2-2.5,2.6
		C358,247.3,354.1,249.5,349.6,252.2z M418.9,67.6c13-0.6,22.7-3.1,30.1-11c5.4-5.8,4.5-12.5-2.1-16.3c-11.8-7-34.7-2.4-42.9,8.6
		c-4.2,5.6-3.2,12,3.1,15.1C411.4,66.1,416.4,66.9,418.9,67.6z M445.7,266.3c-0.8-2.8-1.7-8.4-4.1-13.2c-4.6-9.3-14.1-10.2-20.5-2
		c-8.1,10.4-9.3,22.2-5,34.4c0.5,1.6,2.8,3,4.6,3.5c3.9,1.2,8,2.2,12.1,2.6c1.9,0.2,4.7-0.5,5.8-1.9
		C443.7,283.9,445.1,276.5,445.7,266.3z M424.8,159.5c9-0.1,17.2-2.1,23.9-8.5c5.1-4.9,5.3-10.7,0.9-15.4
		c-7.4-7.7-24.4-8.2-32.3-1.2c-3.1,2.7-6.6,5-10.1,7.2c-4.5,2.7-5.2,5.2-2.1,9.6C409.9,158.2,417.3,159.1,424.8,159.5z M395.1,369.4
		c14.7,10.5,32.3,14.2,51.8,13.6c-2.9-9.9-7-18.7-13.1-26.5c-3.9-5-8-8.1-14.7-5c-2.2,1-4.9,0.8-7.3,1.5c-1.5,0.4-3.2,1-4.2,2.1
		C403.5,359.6,399.5,364.4,395.1,369.4z M66.5,372.9c14.3-11.6,23.2-35.8,18.6-55.2c-1.5,1.2-2.7,2.6-4.2,3.5c-4.5,2.8-9,5.5-13.7,8
		c-2.7,1.5-4.7,0.3-5.8-2.6c-1.3-3.4-2.7-6.7-4.5-11.1C54.2,336.3,57.2,354.8,66.5,372.9z M429,392.2c-5.6,0.3-10.9,1.3-13.6,6.8
		c-2.5,5.3-0.6,10.1,2.7,14.4c5.4,6.9,12.7,10.9,21.4,11.4c5.8,0.3,12.1-0.3,15-6.6c2.9-6.2,0-11.4-4-15.9
		C444.8,396,437.4,392.8,429,392.2z M329.5,67.9c1.5-1.7,3.8-4,5.7-6.6c3.3-4.8,6.3-9.7,9.2-14.7c0.9-1.5,1.7-3.8,1.2-5.3
		c-1.3-3.6-3.3-7-5.7-11.8c-4.2,4.3-7.4,7.6-10.5,10.9c-1.5,1.6-3,3.3-4.5,4.9c-1.3-2.1-2.8-4.2-3.9-6.4c-2.4-4.9-4.7-10-7.1-15.2
		c-7.5,3.6-12.1,8.3-14.7,14.7c-0.5,1.2,0.1,3.6,1,4.5C309.6,51.1,319.1,59.1,329.5,67.9z M419.4,431.8c-10,0.9-19.4,1.7-28.8,2.6
		c-0.8,0.1-2,1.4-2,2.2c-0.1,9.1-0.1,18.2-0.1,27.8c9.8-0.9,18.9-1.7,27.9-2.7c1.1-0.1,2.8-1.6,2.8-2.5
		C419.5,450.3,419.4,441.3,419.4,431.8z M205.7,454.5c10.7,1.7,21.1,3.3,32.1,5.1c0-9,0.1-17.3-0.1-25.5c0-0.9-1.4-2.3-2.3-2.5
		c-9.8-1.5-19.6-2.9-29.7-4.3C205.7,436.3,205.7,445,205.7,454.5z M461.6,94.7c-9.1-8.6-39.5-16.2-51.4-13.9
		c1.6,0.8,2.8,1.5,4.1,2.2c1.3,0.7,2.6,1.4,3.9,2.3c5.6,3.6,5.8,4.5,0.8,9.1c-2.4,2.2-5.2,4-7.7,5.8c4,7.7,10.1,10,18.3,7.2
		c3.6-1.2,7.6-1.5,11-3C447.5,101.5,454.3,98.1,461.6,94.7z M326.7,436.9c-9.9,0-19.3,0-28.8,0c0,9.4,0,18.8,0,28.6
		c9.8,0,19.2,0,28.8,0C326.7,456.2,326.7,446.9,326.7,436.9z M54.2,306.2c-6.3,0.3-12.6,0.5-18.9,0.8c-4.1,0.2-7.4,1.9-7.5,6.3
		c-0.3,8.1-0.1,16.3-0.1,25.8c8.5-0.4,16.6-0.7,24.2-1.1C52.7,326.5,53.4,316.3,54.2,306.2z M60.9,413.8c0-10,0-19-0.1-28.1
		c0-0.8-0.6-2.1-1.3-2.4c-7.6-3.6-15.2-7.1-23.7-11c0,10.4,0,19.9,0.1,29.5c0,0.9,0.9,2.3,1.7,2.6C45.1,407.6,52.6,410.5,60.9,413.8
		z M125.5,408c0,8.8-0.1,17,0.1,25.1c0,0.9,0.8,2.4,1.6,2.7c8,2.4,16.1,4.5,24.7,6.9c0-9,0.1-17-0.1-24.9c0-1-1.4-2.6-2.4-2.9
		C141.7,412.5,134,410.4,125.5,408z M27.9,305.1c0.4,0.1,0.7,0.2,1.1,0.3c1.7-6.8,2.7-13.9,5.4-20.2c2.9-6.7,7.6-12.7,11-18.2
		c-6.1-9.3-12.1-18.4-17.5-26.7C27.9,260.9,27.9,283,27.9,305.1z M45.6,104.1c-0.8-3.2-1.3-6.1-2.3-8.8c-2-5.3-4.1-10.5-6.5-15.5
		c-0.6-1.4-2.5-3-3.8-3c-2.5,0-5.5,0.3-5.4,4.3c0.1,4.8,0,9.6,0.1,14.4c0,1,0.5,2.4,1.3,2.9C33.7,101.9,38.8,104.2,45.6,104.1z
		 M335.7,469.8c9.7,14.4,29,13.8,36.7,0C360.5,469.8,348.4,469.8,335.7,469.8z M249.4,464.7c11.3,13,26.5,14.1,34.7,3.3
		C272.8,466.9,261.7,465.8,249.4,464.7z M434.2,463.4c13.8,9.8,30.7,7,34.7-5.4C457.5,459.8,446.2,461.5,434.2,463.4z M349,218.9
		c-6.3,6.3-10.6,1.3-15.3-3.6c-0.5,3.4-0.8,5.9-1.2,8.3c-0.4,2.4-0.7,4.8-1.1,7.2c14.4,4.6,17.3,2.9,18.1-10.3
		C349.5,220.1,349.3,219.8,349,218.9z M169.9,128.4c1.1-3.7,2.1-7.5,3.5-11.2c1.7-4.4,0.1-7.5-2.8-10c-5.3,4.4-10.3,8.6-15,12.5
		C160.2,122.4,164.9,125.3,169.9,128.4z M107.4,433.8c-11.3-3.8-21.8-7.3-33-11.1C81.5,436.3,94.7,440.8,107.4,433.8z M30.7,402.3
		c0.6-0.3,1.1-0.5,1.7-0.8c0-9.8,0.1-19.5-0.2-29.3c0-1.3-2.4-2.6-3.6-3.9c-0.3,0.3-0.7,0.5-1,0.8c0,1.3,0,2.6,0,4
		c0,8.2-0.2,16.3,0.1,24.5C27.9,399.2,29.7,400.7,30.7,402.3z M166.4,450c7.8,11,18.3,13.2,26.3,6c-0.4-0.3-0.8-0.6-1.2-0.7
		C183.4,453.5,175.3,451.8,166.4,450z M46.6,110c0-0.3,0.1-0.5,0.1-0.8c-6.2-2-12.5-4-18.9-6.1c0,3.4,0,7,0,10.4
		C34.2,112.3,40.4,111.1,46.6,110z M342.2,285.5c-0.2-0.3-0.3-0.5-0.5-0.8c-2.4,1.7-5.4,3-7,5.2c-0.8,1.2,0.9,4.1,1.5,6.2
		c0.4-0.1,0.8-0.2,1.1-0.3C339,292.4,340.6,288.9,342.2,285.5z M28,66.7c0,2.7,0,4.9,0,7.1c2.9-0.5,5.4-1,8.7-1.6
		C33.5,70.2,30.9,68.6,28,66.7z"/>
	<path class="st1" d="M47.2,412.7c6.4,2.3,12.9,4.5,19.2,7c1.4,0.5,2.4,2.2,3.4,3.5c2.1,2.6,3.8,5.5,6,7.9
		c9.4,10.3,20.5,12.5,33,6.3c3.1-1.5,5.7-1.6,9-0.7c12.5,3.6,25.1,6.8,37.5,10.5c2.8,0.8,5.2,3,7.6,4.9c1.7,1.3,2.9,3.2,4.4,4.7
		c8.8,8.3,18,8.9,28.2,2.5c2.1-1.3,5.2-2.1,7.7-1.7c12.2,1.6,24.4,3.6,36.5,5.7c2.4,0.4,5,1.8,6.6,3.6c13.1,14.8,26,16.1,41.5,4
		c1.7-1.3,4.1-2.4,6.2-2.3c10.8,0.2,21.7,0.6,32.5,1.3c2.2,0.1,4.8,1.3,6.3,2.9c13.3,14.4,27.1,15.3,41.1,1.5
		c4.4-4.3,8.7-6.1,14.8-6.4c11.6-0.6,23.2-2.2,34.8-3c2.6-0.2,5.4,0.7,7.9,1.6c5,1.8,9.7,4.5,14.8,5.9c9.2,2.4,17.1-0.4,23.4-7.5
		c1.2-1.3,2.3-2.7,3.9-4.7c0,68.8,0,136.8,0,205.3c-16.4,1.3-32.7,2.7-48.9,3.7c-54,3.2-107.9,2.5-161.7-3.8
		c-82.1-9.7-160.3-31.9-232.3-73.5c-1.2-0.7-2.6-2.6-2.6-3.9c-0.1-60.5-0.1-121-0.1-181.5c0-0.5,0.2-0.9,0.5-2.1
		c6.5,2.9,12.8,5.7,19.1,8.5c-3.1-0.1-6.2-0.2-9.3-0.5c-5.1-0.4-8,1.9-8,7c0,8.8-0.2,17.6,0.7,26.3c0.9,8.3,4.8,11.7,13.1,12.8
		c3.8,0.5,7.6,0.3,11.4,0.2c3.4-0.1,5.4-1.9,6.4-5.2c2.9-8.9,3.1-18,1.8-27.1c-0.2-1.5-1.4-3.1-2.6-4
		C56.4,419,51.8,415.9,47.2,412.7z M381.3,492c0.8,5.5,1.5,11.3,2.5,17c0.2,1.2,1.5,2.9,2.5,3.1c9.7,2.1,19.4,3.1,29.1,0
		c3.6-1.1,5.9-3.2,5.9-7c0-9.8,0.1-19.6-0.3-29.3c-0.1-1.4-2.1-3.4-3.6-3.8c-9.8-2.7-19.7-3.5-29.5-0.4c-1.8,0.6-3.9,2.6-4.3,4.4
		C382.5,481,382.1,486.3,381.3,492z M329.1,494c-0.4-2.6-1-6.9-1.5-11.2c-0.6-4.8-3-8.3-8-8.7c-6.9-0.5-13.8-0.9-20.6-0.6
		c-5.1,0.2-8.5,3.3-8.7,8.9c-0.2,5.5-1.3,11-0.5,16.3c2.4,16.3,1.3,16,18.4,17C327.8,516.8,328.2,513.6,329.1,494z M214.9,460.6
		c-0.1,0.4-0.2,0.8-0.4,1.2c-3.5,0.3-7,0.3-10.4,1.1c-1.5,0.4-3.8,2.3-3.8,3.5c-0.1,10.1,0.3,20.2,0.7,30.3c0,1,1.2,2.7,2.1,3
		c9.2,3,18.4,5.8,28.3,2.9c4.1-1.2,7.2-3.2,7.3-7.6c0.2-8.4,0-16.9-0.3-25.3c0-1.2-1.8-3-3.2-3.4
		C228.5,464.2,221.7,462.5,214.9,460.6z M120.5,461.4c-0.2,0-0.5,0.1-0.7,0.1c1.1,6.6,2,13.1,3.3,19.6c0.3,1.4,1.3,3.4,2.5,3.9
		c7.2,3.2,14.8,5.1,22.8,3.9c3.2-0.5,5.4-1.8,5.6-5.2c0.5-7,1.5-13.9,1.2-20.9c-0.3-8.9-4.8-13.8-13.4-16.2
		c-2.8-0.8-5.9-1.2-8.9-1.2c-10.9,0.1-11.9,1.2-12.4,11.9C120.4,458.8,120.5,460.1,120.5,461.4z"/>
	<path class="st2" d="M27.7,594.7c2.1,1.1,3.4,1.7,4.7,2.4c61.2,34.6,127,55.6,196.2,66.9c71.3,11.7,142.9,12.7,214.8,7.3
		c9.9-0.7,19.8-1.6,30.3-2.4c0,4,0,7.7,0,11.3c0,16.3-0.4,32.7,0.1,49c0.4,11.7-15.6,27.3-27.3,27.2c-55.5-0.4-111,0.2-166.5-0.3
		c-25.7-0.2-51-5.6-76-11.3c-60.9-13.7-118.2-36.8-172.9-66.5c-1.5-0.8-3.3-3.1-3.3-4.7C27.6,647.6,27.7,621.6,27.7,594.7z"/>
	<path class="st3" d="M413,288.3c-3,0-5.4,0-8,0c-0.3-4,0.1-8.1-0.9-11.9c-2.1-7.7-4.5-15.3-7.7-22.6c-1.4-3.3-1.3-5.1,1-7.7
		c4.4-5.2,8.5-10.7,12.5-16.2c0.9-1.2,1-2.9,1.5-4.4c-1.4-0.4-2.7-1.1-4.1-1.2c-18-1-35.6,0.6-52.7,6.8c-0.9,0.3-1.9,0.6-3.4,1
		c1.3-8.2,2.5-15.9,3.7-23.5c7.4,1.7,13.3,3.1,19.3,4.4c4.6,0.9,7.2-1.1,7-5.8c-0.2-8.6-0.7-17.3-1-25.9c-0.1-1.2-0.2-2.5,0.7-4.2
		c0.9,1.2,1.8,2.5,2.7,3.7c12.2,18.6,28.7,32.7,47.6,44.1c3.8,2.3,4.8,1.6,5.1-3.6c1.3-19.2-0.6-38-9.5-55.5
		c-0.4-0.7-0.5-1.5-0.7-1.8c5.8-1.6,11.5-2.7,16.8-4.9c8.9-3.7,14-11,13.3-17.6c-0.7-6.8-7.4-12.9-16.9-14.8
		c-3.6-0.7-7.4-1.4-10.9-0.7c-6.3,1.3-10.5-1.3-14.3-5.6c5-5.2,10.1-9.5,18.1-10.4c10.7-1.2,20.5-5.6,29.2-12.2
		c5.5-4.2,5.5-5.2-0.4-8.6c-15.9-9.1-33.3-12.4-51.3-12.9c-8.7-0.2-17.5,0-26.1,0c-1.7-8.5-1.6-8.8,5.5-11c1.3-0.4,2.6-0.7,3.8-1.2
		c4-1.7,7.7-2.4,10.9,1.9c1.1,1.4,3.3,2.2,5.2,2.8c15.2,4.6,29.2,2,41.1-8.4c9.8-8.5,7.5-20.5-4.7-24.7c-15.2-5.2-29.5-2.3-41.4,8.4
		c-3.1,2.8-4,8-6.1,12c-0.7,1.4-1.7,3.1-3,3.6c-3.7,1.5-7.6,2.5-11.8,3.8c-1.5-5.2-3-10.2-4.3-15.3c-1.1-4.4-3.5-5.4-7.2-2.9
		c-4,2.7-8,5.3-12.6,8.5c-4.6-7.4-9.2-14.9-14-22.4c-3.4-5.2-4.3-5.4-9.5-2c-1.9,1.3-3.7,2.8-5.3,4.5c-1.6,1.6-3,3.5-4.6,5.5
		c-2.7-5.7-5.3-11.1-8-16.9c0.9-0.1,2.1-0.4,3.3-0.4c42.3,0,84.7,0,127,0c11.4,0,25.9,14.3,25.9,25.6c0,123.3,0,246.6,0,370
		c0,0.7-0.1,1.3-0.2,2.5c-5.4,0.9-10.9,1.8-15.5,2.6c0-5.2,0.9-10.3-0.2-15c-1.5-6.4-6.6-10.6-12.1-14.1c-11-7-23.2-6.6-32.8,1.6
		c-9.7-6.8-22.9-9-28.5-22.3c1.7-0.8,3.7-1.8,5.8-2.9c16.6,12.5,35.6,16.9,56,16.4c5.5-0.1,5.7-0.3,3.9-5.7
		c-3.9-12.1-9.3-23.5-18.8-32.1c4.7-3.4,9.1-6.6,13.6-9.7c3-2,3-4.4,0.6-6.6c-4.9-4.4-10-8.5-13.6-11.6c3.8-4.5,8.2-9.7,12.5-14.9
		c5-6.1,5-6.1-1.8-10c-0.7-0.4-1.4-0.8-2.6-1.5c7.4-9.3,10.1-19.9,8.5-31.4c-0.6-4.2-2-8.5-4-12.2c-5.9-10.7-17.7-11.9-25.5-2.5
		c-8.5,10.1-9.9,21.9-7.5,34.4C411.8,284.4,412.3,286,413,288.3z"/>
	<path class="st4" d="M378.5,210.5c-7.1-1.8-12.9-2.4-17.8-4.7c-5-2.4-6.9-0.8-9.3,3.3c-2,3.5-5.1,6.5-7.9,9.9
		c-5.8-4.1-10.1-8.3-9.8-15.6c0-0.7,0-1.3-0.1-2c-0.4-10.5-1.2-11-10.9-6.5c-3.7,1.7-7.2,3.9-11,5.9c-1.6-7-3.2-13.7-5.2-21.9
		c-6.4,6.2-11.8,11.4-17.7,17.1c-0.9-11.1-8.6-9.5-17.2-8.6c3.5-9,6.5-17,9.9-24.9c2.9-6.6,2.6-7.1-4.7-7.4
		c-5.8-0.2-11.6-1.1-17.4-1.6c-4-0.4-4.9-2.5-3.2-5.7c4.6-9,9-18.1,14.2-26.8c2.1-3.5,3-6.2,1.7-10c-1.7-5.2-2.7-10.6-4.4-17.4
		c11.6-0.1,22.4-1.1,32.9,0.1c8,1,12.5-0.3,16.9-7.6c4.4-7.2,11.3-12.8,17.9-20.1c2.3,4.5,4,7.5,5.5,10.6c2.6,5.8,2.4,5.5,8,3
		c5.1-2.3,10.6-3.8,15.9-5.6c2.8-0.9,4.2,0.2,5.1,3c3.4,10.4,5,21.1,4.1,32c-0.3,4.4,0.9,5.5,5.2,6.1c8.4,1.1,16.8,2.7,24.8,5.1
		c4.9,1.5,9.2,4.9,14.3,7.7c-7.1,8.8-15.9,12.8-26.5,15.7c3.2,3,5.7,5.1,7.9,7.4c6.3,6.9,6.2,9.3-1.8,14c-5.6,3.3-11.6,5.8-17.6,8.1
		c-3.4,1.3-4.4,2.8-4,6.6C377.3,189.4,377.7,199.2,378.5,210.5z M323.9,126.7c3.5-3.8,3.5-14.3,0-18
		C323.9,115.3,323.9,121,323.9,126.7z M333.6,125.5c3.7-5.1,4.1-12.8,1.1-15.4C333.3,115.5,331.7,120.4,333.6,125.5z M332.9,179.8
		c1-0.2,1.9-0.3,2.9-0.5c-0.8-4.7-1.5-9.3-2.3-14c-1,0.2-1.9,0.3-2.9,0.5C331.3,170.5,332.1,175.1,332.9,179.8z M303.3,168.4
		c0.5,0.4,1,0.9,1.5,1.3c4.8-1.9,9.3-7.7,8.4-12.5C309.5,161.4,306.4,164.9,303.3,168.4z M313.7,114.6c-0.5,0.3-1.1,0.5-1.6,0.8
		c-0.6,4.4,2.9,11.2,7.7,11.9C317.7,123,315.7,118.8,313.7,114.6z M341.6,160c-0.5,0.3-1.1,0.5-1.6,0.8c-0.4,4.4,3.3,11,8.2,11.6
		C346,168.3,343.8,164.1,341.6,160z M356.1,162.7c-1.5-4.5-7.3-9.3-11-9C346.6,158.2,352.5,163,356.1,162.7z M344.3,128.4
		c0.2,0.6,0.3,1.2,0.5,1.8c4.4,1.3,10.7-0.6,13.3-5.4C352.7,126.2,348.5,127.3,344.3,128.4z M359.4,149.8c0.1-0.8,0.3-1.7,0.4-2.5
		c-4.3-0.4-8.6-0.8-12.9-1.2c-0.1,0.8-0.2,1.6-0.3,2.3C350.6,150.5,355,150.2,359.4,149.8z M360.5,137.5c-4.4-1.3-8.7-2.1-12.8,0.8
		C352.1,140.6,356.4,140,360.5,137.5z M350.4,119.1c-5-1.4-10.5,2.4-10.8,7.5C343.3,124,346.8,121.6,350.4,119.1z M322.5,179.2
		c3.7-4.9,3.7-10.5,0-13.7C322.5,170.1,322.5,174.1,322.5,179.2z M298.6,162c3.4-2.2,6.8-4.4,10.2-6.6
		C304,153.7,299.1,156.9,298.6,162z M296.3,147.5c0.2,0.6,0.3,1.2,0.5,1.8c4.7,1.4,8.8,0.2,11.3-4.4
		C303.5,145.8,299.9,146.7,296.3,147.5z M318.1,162.8c-0.7-0.2-1.4-0.4-2.1-0.5c-0.9,3.6-1.8,7.1-2.8,10.7c0.8,0.2,1.6,0.4,2.4,0.6
		C317.5,170.3,319,166.8,318.1,162.8z M299.3,133.9c-0.4,0.9-0.8,1.8-1.2,2.7c3,1.4,5.9,2.9,9,4.2c0.3,0.2,1.3-0.4,1.5-0.8
		c0.2-0.5,0.1-1.6-0.3-1.7C305.4,136.7,302.3,135.3,299.3,133.9z M305,124.3c-0.5,0.6-1.1,1.2-1.6,1.8c1.8,3.5,4.5,6,8.4,7.2
		c0.5-0.5,1-1.1,1.4-1.6C310.5,129.2,307.8,126.8,305,124.3z"/>
	<path class="st4" d="M159.6,250.2c6.3-3.9,12.4-7.6,18.5-11.4c3-1.9,3.3-3.6,0.1-6c-9.3-7.1-19.3-12.3-31.3-13
		c-1.5-0.1-3.4-2-4.3-3.6c-4.1-7.2-7.4-14.9-11.9-21.9c-2.2-3.5-6.1-5.9-9.6-8.5c-2.8-2-6.5-11.3-4.9-14.3c0.5-1,2-1.9,3.1-2
		c4.3-0.3,8.7-0.7,12.9-0.2c4.3,0.5,5-1,4.2-4.7c-1-4.5-1.7-9-2.5-13.4c0.4-0.5,0.9-1.1,1.3-1.6c8.9,1.8,17.7,3.5,26.6,5.3
		c1.8,0.4,3.5,1,5.2,1.6c3.6,1.3,4.8,0,4.9-3.6c0.3-7.5,0.7-15,1.7-22.4c0.6-4.7,2.3-9.3,3.8-15.2c4.6,3,8.5,5.1,11.9,7.8
		c3,2.4,4.7,2.2,6.7-1.1c1.8-3.1,4.1-5.8,6.6-9.3c6.6,9.9,9.6,20,11.3,30.6c0.9,5.6,1.3,5.7,5.9,2.6c12-8.3,25-14.3,40.1-16.9
		c-2.4,6.3-5,12-6.9,17.9c-2.4,7.3-1.4,8.8,6.1,10.1c6.4,1.1,12.8,1.6,19.1,2.3c-2.8,8.4-5.9,16.8-8.5,25.3
		c-1.9,6.4-1.2,6.9,5.4,6.2c3.1-0.3,6.9-2.3,9,1.6c2.1,4,2.1,7.8-0.4,12.2c-2.9,5-5.4,6-10.8,3.8c-10.6-4.4-21.8-5.8-33.3-4.9
		c-4.5,0.3-6.3,2.1-5.2,6.7c1.5,5.8,2.8,11.6,4.1,17.2c-5.3,0.9-10.7,1.8-16,2.8c-4.1,0.8-5.7,2.9-3.8,7.1
		c2.6,5.8,4.9,11.6,7.4,17.7c-2.4-1.7-4.8-3.5-7.4-5c-3.6-2.2-6.9-2-9.8,1.3c-3.1,3.6-6.3,7.2-9.9,11.3c-1.4-3.9-2.6-7.8-4.2-11.5
		c-3.8-8.6-6.1-9.1-13.4-3c-1.8,1.5-3.3,3.3-4.8,5.1c-1.4,1.6-2.5,3.4-3.8,5.2C168.2,255.5,163.8,252.9,159.6,250.2z M191.6,154.7
		c-3.6,3.5-3.4,13,0,17C191.6,165.4,191.6,160,191.6,154.7z M196.1,203.9c-0.3,7.1-1,12.8,1.9,19.1
		C200.5,218,199.8,208.4,196.1,203.9z M175,215.5c4-5.3,7.3-9.5,10.6-13.8C180.2,201.8,174.1,210,175,215.5z M190.1,203.2
		c-4.1,3.5-5.3,12.9-2.7,17.8C190.4,215.3,189.8,209.8,190.1,203.2z M200.9,155c-0.6-0.1-1.2-0.2-1.7-0.3c-3.2,3.7-3.8,12.8,0,15.8
		C199.8,164.9,200.3,159.9,200.9,155z M208.1,220.1c0.6-0.2,1.1-0.4,1.7-0.6c-1.5-4.8-3-9.6-4.5-14.4
		C202.3,209,204.7,217.3,208.1,220.1z M180.4,196.3c-0.4-0.5-0.8-1-1.3-1.4c-4.6,0.8-10.8,6.5-11.1,11.9
		C172.8,202.7,176.6,199.5,180.4,196.3z M212.7,178.9c0.2,0.6,0.3,1.2,0.5,1.7c4.3,1.3,11.4-1,12.9-5.8
		C221.6,176.2,217.2,177.5,212.7,178.9z M227.2,188.1c-4.2-3.7-9.7-3.3-12.6,0C219.2,188.1,223.2,188.1,227.2,188.1z M169.2,166.7
		c1.7,4.1,6.4,7.2,10.2,6.7C177.6,169.2,173,166.2,169.2,166.7z M212.3,159.1c-0.5-0.4-1-0.7-1.4-1.1c-4.1,1.7-7.2,6.4-5.5,10.9
		C207.7,165.6,210,162.3,212.3,159.1z M165.1,179.1c3.9,3.4,9.5,3.6,13.6,0C173.7,179.1,169.7,179.1,165.1,179.1z M177.3,191.6
		c-3.5-4-8.7-3.6-12,0.7C170,192,173.6,191.8,177.3,191.6z M184.1,171.2c0.8-0.4,1.7-0.8,2.5-1.3c-1.1-3.7-2.4-7.2-5.8-9.6
		c-0.6,0.3-1.2,0.6-1.9,1C180.6,164.6,182.4,167.9,184.1,171.2z M219.1,199.7c1.6-1,3-1.9,4.5-2.8c-1.7-0.5-3.5-1.5-5.2-1.5
		c-1.6,0.1-3.2,1.2-4.7,1.9C215.4,198.1,217,198.8,219.1,199.7z M219.4,168.1c-0.3-0.7-0.7-1.4-1-2c-3.5,0.5-7,1.2-8.9,4.6
		c0.3,0.6,0.6,1.2,0.9,1.8C213.4,171,216.4,169.6,219.4,168.1z M215.7,209.1c0.6-0.8,1.2-1.6,1.7-2.4c-2.5-1.7-5-3.5-7.5-5.2
		c-0.5,0.7-1,1.4-1.5,2.1C210.9,205.4,213.3,207.3,215.7,209.1z"/>
	<path class="st5" d="M147.8,318.7c-6-1.7-11.3-2.9-16.4-4.6c-4.6-1.5-5.2-1-5,3.7c0.2,5.1,0,10.2,0,16.3c-2.5-1.1-4.1-1.6-5.6-2.4
		c-10.3-5.4-19-12.9-26.3-21.9c-2.6-3.2-4-3.3-6.9-0.2c-4.4,4.7-9.4,8.9-14.4,13c-2.1,1.7-4.9,2.5-7.5,3.8
		c-5.2-8.2-5.7-16.9-6.1-25.2c-8.6,1.1-16.7,2.1-25.3,3.1c-0.5-9.5,2.1-16.8,6.2-23.5c2.3-3.7,4.9-7.1,7.7-10.4
		c2.5-2.9,2.8-5.1-0.4-7.9c-8.1-7.5-13.7-16.6-16.7-27.4c-1-3.6,0.2-5.1,3.4-5.4c4.2-0.4,8.5-0.6,13.1-0.8c-1.4-5-2.6-9.5-3.9-14.1
		c-1.2-4.1,0.3-5.9,4.6-5.7c6.8,0.2,13.7,0,20.5,0.3c3.1,0.2,4.5-0.6,5.3-3.6c2.5-8.7,8.6-14.8,15.6-21.2
		c3.8,6.2,7.4,11.9,10.9,17.6c0.6,0.4,1.3,0.9,1.9,1.3c1.5-2.2,2.5-4.9,4.4-6.4c13.3-10.8,15.1-9.1,23.1,2.5
		c3.9,5.7,6.6,12.3,9.2,18.8c1.4,3.6,3,5.2,7.1,5.4c11.2,0.5,20.3,4.5,30,12.9c-6.1,3.3-11.8,6.4-17.5,9.4c-1.2,0.6-2.6,0.8-3.7,1.5
		c-1.2,0.7-2.2,1.8-3.3,2.7c1.1,0.9,2,2.1,3.2,2.6c6.8,2.9,13.6,5.6,17.6,12.9c-5.9,8.5-13.9,14.6-23.3,18.7c-3.2,1.4-4.2,2.7-3,6.3
		C149.1,299.2,149,308.2,147.8,318.7z M114.2,255.3c0.1-8.5-6.6-15.8-14.7-16c-8.3-0.2-15.3,7-15.4,15.8c-0.1,8.6,6.6,15.8,14.6,16
		C107.2,271.2,114.1,264.1,114.2,255.3z M88.5,222.4c-2.9,5.1-2,15.3,1.7,18.2C90.7,234.3,91.2,228.6,88.5,222.4z M98.8,289.7
		c2.7-3.5,3.2-13.1,0.8-16.1C96.9,277.1,96.4,286.8,98.8,289.7z M98.5,233.7c4-4.3,3.2-13.2,0-14.9
		C98.5,223.8,98.5,228.8,98.5,233.7z M110.4,272.5c5,3.8,9,6.9,14,10.7C123.7,277.3,116.2,271.6,110.4,272.5z M77.5,283.6
		c5.6-3.3,9.4-10.8,8.1-15C81.7,272.8,79.1,277.1,77.5,283.6z M109.9,238.5c0.4,0.4,0.8,0.9,1.1,1.3c4.8-0.4,11.4-6.6,10.7-11.5
		C117.4,232.1,113.6,235.3,109.9,238.5z M118.4,259c-0.1,0.6-0.2,1.2-0.3,1.7c3.7,3.2,11.8,3.8,14.8,0
		C127.6,260.1,123,259.5,118.4,259z M104.8,234.4c0.6,0.3,1.2,0.5,1.7,0.8c4.1-2.9,7-9.6,5-14.4C109,226,106.9,230.2,104.8,234.4z
		 M109.3,287.4c1.8-4,0.1-11.4-3-13.8C104.6,277.5,106.3,285.2,109.3,287.4z M77.4,253c0.4-0.5,0.8-1,1.2-1.4
		c-1.7-4.7-7.3-9.2-12.6-8.5C70.4,246.8,73.9,249.9,77.4,253z M77.1,231.7c-0.7,4.2,2.5,10.1,6.2,11.7
		C84,239.3,80.8,233.3,77.1,231.7z M117.1,251.8c2.7,3.7,9.8,3.5,14.4-0.3C126.4,249.8,122.2,251.4,117.1,251.8z M116.7,242.5
		c4.3,3.1,10.4,1.1,12.5-3.9C124.3,240.2,120.5,241.3,116.7,242.5z M92.9,274.6c-0.6-0.2-1.1-0.3-1.7-0.5c-3.2,2.9-4.4,8.3-1.2,12.1
		C91,282.4,92,278.5,92.9,274.6z M129.3,270.8c-4.3-2.9-7.4-5.7-12.6-5.6C119.3,269.7,124.4,272.2,129.3,270.8z M79.2,258.6
		c-0.1-0.9-0.1-1.8-0.2-2.7c-3.8-0.5-7.6-0.6-11,1.6c0.1,0.7,0.1,1.4,0.2,2.2C71.9,259.4,75.6,259,79.2,258.6z M82.4,265.5
		c-0.6-0.8-1.1-1.5-1.7-2.3c-2.7,2-5.5,4-8.2,5.9c0.6,0.8,1.1,1.6,1.7,2.4C76.9,269.5,79.6,267.5,82.4,265.5z"/>
	<path class="st3" d="M51.9,342c3.2,9.5,6.1,19.4,9.8,29c3,7.8,4.7,7.8,10.6,1.6c13.6-14.5,18.6-31.9,17.4-51.5c-0.2-3,0-6,0-10.5
		c2.2,2.1,3.3,3,4.3,4.1c8.1,9,17.3,16.6,28.4,21.6c2.7,1.2,2.9,2.7,2.7,5.4c-0.4,5.8-0.3,11.6-0.1,17.4c0.1,3.2,1.8,4.5,5.3,4.1
		c10.6-1,20.6-3.6,30.3-9.5c0.4,1.8,0.8,3.2,1,4.5c1.8,12.7,6.8,23.9,14.3,34.2c2.3,3.3,4.1,2.9,6,0.1c2.5-3.5,4.8-7.1,7.2-10.6
		c2,2.4,3.8,5,6,7.3c4,4.1,6.8,4.5,10.5,0c4.2-5,7.6-10.8,10.7-16.6c2.1-4,3.2-8.7,4.3-12.1c7.5,4.4,14.7,9.4,22.6,13
		c10.8,4.9,11.1,4.3,13.1-7.6c4.5,2.9,8.9,5.8,12.2,7.9c-2.7,10.5-5.3,20.5-8,30.6c-0.9,3.3,0,4.8,3.7,4.1
		c5.2-0.9,10.4-1.7,15.5-2.5c0.3,3.9,0.6,8,0.8,12.1c0.2,5.1,3,6.3,7.6,5.8c10.8-1.1,20.3-4.8,28.7-11.8c1.5-1.3,3-2.6,4.6-3.9
		c4,4.7,7.5,9.5,11.7,13.6c4.1,4,9.1,7.2,14,11c-0.7,0.2-1.3,0.4-1.8,0.4c-97.5,2.3-191.8-12.9-281.7-52.1
		c-11-4.8-21.7-10.3-32.6-15.3c-2.7-1.2-3.6-2.8-3.5-5.7c0.2-6,0.1-11.9,0.1-18.1C36.1,342,44.1,342,51.9,342z"/>
	<path class="st4" d="M409,347c-7,10.4-14.9,18.3-25.9,22.6c-3.9,1.5-4.5,3.7-1.6,6.7c6.9,7.4,9.2,16.8,11.6,26.9
		c-2.5,0.2-4.8,0.5-7,0.6c-4.1,0.2-4.5,1.9-2.5,5.1c0.8,1.2,1.4,2.6,2.3,4.3c-8,1.4-15.3,0.8-22.3-2.6c-3.6-1.8-4.9-0.7-5.9,3
		c-1.1,4.3-3,8.4-4.7,12.6c-1.3,3.1-3.3,3.5-6.3,1.7c-9-5.3-16.2-12.3-21.3-21.3c-2.3-4-3.8-3.9-6.9-0.8
		c-9.1,9.3-20.1,14.5-34.4,14.6c0-5,0-9.7,0-14.4c0-1.6,0-3.2,0-4.8c-1.7,0.2-3.4,0.2-5.1,0.6c-4.6,1.1-9.2,2.3-14.5,3.7
		c0.2-10.5,2.9-19.1,7.7-26.9c2.8-4.5,2.1-6.3-2.5-8.5c-6.5-3.1-12.1-7.4-16-13.9c-1.5-2.5-1-3.8,0.8-5.4
		c7.3-6.6,15.3-11.9,25.4-12.7c3.8-0.3,4.4-2.1,3.5-5.4c-1-3.7-1.8-7.5-2.7-11.6c7.4,4.8,14,9.1,20.6,13.4c3,2,4.9,1.2,6.1-2
		c2-5.3,4-10.5,6-16c4.5,0.3,9.3,0.4,14,1.1c4,0.6,5.4-1.2,5.9-4.7c0.6-3.9,1.3-7.9,2-12.2c4.5,1.2,5.5-1.4,6.3-5.3
		c0.5-2.8,2.3-5.4,3.9-8.7c9.7,8.6,16.5,18.2,20.1,29.9c1.2,4.1,3.2,5.5,7.4,5.4c9.2-0.2,17.6,2.8,26.8,6.8
		c-2.2,3.7-4.1,7.1-6.2,10.4c-2,3.1-1.2,4.4,2.4,4.9C400.1,344.8,404.2,345.9,409,347z M329.7,387.7c3.7-3.8,3.4-12.3,0-15.9
		C329.7,377.7,329.7,382.7,329.7,387.7z M327,329.2c-2.4,4.1-1.8,14.7,1.1,16.9C330.3,341.8,329.6,332.1,327,329.2z M357.9,342
		c-0.3-0.5-0.5-1-0.8-1.6c-4.2,2.1-8.4,4.2-12.6,6.3C348.8,349.1,355.7,345.8,357.9,342z M318.2,349.1c0.5-0.2,1.1-0.4,1.6-0.6
		c-1.5-4.8-3-9.6-4.6-14.3C312.4,338.3,314.8,346.6,318.2,349.1z M345.2,385.9c0.6-4.5-3.1-12.2-6.6-13.6
		C337.9,376.7,341.6,384.4,345.2,385.9z M334.7,342.7c3.7-4,3.4-10.5,0-13.8C334.7,334,334.7,338.3,334.7,342.7z M361.1,356.7
		c0-0.9,0.1-1.9,0.1-2.8c-4.4,0-8.7,0-13.1,0c0,0.7-0.1,1.4-0.1,2.1C352.4,356.3,356.7,356.5,361.1,356.7z M314.4,355.4
		c-3.4-2.9-6.1-6.8-11.6-7.4C305,353,310.5,356.7,314.4,355.4z M348.2,359.3c-0.2,0.6-0.4,1.2-0.6,1.9c3.4,3.6,9.5,5.3,14,2.6
		C356.5,362.1,352.3,360.7,348.2,359.3z M350.2,334.1c-5.3,1.2-9.2,6.6-9.2,11.8C345.7,343.1,347.6,339.1,350.2,334.1z M324.2,372.9
		c-5.2,1.1-8.3,7.8-5.9,12.7C320.5,380.8,322.4,376.9,324.2,372.9z M305.7,376.6c0.3,0.5,0.7,0.9,1,1.4c3.6-2.4,7.3-4.7,10.9-7.1
		C313,369.1,307.4,372.6,305.7,376.6z M299.6,358.3c-0.2,0.6-0.4,1.1-0.6,1.7c2.9,3.4,8.1,4.8,12.1,1.7
		C307.3,360.6,303.5,359.5,299.6,358.3z M351.5,374.9c-2.4-3.2-5.2-5.8-9.9-5C344.1,373.1,346.9,375.6,351.5,374.9z M352.8,371
		c0.5-0.8,1-1.5,1.4-2.3c-2.6-1.6-5.1-3.2-7.7-4.8c-0.5,0.8-1,1.5-1.5,2.3C347.6,367.8,350.2,369.4,352.8,371z"/>
	<path class="st5" d="M331,196.5c-1.1,11.2-2,22.4-3.4,33.5c-0.4,3.5,0.3,4.8,3.9,5c9.3,0.6,18.2,2.9,27.4,6.9
		c-4.3,3-7.9,5.5-11.6,8c-3,2.1-3.2,3.3,0.2,5.7c14.6,9.7,12.5,9.1,1.6,19c-4.4,4-9.7,7-14.8,10.1c-2.9,1.7-3.6,3.6-3.5,6.9
		c0.2,6.3-0.1,12.6-0.4,18.9c-0.1,2.6-1.6,3.8-4.3,3.5c-3.6-0.5-7.4-0.5-10.9-1.5c-4-1.2-5.2,0.1-6,3.9c-1.1,5.1-3.1,10-4.8,15.5
		c-9.3-4.5-16.8-9.5-22.4-17c-2.4-3.2-4.2-3.3-7.4-1.1c-7.6,5.3-16.2,8.2-25.4,9.9c-3.5,0.6-5.3-0.6-5.6-3.7
		c-0.4-4.1-0.7-8.3-0.4-12.4c0.3-3.3-0.3-4.2-3.7-3.6c-6.9,1.2-13.8,1.4-20.9-1.1c4.6-11.5,11.5-20.9,20.9-28.5
		c4.8-3.9,4.8-3.9,0.3-8.5c-8.7-8.8-14.7-19.3-18.7-32.6c6-0.6,11.6-1.5,17.3-1.6c5.4-0.2,5.7-0.5,4-5.7c-2-5.9-3.6-12-5.6-18.5
		c9.8-1.5,18.3-0.7,26.7,1.5c4.6,1.2,9.3,2.7,13.7,4.7c3.2,1.5,4.4,1.1,6.1-2c5.2-9.8,12.1-18.3,21.7-26.4c1,6.7,1.8,12.5,2.7,18.2
		c0.2,1.4,0.8,2.7,1.2,4c1.1-0.8,2.2-1.6,3.4-2.3c5.6-3.4,11.3-6.7,16.9-10.1C329.8,195.7,330.4,196.1,331,196.5z M300.4,247
		c-1.6-0.7-3.3-1.3-4.8-1.9c0.6-5.6,1.7-10.8-0.5-16c-1.4,2.3-1.9,4.7-2.2,7.1c-0.3,2.6-0.3,5.2-0.5,7.7c-2.6,0.9-5.1,1.5-7.2,2.7
		c-6.5,3.6-8.4,11.9-4.6,18.2c3.7,6.1,11.7,8.1,17.9,4.4c6.3-3.7,8.4-12,4.5-18.2c-0.9-1.4-1.9-2.7-2.8-4.1
		c4.5-0.2,8.2-7.8,5.2-13.9C303.5,238.4,302,242.7,300.4,247z M283.3,271.1c-0.5-0.3-1-0.7-1.5-1c-4.1,1.8-9.3,9.9-7.5,14.4
		C277.4,280,280.3,275.5,283.3,271.1z M297.9,287.7c2.9-2.4,2-11.5-1.2-15.2C294.8,275.2,295.2,281.2,297.9,287.7z M287.5,290
		c3.5-5.5,3.6-13.7,0-17.4C287.5,278.6,287.5,283.6,287.5,290z M284.3,228.3c-2.8,5.7-1.8,13.7,2,16.1
		C286.6,238.9,287.3,233.8,284.3,228.3z M277.2,248.6c0.4-5.3-6.2-10.5-11.7-9.4C270,242.7,273.6,245.6,277.2,248.6z M264.7,254.2
		c2.9,3.5,9.2,3.7,13.5,0C273.3,254.2,269.4,254.2,264.7,254.2z M307,262.3c-0.3,0.4-0.5,0.9-0.8,1.3c1.7,3.8,8.6,6.6,13.7,4.2
		C315,265.7,311,264,307,262.3z M265.2,269.1c0.2,0.6,0.5,1.2,0.7,1.7c4.6,0.8,10.6-1.8,12.6-6.8C273.3,266,269.2,267.5,265.2,269.1
		z M320.3,257c-0.2-1-0.4-1.9-0.6-2.9c-4,0.8-7.9,1.6-11.9,2.3c0.2,1,0.4,1.9,0.6,2.9C312.4,258.5,316.3,257.8,320.3,257z
		 M315.5,245.1c-4.2-0.4-9.1,2.5-10.4,6.3C309.3,251.7,314.2,248.8,315.5,245.1z M304.2,269.4c-0.4,0.4-0.8,0.8-1.3,1.1
		c0.6,4.3,4.5,8.3,9.4,7.7C309.6,275.3,306.9,272.3,304.2,269.4z"/>
	<path class="st4" d="M220,350.7c-1.1,3.4-1.6,5.3-2.3,7c-3.8,8.8-7,18-11.7,26.2c-3.8,6.5-6.5,5.9-11-0.1c-2-2.6-4.2-5.1-6.3-7.6
		c-1.7,2.7-3.3,5.5-5.1,8.2c-1.2,1.9-2.6,3.8-4.3,6.3c-7.3-9.1-11.5-19.1-13.6-29.9c-0.5-2.8-0.9-5.6-1-8.4
		c-0.2-4.2-1.8-4.5-4.9-2.3c-9.2,6.3-19.5,9-30.8,9.7c-3.4-14.2,3.6-27.6,1.1-41.5c5.6,1.1,10.4,2.1,15.3,3c4.3,0.8,6.7-1,6.6-5.6
		c-0.3-8.9-0.6-17.9-0.9-27.8c1.4-0.7,4.2-1.9,6.5-3.7c5.6-4.4,11-9.1,16.3-13.8c2.1-1.9,2.6-4.3,2.5-7.5c0-3.1,2.7-6.5,4.9-9.3
		c1.9-2.4,4.7-4,8.5-7.1c2.2,7.3,4,13.2,5.9,19.1c0.5,1.5,1.2,2.9,1.9,4.3c1.2-1,2.5-1.9,3.5-3c3.1-3.7,6-7.5,8.9-11.4
		c3-4,6.5-4,9.7-0.8c5.6,5.8,10.8,12.1,15.8,17.7c-5,6.3-9.3,11.6-13.4,17c-3.7,4.9-11.5,6-12.9,15c2.9-2,4.7-3.2,6.4-4.4
		c0.1,2.2,0.3,4.5,0.4,7c-0.7,0.4-2,1-4.3,2.3c10.1,5.1,18.6-3.7,26.9-0.7c1,5.1,1.8,10.3,2.9,15.4c0.7,3.4,2.8,4.3,6.3,3.7
		c9.5-1.4,18.5-4.2,26.7-9.2c0.9-0.6,2-1,2.9-1.5c0.8,5.8,1.6,11.3,2.4,17.3c-11.4,1.4-20.5,7.4-28.8,15.2c-2.5,2.3-3.1,4.3-1,7.2
		c3.2,4.7,3.6,9.8,1.8,15.8C238.8,369.1,227.9,363.5,220,350.7z M183.3,343.4c0.6,0.3,1.1,0.5,1.7,0.8c3.9-2.8,7.6-11.5,5.5-16.4
		C187.8,333.7,185.6,338.6,183.3,343.4z M184.2,327.7c-4.2-0.4-10.6,6.1-9.6,10.8C177.9,334.8,180.9,331.4,184.2,327.7z
		 M196.7,346.4c3.5-4.5,3.5-12.1,0-16.1C196.7,335.8,196.7,340.5,196.7,346.4z M177.1,288.6c-0.6,0.3-1.1,0.6-1.7,0.8
		c-0.3,4.7,3.3,11.2,8.5,12.8C181.3,296.9,179.2,292.7,177.1,288.6z M204.6,330.3c-0.4,4.1,3.1,9.9,6.8,11.2
		C211.9,337.4,208.4,331.6,204.6,330.3z M186.8,297.8c0.6-0.1,1.2-0.1,1.8-0.2c2-4.6,1.1-11.7-3.1-14.8
		C185.9,288.5,186.4,293.1,186.8,297.8z M165.4,301.4c4.3,3.6,7.7,6.3,11.1,9.1C176.9,305.4,171.2,300.7,165.4,301.4z M166.3,326
		c4.3,3.3,11.3,1.2,13.5-3.6C174.7,323.7,170.5,324.9,166.3,326z M198.3,296.7c0.6,0,1.1,0,1.7,0c0-5,0-10.1,0-15.1
		c-0.6,0-1.1,0-1.7,0C198.3,286.6,198.3,291.7,198.3,296.7z M209.8,323.3c-0.4,0.5-0.7,0.9-1.1,1.4c1.6,4.1,6.3,7.2,10.9,5.6
		C216.3,328,213.1,325.6,209.8,323.3z M204.7,298.1c3.8-1.8,6.4-6.9,5.5-10.7C206.5,289.1,203.9,294.2,204.7,298.1z M179.6,317
		c0-0.7,0.1-1.5,0.1-2.2c-3.4-0.4-6.9-0.9-10.3-1.2c-0.5,0-1.3,0.8-1.7,1.4c-0.2,0.3,0.5,1.4,0.8,1.5
		C172.3,317.1,176,318.7,179.6,317z M225.6,320c0-0.7,0.1-1.5,0.1-2.2c-3.1-0.4-6.2-0.8-9.4-1.1c-0.5,0-1.3,0.6-1.5,1
		c-0.2,0.4,0.1,1.6,0.4,1.7C218.7,320.2,222.2,321.7,225.6,320z"/>
	<path class="st4" d="M132,164.9c-4.7,0.5-9.6,0.9-14.5,1.5c-3.8,0.5-5.6,3.1-5,6.7c0.7,4.5,1.9,9,2.8,13.5c-4.4,3.1-9,6.3-13.9,9.7
		c-2.8-4.3-5.6-8.7-8.4-13.2c-1.9-3-3.9-3.3-6.3-0.6c-5,5.5-10,11.1-15.4,17.1c-6-5.2-9.6-12.6-11.7-21c-0.5-1.8-1.5-3.5-2.3-5.2
		c-1.5,1.2-3,2.3-4.4,3.5c-4.1,3.5-8.2,7.1-12.9,10.2c0.4-13.7,1-27.2,12.3-37c3.6-3.1,3.3-4.3-1-6.8c-5.9-3.4-11.7-6.9-17.4-10.7
		c-2-1.3-3.6-3.5-5-5.6c-3.1-4.6-1.7-9.3,3.6-10.7c4.5-1.2,9.2-1.9,13.8-2c4.4,0,4.9-1.5,4.1-5.4c-1.4-6.3-2.2-12.8-3.1-19.2
		c-0.5-3.4,0.9-4.7,4.5-4.6c9.5,0.3,18.5,2.1,26.8,6.9c4.8,2.8,5.2,2.6,6.6-2.9c2.3-9.1,7-16.4,15.6-22.4c1.4,4.3,2.6,8.2,3.8,12
		c0.4,1.2,1.1,2.3,1.6,3.4c1.1-0.8,2.4-1.5,3.3-2.5c2.5-2.7,4.8-5.6,7.1-8.3c3.1-3.7,5.9-3,9.1,0.3c6.4,6.7,8.7,15.2,10.2,24
		c0.2,1.1,0.3,2.3,0.3,3.5c0,3.8,1.5,4.8,5.6,4.7c6.9-0.2,13.9,0.8,20.8,1.3c0.9,0.1,1.8,0.7,4.3,1.7c-5.4,3.6-9.9,6.6-14.3,9.6
		c-1.3,0.9-2.3,2.1-3.4,3.1c1.2,1.2,2.2,2.7,3.6,3.5c2.8,1.5,5.9,2.3,8.6,3.9c7,4.2,9.3,9.5,7.3,15.7c-1.2,3.7-10.6,7.3-16.2,6.5
		c-5.8-0.8-11.6-1.3-17.3-2.1c-3.1-0.5-4.4,0.8-4.2,3.8C131.1,155.5,131.6,160.3,132,164.9z M102.6,112.8c4.9-3,6-13.2,2.1-16.3
		C103.9,102.4,103.3,107.6,102.6,112.8z M94.1,96.4c-0.5,0.1-1.1,0.1-1.6,0.2c-1.9,3.5-0.3,12.3,4.2,14.7
		C95.8,106.3,95,101.4,94.1,96.4z M83.9,147c-0.5-0.3-1-0.7-1.5-1c-4.1,1.7-8.8,9-7.1,13.6C78.2,155.3,81.1,151.1,83.9,147z
		 M91.7,147.8c-0.5-0.2-1-0.3-1.5-0.5c-4.2,3-6.3,11.4-2.6,13.8C89,156.5,90.3,152.1,91.7,147.8z M106.2,160.2
		c0.6-0.1,1.1-0.3,1.7-0.4c1.5-4.5-0.4-11.5-5.1-13.1C103.9,151.1,105.1,155.7,106.2,160.2z M78.6,105.3c-0.4,4,3.3,9.7,7.2,11
		C86.2,112.3,82.5,106.6,78.6,105.3z M112.7,121.4c0.2,0.6,0.3,1.1,0.5,1.7c4.3,1.4,10.6-0.5,12.1-5
		C121.1,119.2,116.9,120.3,112.7,121.4z M95.6,161.7c3.4-3.9,3.7-10.5,0-14.6C95.6,152.5,95.6,156.8,95.6,161.7z M116.6,155.3
		c0.8-3.8-2-8.8-5.9-10.6C109.9,148.5,112.8,153.5,116.6,155.3z M115.8,137.8c-0.4,0.5-0.7,1-1.1,1.5c1.7,4.1,6.5,7.3,12,6.3
		C122.3,142.4,119.1,140.1,115.8,137.8z M127.4,132.8c0.1-0.9,0.3-1.7,0.4-2.6c-4-0.4-7.9-0.8-11.9-1.2c-0.1,0.7-0.2,1.4-0.3,2.1
		C119.2,133.7,123.3,133,127.4,132.8z M119.8,109.8c-0.5-0.6-1.1-1.3-1.6-1.9c-3.7,1.4-6.6,3.7-8.3,7.3c0.5,0.5,0.9,1.1,1.4,1.6
		C114.1,114.6,117,112.2,119.8,109.8z M66.9,141.3c3.6,3.4,8.8,1.7,11.5-3.4C73.8,139.2,70.3,140.3,66.9,141.3z M74.9,132.6
		c0.3-0.9,0.6-1.9,0.8-2.8c-3.2-1-6.4-1.9-9.6-2.9c-0.3,0.9-0.6,1.9-0.8,2.8C68.5,130.7,71.7,131.7,74.9,132.6z M74,114.5
		c-0.4,0.3-0.7,0.7-1.1,1c0.6,4.6,3.6,7.5,8.4,6.6C78.6,119.3,76.3,116.9,74,114.5z"/>
	<path class="st1" d="M27.7,680.5c67.4,36.3,137.3,62.8,212.2,75.6c-1.6,0-3.2,0-4.8,0c-60.1,0-120.3-0.2-180.4,0.2
		c-11.7,0.1-27.6-15.6-27.2-27.2C28.1,713.3,27.7,697.4,27.7,680.5z"/>
	<path class="st3" d="M191.4,120.3c-3.6-5.4-12-4.8-15.4-12.1c3.1-0.6,5.7-1.1,8.2-1.7c15.7-3.8,28.3-13,40.1-23.6
		c2.7-2.4,1.8-4.6-0.9-6c-7.1-3.6-14.3-7-21.5-10.4c-1.4-0.7-3-1-3.9-1.2c3.4-4.7,6.6-9.3,9.8-13.9c1.7-2.5,1.1-5-1.3-6.5
		c-4.3-2.7-8.9-5-13.3-7.4c2.5-4.3,5.2-9.1,8-13.6c0.6-0.9,2-1.8,3.1-1.8c34.3-0.1,68.6-0.1,102.7-0.1c-4.4,5.5-8.7,11-13.3,16.8
		c-12.6-7-26.6-12.1-41.3-15.1c-7.6-1.6-8.6-0.6-6.5,6.7c5.7,19.8,16.3,36.7,29.4,52.3c1.6,1.9,3.2,3.8,5.6,6.5
		c-3.3,0.3-5.6,0.6-8,0.8c-9.4,0.7-9.4,0.7-7.3,9.6c0.6,2.8,1.3,5.5,2,8.3c2.7,10.5-0.6,15.7-11.1,17.9c-5.3,1.2-10.5,2.7-16.5,4.3
		c8.4-17.2,8.3-35,7.4-52.8c-0.1-1.5-0.2-3-0.4-4.5c-0.4-2.7-1.8-3.5-4.1-1.8c-13.9,10.6-28.3,20.5-38.4,35.3
		C201.1,111.5,196.2,115.4,191.4,120.3z"/>
	<path class="st5" d="M345.6,282c8.6-4.1,17.1-7.3,24.6-12c7.6-4.7,14.3-10.8,21.8-16.6c5.1,7.3,7.7,15.8,8.8,24.9
		c0.4,3,0.5,6,0.2,9c-0.4,4.1,1.4,5.1,5.2,5c16.3-0.5,27.2,2.1,38.1,9.1c-5.5,5.1-10.5,10.2-16,14.8c-4.7,4-4.8,5.5,0.8,8.1
		c5.4,2.6,10.6,5.5,13.8,10.8c-5.4,7-16.9,12.3-29.9,13.8c1.3-5.2-3.1-4.8-5.8-5.9c-2.9-1.1-6-1.8-9.4-2.9c1.7-3.2,3.2-6.3,4.8-9.3
		c1.5-2.9,1.5-5-2.3-5.9c-9.2-2.2-18.3-4.4-27.4-6.8c-1.4-0.4-3.1-1.7-3.6-3C364.6,302.2,356.8,291.4,345.6,282z"/>
	<path class="st5" d="M110.2,45.3c4.9-6.9,8-14.7,16.3-18.1c6.4,6.2,10,14.2,12.4,22.8c1.1,4,0.8,9.3,3.4,11.6
		c2.2,2.1,7.6,0.5,11.4,1.2c5.4,1,10.8,2.6,16.1,3.9c0.1,0.6,0.1,1.2,0.2,1.8c-2.7,1.7-5.6,3.3-8.1,5.2c-1.3,1-2.2,2.6-3.3,3.9
		c1.1,0.9,2.1,1.8,3.3,2.6c2.3,1.5,4.7,2.9,7.7,4.7c-7.4,10.7-17.7,13.8-29.2,15.3c-1-4.7-1.7-9.1-2.8-13.4
		c-1.8-7.2-4.9-13.8-10.7-18.8c-5-4.3-6.6-4.4-11.6-0.2c-2.5,2.1-4.8,4.5-7.6,7.2c-1.2-2.9-2.5-5.8-3.7-8.7
		c-1.4-3.6-3.5-3.9-6.5-1.6c-6.8,5.2-11.8,11.7-14.6,19.8c-0.5,1.5-1.1,3.1-1.7,5c-9.7-5.6-20-8-30.8-7.6c-2.5,0.1-4.9,1.6-7.4,2.5
		c0.1,0.5,0.3,0.9,0.4,1.4c-0.2-0.2-0.6-0.4-0.7-0.6c-4.3-11.8-5.7-12.6,9.1-16.4c2.8-0.7,5.7-1.3,8.6-2c-1-2.5-2.4-4.9-3-7.5
		c-1-3.6-1.4-7.4-2.3-11.8c8.8-0.6,16.7,0.4,24.1,3.4c4.3,1.8,6,1,7.6-3.4c2.8-7.6,6.7-14.8,13.8-21.3
		C103.8,32.6,106.7,38.4,110.2,45.3z"/>
	<path class="st1" d="M249,27.3c26.2,2.1,63,23.5,75.7,43.6c-4.7,6.2-9.3,12.5-14.2,18.6c-0.7,0.9-2.6,1-4,1c-6-0.2-12-0.6-17.9-1
		c-1.4-0.1-3.1-0.5-4-1.4c-15.9-17.2-29.1-36-35.4-58.9C249,28.6,249.1,28.1,249,27.3z"/>
	<path class="st4" d="M145.1,58.5c-1.9-6.2-3.2-12.1-5.6-17.5c-2.2-5-5.4-9.5-8.3-14.1c-2.5-4-5.9-3.9-9.4-1.3
		c-4.1,3.1-8.1,6.4-12.1,9.5c-1.8-2.9-4.8-7.5-7.9-12.5c31.8,0,63.6,0,96.7,0c-3.3,4.8-6.1,9-9.1,13.1c-3.1,4.1-2.8,5.1,2,6.3
		c1.3,0.3,2.6,0.5,3.9,1c11.4,4.1,12.1,6.2,3.6,15.6c-3.5,3.9-8,5.9-13.9,5C171.8,61.6,158.5,60.2,145.1,58.5z"/>
	<path class="st5" d="M345.1,76.5c-1.9-3.5-4.1-7.2-5.9-11.1c-0.6-1.3-0.5-3.4,0.2-4.6c2.8-4.8,5.9-9.5,8.9-14.2
		c0.6,0,1.3-0.1,1.9-0.1c2,3.2,4.3,6.4,5.9,9.8c1.6,3.4,2.8,3.3,5.4,1c3.9-3.5,8.2-6.6,12.7-10.2c3.9,8.9,5.5,17.2,4.9,25.7
		c-0.3,4.8,1.6,6.2,6.1,6.9c8.8,1.4,17.5,3.6,26.1,5.8c2.3,0.6,4.3,2.4,7.8,4.4c-3.9,2.6-6.9,4.6-9.9,6.6c-1.6,1-3.1,2.1-4.7,3.2
		c1.2,1.2,2.5,2.4,3.7,3.7c2.9,3.1,5.9,6.2,9,9.4c-4.3,3.9-7.6,5.7-13.2,3.6c-8.2-3-17-4.1-25.9-6.1c-0.5-6.5-0.7-13.6-1.7-20.6
		c-0.7-5.1-2.6-10-3.7-15c-1-4.5-3.7-5.6-7.8-4.4C358.6,72.3,352.1,74.3,345.1,76.5z"/>
	<path class="st4" d="M97.7,22.2C92.4,30.6,87.1,38.9,82,46.9c-7.8-1-15.9-2.4-24.1-3c-5.4-0.4-6.5,0.9-5.9,6.5
		c0.5,4.4,1.6,8.8,2.5,13.7c-4.5,1.4-9.4,3.4-14.5,4.5c-4.1,0.8-11.7-5.3-12.2-9.5c-2.1-16.8,4.1-29.6,21.7-36.2
		c0.9-0.3,1.9-0.6,2.8-0.6C67.6,22.2,82.9,22.2,97.7,22.2z"/>
	<path class="st1" d="M64.5,385.7c2.1,0.7,3.5,1.2,4.8,1.7c16.1,6,32.1,12,48.2,17.8c3.1,1.1,4.5,2.3,4.4,5.9
		c-0.3,7.5-0.1,14.9-0.1,22.9c-1.8-0.4-3.3-0.6-4.6-1c-16.6-5.6-33.1-11.1-49.6-16.8c-1.2-0.4-2.9-1.7-3-2.7
		C64.4,404.4,64.5,395.4,64.5,385.7z"/>
	<path class="st1" d="M432.6,221.6c-19.7-12.1-36-26.4-48-45.8c8.9-4.3,18.3-7.3,23.8-16c3.6,0.9,7.3,1.6,10.8,3
		c1.6,0.6,3.1,2.4,3.9,4C432.1,183.7,434.1,201.9,432.6,221.6z"/>
	<path class="st1" d="M384.6,435.1c0,9.9,0,19.3,0,29.8c-17.9,0.6-35.7,1.1-53.8,1.7c0-10.2,0-19.6,0-29.3
		C348.6,436.6,366.3,435.8,384.6,435.1z"/>
	<path class="st3" d="M55,180.7c4.7,8,9.6,16.1,14.7,24.7c-0.8,0-2.3,0-3.8,0c-7.6,0.2-15.3,0.5-22.9,0.7c-3,0.1-4.2,1.2-3.4,4.4
		c1.1,4.7,1.9,9.4,2.8,14.4c-4.6,0.9-9.4,1.8-14.4,2.8c0-31.4,0-63,0-94.4c7.1,4.6,14.1,9.2,21.5,14.1
		c-10.8,10.2-12.7,24.2-13.7,38.4c-0.1,1.8,0.3,4.6,1.4,5.2c1.3,0.7,3.9-0.1,5.4-1.1C47.1,186.7,51.4,183.4,55,180.7z"/>
	<path class="st1" d="M423.2,461.4c0-10.6,0-20.2,0-29.9c16.8-2.4,33.3-4.8,50.2-7.3c0,9.6,0,19.2,0,29.5
		C456.9,456.2,440.4,458.7,423.2,461.4z"/>
	<path class="st1" d="M218.7,141.9c-4-9.9-7.9-19.4-11.5-28.9c-0.5-1.3-0.2-3.4,0.6-4.5c3-4.1,6-8.5,9.8-11.9
		c8-7.3,16.6-14.2,26-22.2c1.5,21.1,1.4,40.1-8.5,57.7c-0.4,0.7-1,1.3-1.7,1.6C228.3,136.6,223.2,139.4,218.7,141.9z"/>
	<path class="st1" d="M241.8,432.5c17.3,1.4,34.3,2.7,51.7,4.1c0,9.2,0,18.4,0,28.5c-17.3-1.6-34.3-3.2-51.7-4.9
		C241.8,450.6,241.8,441.6,241.8,432.5z"/>
	<path class="st1" d="M158.2,99.6c3.4-2.6,7.5-5,10.7-8.2c5-4.8,4.5-8.1-1.1-12.1c-1.1-0.8-2.2-1.4-3.1-2c3.4-3.4,6.7-6.7,10.1-9.9
		c0.6-0.6,1.7-1,2.6-1c15,0.7,29.4,3.5,42.1,12.1c0.7,0.4,1.2,1.1,2.1,1.9c-9.1,8.3-18.7,15.2-29.9,19.9
		C180.4,105.2,169.1,105.8,158.2,99.6z"/>
	<path class="st3" d="M387.4,407.6c10.2-1.5,10.2-1.5,7.5-11.6c-0.6-2.2-1.2-4.4-2-7.7c6.7,3.7,12.4,6.9,18.3,10.1
		c-2.3,14.3,6.6,21.6,17.4,27.8c-0.1,0.4-0.1,0.9-0.2,1.3c-24.9,2-49.8,4-75,6c3.1-6.7,5.9-12.8,8.3-18.1c7.6,0.6,15.2,1.5,22.9,1.6
		c7.1,0,7.2-0.7,3.7-7.1C388,409.3,387.8,408.7,387.4,407.6z"/>
	<path class="st1" d="M201.6,426.6c0,8.7,0,17.5,0,27.1c-7.3-1.5-14.4-2.8-21.5-4.4c-7.2-1.5-14.3-3.2-21.4-5
		c-1.2-0.3-3.1-1.9-3.1-2.9c-0.3-8.1-0.1-16.2-0.1-24.7C171.1,420,186.2,423.3,201.6,426.6z"/>
	<path class="st1" d="M349.6,252.2c4.6-2.7,8.4-5,12.2-7.3c1-0.7,2.7-2.1,2.5-2.6c-0.4-1.2-1.7-2.3-2.8-3c-2.5-1.3-5.1-2.3-8.6-3.7
		c17.7-6.8,35.1-8.8,54.2-7.7c-13.6,18.9-27.9,35.2-48.7,44.2c4.9-8.4,4.8-8.8-2.9-15.3C353.8,255.4,352.1,254.2,349.6,252.2z"/>
	<path class="st4" d="M418.9,67.6c-2.4-0.7-7.4-1.5-11.8-3.6c-6.3-3.1-7.3-9.5-3.1-15.1c8.2-11,31.1-15.6,42.9-8.6
		c6.5,3.9,7.5,10.5,2.1,16.3C441.5,64.5,431.8,67,418.9,67.6z"/>
	<path class="st4" d="M445.7,266.3c-0.6,10.2-2,17.6-7.1,23.5c-1.1,1.3-3.9,2.1-5.8,1.9c-4.1-0.4-8.2-1.4-12.1-2.6
		c-1.8-0.6-4.1-2-4.6-3.5c-4.2-12.3-3.1-24,5-34.4c6.4-8.2,15.9-7.3,20.5,2C444,258,444.9,263.5,445.7,266.3z"/>
	<path class="st4" d="M424.8,159.5c-7.5-0.4-14.9-1.3-19.8-8.3c-3.1-4.5-2.4-6.9,2.1-9.6c3.5-2.1,7.1-4.4,10.1-7.2
		c7.9-7,24.9-6.5,32.3,1.2c4.5,4.7,4.2,10.5-0.9,15.4C442,157.4,433.8,159.3,424.8,159.5z"/>
	<path class="st1" d="M395.1,369.4c4.4-5.1,8.3-9.8,12.5-14.3c1-1.1,2.7-1.7,4.2-2.1c2.4-0.6,5.1-0.4,7.3-1.5c6.7-3.1,10.8,0,14.7,5
		c6.1,7.8,10.1,16.6,13.1,26.5C427.4,383.6,409.8,379.9,395.1,369.4z"/>
	<path class="st1" d="M66.5,372.9c-9.3-18.1-12.3-36.6-9.6-57.4c1.8,4.4,3.2,7.7,4.5,11.1c1.1,2.9,3.1,4.1,5.8,2.6
		c4.6-2.5,9.2-5.2,13.7-8c1.5-0.9,2.8-2.3,4.2-3.5C89.7,337,80.9,361.3,66.5,372.9z"/>
	<path class="st4" d="M429,392.2c8.4,0.6,15.8,3.8,21.5,10.1c4,4.5,6.9,9.8,4,15.9c-3,6.3-9.2,6.9-15,6.6c-8.7-0.5-16-4.5-21.4-11.4
		c-3.3-4.3-5.2-9.1-2.7-14.4C418,393.5,423.4,392.6,429,392.2z"/>
	<path class="st4" d="M329.5,67.9c-10.4-8.8-19.9-16.7-29.3-24.9c-1-0.8-1.5-3.3-1-4.5c2.6-6.4,7.2-11.1,14.7-14.7
		c2.4,5.2,4.6,10.2,7.1,15.2c1.1,2.2,2.6,4.3,3.9,6.4c1.5-1.6,3-3.3,4.5-4.9c3.1-3.3,6.3-6.6,10.5-10.9c2.4,4.8,4.5,8.1,5.7,11.8
		c0.5,1.5-0.3,3.7-1.2,5.3c-2.9,5-6,9.9-9.2,14.7C333.4,63.9,331,66.2,329.5,67.9z"/>
	<path class="st6" d="M419.4,431.8c0,9.5,0.1,18.5-0.1,27.5c0,0.9-1.8,2.4-2.8,2.5c-9.1,1-18.2,1.8-27.9,2.7
		c0-9.6-0.1-18.7,0.1-27.8c0-0.8,1.2-2.2,2-2.2C399.9,433.4,409.4,432.7,419.4,431.8z"/>
	<path class="st6" d="M205.7,454.5c0-9.5,0-18.2,0-27.2c10.1,1.4,19.9,2.7,29.7,4.3c0.9,0.1,2.3,1.6,2.3,2.5
		c0.2,8.3,0.1,16.5,0.1,25.5C226.9,457.8,216.5,456.2,205.7,454.5z"/>
	<path class="st1" d="M461.6,94.7c-7.3,3.4-14,6.9-21,9.8c-3.5,1.5-7.5,1.7-11,3c-8.2,2.9-14.3,0.6-18.3-7.2
		c2.5-1.9,5.3-3.6,7.7-5.8c5-4.6,4.9-5.5-0.8-9.1c-1.3-0.8-2.6-1.5-3.9-2.3c-1.3-0.7-2.5-1.4-4.1-2.2
		C422,78.4,452.5,86.1,461.6,94.7z"/>
	<path class="st6" d="M326.7,436.9c0,10,0,19.3,0,28.6c-9.6,0-18.9,0-28.8,0c0-9.9,0-19.2,0-28.6
		C307.4,436.9,316.8,436.9,326.7,436.9z"/>
	<path class="st4" d="M54.2,306.2c-0.7,10-1.5,20.3-2.3,31.9c-7.6,0.3-15.6,0.7-24.2,1.1c0-9.5-0.2-17.7,0.1-25.8
		c0.1-4.5,3.4-6.1,7.5-6.3C41.5,306.8,47.8,306.5,54.2,306.2z"/>
	<path class="st6" d="M60.9,413.8c-8.3-3.3-15.8-6.3-23.2-9.4c-0.8-0.3-1.7-1.7-1.7-2.6c-0.1-9.6-0.1-19.1-0.1-29.5
		c8.4,3.9,16.1,7.4,23.7,11c0.7,0.3,1.2,1.6,1.3,2.4C60.9,394.8,60.9,403.9,60.9,413.8z"/>
	<path class="st6" d="M125.5,408c8.5,2.4,16.2,4.5,23.8,6.8c1.1,0.3,2.4,1.9,2.4,2.9c0.2,8,0.1,16,0.1,24.9
		c-8.6-2.4-16.7-4.5-24.7-6.9c-0.7-0.2-1.6-1.7-1.6-2.7C125.4,425,125.5,416.8,125.5,408z"/>
	<path class="st3" d="M27.9,305.1c0-22.1,0-44.1,0-64.8c5.4,8.3,11.4,17.5,17.5,26.7c-3.4,5.5-8,11.5-11,18.2
		c-2.8,6.3-3.7,13.5-5.4,20.2C28.6,305.3,28.3,305.2,27.9,305.1z"/>
	<path class="st1" d="M45.6,104.1c-6.8,0.2-11.9-2.2-16.6-5.8c-0.8-0.6-1.3-1.9-1.3-2.9c-0.1-4.8,0-9.6-0.1-14.4
		c-0.1-3.9,2.9-4.3,5.4-4.3c1.3,0,3.2,1.6,3.8,3c2.4,5.1,4.5,10.3,6.5,15.5C44.4,97.9,44.8,100.9,45.6,104.1z"/>
	<path class="st3" d="M335.7,469.8c12.7,0,24.8,0,36.7,0C364.7,483.5,345.4,484.2,335.7,469.8z"/>
	<path class="st3" d="M249.4,464.7c12.3,1.2,23.4,2.2,34.7,3.3C275.9,478.8,260.7,477.7,249.4,464.7z"/>
	<path class="st3" d="M434.2,463.4c12-1.9,23.3-3.7,34.7-5.4C464.9,470.4,448.1,473.2,434.2,463.4z"/>
	<path class="st3" d="M349,218.9c0.3,1,0.5,1.3,0.5,1.6c-0.8,13.2-3.7,14.9-18.1,10.3c0.4-2.3,0.7-4.8,1.1-7.2
		c0.4-2.4,0.7-4.9,1.2-8.3C338.3,220.2,342.6,225.2,349,218.9z"/>
	<path class="st1" d="M169.9,128.4c-5.1-3.1-9.7-5.9-14.3-8.7c4.7-3.9,9.7-8.1,15-12.5c2.9,2.5,4.5,5.6,2.8,10
		C172.1,120.8,171.1,124.7,169.9,128.4z"/>
	<path class="st3" d="M107.4,433.8c-12.6,7-25.9,2.5-33-11.1C85.6,426.5,96.1,430,107.4,433.8z"/>
	<path class="st1" d="M30.7,402.3c-1-1.6-2.9-3.1-2.9-4.7c-0.3-8.1-0.1-16.3-0.1-24.5c0-1.3,0-2.6,0-4c0.3-0.3,0.7-0.5,1-0.8
		c1.3,1.3,3.6,2.6,3.6,3.9c0.3,9.7,0.2,19.5,0.2,29.3C31.9,401.8,31.3,402,30.7,402.3z"/>
	<path class="st3" d="M166.4,450c8.9,1.9,17,3.6,25.1,5.3c0.4,0.1,0.8,0.4,1.2,0.7C184.7,463.2,174.1,461,166.4,450z"/>
	<path class="st3" d="M46.6,110c-6.2,1.2-12.5,2.3-18.7,3.5c0-3.4,0-7,0-10.4c6.4,2.1,12.6,4.1,18.9,6.1
		C46.7,109.5,46.7,109.7,46.6,110z"/>
	<path class="st5" d="M342.2,285.5c-1.6,3.4-3.2,6.9-4.8,10.3c-0.4,0.1-0.8,0.2-1.1,0.3c-0.6-2.1-2.3-5-1.5-6.2
		c1.6-2.3,4.6-3.6,7-5.2C341.8,284.9,342,285.2,342.2,285.5z"/>
	<path class="st3" d="M28,66.7c2.9,1.8,5.4,3.4,8.7,5.5c-3.4,0.6-5.9,1.1-8.7,1.6C28,71.6,28,69.5,28,66.7z"/>
	<path d="M381.3,492c0.7-5.7,1.1-11,2.3-16.2c0.4-1.7,2.5-3.8,4.3-4.4c9.8-3.1,19.8-2.3,29.5,0.4c1.5,0.4,3.5,2.5,3.6,3.8
		c0.4,9.8,0.3,19.5,0.3,29.3c0,3.8-2.3,5.9-5.9,7c-9.7,3.1-19.4,2.1-29.1,0c-1-0.2-2.3-1.9-2.5-3.1
		C382.8,503.2,382.1,497.4,381.3,492z M389,474.2c4.9,5.6,9,10.2,12.1,13.7c4.9-4.3,9.6-8.3,14.2-12.3c-0.1-0.5-0.2-0.9-0.3-1.4
		C406.9,474.2,398.7,474.2,389,474.2z M387.6,477.9c-0.5,0.2-0.9,0.3-1.4,0.5c0,8.8,0,17.7,0,25.5c4.5-3.8,9.2-7.8,13.9-11.8
		C395.7,487,391.6,482.5,387.6,477.9z M402.4,494.7c-4.6,4.8-8.8,9.2-13.5,14.3c9,1.7,16.9,2.3,25.7-0.5
		C410.2,503.5,406.5,499.3,402.4,494.7z M418.1,480.6c-4.2,3.7-8.5,7.5-13.2,11.6c4.1,4.7,8,9.1,11.9,13.5c0.4-0.2,0.9-0.3,1.3-0.5
		C418.1,496.7,418.1,488.2,418.1,480.6z"/>
	<path d="M329.1,494c-0.9,19.5-1.3,22.8-21,21.8c-17.2-0.9-16-0.7-18.4-17c-0.8-5.3,0.3-10.9,0.5-16.3c0.2-5.6,3.6-8.7,8.7-8.9
		c6.9-0.3,13.8,0.1,20.6,0.6c5,0.4,7.4,3.8,8,8.7C328.1,487.1,328.7,491.4,329.1,494z M323.7,508.7c2.7-9.9,2-18.6-0.5-28.4
		c-4.4,5.2-8.2,9.7-12,14.3C315.4,499.3,319.2,503.6,323.7,508.7z M296.4,477.9c4.5,5,8.3,9.4,12.4,14c4.1-4.8,7.6-9,11.5-13.6
		C312.3,475.1,305,475.2,296.4,477.9z M293.8,506.9c0.7,0.1,1.3,0.2,2,0.3c3.5-4.1,7-8.2,10.7-12.6c-4.1-4.6-7.8-8.8-11.6-13
		c-0.4,0.2-0.7,0.4-1.1,0.6C293.8,490.4,293.8,498.7,293.8,506.9z M308.9,497.3c-4,4.7-7.4,8.7-11.4,13.4c8.3,2.1,15.5,2.6,23.6,0.3
		C316.8,506.2,313.1,502,308.9,497.3z"/>
	<path d="M214.9,460.6c6.8,1.9,13.6,3.6,20.4,5.7c1.3,0.4,3.1,2.2,3.2,3.4c0.3,8.4,0.5,16.9,0.3,25.3c-0.1,4.5-3.1,6.5-7.3,7.6
		c-9.9,2.8-19.1,0.1-28.3-2.9c-1-0.3-2.1-1.9-2.1-3c-0.4-10.1-0.7-20.2-0.7-30.3c0-1.2,2.3-3.2,3.8-3.5c3.4-0.8,6.9-0.8,10.4-1.1
		C214.6,461.4,214.7,461,214.9,460.6z M232.2,469.4c-0.1-0.8-0.1-1.5-0.2-2.3c-8.3-0.7-16.7-1.3-25-2c0,0.5-0.1,1-0.1,1.4
		c4.4,4.3,8.8,8.6,13.5,13.2C224.1,476.6,228.2,473,232.2,469.4z M231.7,498.8c-4.7-4.3-8.9-8.1-13.5-12.3
		c-3.2,2.7-7.3,6.3-11.8,10.2C214.8,500.2,222.7,501.5,231.7,498.8z M235.5,495.9c0-8.2,0-15.7,0-24.5c-5.2,4.5-9.3,8-13.6,11.8
		C226.5,487.5,230.5,491.2,235.5,495.9z M203.6,492.8c0.5,0.1,0.9,0.3,1.4,0.4c3.9-3.4,7.8-6.8,11.6-10.1c-4.5-4.6-8.5-8.7-13-13.3
		C203.6,477.9,203.6,485.4,203.6,492.8z"/>
	<path d="M47.2,412.7c4.6,3.2,9.3,6.3,13.7,9.6c1.2,0.9,2.4,2.6,2.6,4c1.3,9.1,1.1,18.2-1.8,27.1c-1.1,3.3-3,5.2-6.4,5.2
		c-3.8,0.1-7.7,0.3-11.4-0.2c-8.3-1.1-12.3-4.5-13.1-12.8c-0.9-8.7-0.7-17.5-0.7-26.3c0-5.1,2.9-7.4,8-7c3.1,0.3,6.2,0.3,9.3,0.5
		C47.3,412.8,47.2,412.7,47.2,412.7z M33.9,417.9c-2.4,11.7-1.5,21.7,1.4,33.1c3.6-3.9,6.5-6.9,9.1-10c0.6-0.8,1-2.6,0.5-3.4
		C41.7,431.4,38.1,425.3,33.9,417.9z M59.2,425.7c-5.9-6.2-12.6-9.9-22.2-9.6c4.2,7.3,7.8,13.8,11.7,20.6c3.2-3.2,5.9-5.8,8.6-8.5
		C57.9,427.5,58.4,426.6,59.2,425.7z M61.1,431.7c-0.7-0.4-1.5-0.8-2.2-1.2c-2.3,2.7-4.7,5.4-6.9,8.2c-0.5,0.6-0.8,2-0.5,2.6
		c1.9,3.6,4,7.1,6,10.6c0.6-0.1,1.1-0.2,1.7-0.2C59.8,445,60.4,438.4,61.1,431.7z M48.7,444c-3.6,3.1-6.9,5.8-10.2,8.6
		c0.1,0.5,0.2,1,0.4,1.5c5,0.5,10.1,1,16.5,1.6C52.5,450.8,50.5,447.1,48.7,444z"/>
	<path d="M120.5,461.4c0-1.3-0.1-2.7,0-4c0.5-10.7,1.5-11.8,12.4-11.9c3,0,6,0.4,8.9,1.2c8.6,2.4,13.1,7.3,13.4,16.2
		c0.3,6.9-0.7,13.9-1.2,20.9c-0.2,3.4-2.5,4.8-5.6,5.2c-8,1.2-15.6-0.7-22.8-3.9c-1.2-0.5-2.2-2.5-2.5-3.9
		c-1.2-6.5-2.2-13.1-3.3-19.6C120,461.5,120.3,461.5,120.5,461.4z M149.7,456c-6.4-6.6-15.7-8.7-22.3-5.3
		c3.8,5.2,7.6,10.4,11.5,15.6C142.6,462.7,146.1,459.5,149.7,456z M125.6,454.2c-0.7,0.1-1.4,0.2-2,0.3c0.7,8.1,1.4,16.2,2.1,25.3
		c3.9-3.7,6.7-6,9.1-8.8c0.7-0.8,0.8-3.1,0.2-4.1C132,462.6,128.7,458.4,125.6,454.2z M139.5,473.2c-3.7,3.1-7,5.9-10.9,9.2
		c6.8,3,12.7,4.3,19.8,2.8C145,480.5,142.1,476.6,139.5,473.2z M141.4,469.7c3,4,5.8,7.7,8.5,11.4c0.4-0.2,0.9-0.4,1.3-0.5
		c0-6.6,0-13.3,0-21C147.6,463.3,144.7,466.3,141.4,469.7z"/>
	<path d="M323.9,126.7c0-5.7,0-11.3,0-18C327.4,112.3,327.4,122.9,323.9,126.7z"/>
	<path d="M333.6,125.5c-1.8-5.2-0.2-10.1,1.1-15.4C337.7,112.7,337.2,120.4,333.6,125.5z"/>
	<path d="M332.9,179.8c-0.8-4.7-1.5-9.3-2.3-14c1-0.2,1.9-0.3,2.9-0.5c0.8,4.7,1.5,9.3,2.3,14C334.8,179.5,333.8,179.7,332.9,179.8z
		"/>
	<path d="M303.3,168.4c3.1-3.5,6.2-7,9.9-11.3c0.9,4.9-3.6,10.6-8.4,12.5C304.3,169.3,303.8,168.9,303.3,168.4z"/>
	<path d="M313.7,114.6c2,4.2,4.1,8.4,6.1,12.7c-4.8-0.7-8.3-7.5-7.7-11.9C312.6,115.1,313.1,114.8,313.7,114.6z"/>
	<path d="M341.6,160c2.2,4.1,4.4,8.3,6.6,12.4c-4.9-0.6-8.6-7.2-8.2-11.6C340.6,160.5,341.1,160.3,341.6,160z"/>
	<path d="M356.1,162.7c-3.7,0.3-9.5-4.5-11-9C348.8,153.4,354.6,158.1,356.1,162.7z"/>
	<path d="M344.3,128.4c4.2-1.1,8.4-2.2,13.9-3.7c-2.7,4.9-8.9,6.8-13.3,5.4C344.6,129.6,344.5,129,344.3,128.4z"/>
	<path d="M359.4,149.8c-4.4,0.4-8.7,0.6-12.8-1.4c0.1-0.8,0.2-1.6,0.3-2.3c4.3,0.4,8.6,0.8,12.9,1.2
		C359.6,148.2,359.5,149,359.4,149.8z"/>
	<path d="M360.5,137.5c-4.2,2.5-8.5,3.1-12.8,0.8C351.8,135.3,356.2,136.2,360.5,137.5z"/>
	<path d="M350.4,119.1c-3.6,2.5-7.2,5-10.8,7.5C339.9,121.5,345.4,117.6,350.4,119.1z"/>
	<path d="M322.5,179.2c0-5.1,0-9.1,0-13.7C326.1,168.7,326.1,174.3,322.5,179.2z"/>
	<path d="M298.6,162c0.5-5.1,5.4-8.2,10.2-6.6C305.4,157.6,302,159.8,298.6,162z"/>
	<path d="M296.3,147.5c3.6-0.8,7.2-1.6,11.8-2.7c-2.4,4.6-6.6,5.8-11.3,4.4C296.7,148.6,296.5,148.1,296.3,147.5z"/>
	<path d="M318.1,162.8c0.9,4-0.6,7.5-2.5,10.8c-0.8-0.2-1.6-0.4-2.4-0.6c0.9-3.6,1.8-7.1,2.8-10.7
		C316.7,162.4,317.4,162.6,318.1,162.8z"/>
	<path d="M299.3,133.9c3,1.4,6.1,2.8,9.1,4.3c0.3,0.2,0.5,1.3,0.3,1.7c-0.2,0.4-1.2,1-1.5,0.8c-3-1.3-6-2.8-9-4.2
		C298.5,135.7,298.9,134.8,299.3,133.9z"/>
	<path d="M305,124.3c2.7,2.4,5.4,4.9,8.2,7.3c-0.5,0.5-1,1.1-1.4,1.6c-3.8-1.2-6.5-3.7-8.4-7.2C303.9,125.5,304.5,124.9,305,124.3z"
		/>
	<path d="M191.6,154.7c0,5.3,0,10.7,0,17C188.2,167.7,188,158.1,191.6,154.7z"/>
	<path d="M196.1,203.9c3.7,4.5,4.5,14.1,1.9,19.1C195,216.8,195.7,211.1,196.1,203.9z"/>
	<path d="M175,215.5c-0.9-5.5,5.2-13.6,10.6-13.8C182.4,205.9,179.1,210.2,175,215.5z"/>
	<path d="M190.1,203.2c-0.3,6.7,0.3,12.1-2.7,17.8C184.9,216,186,206.7,190.1,203.2z"/>
	<path d="M200.9,155c-0.6,5-1.1,9.9-1.7,15.5c-3.8-3-3.2-12,0-15.8C199.7,154.8,200.3,154.9,200.9,155z"/>
	<path d="M208.1,220.1c-3.5-2.9-5.8-11.2-2.8-15c1.5,4.8,3,9.6,4.5,14.4C209.3,219.7,208.7,219.9,208.1,220.1z"/>
	<path d="M180.4,196.3c-3.8,3.2-7.6,6.5-12.4,10.5c0.3-5.4,6.5-11.1,11.1-11.9C179.6,195.3,180,195.8,180.4,196.3z"/>
	<path d="M212.7,178.9c4.5-1.3,9-2.7,13.4-4c-1.5,4.7-8.7,7.1-12.9,5.8C213,180,212.8,179.5,212.7,178.9z"/>
	<path d="M227.2,188.1c-4,0-8,0-12.6,0C217.5,184.8,223.1,184.5,227.2,188.1z"/>
	<path d="M169.2,166.7c3.8-0.6,8.5,2.5,10.2,6.7C175.6,174,170.9,170.8,169.2,166.7z"/>
	<path d="M212.3,159.1c-2.3,3.3-4.7,6.5-7,9.8c-1.7-4.5,1.4-9.2,5.5-10.9C211.3,158.4,211.8,158.7,212.3,159.1z"/>
	<path d="M165.1,179.1c4.6,0,8.6,0,13.6,0C174.6,182.7,169,182.5,165.1,179.1z"/>
	<path d="M177.3,191.6c-3.7,0.2-7.3,0.5-12,0.7C168.6,187.9,173.8,187.5,177.3,191.6z"/>
	<path d="M184.1,171.2c-1.7-3.3-3.4-6.6-5.1-9.9c0.6-0.3,1.2-0.6,1.9-1c3.4,2.4,4.7,5.9,5.8,9.6
		C185.7,170.3,184.9,170.8,184.1,171.2z"/>
	<path d="M219.1,199.7c-2.1-0.9-3.8-1.6-5.4-2.3c1.6-0.7,3.1-1.8,4.7-1.9c1.7-0.1,3.4,0.9,5.2,1.5
		C222.2,197.8,220.7,198.7,219.1,199.7z"/>
	<path d="M219.4,168.1c-3,1.4-6,2.9-9,4.3c-0.3-0.6-0.6-1.2-0.9-1.8c1.9-3.4,5.3-4.1,8.9-4.6C218.7,166.8,219.1,167.4,219.4,168.1z"
		/>
	<path d="M215.7,209.1c-2.4-1.8-4.8-3.7-7.2-5.5c0.5-0.7,1-1.4,1.5-2.1c2.5,1.7,5,3.5,7.5,5.2C216.9,207.5,216.3,208.3,215.7,209.1z
		"/>
	<path d="M114.2,255.3c-0.1,8.8-7,16-15.4,15.8c-8.1-0.2-14.7-7.4-14.6-16c0.1-8.8,7.1-16,15.4-15.8
		C107.6,239.5,114.2,246.7,114.2,255.3z M111,255.1c0-7.2-5.4-12.9-11.9-12.9c-6.6,0.1-11.8,5.8-11.8,13c0,7.1,5.4,12.9,11.9,12.9
		C105.8,268.1,111.1,262.2,111,255.1z"/>
	<path d="M88.5,222.4c2.8,6.2,2.2,11.9,1.7,18.2C86.5,237.7,85.6,227.5,88.5,222.4z"/>
	<path d="M98.8,289.7c-2.4-2.9-1.9-12.6,0.8-16.1C102,276.6,101.5,286.2,98.8,289.7z"/>
	<path d="M98.5,233.7c0-4.9,0-9.9,0-14.9C101.7,220.5,102.5,229.4,98.5,233.7z"/>
	<path d="M110.4,272.5c5.8-1,13.3,4.8,14,10.7C119.4,279.4,115.4,276.3,110.4,272.5z"/>
	<path d="M77.5,283.6c1.6-6.5,4.2-10.8,8.1-15C86.9,272.8,83,280.3,77.5,283.6z"/>
	<path d="M109.9,238.5c3.8-3.2,7.6-6.5,11.9-10.2c0.7,4.8-5.9,11.1-10.7,11.5C110.6,239.4,110.2,239,109.9,238.5z"/>
	<path d="M118.4,259c4.6,0.6,9.2,1.1,14.5,1.8c-3,3.7-11,3.2-14.8,0C118.2,260.1,118.3,259.5,118.4,259z"/>
	<path d="M104.8,234.4c2.1-4.2,4.1-8.4,6.7-13.6c2.1,4.7-0.9,11.5-5,14.4C106,235,105.4,234.7,104.8,234.4z"/>
	<path d="M109.3,287.4c-3-2.3-4.7-10-3-13.8C109.5,276,111.1,283.5,109.3,287.4z"/>
	<path d="M77.4,253c-3.5-3.1-7-6.1-11.3-9.9c5.2-0.7,10.8,3.8,12.6,8.5C78.2,252,77.8,252.5,77.4,253z"/>
	<path d="M77.1,231.7c3.7,1.6,6.9,7.6,6.2,11.7C79.6,241.8,76.5,235.9,77.1,231.7z"/>
	<path d="M117.1,251.8c5.1-0.4,9.3-2,14.4-0.3C126.9,255.3,119.8,255.5,117.1,251.8z"/>
	<path d="M116.7,242.5c3.8-1.2,7.6-2.4,12.5-3.9C127.1,243.7,121,245.6,116.7,242.5z"/>
	<path d="M92.9,274.6c-1,3.9-1.9,7.7-2.9,11.6c-3.2-3.8-2-9.2,1.2-12.1C91.8,274.3,92.4,274.5,92.9,274.6z"/>
	<path d="M129.3,270.8c-4.9,1.4-10-1-12.6-5.6C121.9,265,125,267.8,129.3,270.8z"/>
	<path d="M79.2,258.6c-3.7,0.4-7.4,0.7-11,1.1c-0.1-0.7-0.1-1.4-0.2-2.2c3.5-2.2,7.2-2.1,11-1.6C79.1,256.9,79.2,257.8,79.2,258.6z"
		/>
	<path d="M82.4,265.5c-2.7,2-5.5,4-8.2,6c-0.6-0.8-1.1-1.6-1.7-2.4c2.7-2,5.5-4,8.2-5.9C81.3,264,81.8,264.8,82.4,265.5z"/>
	<path d="M329.7,387.7c0-5,0-10,0-15.9C333.1,375.4,333.3,383.9,329.7,387.7z"/>
	<path d="M327,329.2c2.6,2.8,3.3,12.6,1.1,16.9C325.2,343.9,324.6,333.4,327,329.2z"/>
	<path d="M357.9,342c-2.2,3.8-9.1,7.1-13.4,4.8c4.2-2.1,8.4-4.2,12.6-6.3C357.3,341,357.6,341.5,357.9,342z"/>
	<path d="M318.2,349.1c-3.4-2.5-5.9-10.8-3-14.9c1.5,4.8,3,9.6,4.6,14.3C319.3,348.7,318.8,348.9,318.2,349.1z"/>
	<path d="M345.2,385.9c-3.6-1.5-7.3-9.1-6.6-13.6C342.1,373.7,345.8,381.4,345.2,385.9z"/>
	<path d="M334.7,342.7c0-4.4,0-8.7,0-13.8C338.1,332.2,338.4,338.7,334.7,342.7z"/>
	<path d="M361.1,356.7c-4.4-0.2-8.7-0.5-13.1-0.7c0-0.7,0.1-1.4,0.1-2.1c4.4,0,8.7,0,13.1,0C361.2,354.8,361.1,355.8,361.1,356.7z"
		/>
	<path d="M314.4,355.4c-4,1.3-9.5-2.3-11.6-7.4C308.4,348.5,311.1,352.5,314.4,355.4z"/>
	<path d="M348.2,359.3c4.1,1.4,8.3,2.7,13.4,4.4c-4.5,2.7-10.6,1.1-14-2.6C347.8,360.6,348,360,348.2,359.3z"/>
	<path d="M350.2,334.1c-2.6,5-4.6,9-9.2,11.8C341,340.7,345,335.3,350.2,334.1z"/>
	<path d="M324.2,372.9c-1.8,3.9-3.7,7.9-5.9,12.7C316,380.8,319,374.1,324.2,372.9z"/>
	<path d="M305.7,376.6c1.7-4,7.3-7.5,11.9-5.7c-3.6,2.4-7.3,4.7-10.9,7.1C306.4,377.6,306.1,377.1,305.7,376.6z"/>
	<path d="M299.6,358.3c3.8,1.1,7.7,2.3,11.5,3.4c-4,3-9.2,1.7-12.1-1.7C299.2,359.4,299.4,358.9,299.6,358.3z"/>
	<path d="M351.5,374.9c-4.6,0.7-7.4-1.8-9.9-5C346.3,369.1,349.1,371.7,351.5,374.9z"/>
	<path d="M352.8,371c-2.6-1.6-5.1-3.2-7.7-4.8c0.5-0.8,1-1.5,1.5-2.3c2.6,1.6,5.1,3.2,7.7,4.8C353.7,369.5,353.3,370.3,352.8,371z"
		/>
	<path d="M300.3,246.9c1,1.4,2,2.7,2.8,4.1c3.9,6.3,1.8,14.5-4.5,18.2c-6.2,3.7-14.1,1.7-17.9-4.4c-3.9-6.3-1.9-14.6,4.6-18.2
		c2.1-1.2,4.6-1.8,7.2-2.7c0.1-2.5,0.2-5.1,0.5-7.7c0.2-2.4,0.7-4.8,2.2-7.1c2.2,5.3,1.1,10.5,0.5,16c1.6,0.6,3.2,1.3,4.8,1.9
		L300.3,246.9z M302,257.8c-0.1-5.7-4.6-10.1-10.2-10c-5.6,0.1-10.1,4.7-10,10.2c0.1,5.5,4.8,10.1,10.3,10
		C297.6,268,302.1,263.4,302,257.8z"/>
	<path d="M283.3,271.1c-3,4.5-6,8.9-8.9,13.4c-1.8-4.5,3.3-12.6,7.5-14.4C282.3,270.4,282.8,270.7,283.3,271.1z"/>
	<path d="M297.9,287.7c-2.7-6.6-3.1-12.5-1.2-15.2C299.9,276.2,300.8,285.4,297.9,287.7z"/>
	<path d="M287.5,290c0-6.4,0-11.4,0-17.4C291.1,276.3,291,284.5,287.5,290z"/>
	<path d="M284.3,228.3c3,5.5,2.3,10.6,2,16.1C282.6,242,281.6,233.9,284.3,228.3z"/>
	<path d="M277.2,248.6c-3.6-2.9-7.3-5.9-11.7-9.4C271,238.1,277.6,243.2,277.2,248.6z"/>
	<path d="M264.7,254.2c4.7,0,8.6,0,13.5,0C273.9,257.9,267.6,257.7,264.7,254.2z"/>
	<path d="M300.4,247c1.6-4.3,3.1-8.6,5.1-14c3,6.1-0.7,13.8-5.2,13.9C300.3,246.9,300.4,247,300.4,247z"/>
	<path d="M307,262.3c4,1.7,7.9,3.4,12.9,5.5c-5.1,2.4-12-0.3-13.7-4.2C306.5,263.2,306.8,262.7,307,262.3z"/>
	<path d="M265.2,269.1c4.1-1.5,8.1-3.1,13.3-5c-2,5-7.9,7.6-12.6,6.8C265.6,270.2,265.4,269.7,265.2,269.1z"/>
	<path d="M320.3,257c-4,0.8-8,1.5-11.9,2.3c-0.2-1-0.4-1.9-0.6-2.9c4-0.8,7.9-1.6,11.9-2.3C319.9,255.1,320.1,256.1,320.3,257z"/>
	<path d="M315.5,245.1c-1.3,3.7-6.2,6.7-10.4,6.3C306.4,247.6,311.3,244.6,315.5,245.1z"/>
	<path d="M304.2,269.4c2.7,2.9,5.4,5.9,8.1,8.8c-4.9,0.6-8.8-3.4-9.4-7.7C303.3,270.1,303.8,269.8,304.2,269.4z"/>
	<path d="M183.3,343.4c2.2-4.9,4.5-9.7,7.2-15.6c2.1,4.8-1.5,13.6-5.5,16.4C184.5,344,183.9,343.7,183.3,343.4z"/>
	<path d="M184.2,327.7c-3.2,3.6-6.3,7-9.6,10.8C173.6,333.8,180,327.3,184.2,327.7z"/>
	<path d="M196.7,346.4c0-5.9,0-10.5,0-16.1C200.2,334.3,200.3,341.8,196.7,346.4z"/>
	<path d="M177.1,288.6c2.1,4.2,4.2,8.4,6.8,13.6c-5.2-1.6-8.8-8.2-8.5-12.8C176,289.1,176.6,288.8,177.1,288.6z"/>
	<path d="M204.6,330.3c3.8,1.3,7.3,7.1,6.8,11.2C207.7,340.2,204.1,334.4,204.6,330.3z"/>
	<path d="M186.8,297.8c-0.4-4.6-0.8-9.3-1.3-15c4.2,3.1,5.1,10.1,3.1,14.8C188,297.6,187.4,297.7,186.8,297.8z"/>
	<path d="M165.4,301.4c5.8-0.8,11.6,3.9,11.1,9.1C173.1,307.8,169.7,305,165.4,301.4z"/>
	<path d="M166.3,326c4.2-1.1,8.4-2.2,13.5-3.6C177.6,327.2,170.6,329.3,166.3,326z"/>
	<ellipse cx="199.2" cy="289.2" rx="1.2" ry="10.7"/>
	<path d="M209.8,323.3c3.3,2.3,6.5,4.6,9.8,7c-4.6,1.7-9.3-1.5-10.9-5.6C209.1,324.2,209.5,323.8,209.8,323.3z"/>
	<path d="M204.7,298.1c-0.9-3.9,1.8-8.9,5.5-10.7C211.1,291.2,208.5,296.3,204.7,298.1z"/>
	<path d="M179.6,317c-3.6,1.7-7.3,0.1-11-0.5c-0.4-0.1-1-1.2-0.8-1.5c0.3-0.6,1.1-1.5,1.7-1.4c3.5,0.3,6.9,0.8,10.3,1.2
		C179.7,315.6,179.7,316.3,179.6,317z"/>
	<path d="M225.6,320c-3.4,1.7-6.9,0.2-10.3-0.6c-0.3-0.1-0.6-1.2-0.4-1.7c0.2-0.5,1-1.1,1.5-1c3.1,0.3,6.3,0.7,9.4,1.1
		C225.7,318.5,225.6,319.2,225.6,320z"/>
	<path d="M102.6,112.8c0.7-5.2,1.4-10.5,2.1-16.3C108.6,99.6,107.5,109.9,102.6,112.8z"/>
	<path d="M94.1,96.4c0.9,5,1.7,9.9,2.6,14.9c-4.5-2.4-6.1-11.2-4.2-14.7C93,96.5,93.6,96.5,94.1,96.4z"/>
	<path d="M83.9,147c-2.8,4.2-5.7,8.3-8.5,12.5c-1.8-4.6,2.9-11.9,7.1-13.6C82.9,146.3,83.4,146.6,83.9,147z"/>
	<path d="M91.7,147.8c-1.3,4.4-2.7,8.7-4.1,13.3c-3.6-2.4-1.6-10.9,2.6-13.8C90.7,147.4,91.2,147.6,91.7,147.8z"/>
	<path d="M106.2,160.2c-1.1-4.5-2.3-9-3.4-13.6c4.7,1.6,6.6,8.6,5.1,13.1C107.3,159.9,106.8,160.1,106.2,160.2z"/>
	<path d="M78.6,105.3c3.9,1.3,7.6,7,7.2,11C81.9,115,78.2,109.3,78.6,105.3z"/>
	<path d="M112.7,121.4c4.2-1.1,8.4-2.2,12.6-3.3c-1.5,4.6-7.8,6.5-12.1,5C113.1,122.5,112.9,122,112.7,121.4z"/>
	<path d="M95.6,161.7c0-4.9,0-9.2,0-14.6C99.2,151.2,99,157.8,95.6,161.7z"/>
	<path d="M116.6,155.3c-3.9-1.8-6.7-6.8-5.9-10.6C114.6,146.5,117.4,151.5,116.6,155.3z"/>
	<path d="M115.8,137.8c3.3,2.3,6.6,4.7,10.9,7.7c-5.4,1-10.2-2.1-12-6.3C115.1,138.8,115.4,138.3,115.8,137.8z"/>
	<path d="M127.4,132.8c-4,0.2-8.1,0.9-11.7-1.6c0.1-0.7,0.2-1.4,0.3-2.1c4,0.4,7.9,0.8,11.9,1.2C127.6,131.1,127.5,132,127.4,132.8z
		"/>
	<path d="M119.8,109.8c-2.8,2.4-5.7,4.7-8.5,7.1c-0.5-0.5-0.9-1.1-1.4-1.6c1.7-3.6,4.6-6,8.3-7.3
		C118.7,108.6,119.2,109.2,119.8,109.8z"/>
	<path d="M66.9,141.3c3.5-1,6.9-2,11.5-3.4C75.6,143,70.4,144.6,66.9,141.3z"/>
	<path d="M74.9,132.6c-3.2-1-6.4-1.9-9.6-2.9c0.3-0.9,0.6-1.9,0.8-2.8c3.2,1,6.4,1.9,9.6,2.9C75.5,130.8,75.2,131.7,74.9,132.6z"/>
	<path d="M74,114.5c2.3,2.4,4.5,4.8,7.2,7.7c-4.7,0.9-7.8-2-8.4-6.6C73.3,115.2,73.7,114.8,74,114.5z"/>
	<path class="st4" d="M389,474.2c9.6,0,17.9,0,26.1,0c0.1,0.5,0.2,0.9,0.3,1.4c-4.7,4-9.3,8-14.2,12.3
		C398.1,484.4,394,479.8,389,474.2z"/>
	<path class="st4" d="M387.6,477.9c4,4.6,8.1,9.1,12.6,14.2c-4.8,4.1-9.4,8-13.9,11.8c0-7.8,0-16.7,0-25.5
		C386.6,478.2,387.1,478,387.6,477.9z"/>
	<path class="st4" d="M402.4,494.7c4,4.6,7.8,8.8,12.2,13.8c-8.8,2.8-16.7,2.1-25.7,0.5C393.6,503.9,397.8,499.5,402.4,494.7z"/>
	<path class="st4" d="M418.1,480.6c0,7.7,0,16.1,0,24.6c-0.4,0.2-0.9,0.3-1.3,0.5c-3.9-4.4-7.8-8.8-11.9-13.5
		C409.6,488,413.9,484.3,418.1,480.6z"/>
	<path class="st4" d="M323.7,508.7c-4.6-5.1-8.4-9.4-12.6-14.1c3.9-4.6,7.6-9.1,12-14.3C325.8,490.1,326.5,498.8,323.7,508.7z"/>
	<path class="st4" d="M296.4,477.9c8.6-2.7,16-2.8,23.9,0.4c-3.9,4.6-7.4,8.8-11.5,13.6C304.7,487.3,300.8,483,296.4,477.9z"/>
	<path class="st4" d="M293.8,506.9c0-8.2,0-16.5,0-24.7c0.4-0.2,0.7-0.4,1.1-0.6c3.8,4.2,7.5,8.5,11.6,13
		c-3.7,4.4-7.2,8.5-10.7,12.6C295.1,507.1,294.4,507,293.8,506.9z"/>
	<path class="st4" d="M308.9,497.3c4.2,4.7,7.9,8.9,12.2,13.7c-8.1,2.3-15.4,1.8-23.6-0.3C301.4,506,304.9,502,308.9,497.3z"/>
	<path class="st4" d="M232.2,469.4c-4.1,3.6-8.1,7.1-11.8,10.4c-4.7-4.6-9.1-8.9-13.5-13.2c0-0.5,0.1-1,0.1-1.4
		c8.3,0.7,16.7,1.3,25,2C232.1,467.9,232.2,468.7,232.2,469.4z"/>
	<path class="st4" d="M231.7,498.8c-9,2.7-16.9,1.5-25.4-2.1c4.6-4,8.7-7.5,11.8-10.2C222.8,490.7,227,494.5,231.7,498.8z"/>
	<path class="st4" d="M235.5,495.9c-5-4.7-9-8.5-13.6-12.8c4.3-3.8,8.4-7.3,13.6-11.8C235.5,480.2,235.5,487.7,235.5,495.9z"/>
	<path class="st4" d="M203.6,492.8c0-7.4,0-14.9,0-23c4.6,4.7,8.5,8.7,13,13.3c-3.8,3.3-7.7,6.7-11.6,10.1
		C204.5,493.1,204,492.9,203.6,492.8z"/>
	<path class="st4" d="M33.9,417.9c4.2,7.4,7.7,13.5,11,19.7c0.4,0.8,0.1,2.6-0.5,3.4c-2.6,3.2-5.5,6.1-9.1,10
		C32.4,439.6,31.6,429.6,33.9,417.9z"/>
	<path class="st4" d="M59.2,425.7c-0.8,1-1.3,1.8-2,2.5c-2.7,2.7-5.4,5.3-8.6,8.5c-3.9-6.8-7.5-13.3-11.7-20.6
		C46.6,415.7,53.3,419.4,59.2,425.7z"/>
	<path class="st4" d="M61.1,431.7c-0.6,6.7-1.3,13.4-1.9,20.1c-0.6,0.1-1.1,0.2-1.7,0.2c-2-3.5-4.1-7-6-10.6c-0.3-0.6,0-2,0.5-2.6
		c2.2-2.8,4.6-5.5,6.9-8.2C59.6,430.9,60.3,431.3,61.1,431.7z"/>
	<path class="st4" d="M48.7,444c1.7,3.1,3.8,6.8,6.6,11.8c-6.4-0.6-11.4-1.1-16.5-1.6c-0.1-0.5-0.2-1-0.4-1.5
		C41.8,449.8,45.1,447.1,48.7,444z"/>
	<path class="st4" d="M149.7,456c-3.7,3.5-7.1,6.7-10.9,10.2c-3.8-5.2-7.6-10.4-11.5-15.6C134.1,447.2,143.4,449.4,149.7,456z"/>
	<path class="st4" d="M125.6,454.2c3.1,4.2,6.4,8.4,9.3,12.8c0.6,1,0.6,3.2-0.2,4.1c-2.4,2.7-5.2,5.1-9.1,8.8
		c-0.8-9.1-1.4-17.2-2.1-25.3C124.2,454.4,124.9,454.3,125.6,454.2z"/>
	<path class="st4" d="M139.5,473.2c2.5,3.4,5.4,7.3,8.9,12c-7.1,1.5-12.9,0.2-19.8-2.8C132.5,479.1,135.9,476.3,139.5,473.2z"/>
	<path class="st4" d="M141.4,469.7c3.3-3.4,6.2-6.4,9.9-10.2c0,7.8,0,14.4,0,21c-0.4,0.2-0.9,0.4-1.3,0.5
		C147.2,477.4,144.4,473.7,141.4,469.7z"/>
	<path class="st4" d="M111,255.1c0,7.1-5.3,13-11.8,13c-6.5,0-11.9-5.7-11.9-12.9c0-7.2,5.2-12.9,11.8-13
		C105.6,242.2,111,247.9,111,255.1z"/>
	<path class="st4" d="M302,257.8c0.1,5.6-4.4,10.2-10,10.3c-5.5,0.1-10.2-4.5-10.3-10c-0.1-5.6,4.4-10.1,10-10.2
		C297.4,247.7,302,252.1,302,257.8z"/>
	<g>
		<circle class="st7" cx="121" cy="661.5" r="84.7"/>
		<path class="st3" d="M108.8,645.1c-0.3,0-0.6,0-0.9-0.1c-1.6-0.1-3-0.5-3.6-2.1c-0.6-1.7,0.1-3,1.2-4.3c0.1-0.1,0.3-0.3,0.4-0.4
			c3.6-1.7,3.8-5,3.8-8.4c0-9.5,0-18.9-0.1-28.4c0-3.9-1.8-7.4-3.2-10.9c-0.4-1-0.3-2.2-0.5-3.3c1.1,0.2,2.3,0.2,3.3,0.7
			c2.5,1.2,4.9,2.5,7.2,4c5.1,3.2,7.3,7.8,6.5,13.9c-0.8,6.1-1.1,12.3-1.6,18.4c0,0.5,0,1,0,2.1c1.1-0.7,1.8-1.2,2.6-1.7
			c5.9-4.2,10.2-9.9,15-15.1c1.7-1.8,3.5-3.7,5.3-5.4c1.9-1.8,4.4-2.2,6.6-0.8c3.2,2.1,5.8,4.8,7.6,8.3c1.3,2.7,0.2,5.1-2.7,5.9
			c-2.8,0.7-5.1,2.2-7.4,3.7c-8.3,5.6-16.8,11.1-25.3,16.5c-1.8,1.2-2.4,2.7-2.5,4.6c0,1.2,0.6,1.5,1.6,1.2c5.2-1.6,10.1-3.8,14-7.8
			c2.3-2.3,4.4-2.8,7.1-1.3c1.8,1,3.5,2.1,5.1,3.3c2.3,1.8,2.6,4.1,0.7,6.3c-1,1.2-2.3,2.3-3.7,3c-5.7,2.8-10.4,6.9-14.8,11.3
			c-1.1,1.1-1.2,2.3-0.2,3.5c0.6,0.8,1.3,1.4,1.9,2.1c2.5,2.8,2.8,5.9,1,9.1c-4.4,7.8-5,16-2.5,24.5c1,3.5,3.9,4.8,7.1,5.5
			c9.5,1.9,18.6,0.3,27.5-2.9c1.8-0.6,2.1-1.3,1.3-3c-2.1-4.1-4.1-8.2-6.2-12.3c-0.4-0.8-0.7-1.5-1-2.3c-0.6-1.5-0.3-3,0.9-4.1
			c1.3-1.2,2.8-0.8,4.2-0.1c0.9,0.5,1.8,1.2,2.5,2c5.2,5.3,10.7,10.4,14.7,16.7c0.3,0.5,0.9,0.9,1.5,1.3c1.7,1.2,2.7,2.8,2.4,4.9
			c-0.3,2.2-1.7,3.6-3.8,4.4c-12.7,4.9-25.8,7.5-39.5,6.6c-5.8-0.4-11.5-1.2-16.4-4.5c-1.6-1.1-3.2-2.6-4.1-4.3
			c-4.5-7.8-4.9-16.4-3.5-25.1c0.4-2.6,1.2-5.1,1.7-7.7c0.2-1.2,0.3-2.3,0.5-3.5c-0.2-0.1-0.3-0.2-0.5-0.3c-0.8,0.8-1.7,1.7-2.5,2.5
			c-10.7,11-21.7,21.7-34.4,30.5c-2.7,1.9-5.5,3.5-8.3,5.3c-3.8,2.3-8.1,3.3-12.4,4c-0.6,0.1-1.5-0.3-1.8-0.7
			c-0.3-0.3-0.1-1.3,0.3-1.8c0.8-1,1.6-2.1,2.6-2.9c9.2-8,18.7-15.6,27.6-23.8c8.3-7.6,16.1-15.8,24.1-23.7c0.2-0.2,0.4-0.4,0.6-0.8
			c-4.3,1.3-8.4,2.7-12.6,3.7c-5.2,1.3-10.4,2.3-15.6,3.3c-1.2,0.2-2.6,0.1-3.7-0.2c-4.3-1.1-7.6-3.7-10.5-6.9
			c-0.6-0.6-1.2-2.2-0.9-2.6c0.6-0.8,1.9-0.9,2.8-1.4c0.1-0.1,0.4,0,0.5,0c8.1,1.4,15.7-1.1,23.3-3c2.4-0.6,4.9-1.3,7.3-2
			C108.3,647.8,108.6,647.4,108.8,645.1z"/>
		<path class="st3" d="M85.7,615.2c2.8,0,5.8,2.6,6.8,6c0.7,2.5,1.1,5.1,1.7,7.7c0.9,3.5,1.8,7.1,2.7,10.5c0.1,0.5,0.4,1,0.4,1.5
			c0,0.5-0.1,1.2-0.4,1.4s-1.1,0.3-1.5,0c-5.8-3.5-11.3-7.3-14.2-13.7c-1.4-2.9-1.6-6-1-9.1C80.8,616.9,82.9,615.2,85.7,615.2z"/>
	</g>
</g>
</svg>
