<?xml version="1.0" encoding="utf-8"?>
<!-- Generator: Adobe Illustrator 22.0.1, SVG Export Plug-In . SVG Version: 6.00 Build 0)  -->
<svg version="1.1" id="레이어_1" xmlns="http://www.w3.org/2000/svg" xmlns:xlink="http://www.w3.org/1999/xlink" x="0px"
	 y="0px" viewBox="0 0 500.9 780" style="enable-background:new 0 0 500.9 780;" xml:space="preserve">
<style type="text/css">
	.st0{fill:url(#SVGID_1_);stroke:#EB1A21;stroke-miterlimit:10;}
	.st1{fill:#FFFFFF;}
	.st2{fill:#FFC40A;stroke:#FFC40A;stroke-miterlimit:10;}
	.st3{stroke:#000000;stroke-miterlimit:10;}
	.st4{fill:#EB1A21;stroke:#EB1A21;stroke-miterlimit:10;}
	.st5{fill:#EC1D24;stroke:#000000;stroke-width:4;stroke-miterlimit:10;}
</style>
<linearGradient id="SVGID_1_" gradientUnits="userSpaceOnUse" x1="250.4" y1="778.5" x2="250.4" y2="-0.5" gradientTransform="matrix(1 0 0 -1 0 779)">
	<stop  offset="0" style="stop-color:#EB1A21"/>
	<stop  offset="1" style="stop-color:#A51A21"/>
</linearGradient>
<path class="st0" d="M0.4,0.5c166.7,0,333.3,0,500,0c0,259.7,0,519.3,0,779c-166.7,0-333.3,0-500,0C0.4,519.9,0.4,260.2,0.4,0.5z
	 M24.4,389.5c0,113.7,0,227.3,0,341c0,14.6,15.3,30,29.8,30c131.5,0,263,0,394.5,0c14.5,0,29.8-15.4,29.8-30c0-227.3,0-454.6,0-682
	c0-14.9-15.3-30-30.3-30c-131.2,0-262.3,0-393.5,0c-15.3,0-30.3,15.1-30.3,30.5C24.4,162.5,24.4,276,24.4,389.5z"/>
<polygon class="st1" points="378.3,418.5 377.5,417.8 355.8,398.7 342,407.1 344.4,421.8 345.7,457.5 344.4,480 342,493 
	338.1,508.9 330.4,528.5 326,538 329.1,543.1 333,553 334.4,561.5 331.8,567.5 320.3,588 309.3,609 300.3,632.8 295,652.8 
	293.4,662.9 293.8,681 293.1,692.9 290.4,694.5 259.6,694.1 259.6,690.8 262.4,676.7 263.1,672.8 240.2,673.9 229.2,673.8 
	226.9,671.5 234.5,656.3 240.5,647.1 243.9,641.7 248,631.8 256.5,598.8 258.8,569.4 257.3,552.1 252.6,539.3 247.3,533.5 
	237.6,527.3 224.1,516.2 215.5,507.8 209.4,501.4 197.1,505.6 177.1,511.2 159.6,514.7 145.2,517 137.3,517.9 137.3,529 
	136.3,546.6 133.4,558.2 129.2,571 127.1,578.7 138.4,580.4 152.2,584.4 171.6,595 185.4,607.6 195,621.1 204.2,644.5 206.3,656.8 
	205.7,673.9 200.8,693.6 192.4,709.9 184.6,720.8 172.9,730.8 158.5,739.6 139.6,746.2 121.2,748.5 101.1,745.6 81.4,738.5 
	66,727.3 54.9,716.8 50.8,712.5 44.8,713.4 40.4,712.6 38.6,711.4 40.8,704.8 43.5,699.3 40.5,688.1 36.3,661.2 38.8,645.6 
	45.9,623.8 50.9,614.9 49.5,613.9 42.8,590.6 39.8,570.2 39,560.3 39.5,531.9 41.8,513.8 44.8,496.1 41.5,490.9 28,470.7 
	26.8,470.8 26.8,481.3 26.3,506.5 26.3,592.8 26.3,673.5 26.3,733.8 29.6,742.1 37.7,752 50.1,758.1 71.6,758.9 103.5,758.9 
	190.1,758.9 252.5,757.9 259.6,753.6 275.1,742.4 288.9,727 305.9,705.4 314.9,694 321.9,681.9 327.5,660.1 333.5,644.3 340,626.3 
	349.3,605.4 356.4,587.1 362.9,571.8 372,551.3 381.4,530.9 392.6,507.5 404,485.4 410,471.4 404.3,473 392.8,477.5 383.8,479 
	375.9,478.4 365,477.6 356.8,476.9 352.8,475.4 352.3,469.1 355,455.1 360.4,437.8 365.6,428.9 373.5,421.6 "/>
<polygon class="st2" points="417.1,397.5 390.3,388.8 370.9,390 361.4,399.9 365.6,407.8 374.4,415.3 378.3,418.5 372.3,424.1 
	362.4,434.8 357.5,448.5 354.1,460.6 352.3,471.8 353.1,476 358.7,473 370.9,460.4 386,443.9 398.4,427.9 410,411.5 "/>
<polygon class="st2" points="421.4,409 419,448.8 421.4,447.9 434.6,423.1 "/>
<polygon class="st2" points="420.6,403.8 416.4,402.4 389.4,440.6 376,456.4 355.8,475.9 359.8,477.6 386.6,478.4 401.9,474 
	410.9,470 418.3,449.6 "/>
<path d="M24.4,389.5c0-113.5,0-227,0-340.5c0-15.4,15-30.5,30.3-30.5c131.2,0,262.3,0,393.5,0c15,0,30.3,15.1,30.3,30
	c0,227.3,0,454.6,0,682c0,14.6-15.3,30-29.8,30c-131.5,0-263,0-394.5,0c-14.5,0-29.8-15.4-29.8-30C24.4,616.8,24.4,503.2,24.4,389.5
	z M121.9,374.7c-1.1,0.1-2.2,0.2-3.3,0.3c-2.4-1.1-4.7-2.2-8.2-3.9c6.5,0,11.6,0,16.6,0c-1.3-0.4-2.6-0.5-4-0.6
	c-18.4-0.6-31.2-9.2-37.6-26.7c-0.7-2-1.7-4-2-6.1c-0.5-3.2-1.2-6.6-0.6-9.6c2.6-12.9,9.9-22.7,20.9-29.8c3.4-2.2,6.7-2.5,10.8-2.3
	c13.8,0.7,27.5,1,41.3,0.8c6-0.1,8.4-3.6,7.8-9.1c-5.2-0.2-10.8,2.9-15.7-1.6c7.1-2,15.4,0.5,20.9-6.3c-8.7-8.5-8.8-10-1.4-15
	c-1.5-0.9-3-1.6-4.4-2.5c-12.6-8.6-25.8-16.6-37.7-26.1c-14.8-11.8-31-16.2-49.4-14.2c-3.4,0.4-6.8,0.4-7.1,5.3
	c-1.2-0.6-2.1-0.9-2.6-1.4c-10.9-10.8-21.2-22.2-28.5-35.8c-1.7-3.2-2.3-6.1-1.3-9.9c2.8-10.8-0.7-22.8-7.8-28.3
	c0,13.8-0.1,27.5,0.1,41.1c0,1.6,0.7,3.3,1.6,4.6c6.8,9.9,13.7,19.7,20.5,29.5c1.1,1.6,2.2,3.1,3.4,4.8c-1.8,0.9-3.1,1.5-5.8,2.9
	c10.3,1.6,19.3,2.6,26.7,8.4c-2.4,0.5-4.6,0.1-6.6-0.6c-11.5-3.6-23-6.1-34.6-0.8c-2,0.9-3.6,3-5.3,4.6c1.6,1.7,2.9,3.9,4.9,5.1
	c11.7,7,24.7,8.6,37.9,9.2c1.7,0.1,3.4,0.6,5.1,1c-0.1,0.6-0.1,1.3-0.2,1.9c-7.7,1.4-15.4-0.5-23.2-0.8c1.6,10-4.1,15.1-10.1,18.4
	c-0.3,5.9,0.1,11-1,15.8c-1.2,5.3-4.7,9.4-10.8,10.5c4.5,7.8,1.2,13.9-2.9,20c8.2,7.4,6.2,15.1,1.2,22.8c6.5,7.5,6.6,11.1,0.5,22
	c4.7,5.7,5.3,12.1,1.9,18.5c-1.3,2.5-1,3.9,0.4,6.2c3.9,6.5,2.6,14.6-2.6,19.8c-0.7,0.7-1,2-1,3c-0.1,3.5-0.1,7,0,10.5
	c0.1,9.7-1.3,19.6,0.6,28.9c5.9,28.9,24,47.5,51.9,56.7c1.5-6.6,1.5-6.6-9.8-21.5c2.3,0.2,5,0.5,6.4,1.9c5.9,6,8.7,12.6,7.3,21.9
	c-4.5,29-3.8,58.1,0.9,87.1c1.9,11.6,3.5,23.3,9.8,33.8c3.1,5.2,5.5,11,6.8,16.9c1.9,9.1,2.6,18.4,3.9,28c5,0,10.5,0.1,15.9,0
	c3.8-0.1,5.4-1.7,4.9-6.1c-1.7-15.4-6.1-30-11.3-44.4c-0.6-1.8-1.1-3.8-1.1-5.8c0.3-18.4,4.3-36.1,11.2-53
	c6.4-15.5,10-31.3,9.8-48.1c-0.2-15-3-29.4-7.2-43.7c-0.5-1.6-0.4-3.4-0.6-5.1c0.7-0.1,1.4-0.2,2-0.4c5.2,11.9,6.8,24.8,9,38
	c4.7-0.5,9.2-0.9,13.6-1.5c30.1-4,58.4-13.2,84.4-29c3.4-2,4.8-3.9,4.1-8.3c-1-6.7-0.9-13.6-1.1-20.4c0-1.7,0.8-3.5,1.2-5.2
	c0.6,0,1.2,0.1,1.7,0.1c0.2,2,0.5,3.9,0.5,5.9c-0.2,36.4,10.6,68.2,39.2,92.4c1.7,1.4,3.5,2.7,4.8,4.4c1.9,2.4,4.1,4.9,4.9,7.7
	c4,14.6,2.9,29.6,0.2,44.1c-3.8,20-9.7,39.4-18.6,57.9c-0.3,0.6-0.3,1.2-0.6,2.7c4.5-0.8,8.5-1.5,12.6-2.1c3.6-0.5,5.2-2.2,6-6
	c6.8-30.6,17.6-59.7,35.6-85.8c5.9-8.5,4.3-23.1-3.1-30.5c-2.1-2.1-1.5-3.3-0.4-5.5c3.8-7.4,7.8-14.8,10.6-22.6
	c11-29.8,11-60.6,7.6-91.8c-0.9-7.9-6.6-15.7-1.6-24.1c2.4-4,1.8-10.3,8.5-10.6c-0.3-1.8-0.4-3-0.6-4.2c2-0.4,3.7-0.8,6.4-1.3
	c-5.5-6.2-8.8-12.7-15.9-16.5c-21.8-11.7-44.5-20.9-69.2-23c-17.2-1.5-34.5-2-50.1,8.1c-6,3.9-12.7,6.5-19.1,9.7
	c-0.4,0.2-1.1,0-1.6,0c-0.2-0.3-0.5-0.7-0.7-1c1.5-0.7,2.9-1.5,4.4-2.2c-0.5-0.6-0.9-1.1-1.4-1.7c-5.9,3.9-11.8,7.8-17.7,11.6
	c-1.5,0.9-3.2,1.9-4.8,2c-13.5,1-26.9,1.7-40.4,2.6c-1.5,0.1-3.9-0.1-4.2,0.6C131.2,378.5,126.2,374.9,121.9,374.7z M344.5,407.2
	c1.1,16.8,2.8,32.9,3.1,49c0.4,26-4.4,51.1-16.5,74.4c-2.6,5-3.6,8.3-0.1,13.9c6.6,10.8,4.1,22.3-2.7,32.5
	c-16.3,24.9-26.5,52.2-32.9,81c-0.8,3.6-0.1,7.5-0.1,11.2c0,7.1,0.2,14.3,0,21.4c-0.1,3.5-2,5.2-5.9,5.1c-9.3-0.2-18.7-0.1-28,0.1
	c-3.1,0.1-4.4-0.8-3.7-4c1.3-5.8,2.6-11.5,3.8-17c-10,0-20.5,0.1-31-0.1c-5-0.1-6.5-1.9-4.3-6.2c3.5-6.9,7.9-13.3,12-19.9
	c1.5-2.5,3.7-4.8,4.7-7.4c6.6-16.7,10.3-34.1,12.7-51.8c1.9-13.7,2-27.2-1.2-40.7c-1.7-7.1-5.2-12.6-11.8-16.5
	c-11.8-7-22.4-15.7-30.9-26.6c-2.1-2.7-3.7-2.6-6.6-1.7c-12.2,3.8-24.5,7.6-37,10.5c-9.5,2.2-19.3,3.2-29.2,4.7
	c0,3.8,0.1,7.4,0,11.1c-0.3,12.9-2.7,25.4-6.9,37.7c-4.3,12.4-8.3,24.9-11.7,37.5c-3.3,12.6-3,25.1,2,37.7c3.6,9.2,5,19.3,7.3,29
	c0.7,2.9,0,6.3,1.1,8.9c4.2,9,3.8,18.5,3.9,27.9c0.1,3.1-1.1,4.7-4.2,4.8c-11.1,0.5-22.2,1.1-33.4,1.5c-3.2,0.1-4.2-1.8-3.5-4.5
	c1.9-7.5,4-15,6.2-22.5c0.4-1.4,1.6-2.7,1.6-4.1c0.1-14.9-0.9-29.5-8.4-43.1c-3.4-6-5.6-12.8-8.1-19.2c-0.8-2-0.9-4.2-1.3-6.4
	c-1,0.8-1.2,1.4-1.3,2.1c-3.9,22.9-4.4,46.1-4.1,69.3c0,1.3,0.6,2.6,0.7,3.9c0.5,6.3,1.3,12.5,1.2,18.8c0,1.5-2.7,4.1-4.2,4.2
	c-11.3,0.5-22.6,0.6-33.9,0.7c-3.7,0-5.6-1.9-4.1-5.4c2.2-5.5,4-11.7,7.8-15.9c4.2-4.7,6-9.7,6.8-15.5c0.7-4.8,1.4-9.6,1.7-14.4
	c0.8-14.7,1.7-29.8-3.8-43.5c-16-39.5-15.4-79.6-7.5-120.4c0.2-1.2,0.6-2.9,0-3.8c-4.7-7.5-9.6-14.9-14.4-22.2c0,1.3,0,3,0,4.6
	c0,83.7,0.2,167.3-0.2,251c-0.1,11.9,15.8,27.8,27.9,27.7c60.2-0.5,120.3-0.6,180.5,0.1c13.6,0.2,24.2-3.8,33.8-12.6
	c2.5-2.3,5.2-4.2,7.3-6.8c11.9-14.6,23.8-29.1,35.2-44c2.9-3.7,4.7-8.4,6.3-12.9c5.2-14.2,9.8-28.7,15.1-42.9
	c21.3-56.3,46.4-110.9,73.6-164.5c5-9.8,8.8-19.7,9.2-30.7c0.5-12.5,1.3-25.1,1.9-37.6c-0.6-0.2-1.2-0.3-1.8-0.5
	c-15.6,26.8-35.2,50.2-59.6,71.4c8.5,0.6,18.4,2.4,28.3,1.4c8.6-0.9,17.5-4.2,23.9-8.1c-0.9,2.3-5.8,6.2-7.4,6.8
	c-4.2,1.5-12.8,4.4-17.1,4.4c-10.3,0-20.6-1.2-30.9-1.6c-3.7-0.1-4.6-1.6-4.1-5c2.7-21,5.7-41.8,24.5-54.5
	c-5.5-5.5-10.9-10.9-16.9-16.8C354.2,403.9,349,405.7,344.5,407.2z M86.6,170.3c3.7,5.5,2.7,15-2.2,18.4
	c-11.3,7.7-11.7,12.9-4.5,25.2c1.7,2.8,3.8,4,7.3,4.1c13.9,0.3,26.8,4.3,37.4,13.3c14.2,12,29.2,22.6,45.9,30.8
	c6.1,3,7.5,5.3,5.3,11.7c-1.2,3.6-4,6.7-6,10.1c-0.9,1.5-1.9,3-2,4.6c-0.6,7-4.4,11.7-11.6,11.8c-13.9,0.2-27.9-0.4-41.8-0.6
	c-2.4,0-5.3-0.3-7.2,0.8c-16.8,10.2-29.4,28.8-13.9,51.2c5.7,8.3,13.2,13.3,23.4,14.5c18.3,2.1,36.6,1.7,54.9-0.1
	c5.3-0.5,9.7-2.3,14.2-5.3c27.9-18.5,58.3-26.3,91.7-21.2c28.5,4.4,54.1,16.1,78.1,31.7c1.8,1.2,3.6,2.3,5.9,3.7
	c1.8-12.9,4.3-25,12.1-34.8c-3.8-5.4-8.2-10.1-11-15.7c-3.3-6.7-7.4-10.5-15.3-10.7c-3.5-0.1-4.9,0.3-6.3,3.4
	c-4.8,11.1-11.5,21-21,28.8c-2.9,2.4-5.2,2.5-8.4,0.4c-16.7-11.3-29.3-25.6-34.7-45.4c-0.2-0.6-0.6-1.1-0.6-1.2
	c-9.1,1.6-17.7,3.7-26.4,4.4c-8.9,0.7-18,0-27,0.1c-4.4,0-6.1-1.9-5.2-6.2c2.4-10.7,4.5-21.5,7.2-32.1c1.2-4.6,5.3-9.5,4.4-13.4
	c-0.9-4.1-6.6-7-9.6-10.9c-4.4-5.7-8.4-11.8-11.7-16.7c-13.7,3-27.1,6.1-40.6,8.7c-9.5,1.9-9.8,1.6-8.5-7.9
	c2.5-18.8,5.1-37.7,14.9-54.6c0.5-0.8,0.8-2.4,0.3-3.1c-4.7-7-9.5-13.9-14.5-21c-8.7,6.7-18.8,9.2-29,11.8c-11.7,3-23,7-31.6,16.1
	c-2,2.2-3.6,1.9-5.2-0.4c-11-16.5-20.8-33.4-20.5-54.2c0-1.2-1.1-3.3-2.1-3.6c-9.3-2.7-16.2-8.9-21.3-16.6
	c-6.6-10-12.2-20.6-18.2-30.9c-0.8-1.5-1.5-3-2.2-4.6c-0.2,0.1-0.4,0.2-0.7,0.3c0,19.6,0,39.3,0,59c1.3-2.7,2.1-7.2,3.7-7.5
	c3.6-0.6,7.8,0.2,11.3,1.7c3.1,1.4,5.2,4.2,4.3,8.6c-1.4,7.3-0.7,14.5,1.9,21.7c5.4-0.4,8.6-3.6,11.4-7.4c3.4-4.6,6.8-4.6,10,0.1
	c2.3,3.4,3.9,7.2,1.7,11.2c-2.6,4.8-5,9.8-8.3,14.1c-2.1,2.8-2.6,5.4-0.7,7.6c1.3,1.5,4.5,2.6,6.4,2.1
	C75.8,174.7,80.9,172.4,86.6,170.3z M160.5,229.6c0.6,0.4,1.3,0.8,1.9,1.3c14.7-2.3,29.6-4.2,43.2-10.7c2.7-1.3,4.3-1.8,5.7,1.7
	c6,15.8,18.3,25.9,31.7,34.9c1,0.7,3.4,0.7,4.3,0c13.3-10.1,22.6-22.8,23.4-40c0.2-5,2-5.5,6.2-5.4c9.9,0.2,19.5-1.3,28.7-5.6
	c3.8-1.8,5-4.2,3.4-7.9c-3.6-8.4-6.9-16.9-11.1-25c-3.6-7-4-6.7,0.8-12.7c9.2-11.3,15-24.2,17.7-38.8c-2.5-0.8-4.5-1.7-6.6-2
	c-15.3-2-30.7-3.9-46-6c-2.1-0.3-5.1-1.5-5.9-3.2c-7.6-14.4-19.5-24.2-33.5-31.9c-3.1-1.7-4.9-1.2-7.2,1.2
	c-9.2,9.3-15.8,20.2-19.3,32.8c-1.3,4.7-3.6,6.7-8.5,7.4c-11.1,1.5-21.8,4.3-32.2,9.9c0.9,3,1.4,6,2.8,8.6
	c4.3,7.9,8.4,15.9,13.6,23.2c3.8,5.3,6.8,9.3,1.2,15.2c-2,2.2-3.1,5.6-3.8,8.6C167.3,199.8,164,214.7,160.5,229.6z M474.4,645.8
	c-0.5-0.5-1-0.9-1.5-1.4c-5.6,3.7-11.3,7.2-16.6,11.4c-2.8,2.3-4.1,2.7-5.9-0.8c-8.1-16.3-21.2-27.1-37.5-34.3
	c-7-3.1-7.1-3.1-12,2.8c-13.1,15.6-19.2,34.1-22.2,53.8c-0.5,3.6-2,5.4-5.4,6.7c-16.8,6.8-30.3,18.4-43.9,30.2
	c0.8,1.1,1.4,1.9,2,2.6c15.1,16.4,33.1,28.8,52.9,38.7c1.7,0.8,3.8,1,5.8,1c19.2,0.1,38.3,0.1,57.5,0c12.8,0,26.8-14,26.8-26.8
	c0-10,0-20,0-30C474.4,681.8,474.4,663.8,474.4,645.8z M442.1,243.7c-2.1,2.4-3.6,3.9-4.9,5.6c-7.3,9-11.7,19.3-14.6,30.4
	c-0.7,2.5-1.3,4.8-4.6,2.9c-20.8-11.5-43.5-12.4-66.5-11.7c-1.9,0.1-3.9,0.4-5.8,0.6c4.1,23.3,15.3,47.2,30.2,65.5
	c0.9,1.1,1.3,4,0.6,5c-6.1,7.7-8.5,16.8-10.5,26.1c-1.3,6.3-1.2,11.3,5.5,14.4c3.3,1.6,6.3,5.6,9.4,5.6c8.9,0,17.9-0.9,26.6-2.7
	c6.2-1.3,6.3-3.1,9,4.6c3.9,11.2,10.5,20.9,19.2,30.4c4.3-9.4,8.8-17.6,12-26.3c13-35.3,16.2-71.9,14.9-109.2
	c-0.1-1.4-0.3-3.2-1.1-4.2C452.1,270.2,446.6,257.8,442.1,243.7z M32.3,62.4c6.5,14.5,13.2,28.3,23.6,39.8c3.1,3.4,6.7,7.6,10.8,8.6
	c9,2.2,10.3,7,10.5,15.5c0.5,17,9.1,31.4,18.7,45c0.1,0.2,0.6,0.2,0.9,0.3c9.2-7.7,21.4-13.3,33.3-16.3c7.5-1.9,14.8-4.8,22.1-7.6
	c4.6-1.8,7-4.8,3.9-9.9c-0.9-1.5-1-3.5-1.6-5.2c-1.6-4-0.1-6.4,3.8-7.6c10-3,20-6.4,30.2-8.6c4.8-1.1,6.3-3.2,6.3-7.7
	c-23.7-5.6-45.9-14.2-65.5-31.1c-4.8,8.5-10.4,16.1-13.4,24.5c-5.1,14.2-8.5,29-12.6,43.5c-0.7,2.4-1.1,4.8-1.7,7.2
	c-0.8-0.2-1.5-0.3-2.3-0.5c0.6-13.2,3.4-26.1,8.2-38.4c4.8-12.4,10.9-24.3,16.1-35.6c-12.5-0.8-26.2-1.3-39.7-2.6
	c-13.5-1.3-26.9-3.9-39.8-8.1c0.2-0.8,0.3-1.6,0.5-2.4c13.3,2.4,26.6,5.4,40,7c13.8,1.6,27.8,1.7,41.7,2.4c0.2-1.8,0.5-2.1,0.5-2.3
	c-0.9-16.2-4.1-32-9.6-47.3c-0.4-1.1-2.7-2.1-4.2-2.2c-7.7-0.2-15.3,0.1-23-0.2c-3.6-0.1-4.8,1.3-4.6,4.6c0.2,3.8,0,7.7,0.6,11.5
	c0.6,4.1-0.6,5.7-4.9,5.9C63,45.1,47.5,52.5,32.3,62.4z M46.6,499.6c-0.6,2.2-1.2,3.8-1.4,5.4c-1.2,8.6-2.7,17.1-3.3,25.7
	c-2.1,30.7-0.6,61,12.8,89.5c0.3,0.7,0.7,1.5,0.8,2.3c2.5,17,3.7,34.1,1.1,51.3c-0.7,4.9-1.6,9.7-2.6,15.8c5.7,0,10.6,0,15.6,0
	c4,0,5.3-1.8,5.1-5.9c-0.3-6.6-0.5-13.4,0.1-20c1.7-18.4,3.8-36.7,5.8-55.1c0.3-2.8,1.1-5.6,0.7-8.3c-3.1-22.4-3.8-44.8-1.9-67.3
	c0.4-4.8,0.8-9.5,1.2-14C67.6,515.2,56.6,508.8,46.6,499.6z M134.4,76.6c0.8,0.9,1.1,1.3,1.5,1.6c16.9,13.7,36.7,21.3,57.6,26.3
	c3.2,0.8,6.6-3.8,5.3-7.3c-2.8-8.1-6.4-15.8-14.2-20.5c-3.4-2.1-3-3.7-0.1-5.9c10.7-8.2,17-19.3,21.3-31.9c1.5-4.4,0.5-7.5-3.3-9.1
	c-6.4-2.6-13-5.9-19.7-6.3c-18.6-1.1-37.3-0.8-55.9-1.1c-2.1,0-4.1,0-5.6,0c3.5,17,6.8,33.5,10.4,51.2c6.7-2.4,14-4,20.3-7.4
	c14.2-7.7,27.8-16.3,41.7-24.5c1.5-0.9,3.1-1.4,4.7-2.1c0.4,1.8,0.2,2.8-0.3,3.2C178.3,56.6,158.5,70,134.4,76.6z M222.8,300.5
	c18.2,1.3,34.9,1,51-4.9c3.9-1.5,5.2-0.7,6.1,3.2c3.4,14.8,11.6,26.8,23,36.6c3.1,2.6,6.4,5,10.6,8.2c-0.2-4.3-0.5-7.2-0.5-10.2
	c-0.4-28.3-1.4-56.6-0.9-84.9c0.1-7.7-2.6-12.4-7.3-17.3C271.1,246.3,246,271.4,222.8,300.5z M296,22.5c-0.1,0.6-0.2,1.2-0.3,1.8
	c4.2,1.1,8.4,2.1,12.6,3.2c3,0.8,6.2,1.3,9.1,2.5c9.9,4.2,16.4,12.2,22.8,20.3c0.6,0.8,0.4,2.6,0.1,3.7c-3.3,9.2-3.2,18.6-1.6,28.1
	c0.4,2.4,9.9,10.6,12.3,10.4c0.6,0,1.2-0.5,1.8-0.8c11-6.3,23.1-9,35.4-11.5c4.2-0.8,7.8-1.1,10,3.2c6.1-3.6,8.5-7.5,6.7-12
	c-6.2-15.4-12.6-30.7-19.2-46c-0.6-1.3-2.5-2.8-3.9-2.8C353.2,22.5,324.6,22.5,296,22.5z M323.8,242.9c14.8-3.7,30.7-15.3,39.5-28.5
	c3.8-5.8,3.8-5.7,9.2-1.8c10.4,7.6,22.3,9.3,35.6,9.1c-13-28-31.2-49.9-56.8-65.5C339.5,174.1,324,223.1,323.8,242.9z M213.1,501.4
	c1.5,1.8,2.7,3.4,4,4.9c8.8,10.2,19.5,18,30.9,25.2c2.1,1.4,4.2,3.3,5.5,5.4c7.7,12.9,8.4,27.6,7.2,41.7
	c-1.9,23.2-6.5,46.2-15.8,67.9c-0.2,0.5-0.2,1.2-0.5,2.5c6.9,0,13.4,0,18.5,0c1.7-12.5,2.6-24.4,4.9-36.1c3.2-16.3,8-32.1,20.7-44
	c0.9-0.9,1.1-3,1-4.5c-0.3-5.8-4.9-8.8-8.7-12.2c-16-14.6-29.5-30.8-35-52.4c-1.2-4.6-2.4-9.2-3.6-13.9
	C232.5,491.2,223.1,496.1,213.1,501.4z M375.6,267.6c-1.7-2.3-2.5-4-3.9-5c-7.6-6.1-15.3-12.1-23.2-17.9c-5.3-3.9-10.7-4.3-17-0.8
	c-4.5,2.5-9.8,6.6-15.9,0.2c-2.1,33.6-0.5,65.9,1.6,98.9c1.4-1,2-1.3,2.5-1.7c8.9-7.9,14.9-17.8,19.2-28.8c1.2-3.2,2.4-4.2,5.8-2.9
	c2.9,1.1,6.2,1.4,9.3,2c-4-12.7-7.9-24.7-11.5-36.8c-1.9-6.4-1.3-7.1,5.2-7.2C356.7,267.4,365.6,267.6,375.6,267.6z M418,203.9
	c-0.5,0.4-0.9,0.7-1.4,1.1c-1.2,5.5-2.6,11-3.7,16.5c-0.6,3-2.1,4-5.2,3.9c-14.3,0-27.9-2.2-38.7-10.8c-8.2,8.2-16.2,16.1-24.2,24.1
	c0.7,0.3,2.1,1.1,3.5,1.8c10.3,5,19.7,11.3,26.7,20.5c3.8,5,7.8,7.6,14.2,8.4c7.6,0.9,15,3.4,22.7,5.3c-0.1-7.7-1.9-14.7-6.1-20.9
	c-2.1-3.1-1.9-5.3,1.7-7.2c10.2-5.6,16.8-14.5,21-25.1c0.6-1.4,1.2-3.7,0.5-4.6C425.5,212.4,421.7,208.2,418,203.9z M297.7,75.6
	c16.7,25.5,32.7,50.4,51,74.7c10.8-24.3,23.9-45.8,40.9-66.5c-12.3,2-23.2,4.3-32.9,10c-4.9,2.9-8,2.2-12.3-0.9
	C330.8,83,315.6,77.3,297.7,75.6z M454.2,651.6c5.1-2.8,10.6-6.2,16.5-8.8c2.9-1.3,3.9-2.6,3.9-5.8c-0.1-30-0.1-59.9-0.1-89.9
	c0-1.1-0.2-2.3-0.4-4c-14.4,19.4-34.1,61.2-39.2,82.9c-0.3,1.4,0,3.4,0.9,4.4C441.8,637.6,448.1,644.6,454.2,651.6z M315.3,46.5
	c-30.1-8.9-59.1-17.9-90.1-14.8c-0.1,1-0.2,1.4-0.1,1.6c0.6,1.4,1.3,2.7,2,4c7.2,13.6,13.3,27.7,15.2,43c0.7,6.2,4.2,9.2,8.5,12.8
	c5.2-5,7-11.4,8.8-17.7c2.9-10.2,2.8-10.1,13.5-10.8C288.9,63.6,302.9,58.4,315.3,46.5z M288.3,111.5c0-2.2-0.1-3.8,0-5.5
	c1-9.7,2-19.5,3-29.2c0.4-4.6,3.1-5.9,7.2-4.8c10.9,2.9,21.7,6,32.6,9c1.2,0.3,2.3,0.8,3.9,1.5c0-7.8-1.3-15.4,0.4-22.3
	c1.6-6.9,0.1-11.5-4.7-15.8c-2.6-2.3-4.9-5.1-7.8-7c-3.9-2.5-8.3-4.4-12.5-6.6c-0.3,0.4-0.5,0.8-0.8,1.2c2.4,2.7,4.8,5.3,7.1,8.1
	c4.6,5.8,4.6,6.1-0.8,10.9c-13.1,11.8-28.8,17-46.2,17.3c-2.8,0.1-4.9,0.1-5.6,3.8c-1.9,8.8-4.4,17.4-10.6,24
	c2.5,4.1,4.7,7.8,7.1,11.4c0.7,1.1,2.2,2.2,3.4,2.3C271.8,110.4,279.8,110.9,288.3,111.5z M438.4,147.5c-3.4-2.3-5.6-4.5-8.2-5.5
	c-6.5-2.4-13.1-4.6-19.9-6.2c-3.5-0.8-4.6-2.1-4.7-5.6c-0.4-7.5-0.9-15-2.1-22.4c-1.3-8.4-3.6-16.6-9.5-23.7
	c-17.1,20.3-30.8,42.3-41.2,66c14.4-0.9,28.3-2.2,42.2-2.6C408.9,147.1,422.8,147.5,438.4,147.5z M439,152
	c-21-1.9-74.8-1.8-81.3,2.3c9.7,9.1,20.5,17.7,29.3,27.9c8.9,10.3,15.9,22.3,23.7,33.5c2.6-10.8,4-22.1,2.1-33.6
	c-0.6-3.3,0-5.2,3.5-7C426,170.1,433.3,162.3,439,152z M363.2,400.2c2.5,8.2,8.9,12,15.6,15.5c1.2,0.6,2.1,1.9,3.1,2.8
	c-1,1-1.8,2.3-3,2.9c-7.5,3.7-13.1,9.5-16,17.1c-3.2,8.5-5.3,17.4-7.7,26.2c-0.7,2.5-0.7,5.3-1.1,9.3c25.8-22,46.1-46.5,62.3-75.4
	c-5.5-2-10.4-4.5-15.5-5.3c-8.2-1.3-16.5-1.4-24.8-2c-0.9-0.1-1.9,0.5-2.6,1.1C370.1,394.9,366.8,397.5,363.2,400.2z M416,464.8
	c-3.6,7.1-6.8,13.1-9.5,19.3c-0.6,1.3,0.2,3.8,1.2,4.9c16.9,17.4,29.8,37.4,40.4,59.1c2.7,5.5,5.1,11.1,8,17.2
	c2.9-4.9,5.3-9.5,8.2-13.7c2.3-3.3,2.2-6.2,0.7-9.7C452.7,514,434.1,490.1,416,464.8z M347,155.8c-16.6,3.8-31.7,7.3-45.7,14.9
	c0.9,1.6,1.7,2.7,2.1,4c3.2,8,6.4,16,9.5,24.1c1.7,4.3,0.1,7.3-4.1,9.2c-3,1.3-5.9,2.8-9.1,4.4c4.5,11.3,10.7,21.1,20.2,30.1
	C324.1,211.8,332.8,183.7,347,155.8z M388.7,22.9c1.7,3.8,3.5,7,4.6,10.4c1.8,5.5,4.9,8.8,11,9.7c4.5,0.7,8.9,2.8,13.1,4.7
	c18.9,8.3,35.5,20.2,51.4,33.1c1.6,1.3,3.2,2.5,5.5,4.4c0-4.1-0.3-7.1,0.1-10c0.7-5.3-1.5-9-5.2-12.6
	c-16.2-15.7-34.8-27.7-55.6-36.4C405.7,22.9,397.8,21.9,388.7,22.9z M393.4,510.5c-3.8,8.1-7.5,15.7-11.1,23.3
	c29.1,15.3,41.7,43.1,55.6,70.3c5.9-11.9,5.9-11.9,2-23.6c-4.7-14-11.1-27.1-19.4-39.3C412.9,530,404.1,519.9,393.4,510.5z
	 M429.9,627.1c5.3-10.8,7.8-20.1,0.8-29.7c-2.9-4-4.6-8.9-7-13.2c-7.2-13-15.1-25.6-26.3-35.6c-4.9-4.3-10.5-7.8-16.4-12
	c-3,6.5-5.3,11.7-7.7,17C401,571.3,416.9,597.5,429.9,627.1z M77.9,217.7c-0.7-1.3-1.1-2.2-1.6-3c-7.8-13.5-6.6-19.4,5.9-28.8
	c3.8-2.9,3.6-6.5,2.6-10.1c-5.7,1.5-10.9,3.1-16.2,4.1c-3.6,0.7-6.7-0.8-8-4.5c-1.2-3.5-2.7-6.6,0.7-10.5c3.6-4.1,6.1-9.4,8.5-14.4
	c1.7-3.8-0.2-7-2.7-8.7c-4.9,3.5-8.9,7.2-13.7,9.5s-6.8,1.1-7.6-4.2c-1-6.9-1.2-13.8-1.3-20.8c-0.1-4.6-2.9-6.2-6.5-6.8
	c-1.4-0.2-4.1,1.1-4.4,2.1c-2.4,9.9-4.7,20,4.4,28.2c0.1,0.1,0.2,0.3,0.3,0.4c13.7,19.7,26,40,24.8,65.5c-0.1,1.3,2.5,3.9,3.9,3.8
	C70.4,219.5,74,218.4,77.9,217.7z M425,447.3c-1.5,2.8-2.5,5.3-3.9,7.5c-3.2,4.7-2.3,8.2,1.1,12.7c17.5,23.5,34.9,47.2,46.7,74.3
	c0.1,0.2,0.6,0.2,0.9,0.3c0.3-0.2,0.6-0.4,0.8-0.6c3.1-3.6,3.9-7.6,4.2-12.3c0.7-9.5-2-17.2-7.8-24.8c-13.2-17.4-25.7-35.3-38.5-53
	C427.4,450.1,426.3,448.9,425,447.3z M295.2,78.9c-0.6,0-1.2,0-1.9,0c-0.5,9.9-1,19.8-1.5,29.8c-0.2,3,1.6,3.7,4.2,4.2
	c7,1.4,13.9,3.2,20.9,4.9c2.7,0.7,3.7,2,3,5.1c-3.4,15.2-9.5,29.1-19.7,41c-0.7,0.8-1.2,1.9-1.7,2.7c15.6-5,31-9.9,46-14.7
	C328.2,127.6,311.7,103.3,295.2,78.9z M445.7,586c2.7-5.4,5-9.8,7.1-14.3c0.5-1.2,0.5-2.9,0-4.1c-10.9-26.7-24.9-51.5-44.6-72.7
	c-1.4-1.5-2.5-3.4-3.7-5.1c-1.4,1.5-1.8,1.6-1.9,1.9c-1.9,3.7-3.5,7.6-5.6,11.1c-1.9,3.2-1.3,5.1,1.4,7.5
	c21.3,19.7,36.5,43.4,45.5,71C444.4,582.6,444.9,583.8,445.7,586z M436,426.1c-2.5,4.7-4.5,9-7,13.1c-2,3.2-1.5,5.5,0.7,8.4
	c13.9,18.9,27.6,37.9,41.3,56.9c0.8,1.1,1.7,2.2,3.4,4.4c0-12.8,0.1-24.4-0.1-35.9c0-1.2-1.5-2.4-2.4-3.5
	c-11.1-13.4-22.2-26.9-33.4-40.3C437.8,428.2,437.1,427.4,436,426.1z M417.6,278.8c0.5-0.2,1-0.3,1.5-0.5c0.3-0.8,0.6-1.5,0.8-2.3
	c3.8-12.8,9.8-24.3,19-34.2c1.1-1.2,1.3-3.9,1-5.7c-2.3-14.8-4.9-29.5-7.3-44.2c-1.1-6.9-1.9-13.9-2.9-20.9
	c-9.9,4.4-16,10.2-12.7,21.4c0.4,1.4-0.3,3.1,0.1,4.5c0.5,1.7,1.3,3.4,2.4,4.7c4.3,4.8,8.9,9.3,13,14.3c0.8,1,0.7,3.5,0.2,4.9
	c-4.8,12.6-12.4,23.1-24.7,29.8c5,7.5,7.2,15.4,7.6,23.9C415.7,276,416.9,277.4,417.6,278.8z M220.9,294.3c0.5,0.3,1.1,0.6,1.6,0.9
	c22.5-27.6,47.5-52.2,80.6-67.1c-2.2-4.6-4.2-8.8-6.3-12.9c-0.4-0.8-1.7-1.8-2.6-1.7c-6.4,0.5-12.8,1.3-19.5,2
	c-1.2,19.1-10.9,33.2-25.4,44.6c-2.9,2.3-5,2.4-7.8,0.1c-2.5-2.1-5.4-3.7-9.4-6.5C228.1,267.8,224.5,281,220.9,294.3z M398.6,44.7
	c3,7.8,5.4,14.3,8,20.6c0.3,0.8,1.8,1.2,2.8,1.5c7.2,2.6,15,4,21.3,8C444.3,83.3,457,93,470,102.2c1.3,0.9,2.5,1.8,4.4,3.2
	c0-4.9,0.2-8.9-0.1-12.8c-0.1-1.5-0.9-3.3-2-4.2c-17.9-15.3-36.7-29.3-58.6-38.5C409.2,48,404.5,46.7,398.6,44.7z M239.3,82.8
	c-2.9-17.8-9.4-33.4-18.2-48.8c-11.2,12.5-18.4,26.1-23,41.3c-2.1,7.1-0.1,12.4,3.3,17.5c5.1-6,10.3-11.8,15.3-17.8
	c2.3-2.8,4.5-2.7,7.3-1C228.8,76.9,233.7,79.6,239.3,82.8z M28.8,59.5c8.8-4.4,16.9-9.3,25.7-12.7c8.8-3.3,18.1-5,27.3-7.3
	c0-5.2,0-10.9,0-17c-7.7,0-15-0.1-22.3,0c-3.1,0-6.4-0.1-9.3,0.8C34.4,28.1,26.9,40.9,28.8,59.5z M422.4,620.6
	c-4.6-19.4-35.1-57.5-50.9-63.1c-2,4.5-3.9,8.9-5.9,13.5c16.4,10.2,27.4,24.5,36.8,40.2c0.7,1.1,1.4,2.5,2.5,2.9
	C410.7,616.4,416.6,618.5,422.4,620.6z M271.3,658.5c11.9-27.2,21.2-54.9,18.2-85.3C271.4,599,264.1,627.2,271.3,658.5z M473,466.2
	c0.5-0.2,1-0.5,1.5-0.7c0-7.2-0.6-14.5,0.1-21.7c0.8-7.9-1.8-12.9-8.5-17.5c-7.4-5.1-13.5-12.1-20.3-18.5c-0.8,1.4-1.5,3.1-2.6,4.5
	c-5.9,7-4.2,13.1,1.4,19.5C454.3,443,463.6,454.7,473,466.2z M408.2,69.7c1.8,5.3,2.9,9.3,4.4,13.1c0.5,1.2,1.7,2.6,2.9,3.1
	c20.2,8.7,37.8,21.5,55.4,34.4c1,0.7,2.1,1.2,3.3,1.9c0.7-11.5,0.7-11.6-7.7-18.4c-13.9-11.2-27.8-22.2-44.3-29.5
	C418,72.5,413.6,71.4,408.2,69.7z M414.9,89.4c1.6,5.6,2.6,10,4.2,14.1c0.7,1.8,2.2,3.8,3.9,4.6c17.3,8.9,32.8,20.3,47.3,33.2
	c1.1,1,2.4,1.9,4.2,3.4c0-5.6,0.2-10.3-0.1-14.9c-0.1-1.4-1.1-3.2-2.2-4c-15.3-10.4-30.6-20.7-46-30.8
	C423,92.9,419.4,91.6,414.9,89.4z M474.4,62.8c0-5.1-0.4-9,0.1-12.7c1.4-12-15.6-28.7-27.6-27.8c-8.9,0.7-18,0.1-27,0.2
	c-1.2,0-2.3,0.2-4.8,0.5C438,32.4,457,45.1,474.4,62.8z M474.4,206.3c0-7.8,0-14.6,0-21.5c0-1.1-0.3-2.6-1-3.1
	c-9.4-7.1-18.7-14.4-28.5-20.9c-5-3.3-12.2,1.9-11.7,8c0.2,2.4,1.5,5.5,3.3,6.9c6.5,4.9,13.6,8.9,20,13.9
	C462.6,194.5,468,200.3,474.4,206.3z M382.5,647.3c2.7-5.2,5-9.5,7-13.9c0.6-1.3,0.7-3.5,0-4.5c-7.2-10.2-14.4-20.4-22-30.1
	c-2.5-3.2-6.6-5.3-10.3-8.2c-1.9,4.4-3.2,8-4.9,11.4c-1.4,2.8-0.7,4.5,1.5,6.4c10.1,9.1,18.5,19.6,25,31.6
	C379.8,642.3,380.9,644.4,382.5,647.3z M358.3,587.6c16.3,9.6,25.5,24.6,34.7,40c3.1-3.8,5.8-7.1,8.6-10.6
	c-9.6-16.6-20.4-32-37.5-42.6C362.1,579,360.3,583.1,358.3,587.6z M376.6,666c4.1-8.5,5-16.1-0.7-23.7c-2.2-2.9-3.5-6.5-5.7-9.3
	c-6.3-8-13-15.8-20.4-24.8c-2,5-3.1,8.3-4.6,11.3c-1.6,3.2-0.8,5.1,1.5,7.8c9.2,10.9,17.9,22.2,26.8,33.4
	C374.6,662.2,375.4,664,376.6,666z M343.5,627.7c-1,0.3-1.9,0.5-2.9,0.8c-0.4,4.2-2.7,9.6-0.9,12.4c8.5,13.1,18.1,25.4,27.4,37.9
	c0.8,1.1,3.2,2.1,4.3,1.7c1.5-0.5,3.3-2.4,3.6-3.9c0.4-2.3,0.1-5-0.9-7.1c-2.2-4.6-4.7-9.3-7.8-13.3
	C359,646.5,351.1,637.2,343.5,627.7z M352.5,756.4c-9.8-21.6-25.1-38.1-40.3-55.1c-1,1.3-1.6,2-2.2,2.8c-4.4,6-4.4,6,0.8,11.6
	c11.5,12.4,22.4,25.3,30.3,40.7C344.5,756.4,347.9,756.4,352.5,756.4z M365.4,683.4c-9.9-13.4-19.5-26.4-29.4-39.9
	c-1.7,4.7-3.3,8.7-4.6,12.9c-0.4,1.3-0.4,3.1,0.1,4.2c5.8,11.2,13.5,20.8,22.8,29.4C358.2,687.6,361.8,685.5,365.4,683.4z
	 M422.8,110.9c-0.5,0.5-1,1.1-1.4,1.6c1,4,1.8,8.1,3,12c0.4,1.3,1.8,2.8,3.1,3.4c16.1,7.6,30.1,18.1,43.3,29.9
	c0.9,0.8,1.9,1.5,3.1,2.4c1.6-6.6,0.5-11.7-5.1-15.5c-3.4-2.3-6.1-5.6-9.5-8C447.2,128,435,119.5,422.8,110.9z M228.9,25.3
	c0.2,0.8,0.3,1.6,0.5,2.3C258,26.1,285.1,34,312.8,42c-6.5-10.5-22.7-19.4-34.8-19.4c-13-0.1-26-0.2-39,0.1
	C235.7,22.7,232.3,24.4,228.9,25.3z M303.9,713.6c-6.8,6.4-7.3,7.1-2.3,13.8c6.3,8.4,13.5,16,19.8,24.3c4.1,5.3,9.1,5.5,15.5,4.5
	C328.1,739.8,316.3,726.4,303.9,713.6z M474.4,242.9c0-5.6,0.1-10-0.1-14.4c0-0.8-0.7-1.8-1.4-2.4c-8.7-7.3-17.3-14.6-26.2-21.6
	c-2.8-2.2-6.3-3.5-10.4-5.7c0.7,4.8,0.9,8.5,1.9,11.9c0.6,1.9,2.1,4.2,3.8,5.1c9.8,5,18.1,11.9,25.5,19.8
	C469.7,237.7,471.6,239.8,474.4,242.9z M400.5,87.2c7.2,14,7.8,29.2,8.9,44.6c4.4,0.9,8.6,1.8,14.2,2.9c-5.2-18.8-10.2-36.6-15.3-55
	C405.1,82.8,403,84.8,400.5,87.2z M473.7,221.6c0.5-0.2,0.9-0.3,1.4-0.5c-0.8-3.7-0.4-8.5-2.6-10.8c-9.1-9.2-18.9-17.7-28.7-26.2
	c-2.4-2.1-5.5-3.3-9.2-5.5c0.7,5.6,1,10.1,1.8,14.5c0.2,1.2,1.5,2.4,2.6,3.1c7.3,4.8,14.9,9.3,22,14.4
	C465.5,213.9,469.5,218,473.7,221.6z M442.2,154.2c10.8,7.5,21.5,14.9,32.2,22.3c0-2.7,0.2-5.6-0.1-8.4c-0.1-1.3-0.6-3-1.5-3.8
	c-8.3-6.9-16.4-14.1-25.1-20.4c-6.5-4.8-13.7-8.5-20.5-12.7c-0.5,0.5-0.9,1-1.4,1.5c1.2,1.6,2.2,3.6,3.7,4.8c2.7,2.1,6,3.5,8.8,5.7
	C444.7,148.1,444.6,148.2,442.2,154.2z M472.5,428.4c0.6-0.4,1.3-0.8,1.9-1.2c0-5.6,0-11.2,0-16.8c0-0.9-0.4-2-1-2.6
	c-6.7-6.1-13.5-12-20.4-18.1c-1.3,3.6-3,7.7-4.3,11.9c-0.3,1.1,0.3,3.1,1.2,4C457.3,413.3,464.9,420.8,472.5,428.4z M37.1,155.5
	c3.1,7.4,5.1,15,3.1,22.8c-1.4,5.5,0.1,9.8,3,14c2.8,4.1,5.6,8.3,8.6,12.3c2.1,2.8,4.5,5.4,6.8,8.1
	C59.3,190.2,49.2,172.5,37.1,155.5z M107.8,711.1c0.5,0.5,1,1,1.4,1.5c6.7-0.7,13.4-1.3,20.1-2.1c0.7-0.1,1.9-1.6,1.9-2.4
	c-0.3-7.4-0.8-14.8-1.2-22.1c-4.7,0.7-8.1,1.2-11.5,1.9c-0.9,0.2-2.2,0.6-2.5,1.2C113.2,696.3,110.5,703.7,107.8,711.1z
	 M350.6,692.5c-7.6-9.6-14.8-18.7-21.9-27.8c-6.8,15.5-6.1,19.7,4.9,29.9c6.3,5.9,6.3,5.9,13.3,0.7
	C348.2,694.3,349.5,693.3,350.6,692.5z M441.5,218.7c-0.5,0.5-1,0.9-1.4,1.4c0.5,2.6,1.2,5.1,1.4,7.7c0.6,5,3.4,7.8,7.5,10.7
	c7.9,5.5,14.9,12.1,22.3,18.3c0.9,0.8,1.7,1.6,2.6,2.4c2-7.3-0.3-12.7-5.3-17.4c-3.3-3.1-6-6.7-9.5-9.6
	C453.4,227.5,447.4,223.2,441.5,218.7z M266.5,652.8c-5.8,0-10.6,0-15.3,0c-0.9,0-2.4,0.2-2.7,0.8c-3.1,5.7-6,11.5-9.5,18.3
	c9.2-0.5,16.8-0.7,24.4-1.7c1.6-0.2,4-3.1,4.1-4.9C267.7,661.2,266.9,657,266.5,652.8z M77.2,710.4c-0.3-5.5-0.4-10.5-0.9-15.6
	c-0.1-0.9-1.9-2.2-3-2.2c-4.3-0.1-8.6,0.2-12.9,0.6c-0.9,0.1-2.3,0.9-2.6,1.7c-2.1,5.1-4,10.4-6.2,16c1.9,0.3,2.9,0.5,3.8,0.5
	C62.4,711.1,69.3,710.8,77.2,710.4z M294.7,724.8c-6.5,5.6-6.8,6.6-2.3,14.1c2.3,3.8,5.4,7.1,7.8,10.9c5,8,12.3,7.3,19.9,6.3
	C311.5,745.6,303.1,735.2,294.7,724.8z M28.6,239.2c5-1.3,10-2.2,14.7-4.2c2.2-0.9,6.1-3.3,3.8-6.7c-5.8-8.4-12.1-16.3-18.4-24.7
	C28.6,215.6,28.6,227.4,28.6,239.2z M291.5,665.7c-4.6,1.6-9.9,1.8-10.9,4c-3.2,6.9-4.7,14.5-7,22.2c6.8,0,12.3,0,18,0
	C291.5,683.2,291.5,675,291.5,665.7z M445,241.3c1.7,4.8,3.4,9.6,5.2,14.3c0.9,2.3,1.8,5.2,3.6,6.4c6.6,4.3,13.6,8,20.9,12.2
	c-0.4-3.1,0.2-6.4-1.1-8.5C466.5,255.1,457,247,445,241.3z M457.7,372.2c-0.7,4.1-3.1,9-1.7,12.2c3.6,8.2,10.4,14.1,18.5,19.8
	c0-6,0.1-10.7-0.1-15.5c0-1-0.4-2.4-1.1-3C468.4,381.3,463.3,377.1,457.7,372.2z M301.2,756.5c-3.2-4-6.1-7.2-8.6-10.7
	c-2.4-3.5-4.5-7.3-7.3-12.1c-2.2,2.7-4.5,4.9-6.2,7.6c-1.3,2-3,5.1-2.3,6.7c1.5,3.2,4.1,7.4,7,8.2
	C289,757.4,294.8,756.5,301.2,756.5z M321.6,686.8c-2.3,3.7-4.8,7.5-7.4,11.5c4.2,4.6,8.2,9,12.4,13.6c3.8-3.3,7.1-6.3,10.2-9
	C331.5,697.2,326.6,692,321.6,686.8z M474.4,381.9c0-3.8,0.1-6.9,0-10.1c0-2.1,0.5-5-0.6-6.3c-3.5-4.2-7.7-7.7-11.6-11.5
	C458.2,366,461.7,374.7,474.4,381.9z M104.3,711.8c2.7-8.2,5.2-15.8,8.2-25c-3.6,1.1-7.7,1.1-9,3c-4.4,6.4-5.8,13.9-6.1,22
	C100.1,711.8,102.3,711.8,104.3,711.8z M346.1,736.2c3.5,6.8,6.5,12.9,9.8,19c0.4,0.7,1.6,1.3,2.4,1.3c6,0.1,12.1,0.1,19,0.1
	C366.4,749.5,356.6,743,346.1,736.2z M420.6,446.2c0.2,0.1,0.4,0.2,0.6,0.2c3.7-7,7.4-14,11-21.1c0.5-0.9,0.2-2.7-0.4-3.5
	c-2.8-3.7-5.8-7.1-9.1-11.2C422,423,421.3,434.6,420.6,446.2z M277.8,668.8c-2.9,0.5-6.3,0.1-7.4,1.5c-5,6.2-9,13-8.7,21.6
	c3.1,0,5.8,0,8,0C272.4,684.1,274.9,676.9,277.8,668.8z M464.5,336.8c-2,10.1,1.5,18.9,9.6,23.8
	C475.3,350.8,475.6,341.6,464.5,336.8z M28.7,283.2c0.3,0.1,0.7,0.1,1,0.2c1.8-6.8,3.9-13.5,5.5-20.4c1.6-6.6,0.6-7.8-6.5-9.4
	C28.7,263.5,28.7,273.3,28.7,283.2z M246.2,651.5c-2.6,0.1-4.9-0.5-5.8,0.4c-5.3,5.3-9.2,11.5-10.4,19.6c2.5-0.4,5.2-1,6.3-2.6
	C239.7,663.8,242.4,658.3,246.2,651.5z M473.6,339.2c3.1-10.3,1.3-15.3-7.5-20.5C463.3,327.5,466.1,334.2,473.6,339.2z M41.3,710.7
	c3-0.2,6.1,2.8,7.8-1.7c2-5.4,3.9-10.8,5.8-16.2C49.1,691.6,43.8,698.2,41.3,710.7z M198,22.9c8.1,4.3,16.7,8.2,11.2,20.1
	c3.2-4.1,6.4-8.2,9.8-12.5C212.8,25.1,206.1,22.4,198,22.9z M458.4,267.8c-0.5,0.6-1.1,1.2-1.6,1.8c5.5,6.1,10.9,12.2,16.4,18.3
	c0.5-0.2,0.9-0.5,1.4-0.7c-0.3-2.5,0.5-6.1-0.9-7.4C469,275.3,463.5,271.7,458.4,267.8z M466.7,301.6c-1.5,9.6,0.7,14.7,7.4,17.4
	C475.3,311.8,475.2,305.1,466.7,301.6z M34.8,277.3c8,1.9,15.7-3.5,16.7-10.6c0.6-4.2-0.3-5.2-5.3-5.5
	C48.6,270.7,42.7,274.6,34.8,277.3z M38.6,283c1.7,7.7-1.2,12.7-8.2,15.8c-1.2,0.6-1.6,3.2-2.6,5.4C38.3,302.6,44,290.6,38.6,283z
	 M276.8,756.3c-1.6-3.1-3.1-5.8-4.6-8.7c-3.8,2.8-7.4,5.5-11.8,8.7C266.4,756.3,271.4,756.3,276.8,756.3z M466.4,286.8
	c-0.7,7.8,1.8,12.5,7.6,14.8C476.3,294.4,472.6,290.2,466.4,286.8z M36.6,273.1c5.2-2.1,8.4-4.8,7.7-9.9c-0.2-1.8-2.3-3.4-3.5-5.1
	c-0.4,0.3-0.8,0.6-1.2,0.9C38.7,263.4,37.8,267.8,36.6,273.1z M187.4,74.2c1.9,1.6,3.8,3.1,6,4.9c1.7-5.6,3.3-10.8,4.5-15
	C194.9,67,191.3,70.4,187.4,74.2z M34.2,280.5c-2,5.5-3.6,10-5.4,15C36.3,292.8,38.1,288.2,34.2,280.5z M215.4,22.8
	c6.4,5.9,7.6,5.9,11.3,0C223,22.8,219.3,22.8,215.4,22.8z M28.6,412.9c3-5.2,3.1-10.4,0-15.5C28.6,402.6,28.6,407.8,28.6,412.9z
	 M28.6,389.8c2.2-4.4,2.9-8.8,0-13.2C28.6,381,28.6,385.4,28.6,389.8z"/>
<path class="st2" d="M121.9,374.7c4.3,0.2,9.3,3.8,12.2-2.8c0.3-0.7,2.7-0.5,4.2-0.6c13.5-0.8,26.9-1.6,40.4-2.6
	c1.6-0.1,3.3-1.1,4.8-2c5.9-3.8,11.8-7.7,17.7-11.6c0.5,0.6,0.9,1.1,1.4,1.7c-1.5,0.7-2.9,1.5-4.4,2.2c0.2,0.3,0.5,0.7,0.7,1
	c0.6,0,1.2,0.2,1.6,0c6.4-3.2,13.2-5.8,19.1-9.7c15.6-10.1,32.9-9.6,50.1-8.1c24.8,2.1,47.4,11.3,69.2,23
	c7.1,3.8,10.4,10.3,15.9,16.5c-2.6,0.5-4.3,0.9-6.4,1.3c0.2,1.2,0.4,2.4,0.6,4.2c-6.7,0.3-6.1,6.5-8.5,10.6
	c-5,8.4,0.7,16.1,1.6,24.1c3.4,31.2,3.4,61.9-7.6,91.8c-2.9,7.8-6.9,15.1-10.6,22.6c-1.1,2.2-1.7,3.5,0.4,5.5
	c7.4,7.4,8.9,21.9,3.1,30.5c-18,26.1-28.8,55.1-35.6,85.8c-0.8,3.7-2.4,5.5-6,6c-4.1,0.6-8.1,1.3-12.6,2.1c0.3-1.4,0.4-2.1,0.6-2.7
	c8.8-18.4,14.8-37.9,18.6-57.9c2.8-14.5,3.8-29.5-0.2-44.1c-0.8-2.8-3-5.3-4.9-7.7c-1.3-1.7-3.1-3-4.8-4.4
	c-28.6-24.2-39.4-55.9-39.2-92.4c0-2-0.3-3.9-0.5-5.9c-0.6,0-1.2-0.1-1.7-0.1c-0.4,1.7-1.2,3.5-1.2,5.2c0.2,6.8,0.1,13.7,1.1,20.4
	c0.7,4.3-0.8,6.2-4.1,8.3c-26.1,15.8-54.4,25-84.4,29c-4.4,0.6-8.9,1-13.6,1.5c-2.2-13.2-3.8-26.1-9-38c-0.7,0.1-1.4,0.2-2,0.4
	c0.2,1.7,0.2,3.5,0.6,5.1c4.2,14.3,7,28.8,7.2,43.7c0.2,16.8-3.4,32.6-9.8,48.1c-7,16.9-10.9,34.6-11.2,53c0,1.9,0.4,3.9,1.1,5.8
	c5.1,14.5,9.6,29.1,11.3,44.4c0.5,4.3-1.1,6-4.9,6.1c-5.4,0.1-10.9,0-15.9,0c-1.3-9.6-2-19-3.9-28c-1.3-5.9-3.7-11.7-6.8-16.9
	c-6.3-10.5-7.9-22.2-9.8-33.8c-4.8-29-5.5-58.1-0.9-87.1c1.4-9.3-1.4-15.9-7.3-21.9c-1.4-1.5-4.1-1.7-6.4-1.9
	c11.4,14.9,11.4,14.9,9.8,21.5c-28-9.5-46-28.1-52-57c-1.9-9.3-0.5-19.3-0.6-28.9c0-3.5-0.1-7,0-10.5c0-1,0.4-2.3,1-3
	c5.2-5.3,6.5-13.4,2.6-19.8c-1.4-2.3-1.7-3.7-0.4-6.2c3.4-6.5,2.8-12.9-1.9-18.5c6.1-11,6.1-14.5-0.5-22c5-7.6,7-15.4-1.2-22.8
	c4.1-6.1,7.4-12.2,2.9-20c6.1-1.1,9.6-5.2,10.8-10.5c1.1-4.8,0.7-9.9,1-15.8c6-3.3,11.7-8.4,10.1-18.4c7.8,0.4,15.5,2.2,23.2,0.8
	c0.1-0.6,0.1-1.3,0.2-1.9c-1.7-0.3-3.4-0.9-5.1-1c-13.3-0.5-26.3-2.2-37.9-9.2c-1.9-1.2-3.3-3.4-4.9-5.1c1.8-1.6,3.3-3.7,5.3-4.6
	c11.6-5.3,23.1-2.8,34.6,0.8c2.1,0.7,4.2,1.1,6.6,0.6c-7.3-5.8-16.4-6.7-26.7-8.4c2.7-1.4,4-2,5.8-2.9c-1.2-1.7-2.3-3.2-3.4-4.8
	c-6.9-9.8-13.8-19.6-20.5-29.5c-0.9-1.3-1.6-3.1-1.6-4.6c-0.1-13.6-0.1-27.3-0.1-41.1c7.1,5.5,10.7,17.4,7.8,28.3
	c-1,3.8-0.4,6.7,1.3,9.9c7.4,13.7,17.6,25,28.5,35.8c0.5,0.5,1.4,0.8,2.6,1.4c0.3-4.9,3.8-4.9,7.1-5.3c18.4-2,34.7,2.5,49.4,14.2
	c11.9,9.5,25.1,17.5,37.7,26.1c1.3,0.9,2.8,1.6,4.4,2.5c-7.4,5.1-7.3,6.5,1.4,15c-5.5,6.8-13.9,4.3-20.9,6.3
	c4.9,4.6,10.5,1.4,15.7,1.6c0.6,5.5-1.8,9-7.8,9.1c-13.8,0.2-27.6-0.1-41.3-0.8c-4.1-0.2-7.4,0.1-10.8,2.3
	c-11,7.1-18.4,16.9-20.9,29.8c-0.6,3.1,0.1,6.5,0.6,9.6c0.3,2.1,1.3,4.1,2,6.1c6.4,17.6,19.2,26.1,37.6,26.7c1.3,0,2.7,0.2,4,0.6
	c-5.1,0-10.1,0-16.6,0c3.5,1.7,5.8,2.8,8.2,3.9c-1.9-0.2-3.8-0.4-7.1-0.8c7.1,6.4,19.3,8,22.7,3.2c-2.2-0.3-4-0.5-5.8-0.9
	C126.2,376,124,375.3,121.9,374.7z M101.9,410.2c1.8,0.2,3.6,0.4,5.4,0.6c0.2-0.6,0.4-1.1,0.6-1.7c-3.3-1.8-6.6-3.5-9.8-5.3
	c-0.3,0.4-0.6,0.8-0.9,1.2c1.6,1.8,3.3,3.6,4.9,5.4c-0.8,0.2-1.6,0.4-2.5,0.6c-0.1,0.5-0.3,0.9-0.4,1.4c3.1,1.5,6.3,3.1,9.4,4.6
	c0.4-0.6,0.7-1.3,1.1-1.9C107.1,413.4,104.5,411.8,101.9,410.2z M221.9,376.8c1.2-0.8,2.6-1.5,3.7-2.4c0.6-0.5,0.9-1.6,0.9-2.5
	c0-0.3-1.5-1.1-2-0.9c-5.4,2.3-10.8,4.8-16.1,7.3c0.3,0.6,0.5,1.3,0.8,1.9c4.3-1.2,8.6-2.4,12.9-3.5c-4.1,2.2-8.3,4.3-12.4,6.5
	c0.2,0.5,0.4,1.1,0.6,1.6c3.9-0.7,7.8-1.3,11.6-2c-3.9,1.8-7.7,3.5-11.6,5.3c0.2,0.7,0.4,1.4,0.6,2.1c4-0.8,8-1.4,11.9-2.6
	c1.6-0.5,2.8-2.2,4.2-3.4c-1.7-0.5-3.5-0.9-5.1-1.4c1.5-1.5,3.1-3,4.6-4.4C224.9,378,223.4,377.4,221.9,376.8z M293.1,354.2
	c1.1-0.1,2.3-0.3,3.8-0.5c-4.2-5.5-19.3-10-26-8.1c1.3,0.4,2.2,0.6,3.1,0.9c6.4,2.6,12.8,5.2,19.2,7.9c-6.4-1.5-12.8-3-19.2-4.5
	c-0.2,0.6-0.3,1.2-0.5,1.7c7.1,2.5,14.2,5,21.2,7.5c0.2-0.4,0.5-0.7,0.7-1.1C294.8,356.7,294,355.5,293.1,354.2z M106.3,263.2
	c2.6-0.3,5.8-0.6,8.9-1.1c1.3-0.2,2.6-0.5,3.9-0.9c3.6-1.2,4.5-3.7,2.3-6.3c-7.6-9-22.6-11.3-32.4-5.2c-3,1.9-3.3,4-0.8,6.4
	C93,261.2,99,263,106.3,263.2z M137.7,381.2c0,0.7,0,1.4,0,2.1c7.5,1.5,15,2,22.5-0.7c0.6-0.2,1.4-1.7,1.2-2.3
	c-0.2-0.7-1.5-1.5-2.2-1.4C152,379.5,144.8,380.4,137.7,381.2z M266.3,346.2c-2.4-4.5-25-3.3-31.7,2.4
	C245.3,347.8,255.7,347,266.3,346.2z M237.7,353.9c9.2,0,18.3,0,27.5,0c0-0.8,0-1.5-0.1-2.3C255.9,349.5,246.8,351.1,237.7,353.9z
	 M325.5,363.3c7.9,5.6,15.1,10.6,23.3,16.5C347,372.3,333.5,363.1,325.5,363.3z M163,374.8c-2.5-3-22.1-2.2-25.8,0.7
	C145.6,376.2,153.9,377.5,163,374.8z M139.8,389.4c0,0.6,0,1.2-0.1,1.8c6.2,1.8,12.5,2.3,19,0.7c0.7-0.2,1.1-1.4,1.7-2.1
	c-0.8-0.6-1.7-1.8-2.5-1.8C151.9,388.3,145.8,388.9,139.8,389.4z M201.5,363.5c7.6-3.1,15.3-6.1,22.9-9.2
	C219.2,351.9,207.5,356.7,201.5,363.5z M171.7,378.3c5.7,2.9,15.2,2,18.4-1.1c0.6-0.6,1-1.6,1-2.5c0-0.3-1.3-1.1-1.9-1
	C183.7,375,178.2,376.5,171.7,378.3z M204.7,371.8c6.7,1.2,19.6-3.5,21.9-8.3C218.4,364.5,212.2,368.3,204.7,371.8z M322.1,363.5
	c-0.7-5.7-13.7-12.5-21-10.7C308.3,356.5,315,359.9,322.1,363.5z M343.7,384.5c-0.4-7.1-12.3-15.5-17.7-13.5
	C331.6,375.3,337.4,379.7,343.7,384.5z M262.1,360.6c0-0.7,0-1.3,0-2c-7.1-1.6-14.1,0.1-21.1,0.3c0,0.6,0,1.1,0,1.7
	C248,360.6,255,360.6,262.1,360.6z M203.5,365.1c0.3,0.8,0.6,1.5,0.9,2.3c6-2.2,12.1-4.3,18.1-6.5c0.5-0.2,0.9-1.5,0.7-2
	s-1.4-1.2-1.9-1C215.3,360.2,209.4,362.7,203.5,365.1z M174.7,392.1c5.1,2.9,12.5,2.5,15.5-0.3c0.6-0.6,1.2-1.8,1-2.5
	c-0.2-0.6-1.6-1.4-2.3-1.2C184.4,389.2,180,390.5,174.7,392.1z M144.7,397.3c5.8,4.6,14.2,3.8,17.5-1.7
	C155.6,396.2,150.2,396.7,144.7,397.3z M114.6,382.1c6.4,5.2,15.8,5.8,19.6,1.1C127,382.8,120.8,382.5,114.6,382.1z M172.5,385.8
	c8,3,17.7,0,19.2-5.5C185.5,382.1,179.6,383.7,172.5,385.8z M87.4,356.1c2.4,7.4,11.1,14.4,16.9,13.5
	C98.3,364.8,92.8,360.5,87.4,356.1z M302.3,358.9c6.1,5.4,15.9,9.9,18.4,8.5C315.3,362.6,309.5,359.4,302.3,358.9z M104.2,376.4
	c-5.9-4.9-11.3-9.4-17.7-14.8C89.6,369.9,98.9,377.5,104.2,376.4z M170,373.4c7.3,2.9,18-0.6,18.9-5.8
	C182.7,369.5,176.6,371.4,170,373.4z M293.1,366c-2.1-5.5-12.2-9.5-18.4-7.3C280.4,360.9,286.2,363.2,293.1,366z M192.1,395.3
	c-4.9,1.7-9.4,3.2-14.9,5.1C184.6,403.9,191.4,401.5,192.1,395.3z M302.8,364.2c2.3,6.2,10.3,10.4,15.4,8.1
	C312.5,369.4,307.6,366.8,302.8,364.2z M120.2,405.3c5.5,3.4,12.1,3.2,15.1-0.2C130,402.7,125.1,403.9,120.2,405.3z M212.7,401.3
	c0.2,0.9,0.5,1.9,0.7,2.8c4-0.9,8.1-1.7,12-2.8c0.6-0.2,0.8-1.5,1.3-2.3c-0.8-0.4-1.8-1.3-2.5-1.2
	C220.3,398.8,216.5,400.1,212.7,401.3z M244.2,372.4c0,0.6,0,1.2,0.1,1.9c5.7,0,11.4,2.1,17-0.2c0-0.6,0-1.1,0-1.7
	C255.6,372.4,249.9,372.4,244.2,372.4z M90.1,371.8c-0.4,0.5-0.9,1-1.3,1.5c4.1,4.5,8.1,9.2,14.2,11.2c0.4-0.5,0.9-1.1,1.3-1.6
	C99.6,379.2,94.9,375.5,90.1,371.8z M212.4,393c0.1,0.9,0.3,1.9,0.4,2.8c3.9-0.4,7.8-0.6,11.7-1.2c0.6-0.1,1.5-1.5,1.5-2.2
	c-0.1-0.7-1.3-1.8-1.9-1.7C220.1,391.4,216.3,392.3,212.4,393z M134.8,391.8c-5.6-3.5-10.8-1.5-17.1-2.5
	C123.1,393.8,129.5,394.7,134.8,391.8z M181.7,407.8c0.4,0.8,0.7,1.7,1.1,2.5c3.7-1.4,7.5-2.7,11.1-4.3c0.7-0.3,0.8-1.9,1.2-2.9
	c-0.9-0.3-2-1-2.6-0.7C188.8,404.1,185.3,406,181.7,407.8z M259.4,367.2c0-0.9,0.1-1.9,0.1-2.8c-5.4-1.3-10.9-0.8-16.4,0.1
	c0,0.6-0.1,1.2-0.1,1.8C248.5,366.6,253.9,366.9,259.4,367.2z M285.9,394.8c-6.5-2.2-11.9-4.1-17.6-6.1
	C271.6,394.2,279.5,397.2,285.9,394.8z M325.6,389.3c-0.6,0.6-1.3,1.3-1.9,1.9c2.8,2.9,5.6,5.8,8.5,8.6c0.3,0.3,2.1-0.1,2.1-0.2
	c0.1-1,0.3-2.5-0.3-3C331.3,394,328.4,391.7,325.6,389.3z M162.5,406.9c-0.2-0.8-0.4-1.6-0.5-2.4c-5,1.1-10,2.2-14.9,3.3
	c0.1,0.7,0.3,1.3,0.4,2C152.6,409.5,158,410.5,162.5,406.9z M213.5,406.5c0.2,1,0.3,1.9,0.5,2.9c3.6-0.6,7.3-1.2,10.9-2
	c0.5-0.1,1.2-1.7,1-2.3c-0.3-0.7-1.6-1.4-2.3-1.2C220.1,404.5,216.8,405.5,213.5,406.5z M335.5,393.8c0.5-0.5,1-0.9,1.5-1.4
	c-2.3-5.6-7.6-7.8-12-11.1c-0.4,0.4-0.8,0.9-1.2,1.3C327.6,386.3,331.6,390,335.5,393.8z M90.7,380.5c2.7,6.7,9.2,11.2,14.3,9.7
	C100.2,386.9,95.9,384,90.7,380.5z M245.2,378.1c0,0.5,0,1.1,0,1.6c4.6,0.3,9.2,0.6,15,0.9C256.4,376.4,251,376,245.2,378.1z
	 M315.5,381c0.5-0.9,1-1.7,1.5-2.6c-4.4-2.4-8.8-4.9-13.2-7.3c-0.4,0.6-0.8,1.3-1.1,1.9C306.9,375.7,311.2,378.3,315.5,381z
	 M134.8,397.9c-5.1,0-9.4,0-14.4,0C125.6,402.1,130.8,402.3,134.8,397.9z M227.6,411.3c-3.5-2-9-0.5-11.3,3.1
	C221.2,416.1,225,415.1,227.6,411.3z M186,413.6c0.4,0.8,0.8,1.7,1.2,2.5c3-1.3,6-2.4,8.9-3.9c0.5-0.3,0.8-1.9,0.5-2.5
	s-1.9-1.1-2.5-0.8C191.3,410.4,188.7,412,186,413.6z M278.2,363.7c-0.4,0.6-0.8,1.3-1.3,1.9c4.2,2.2,8.5,4.5,12.7,6.7
	c0.4-0.7,0.7-1.3,1.1-2C287.4,366.7,282.3,366,278.2,363.7z M124.4,409.5c-0.1,0.9-0.3,1.9-0.4,2.8c3.5,0.3,7.1,0.8,10.6,0.9
	c0.5,0,1.6-1.5,1.5-2c-0.2-0.7-1.3-1.6-2.1-1.6C130.8,409.4,127.6,409.5,124.4,409.5z M152.4,414.1c5.2,4.3,9.8,3.3,12-2.2
	C160,412.7,156.2,413.4,152.4,414.1z M337.2,387c0.3-0.3,0.6-0.7,0.9-1c-1.9-4.9-7.8-9.1-13.1-8.7
	C329.4,380.8,333.3,383.9,337.2,387z M288.3,380.3c0.4-0.8,0.9-1.6,1.3-2.4c-4.5-2.3-8.9-4.6-13.4-6.9c-0.3,0.6-0.7,1.3-1,1.9
	C279.5,375.3,283.9,377.8,288.3,380.3z M244.6,385.4c4.5,3.6,9.6,3.7,13,0C253,385.4,249.1,385.4,244.6,385.4z M314.3,384.3
	c-4.7-2-8.6-3.7-13-5.6C303.6,384.4,308.7,386.8,314.3,384.3z M114.4,419.8c-3.8-0.8-7.5-1.6-12.5-2.7
	C105.9,422.3,109.8,423.2,114.4,419.8z M286.7,385c0.3-0.6,0.6-1.3,0.9-1.9c-4.3-1.9-8.5-3.7-12.8-5.6c-0.2,0.4-0.4,0.8-0.6,1.2
	C277.8,382.3,282,384.3,286.7,385z M312.7,406c-0.6,0.6-1.2,1.1-1.7,1.7c1.6,2.1,3.1,4.2,4.9,6.1c0.5,0.5,2,0,3,0
	c-0.1-1,0.2-2.5-0.4-3C316.7,408.9,314.6,407.5,312.7,406z M310.3,390.9c-3.1-2.1-6.3-4.1-10.1-6.6
	C301.1,390,304.4,392.3,310.3,390.9z M257.3,394.6c0-0.5,0-1.1,0.1-1.6c-4.2,0-8.3,0-12.5,0c0,0.5,0,1.1,0,1.6
	C249,394.6,253.2,394.6,257.3,394.6z M104.3,398.6c0.3-0.4,0.6-0.8,0.9-1.2c-3.7-2.7-7.5-5.5-11.2-8.2c-0.3,0.4-0.5,0.7-0.8,1.1
	C96,394.3,99.3,397.7,104.3,398.6z M200.3,415.7c-0.3-0.6-0.6-1.2-0.9-1.8c-3.2,1.7-6.4,3.4-9.6,5c0.3,0.5,0.5,1.1,0.8,1.6
	C194.7,420.6,198.2,419.4,200.3,415.7z M265.7,395.5c3.9,5.3,7.8,6.6,12.7,4.2C274.7,398.4,270.9,397.2,265.7,395.5z M116,428.7
	c0-0.9,0.1-1.8,0.1-2.7c-3.5,0-7.1,0-10.6,0c0,0.6-0.1,1.3-0.1,1.9C109,428.2,112.5,428.4,116,428.7z M217.5,419.3
	c0.2,0.5,0.3,0.9,0.5,1.4c5.1,1.3,8,0.2,9.8-4.7C223.9,417.3,220.7,418.3,217.5,419.3z M243.4,398.7c-0.1,0.8-0.2,1.6-0.3,2.5
	c3.5,0.4,7,0.9,10.4,1.3c0.1-0.9,0.2-1.8,0.3-2.7C250.4,399.4,246.9,399.1,243.4,398.7z M165.6,421.6c-3.5-3.1-7.6-2.2-10.4,2.2
	C158.7,423.1,162.1,422.4,165.6,421.6z M294.3,395.3c0.2,5.5,3.8,8.1,8.8,6.3C300.1,399.4,297.5,397.6,294.3,395.3z M271.1,382.4
	c3.6,5.6,7.9,7.6,12.1,6.3c-0.1-0.3-0.1-0.8-0.3-0.9C279.2,386.1,275.6,384.5,271.1,382.4z M263,401.3c-0.2,0.7-0.4,1.4-0.5,2.2
	c3.7,1.1,7.4,2.2,11.1,3.3c0.2-0.8,0.5-1.6,0.7-2.4C270.5,403.3,266.8,402.3,263,401.3z M126.8,418.1c0.1,0.9,0.2,1.7,0.4,2.6
	c3.4-0.4,6.7-0.9,10.1-1.3c-0.1-0.9-0.3-1.8-0.4-2.8C133.5,417.1,130.2,417.6,126.8,418.1z M159.3,429c3.4,2.4,5.8,0.6,8.2-1.1
	c0.5-0.3,0.2-1.7,0.3-2.5c-2.3,0.6-4.6,1-6.8,1.7C160.4,427.4,160,428.3,159.3,429z M297.9,390.1c2.3,6.2,5,7.6,9.7,5.6
	C304.4,393.9,301.7,392.3,297.9,390.1z M104.4,404.2c0.3-0.5,0.6-1.1,0.9-1.6c-3.1-1.9-6.2-3.7-9.3-5.6c-0.3,0.4-0.5,0.9-0.8,1.3
	C97.4,401.5,100.2,403.9,104.4,404.2z M260.1,407.1c-0.2,0.7-0.4,1.5-0.6,2.2c3.3,0.8,6.6,1.6,9.8,2.4c0.2-0.9,0.4-1.7,0.6-2.6
	C266.6,408.4,263.4,407.8,260.1,407.1z M280.5,412.3c-0.5,0.6-1,1.1-1.4,1.7c1.5,1.3,2.9,2.9,4.6,3.8c0.8,0.4,2.3-0.4,3.4-0.7
	c0-0.4,0-0.8,0-1.2C284.9,414.7,282.7,413.5,280.5,412.3z M131.5,422.8c0,0.6,0.1,1.2,0.1,1.8c3,1.6,5.8,1.6,7.9-1
	c-0.1-0.7-0.3-1.4-0.4-2.1C136.6,421.9,134,422.3,131.5,422.8z M240.4,411.9c-0.1,0.7-0.1,1.4-0.2,2.2c3.2,0.3,6.5,0.5,9.7,0.8
	c0.1-0.8,0.1-1.5,0.2-2.3C246.8,412.3,243.6,412.1,240.4,411.9z M118.3,429.3c-3.2,0.9-5.7,1.6-9.3,2.6
	C114.5,435.1,116.5,434.5,118.3,429.3z M328.4,405.1c0.5-0.8,1.1-1.6,1.6-2.4c-2.5-1.5-5-3-7.5-4.5c-0.4,0.6-0.8,1.2-1.2,1.8
	C323.7,401.7,326,403.4,328.4,405.1z M250.8,409c0.1-0.8,0.2-1.7,0.3-2.5c-3.3-0.4-6.5-0.7-9.8-1.1c-0.1,0.7-0.2,1.4-0.3,2.1
	C244.3,407.9,247.6,408.5,250.8,409z M171.8,433c-0.4-0.8-0.9-1.5-1.3-2.3c-2.3,1.1-4.5,2.3-6.8,3.4c0.4,0.7,0.7,1.5,1.1,2.2
	C167.1,435.2,169.5,434.1,171.8,433z M201.2,423.5c-0.5-0.9-1-1.7-1.5-2.6c-2.2,1.4-4.4,2.8-6.6,4.2c0.4,0.7,0.8,1.4,1.2,2.1
	C196.6,425.9,198.9,424.7,201.2,423.5z"/>
<path class="st1" d="M86.6,170.3c-5.7,2.1-10.9,4.5-16.3,5.9c-1.9,0.5-5.1-0.6-6.4-2.1c-1.9-2.2-1.4-4.8,0.7-7.6
	c3.3-4.3,5.7-9.3,8.3-14.1c2.2-4.1,0.6-7.8-1.7-11.2c-3.3-4.8-6.7-4.8-10-0.1c-2.8,3.9-6.1,7-11.4,7.4c-2.6-7.1-3.4-14.4-1.9-21.7
	c0.9-4.4-1.2-7.2-4.3-8.6c-3.4-1.5-7.7-2.3-11.3-1.7c-1.6,0.3-2.5,4.8-3.7,7.5c0-19.7,0-39.3,0-59c0.2-0.1,0.4-0.2,0.7-0.3
	c0.7,1.5,1.4,3.1,2.2,4.6c6,10.4,11.6,21,18.2,30.9c5.1,7.7,12,13.8,21.3,16.6c1,0.3,2.2,2.4,2.1,3.6c-0.4,20.8,9.4,37.8,20.5,54.2
	c1.6,2.3,3.1,2.6,5.2,0.4c8.6-9.1,19.9-13.1,31.6-16.1c10.2-2.6,20.4-5.1,29-11.8c5,7.1,9.8,14,14.5,21c0.5,0.7,0.1,2.3-0.3,3.1
	c-9.9,16.9-12.4,35.7-14.9,54.6c-1.3,9.4-1,9.7,8.5,7.9c13.5-2.6,26.9-5.8,40.6-8.7c3.4,4.9,7.3,11,11.7,16.7
	c3,3.9,8.7,6.8,9.6,10.9c0.9,3.9-3.3,8.8-4.4,13.4c-2.6,10.6-4.8,21.4-7.2,32.1c-0.9,4.3,0.8,6.2,5.2,6.2c9-0.1,18,0.6,27-0.1
	c8.7-0.7,17.3-2.8,26.4-4.4c0,0.1,0.4,0.6,0.6,1.2c5.4,19.9,18.1,34.1,34.7,45.4c3.2,2.1,5.5,2.1,8.4-0.4c9.5-7.8,16.2-17.6,21-28.8
	c1.4-3.1,2.8-3.5,6.3-3.4c7.9,0.2,11.9,4,15.3,10.7c2.8,5.6,7.2,10.4,11,15.7C365.5,350,363,362,361.3,375c-2.3-1.5-4.1-2.6-5.9-3.7
	c-24-15.6-49.6-27.3-78.1-31.7c-33.3-5.1-63.8,2.7-91.7,21.2c-4.5,3-8.9,4.7-14.2,5.3c-18.3,1.8-36.5,2.2-54.9,0.1
	C106.4,365,99,360,93.2,351.7c-15.5-22.4-2.8-41.1,13.9-51.2c1.9-1.1,4.8-0.9,7.2-0.8c13.9,0.2,27.9,0.8,41.8,0.6
	c7.2-0.1,11-4.8,11.6-11.8c0.1-1.6,1.2-3.2,2-4.6c2-3.4,4.8-6.5,6-10.1c2.1-6.5,0.7-8.8-5.3-11.7c-16.7-8.2-31.7-18.8-45.9-30.8
	c-10.6-9-23.5-13-37.4-13.3c-3.5-0.1-5.6-1.2-7.3-4.1c-7.2-12.2-6.7-17.5,4.5-25.2C89.3,185.3,90.4,175.8,86.6,170.3z"/>
<path class="st3" d="M160.5,229.6c3.5-14.9,6.8-29.7,10.4-44.6c0.7-3,1.8-6.4,3.8-8.6c5.6-5.9,2.6-9.9-1.2-15.2
	c-5.2-7.2-9.3-15.3-13.6-23.2c-1.4-2.5-1.8-5.6-2.8-8.6c10.4-5.6,21.2-8.4,32.2-9.9c4.9-0.7,7.2-2.7,8.5-7.4
	c3.5-12.6,10.1-23.5,19.3-32.8c2.3-2.4,4.1-2.9,7.2-1.2c14,7.7,25.9,17.5,33.5,31.9c0.9,1.7,3.8,2.9,5.9,3.2c15.3,2.2,30.7,4,46,6
	c2.1,0.3,4.1,1.2,6.6,2c-2.7,14.7-8.5,27.5-17.7,38.8c-4.9,6-4.5,5.8-0.8,12.7c4.2,8.1,7.5,16.6,11.1,25c1.6,3.7,0.3,6.1-3.4,7.9
	c-9.1,4.3-18.8,5.8-28.7,5.6c-4.2-0.1-5.9,0.4-6.2,5.4c-0.8,17.2-10.2,29.9-23.4,40c-0.9,0.7-3.3,0.7-4.3,0
	c-13.4-9-25.8-19.1-31.7-34.9c-1.3-3.5-2.9-3-5.7-1.7c-13.7,6.6-28.5,8.4-43.2,10.7C161.8,230.4,161.2,230,160.5,229.6z"/>
<path class="st4" d="M474.4,645.8c0,18,0,36,0,53.9c0,10,0,20,0,30c0,12.8-14,26.8-26.8,26.8c-19.2,0-38.3,0-57.5,0
	c-1.9,0-4.1-0.2-5.8-1c-19.9-9.8-37.9-22.3-52.9-38.7c-0.7-0.7-1.2-1.5-2-2.6c13.6-11.8,27.1-23.4,43.9-30.2
	c3.4-1.4,4.9-3.1,5.4-6.7c3-19.7,9.1-38.2,22.2-53.8c4.9-5.9,4.9-5.9,12-2.8c16.4,7.2,29.5,18,37.5,34.3c1.7,3.5,3,3.1,5.9,0.8
	c5.2-4.2,11-7.6,16.6-11.4C473.4,644.9,473.9,645.4,474.4,645.8z"/>
<path class="st3" d="M442.1,243.7c4.5,14,10,26.5,19.1,37c0.9,1,1.1,2.8,1.1,4.2c1.4,37.2-1.9,73.9-14.9,109.2
	c-3.2,8.7-7.7,16.9-12,26.3c-8.7-9.6-15.3-19.2-19.2-30.4c-2.7-7.6-2.7-5.9-9-4.6c-8.7,1.8-17.7,2.7-26.6,2.7
	c-3.1,0-6.1-4.1-9.4-5.6c-6.7-3.1-6.8-8.2-5.5-14.4c2-9.4,4.4-18.4,10.5-26.1c0.8-1,0.4-3.8-0.6-5c-14.9-18.3-26.1-42.2-30.2-65.5
	c2-0.2,3.9-0.5,5.8-0.6c23-0.8,45.7,0.2,66.5,11.7c3.3,1.8,4-0.4,4.6-2.9c2.9-11.1,7.4-21.4,14.6-30.4
	C438.6,247.6,440,246.1,442.1,243.7z"/>
<path class="st4" d="M32.3,62.4c15.2-9.9,30.7-17.3,48.6-18c4.3-0.2,5.5-1.8,4.9-5.9c-0.6-3.8-0.4-7.6-0.6-11.5
	c-0.2-3.3,1-4.8,4.6-4.6c7.7,0.3,15.3,0,23,0.2c1.5,0,3.8,1.1,4.2,2.2c5.6,15.3,8.7,31.1,9.6,47.3c0,0.3-0.3,0.6-0.5,2.3
	c-13.9-0.7-27.9-0.8-41.7-2.4c-13.4-1.5-26.7-4.6-40-7c-0.2,0.8-0.3,1.6-0.5,2.4c12.9,4.2,26.3,6.8,39.8,8.1
	c13.6,1.3,27.2,1.8,39.7,2.6c-5.2,11.3-11.3,23.2-16.1,35.6c-4.7,12.3-7.6,25.2-8.2,38.4c0.8,0.2,1.5,0.3,2.3,0.5
	c0.6-2.4,1-4.8,1.7-7.2c4.1-14.6,7.5-29.3,12.6-43.5c3-8.4,8.6-16,13.4-24.5c19.6,16.9,41.8,25.5,65.5,31.1
	c-0.1,4.6-1.5,6.7-6.3,7.7c-10.2,2.2-20.1,5.6-30.2,8.6c-3.8,1.2-5.4,3.6-3.8,7.6c0.7,1.7,0.7,3.7,1.6,5.2c3.1,5.2,0.8,8.2-3.9,9.9
	c-7.3,2.8-14.6,5.7-22.1,7.6c-11.9,3-24.1,8.6-33.3,16.3c-0.3-0.1-0.8-0.1-0.9-0.3c-9.6-13.6-18.2-28-18.7-45
	c-0.3-8.5-1.5-13.3-10.5-15.5c-4.1-1-7.7-5.2-10.8-8.6C45.4,90.7,38.8,76.9,32.3,62.4z"/>
<path class="st2" d="M46.6,499.6c10,9.2,21,15.6,34,19.5c-0.4,4.5-0.8,9.2-1.2,14c-1.9,22.5-1.2,44.9,1.9,67.3
	c0.4,2.7-0.4,5.5-0.7,8.3c-2,18.4-4.1,36.7-5.8,55.1c-0.6,6.6-0.4,13.3-0.1,20c0.2,4-1.1,5.9-5.1,5.9c-4.9,0-9.9,0-15.6,0
	c1-6.1,1.8-10.9,2.6-15.8c2.6-17.1,1.4-34.2-1.1-51.3c-0.1-0.8-0.5-1.6-0.8-2.3c-13.4-28.5-14.9-58.8-12.8-89.5
	c0.6-8.6,2.1-17.2,3.3-25.7C45.4,503.4,46,501.8,46.6,499.6z"/>
<path class="st4" d="M134.4,76.6c24.1-6.5,44-20,63.7-33.6c0.5-0.4,0.7-1.3,0.3-3.2c-1.6,0.7-3.2,1.2-4.7,2.1
	c-13.9,8.2-27.5,16.8-41.7,24.5c-6.3,3.4-13.6,5-20.3,7.4c-3.6-17.7-7-34.2-10.4-51.2c1.4,0,3.5,0,5.6,0c18.6,0.3,37.3,0,55.9,1.1
	c6.7,0.4,13.3,3.7,19.7,6.3c3.8,1.5,4.8,4.7,3.3,9.1c-4.3,12.6-10.6,23.7-21.3,31.9c-2.9,2.2-3.3,3.8,0.1,5.9
	c7.8,4.7,11.4,12.4,14.2,20.5c1.2,3.5-2.2,8-5.3,7.3c-20.9-5-40.7-12.6-57.6-26.3C135.5,77.9,135.2,77.5,134.4,76.6z"/>
<path class="st4" d="M222.8,300.5c23.2-29.1,48.3-54.2,82.1-69.3c4.8,4.9,7.5,9.6,7.3,17.3c-0.5,28.3,0.4,56.6,0.9,84.9
	c0,2.9,0.3,5.9,0.5,10.2c-4.2-3.2-7.6-5.6-10.6-8.2c-11.4-9.8-19.6-21.7-23-36.6c-0.9-3.9-2.1-4.7-6.1-3.2
	C257.7,301.5,241,301.8,222.8,300.5z"/>
<path class="st3" d="M296,22.5c28.6,0,57.2,0,85.8,0.1c1.3,0,3.3,1.5,3.9,2.8c6.5,15.3,12.9,30.6,19.2,46c1.8,4.5-0.6,8.4-6.7,12
	c-2.2-4.3-5.8-4-10-3.2c-12.3,2.4-24.4,5.2-35.4,11.5c-0.6,0.3-1.2,0.8-1.8,0.8c-2.3,0.1-11.9-8.1-12.3-10.4
	c-1.6-9.5-1.7-18.9,1.6-28.1c0.4-1.1,0.6-2.9-0.1-3.7c-6.4-8.1-13-16.2-22.8-20.3c-2.9-1.2-6-1.7-9.1-2.5c-4.2-1.1-8.4-2.1-12.6-3.2
	C295.8,23.7,295.9,23.1,296,22.5z"/>
<path class="st4" d="M323.8,242.9c0.2-19.8,15.6-68.8,27.4-86.7c25.6,15.6,43.9,37.5,56.8,65.5c-13.3,0.2-25.2-1.4-35.6-9.1
	c-5.4-4-5.3-4-9.2,1.8C354.6,227.6,338.6,239.2,323.8,242.9z"/>
<path class="st2" d="M213.1,501.4c10-5.3,19.4-10.3,29.1-15.4c1.2,4.7,2.4,9.3,3.6,13.9c5.5,21.6,19.1,37.8,35,52.4
	c3.8,3.5,8.4,6.4,8.7,12.2c0.1,1.5-0.1,3.6-1,4.5c-12.7,12-17.5,27.8-20.7,44c-2.3,11.6-3.3,23.6-4.9,36.1c-5.2,0-11.6,0-18.5,0
	c0.2-1.3,0.2-2,0.5-2.5c9.3-21.7,13.9-44.6,15.8-67.9c1.2-14.1,0.6-28.8-7.2-41.7c-1.3-2.2-3.4-4.1-5.5-5.4
	c-11.3-7.2-22-15-30.9-25.2C215.8,504.9,214.6,503.3,213.1,501.4z"/>
<path class="st4" d="M375.6,267.6c-10,0-18.9-0.1-27.9,0c-6.5,0.1-7.1,0.8-5.2,7.2c3.6,12.1,7.5,24.1,11.5,36.8
	c-3.1-0.6-6.4-0.9-9.3-2c-3.4-1.3-4.5-0.3-5.8,2.9c-4.3,11-10.3,20.9-19.2,28.8c-0.5,0.4-1,0.7-2.5,1.7c-2.1-33-3.7-65.4-1.6-98.9
	c6.1,6.4,11.4,2.3,15.9-0.2c6.3-3.5,11.7-3.1,17,0.8c7.9,5.8,15.5,11.8,23.2,17.9C373.1,263.6,373.9,265.3,375.6,267.6z"/>
<path class="st4" d="M418,203.9c3.7,4.3,7.5,8.6,11,13.1c0.7,0.9,0.1,3.2-0.5,4.6c-4.3,10.7-10.8,19.5-21,25.1
	c-3.5,1.9-3.8,4.1-1.7,7.2c4.3,6.2,6,13.2,6.1,20.9c-7.7-1.9-15.2-4.4-22.7-5.3c-6.3-0.8-10.4-3.4-14.2-8.4
	c-6.9-9.2-16.4-15.5-26.7-20.5c-1.4-0.7-2.8-1.5-3.5-1.8c8-8,16-15.9,24.2-24.1c10.8,8.6,24.4,10.8,38.7,10.8c3,0,4.6-0.9,5.2-3.9
	c1.1-5.5,2.4-11,3.7-16.5C417.1,204.6,417.5,204.2,418,203.9z"/>
<path class="st4" d="M297.7,75.6c17.9,1.8,33.1,7.4,46.7,17.3c4.3,3.2,7.4,3.8,12.3,0.9c9.6-5.7,20.5-8,32.9-10
	c-16.9,20.7-30.1,42.2-40.9,66.5C330.4,126,314.4,101.1,297.7,75.6z"/>
<path class="st3" d="M454.2,651.6c-6.1-7-12.4-14-18.5-21.2c-0.9-1-1.2-3-0.9-4.4c5-21.7,24.8-63.5,39.2-82.9c0.2,1.7,0.4,2.8,0.4,4
	c0,30,0,59.9,0.1,89.9c0,3.1-1,4.5-3.9,5.8C464.8,645.4,459.3,648.8,454.2,651.6z"/>
<path class="st2" d="M315.3,46.5c-12.5,11.9-26.5,17.1-42.2,18.1c-10.7,0.7-10.6,0.6-13.5,10.8c-1.8,6.4-3.6,12.7-8.8,17.7
	c-4.3-3.7-7.8-6.7-8.5-12.8c-1.9-15.4-8-29.4-15.2-43c-0.7-1.3-1.4-2.6-2-4c-0.1-0.2,0-0.6,0.1-1.6
	C256.2,28.6,285.2,37.6,315.3,46.5z"/>
<path class="st1" d="M288.3,111.5c-8.5-0.6-16.5-1.1-24.4-1.8c-1.2-0.1-2.7-1.2-3.4-2.3c-2.4-3.6-4.6-7.3-7.1-11.4
	c6.2-6.6,8.8-15.2,10.6-24c0.8-3.7,2.8-3.7,5.6-3.8c17.4-0.4,33.1-5.6,46.2-17.3c5.4-4.8,5.4-5.1,0.8-10.9c-2.2-2.8-4.7-5.4-7.1-8.1
	c0.3-0.4,0.5-0.8,0.8-1.2c4.2,2.2,8.5,4,12.5,6.6c2.9,1.9,5.2,4.6,7.8,7c4.8,4.3,6.3,8.9,4.7,15.8c-1.6,6.9-0.4,14.5-0.4,22.3
	c-1.6-0.6-2.8-1.1-3.9-1.5c-10.9-3-21.7-6-32.6-9c-4.1-1.1-6.7,0.2-7.2,4.8c-0.9,9.7-2,19.5-3,29.2
	C288.2,107.6,288.3,109.3,288.3,111.5z"/>
<path class="st4" d="M438.4,147.5c-15.5,0-29.5-0.4-43.5,0.1c-13.9,0.4-27.8,1.7-42.2,2.6c10.4-23.7,24.1-45.7,41.2-66
	c6,7.1,8.2,15.3,9.5,23.7c1.1,7.4,1.7,14.9,2.1,22.4c0.2,3.4,1.3,4.7,4.7,5.6c6.8,1.6,13.4,3.8,19.9,6.2
	C432.8,143,435,145.1,438.4,147.5z"/>
<path class="st4" d="M439,152c-5.7,10.3-13,18.1-22.8,23.1c-3.5,1.8-4,3.6-3.5,7c1.9,11.5,0.5,22.8-2.1,33.6
	c-7.8-11.2-14.8-23.2-23.7-33.5c-8.8-10.2-19.6-18.8-29.3-27.9C364.2,150.2,418,150.1,439,152z"/>
<path class="st2" d="M416,464.8c18.1,25.3,36.7,49.2,48.9,77.2c1.5,3.5,1.6,6.4-0.7,9.7c-2.9,4.2-5.3,8.7-8.2,13.7
	c-2.8-6.2-5.3-11.8-8-17.2c-10.5-21.7-23.5-41.7-40.4-59.1c-1.1-1.1-1.8-3.7-1.2-4.9C409.2,477.9,412.4,471.9,416,464.8z"/>
<path class="st4" d="M347,155.8c-14.1,27.9-22.9,56-27.2,86.6c-9.5-9-15.7-18.8-20.2-30.1c3.2-1.6,6.1-3.1,9.1-4.4
	c4.2-1.8,5.8-4.8,4.1-9.2c-3.1-8.1-6.3-16.1-9.5-24.1c-0.5-1.2-1.3-2.3-2.1-4C315.2,163.1,330.4,159.7,347,155.8z"/>
<path class="st2" d="M388.7,22.9c9.1-1,17.1,0,25,3.3c20.9,8.7,39.4,20.7,55.6,36.4c3.7,3.6,5.9,7.3,5.2,12.6
	c-0.4,2.9-0.1,5.9-0.1,10c-2.3-1.8-3.9-3.1-5.5-4.4c-15.9-12.9-32.5-24.9-51.4-33.1c-4.3-1.9-8.6-4-13.1-4.7
	c-6.2-0.9-9.2-4.2-11-9.7C392.2,29.9,390.4,26.6,388.7,22.9z"/>
<path class="st2" d="M393.4,510.5c10.7,9.4,19.5,19.5,27.1,30.7c8.3,12.2,14.7,25.3,19.4,39.3c3.9,11.7,3.9,11.7-2,23.6
	c-13.9-27.2-26.5-55-55.6-70.3C386,526.2,389.6,518.6,393.4,510.5z"/>
<path class="st2" d="M429.9,627.1c-13.1-29.6-28.9-55.8-56.6-73.6c2.4-5.3,4.8-10.5,7.7-17c5.9,4.3,11.6,7.7,16.4,12
	c11.2,10,19.1,22.6,26.3,35.6c2.4,4.4,4.1,9.3,7,13.2C437.7,607.1,435.3,616.3,429.9,627.1z"/>
<path class="st2" d="M77.9,217.7c-3.9,0.7-7.4,1.9-11,1.9c-1.3,0-3.9-2.6-3.9-3.8c1.3-25.5-11-45.7-24.8-65.5
	c-0.1-0.1-0.2-0.3-0.3-0.4c-9.1-8.2-6.8-18.3-4.4-28.2c0.3-1.1,3.1-2.4,4.4-2.1c3.5,0.6,6.4,2.2,6.5,6.8c0.1,6.9,0.3,13.9,1.3,20.8
	c0.7,5.3,2.8,6.6,7.6,4.2c4.8-2.3,8.8-6,13.7-9.5c2.6,1.7,4.5,4.9,2.7,8.7c-2.3,5.1-4.8,10.3-8.5,14.4c-3.4,3.8-1.9,7-0.7,10.5
	c1.2,3.7,4.4,5.2,8,4.5c5.3-1,10.5-2.6,16.2-4.1c1,3.6,1.2,7.2-2.6,10.1c-12.4,9.4-13.6,15.3-5.9,28.8
	C76.8,215.5,77.2,216.4,77.9,217.7z"/>
<path class="st2" d="M425,447.3c1.3,1.6,2.5,2.8,3.4,4.1c12.8,17.7,25.3,35.6,38.5,53c5.8,7.6,8.5,15.3,7.8,24.8
	c-0.4,4.7-1.2,8.8-4.2,12.3c-0.2,0.2-0.5,0.4-0.8,0.6c-0.3-0.1-0.8-0.1-0.9-0.3c-11.8-27.1-29.2-50.8-46.7-74.3
	c-3.4-4.5-4.3-8.1-1.1-12.7C422.5,452.7,423.5,450.2,425,447.3z"/>
<path class="st4" d="M295.2,78.9c16.5,24.4,33,48.7,49.4,72.9c-15,4.8-30.4,9.7-46,14.7c0.5-0.8,0.9-1.9,1.7-2.7
	c10.2-11.9,16.3-25.8,19.7-41c0.7-3.1-0.3-4.5-3-5.1c-6.9-1.7-13.9-3.5-20.9-4.9c-2.7-0.5-4.4-1.2-4.2-4.2c0.5-9.9,1-19.8,1.5-29.8
	C294,78.9,294.6,78.9,295.2,78.9z"/>
<path class="st2" d="M445.7,586c-0.8-2.2-1.3-3.4-1.7-4.6c-9-27.6-24.2-51.3-45.5-71c-2.7-2.5-3.3-4.4-1.4-7.5
	c2.1-3.6,3.7-7.4,5.6-11.1c0.1-0.3,0.5-0.4,1.9-1.9c1.2,1.7,2.3,3.6,3.7,5.1c19.7,21.3,33.7,46.1,44.6,72.7c0.5,1.2,0.5,2.9,0,4.1
	C450.7,576.2,448.4,580.6,445.7,586z"/>
<path class="st2" d="M436,426.1c1.1,1.3,1.8,2.1,2.5,3c11.1,13.4,22.3,26.9,33.4,40.3c0.9,1.1,2.4,2.3,2.4,3.5
	c0.2,11.6,0.1,23.1,0.1,35.9c-1.7-2.1-2.6-3.2-3.4-4.4c-13.8-19-27.4-38-41.3-56.9c-2.2-3-2.6-5.2-0.7-8.4
	C431.6,435.1,433.6,430.7,436,426.1z"/>
<path class="st1" d="M417.6,278.8c-0.7-1.4-1.8-2.8-1.9-4.3c-0.4-8.5-2.6-16.4-7.6-23.9c12.3-6.7,19.9-17.2,24.7-29.8
	c0.6-1.4,0.7-3.9-0.2-4.9c-4.1-4.9-8.7-9.5-13-14.3c-1.1-1.3-1.9-3-2.4-4.7c-0.4-1.4,0.3-3.1-0.1-4.5c-3.4-11.2,2.8-17.1,12.7-21.4
	c0.9,6.9,1.7,13.9,2.9,20.9c2.4,14.8,5,29.5,7.3,44.2c0.3,1.9,0.1,4.5-1,5.7c-9.2,9.8-15.2,21.4-19,34.2c-0.2,0.8-0.5,1.5-0.8,2.3
	C418.6,278.5,418.1,278.6,417.6,278.8z"/>
<path class="st4" d="M220.9,294.3c3.6-13.2,7.2-26.4,11.1-40.6c4.1,2.7,6.9,4.4,9.4,6.5c2.8,2.3,4.9,2.1,7.8-0.1
	c14.6-11.4,24.2-25.5,25.4-44.6c6.7-0.7,13.1-1.4,19.5-2c0.8-0.1,2.1,0.9,2.6,1.7c2.2,4.1,4.1,8.3,6.3,12.9
	c-33,14.9-58,39.4-80.5,67C222,294.8,221.4,294.5,220.9,294.3z"/>
<path class="st2" d="M398.6,44.7c5.9,2,10.6,3.4,15.1,5.3c21.9,9.2,40.7,23.2,58.6,38.5c1.1,0.9,1.9,2.7,2,4.2
	c0.3,4,0.1,7.9,0.1,12.8c-1.9-1.4-3.1-2.3-4.4-3.2c-13-9.2-25.7-18.9-39.3-27.4c-6.3-3.9-14.2-5.4-21.3-8c-1-0.4-2.5-0.8-2.8-1.5
	C404,58.9,401.6,52.4,398.6,44.7z"/>
<path class="st2" d="M239.3,82.8c-5.6-3.2-10.5-5.9-15.3-8.8c-2.8-1.7-5-1.8-7.3,1c-4.9,6-10.1,11.8-15.3,17.8
	c-3.4-5.1-5.4-10.4-3.3-17.5c4.6-15.3,11.8-28.8,23-41.3C230,49.3,236.5,64.9,239.3,82.8z"/>
<path class="st1" d="M28.8,59.5c-1.9-18.6,5.6-31.4,21.4-36.2c2.9-0.9,6.2-0.7,9.3-0.8c7.3-0.1,14.6,0,22.3,0c0,6.1,0,11.8,0,17
	c-9.1,2.4-18.5,4-27.3,7.3C45.7,50.2,37.6,55.1,28.8,59.5z"/>
<path class="st2" d="M422.4,620.6c-5.8-2.1-11.7-4.2-17.5-6.5c-1.1-0.4-1.8-1.8-2.5-2.9c-9.4-15.7-20.4-30-36.8-40.2
	c2-4.6,4-9,5.9-13.5C387.2,563.1,417.8,601.3,422.4,620.6z"/>
<path class="st1" d="M271.3,658.5c-7.3-31.3,0-59.5,18.2-85.3C292.5,603.6,283.2,631.3,271.3,658.5z"/>
<path class="st2" d="M473,466.2c-9.4-11.5-18.7-23.2-28.4-34.4c-5.6-6.4-7.3-12.5-1.4-19.5c1.1-1.3,1.8-3.1,2.6-4.5
	c6.8,6.4,12.9,13.4,20.3,18.5c6.7,4.6,9.3,9.6,8.5,17.5c-0.7,7.2-0.1,14.4-0.1,21.7C474,465.7,473.5,466,473,466.2z"/>
<path class="st2" d="M408.2,69.7c5.3,1.7,9.8,2.8,13.9,4.6c16.4,7.3,30.4,18.3,44.3,29.5c8.5,6.9,8.5,6.9,7.7,18.4
	c-1.3-0.7-2.4-1.2-3.3-1.9c-17.5-12.9-35.2-25.7-55.4-34.4c-1.2-0.5-2.4-1.9-2.9-3.1C411.2,79,410,75,408.2,69.7z"/>
<path class="st2" d="M414.9,89.4c4.5,2.2,8.1,3.5,11.2,5.6c15.4,10.1,30.8,20.5,46,30.8c1.1,0.8,2.1,2.6,2.2,4
	c0.3,4.6,0.1,9.3,0.1,14.9c-1.8-1.5-3.1-2.4-4.2-3.4c-14.5-12.9-30-24.3-47.3-33.2c-1.7-0.9-3.2-2.8-3.9-4.6
	C417.5,99.4,416.5,95,414.9,89.4z"/>
<path class="st2" d="M474.4,62.8C457,45.1,438,32.4,415.2,23c2.5-0.3,3.6-0.5,4.8-0.5c9,0,18,0.6,27-0.2c12-1,29,15.7,27.6,27.8
	C474.1,53.9,474.4,57.7,474.4,62.8z"/>
<path class="st2" d="M474.4,206.3c-6.5-6.1-11.8-11.8-17.9-16.6c-6.4-5-13.5-9-20-13.9c-1.8-1.4-3.1-4.4-3.3-6.9
	c-0.6-6.1,6.7-11.3,11.7-8c9.8,6.5,19.1,13.8,28.5,20.9c0.7,0.5,1,2,1,3.1C474.5,191.7,474.4,198.5,474.4,206.3z"/>
<path class="st2" d="M382.5,647.3c-1.5-2.9-2.6-5.1-3.8-7.2c-6.5-12-14.9-22.5-25-31.6c-2.2-2-2.9-3.7-1.5-6.4c1.7-3.4,3-7,4.9-11.4
	c3.8,2.9,7.8,5,10.3,8.2c7.7,9.8,14.9,20,22,30.1c0.7,1,0.6,3.2,0,4.5C387.5,637.8,385.1,642.1,382.5,647.3z"/>
<path class="st2" d="M358.3,587.6c2-4.5,3.7-8.5,5.8-13.2c17.1,10.6,27.9,26,37.5,42.6c-2.8,3.5-5.5,6.8-8.6,10.6
	C383.8,612.2,374.6,597.1,358.3,587.6z"/>
<path class="st2" d="M376.6,666c-1.2-2-2-3.8-3.1-5.3c-8.8-11.2-17.6-22.5-26.8-33.4c-2.3-2.7-3.1-4.6-1.5-7.8
	c1.5-3.1,2.6-6.4,4.6-11.3c7.4,9,14.1,16.8,20.4,24.8c2.3,2.8,3.6,6.4,5.7,9.3C381.6,649.9,380.6,657.6,376.6,666z"/>
<path class="st2" d="M343.5,627.7c7.7,9.5,15.5,18.9,22.9,28.6c3.1,4.1,5.5,8.7,7.8,13.3c1,2.1,1.3,4.8,0.9,7.1
	c-0.3,1.5-2.1,3.3-3.6,3.9c-1.1,0.4-3.5-0.6-4.3-1.7c-9.4-12.5-18.9-24.8-27.4-37.9c-1.8-2.8,0.5-8.2,0.9-12.4
	C341.5,628.2,342.5,627.9,343.5,627.7z"/>
<path class="st2" d="M352.5,756.4c-4.6,0-8.1,0-11.5,0c-7.8-15.4-18.7-28.3-30.3-40.7c-5.2-5.6-5.2-5.5-0.8-11.6
	c0.6-0.8,1.2-1.5,2.2-2.8C327.5,718.3,342.7,734.8,352.5,756.4z"/>
<path class="st2" d="M365.4,683.4c-3.6,2.1-7.2,4.2-11.1,6.5c-9.3-8.5-17-18.2-22.8-29.4c-0.6-1.1-0.6-2.9-0.1-4.2
	c1.3-4.1,2.9-8.1,4.6-12.9C345.9,656.9,355.5,669.9,365.4,683.4z"/>
<path class="st2" d="M422.8,110.9c12.2,8.6,24.4,17.1,36.5,25.8c3.4,2.4,6.1,5.7,9.5,8c5.7,3.8,6.7,8.9,5.1,15.5
	c-1.1-0.9-2.2-1.6-3.1-2.4c-13.2-11.8-27.2-22.4-43.3-29.9c-1.3-0.6-2.7-2-3.1-3.4c-1.3-3.9-2-8-3-12
	C421.9,112,422.4,111.4,422.8,110.9z"/>
<path class="st2" d="M228.9,25.3c3.4-0.9,6.8-2.6,10.2-2.7c13-0.3,26-0.2,39-0.1c12.1,0.1,28.3,8.9,34.8,19.4
	c-27.7-8-54.8-15.9-83.5-14.3C229.2,26.9,229.1,26.1,228.9,25.3z"/>
<path class="st2" d="M303.9,713.6c12.4,12.9,24.1,26.2,33.1,42.5c-6.4,1-11.4,0.9-15.5-4.5c-6.4-8.3-13.6-15.9-19.8-24.3
	C296.6,720.6,297.1,719.9,303.9,713.6z"/>
<path class="st2" d="M474.4,242.9c-2.8-3-4.8-5.2-6.8-7.3c-7.5-7.9-15.8-14.8-25.5-19.8c-1.7-0.9-3.2-3.2-3.8-5.1
	c-1-3.5-1.2-7.1-1.9-11.9c4.1,2.2,7.6,3.5,10.4,5.7c8.9,7,17.5,14.3,26.2,21.6c0.7,0.6,1.3,1.6,1.4,2.4
	C474.5,232.9,474.4,237.3,474.4,242.9z"/>
<path class="st1" d="M400.5,87.2c2.5-2.4,4.6-4.4,7.8-7.5c5.1,18.4,10,36.2,15.3,55c-5.5-1.1-9.8-2-14.2-2.9
	C408.4,116.4,407.8,101.2,400.5,87.2z"/>
<path class="st2" d="M473.7,221.6c-4.2-3.7-8.2-7.7-12.7-10.9c-7.1-5.1-14.7-9.6-22-14.4c-1.1-0.7-2.4-1.9-2.6-3.1
	c-0.8-4.4-1.2-8.8-1.8-14.5c3.7,2.2,6.8,3.4,9.2,5.5c9.8,8.5,19.6,17,28.7,26.2c2.2,2.2,1.8,7.1,2.6,10.8
	C474.6,221.3,474.2,221.5,473.7,221.6z"/>
<path class="st2" d="M442.2,154.2c2.4-6,2.4-6.1-3.9-11.1c-2.7-2.1-6-3.5-8.8-5.7c-1.6-1.2-2.5-3.2-3.7-4.8c0.5-0.5,0.9-1,1.4-1.5
	c6.9,4.2,14.1,8,20.5,12.7c8.7,6.4,16.9,13.5,25.1,20.4c0.9,0.8,1.4,2.5,1.5,3.8c0.2,2.8,0.1,5.6,0.1,8.4
	C463.7,169.1,453.1,161.7,442.2,154.2z"/>
<path class="st2" d="M472.5,428.4c-7.6-7.6-15.2-15.1-22.6-22.8c-0.9-0.9-1.5-2.9-1.2-4c1.3-4.2,3-8.3,4.3-11.9
	c6.9,6.1,13.7,12.1,20.4,18.1c0.6,0.6,1,1.7,1,2.6c0.1,5.6,0,11.2,0,16.8C473.8,427.6,473.2,428,472.5,428.4z"/>
<path class="st1" d="M37.1,155.5c12.1,17,22.3,34.8,21.4,57.1c-2.3-2.7-4.7-5.3-6.8-8.1c-3-4-5.8-8.1-8.6-12.3
	c-2.9-4.2-4.4-8.5-3-14C42.1,170.5,40.2,162.8,37.1,155.5z"/>
<path class="st2" d="M107.8,711.1c2.7-7.4,5.4-14.7,8.2-22.1c0.2-0.6,1.6-1.1,2.5-1.2c3.4-0.6,6.8-1.1,11.5-1.9
	c0.4,7.3,1,14.7,1.2,22.1c0,0.8-1.1,2.3-1.9,2.4c-6.7,0.8-13.4,1.5-20.1,2.1C108.8,712.1,108.3,711.6,107.8,711.1z"/>
<path class="st2" d="M350.6,692.5c-1.1,0.8-2.4,1.8-3.7,2.8c-7,5.2-7,5.2-13.3-0.7c-11-10.3-11.7-14.5-4.9-29.9
	C335.8,673.8,343,682.9,350.6,692.5z"/>
<path class="st2" d="M441.5,218.7c5.9,4.5,12,8.8,17.6,13.5c3.4,2.9,6.2,6.5,9.5,9.6c5,4.7,7.3,10.2,5.3,17.4
	c-0.9-0.8-1.7-1.6-2.6-2.4c-7.4-6.2-14.4-12.8-22.3-18.3c-4.1-2.9-7-5.7-7.5-10.7c-0.3-2.6-0.9-5.2-1.4-7.7
	C440.5,219.6,441,219.2,441.5,218.7z"/>
<path class="st2" d="M266.5,652.8c0.4,4.1,1.2,8.4,0.9,12.6c-0.1,1.8-2.5,4.7-4.1,4.9c-7.5,0.9-15.2,1.1-24.4,1.7
	c3.5-6.9,6.4-12.6,9.5-18.3c0.3-0.6,1.8-0.8,2.7-0.8C256,652.8,260.8,652.8,266.5,652.8z"/>
<path class="st2" d="M77.2,710.4c-7.9,0.4-14.8,0.7-21.8,1c-0.9,0-1.9-0.2-3.8-0.5c2.1-5.6,4-10.9,6.2-16c0.3-0.8,1.7-1.6,2.6-1.7
	c4.3-0.4,8.6-0.7,12.9-0.6c1.1,0,2.9,1.4,3,2.2C76.8,699.9,76.9,704.9,77.2,710.4z"/>
<path class="st2" d="M294.7,724.8c8.4,10.4,16.8,20.8,25.4,31.3c-7.6,0.9-14.9,1.6-19.9-6.3c-2.4-3.8-5.5-7.1-7.8-10.9
	C287.9,731.5,288.3,730.4,294.7,724.8z"/>
<path class="st1" d="M28.6,239.2c0-11.8,0-23.5,0-35.5c6.3,8.4,12.7,16.3,18.4,24.7c2.4,3.4-1.5,5.7-3.8,6.7
	C38.6,236.9,33.6,237.8,28.6,239.2z"/>
<path class="st2" d="M291.5,665.7c0,9.3,0,17.6,0,26.2c-5.6,0-11.2,0-18,0c2.3-7.7,3.9-15.3,7-22.2
	C281.6,667.5,286.9,667.3,291.5,665.7z"/>
<path class="st2" d="M445,241.3c12,5.7,21.5,13.9,28.6,24.4c1.4,2,0.8,5.4,1.1,8.5c-7.3-4.2-14.3-7.9-20.9-12.2
	c-1.8-1.2-2.7-4.1-3.6-6.4C448.4,250.9,446.7,246.1,445,241.3z"/>
<path class="st2" d="M457.7,372.2c5.7,4.9,10.7,9.1,15.6,13.5c0.7,0.6,1.1,2,1.1,3c0.1,4.8,0.1,9.6,0.1,15.5
	c-8.1-5.7-14.9-11.7-18.5-19.8C454.5,381.2,457,376.3,457.7,372.2z"/>
<path class="st2" d="M301.2,756.5c-6.3,0-12.1,0.9-17.4-0.4c-2.9-0.7-5.5-4.9-7-8.2c-0.7-1.6,1-4.7,2.3-6.7c1.7-2.6,4-4.9,6.2-7.6
	c2.9,4.8,4.9,8.6,7.3,12.1C295.1,749.3,297.9,752.5,301.2,756.5z"/>
<path class="st2" d="M321.6,686.8c5,5.3,9.9,10.4,15.2,16.1c-3.1,2.7-6.4,5.7-10.2,9c-4.2-4.6-8.2-9-12.4-13.6
	C316.8,694.3,319.3,690.4,321.6,686.8z"/>
<path class="st2" d="M474.4,381.9c-12.7-7.3-16.3-15.9-12.2-27.8c3.9,3.8,8.1,7.4,11.6,11.5c1.1,1.3,0.5,4.1,0.6,6.3
	C474.5,375,474.4,378.1,474.4,381.9z"/>
<path class="st2" d="M104.3,711.8c-1.9,0-4.2,0-6.9,0c0.4-8.1,1.7-15.6,6.1-22c1.3-1.9,5.4-1.9,9-3
	C109.5,695.9,107,703.5,104.3,711.8z"/>
<path class="st2" d="M346.1,736.2c10.5,6.8,20.3,13.3,31.1,20.3c-6.9,0-12.9,0-19-0.1c-0.8,0-2-0.6-2.4-1.3
	C352.6,749.1,349.5,743,346.1,736.2z"/>
<path class="st2" d="M277.8,668.8c-2.9,8.1-5.4,15.4-8.2,23.1c-2.2,0-4.9,0-8,0c-0.2-8.7,3.8-15.5,8.7-21.6
	C271.5,668.9,274.8,669.3,277.8,668.8z"/>
<path class="st2" d="M464.5,336.8c11.1,4.8,10.8,14,9.6,23.8C466,355.7,462.5,346.9,464.5,336.8z"/>
<path class="st1" d="M28.7,283.2c0-9.9,0-19.7,0-29.6c7.1,1.6,8.1,2.8,6.5,9.4c-1.6,6.8-3.6,13.6-5.5,20.4
	C29.4,283.3,29,283.2,28.7,283.2z"/>
<path class="st2" d="M246.2,651.5c-3.8,6.8-6.5,12.3-9.9,17.4c-1.1,1.7-3.9,2.2-6.3,2.6c1.2-8.1,5.1-14.3,10.4-19.6
	C241.2,651,243.6,651.6,246.2,651.5z"/>
<path class="st2" d="M473.6,339.2c-7.5-5-10.3-11.7-7.5-20.5C474.9,324,476.7,328.9,473.6,339.2z"/>
<path class="st2" d="M41.3,710.7c2.5-12.5,7.8-19.1,13.6-17.9c-1.9,5.4-3.8,10.8-5.8,16.2C47.4,713.5,44.3,710.6,41.3,710.7z"/>
<path class="st2" d="M198,22.9c8.1-0.6,14.8,2.2,21,7.6c-3.4,4.3-6.6,8.4-9.8,12.5C214.7,31.1,206.1,27.2,198,22.9z"/>
<path class="st2" d="M458.4,267.8c5.2,3.9,10.6,7.5,15.3,11.9c1.4,1.3,0.7,4.9,0.9,7.4c-0.5,0.2-0.9,0.5-1.4,0.7
	c-5.5-6.1-10.9-12.2-16.4-18.3C457.3,269,457.8,268.4,458.4,267.8z"/>
<path class="st2" d="M466.7,301.6c8.5,3.4,8.6,10.2,7.4,17.4C467.3,316.3,465.2,311.2,466.7,301.6z"/>
<path class="st2" d="M34.8,277.3c7.9-2.7,13.8-6.7,11.4-16.1c5,0.3,5.9,1.3,5.3,5.5C50.5,273.9,42.9,279.3,34.8,277.3z"/>
<path class="st2" d="M38.6,283c5.4,7.5-0.3,19.6-10.8,21.2c1-2.3,1.4-4.9,2.6-5.4C37.4,295.7,40.2,290.7,38.6,283z"/>
<path class="st2" d="M276.8,756.3c-5.4,0-10.4,0-16.4,0c4.4-3.3,8-5.9,11.8-8.7C273.7,750.5,275.1,753.2,276.8,756.3z"/>
<path class="st2" d="M466.4,286.8c6.2,3.4,9.9,7.7,7.6,14.8C468.3,299.2,465.8,294.6,466.4,286.8z"/>
<path class="st2" d="M36.6,273.1c1.2-5.3,2.1-9.7,3.1-14c0.4-0.3,0.8-0.6,1.2-0.9c1.2,1.7,3.2,3.2,3.5,5.1
	C45,268.3,41.8,271,36.6,273.1z"/>
<path class="st1" d="M187.4,74.2c3.9-3.7,7.5-7.2,10.5-10.1c-1.3,4.2-2.8,9.4-4.5,15C191.2,77.3,189.3,75.7,187.4,74.2z"/>
<path class="st2" d="M34.2,280.5c3.8,7.7,2.1,12.3-5.4,15C30.6,290.5,32.3,286,34.2,280.5z"/>
<path class="st2" d="M215.4,22.8c3.9,0,7.6,0,11.3,0C223,28.6,221.8,28.7,215.4,22.8z"/>
<path class="st2" d="M28.6,412.9c0-5.2,0-10.3,0-15.5C31.7,402.5,31.7,407.7,28.6,412.9z"/>
<path class="st2" d="M28.6,389.8c0-4.4,0-8.8,0-13.2C31.5,380.9,30.8,385.4,28.6,389.8z"/>
<path class="st2" d="M90.9,252.5c3.1-0.9,6.2-1.9,10.1-3.1c-0.7,3.4-1.2,6.1-2,9.6c-3-1.7-5.7-3.2-8.4-4.8
	C90.7,253.7,90.8,253.1,90.9,252.5z"/>
<path d="M106.3,263.2c-7.3-0.2-13.3-2.1-18.2-6.9c-2.5-2.5-2.2-4.5,0.8-6.4c9.8-6.2,24.7-3.8,32.4,5.2c2.2,2.6,1.3,5.1-2.3,6.3
	c-1.3,0.4-2.6,0.7-3.9,0.9C112,262.6,108.9,262.9,106.3,263.2z M90.9,252.5c-0.1,0.6-0.2,1.1-0.3,1.7c2.7,1.5,5.4,3.1,8.4,4.8
	c0.7-3.5,1.3-6.1,2-9.6C97.1,250.6,94,251.6,90.9,252.5z"/>
<path d="M121.9,374.7c2.1,0.6,4.3,1.3,6.4,1.8c1.8,0.4,3.7,0.6,5.8,0.9c-3.5,4.7-15.7,3.2-22.7-3.2c3.3,0.4,5.2,0.6,7.1,0.8
	C119.7,374.9,120.8,374.8,121.9,374.7z"/>
<path d="M137.7,381.2c7.2-0.8,14.3-1.7,21.5-2.4c0.7-0.1,2,0.8,2.2,1.4s-0.6,2.1-1.2,2.3c-7.5,2.7-15,2.2-22.5,0.7
	C137.7,382.6,137.7,381.9,137.7,381.2z"/>
<path d="M266.3,346.2c-10.6,0.8-21,1.6-31.7,2.4C241.3,342.9,263.9,341.7,266.3,346.2z"/>
<path d="M237.7,353.9c9.1-2.7,18.2-4.4,27.4-2.3c0,0.8,0,1.5,0.1,2.3C256,353.9,246.8,353.9,237.7,353.9z"/>
<path d="M325.5,363.3c8-0.2,21.5,8.9,23.3,16.5C340.6,374,333.4,368.9,325.5,363.3z"/>
<path d="M163,374.8c-9.2,2.7-17.5,1.3-25.8,0.7C140.9,372.6,160.6,371.8,163,374.8z"/>
<path d="M139.8,389.4c6-0.5,12.1-1.1,18.1-1.4c0.8,0,1.7,1.1,2.5,1.8c-0.6,0.7-1,1.9-1.7,2.1c-6.5,1.6-12.8,1.1-19-0.7
	C139.8,390.5,139.8,389.9,139.8,389.4z"/>
<path d="M293.3,354.3c-6.4-2.6-12.8-5.3-19.1-7.9c-0.9-0.4-1.8-0.6-3.1-0.9c6.6-1.9,21.7,2.7,26,8.1c-1.6,0.2-2.7,0.3-3.8,0.5
	C293.1,354.2,293.3,354.3,293.3,354.3z"/>
<path d="M201.5,363.5c6-6.8,17.8-11.6,22.9-9.2C216.7,357.3,209.1,360.4,201.5,363.5z"/>
<path d="M171.7,378.3c6.5-1.7,12-3.2,17.5-4.6c0.6-0.1,1.9,0.6,1.9,1c0,0.8-0.4,1.9-1,2.5C186.8,380.3,177.3,381.2,171.7,378.3z"/>
<path d="M204.7,371.8c7.5-3.5,13.7-7.3,21.9-8.3C224.3,368.3,211.4,373,204.7,371.8z"/>
<path d="M322.1,363.5c-7.1-3.6-13.8-7.1-21-10.7C308.4,351.1,321.5,357.8,322.1,363.5z"/>
<path d="M221.7,382.9c1.7,0.5,3.5,0.9,5.2,1.4c-1.4,1.2-2.6,2.9-4.2,3.4c-3.9,1.2-7.9,1.8-11.9,2.6c-0.2-0.7-0.4-1.4-0.6-2.1
	c3.9-1.8,7.7-3.5,11.6-5.3C221.9,382.9,221.7,382.9,221.7,382.9z"/>
<path d="M343.7,384.5c-6.3-4.8-12.1-9.2-17.7-13.5C331.3,369,343.3,377.4,343.7,384.5z"/>
<path d="M262.1,360.6c-7,0-14.1,0-21.1,0c0-0.6,0-1.1,0-1.7c7-0.2,14.1-1.9,21.1-0.3C262,359.3,262.1,359.9,262.1,360.6z"/>
<path d="M221.9,376.9c1.5,0.5,3,1.1,4.5,1.6c-1.5,1.5-3.1,3-4.6,4.4l0.1-0.1c-3.9,0.7-7.8,1.3-11.6,2c-0.2-0.5-0.4-1.1-0.6-1.6
	c4.1-2.2,8.3-4.3,12.4-6.5L221.9,376.9z"/>
<path d="M203.5,365.1c5.9-2.4,11.8-4.9,17.8-7.3c0.5-0.2,1.7,0.5,1.9,1s-0.2,1.9-0.7,2c-6,2.3-12,4.4-18.1,6.5
	C204.1,366.6,203.8,365.9,203.5,365.1z"/>
<path d="M222.1,376.7c-4.3,1.2-8.6,2.4-12.9,3.5c-0.3-0.6-0.5-1.3-0.8-1.9c5.4-2.5,10.7-4.9,16.1-7.3c0.5-0.2,2,0.5,2,0.9
	c0,0.8-0.3,1.9-0.9,2.5c-1.1,1-2.4,1.6-3.7,2.5C221.9,376.9,222.1,376.7,222.1,376.7z"/>
<path d="M293.1,354.2c0.8,1.3,1.6,2.6,2.4,3.8c-0.2,0.4-0.5,0.7-0.7,1.1c-7.1-2.5-14.2-5-21.2-7.5c0.2-0.6,0.3-1.2,0.5-1.7
	c6.4,1.5,12.8,3,19.2,4.5C293.3,354.3,293.1,354.2,293.1,354.2z"/>
<path d="M174.7,392.1c5.4-1.6,9.8-2.9,14.2-4c0.7-0.2,2.1,0.6,2.3,1.2c0.2,0.7-0.4,1.9-1,2.5C187.1,394.6,179.8,395,174.7,392.1z"/>
<path d="M144.7,397.3c5.5-0.5,11-1.1,17.5-1.7C158.8,401.1,150.4,401.9,144.7,397.3z"/>
<path d="M114.6,382.1c6.2,0.3,12.4,0.7,19.6,1.1C130.4,387.9,120.9,387.3,114.6,382.1z"/>
<path d="M172.5,385.8c7.2-2,13-3.7,19.2-5.5C190.1,385.8,180.5,388.8,172.5,385.8z"/>
<path d="M87.4,356.1c5.4,4.4,10.9,8.7,16.9,13.5C98.5,370.5,89.8,363.5,87.4,356.1z"/>
<path d="M302.3,358.9c7.2,0.5,13,3.7,18.4,8.5C318.2,368.8,308.4,364.3,302.3,358.9z"/>
<path d="M104.2,376.4c-5.3,1.2-14.5-6.5-17.7-14.8C92.9,367,98.3,371.5,104.2,376.4z"/>
<path d="M170,373.4c6.6-2,12.7-3.9,18.9-5.8C188.1,372.8,177.3,376.3,170,373.4z"/>
<path d="M293.1,366c-6.9-2.7-12.6-5-18.4-7.3C280.8,356.5,291,360.4,293.1,366z"/>
<path d="M192.1,395.3c-0.8,6.2-7.6,8.6-14.9,5.1C182.7,398.5,187.2,396.9,192.1,395.3z"/>
<path d="M302.8,364.2c4.9,2.6,9.8,5.1,15.4,8.1C313.1,374.6,305,370.4,302.8,364.2z"/>
<path d="M120.2,405.3c4.9-1.4,9.8-2.6,15.1-0.2C132.3,408.5,125.7,408.6,120.2,405.3z"/>
<path d="M212.7,401.3c3.8-1.2,7.7-2.5,11.6-3.5c0.7-0.2,1.6,0.7,2.5,1.2c-0.4,0.8-0.7,2.2-1.3,2.3c-4,1.1-8,1.9-12,2.8
	C213.2,403.1,212.9,402.2,212.7,401.3z"/>
<path d="M244.2,372.4c5.7,0,11.4,0,17.1,0c0,0.6,0,1.1,0,1.7c-5.6,2.3-11.3,0.2-17,0.2C244.2,373.7,244.2,373.1,244.2,372.4z"/>
<path d="M90.1,371.8c4.7,3.7,9.4,7.4,14.2,11.2c-0.4,0.5-0.9,1.1-1.3,1.6c-6.1-2-10-6.7-14.2-11.2C89.3,372.8,89.7,372.3,90.1,371.8
	z"/>
<path d="M212.4,393c3.9-0.8,7.8-1.7,11.7-2.3c0.6-0.1,1.8,1.1,1.9,1.7c0.1,0.7-0.9,2.1-1.5,2.2c-3.9,0.5-7.8,0.8-11.7,1.2
	C212.7,394.9,212.5,394,212.4,393z"/>
<path d="M134.8,391.8c-5.3,2.9-11.7,2-17.1-2.5C124,390.2,129.2,388.2,134.8,391.8z"/>
<path d="M181.7,407.8c3.6-1.8,7.1-3.7,10.7-5.3c0.6-0.3,1.7,0.4,2.6,0.7c-0.4,1-0.5,2.6-1.2,2.9c-3.6,1.6-7.4,2.9-11.1,4.3
	C182.4,409.5,182.1,408.6,181.7,407.8z"/>
<path d="M259.4,367.2c-5.4-0.3-10.9-0.6-16.3-0.9c0-0.6,0.1-1.2,0.1-1.8c5.5-0.9,10.9-1.4,16.4-0.1
	C259.4,365.3,259.4,366.3,259.4,367.2z"/>
<path d="M285.9,394.8c-6.4,2.4-14.3-0.6-17.6-6.1C274,390.7,279.4,392.5,285.9,394.8z"/>
<path d="M325.6,389.3c2.8,2.4,5.7,4.7,8.4,7.2c0.6,0.5,0.4,2,0.3,3c0,0.2-1.8,0.6-2.1,0.2c-2.9-2.8-5.7-5.7-8.5-8.6
	C324.3,390.6,324.9,390,325.6,389.3z"/>
<path d="M162.5,406.9c-4.5,3.6-9.9,2.6-15,2.9c-0.1-0.7-0.3-1.3-0.4-2c5-1.1,10-2.2,14.9-3.3C162.2,405.3,162.4,406.1,162.5,406.9z"
	/>
<path d="M213.5,406.5c3.3-0.9,6.7-1.9,10.1-2.7c0.7-0.2,2,0.6,2.3,1.2c0.2,0.6-0.5,2.2-1,2.3c-3.6,0.8-7.3,1.4-10.9,2
	C213.8,408.4,213.6,407.4,213.5,406.5z"/>
<path d="M335.5,393.8c-3.9-3.7-7.8-7.4-11.7-11.2c0.4-0.4,0.8-0.9,1.2-1.3c4.4,3.2,9.8,5.5,12,11.1
	C336.5,392.8,336,393.3,335.5,393.8z"/>
<path d="M90.7,380.5c5.2,3.5,9.5,6.4,14.3,9.7C99.8,391.7,93.4,387.2,90.7,380.5z"/>
<path d="M245.2,378.1c5.8-2.1,11.2-1.7,15,2.5c-5.9-0.4-10.4-0.6-15-0.9C245.2,379.1,245.2,378.6,245.2,378.1z"/>
<path d="M315.5,381c-4.3-2.7-8.6-5.3-12.9-8c0.4-0.6,0.8-1.3,1.1-1.9c4.4,2.4,8.8,4.9,13.2,7.3C316.4,379.3,316,380.1,315.5,381z"/>
<path d="M134.8,397.9c-4,4.3-9.2,4.2-14.4,0C125.4,397.9,129.7,397.9,134.8,397.9z"/>
<path d="M227.6,411.3c-2.6,3.8-6.4,4.8-11.3,3.1C218.6,410.7,224.1,409.3,227.6,411.3z"/>
<path d="M186,413.6c2.7-1.6,5.4-3.3,8.2-4.6c0.6-0.3,2.1,0.2,2.5,0.8c0.3,0.6,0,2.2-0.5,2.5c-2.9,1.4-5.9,2.6-8.9,3.9
	C186.8,415.3,186.4,414.5,186,413.6z"/>
<path d="M278.2,363.7c4.2,2.3,9.2,3,12.5,6.7c-0.4,0.7-0.7,1.3-1.1,2c-4.2-2.2-8.5-4.5-12.7-6.7C277.3,365,277.7,364.4,278.2,363.7z
	"/>
<path d="M124.4,409.5c3.2,0,6.5-0.1,9.7,0.1c0.8,0,1.9,0.9,2.1,1.6c0.1,0.6-1,2-1.5,2c-3.6-0.1-7.1-0.6-10.6-0.9
	C124.1,411.4,124.2,410.5,124.4,409.5z"/>
<path d="M152.4,414.1c3.8-0.7,7.6-1.4,12-2.2C162.2,417.5,157.6,418.5,152.4,414.1z"/>
<path d="M337.2,387c-3.9-3.1-7.8-6.3-12.2-9.8c5.3-0.4,11.2,3.8,13.1,8.7C337.8,386.3,337.5,386.7,337.2,387z"/>
<path d="M288.3,380.3c-4.4-2.5-8.7-4.9-13.1-7.4c0.3-0.6,0.7-1.3,1-1.9c4.5,2.3,8.9,4.6,13.4,6.9
	C289.1,378.6,288.7,379.4,288.3,380.3z"/>
<path d="M244.6,385.4c4.5,0,8.4,0,13,0C254.2,389.1,249,389,244.6,385.4z"/>
<path d="M314.3,384.3c-5.6,2.5-10.7,0.1-13-5.6C305.7,380.6,309.6,382.3,314.3,384.3z"/>
<path d="M114.4,419.8c-4.6,3.4-8.5,2.4-12.5-2.7C106.9,418.2,110.7,419,114.4,419.8z"/>
<path d="M286.7,385c-4.8-0.8-9-2.7-12.4-6.3c0.2-0.4,0.4-0.8,0.6-1.2c4.3,1.9,8.5,3.7,12.8,5.6C287.3,383.7,287,384.4,286.7,385z"/>
<path d="M312.7,406c2,1.5,4,3,5.8,4.7c0.6,0.6,0.3,2,0.4,3c-1,0-2.5,0.5-3,0c-1.8-1.9-3.3-4-4.9-6.1
	C311.5,407.1,312.1,406.5,312.7,406z"/>
<path d="M310.3,390.9c-5.9,1.4-9.2-0.9-10.1-6.6C304,386.8,307.2,388.8,310.3,390.9z"/>
<path d="M257.3,394.6c-4.2,0-8.3,0-12.5,0c0-0.5,0-1.1,0-1.6c4.2,0,8.3,0,12.5,0C257.3,393.6,257.3,394.1,257.3,394.6z"/>
<path d="M104.3,398.6c-5.1-0.9-8.3-4.3-11.1-8.4c0.3-0.4,0.5-0.7,0.8-1.1c3.7,2.7,7.5,5.5,11.2,8.2
	C104.9,397.8,104.6,398.2,104.3,398.6z"/>
<path d="M200.3,415.7c-2.1,3.8-5.6,4.9-9.7,4.8c-0.3-0.5-0.5-1.1-0.8-1.6c3.2-1.7,6.4-3.4,9.6-5C199.7,414.5,200,415.1,200.3,415.7z
	"/>
<path d="M265.7,395.5c5.1,1.7,8.9,2.9,12.7,4.2C273.6,402.2,269.6,400.8,265.7,395.5z"/>
<path d="M116,428.7c-3.5-0.3-7-0.5-10.5-0.8c0-0.6,0.1-1.3,0.1-1.9c3.5,0,7.1,0,10.6,0C116.1,426.9,116,427.8,116,428.7z"/>
<path d="M217.5,419.3c3.2-1,6.3-2,10.3-3.2c-1.8,4.9-4.7,5.9-9.8,4.7C217.9,420.2,217.7,419.8,217.5,419.3z"/>
<path d="M243.4,398.7c3.5,0.3,7,0.7,10.5,1c-0.1,0.9-0.2,1.8-0.3,2.7c-3.5-0.4-7-0.9-10.4-1.3C243.2,400.3,243.3,399.5,243.4,398.7z
	"/>
<path d="M102,410.3c-1.6-1.8-3.3-3.6-4.9-5.4c0.3-0.4,0.6-0.8,0.9-1.2c3.3,1.8,6.6,3.5,9.8,5.3c-0.2,0.6-0.4,1.1-0.6,1.7
	c-1.8-0.2-3.6-0.4-5.4-0.6L102,410.3z"/>
<path d="M165.6,421.6c-3.5,0.7-6.9,1.5-10.4,2.2C158,419.5,162.1,418.6,165.6,421.6z"/>
<path d="M294.3,395.3c3.2,2.3,5.8,4.2,8.8,6.3C298,403.4,294.5,400.8,294.3,395.3z"/>
<path d="M271.1,382.4c4.6,2.1,8.2,3.7,11.7,5.4c0.2,0.1,0.2,0.6,0.3,0.9C278.9,390,274.6,388,271.1,382.4z"/>
<path d="M263,401.3c3.8,1,7.5,2,11.3,3c-0.2,0.8-0.5,1.6-0.7,2.4c-3.7-1.1-7.4-2.2-11.1-3.3C262.6,402.8,262.8,402,263,401.3z"/>
<path d="M101.9,410.2c2.6,1.6,5.2,3.3,7.8,4.9c-0.4,0.6-0.7,1.3-1.1,1.9c-3.1-1.5-6.3-3.1-9.4-4.6c0.1-0.5,0.3-0.9,0.4-1.4
	c0.8-0.2,1.6-0.4,2.5-0.6C102,410.3,101.9,410.2,101.9,410.2z"/>
<path d="M126.8,418.1c3.4-0.5,6.7-0.9,10.1-1.4c0.1,0.9,0.3,1.8,0.4,2.8c-3.4,0.4-6.7,0.9-10.1,1.3
	C127.1,419.8,127,418.9,126.8,418.1z"/>
<path d="M159.3,429c0.7-0.8,1.1-1.7,1.7-1.8c2.2-0.7,4.5-1.2,6.8-1.7c-0.1,0.9,0.2,2.2-0.3,2.5C165.1,429.7,162.7,431.4,159.3,429z"
	/>
<path d="M297.9,390.1c3.8,2.2,6.5,3.8,9.7,5.6C302.9,397.7,300.2,396.2,297.9,390.1z"/>
<path d="M104.4,404.2c-4.2-0.3-7-2.7-9.2-5.9c0.3-0.4,0.5-0.9,0.8-1.3c3.1,1.9,6.2,3.7,9.3,5.6C105,403.1,104.7,403.7,104.4,404.2z"
	/>
<path d="M260.1,407.1c3.3,0.7,6.6,1.4,9.8,2c-0.2,0.9-0.4,1.7-0.6,2.6c-3.3-0.8-6.6-1.6-9.8-2.4
	C259.7,408.6,259.9,407.8,260.1,407.1z"/>
<path d="M280.5,412.3c2.2,1.2,4.4,2.4,6.6,3.6c0,0.4,0,0.8,0,1.2c-1.2,0.3-2.6,1.1-3.4,0.7c-1.7-0.9-3.1-2.5-4.6-3.8
	C279.5,413.5,280,412.9,280.5,412.3z"/>
<path d="M131.5,422.8c2.6-0.4,5.1-0.8,7.7-1.3c0.1,0.7,0.3,1.4,0.4,2.1c-2.2,2.6-4.9,2.6-7.9,1C131.5,424,131.5,423.4,131.5,422.8z"
	/>
<path d="M240.4,411.9c3.2,0.2,6.5,0.4,9.7,0.7c-0.1,0.8-0.1,1.5-0.2,2.3c-3.2-0.3-6.5-0.5-9.7-0.8
	C240.2,413.3,240.3,412.6,240.4,411.9z"/>
<path d="M118.3,429.3c-1.8,5.2-3.8,5.8-9.3,2.6C112.6,430.9,115.2,430.2,118.3,429.3z"/>
<path d="M328.4,405.1c-2.4-1.7-4.7-3.4-7.1-5.1c0.4-0.6,0.8-1.2,1.2-1.8c2.5,1.5,5,3,7.5,4.5C329.5,403.5,328.9,404.3,328.4,405.1z"
	/>
<path d="M250.8,409c-3.2-0.5-6.5-1-9.7-1.6c0.1-0.7,0.2-1.4,0.3-2.1c3.3,0.4,6.5,0.7,9.8,1.1C251,407.3,250.9,408.2,250.8,409z"/>
<path d="M171.8,433c-2.3,1.1-4.7,2.2-7,3.3c-0.4-0.7-0.7-1.5-1.1-2.2c2.3-1.1,4.5-2.3,6.8-3.4C170.9,431.4,171.4,432.2,171.8,433z"
	/>
<path d="M201.2,423.5c-2.3,1.2-4.5,2.5-6.8,3.7c-0.4-0.7-0.8-1.4-1.2-2.1c2.2-1.4,4.4-2.8,6.6-4.2
	C200.2,421.8,200.7,422.6,201.2,423.5z"/>
<polygon points="398.4,476.9 408.3,474.1 410,469.1 400.6,473.5 "/>
<g>
	<circle class="st5" cx="121.6" cy="663.4" r="84.7"/>
	<path class="st1" d="M109.4,646.9c-0.3,0-0.6,0-0.9-0.1c-1.6-0.1-3-0.5-3.6-2.1c-0.6-1.7,0.1-3,1.2-4.3c0.1-0.1,0.3-0.3,0.4-0.4
		c3.6-1.7,3.8-5,3.8-8.4c0-9.5,0-18.9-0.1-28.4c0-3.9-1.8-7.4-3.2-10.9c-0.4-1-0.3-2.2-0.5-3.3c1.1,0.2,2.3,0.2,3.3,0.7
		c2.5,1.2,4.9,2.5,7.2,4c5.1,3.2,7.3,7.8,6.5,13.9c-0.8,6.1-1.1,12.3-1.6,18.4c0,0.5,0,1,0,2.1c1.1-0.7,1.8-1.2,2.6-1.7
		c5.9-4.2,10.2-9.9,15-15.1c1.7-1.8,3.5-3.7,5.3-5.4c1.9-1.8,4.4-2.2,6.6-0.8c3.2,2.1,5.8,4.8,7.6,8.3c1.3,2.7,0.2,5.1-2.7,5.9
		c-2.8,0.7-5.1,2.2-7.4,3.7c-8.3,5.6-16.8,11.1-25.3,16.5c-1.8,1.2-2.4,2.7-2.5,4.6c0,1.2,0.6,1.5,1.6,1.2c5.2-1.6,10.1-3.8,14-7.8
		c2.3-2.3,4.4-2.8,7.1-1.3c1.8,1,3.5,2.1,5.1,3.3c2.3,1.8,2.6,4.1,0.7,6.3c-1,1.2-2.3,2.3-3.7,3c-5.7,2.8-10.4,6.9-14.8,11.3
		c-1.1,1.1-1.2,2.3-0.2,3.5c0.6,0.8,1.3,1.4,1.9,2.1c2.5,2.8,2.8,5.9,1,9.1c-4.4,7.8-5,16-2.5,24.5c1,3.5,3.9,4.8,7.1,5.5
		c9.5,1.9,18.6,0.3,27.5-2.9c1.8-0.6,2.1-1.3,1.3-3c-2.1-4.1-4.1-8.2-6.2-12.3c-0.4-0.8-0.7-1.5-1-2.3c-0.6-1.5-0.3-3,0.9-4.1
		c1.3-1.2,2.8-0.8,4.2-0.1c0.9,0.5,1.8,1.2,2.5,2c5.2,5.3,10.7,10.4,14.7,16.7c0.3,0.5,0.9,0.9,1.5,1.3c1.7,1.2,2.7,2.8,2.4,4.9
		c-0.3,2.2-1.7,3.6-3.8,4.4c-12.7,4.9-25.8,7.5-39.5,6.6c-5.8-0.4-11.5-1.2-16.4-4.5c-1.6-1.1-3.2-2.6-4.1-4.3
		c-4.5-7.8-4.9-16.4-3.5-25.1c0.4-2.6,1.2-5.1,1.7-7.7c0.2-1.2,0.3-2.3,0.5-3.5c-0.2-0.1-0.3-0.2-0.5-0.3c-0.8,0.8-1.7,1.7-2.5,2.5
		c-10.7,11-21.7,21.7-34.4,30.5c-2.7,1.9-5.5,3.5-8.3,5.3c-3.8,2.3-8.1,3.3-12.4,4c-0.6,0.1-1.5-0.3-1.8-0.7
		c-0.3-0.3-0.1-1.3,0.3-1.8c0.8-1,1.6-2.1,2.6-2.9c9.2-8,18.7-15.6,27.6-23.8c8.3-7.6,16.1-15.8,24.1-23.7c0.2-0.2,0.4-0.4,0.6-0.8
		c-4.3,1.3-8.4,2.7-12.6,3.7c-5.2,1.3-10.4,2.3-15.6,3.3c-1.2,0.2-2.6,0.1-3.7-0.2c-4.3-1.1-7.6-3.7-10.5-6.9
		c-0.6-0.6-1.2-2.2-0.9-2.6c0.6-0.8,1.9-0.9,2.8-1.4c0.1-0.1,0.4,0,0.5,0c8.1,1.4,15.7-1.1,23.3-3c2.4-0.6,4.9-1.3,7.3-2
		C108.9,649.6,109.2,649.2,109.4,646.9z"/>
	<path class="st1" d="M86.3,617.1c2.8,0,5.8,2.6,6.8,6c0.7,2.5,1.1,5.1,1.7,7.7c0.9,3.5,1.8,7.1,2.7,10.5c0.1,0.5,0.4,1,0.4,1.5
		s-0.1,1.2-0.4,1.4c-0.3,0.3-1.1,0.3-1.5,0c-5.8-3.5-11.3-7.3-14.2-13.7c-1.4-2.9-1.6-6-1-9.1C81.4,618.7,83.5,617.1,86.3,617.1z"/>
</g>
</svg>
