<?xml version="1.0" encoding="utf-8"?>
<!-- Generator: Adobe Illustrator 22.0.1, SVG Export Plug-In . SVG Version: 6.00 Build 0)  -->
<svg version="1.1" id="레이어_1" xmlns="http://www.w3.org/2000/svg" xmlns:xlink="http://www.w3.org/1999/xlink" x="0px"
	 y="0px" viewBox="0 0 500 778.8" style="enable-background:new 0 0 500 778.8;" xml:space="preserve">
<style type="text/css">
	.st0{fill:url(#SVGID_1_);}
	.st1{fill:#FFFFFF;}
	.st2{fill:#EC1D24;}
	.st3{fill:#FFCB03;}
	.st4{fill:#EC1D24;stroke:#000000;stroke-width:4;stroke-miterlimit:10;}
</style>
<g>
	
		<linearGradient id="SVGID_1_" gradientUnits="userSpaceOnUse" x1="250.3" y1="778" x2="250.3" y2="-1" gradientTransform="matrix(1 0 0 -1 0 778)">
		<stop  offset="0" style="stop-color:#EC1D24"/>
		<stop  offset="1" style="stop-color:#A51D24"/>
	</linearGradient>
	<path class="st0" d="M0.3,0c166.7,0,333.3,0,500,0c0,259.7,0,519.3,0,779c-166.7,0-333.3,0-500,0C0.3,519.3,0.3,259.7,0.3,0z
		 M478.2,389.2c0-113.8-0.2-227.7,0.3-341.5c0-11.7-18.3-30-29.9-30C317.2,18.2,185.7,18,54.2,18c-14.6,0-29.9,15.3-29.9,29.8
		c0,227.5,0.1,455-0.3,682.5c0,11.7,18.3,30,29.9,30c131.5-0.4,263-0.3,394.5-0.3c14.6,0,29.9-15.3,29.9-29.8
		C478.3,616.5,478.3,502.8,478.2,389.2z"/>
	<path d="M478.3,389.2c0,113.7,0,227.3,0,341c0,14.6-15.3,29.8-29.9,29.8c-131.5,0-263-0.2-394.5,0.3c-11.6,0-29.9-18.3-29.9-30
		c0.4-227.5,0.3-455,0.3-682.5C24.3,33.3,39.6,18,54.2,18c131.5,0,263,0.2,394.5-0.3c11.6,0,29.9,18.3,29.9,30
		C478.1,161.5,478.2,275.3,478.3,389.2z M171.8,671.7c2.3-1.3,4.7-3.1,7.3-4c3.4-1.2,7.2-1.5,10.6-2.7c1.7-0.6,3.8-2.2,4.2-3.7
		c8.1-31.4,11.1-63.3,7.5-95.6c-0.8-7.5-2.7-14.6-8.5-20.2c-2.8-2.7-4.8-6.5-6.2-10.1c-1.1-3.1-3-4.3-5.7-5.5
		c-17.8-7.9-35.9-15.3-53.1-24.3c-24.6-12.9-43.7-32-57.3-56.4c-6.1-11-9.4-22.8-9.1-35.4c0.1-2.8,1-5.7,0.4-8.4
		c-4.5-21.7-2.7-43.4-1.1-65.2c1.9-26.1,3.3-52.2,4.3-78.3c0.3-6.4-1-13-2.6-19.2c-3.6-13.8-8.2-27.4-11.9-41.2
		c-3.1-11.7-1.6-23.1,3.8-34c5.6-11.2,14.8-17.7,27.1-17.1c9.5,0.4,18.9,3.4,28.3,5.1c2.6,0.5,5.5,1.1,8.1,0.5
		c17.2-4,34.3-8.2,51.5-12.4c9.9-2.4,19.7-4.8,29.6-7.1c1.2-0.3,2.6,0.6,3.9,1c-0.7,1.1-1.3,2.5-2.3,3.4c-1.1,1-2.6,1.5-3.9,2.1
		c-29,15.1-57.9,30.2-86.9,45.1c-3.2,1.6-4.6,3.4-4.5,7.2c0.3,11.7-3,22.3-10.6,31.5c-1.2,1.5-2.3,3.5-2.4,5.3
		c-1.8,21.1-3.7,42.1-4.7,63.2c-0.4,7.7,0.3,15.8,2.4,23.2c6,21.6,18.3,39.4,34.9,54.4c3,2.7,6,4,10.2,4.1
		c31.7,0.6,63.3,2.7,94.4,9.1c22.8,4.7,45,11.4,64.5,24.5c20,13.5,33.2,31.7,35.6,56.3c1.1,10.9,1.2,21.9,1.7,33.3
		c4.1,1.8,8.7,3.9,13.4,6c2.9-13.2,2.9-13.2-7.7-20.1c-0.3-0.2-0.7-0.3-0.8-0.5c-0.7-1.2-1.3-2.4-1.9-3.5c1.4-0.2,3.2-1.1,4.3-0.6
		c3.1,1.4,6,3.4,9.3,5.4c0.5-1.9,0.7-3.3,1.2-4.7c1.5-4.4,0.1-7.4-3.9-9.8c-4.2-2.6-8.2-5.7-12-8.9c-1.3-1.1-1.7-3.3-2.5-4.9
		c1.8,0.3,3.8,0.2,5.2,1.1c5,3.4,9.8,7.1,14.9,10.8c3.5-9.8,3.5-9.8-3.5-15.7c-4.9-4.1-9.8-8-14.5-12.3c-1.2-1.1-1.5-3.2-2.3-4.8
		c1.8,0.4,3.9,0.4,5.5,1.3c1.9,1,3.4,2.7,5,4.1c4.4,3.7,8.8,7.4,13.3,11.1c3.3-5.8,2.3-10-2.3-13.7c-2.2-1.7-4.2-3.9-5.8-6.2
		c-0.9-1.3-0.9-3.3-1.3-5c1.5,0.5,3.4,0.6,4.5,1.6c2.9,2.6,5.5,5.6,8.6,8.8c2.9-7,5.4-13-1.2-18.6c-2.2-1.9-4.1-4.5-5.6-7
		c-1.2-2-2.8-6.1-2.3-6.5c3.4-2.5,4.3,1.6,5.8,3.3c3,3.2,5.6,6.8,8.3,10.2c4.6-6.5,3.8-11.8-0.8-17.2c-3.4-3.9-6.1-8.3-8.8-12.7
		c-0.8-1.3-0.4-3.2-0.6-4.8c1.5,0.7,3.6,1.1,4.5,2.3c3.9,5.2,7.5,10.6,11.4,16.3c3.2-6,5.6-11.1,0.5-17.2c-4.1-5-7.2-10.8-10.4-16.5
		c-0.9-1.7-0.6-4-0.8-6.1c1.6,1.1,3.3,2,4.7,3.3c1.2,1.3,2,3,3,4.6c3.1,4.9,6.1,9.8,9.3,14.9c3.3-4.3,3.6-7.7,1-11.9
		c-3.9-6.4-7.4-13-10.8-19.7c-1-2.1-1.7-6.6-1.2-6.8c4.1-1.7,4.1,2.6,5.4,4.7c3.9,6.6,7.5,13.4,11.3,20.4c4-5,5.1-9.5,1.8-14.7
		c-1.9-3.1-3.1-6.6-4.5-10c-1.9-4.3-4-8.5-5.6-12.8c-0.4-1.1,0.7-2.8,1.1-4.2c1.1,0.8,2.5,1.3,3.2,2.4c1.3,2.3,2.2,4.8,3.3,7.3
		c2.5,5.6,5.1,11.3,7.8,17.2c4.4-5.2,5.9-10,2.6-15.6c-1.2-2.1-1.8-4.6-2.7-7c-1.9-5-3.9-9.9-5.5-15c-0.4-1.2,0.8-2.8,1.2-4.2
		c1,0.8,2.5,1.4,3,2.5c1.5,3.2,2.5,6.5,3.8,9.8c1.8,4.7,3.6,9.4,5.5,14.4c4.4-4.3,5.2-8.2,3.1-13.2c-2.7-6.6-4.7-13.5-6.7-20.4
		c-0.3-1.1,0.9-2.7,1.4-4.1c1,0.9,2.3,1.6,2.9,2.6c0.8,1.4,1.1,3.1,1.7,4.7c1.9,5.6,3.8,11.2,5.8,17c4.2-3.8,5.1-7.4,3.3-12.1
		c-2.3-6.1-4.1-12.3-5.7-18.6c-0.4-1.7,0.6-3.7,1-5.6c1.1,1.3,2.8,2.5,3.3,4c2.3,6.5,4.2,13.2,6.3,19.8c0.6,0,1.2-0.1,1.8-0.1
		c0.2-2.2,0.9-4.5,0.4-6.6c-1.3-5.7-3.2-11.2-4.4-16.9c-0.5-2.3-0.2-6.8,0.4-6.9c4.2-0.8,3.1,3.2,3.9,5.4c1.8,5.2,3.1,10.5,4.6,15.8
		c0.7,0,1.4-0.1,2-0.1c0.3-2.2,0.8-4.5,0.9-6.7c0.1-3.5-0.4-7,0-10.4c1.2-8.5,6.1-14.5,11.8-15c5.8-0.6,12,4.8,14.5,13.1
		c1.1,3.7,1.6,7.6,2.6,12.1c0.6-1.1,1.1-1.6,1.2-2.1c0.5-3.5,0.7-7,1.5-10.4c0.3-1.2,1.7-2,2.7-3.1c0.5,1.2,1.5,2.4,1.5,3.6
		c-0.1,2.8-0.6,5.6-0.9,8.4c-1.1,8-0.3,9.6,7.4,13.5c1.8-5.6,3.5-11.1,5.3-16.7c0.5-1.5,1.1-3.8,2.2-4.2c3.1-1.2,2.5-3.5,2.5-5.7
		c0-20.2,0-40.3,0-60.5c0-1.4-0.2-2.7-0.3-4c-66.3,39.2-133.2,42.2-196.4-2.3C209,170.8,190.2,102.4,210.6,22c-1.9,0-3.9,0-5.9,0
		c-49.5,0-99,0.4-148.5-0.3C44,21.6,28,37.7,28,50.1c0.4,129,0.3,258,0.3,387c0,1.2-0.3,2.4,0.1,3.5c0.8,2.5,1.9,5,2.9,7.5
		c0.5-0.2,1-0.3,1.5-0.5c1.2-6.5,2.2-13.1,3.6-19.5c0.3-1.2,2-2.1,3.1-3.1c0.3,1.3,1.1,2.7,0.9,3.9c-0.9,6.3-1.6,12.6-3.3,18.7
		c-2.6,9.1,4.4,13.1,8.6,20.3c1.3-8.2,2.3-15,3.7-21.7c0.2-1.2,2-2.2,3-3.3c0.4,1.3,1.3,2.6,1.1,3.8c-0.7,5.8-1,11.8-2.8,17.2
		c-3.1,9.5,2.1,15.7,7.4,23.1c1.9-9.6,3.5-18.5,5.6-27.2c0.5-2.2,2.5-4,3.8-6c0.2,2.1,0.8,4.4,0.4,6.4c-1.6,8.9-3,17.8-5.4,26.4
		c-1.8,6.6,1,11,5,16.6c2.2-7.6,4.1-14.5,6.2-21.2c0.6-1.8,2.1-3.2,3.2-4.8c0.6,0.3,1.1,0.6,1.7,0.9c-0.3,1.7-0.5,3.5-0.9,5.1
		c-1.7,6.1-2.9,12.4-5.4,18.2c-3.6,8.2,0.9,13.7,5.1,20.7c2.4-8.7,4.4-16.4,6.7-23.9c0.4-1.4,2.2-2.3,3.4-3.5
		c0.2,1.5,0.9,3.1,0.6,4.4c-1.9,7.8-3.6,15.7-6.3,23.1c-2.5,6.7,0.5,11.4,3.9,17.4c1.6-6.3,2.8-11.7,4.4-17.1
		c0.4-1.5,2.1-2.6,3.1-3.9c0.3,1.6,1.2,3.2,0.9,4.6c-1.2,5.9-2.7,11.7-4.1,17.5c-1.6,6.6-0.4,11.5,4.3,17.4c1-4,1.9-8,3.1-11.7
		c0.4-1.1,1.9-1.8,3-2.8c0.3,1.3,1.2,2.6,0.9,3.8c-1,5.1-2.8,10-3.4,15.1c-0.4,3.5,0.5,7.2,0.8,10.9c0.6,0,1.2,0,1.9,0
		c1.3-4.8,2.4-9.6,3.9-14.3c0.3-1,2.1-1.6,3.1-2.4c0.3,1.2,0.9,2.4,0.7,3.5c-1.3,5.7-2.5,11.4-4.2,17c-1.4,4.5-0.9,8.5,1.6,12.4
		c3.2-1.6,4.6-4,4.2-7.6c-0.4-4-0.5-8-0.3-12c0-1.2,1.5-2.2,2.3-3.4c0.7,1.1,2,2.2,2.1,3.3c0.3,4.1,0.1,8.2,0.1,12.4
		c4.8-0.4,6.9-2.2,6.4-6.5c-0.3-3.1-0.3-6.4,0.1-9.5c0.2-1.7,1.6-3.1,2.5-4.7c0.7,1.5,1.8,2.9,1.9,4.4c0.3,4.1,0.1,8.2,0.1,12.3
		c0.5,0.2,1,0.5,1.4,0.7c1-1.4,2-2.8,3.1-4.1c3.7-4.6,6.6-10.2,11.2-13.6c7.2-5.5,16.1-1.6,17.1,7.4c0.6,5.5-0.5,11.6-2.3,16.9
		c-1.3,4-1.6,6.8,1.7,10c2.5-3.1,4.8-6.1,7.4-8.9c2.5-2.6,3.7-7,9.7-7.4c-1.3,2.4-1.8,3.9-2.7,5.1c-2.4,3.2-5,6.3-7.5,9.4
		c-5.8,7.1-5.8,7.1-1.2,15.4c7.2-4.4,11.7-12.5,20.2-15.4c-0.3,2-1.1,3.6-2.3,4.8c-3.6,3.5-7.3,6.9-10.9,10.3
		c-6.6,6.1-6.6,6.1-2.7,14.8c6.1-3.4,12.1-6.7,18.2-10.1c0.4,0.6,0.9,1.2,1.3,1.9c-1,1.2-1.9,2.7-3.1,3.6c-2,1.5-4.3,2.5-6.5,3.8
		c-9.5,5.5-9.5,5.5-7.8,16.3c0.1,0.4,0.4,0.8,0.7,1.4c6-2.2,10.5-7.3,17.3-7.5c-0.8,2-1.9,3.5-3.4,4.4c-3.6,2.3-7.5,4.3-11.1,6.7
		c-1.1,0.7-2.4,2.1-2.4,3.3c0,3.4,0.5,6.7,0.8,10.4c5.3-1.8,9.9-3.4,14.5-5c0.3,0.6,0.7,1.2,1,1.7c-1.1,1.1-2,2.5-3.3,3.2
		c-1.7,1-3.7,1.5-5.6,2.2C170.4,663.1,169.8,664.5,171.8,671.7z M333.7,22c-38,0-76,0-114,0c-2.9,0-4.8,0.1-5.8,3.6
		c-16.2,56.3-8.1,108.8,27.8,155.1c55.2,71.5,152.4,87.1,228.4,38.3c3-1.9,4.3-3.9,4.2-7.5c-0.1-54.1-0.3-108.3,0.1-162.4
		c0.1-11.7-15.6-27.3-27.2-27.2C409.4,22.3,371.5,22,333.7,22z M274.7,711.4c-4.8,0.9-9.7,1.9-14.6,2.6c-1.6,0.2-3.3-0.5-4.9-0.7
		c1.4-1.1,2.6-2.9,4.1-3.3c4.9-1.3,10-2.1,15.3-3.2c-0.5-3.1-1-5.6-1.4-8.4c-5.2,1-9.9,2-14.7,2.7c-1.4,0.2-2.9-0.6-4.3-0.9
		c1.2-1.1,2.3-2.8,3.7-3.2c4.9-1.3,10-2.2,15.2-3.3c-0.2-2.8-0.4-5.1-0.7-7.9c-3.7,0-7.2,0.2-10.7-0.1c-3-0.2-4.5,0.8-5.5,3.7
		c-1.7,5.2-4.1,10.2-5.7,15.5c-0.8,2.9-0.8,6.1-0.7,9.1c0,4.3,0.7,8.6,0.5,12.9c0,1.1-2,2.2-3,3.3c-1-1-2.2-1.9-2.8-3.1
		c-0.9-1.6-1.4-3.5-2.1-5.3c-0.5,0-0.9-0.1-1.4-0.1c-1.9,4.5-3.7,9.1-5.6,13.6c-0.5,1.1-1.6,1.8-2.4,2.7c-0.8-1-2.1-1.8-2.3-2.9
		c-0.5-3.4-0.7-6.8-1-10.8c-6.1,2.9-11.9,5.6-18.7,8.8c0.6-7.7,6.6-9.9,9.9-14.6c-5.5,1.3-10.9,2.6-16.4,3.9
		c-0.3-0.5-0.5-0.9-0.8-1.4c1.2-1.4,2.2-3,3.6-4c8.7-6.5,18.4-10.6,29.2-12.1c1.7-0.2,4.3-1.9,4.5-3.3c4.5-25.1,8.9-50.3,7.8-75.9
		c-0.3-7.2-1.8-14.6-4.2-21.4c-4.8-13.2-9.6-26.2-11.4-40.2c-0.5-4.2-2.2-8.3-3-12.4c-1.3-6.5-2.5-12.9-3.4-19.5
		c-0.1-1,1.2-2.7,2.3-3.3c0.5-0.3,2.2,1,3.1,1.8c1.3,1.3,2.4,2.9,3.6,4.3c0.6-0.2,1.1-0.4,1.7-0.6c-0.3-3.5-0.7-6.9-0.8-10.4
		c0-1,0.6-2,0.9-3.1c1,0.4,2.1,0.7,2.9,1.3c2.1,1.6,4,3.4,5.9,5.1c-0.3-4.3-1.4-7.8-2-11.3c-0.6-3.3,0.9-4.4,4-3.1
		c2.1,0.9,4.1,2.2,6.3,3c6.1,2.2,12.1,3,18.7-0.5c-5.9-4-10-8.9-11.4-15.6c-0.9-4.6,0-5.5,4.5-4.5c2.3,0.5,4.8,0.7,7.8,1
		c-0.8-2.1-1.5-3.2-1.7-4.5c-0.4-1.7-0.5-3.4-0.7-5.2c1.6,0.4,3.2,0.8,4.8,1.2c1,0.3,2,0.6,3.7,1.2c-0.7-2.1-1.4-3.4-1.6-4.8
		c-0.2-1.7,0-3.4,0-5.1c1.4,0.6,2.8,1.1,4.1,1.8c4.2,2.5,7.2,1,7.3-4c0-1.7-0.4-3.3-0.3-5c0.1-1,0.6-2.5,1.3-2.9
		c0.7-0.3,2.1,0.3,3,0.9c2.1,1.3,4.1,2.7,6.6,4.4c5.7-13.9,6.9-27.2,5.1-41.1c-1.1-8.5-4.9-14.3-12-18.9
		c-16.8-11.1-35.4-17.8-54.7-22.5c-31.2-7.7-63.1-10-95.1-11.2c-7.2-0.2-14.3-0.4-21.5-0.7c-0.8,0-1.6-0.8-2.8-1.4
		c1.3-1.1,2.2-1.9,3.7-3.1c-4-3.8-8.2-7.2-11.7-11.2c-16.4-19.2-28.3-40.6-27.4-66.8c0.7-19.3,2.4-38.5,3.5-57.8
		c0.1-2.5-0.8-5.1-1.2-7.7c-0.6,0-1.3,0-1.9-0.1c16.3-14.1,21.2-31.1,14.7-51.7c-14.6,9.6-29.6,12.7-46.4,8.4
		c0.1,2.5-0.2,4.9,0.4,7.1c3.7,14,7.5,27.9,11.3,41.9c1.2,4.6,2.9,9.2,3.4,14c2.5,23,0.3,45.9-1.5,68.8c-1.4,17.4-3.1,34.8-3.9,52.3
		c-0.5,11.9,0.4,23.8,4,35.7c2.6-3.7,4.7-7,7.3-10c3-3.5,4.2-3.1,5.4,1.3c0.6,2,1.4,4,2.3,6.7c1.6-4,2.6-7.3,4.2-10.3
		c1.2-2.3,2.9-2.7,4.4,0.1c0.5,0.9,1,1.9,1.8,3.3c2.1-3.6,3.9-6.6,5.7-9.7c0.7,0.3,1.4,0.7,2.1,1c-1,2.6-1.8,5.3-3,7.8
		c-3.3,6.5-3.6,6.6-9.6,2c-0.4,2.7-0.6,5.1-1.1,7.5c-0.3,1.4-0.9,2.7-1.3,4c-1.4-0.7-3.3-1-4.1-2.2c-1.9-2.4-3.3-5.1-5.4-8.4
		c-3.1,5.9-6,11.5-9.9,18.9c0.4,8.7,3.9,19.1,9.5,28.7c12,20.7,28.4,37.2,48.8,49.8c18.5,11.4,38.3,20.1,58.7,27.6
		c0.7,0.3,1.5,0.3,2.3,0.4c0-6,0.6-6.6,5.9-4.4c4.2,1.8,8.3,4,12.4,6c3.9-6.1,3.9-6.1,9.3-0.3c1.9-0.8,3.8-2.1,5.9-2.3
		c1.7-0.1,4.4,0.5,5.1,1.7c4.4,7.2,1.9,17.5-4.9,22.3c-1.3,0.9-2.7,2.7-2.8,4.2c-0.8,7.3-1.7,14.5,3.5,21c1.8,2.2,2.6,5.4,3.2,8.3
		c2,9.6,1.6,19.2-1.3,28.6c-3,9.9-6.1,19.7-9.3,29.5c-2.9,8.5-6,16.9-8.8,24.5c3.9,4.1,7.4,7.5,10.6,11.3c1,1.2,1,3.3,1.5,4.9
		c-1.7-0.2-3.4-0.1-5-0.5c-2.4-0.7-4.6-1.7-7.3-2.8c-0.5,2.2-0.9,3.9-1.2,5.7c-1,5.1-1.8,10.2-2.9,15.2c-0.3,1.2-1.5,2.3-2.2,3.4
		c-0.9-1-2.2-1.9-2.7-3.2c-1-2.4-1.6-5-2.3-7.4c-3.3,0.5-6.5,1.1-9.8,1.5c-11,1.3-11,1.3-11.7,12.3c0,0.3,0.2,0.6,0.6,1.5
		c5.1-0.3,10.3-0.8,15.6-0.8c1.8,0,3.7,1,5.5,1.6c-1.9,1-3.6,2.5-5.6,2.8c-5.4,0.7-10.9,0.9-16.9,1.3c-0.4,3.6-0.9,7-1.4,10.9
		c6.2,0.4,12,0.7,17.7,1.2c1.1,0.1,2,1.2,3,1.8c-1,0.9-1.9,2.3-3.1,2.5c-1.9,0.3-4-0.1-6-0.2c-4.1-0.2-8.2-0.4-12.5-0.6
		c-0.6,4.3-1.1,7.8-1.7,11.7c5.2,0.6,9.8,1,14.4,1.7c1.1,0.2,2,1.3,2.9,2c-1.1,0.8-2,2-3.2,2.4c-1,0.4-2.3-0.2-3.4-0.3
		c-3.8-0.3-7.5-0.7-11.6-1.1c-0.4,3.1-0.8,5.6-1.2,8.9c5.5,0.7,10.4,1.8,15.3,1.8c32.2,0.2,64.3,0,96.5,0.2c4.7,0,8.3-1.4,11.5-4.8
		c-0.7-1.6-1.3-3.1-1.9-4.7c-4.6,2.5-8.9,4.9-13.2,7.2c-0.3-5.7,3.9-6.4,6.7-8.3c5.7-3.9,5.8-3.7,2.5-10.3
		c-6.1,2.5-12.2,5.1-18.3,7.7c-0.4-0.7-0.7-1.4-1.1-2.2c4.6-5.8,12.9-5.9,18.6-10.5c-0.5-2-1.1-4-1.6-5.9
		c-7.7,1.9-13.7,7.3-21.7,7.1c0.9-1.8,2.2-3.3,3.7-4c3.6-1.8,7.3-3.3,10.9-5C277.6,719.3,277.6,719.3,274.7,711.4z M319.8,518.6
		c-0.5,0-0.9-0.1-1.4-0.1c-0.3,1.3-0.5,2.5-0.8,3.8c-2.1,11.2-4.8,22.2-11.2,31.8c-3.1,4.6-7.2,8.7-11.1,12.7
		c-1.2,1.2-3.4,1.4-5.2,2.1c-0.2-1.7-0.4-3.4-0.5-5.2c0-1.2,0.2-2.3,0.5-4.6c-1.9,2.5-3,4.2-4.4,5.6c-3.6,3.6-7.2,7.4-11.2,10.5
		c-2.8,2.2-5.2,1.4-5.6-2.9c-0.3-3.1-1.6-6.2-2.5-9.5c-6.5,5.4-12.2,9.6-9.9,19c1.9,7.8,4.4,14.8,10.5,20.5
		c4.9-3.4,10.6-3.8,16.3-1.4c3,1.3,5.7,3.3,8.7,4.7c1.3,0.6,2.9,0.4,4.4,0.5c-2.7-4.4-5.8-7.2-8.4-10.3c-0.9-1.1-0.8-3-1.1-4.5
		c1.4,0.3,3.3,0.2,4.3,1c3.4,2.8,6.6,6,10,9.3c2.5-1.9,4.6-3.6,7.1-5.5c-3.4-3.6-6.5-6.6-9.2-9.9c-1-1.2-1-3.1-1.4-4.6
		c1.7,0.4,3.7,0.4,4.9,1.4c3.5,3.2,6.7,6.8,10,10.3c2.8-1.8,5-3.2,7.7-4.9c-4.1-3.5-8-6.6-11.6-10.1c-1.1-1.1-1.3-3.2-1.9-4.8
		c1.7,0.4,3.8,0.4,5.1,1.3c3.6,2.7,6.7,6,10.4,8.5c1.4,1,3.9,1.1,5.6,0.7c2.4-0.6,4.6-2.2,7.5-3.7c-5.7-3.1-10.5-5.6-15.2-8.5
		c-1.3-0.8-1.9-2.6-2.8-3.9c1.7-0.1,3.8-0.8,5.2-0.1c5.2,2.5,10.2,5.4,16.1,8.5c0.3-6.7,0.6-12.5,0.9-18.7c-6,0-11.1,0.1-16.3-0.1
		c-1.1,0-2.1-1.1-3.1-1.7c1-0.9,1.8-2.2,3-2.6c1.3-0.5,3-0.2,4.5-0.2c4.1,0,8.2,0,12.6,0c0-3.6,0-6.3,0-9.2
		c-5.6-1.2-10.9-2.3-16-3.4c-1.1,1.9-2,3.3-2.9,4.7c-0.5-0.1-1-0.2-1.5-0.3C319.8,536.2,319.8,527.4,319.8,518.6z M240.6,551.3
		c-3.8,5.5-4.7,11.1-3.1,16.9c2.9,10.4,6.3,20.7,9.2,31c2.1,7.3,5.1,14.7,5.3,22.1c0.4,14.1-0.5,28.3-1.5,42.3
		c-0.7,10-2.6,20-4,30.1c5.7-0.8,7.4-3.5,6.1-8.8c-0.2-0.8-0.2-2.4,0.3-2.7c6.2-3.6,5-10.7,8.2-16.3c-2.5-0.5-4.3-0.6-6-1.2
		c-1.1-0.4-2-1.3-2.9-2c1.1-0.8,2-1.9,3.2-2.4c0.8-0.3,2,0.1,2.9,0.3c3,0.8,4.4-0.2,5.3-3.3c2.2-7.7,2.3-7.6-5.1-10.4
		c-0.6-0.2-1.4-0.3-1.8-0.7c-0.9-0.9-1.7-2-2.5-3.1c1.4-0.4,2.9-1.4,4.2-1.2c2.7,0.5,5.3,1.6,7.9,2.5c2.2-7.9,1.9-8.6-4.2-12.2
		c-1-0.6-2.2-1-3-1.8c-0.8-1-1.3-2.3-1.8-3.5c1.5-0.2,3.1-0.9,4.3-0.5c2.1,0.7,4,2.1,6.7,3.7c-0.5-9.6-0.5-18.1-12.9-19.3
		c0.3-0.4,0.7-0.9,1-1.3c2.3-0.5,4.7-1,7-1.5c-0.1-0.2-0.1-0.3-0.2-0.5c-3.6-0.4-7.2-0.8-10.8-1.1c0-0.7,0-1.3,0-2
		c3.1-0.4,6.3-0.9,9.4-1.3c0-0.4,0-0.7,0-1.1c-4.2-0.4-8.3-0.8-12.5-1.1c0-0.7,0.1-1.4,0.1-2c2.6-0.4,5.1-0.9,7.7-1.3
		c0-0.4,0.1-0.7,0.1-1.1c-3.1-0.6-6.3-1.1-9.4-1.7c0-0.6,0.1-1.3,0.1-1.9c2.1-0.4,4.3-0.9,7.1-1.4c-2.8-0.8-4.8-1.3-6.8-1.9
		c0-0.5,0-0.9,0-1.4c1.7-0.6,3.4-1.2,5.1-1.8c0-7.3-0.7-14.5,0.2-21.5c0.7-5-0.2-8.3-4-11.3C243.4,558.8,243.4,558.8,240.6,551.3z
		 M110.1,158.6c-7.3-1.7-14-3.9-20.8-4.6c-19.6-2.1-30.8,6.4-35.4,25.6c-0.9,4,0.3,5.4,3.7,6.4c8.4,2.3,16.6,0.8,24.6-1.4
		C95.7,181.1,104,171.9,110.1,158.6z M205.9,572.7c1.5,27.2-0.2,53.3-5.2,79.5c2.1-1.1,4.1-2.5,4.7-4.2c4.3-12.9,8.5-25.9,12.5-39
		c1.2-3.9,1.3-8.1,1.8-12c-3-0.7-5.3-1.3-7.6-1.9c0-0.5,0.1-1,0.1-1.5c2.4-0.6,4.8-1.1,7.2-1.7c-0.1-0.4-0.1-0.8-0.2-1.2
		c-3-0.4-6.1-0.9-9.1-1.3c0-0.6-0.1-1.2-0.1-1.8c2.7-0.4,5.3-0.9,8-1.3c0-0.2,0-0.4,0-0.6c-2.8-0.4-5.7-0.8-8.5-1.3
		c0-0.5,0-1.1-0.1-1.6c1.3-0.4,2.5-0.8,3.8-1c1.3-0.3,2.7-0.3,4.1-0.5c0-0.4,0-0.9,0.1-1.3c-2.9-0.6-5.9-1.1-8.8-1.7
		c0-0.5,0-1-0.1-1.5c1.8-0.6,3.6-1.2,5.5-1.8c0-0.4,0-0.7,0.1-1.1C211.6,573.6,209.2,573.2,205.9,572.7z M276.5,603.5
		c-6.4-0.3-9.8,4.3-7.4,10.6c3.4,9.2,10.3,14.6,19.7,16.4c7.2,1.4,11.1-3.4,9-10.4C295.2,611.9,285.1,604,276.5,603.5z M425.3,294.8
		c0.4,8.4,1.6,14.4,6.1,19.1c3.9,3.9,8.1,3.5,11.3-0.9c5.4-7.4,4-22.4-2.6-28.8c-3.9-3.8-8.5-3.7-11.2,1
		C426.9,288.6,426,292.8,425.3,294.8z M130.2,586.9c1.9,3.1,3,7.2,5.7,9.1c3.5,2.5,7.3-0.3,10.2-3c6.3-5.9,9.2-13.3,8.1-22
		c-0.9-7.4-6.5-9.8-12.5-5.4C134.8,570.6,131.9,577.8,130.2,586.9z M104.8,175.1c21.6-9.1,42.1-17.7,63.3-26.6
		c-1.3-0.3-1.6-0.5-1.9-0.5c-16.8,4-33.7,8-50.5,12.2c-1.2,0.3-2.6,1.1-3.2,2C110,166.1,107.7,170.2,104.8,175.1z M105.5,186.6
		c23.1-12,45.8-23.8,68.4-35.7c-0.1-0.3-0.3-0.6-0.4-0.8c-23.7,10-47.5,19.9-71.9,30.1C103.1,182.6,104.2,184.5,105.5,186.6z
		 M342.8,523.9c0.5-3.7,1.1-6.6,1.2-9.6c0-1.2-0.8-2.9-1.7-3.5c-3.7-2.1-7.7-3.8-12-5.8c-0.7,5.2-1.4,9.9-1.9,13.8
		C333.4,520.5,337.8,522.1,342.8,523.9z M201.2,547.3c1.6,7.5,3.2,15.1,4.8,22.9c1.9-0.3,3.6-0.6,4.5-0.8c1-8.8,2-16.9,2.9-24.8
		C205.3,548.5,205.3,548.5,201.2,547.3z M341.1,539.2c0.4-2.8,1-5.1,0.9-7.3c-0.1-1.3-1.1-3.1-2.2-3.7c-3.9-1.9-7.9-3.3-12.3-5
		c-0.9,4.5-1.8,8.6-2.6,12.7C330.5,537.1,335.5,538.1,341.1,539.2z M272.5,680.9c0-3.8,0.2-7.4-0.1-11c-0.1-1.1-1.8-2.8-2.9-2.8
		c-1.8-0.1-4.8,0.3-5.4,1.4c-1.9,3.7-3,7.9-4.5,12.4C264.2,680.9,268.1,680.9,272.5,680.9z M473.9,323.2c0-8.8,0-17.1,0-25.4
		c-1.9,4.1-3.3,8.3-4.7,12.6C466.9,317.7,466.9,317.7,473.9,323.2z M269,651.2c-1,3.7-1.9,6.9-3,10.6c2.6,0.2,4.6,0.4,7.4,0.6
		C272.1,658.3,277.2,653,269,651.2z M190.2,680.8c-4.3,2.9-8.4,5.6-12.5,8.3c0.2,0.4,0.4,0.8,0.6,1.1c4-0.4,8.1-0.8,12.4-1.2
		c0-2.3,0-4.3,0-6.3C190.7,682.3,190.5,681.9,190.2,680.8z M180.3,675.9c-8.4,1.7-10.5,1.3-8.4,9.1
		C174.6,682,177.4,679.1,180.3,675.9z M274.4,647.5c0.9-4.1,2.8-7.7-3.2-9.1C272.1,641.5,267.3,645.9,274.4,647.5z M272.8,627.4
		c-0.6,0.3-1.1,0.6-1.7,0.8c1.4,2.4,2.8,4.7,4.9,8.2C277.8,630.5,277.8,630.5,272.8,627.4z"/>
	<path class="st1" d="M171.8,671.7c-2.1-7.3-1.4-8.6,6-11.4c1.9-0.7,3.9-1.2,5.6-2.2c1.3-0.7,2.2-2.1,3.3-3.2
		c-0.3-0.6-0.7-1.2-1-1.7c-4.6,1.6-9.2,3.1-14.5,5c-0.3-3.6-0.9-7-0.8-10.4c0-1.1,1.3-2.6,2.4-3.3c3.6-2.3,7.5-4.3,11.1-6.7
		c1.5-0.9,2.6-2.4,3.4-4.4c-6.8,0.3-11.4,5.4-17.3,7.5c-0.3-0.6-0.6-1-0.7-1.4c-1.7-10.7-1.7-10.7,7.8-16.3c2.2-1.3,4.4-2.3,6.5-3.8
		c1.2-0.9,2.1-2.4,3.1-3.6c-0.4-0.6-0.9-1.2-1.3-1.9c-6,3.4-12.1,6.7-18.2,10.1c-3.9-8.7-3.9-8.7,2.7-14.8
		c3.7-3.4,7.4-6.8,10.9-10.3c1.2-1.2,2-2.7,2.3-4.8c-8.5,2.9-13,11-20.2,15.4c-4.6-8.3-4.6-8.3,1.2-15.4c2.5-3.1,5.1-6.2,7.5-9.4
		c0.9-1.2,1.5-2.7,2.7-5.1c-6,0.4-7.2,4.8-9.7,7.4c-2.6,2.7-4.9,5.8-7.4,8.9c-3.3-3.3-3-6.1-1.7-10c1.8-5.4,2.9-11.4,2.3-16.9
		c-1-9-10-12.8-17.1-7.4c-4.5,3.5-7.5,9-11.2,13.6c-1.1,1.3-2.1,2.7-3.1,4.1c-0.5-0.2-1-0.5-1.4-0.7c0-4.1,0.2-8.2-0.1-12.3
		c-0.1-1.5-1.2-3-1.9-4.4c-0.9,1.6-2.3,3.1-2.5,4.7c-0.4,3.1-0.4,6.3-0.1,9.5c0.5,4.3-1.6,6-6.4,6.5c0-4.2,0.2-8.3-0.1-12.4
		c-0.1-1.1-1.3-2.2-2.1-3.3c-0.8,1.1-2.2,2.2-2.3,3.4c-0.2,4,0,8,0.3,12c0.3,3.7-1,6-4.2,7.6c-2.6-4-3-8-1.6-12.4
		c1.7-5.6,3-11.3,4.2-17c0.2-1.1-0.5-2.3-0.7-3.5c-1.1,0.8-2.8,1.4-3.1,2.4c-1.5,4.7-2.6,9.5-3.9,14.3c-0.6,0-1.2,0-1.9,0
		c-0.3-3.6-1.3-7.3-0.8-10.9c0.6-5.1,2.4-10,3.4-15.1c0.2-1.2-0.6-2.5-0.9-3.8c-1,0.9-2.6,1.6-3,2.8c-1.3,3.8-2.1,7.7-3.1,11.7
		c-4.7-5.9-5.9-10.8-4.3-17.4c1.4-5.8,3-11.6,4.1-17.5c0.3-1.4-0.6-3.1-0.9-4.6c-1.1,1.3-2.7,2.4-3.1,3.9
		c-1.6,5.3-2.8,10.8-4.4,17.1c-3.4-6-6.4-10.7-3.9-17.4c2.8-7.5,4.4-15.4,6.3-23.1c0.3-1.3-0.4-2.9-0.6-4.4c-1.2,1.1-3,2.1-3.4,3.5
		c-2.3,7.6-4.3,15.3-6.7,23.9c-4.2-7-8.6-12.5-5.1-20.7c2.5-5.7,3.7-12.1,5.4-18.2c0.5-1.7,0.6-3.4,0.9-5.1
		c-0.6-0.3-1.1-0.6-1.7-0.9c-1.1,1.6-2.7,3-3.2,4.8c-2.2,6.7-4,13.6-6.2,21.2c-4-5.6-6.9-10-5-16.6c2.4-8.6,3.8-17.6,5.4-26.4
		c0.4-2-0.2-4.3-0.4-6.4c-1.3,2-3.3,3.8-3.8,6c-2,8.7-3.6,17.6-5.6,27.2c-5.3-7.4-10.5-13.7-7.4-23.1c1.8-5.5,2-11.5,2.8-17.2
		c0.2-1.2-0.7-2.5-1.1-3.8c-1,1.1-2.7,2-3,3.3c-1.3,6.7-2.3,13.4-3.7,21.7c-4.2-7.1-11.2-11.2-8.6-20.3c1.7-6.1,2.4-12.4,3.3-18.7
		c0.2-1.2-0.6-2.6-0.9-3.9c-1.1,1-2.8,1.9-3.1,3.1c-1.4,6.5-2.5,13-3.6,19.5c-0.5,0.2-1,0.3-1.5,0.5c-1-2.5-2.1-4.9-2.9-7.5
		c-0.3-1.1-0.1-2.3-0.1-3.5c0-129,0.2-258-0.3-387c0-12.4,16-28.5,28.2-28.4c49.5,0.6,99,0.3,148.5,0.3c2,0,4,0,5.9,0
		c-20.4,80.4-1.6,148.8,66.9,197.1c63.2,44.5,130.1,41.5,196.4,2.3c0.1,1.3,0.3,2.6,0.3,4c0,20.2,0,40.3,0,60.5
		c0,2.2,0.6,4.5-2.5,5.7c-1.1,0.4-1.7,2.7-2.2,4.2c-1.9,5.5-3.6,11.1-5.3,16.7c-7.7-4-8.5-5.5-7.4-13.5c0.4-2.8,0.9-5.6,0.9-8.4
		c0-1.2-1-2.4-1.5-3.6c-0.9,1-2.4,1.9-2.7,3.1c-0.7,3.4-1,6.9-1.5,10.4c-0.1,0.5-0.6,1-1.2,2.1c-0.9-4.5-1.4-8.4-2.6-12.1
		c-2.5-8.3-8.7-13.6-14.5-13.1c-5.7,0.6-10.6,6.5-11.8,15c-0.5,3.4,0.1,7,0,10.4c-0.1,2.3-0.6,4.5-0.9,6.7c-0.7,0-1.4,0.1-2,0.1
		c-1.5-5.3-2.9-10.6-4.6-15.8c-0.7-2.1,0.3-6.2-3.9-5.4c-0.6,0.1-0.9,4.6-0.4,6.9c1.2,5.7,3.2,11.2,4.4,16.9
		c0.5,2.1-0.2,4.4-0.4,6.6c-0.6,0-1.2,0.1-1.8,0.1c-2.1-6.6-4-13.3-6.3-19.8c-0.5-1.5-2.2-2.7-3.3-4c-0.4,1.9-1.4,3.9-1,5.6
		c1.6,6.3,3.4,12.6,5.7,18.6c1.8,4.7,0.9,8.4-3.3,12.1c-2-5.9-3.9-11.4-5.8-17c-0.5-1.6-0.8-3.3-1.7-4.7c-0.6-1.1-1.9-1.8-2.9-2.6
		c-0.5,1.4-1.7,3-1.4,4.1c2,6.9,4.1,13.8,6.7,20.4c2,5,1.2,8.9-3.1,13.2c-1.9-5-3.7-9.7-5.5-14.4c-1.2-3.3-2.3-6.6-3.8-9.8
		c-0.5-1.1-2-1.7-3-2.5c-0.4,1.4-1.5,3-1.2,4.2c1.6,5.1,3.6,10,5.5,15c0.9,2.3,1.5,4.9,2.7,7c3.3,5.6,1.8,10.4-2.6,15.6
		c-2.7-5.9-5.3-11.6-7.8-17.2c-1.1-2.4-2-5-3.3-7.3c-0.6-1.1-2.1-1.6-3.2-2.4c-0.4,1.4-1.5,3.1-1.1,4.2c1.6,4.4,3.7,8.6,5.6,12.8
		c1.5,3.3,2.6,6.9,4.5,10c3.3,5.2,2.2,9.7-1.8,14.7c-3.8-7-7.4-13.8-11.3-20.4c-1.2-2.1-1.2-6.4-5.4-4.7c-0.5,0.2,0.2,4.7,1.2,6.8
		c3.3,6.7,6.8,13.4,10.8,19.7c2.6,4.2,2.3,7.6-1,11.9c-3.2-5.2-6.3-10-9.3-14.9c-1-1.6-1.7-3.3-3-4.6c-1.3-1.3-3.1-2.2-4.7-3.3
		c0.2,2-0.1,4.4,0.8,6.1c3.2,5.7,6.3,11.5,10.4,16.5c5,6.1,2.7,11.2-0.5,17.2c-3.9-5.7-7.5-11.1-11.4-16.3c-0.9-1.2-3-1.5-4.5-2.3
		c0.2,1.6-0.2,3.6,0.6,4.8c2.7,4.4,5.4,8.9,8.8,12.7c4.7,5.4,5.5,10.7,0.8,17.2c-2.7-3.4-5.3-7-8.3-10.2c-1.5-1.7-2.4-5.7-5.8-3.3
		c-0.5,0.4,1.1,4.4,2.3,6.5c1.5,2.5,3.3,5.1,5.6,7c6.6,5.6,4.2,11.6,1.2,18.6c-3.1-3.2-5.7-6.2-8.6-8.8c-1.1-1-3-1.1-4.5-1.6
		c0.4,1.7,0.4,3.7,1.3,5c1.6,2.3,3.6,4.4,5.8,6.2c4.7,3.7,5.6,7.9,2.3,13.7c-4.4-3.7-8.9-7.4-13.3-11.1c-1.7-1.4-3.2-3.1-5-4.1
		c-1.6-0.8-3.6-0.9-5.5-1.3c0.7,1.6,1.1,3.7,2.3,4.8c4.7,4.3,9.6,8.2,14.5,12.3c7,5.9,7,5.9,3.5,15.7c-5-3.7-9.8-7.5-14.9-10.8
		c-1.4-0.9-3.5-0.7-5.2-1.1c0.8,1.7,1.2,3.8,2.5,4.9c3.8,3.2,7.8,6.3,12,8.9c4,2.5,5.4,5.4,3.9,9.8c-0.5,1.4-0.7,2.8-1.2,4.7
		c-3.3-2-6.2-4-9.3-5.4c-1.1-0.5-2.8,0.3-4.3,0.6c0.6,1.2,1.2,2.4,1.9,3.5c0.1,0.3,0.6,0.3,0.8,0.5c10.6,6.9,10.6,6.9,7.7,20.1
		c-4.7-2.1-9.3-4.2-13.4-6c-0.6-11.4-0.6-22.4-1.7-33.3c-2.4-24.6-15.6-42.8-35.6-56.3c-19.5-13.1-41.7-19.8-64.5-24.5
		c-31.1-6.4-62.7-8.5-94.4-9.1c-4.2-0.1-7.2-1.4-10.2-4.1c-16.6-15-28.9-32.8-34.9-54.4c-2.1-7.4-2.8-15.5-2.4-23.2
		c1.1-21.1,3-42.2,4.7-63.2c0.2-1.8,1.2-3.9,2.4-5.3c7.6-9.2,10.9-19.8,10.6-31.5c-0.1-3.8,1.3-5.6,4.5-7.2c29-15,58-30.1,86.9-45.1
		c1.3-0.7,2.8-1.2,3.9-2.1c1-0.9,1.5-2.2,2.3-3.4c-1.3-0.4-2.8-1.3-3.9-1c-9.9,2.2-19.8,4.7-29.6,7.1c-17.2,4.2-34.3,8.4-51.5,12.4
		c-2.5,0.6-5.4,0-8.1-0.5c-9.5-1.7-18.8-4.6-28.3-5.1c-12.4-0.6-21.6,5.9-27.1,17.1c-5.4,10.8-6.9,22.3-3.8,34
		c3.7,13.8,8.3,27.4,11.9,41.2c1.6,6.2,2.9,12.8,2.6,19.2c-1.1,26.1-2.4,52.2-4.3,78.3c-1.6,21.8-3.4,43.5,1.1,65.2
		c0.6,2.7-0.3,5.6-0.4,8.4c-0.3,12.6,3,24.4,9.1,35.4c13.6,24.4,32.7,43.5,57.3,56.4c17.2,9,35.3,16.4,53.1,24.3
		c2.7,1.2,4.6,2.4,5.7,5.5c1.4,3.7,3.4,7.4,6.2,10.1c5.8,5.7,7.7,12.7,8.5,20.2c3.5,32.3,0.5,64.2-7.5,95.6
		c-0.4,1.5-2.5,3.1-4.2,3.7c-3.4,1.2-7.2,1.5-10.6,2.7C176.5,668.7,174.2,670.4,171.8,671.7z"/>
	<path class="st2" d="M333.7,22c37.8,0,75.6,0.3,113.5-0.2c11.7-0.1,27.3,15.5,27.2,27.2c-0.4,54.1-0.2,108.3-0.1,162.4
		c0,3.7-1.3,5.6-4.2,7.5c-76,48.8-173.2,33.2-228.4-38.3c-35.8-46.4-43.9-98.8-27.8-155.1c1-3.5,3-3.6,5.8-3.6
		C257.8,22,295.7,22,333.7,22z"/>
	<path class="st1" d="M274.7,711.4c2.9,7.9,2.9,7.9-4,11c-3.6,1.6-7.4,3.1-10.9,5c-1.5,0.8-2.8,2.2-3.7,4c8,0.1,14-5.2,21.7-7.1
		c0.5,2,1.1,4,1.6,5.9c-5.7,4.6-14,4.7-18.6,10.5c0.4,0.7,0.7,1.4,1.1,2.2c6.1-2.6,12.2-5.1,18.3-7.7c3.3,6.5,3.2,6.4-2.5,10.3
		c-2.8,1.9-7,2.5-6.7,8.3c4.3-2.4,8.6-4.7,13.2-7.2c0.7,1.6,1.3,3.1,1.9,4.7c-3.2,3.4-6.8,4.8-11.5,4.8c-32.2-0.2-64.3,0-96.5-0.2
		c-4.9,0-9.8-1.1-15.3-1.8c0.5-3.3,0.8-5.8,1.2-8.9c4.1,0.4,7.9,0.7,11.6,1.1c1.2,0.1,2.5,0.6,3.4,0.3c1.2-0.4,2.2-1.6,3.2-2.4
		c-1-0.7-1.9-1.8-2.9-2c-4.6-0.7-9.2-1.1-14.4-1.7c0.6-3.9,1.1-7.4,1.7-11.7c4.4,0.2,8.4,0.4,12.5,0.6c2,0.1,4.1,0.5,6,0.2
		c1.1-0.2,2.1-1.6,3.1-2.5c-1-0.6-2-1.7-3-1.8c-5.8-0.5-11.5-0.8-17.7-1.2c0.5-3.9,0.9-7.3,1.4-10.9c5.9-0.4,11.4-0.6,16.9-1.3
		c1.9-0.2,3.7-1.8,5.6-2.8c-1.8-0.5-3.7-1.6-5.5-1.6c-5.3,0-10.5,0.5-15.6,0.8c-0.4-0.9-0.6-1.2-0.6-1.5c0.7-11,0.7-11,11.7-12.3
		c3.2-0.4,6.4-1,9.8-1.5c0.7,2.3,1.3,4.9,2.3,7.4c0.5,1.2,1.8,2.1,2.7,3.2c0.8-1.1,2-2.2,2.2-3.4c1.1-5,1.9-10.1,2.9-15.2
		c0.3-1.8,0.8-3.5,1.2-5.7c2.7,1,5,2.1,7.3,2.8c1.6,0.5,3.3,0.4,5,0.5c-0.5-1.7-0.5-3.7-1.5-4.9c-3.2-3.8-6.7-7.2-10.6-11.3
		c2.8-7.7,6-16.1,8.8-24.5c3.3-9.8,6.4-19.6,9.3-29.5c2.8-9.4,3.3-19,1.3-28.6c-0.6-2.9-1.4-6.1-3.2-8.3c-5.2-6.5-4.2-13.7-3.5-21
		c0.2-1.5,1.5-3.2,2.8-4.2c6.8-4.8,9.4-15.1,4.9-22.3c-0.8-1.2-3.4-1.9-5.1-1.7c-2,0.2-4,1.5-5.9,2.3c-5.5-5.9-5.5-5.9-9.3,0.3
		c-4.1-2-8.2-4.2-12.4-6c-5.3-2.2-5.9-1.7-5.9,4.4c-0.8-0.1-1.6-0.1-2.3-0.4c-20.4-7.5-40.2-16.2-58.7-27.6
		c-20.4-12.6-36.8-29.1-48.8-49.8c-5.6-9.6-9-20-9.5-28.7c3.9-7.5,6.8-13,9.9-18.9c2.1,3.3,3.5,6.1,5.4,8.4c0.9,1.1,2.7,1.5,4.1,2.2
		c0.5-1.3,1.1-2.6,1.3-4c0.5-2.4,0.7-4.9,1.1-7.5c5.9,4.5,6.3,4.5,9.6-2c1.2-2.5,2-5.2,3-7.8c-0.7-0.3-1.4-0.7-2.1-1
		c-1.8,3.1-3.6,6.1-5.7,9.7c-0.8-1.4-1.3-2.3-1.8-3.3c-1.4-2.8-3.2-2.3-4.4-0.1c-1.6,3-2.6,6.3-4.2,10.3c-0.9-2.7-1.7-4.7-2.3-6.7
		c-1.3-4.4-2.4-4.8-5.4-1.3c-2.6,3-4.7,6.3-7.3,10c-3.5-11.9-4.5-23.8-4-35.7c0.8-17.5,2.6-34.9,3.9-52.3c1.8-22.9,4-45.9,1.5-68.8
		c-0.5-4.7-2.2-9.3-3.4-14c-3.7-14-7.6-27.9-11.3-41.9c-0.6-2.2-0.3-4.5-0.4-7.1c16.8,4.3,31.8,1.2,46.4-8.4
		c6.5,20.6,1.7,37.7-14.7,51.7c0.6,0,1.3,0,1.9,0.1c0.4,2.6,1.4,5.1,1.2,7.7c-1.1,19.3-2.8,38.5-3.5,57.8
		c-0.9,26.2,11,47.5,27.4,66.8c3.4,4,7.6,7.4,11.7,11.2c-1.5,1.3-2.4,2-3.7,3.1c1.3,0.7,2,1.4,2.8,1.4c7.2,0.3,14.3,0.4,21.5,0.7
		c32,1.1,63.9,3.5,95.1,11.2c19.3,4.8,37.9,11.5,54.7,22.5c7.1,4.6,10.9,10.4,12,18.9c1.8,13.9,0.6,27.2-5.1,41.1
		c-2.4-1.6-4.4-3.1-6.6-4.4c-0.9-0.5-2.3-1.2-3-0.9c-0.7,0.3-1.2,1.8-1.3,2.9c-0.1,1.6,0.4,3.3,0.3,5c-0.1,5-3.1,6.5-7.3,4
		c-1.3-0.8-2.7-1.2-4.1-1.8c0,1.7-0.3,3.4,0,5.1c0.2,1.4,0.9,2.7,1.6,4.8c-1.6-0.5-2.7-0.9-3.7-1.2c-1.6-0.4-3.2-0.8-4.8-1.2
		c0.2,1.7,0.3,3.5,0.7,5.2c0.3,1.3,0.9,2.4,1.7,4.5c-3-0.4-5.5-0.5-7.8-1c-4.5-1-5.4-0.1-4.5,4.5c1.4,6.8,5.5,11.6,11.4,15.6
		c-6.5,3.6-12.6,2.7-18.7,0.5c-2.2-0.8-4.2-2-6.3-3c-3.1-1.3-4.7-0.2-4,3.1c0.7,3.5,1.8,7,2,11.3c-2-1.7-3.9-3.5-5.9-5.1
		c-0.8-0.6-1.9-0.9-2.9-1.3c-0.3,1-1,2.1-0.9,3.1c0.1,3.5,0.5,6.9,0.8,10.4c-0.6,0.2-1.1,0.4-1.7,0.6c-1.2-1.4-2.3-3-3.6-4.3
		c-0.9-0.8-2.5-2.1-3.1-1.8c-1.1,0.6-2.4,2.3-2.3,3.3c0.9,6.5,2.1,13,3.4,19.5c0.8,4.2,2.5,8.2,3,12.4c1.8,14,6.6,27.1,11.4,40.2
		c2.4,6.8,3.9,14.2,4.2,21.4c1.1,25.6-3.3,50.8-7.8,75.9c-0.2,1.4-2.8,3.1-4.5,3.3c-10.9,1.4-20.5,5.6-29.2,12.1
		c-1.4,1.1-2.4,2.7-3.6,4c0.3,0.5,0.5,0.9,0.8,1.4c5.5-1.3,10.9-2.6,16.4-3.9c-3.3,4.7-9.3,6.9-9.9,14.6c6.8-3.2,12.6-5.9,18.7-8.8
		c0.3,4,0.4,7.5,1,10.8c0.2,1.1,1.5,1.9,2.3,2.9c0.8-0.9,2-1.6,2.4-2.7c2-4.5,3.8-9,5.6-13.6c0.5,0,0.9,0.1,1.4,0.1
		c0.7,1.8,1.2,3.6,2.1,5.3c0.7,1.2,1.9,2.1,2.8,3.1c1.1-1.1,3-2.1,3-3.3c0.1-4.3-0.5-8.6-0.5-12.9c0-3-0.1-6.2,0.7-9.1
		c1.6-5.3,4-10.2,5.7-15.5c0.9-2.9,2.5-3.9,5.5-3.7c3.4,0.2,6.9,0.1,10.7,0.1c0.2,2.8,0.4,5.1,0.7,7.9c-5.3,1.1-10.3,2-15.2,3.3
		c-1.4,0.4-2.5,2.1-3.7,3.2c1.4,0.3,3,1.1,4.3,0.9c4.8-0.7,9.5-1.7,14.7-2.7c0.5,2.8,0.9,5.3,1.4,8.4c-5.3,1.1-10.4,1.9-15.3,3.2
		c-1.6,0.4-2.8,2.2-4.1,3.3c1.6,0.3,3.3,1,4.9,0.7C265,713.3,269.8,712.3,274.7,711.4z M250.4,433c-0.3,0.7-0.6,1.3-0.9,2
		c8.6,9.4,21.3,6.6,33,9.3c-2,1.6-3.4,3.2-5.1,3.8c-5.8,2.1-11.7,3.8-17.5,5.7c-1.6,0.5-3,1.5-4.4,2.3c1.3,1.4,2.4,3.4,4,4
		c3.1,1.1,6.6,1.5,9.9,2.2c0,0.5,0.1,1,0.1,1.5c-5.6,0.6-11.2,1.2-16.9,1.8c-0.4,7.5,5.6,9.9,11.6,13.1c-11.7,1.6-21.8,0.2-31.4-4.4
		c-1.2-0.6-2.8-0.4-4.2-0.5c0.2,1.5,0,3.2,0.7,4.4c1.4,2.5,3,4.9,4.9,6.9c2.5,2.7,5.4,5,8.1,7.5c-10.5,2-19.9,1.1-28.9-3.3
		c-1.5-0.7-3.3-0.8-5-1.1c0.2,1.7,0.1,3.5,0.6,5.1c1.4,4.4,3.1,8.8,4.7,13.2c-1.7,0.1-2.2-0.2-2.7-0.6
		c-10.4-10.6-22.8-17.3-37.2-21.2c-16-4.3-31-11-44.8-20.5c-12.3-8.4-21.7-19.1-27.5-32.9c-6.2-14.7-3.2-25.9,9.1-36
		c1.2-1,2.1-2.4,3.1-3.6c-0.3-0.4-0.7-0.8-1-1.2c-1.5,0.8-3.1,1.3-4.4,2.3c-12.3,9.2-16.2,22.1-11,36.8c6,17.1,17.7,29.5,32.6,39.2
		c13.1,8.5,27.3,14.8,42.3,18.9c15.5,4.3,29.1,11.4,39.4,23.9c2.3,2.8,4.3,1.4,4.5-1c0.4-3.5-0.1-7.2-0.5-10.7c-0.2-2-1.2-3.8-2-6.1
		c18.6,5,35.2,5,40.2-0.4c-8.5-1.7-14.3-6.6-19.5-14.2c2.1,0.5,3.2,0.8,4.2,1.1c9.9,3.3,20,3.5,30.1,1.2c2.1-0.5,3.9-2,5.8-3
		c-1.9-1-3.7-2.3-5.7-3c-4.1-1.3-8.7-1.8-11.6-6.6c7.2-0.1,13.6-1.1,18.5-6c0.8-0.8,1-2.2,1.5-3.4c-1-0.4-2.1-1.1-3.1-1.2
		c-3.2-0.2-6.5-0.1-9.8-0.1c0-0.4-0.1-0.9-0.1-1.3c1.5-0.4,3.1-0.7,4.5-1.4c5.4-2.7,11-5.4,16.1-8.6c1.6-1,2.1-3.5,3.1-5.3
		c-1.9-0.5-3.8-1.3-5.8-1.6c-7.6-1.1-15.2-1.8-22.7-3.2C256,436.4,253.3,434.4,250.4,433z M240.4,447.4c-18.5,2.6-36-2.7-53.8-5.8
		c1.5,1.9,3.2,2.9,5,3.5c4.7,1.6,10.2,2,14,4.7c5,3.5,8.6,8.8,13.4,14c-6.7,0.4-13.1,1.4-19.5,1.1s-13-1.2-19.2-2.9
		c-5.9-1.6-11.5-4.5-18.4-7.3c7.3,13.5,57.4,19,65.3,8.1c-5.6-3.6-12.3-6-15.6-12.1c10.9,0,21.6,0.2,32.2-0.1
		c1.9-0.1,3.8-1.9,5.7-2.9c-1.6-1.2-3.1-2.5-4.8-3.5c-6.2-3.6-12.5-7-18.7-10.5c0.2-0.5,0.4-1,0.6-1.5c5.7-0.6,12.1,1.1,17.1-5
		c-1.7-0.4-2.7-0.9-3.2-0.6c-6.1,2.9-12.3,2-18.6,1c-1.3-0.2-2.8,0.3-4.1,0.5c0.7,1.4,1,3.2,2.1,4C226.5,437,233.3,442,240.4,447.4z
		 M174.4,446.6c-10.3-0.2-18.3-3.2-24.9-8.5c-7.5-6-14.2-13-21.3-19.5c-1.2-1.1-2.6-1.9-3.9-2.9c-0.4,0.5-0.8,0.9-1.2,1.4
		c1,1.4,1.7,3.1,2.9,4.3c5.4,5.4,10.8,10.8,16.3,16.1c3.3,3.2,6.7,6.3,7,12.1c-2.5-0.5-4.6-0.6-6.6-1.2c-9.8-2.9-17-9.4-23.6-16.9
		c-1.2-1.3-2.7-2.3-4.2-3.6c-0.6,1.1-0.9,1.4-0.8,1.7c0.1,0.6,0.2,1.4,0.6,1.8c8.2,10.2,17.6,18.7,31,21.3c7,1.4,7.7,0.6,7.1-6.8
		c0-0.3,0.3-0.5,0.1-0.2c7,1.5,13.7,3.1,20.5,4.4c2.9,0.6,4.8-0.7,3.8-3.8c-1.7-5.7-3.6-11.3-5.7-16.9c-0.4-1.2-2-1.9-3.1-2.9
		c-0.3,0.3-0.7,0.5-1,0.8C169.7,433.5,171.9,439.6,174.4,446.6z M205.1,425.5c-1.7-0.1-3.4-0.5-5-0.4c-23,0.9-43.3-5.6-60.6-20.9
		c-1-0.9-2.5-1.3-4.4-2.3C139.1,417.7,192.4,435.8,205.1,425.5z"/>
	<path class="st1" d="M319.8,518.6c0,8.8,0,17.6,0,26.3c0.5,0.1,1,0.2,1.5,0.3c0.9-1.4,1.7-2.8,2.9-4.7c5.1,1.1,10.4,2.2,16,3.4
		c0,2.9,0,5.6,0,9.2c-4.4,0-8.5,0-12.6,0c-1.5,0-3.1-0.3-4.5,0.2c-1.2,0.4-2,1.7-3,2.6c1,0.6,2.1,1.7,3.1,1.7
		c5.1,0.2,10.3,0.1,16.3,0.1c-0.3,6.2-0.6,12-0.9,18.7c-5.9-3.2-10.9-6.1-16.1-8.5c-1.4-0.7-3.4,0-5.2,0.1c0.9,1.3,1.6,3.1,2.8,3.9
		c4.7,2.8,9.5,5.3,15.2,8.5c-3,1.5-5.1,3.1-7.5,3.7c-1.7,0.4-4.2,0.3-5.6-0.7c-3.7-2.6-6.8-5.9-10.4-8.5c-1.3-1-3.4-0.9-5.1-1.3
		c0.6,1.6,0.8,3.7,1.9,4.8c3.5,3.5,7.4,6.5,11.6,10.1c-2.7,1.8-5,3.2-7.7,4.9c-3.3-3.5-6.4-7.1-10-10.3c-1.1-1-3.2-1-4.9-1.4
		c0.4,1.6,0.5,3.5,1.4,4.6c2.7,3.3,5.8,6.3,9.2,9.9c-2.5,1.9-4.6,3.6-7.1,5.5c-3.5-3.2-6.6-6.4-10-9.3c-1-0.8-2.8-0.7-4.3-1
		c0.3,1.5,0.2,3.5,1.1,4.5c2.6,3.1,5.7,5.9,8.4,10.3c-1.5-0.2-3.1,0.1-4.4-0.5c-3-1.4-5.7-3.5-8.7-4.7c-5.7-2.4-11.3-2-16.3,1.4
		c-6.1-5.7-8.7-12.7-10.5-20.5c-2.2-9.4,3.5-13.6,9.9-19c0.9,3.4,2.2,6.4,2.5,9.5c0.5,4.3,2.8,5,5.6,2.9c4-3.1,7.6-6.9,11.2-10.5
		c1.4-1.4,2.4-3.1,4.4-5.6c-0.2,2.2-0.5,3.4-0.5,4.6c0.1,1.7,0.3,3.4,0.5,5.2c1.8-0.7,4-0.8,5.2-2.1c3.9-4,8-8,11.1-12.7
		c6.4-9.6,9.1-20.6,11.2-31.8c0.2-1.3,0.5-2.6,0.8-3.8C318.9,518.6,319.4,518.6,319.8,518.6z"/>
	<path class="st1" d="M240.6,551.3c2.8,7.5,2.8,7.5,9.3,2.4c3.7,2.9,4.6,6.3,4,11.3c-1,7-0.2,14.2-0.2,21.5
		c-1.7,0.6-3.4,1.2-5.1,1.8c0,0.5,0,0.9,0,1.4c2,0.6,4,1.1,6.8,1.9c-2.8,0.6-5,1-7.1,1.4c0,0.6-0.1,1.3-0.1,1.9
		c3.1,0.6,6.3,1.1,9.4,1.7c0,0.4-0.1,0.7-0.1,1.1c-2.6,0.4-5.1,0.9-7.7,1.3c0,0.7-0.1,1.4-0.1,2c4.2,0.4,8.3,0.8,12.5,1.1
		c0,0.4,0,0.7,0,1.1c-3.1,0.4-6.3,0.9-9.4,1.3c0,0.7,0,1.3,0,2c3.6,0.4,7.2,0.8,10.8,1.1c0.1,0.2,0.1,0.3,0.2,0.5
		c-2.3,0.5-4.7,1-7,1.5c-0.3,0.4-0.7,0.9-1,1.3c12.4,1.3,12.4,9.8,12.9,19.3c-2.8-1.6-4.6-3-6.7-3.7c-1.2-0.4-2.9,0.3-4.3,0.5
		c0.6,1.2,1,2.5,1.8,3.5c0.7,0.8,1.9,1.2,3,1.8c6.1,3.6,6.3,4.3,4.2,12.2c-2.6-0.9-5.2-2-7.9-2.5c-1.3-0.2-2.8,0.8-4.2,1.2
		c0.8,1,1.5,2.2,2.5,3.1c0.4,0.4,1.2,0.5,1.8,0.7c7.4,2.8,7.2,2.7,5.1,10.4c-0.9,3.1-2.3,4.1-5.3,3.3c-1-0.3-2.1-0.7-2.9-0.3
		c-1.2,0.5-2.2,1.6-3.2,2.4c1,0.7,1.8,1.7,2.9,2c1.7,0.6,3.5,0.7,6,1.2c-3.2,5.6-2,12.6-8.2,16.3c-0.5,0.3-0.5,1.8-0.3,2.7
		c1.3,5.3-0.4,8-6.1,8.8c1.4-10.1,3.2-20.1,4-30.1c1-14.1,2-28.2,1.5-42.3c-0.2-7.4-3.2-14.8-5.3-22.1c-2.9-10.4-6.3-20.7-9.2-31
		C235.9,562.5,236.7,556.8,240.6,551.3z"/>
	<path class="st2" d="M110.1,158.6c-6.1,13.2-14.4,22.5-27.8,26c-8.1,2.2-16.3,3.6-24.6,1.4c-3.5-0.9-4.7-2.4-3.7-6.4
		c4.6-19.2,15.8-27.8,35.4-25.6C96.1,154.7,102.8,157,110.1,158.6z M83.3,171.2c-2.7-1.9-4.6-4.1-5.7-3.8c-1.7,0.5-3.9,2.6-4.1,4.3
		c-0.1,1.3,2.5,3.9,3.9,4C79,175.7,80.6,173.4,83.3,171.2z"/>
	<path class="st1" d="M205.9,572.7c3.3,0.5,5.7,0.9,8.1,1.3c0,0.4,0,0.7-0.1,1.1c-1.8,0.6-3.6,1.2-5.5,1.8c0,0.5,0,1,0.1,1.5
		c2.9,0.6,5.9,1.1,8.8,1.7c0,0.4,0,0.9-0.1,1.3c-1.4,0.2-2.7,0.2-4.1,0.5c-1.3,0.3-2.5,0.7-3.8,1c0,0.5,0,1.1,0.1,1.6
		c2.8,0.4,5.7,0.8,8.5,1.3c0,0.2,0,0.4,0,0.6c-2.7,0.4-5.3,0.9-8,1.3c0,0.6,0.1,1.2,0.1,1.8c3,0.4,6.1,0.9,9.1,1.3
		c0.1,0.4,0.1,0.8,0.2,1.2c-2.4,0.6-4.8,1.1-7.2,1.7c0,0.5-0.1,1-0.1,1.5c2.3,0.6,4.6,1.1,7.6,1.9c-0.6,4-0.7,8.1-1.8,12
		c-3.9,13.1-8.1,26-12.5,39c-0.6,1.8-2.5,3.1-4.7,4.2C205.7,626,207.4,599.9,205.9,572.7z"/>
	<path class="st3" d="M276.5,603.5c8.6,0.4,18.7,8.3,21.3,16.6c2.1,7-1.8,11.8-9,10.4c-9.4-1.8-16.3-7.2-19.7-16.4
		C266.7,607.9,270.1,603.2,276.5,603.5z"/>
	<path class="st3" d="M425.3,294.8c0.7-2,1.6-6.2,3.6-9.7c2.7-4.7,7.3-4.9,11.2-1c6.6,6.5,8,21.4,2.6,28.8
		c-3.2,4.5-7.5,4.9-11.3,0.9C426.8,309.2,425.6,303.2,425.3,294.8z"/>
	<path class="st3" d="M130.2,586.9c1.6-9.1,4.6-16.3,11.5-21.3c6-4.4,11.6-2,12.5,5.4c1.1,8.7-1.8,16.1-8.1,22
		c-2.8,2.7-6.6,5.4-10.2,3C133.3,594.1,132.1,590,130.2,586.9z"/>
	<path class="st1" d="M104.8,175.1c3-5,5.2-9,7.7-12.8c0.6-1,2-1.7,3.2-2c16.8-4.1,33.6-8.1,50.5-12.2c0.3-0.1,0.6,0.1,1.9,0.5
		C146.8,157.5,126.4,166,104.8,175.1z"/>
	<path class="st1" d="M105.5,186.6c-1.3-2.1-2.4-4-3.9-6.4c24.4-10.2,48.1-20.2,71.9-30.1c0.1,0.3,0.3,0.6,0.4,0.8
		C151.2,162.8,128.6,174.6,105.5,186.6z"/>
	<path class="st1" d="M342.8,523.9c-5-1.8-9.4-3.3-14.5-5.1c0.5-3.9,1.2-8.5,1.9-13.8c4.3,2.1,8.3,3.8,12,5.8c1,0.5,1.8,2.3,1.7,3.5
		C343.9,517.3,343.3,520.2,342.8,523.9z"/>
	<path class="st1" d="M201.2,547.3c4,1.2,4,1.2,12.2-2.6c-0.9,7.9-1.8,16-2.9,24.8c-0.9,0.2-2.6,0.4-4.5,0.8
		C204.4,562.4,202.8,554.9,201.2,547.3z"/>
	<path class="st1" d="M341.1,539.2c-5.6-1.1-10.6-2.1-16.2-3.2c0.9-4.1,1.7-8.3,2.6-12.7c4.3,1.7,8.4,3.1,12.3,5
		c1.1,0.5,2.1,2.4,2.2,3.7C342.1,534.1,341.5,536.4,341.1,539.2z"/>
	<path class="st1" d="M272.5,680.9c-4.5,0-8.3,0-12.9,0c1.5-4.5,2.6-8.7,4.5-12.4c0.6-1.1,3.5-1.5,5.4-1.4c1.1,0.1,2.8,1.7,2.9,2.8
		C272.8,673.5,272.5,677.1,272.5,680.9z"/>
	<path class="st1" d="M473.9,323.2c-7-5.5-7-5.5-4.7-12.9c1.3-4.2,2.7-8.4,4.7-12.6C473.9,306.1,473.9,314.4,473.9,323.2z"/>
	<path class="st1" d="M269,651.2c8.1,1.8,3,7.1,4.4,11.2c-2.8-0.2-4.8-0.4-7.4-0.6C267.1,658.1,268,654.9,269,651.2z"/>
	<path class="st1" d="M190.2,680.8c0.3,1.1,0.5,1.5,0.5,2c0,2,0,4,0,6.3c-4.3,0.4-8.4,0.8-12.4,1.2c-0.2-0.4-0.4-0.8-0.6-1.1
		C181.8,686.4,185.8,683.7,190.2,680.8z"/>
	<path class="st1" d="M180.3,675.9c-2.9,3.2-5.6,6.1-8.4,9.1C169.8,677.2,171.9,677.5,180.3,675.9z"/>
	<path class="st1" d="M274.4,647.5c-7.1-1.6-2.4-6-3.2-9.1C277.2,639.8,275.4,643.5,274.4,647.5z"/>
	<path class="st1" d="M272.8,627.4c5,3.2,5,3.2,3.2,9c-2.1-3.5-3.5-5.8-4.9-8.2C271.7,627.9,272.3,627.7,272.8,627.4z"/>
	<path d="M250.4,433c2.9,1.4,5.6,3.4,8.6,4c7.5,1.4,15.1,2.1,22.7,3.2c2,0.3,3.9,1,5.8,1.6c-1,1.8-1.6,4.4-3.1,5.3
		c-5.2,3.2-10.7,5.8-16.1,8.6c-1.4,0.7-3,0.9-4.5,1.4c0,0.4,0.1,0.9,0.1,1.3c3.3,0,6.5-0.1,9.8,0.1c1.1,0.1,2.1,0.8,3.1,1.2
		c-0.5,1.1-0.6,2.6-1.5,3.4c-4.9,4.9-11.3,6-18.5,6c2.9,4.9,7.5,5.3,11.6,6.6c2,0.6,3.8,2,5.7,3c-1.9,1-3.8,2.5-5.8,3
		c-10.1,2.3-20.2,2.1-30.1-1.2c-1-0.3-2.1-0.6-4.2-1.1c5.2,7.5,11,12.5,19.5,14.2c-5,5.4-21.6,5.4-40.2,0.4c0.8,2.3,1.7,4.2,2,6.1
		c0.5,3.6,1,7.2,0.5,10.7c-0.3,2.4-2.2,3.8-4.5,1c-10.3-12.6-23.9-19.6-39.4-23.9c-15-4.1-29.2-10.4-42.3-18.9
		c-14.9-9.7-26.6-22.1-32.6-39.2c-5.2-14.7-1.2-27.6,11-36.8c1.3-1,2.9-1.6,4.4-2.3c0.3,0.4,0.7,0.8,1,1.2c-1,1.2-1.9,2.6-3.1,3.6
		c-12.3,10-15.2,21.3-9.1,36c5.8,13.7,15.3,24.5,27.5,32.9c13.8,9.4,28.8,16.1,44.8,20.5c14.4,3.9,26.9,10.6,37.2,21.2
		c0.4,0.5,1,0.8,2.7,0.6c-1.6-4.4-3.2-8.7-4.7-13.2c-0.5-1.6-0.4-3.4-0.6-5.1c1.7,0.4,3.5,0.4,5,1.1c8.9,4.4,18.4,5.3,28.9,3.3
		c-2.7-2.5-5.6-4.8-8.1-7.5c-1.9-2.1-3.5-4.5-4.9-6.9c-0.7-1.2-0.5-2.9-0.7-4.4c1.4,0.2,3,0,4.2,0.5c9.6,4.6,19.7,6,31.4,4.4
		c-6-3.2-12-5.7-11.6-13.1c5.8-0.6,11.3-1.2,16.9-1.8c0-0.5-0.1-1-0.1-1.5c-3.3-0.7-6.7-1-9.9-2.2c-1.6-0.6-2.7-2.6-4-4
		c1.5-0.8,2.9-1.8,4.4-2.3c5.8-2,11.7-3.6,17.5-5.7c1.7-0.6,3.1-2.2,5.1-3.8c-11.8-2.8-24.4,0-33-9.3
		C249.8,434.3,250.1,433.7,250.4,433z"/>
	<path d="M240.4,447.4c-7.1-5.3-13.9-10.3-20.5-15.5c-1.1-0.8-1.4-2.6-2.1-4c1.4-0.2,2.8-0.7,4.1-0.5c6.3,1.1,12.5,2,18.6-1
		c0.5-0.3,1.4,0.3,3.2,0.6c-5,6.1-11.4,4.4-17.1,5c-0.2,0.5-0.4,1-0.6,1.5c6.2,3.5,12.5,6.9,18.7,10.5c1.7,1,3.2,2.3,4.8,3.5
		c-1.9,1-3.8,2.9-5.7,2.9c-10.6,0.3-21.2,0.1-32.2,0.1c3.3,6.1,10.1,8.5,15.6,12.1c-8,10.9-58,5.5-65.3-8.1
		c6.9,2.8,12.5,5.7,18.4,7.3c6.2,1.7,12.7,2.6,19.2,2.9c6.4,0.3,12.8-0.7,19.5-1.1c-4.8-5.2-8.5-10.5-13.4-14
		c-3.9-2.7-9.3-3.1-14-4.7c-1.8-0.6-3.5-1.6-5-3.5C204.4,444.7,221.9,450,240.4,447.4z"/>
	<path d="M174.4,446.6c-2.5-6.9-4.8-13.1-7-19.2c0.3-0.3,0.7-0.5,1-0.8c1.1,0.9,2.6,1.7,3.1,2.9c2.1,5.6,4,11.2,5.7,16.9
		c0.9,3.2-0.9,4.4-3.8,3.8c-6.8-1.4-13.5-2.9-20.5-4.4c0.2-0.4-0.1-0.1-0.1,0.2c0.6,7.3-0.1,8.1-7.1,6.8
		c-13.4-2.6-22.8-11.1-31-21.3c-0.4-0.5-0.5-1.2-0.6-1.8c0-0.3,0.3-0.6,0.8-1.7c1.5,1.3,3,2.2,4.2,3.6c6.6,7.5,13.8,14,23.6,16.9
		c2,0.6,4.1,0.8,6.6,1.2c-0.3-5.8-3.6-8.9-7-12.1c-5.5-5.3-10.9-10.7-16.3-16.1c-1.2-1.2-2-2.9-2.9-4.3c0.4-0.5,0.8-0.9,1.2-1.4
		c1.3,1,2.7,1.8,3.9,2.9c7.1,6.5,13.8,13.5,21.3,19.5C156.2,443.4,164.1,446.4,174.4,446.6z"/>
	<path d="M205.1,425.5c-12.7,10.4-66.1-7.8-70.1-23.6c1.9,1,3.4,1.4,4.4,2.3c17.3,15.4,37.7,21.9,60.6,20.9
		C201.8,425,203.5,425.3,205.1,425.5z"/>
	<path d="M83.3,171.2c-2.7,2.2-4.3,4.5-5.9,4.5c-1.4,0-4.1-2.7-3.9-4c0.2-1.6,2.4-3.8,4.1-4.3C78.7,167.1,80.5,169.3,83.3,171.2z"/>
	<g>
		<circle class="st4" cx="120.4" cy="662.4" r="84.7"/>
		<path class="st1" d="M108.2,646c-0.3,0-0.6,0-0.9-0.1c-1.6-0.1-3-0.5-3.6-2.1c-0.6-1.7,0.1-3,1.2-4.3c0.1-0.1,0.3-0.3,0.4-0.4
			c3.6-1.7,3.8-5,3.8-8.4c0-9.5,0-18.9-0.1-28.4c0-3.9-1.8-7.4-3.2-10.9c-0.4-1-0.3-2.2-0.5-3.3c1.1,0.2,2.3,0.2,3.3,0.7
			c2.5,1.2,4.9,2.5,7.2,4c5.1,3.2,7.3,7.8,6.5,13.9c-0.8,6.1-1.1,12.3-1.6,18.4c0,0.5,0,1,0,2.1c1.1-0.7,1.8-1.2,2.6-1.7
			c5.9-4.2,10.2-9.9,15-15.1c1.7-1.8,3.5-3.7,5.3-5.4c1.9-1.8,4.4-2.2,6.6-0.8c3.2,2.1,5.8,4.8,7.6,8.3c1.3,2.7,0.2,5.1-2.7,5.9
			c-2.8,0.7-5.1,2.2-7.4,3.7c-8.3,5.6-16.8,11.1-25.3,16.5c-1.8,1.2-2.4,2.7-2.5,4.6c0,1.2,0.6,1.5,1.6,1.2c5.2-1.6,10.1-3.8,14-7.8
			c2.3-2.3,4.4-2.8,7.1-1.3c1.8,1,3.5,2.1,5.1,3.3c2.3,1.8,2.6,4.1,0.7,6.3c-1,1.2-2.3,2.3-3.7,3c-5.7,2.8-10.4,6.9-14.8,11.3
			c-1.1,1.1-1.2,2.3-0.2,3.5c0.6,0.8,1.3,1.4,1.9,2.1c2.5,2.8,2.8,5.9,1,9.1c-4.4,7.8-5,16-2.5,24.5c1,3.5,3.9,4.8,7.1,5.5
			c9.5,1.9,18.6,0.3,27.5-2.9c1.8-0.6,2.1-1.3,1.3-3c-2.1-4.1-4.1-8.2-6.2-12.3c-0.4-0.8-0.7-1.5-1-2.3c-0.6-1.5-0.3-3,0.9-4.1
			c1.3-1.2,2.8-0.8,4.2-0.1c0.9,0.5,1.8,1.2,2.5,2c5.2,5.3,10.7,10.4,14.7,16.7c0.3,0.5,0.9,0.9,1.5,1.3c1.7,1.2,2.7,2.8,2.4,4.9
			c-0.3,2.2-1.7,3.6-3.8,4.4c-12.7,4.9-25.8,7.5-39.5,6.6c-5.8-0.4-11.5-1.2-16.4-4.5c-1.6-1.1-3.2-2.6-4.1-4.3
			c-4.5-7.8-4.9-16.4-3.5-25.1c0.4-2.6,1.2-5.1,1.7-7.7c0.2-1.2,0.3-2.3,0.5-3.5c-0.2-0.1-0.3-0.2-0.5-0.3c-0.8,0.8-1.7,1.7-2.5,2.5
			c-10.7,11-21.7,21.7-34.4,30.5c-2.7,1.9-5.5,3.5-8.3,5.3c-3.8,2.3-8.1,3.3-12.4,4c-0.6,0.1-1.5-0.3-1.8-0.7
			c-0.3-0.3-0.1-1.3,0.3-1.8c0.8-1,1.6-2.1,2.6-2.9c9.2-8,18.7-15.6,27.6-23.8c8.3-7.6,16.1-15.8,24.1-23.7c0.2-0.2,0.4-0.4,0.6-0.8
			c-4.3,1.3-8.4,2.7-12.6,3.7c-5.2,1.3-10.4,2.3-15.6,3.3c-1.2,0.2-2.6,0.1-3.7-0.2c-4.3-1.1-7.6-3.7-10.5-6.9
			c-0.6-0.6-1.2-2.2-0.9-2.6c0.6-0.8,1.9-0.9,2.8-1.4c0.1-0.1,0.4,0,0.5,0c8.1,1.4,15.7-1.1,23.3-3c2.4-0.6,4.9-1.3,7.3-2
			C107.7,648.7,108,648.2,108.2,646z"/>
		<path class="st1" d="M85.1,616.1c2.8,0,5.8,2.6,6.8,6c0.7,2.5,1.1,5.1,1.7,7.7c0.9,3.5,1.8,7.1,2.7,10.5c0.1,0.5,0.4,1,0.4,1.5
			c0,0.5-0.1,1.2-0.4,1.4c-0.3,0.3-1.1,0.3-1.5,0c-5.8-3.5-11.3-7.3-14.2-13.7c-1.4-2.9-1.6-6-1-9.1
			C80.2,617.7,82.3,616.1,85.1,616.1z"/>
	</g>
</g>
</svg>
