<?xml version="1.0" encoding="utf-8"?>
<!-- Generator: Adobe Illustrator 22.0.1, SVG Export Plug-In . SVG Version: 6.00 Build 0)  -->
<svg version="1.1" id="레이어_1" xmlns="http://www.w3.org/2000/svg" xmlns:xlink="http://www.w3.org/1999/xlink" x="0px"
	 y="0px" viewBox="0 0 89.1 85.6" style="enable-background:new 0 0 89.1 85.6;" xml:space="preserve">
<style type="text/css">
	.st0{fill:#FFFFFF;}
	.st1{fill:url(#SVGID_1_);}
</style>
<path class="st0" d="M5.9,0.4C5.3,0.5,4.7,0.6,4.1,0.7c-1,6.5-2.3,13-2.8,19.5c-0.6,8.1-1.8,16.4-0.5,24.3c3.3,20,17.3,30.8,35.3,37
	c13.8,4.7,28,6.1,41.7-1c4.8-2.5,5.2-4,2.3-8.6c-2.2-3.6-4.8-7-7.8-11.4c4.5-0.4,7.9-0.4,11.3-1.1c1.8-0.3,4-1.3,4.8-2.7
	c0.6-1-0.5-3.5-1.5-4.7c-2.8-3.2-5.9-6.3-9.2-9.2C64.3,31,48.4,24.6,31.2,20.9C21.3,18.9,13.8,13.7,9,4.8C8.1,3.2,6.9,1.9,5.9,0.4z"
	/>
<g>
	<linearGradient id="SVGID_1_" gradientUnits="userSpaceOnUse" x1="0.25" y1="42.8571" x2="88.5763" y2="42.8571">
		<stop  offset="0" style="stop-color:#FFFFFF"/>
		<stop  offset="1" style="stop-color:#FFBBD6"/>
	</linearGradient>
	<path class="st1" d="M5.9,0.4c1,1.4,2.3,2.8,3.1,4.3c4.8,9,12.3,14.1,22.2,16.2C48.4,24.6,64.3,31,77.7,42.7
		c3.2,2.8,6.3,5.9,9.2,9.2c1.1,1.2,2.1,3.7,1.5,4.7c-0.8,1.4-3,2.4-4.8,2.7c-3.4,0.6-6.8,0.7-11.3,1.1c3,4.4,5.6,7.8,7.8,11.4
		c2.9,4.6,2.5,6.1-2.3,8.6c-13.7,7.1-27.9,5.8-41.7,1c-17.9-6.2-32-17-35.3-37c-1.3-7.9-0.1-16.2,0.5-24.3c0.5-6.5,1.8-13,2.8-19.5
		C4.7,0.6,5.3,0.5,5.9,0.4z"/>
</g>
</svg>
