<?xml version="1.0" encoding="utf-8"?>
<!-- Generator: Adobe Illustrator 22.0.1, SVG Export Plug-In . SVG Version: 6.00 Build 0)  -->
<svg version="1.1" id="레이어_1" xmlns="http://www.w3.org/2000/svg" xmlns:xlink="http://www.w3.org/1999/xlink" x="0px"
	 y="0px" viewBox="0 0 127 128.8" style="enable-background:new 0 0 127 128.8;" xml:space="preserve">
<style type="text/css">
	.st0{fill:#FFFFFF;}
	.st1{fill:url(#SVGID_1_);}
</style>
<path class="st0" d="M61.3,23.6c-1-6.9-1.9-12.9-2.7-19c-0.5-4-2.1-4.9-5.6-2.9c-4,2.4-7.8,5.1-11.8,7.5
	c-10,5.9-18.9,13.1-25.9,22.4C3.9,47-0.8,64,3.5,83c2.8,12.2,5.7,24.3,4.5,37c-0.3,2.8,0.3,5.7,0.5,8.9c1.4-0.4,2.1-0.4,2.6-0.7
	c19.9-10.5,40.8-17.7,63.2-20.5c13.4-1.7,26.6-4.8,38.2-12.4c9.7-6.3,15.4-15,14.8-27.1c-1-20.7-9-38.7-22.2-54.5
	c-2.5-3-5.2-6.1-8.4-8.5c-1.5-1.1-4.6-1.5-6.2-0.7c-7.8,4.3-15.4,9.1-23,13.8C65.5,19.6,63.8,21.4,61.3,23.6z"/>
<linearGradient id="SVGID_1_" gradientUnits="userSpaceOnUse" x1="108.739" y1="17.7106" x2="2.5376" y2="123.912">
	<stop  offset="0" style="stop-color:#FFE6D6"/>
	<stop  offset="0.2951" style="stop-color:#FFE1D6"/>
	<stop  offset="1" style="stop-color:#FF79D6"/>
</linearGradient>
<path class="st1" d="M60.3,23.6c2.5-2.2,4.2-4,6.3-5.3c7.6-4.8,15.2-9.5,23-13.8c1.5-0.8,4.7-0.4,6.2,0.7c3.1,2.4,5.8,5.4,8.4,8.5
	c13.2,15.8,21.1,33.7,22.2,54.5c0.6,12.1-5.2,20.8-14.8,27.1c-11.5,7.5-24.8,10.6-38.2,12.4c-22.4,2.9-43.3,10-63.2,20.5
	c-0.6,0.3-1.2,0.4-2.6,0.7c-0.2-3.2-0.7-6.1-0.5-8.9c1.2-12.7-1.7-24.8-4.5-37c-4.3-19,0.4-36,11.8-51.2c7-9.3,15.9-16.5,25.9-22.4
	c4-2.4,7.8-5.2,11.8-7.5c3.6-2.1,5.1-1.2,5.6,2.9C58.5,10.7,59.3,16.7,60.3,23.6z"/>
</svg>
