<?xml version="1.0" encoding="utf-8"?>
<!-- Generator: Adobe Illustrator 22.0.1, SVG Export Plug-In . SVG Version: 6.00 Build 0)  -->
<svg version="1.1" id="레이어_1" xmlns="http://www.w3.org/2000/svg" xmlns:xlink="http://www.w3.org/1999/xlink" x="0px"
	 y="0px" viewBox="0 0 700 239" style="enable-background:new 0 0 700 239;" xml:space="preserve">
<style type="text/css">
	.st0{fill:#154BA9;}
	.st1{fill:#FFFFFF;}
	.st2{fill:none;}
	.st3{enable-background:new    ;}
	.st4{fill:#D30900;}
	.st5{fill:#FFFF58;}
	.st6{fill:#FCFCFC;}
</style>
<g>
	<g>
		<path class="st0" d="M240.9,119.6c0,66.3-52.4,118.5-119,118.5C56.2,238,4,185.3,3.9,119C3.9,53.7,57.4,0.5,123.3,1
			C188.5,1.5,240.9,54,240.9,119.6z M122.2,189.3c28.9,0,57.8,0,86.7,0c1.7,0,2.8-0.4,3.8-1.8c18.7-26.5,26.7-55.7,20.6-87.9
			c-13.7-72.9-81.2-100.7-130.8-91C45.3,19.8,12.5,64.7,9.8,114.5c-1.5,26.9,6.8,51.3,22.5,73.2c1,1.4,2.1,1.6,3.6,1.6
			C64.7,189.3,93.4,189.3,122.2,189.3z"/>
		<path class="st1" d="M122.2,189.3c-28.8,0-57.5,0-86.2,0c-1.5,0-2.6-0.2-3.6-1.6c-15.8-21.9-24-46.2-22.5-73.2
			c2.7-49.8,35.4-94.7,92.7-105.9c49.7-9.7,117.1,18.2,130.7,91c6,32.2-1.9,61.4-20.6,87.9c-1,1.4-2.1,1.8-3.8,1.8
			C180,189.3,151.1,189.3,122.2,189.3z M108.2,90c-0.2,3-0.7,3.6-3.3,4.3c-3.2,0.9-6.4,1.8-9.6,2.6c-10.2,2.4-20.3,5.8-31,3.9
			c-0.2,0-0.5-0.1-0.7,0c-1.3,0.5-3.1,0.8-3.8,1.8c-0.4,0.6,0.4,2.6,1.1,3.5c3.9,4.2,8.3,7.7,13.9,9.2c1.6,0.4,3.3,0.5,5,0.2
			c6.9-1.3,13.9-2.8,20.7-4.4c5.5-1.4,10.9-3.2,16.7-4.9c-0.4,0.5-0.6,0.8-0.9,1.1c-10.6,10.5-21,21.4-32,31.5
			c-11.9,10.9-24.5,21.1-36.7,31.6c-1.3,1.1-2.5,2.5-3.5,3.9c-0.4,0.6-0.7,1.9-0.3,2.3c0.5,0.6,1.7,1.1,2.4,1
			c5.7-0.9,11.4-2.1,16.4-5.3c3.7-2.3,7.5-4.5,11.1-7c16.9-11.6,31.4-25.9,45.6-40.5c1.1-1.1,2.2-2.2,3.3-3.3
			c0.2,0.1,0.4,0.3,0.7,0.4c-0.2,1.6-0.3,3.2-0.6,4.7c-0.7,3.4-1.6,6.8-2.2,10.3c-2,11.6-1.4,22.9,4.6,33.3c1.3,2.2,3.3,4.3,5.5,5.7
			c6.6,4.3,14.1,5.4,21.8,5.9c18.2,1.1,35.6-2.2,52.5-8.8c2.7-1.1,4.6-2.9,5-5.9c0.4-2.8-1-4.9-3.2-6.5c-0.7-0.5-1.5-1-2-1.7
			c-5.4-8.4-12.6-15.1-19.5-22.2c-1-1-2.1-2-3.3-2.6c-1.8-1-3.9-1.4-5.6,0.1c-1.6,1.4-2,3.4-1.2,5.4c0.4,1.1,0.8,2.1,1.3,3.1
			c2.7,5.5,5.5,10.9,8.3,16.4c1.1,2.2,0.7,3.2-1.7,4c-11.8,4.2-23.9,6.4-36.5,3.8c-4.3-0.9-8.1-2.7-9.5-7.3
			c-3.3-11.3-2.6-22.2,3.3-32.5c2.4-4.3,2.1-8.3-1.3-12c-0.9-1-1.8-1.8-2.6-2.8c-1.3-1.6-1.2-3.2,0.2-4.7
			c5.9-5.8,12.1-11.3,19.7-14.9c1.9-0.9,3.6-2.4,5-4c2.5-2.9,2.1-6-0.9-8.3c-2.1-1.6-4.4-3.1-6.8-4.4c-3.6-2-6.4-1.3-9.4,1.8
			c-5.2,5.3-11.7,8.2-18.5,10.4c-1.3,0.4-2.1,0-2.1-1.6c0-2.6,0.9-4.6,3.3-6.2c11.2-7.2,22.4-14.5,33.5-21.9c3.2-2.1,6.2-4,9.9-5
			c3.8-1,5.3-4.3,3.5-7.8c-2.3-4.6-5.8-8.2-10-11c-2.9-1.9-6.3-1.4-8.7,1c-2.4,2.3-4.7,4.7-7,7.2c-6.4,6.9-12.1,14.6-20,20.1
			c-1,0.7-2,1.3-3.4,2.3c0-1.3,0-2,0-2.7c0.7-8.2,1.1-16.4,2.1-24.5c1.1-8.2-1.9-14.2-8.6-18.5c-3.1-2-6.3-3.7-9.6-5.3
			c-1.3-0.6-3-0.7-4.4-1c0.2,1.5,0.1,3.1,0.6,4.4c2,4.7,4.3,9.3,4.3,14.5c0.1,12.6,0,25.1,0.1,37.7c0,4.5-0.2,8.8-5,11.1
			c-0.2,0.1-0.4,0.3-0.5,0.5c-1.4,1.6-2.3,3.5-1.5,5.7c0.8,2.2,2.7,2.7,4.8,2.8C107.5,89.9,107.8,90,108.2,90z M77.6,50.3
			c-3.8,0-6.6,2.2-7.3,5.9c-0.8,4.2-0.4,8.2,1.4,12.1c4,8.5,11.3,13.6,18.9,18.2c0.5,0.3,1.5,0.3,2,0s0.5-1.2,0.5-1.9
			c0-0.7-0.4-1.3-0.6-2.1c-1.2-4.7-2.5-9.3-3.6-14c-0.8-3.4-1.3-6.9-2.2-10.2C85.4,53.7,81.3,50.3,77.6,50.3z"/>
		<path class="st0" d="M108.2,90c-0.4,0-0.8,0-1.1-0.1c-2.1-0.1-4-0.7-4.8-2.8c-0.8-2.2,0.1-4,1.5-5.7c0.1-0.2,0.3-0.4,0.5-0.5
			c4.8-2.3,5.1-6.6,5-11.1c0-12.6,0-25.1-0.1-37.7c0-5.2-2.3-9.8-4.3-14.5c-0.5-1.3-0.4-2.9-0.6-4.4c1.5,0.3,3.1,0.3,4.4,1
			c3.3,1.6,6.5,3.3,9.6,5.3c6.7,4.3,9.6,10.3,8.6,18.5c-1.1,8.1-1.4,16.3-2.1,24.5c0,0.7,0,1.4,0,2.7c1.4-1,2.4-1.6,3.4-2.3
			c7.8-5.5,13.5-13.2,20-20.1c2.3-2.4,4.6-4.9,7-7.2c2.5-2.4,5.9-2.9,8.7-1c4.2,2.8,7.7,6.4,10,11c1.8,3.5,0.3,6.8-3.5,7.8
			c-3.7,1-6.7,2.9-9.9,5C149.5,65.7,138.3,73,127,80.1c-2.4,1.5-3.2,3.5-3.3,6.2c0,1.6,0.8,2,2.1,1.6c6.9-2.1,13.4-5.1,18.5-10.4
			c3-3.1,5.8-3.7,9.4-1.8c2.4,1.3,4.7,2.8,6.8,4.4c3,2.3,3.4,5.4,0.9,8.3c-1.4,1.6-3.1,3.1-5,4c-7.6,3.7-13.8,9.2-19.7,14.9
			c-1.5,1.4-1.5,3.1-0.2,4.7c0.8,1,1.7,1.9,2.6,2.8c3.3,3.7,3.7,7.8,1.3,12c-5.9,10.3-6.6,21.3-3.3,32.5c1.4,4.6,5.1,6.4,9.5,7.3
			c12.6,2.6,24.6,0.4,36.5-3.8c2.4-0.9,2.8-1.7,1.7-4c-2.7-5.5-5.5-10.9-8.3-16.4c-0.5-1-0.9-2-1.3-3.1c-0.8-2.1-0.4-4,1.2-5.4
			c1.7-1.5,3.8-1.1,5.6-0.1c1.2,0.7,2.4,1.6,3.3,2.6c6.9,7,14.1,13.8,19.5,22.2c0.4,0.7,1.2,1.2,2,1.7c2.2,1.6,3.6,3.7,3.2,6.5
			c-0.4,3-2.3,4.8-5,5.9c-16.9,6.5-34.3,9.9-52.5,8.8c-7.7-0.5-15.2-1.6-21.8-5.9c-2.1-1.4-4.2-3.5-5.5-5.7
			c-6-10.4-6.5-21.7-4.6-33.3c0.6-3.4,1.5-6.8,2.2-10.3c0.3-1.5,0.4-3.1,0.6-4.7c-0.2-0.1-0.4-0.3-0.7-0.4c-1.1,1.1-2.2,2.2-3.3,3.3
			c-14.2,14.6-28.8,28.8-45.6,40.5c-3.6,2.5-7.4,4.7-11.1,7c-5.1,3.1-10.7,4.4-16.4,5.3c-0.8,0.1-2-0.3-2.4-1
			c-0.3-0.4-0.1-1.7,0.3-2.3c1-1.4,2.1-2.8,3.5-3.9c12.2-10.6,24.8-20.7,36.7-31.6c11-10.1,21.4-21,32-31.5c0.2-0.2,0.5-0.6,0.9-1.1
			c-5.7,1.7-11.1,3.5-16.7,4.9c-6.9,1.7-13.8,3.1-20.7,4.4c-1.6,0.3-3.4,0.1-5-0.2c-5.7-1.4-10.1-4.9-13.9-9.2
			c-0.8-0.9-1.6-2.9-1.1-3.5c0.8-1,2.5-1.2,3.8-1.8c0.2-0.1,0.5,0,0.7,0c10.7,1.9,20.8-1.5,31-3.9c3.2-0.8,6.4-1.7,9.6-2.6
			C107.5,93.6,108,93,108.2,90z"/>
		<path class="st0" d="M77.6,50.3c3.7,0,7.7,3.4,9,8c1,3.3,1.4,6.8,2.2,10.2c1.1,4.7,2.4,9.4,3.6,14c0.2,0.7,0.6,1.3,0.6,2.1
			c0,0.7-0.1,1.6-0.5,1.9s-1.5,0.3-2,0c-7.7-4.6-14.9-9.7-18.9-18.2c-1.8-3.9-2.1-7.9-1.4-12.1C71.1,52.5,73.9,50.3,77.6,50.3z"/>
		<rect x="86.4" y="191.3" class="st2" width="85" height="37.1"/>
		<g class="st3">
			<path class="st1" d="M103.8,225.9h-6.3v-25.4h-9.3V195h24.9v5.5h-9.3L103.8,225.9L103.8,225.9z"/>
			<path class="st1" d="M151.5,205.3c-0.4-1.5-0.9-2.6-1.5-3.3c-1.1-1.3-2.8-2-5-2c-2,0-3.6,0.7-4.9,2.1c-1.7,1.8-2.6,4.7-2.6,8.5
				c0,3,0.6,5.4,1.7,7.3c1.3,2.1,3.2,3.2,5.8,3.2c1.7,0,3.2-0.5,4.3-1.5c1.1-1,1.9-2.4,2.3-4.3h6.4c-0.7,3.5-2.1,6.3-4.2,8.2
				c-2.3,2.1-5.2,3.2-8.8,3.2c-4.2,0-7.5-1.4-9.9-4.2c-2.6-2.9-3.9-6.9-3.9-12.1c0-5.1,1.3-9.1,4-12c2.5-2.7,5.8-4.1,9.8-4.1
				c4.1,0,7.3,1.2,9.7,3.7c2,2.1,3,4.4,3.2,7.2L151.5,205.3L151.5,205.3z"/>
		</g>
		<circle class="st1" cx="121.7" cy="211" r="3.6"/>
	</g>
	<g>
		<path d="M696,119.5c0,66.3-52.4,118.5-119,118.4c-65.7,0-117.9-52.7-118-119C459,53.7,512.6,0.5,578.4,1
			C643.6,1.5,696,54,696,119.5z M577.3,189.3c28.9,0,57.8,0,86.7,0c1.7,0,2.8-0.4,3.8-1.8c18.7-26.5,26.6-55.7,20.6-87.9
			c-13.7-72.9-81.1-100.7-130.8-91c-57.2,11.2-89.9,56.1-92.7,105.9c-1.5,26.9,6.8,51.3,22.5,73.2c1,1.4,2.1,1.6,3.6,1.6
			C519.9,189.3,548.6,189.3,577.3,189.3z"/>
		<path class="st4" d="M577.3,189.3c-28.8,0-57.5,0-86.2,0c-1.5,0-2.6-0.2-3.6-1.6c-15.8-21.9-24-46.2-22.5-73.2
			c2.7-49.8,35.4-94.7,92.7-105.9c49.7-9.7,117.1,18.1,130.7,91c6,32.2-1.9,61.4-20.6,87.9c-1,1.4-2.1,1.8-3.8,1.8
			C635.1,189.3,606.2,189.3,577.3,189.3z M563.4,90c-0.2,3-0.7,3.6-3.3,4.3c-3.2,0.9-6.4,1.8-9.6,2.6c-10.2,2.4-20.2,5.8-30.9,3.9
			c-0.2,0-0.5-0.1-0.7,0c-1.3,0.5-3.1,0.8-3.8,1.8c-0.4,0.6,0.4,2.6,1.1,3.5c3.9,4.2,8.3,7.7,13.9,9.2c1.6,0.4,3.3,0.5,5,0.2
			c6.9-1.3,13.9-2.8,20.7-4.4c5.5-1.4,10.9-3.2,16.7-4.9c-0.4,0.5-0.6,0.8-0.9,1.1c-10.6,10.5-21,21.4-32,31.5
			c-11.9,10.9-24.5,21.1-36.7,31.6c-1.3,1.1-2.5,2.5-3.5,3.9c-0.4,0.6-0.7,1.9-0.3,2.3c0.5,0.6,1.7,1.1,2.4,1
			c5.7-0.9,11.4-2.1,16.4-5.3c3.7-2.3,7.5-4.5,11.1-7c16.9-11.6,31.4-25.9,45.6-40.5c1.1-1.1,2.2-2.2,3.3-3.3
			c0.2,0.1,0.4,0.3,0.7,0.4c-0.2,1.6-0.3,3.2-0.6,4.7c-0.7,3.4-1.6,6.8-2.2,10.3c-2,11.6-1.4,22.9,4.6,33.3c1.3,2.2,3.3,4.3,5.5,5.7
			c6.6,4.3,14.1,5.4,21.8,5.9c18.2,1.1,35.6-2.2,52.5-8.8c2.7-1.1,4.6-2.9,5-5.9c0.4-2.8-1-4.9-3.2-6.5c-0.7-0.5-1.5-1-2-1.7
			c-5.4-8.4-12.6-15.1-19.5-22.2c-1-1-2.1-2-3.3-2.6c-1.8-1-3.9-1.4-5.6,0.1c-1.6,1.4-2,3.4-1.2,5.4c0.4,1.1,0.8,2.1,1.3,3.1
			c2.7,5.5,5.5,10.9,8.3,16.4c1.1,2.2,0.7,3.2-1.7,4c-11.8,4.2-23.9,6.4-36.5,3.8c-4.3-0.9-8.1-2.7-9.5-7.3
			c-3.3-11.3-2.6-22.2,3.3-32.5c2.4-4.3,2.1-8.3-1.3-12c-0.9-1-1.8-1.8-2.6-2.8c-1.3-1.6-1.2-3.2,0.2-4.7
			c5.9-5.8,12.1-11.3,19.7-14.9c1.9-0.9,3.6-2.4,5-4c2.5-2.9,2.1-6-0.9-8.3c-2.1-1.6-4.4-3.1-6.8-4.4c-3.6-2-6.4-1.3-9.4,1.8
			c-5.2,5.3-11.7,8.2-18.5,10.4c-1.3,0.4-2.1,0-2.1-1.6c0-2.6,0.9-4.6,3.3-6.2c11.2-7.2,22.4-14.5,33.5-21.9c3.2-2.1,6.2-4,9.9-5
			c3.8-1,5.3-4.3,3.5-7.8c-2.3-4.6-5.8-8.2-10-11c-2.9-1.9-6.3-1.4-8.7,1c-2.4,2.3-4.7,4.7-7,7.2c-6.4,6.9-12.1,14.6-20,20.1
			c-1,0.7-2,1.3-3.4,2.3c0-1.3,0-2,0-2.7C580.6,54.3,581,46,582,38c1.1-8.2-1.9-14.2-8.6-18.5c-3.1-2-6.3-3.7-9.6-5.3
			c-1.3-0.6-3-0.7-4.4-1c0.2,1.5,0.1,3.1,0.6,4.4c2,4.7,4.3,9.3,4.3,14.5c0.1,12.6,0,25.1,0.1,37.7c0,4.5-0.2,8.8-5,11.1
			c-0.2,0.1-0.4,0.3-0.5,0.5c-1.4,1.6-2.3,3.5-1.5,5.7s2.7,2.7,4.8,2.8C562.6,89.9,563,90,563.4,90z M532.8,50.3
			c-3.8,0-6.6,2.2-7.3,5.9c-0.8,4.2-0.4,8.2,1.4,12.1c4,8.5,11.3,13.6,18.9,18.2c0.5,0.3,1.5,0.3,2,0c0.4-0.3,0.5-1.2,0.5-1.9
			c0-0.7-0.4-1.3-0.6-2.1c-1.2-4.7-2.5-9.3-3.6-14c-0.8-3.4-1.3-6.9-2.2-10.2C540.5,53.7,536.5,50.3,532.8,50.3z"/>
		<path class="st5" d="M563.4,90c-0.4,0-0.8,0-1.1-0.1c-2.1-0.1-4-0.7-4.8-2.8c-0.8-2.2,0.1-4,1.5-5.7c0.1-0.2,0.3-0.4,0.5-0.5
			c4.8-2.3,5.1-6.6,5-11.1c0-12.6,0-25.1-0.1-37.7c0-5.2-2.3-9.8-4.3-14.5c-0.5-1.3-0.4-2.9-0.6-4.4c1.5,0.3,3.1,0.3,4.4,1
			c3.3,1.6,6.5,3.3,9.6,5.3c6.7,4.3,9.6,10.3,8.6,18.5c-1.1,8.1-1.4,16.3-2.1,24.5c0,0.7,0,1.4,0,2.7c1.4-1,2.4-1.6,3.4-2.3
			c7.8-5.5,13.5-13.2,20-20.1c2.3-2.4,4.6-4.9,7-7.2c2.5-2.4,5.9-2.9,8.7-1c4.2,2.8,7.7,6.4,10,11c1.8,3.5,0.3,6.8-3.5,7.8
			c-3.7,1-6.7,2.9-9.9,5c-11.1,7.5-22.3,14.8-33.5,21.9c-2.4,1.5-3.2,3.5-3.3,6.2c0,1.6,0.8,2,2.1,1.6c6.9-2.1,13.4-5.1,18.5-10.4
			c3-3.1,5.8-3.7,9.4-1.8c2.4,1.3,4.7,2.8,6.8,4.4c3,2.3,3.4,5.4,0.9,8.3c-1.4,1.6-3.1,3.1-5,4c-7.6,3.7-13.8,9.2-19.7,14.9
			c-1.5,1.4-1.5,3.1-0.2,4.7c0.8,1,1.7,1.9,2.6,2.8c3.3,3.7,3.7,7.8,1.3,12c-5.9,10.3-6.6,21.3-3.3,32.5c1.4,4.6,5.1,6.4,9.5,7.3
			c12.6,2.6,24.6,0.4,36.5-3.8c2.4-0.9,2.8-1.7,1.7-4c-2.7-5.5-5.5-10.9-8.3-16.4c-0.5-1-0.9-2-1.3-3.1c-0.8-2.1-0.4-4,1.2-5.4
			c1.7-1.5,3.8-1.1,5.6-0.1c1.2,0.7,2.4,1.6,3.3,2.6c6.9,7,14.1,13.8,19.5,22.2c0.4,0.7,1.2,1.2,2,1.7c2.2,1.6,3.6,3.7,3.2,6.5
			c-0.4,3-2.3,4.8-5,5.9c-16.9,6.5-34.3,9.9-52.5,8.8c-7.7-0.5-15.2-1.6-21.8-5.9c-2.1-1.4-4.2-3.5-5.5-5.7
			c-6-10.4-6.5-21.7-4.6-33.3c0.6-3.4,1.5-6.8,2.2-10.3c0.3-1.5,0.4-3.1,0.6-4.7c-0.2-0.1-0.4-0.3-0.7-0.4c-1.1,1.1-2.2,2.2-3.3,3.3
			c-14.2,14.6-28.8,28.8-45.6,40.5c-3.6,2.5-7.4,4.7-11.1,7c-5.1,3.1-10.7,4.4-16.4,5.3c-0.8,0.1-2-0.3-2.4-1
			c-0.3-0.4-0.1-1.7,0.3-2.3c1-1.4,2.1-2.8,3.5-3.9c12.2-10.6,24.8-20.7,36.7-31.6c11-10.1,21.3-21,32-31.5c0.2-0.2,0.5-0.6,0.9-1.1
			c-5.7,1.7-11.1,3.5-16.7,4.9c-6.9,1.7-13.8,3.1-20.7,4.4c-1.6,0.3-3.4,0.1-5-0.2c-5.7-1.4-10.1-4.9-13.9-9.2
			c-0.8-0.9-1.6-2.9-1.1-3.5c0.8-1,2.5-1.2,3.8-1.8c0.2-0.1,0.5,0,0.7,0c10.7,1.9,20.8-1.5,30.9-3.9c3.2-0.8,6.4-1.7,9.6-2.6
			C562.7,93.6,563.1,93,563.4,90z"/>
		<path class="st5" d="M532.8,50.3c3.7,0,7.7,3.4,9,8c1,3.3,1.4,6.8,2.2,10.2c1.1,4.7,2.4,9.4,3.6,14c0.2,0.7,0.6,1.3,0.6,2.1
			c0,0.7-0.1,1.6-0.5,1.9c-0.4,0.3-1.5,0.3-2,0c-7.7-4.6-14.9-9.7-18.9-18.2c-1.8-3.9-2.1-7.9-1.4-12.1
			C526.2,52.5,529,50.3,532.8,50.3z"/>
		<g class="st3">
			<path class="st1" d="M549.6,225.8h-6.3v-25.4H534v-5.5h24.9v5.5h-9.3L549.6,225.8L549.6,225.8z"/>
			<path class="st1" d="M568.9,225.8h-6.6l10.9-30.9h7.3l10.7,30.9h-6.8l-2-6.4H571L568.9,225.8z M572.7,214.1h7.8l-3.8-12.2h-0.1
				L572.7,214.1z"/>
			<path class="st1" d="M618.8,225.8h-23.7v-5.4l15.8-20h-15.8v-5.5h23.6v5.1l-15.9,20.4h16V225.8z"/>
		</g>
		<rect x="541.5" y="191.3" class="st2" width="85" height="37.1"/>
	</g>
	<g>
		<path class="st1" d="M433.7,141.8c-41.1,0-81.6,0-122.7,0c0-4.9,0-9.2,0-14.1c-15.3,9.5-29.9,18.6-45.2,28.1
			c15.3,9.5,30,18.7,45.5,28.3c0-5.5,0-9.7,0-14.7c41,0,81.7,0,122.4,0C433.7,160,433.7,151.4,433.7,141.8z M389.1,115.7
			c15.4-9.6,30.1-18.7,45.4-28.2c-15.3-9.5-30.1-18.7-45.6-28.4c0,5.5,0,9.9,0,14.9c-41,0-81.5,0-122.1,0c0,9.4,0,18.1,0,27.4
			c40.9,0,81.4,0,122.3,0C389.1,106.2,389.1,110.4,389.1,115.7z"/>
		<path class="st6" d="M433.7,141.8c0,9.5,0,18.2,0,27.5c-40.7,0-81.3,0-122.4,0c0,5,0,9.3,0,14.7c-15.5-9.6-30.2-18.8-45.5-28.3
			c15.2-9.5,29.8-18.6,45.2-28.1c0,4.9,0,9.2,0,14.1C352.1,141.8,392.6,141.8,433.7,141.8z"/>
		<path class="st6" d="M389.1,115.7c0-5.2,0-9.5,0-14.3c-40.9,0-81.4,0-122.3,0c0-9.3,0-18,0-27.4c40.6,0,81.1,0,122.1,0
			c0-5,0-9.4,0-14.9c15.6,9.7,30.3,18.9,45.6,28.4C419.2,96.9,404.5,106.1,389.1,115.7z"/>
	</g>
</g>
</svg>
